<svg width="20" height="27" viewBox="0 0 20 27" fill="none" xmlns="http://www.w3.org/2000/svg">
<path d="M10 0C8.35499 0 7 1.35499 7 3H3C1.35503 3 0 4.35503 0 6V24C0 25.645 1.35503 27 3 27H17C18.645 27 20 25.645 20 24V6C20 4.35503 18.645 3 17 3H13C13 1.35499 11.645 0 10 0ZM10 2C10.5641 2 11 2.43587 11 3C11 3.56413 10.5641 4 10 4C9.43587 4 9 3.56413 9 3C9 2.43587 9.43587 2 10 2ZM3 5H7V6C7 6.552 7.448 7 8 7H12C12.552 7 13 6.552 13 6V5H17C17.565 5 18 5.43497 18 6V24C18 24.565 17.565 25 17 25H3C2.43497 25 2 24.565 2 24V6C2 5.43497 2.43497 5 3 5ZM6 11C5.86749 10.9981 5.73593 11.0226 5.61296 11.072C5.48999 11.1214 5.37807 11.1948 5.2837 11.2878C5.18933 11.3809 5.11439 11.4918 5.06324 11.614C5.0121 11.7363 4.98576 11.8675 4.98576 12C4.98576 12.1325 5.0121 12.2637 5.06324 12.386C5.11439 12.5082 5.18933 12.6191 5.2837 12.7122C5.37807 12.8052 5.48999 12.8786 5.61296 12.928C5.73593 12.9774 5.86749 13.0019 6 13H14C14.1325 13.0019 14.2641 12.9774 14.387 12.928C14.51 12.8786 14.6219 12.8052 14.7163 12.7122C14.8107 12.6191 14.8856 12.5082 14.9368 12.386C14.9879 12.2637 15.0142 12.1325 15.0142 12C15.0142 11.8675 14.9879 11.7363 14.9368 11.614C14.8856 11.4918 14.8107 11.3809 14.7163 11.2878C14.6219 11.1948 14.51 11.1214 14.387 11.072C14.2641 11.0226 14.1325 10.9981 14 11H6ZM6 15C5.86749 14.9981 5.73593 15.0226 5.61296 15.072C5.48999 15.1214 5.37807 15.1948 5.2837 15.2878C5.18933 15.3809 5.11439 15.4918 5.06324 15.614C5.0121 15.7363 4.98576 15.8675 4.98576 16C4.98576 16.1325 5.0121 16.2637 5.06324 16.386C5.11439 16.5082 5.18933 16.6191 5.2837 16.7122C5.37807 16.8052 5.48999 16.8786 5.61296 16.928C5.73593 16.9774 5.86749 17.0019 6 17H11C11.1325 17.0019 11.2641 16.9774 11.387 16.928C11.51 16.8786 11.6219 16.8052 11.7163 16.7122C11.8107 16.6191 11.8856 16.5082 11.9368 16.386C11.9879 16.2637 12.0142 16.1325 12.0142 16C12.0142 15.8675 11.9879 15.7363 11.9368 15.614C11.8856 15.4918 11.8107 15.3809 11.7163 15.2878C11.6219 15.1948 11.51 15.1214 11.387 15.072C11.2641 15.0226 11.1325 14.9981 11 15H6ZM6 19C5.86749 18.9981 5.73593 19.0226 5.61296 19.072C5.48999 19.1214 5.37807 19.1948 5.2837 19.2878C5.18933 19.3809 5.11439 19.4918 5.06324 19.614C5.0121 19.7363 4.98576 19.8675 4.98576 20C4.98576 20.1325 5.0121 20.2637 5.06324 20.386C5.11439 20.5082 5.18933 20.6191 5.2837 20.7122C5.37807 20.8052 5.48999 20.8786 5.61296 20.928C5.73593 20.9774 5.86749 21.0019 6 21H14C14.1325 21.0019 14.2641 20.9774 14.387 20.928C14.51 20.8786 14.6219 20.8052 14.7163 20.7122C14.8107 20.6191 14.8856 20.5082 14.9368 20.386C14.9879 20.2637 15.0142 20.1325 15.0142 20C15.0142 19.8675 14.9879 19.7363 14.9368 19.614C14.8856 19.4918 14.8107 19.3809 14.7163 19.2878C14.6219 19.1948 14.51 19.1214 14.387 19.072C14.2641 19.0226 14.1325 18.9981 14 19H6Z" fill="black"/>
</svg>
