<svg width="18" height="14" viewBox="0 0 18 14" fill="none" xmlns="http://www.w3.org/2000/svg">
<path fill-rule="evenodd" clip-rule="evenodd" d="M1 0C0.447715 0 0 0.447715 0 1V6.35294H5.33165C5.58853 4.55702 7.13304 3.17647 9 3.17647C10.867 3.17647 12.4115 4.55702 12.6684 6.35294H18V1C18 0.447715 17.5523 0 17 0H1ZM18 7.35294H12.6763C12.4451 9.17745 10.8873 10.5882 9 10.5882C7.11271 10.5882 5.55493 9.17745 5.32371 7.35294H0V12.7647C0 13.317 0.447716 13.7647 1 13.7647H17C17.5523 13.7647 18 13.317 18 12.7647V7.35294ZM11.6471 6.35294H11.6541C11.408 5.11199 10.3132 4.17647 9 4.17647C7.68676 4.17647 6.59203 5.11199 6.34588 6.35294H6.35294V7.35294H6.33489C6.55762 8.62303 7.66609 9.58823 9 9.58823C10.3339 9.58823 11.4424 8.62303 11.6651 7.35294H11.6471V6.35294Z" fill="#061A4D"/>
</svg>
