<svg width="32" height="32" viewBox="0 0 32 32" fill="none" xmlns="http://www.w3.org/2000/svg">
<path fill-rule="evenodd" clip-rule="evenodd" d="M16 32C20.2433 32 24.3127 30.3138 27.3137 27.3137C30.3137 24.3124 32 20.2433 32 16C32 11.7567 30.3138 7.68733 27.3137 4.68633C24.3124 1.68633 20.2433 0 16 0C11.7567 0 7.68733 1.6862 4.68633 4.68633C1.68633 7.68763 0 11.7567 0 16C0 20.2433 1.6862 24.3127 4.68633 27.3137C7.68763 30.3137 11.7567 32 16 32ZM16 7C16.8086 7 17.5378 7.48697 17.8477 8.23437C18.1576 8.98177 17.9857 9.84243 17.4141 10.4141C16.8425 10.9857 15.9818 11.1576 15.2344 10.8477C14.487 10.5378 14 9.8086 14 9C14 7.89583 14.8958 7 16 7ZM14 14L18 14V25H14L14 14Z" fill="#002664"/>
</svg>
