<svg width="25" height="24" viewBox="0 0 25 24" fill="none" xmlns="http://www.w3.org/2000/svg">
<path d="M12.7217 19.9995C14.8434 19.9995 16.8782 19.1567 18.3785 17.6564C19.8788 16.1561 20.7217 14.1212 20.7217 11.9995C20.7217 9.87778 19.8788 7.84295 18.3785 6.34266C16.8782 4.84237 14.8434 3.99951 12.7217 3.99951C10.5999 3.99951 8.56512 4.84237 7.06483 6.34266C5.56453 7.84295 4.72168 9.87778 4.72168 11.9995C4.72168 14.1212 5.56453 16.1561 7.06483 17.6564C8.56512 19.1567 10.5999 19.9995 12.7217 19.9995ZM12.7217 1.99951C14.0349 1.99951 15.3353 2.25817 16.5485 2.76072C17.7618 3.26326 18.8642 3.99986 19.7927 4.92844C20.7213 5.85703 21.4579 6.95942 21.9605 8.17268C22.463 9.38593 22.7217 10.6863 22.7217 11.9995C22.7217 14.6517 21.6681 17.1952 19.7927 19.0706C17.9174 20.9459 15.3738 21.9995 12.7217 21.9995C7.19168 21.9995 2.72168 17.4995 2.72168 11.9995C2.72168 9.34735 3.77525 6.80381 5.65061 4.92844C7.52598 3.05308 10.0695 1.99951 12.7217 1.99951ZM13.2217 6.99951V12.2495L17.7217 14.9195L16.9717 16.1495L11.7217 12.9995V6.99951H13.2217Z" fill="#A0A5AE"/>
</svg>
