<svg width="254" height="173" viewBox="0 0 254 173" fill="none" xmlns="http://www.w3.org/2000/svg">
<mask id="path-1-inside-1" fill="white">
<path fill-rule="evenodd" clip-rule="evenodd" d="M4 52C1.79086 52 0 53.7909 0 56V150.34C0 152.549 1.79086 154.34 4 154.34H8.23766L7.38752 168.528C7.18159 171.964 11.1253 174.038 13.8402 171.921L36.3842 154.34H140C142.209 154.34 144 152.549 144 150.34V56C144 53.7909 142.209 52 140 52H4Z"/>
</mask>
<path fill-rule="evenodd" clip-rule="evenodd" d="M4 52C1.79086 52 0 53.7909 0 56V150.34C0 152.549 1.79086 154.34 4 154.34H8.23766L7.38752 168.528C7.18159 171.964 11.1253 174.038 13.8402 171.921L36.3842 154.34H140C142.209 154.34 144 152.549 144 150.34V56C144 53.7909 142.209 52 140 52H4Z" fill="white"/>
<path d="M8.23766 154.34L10.2341 154.459L10.3611 152.34H8.23766V154.34ZM7.38752 168.528L9.38394 168.647L9.38394 168.647L7.38752 168.528ZM13.8402 171.921L12.6103 170.344L12.6103 170.344L13.8402 171.921ZM36.3842 154.34V152.34H35.6965L35.1542 152.763L36.3842 154.34ZM2 56C2 54.8954 2.89543 54 4 54V50C0.68629 50 -2 52.6863 -2 56H2ZM2 150.34V56H-2V150.34H2ZM4 152.34C2.89543 152.34 2 151.444 2 150.34H-2C-2 153.653 0.686294 156.34 4 156.34V152.34ZM8.23766 152.34H4V156.34H8.23766V152.34ZM9.38394 168.647L10.2341 154.459L6.24125 154.22L5.3911 168.408L9.38394 168.647ZM12.6103 170.344C11.2528 171.403 9.28097 170.366 9.38394 168.647L5.3911 168.408C5.0822 173.563 10.9977 176.674 15.0702 173.498L12.6103 170.344ZM35.1542 152.763L12.6103 170.344L15.0702 173.498L37.6141 155.917L35.1542 152.763ZM140 152.34H36.3842V156.34H140V152.34ZM142 150.34C142 151.444 141.105 152.34 140 152.34V156.34C143.314 156.34 146 153.653 146 150.34H142ZM142 56V150.34H146V56H142ZM140 54C141.105 54 142 54.8954 142 56H146C146 52.6863 143.314 50 140 50V54ZM4 54H140V50H4V54Z" fill="#002664" mask="url(#path-1-inside-1)"/>
<mask id="path-3-outside-2" maskUnits="userSpaceOnUse" x="29.5235" y="79.4077" width="46.0921" height="46.7753" fill="black">
<rect fill="white" x="29.5235" y="79.4077" width="46.0921" height="46.7753"/>
<path d="M54.3003 96.662L52.4627 90.3004C52.0972 89.0351 51.244 87.9667 50.0908 87.3304C48.9376 86.6941 47.5788 86.5419 46.3134 86.9075L44.0864 103.058L49.1396 120.553L67.0791 115.371C67.8487 115.158 68.5154 114.674 68.9564 114.008C69.3974 113.343 69.583 112.54 69.4789 111.748L67.5392 96.801C67.4767 96.3251 67.3115 95.8685 67.055 95.4628C66.7986 95.0572 66.457 94.7121 66.0539 94.4515C65.6509 94.191 65.196 94.0212 64.7208 93.9539C64.2456 93.8866 63.7614 93.9234 63.3018 94.0618L54.3003 96.662ZM49.1396 120.553L44.3685 121.931C43.5249 122.174 42.6191 122.073 41.8502 121.649C41.0814 121.225 40.5126 120.512 40.2689 119.669L37.0532 108.536C36.8096 107.693 36.911 106.787 37.3352 106.018C37.7594 105.249 38.4716 104.68 39.3152 104.437L44.0864 103.058"/>
</mask>
<path d="M54.3003 96.662L52.4627 90.3004C52.0972 89.0351 51.244 87.9667 50.0908 87.3304C48.9376 86.6941 47.5788 86.5419 46.3134 86.9075L44.0864 103.058L49.1396 120.553L67.0791 115.371C67.8487 115.158 68.5154 114.674 68.9564 114.008C69.3974 113.343 69.583 112.54 69.4789 111.748L67.5392 96.801C67.4767 96.3251 67.3115 95.8685 67.055 95.4628C66.7986 95.0572 66.457 94.7121 66.0539 94.4515C65.6509 94.191 65.196 94.0212 64.7208 93.9539C64.2456 93.8866 63.7614 93.9234 63.3018 94.0618L54.3003 96.662ZM49.1396 120.553L44.3685 121.931C43.5249 122.174 42.6191 122.073 41.8502 121.649C41.0814 121.225 40.5126 120.512 40.2689 119.669L37.0532 108.536C36.8096 107.693 36.911 106.787 37.3352 106.018C37.7594 105.249 38.4716 104.68 39.3152 104.437L44.0864 103.058" fill="#F0F6FF"/>
<path d="M54.3003 96.662L52.3788 97.217C52.6854 98.2782 53.7941 98.8899 54.8553 98.5834L54.3003 96.662ZM52.4627 90.3004L54.3842 89.7454L52.4627 90.3004ZM46.3134 86.9075L45.7584 84.986C44.9991 85.2053 44.4401 85.8513 44.3322 86.6343L46.3134 86.9075ZM44.0864 103.058L42.1051 102.785C42.0669 103.062 42.0873 103.345 42.1649 103.613L44.0864 103.058ZM49.1396 120.553L47.2182 121.108C47.5247 122.169 48.6335 122.781 49.6946 122.474L49.1396 120.553ZM67.0791 115.371L66.5459 113.443C66.5386 113.445 66.5314 113.447 66.5241 113.449L67.0791 115.371ZM69.4789 111.748L67.4956 112.006L67.496 112.009L69.4789 111.748ZM67.5392 96.801L69.5226 96.5436L69.5222 96.5406L67.5392 96.801ZM66.0539 94.4515L67.1397 92.7719L66.0539 94.4515ZM63.3018 94.0618L63.8569 95.9833C63.8641 95.9812 63.8714 95.9791 63.8786 95.9769L63.3018 94.0618ZM49.6946 122.474C50.7558 122.168 51.3676 121.059 51.0611 119.998C50.7546 118.936 49.6458 118.325 48.5846 118.631L49.6946 122.474ZM41.8502 121.649L42.8165 119.898L41.8502 121.649ZM40.2689 119.669L38.3475 120.224L40.2689 119.669ZM39.3152 104.437L39.8703 106.358L39.3152 104.437ZM44.6414 104.98C45.7026 104.673 46.3144 103.565 46.0078 102.503C45.7013 101.442 44.5926 100.83 43.5314 101.137L44.6414 104.98ZM56.2217 96.107L54.3842 89.7454L50.5413 90.8555L52.3788 97.217L56.2217 96.107ZM54.3842 89.7454C53.8715 87.9704 52.6747 86.4718 51.057 85.5793L49.1246 89.0815C49.8134 89.4616 50.323 90.0997 50.5413 90.8555L54.3842 89.7454ZM51.057 85.5793C49.4394 84.6867 47.5334 84.4733 45.7584 84.986L46.8685 88.8289C47.6242 88.6106 48.4358 88.7015 49.1246 89.0815L51.057 85.5793ZM44.3322 86.6343L42.1051 102.785L46.0676 103.332L48.2947 87.1807L44.3322 86.6343ZM42.1649 103.613L47.2182 121.108L51.0611 119.998L46.0078 102.503L42.1649 103.613ZM49.6946 122.474L67.6342 117.292L66.5241 113.449L48.5846 118.631L49.6946 122.474ZM67.6124 117.298C68.8469 116.957 69.9164 116.181 70.6238 115.113L67.2891 112.904C67.1145 113.167 66.8506 113.359 66.5459 113.443L67.6124 117.298ZM70.6238 115.113C71.3312 114.045 71.6288 112.758 71.4619 111.488L67.496 112.009C67.5372 112.322 67.4637 112.64 67.2891 112.904L70.6238 115.113ZM71.4623 111.491L69.5226 96.5436L65.5558 97.0583L67.4956 112.006L71.4623 111.491ZM69.5222 96.5406C69.4219 95.7772 69.1569 95.0448 68.7456 94.3941L65.3645 96.5316C65.4661 96.6922 65.5315 96.8729 65.5562 97.0613L69.5222 96.5406ZM68.7456 94.3941C68.3342 93.7434 67.7862 93.1899 67.1397 92.7719L64.9682 96.1312C65.1278 96.2343 65.263 96.3709 65.3645 96.5316L68.7456 94.3941ZM67.1397 92.7719C66.4931 92.354 65.7634 92.0816 65.0012 91.9737L64.4404 95.9341C64.6285 95.9608 64.8086 96.028 64.9682 96.1312L67.1397 92.7719ZM65.0012 91.9737C64.2389 91.8657 63.4623 91.9248 62.7251 92.1468L63.8786 95.9769C64.0605 95.9221 64.2522 95.9075 64.4404 95.9341L65.0012 91.9737ZM62.7468 92.1404L53.7453 94.7405L54.8553 98.5834L63.8569 95.9833L62.7468 92.1404ZM48.5846 118.631L43.8135 120.009L44.9235 123.852L49.6946 122.474L48.5846 118.631ZM43.8135 120.009C43.4795 120.106 43.1208 120.066 42.8165 119.898L40.884 123.4C42.1173 124.08 43.5703 124.243 44.9235 123.852L43.8135 120.009ZM42.8165 119.898C42.5121 119.73 42.2869 119.448 42.1904 119.114L38.3475 120.224C38.7384 121.577 39.6508 122.72 40.884 123.4L42.8165 119.898ZM42.1904 119.114L38.9747 107.981L35.1318 109.091L38.3475 120.224L42.1904 119.114ZM38.9747 107.981C38.8782 107.647 38.9184 107.288 39.0863 106.984L35.5841 105.052C34.9036 106.285 34.7409 107.738 35.1318 109.091L38.9747 107.981ZM39.0863 106.984C39.2543 106.68 39.5363 106.455 39.8703 106.358L38.7602 102.515C37.407 102.906 36.2645 103.818 35.5841 105.052L39.0863 106.984ZM39.8703 106.358L44.6414 104.98L43.5314 101.137L38.7602 102.515L39.8703 106.358Z" fill="#002664" mask="url(#path-3-outside-2)"/>
<path d="M43.3123 101.393L48.4597 121.46" stroke="#002664" stroke-width="2"/>
<circle cx="40.1718" cy="108.172" r="1.21205" fill="#002664"/>
<mask id="path-7-inside-3" fill="white">
<path fill-rule="evenodd" clip-rule="evenodd" d="M250 0C252.209 0 254 1.79086 254 4V98.3396C254 100.549 252.209 102.34 250 102.34H245.762L246.612 116.528C246.818 119.964 242.875 122.038 240.16 119.921L217.616 102.34H114C111.791 102.34 110 100.549 110 98.3396V4C110 1.79086 111.791 0 114 0H250Z"/>
</mask>
<path fill-rule="evenodd" clip-rule="evenodd" d="M250 0C252.209 0 254 1.79086 254 4V98.3396C254 100.549 252.209 102.34 250 102.34H245.762L246.612 116.528C246.818 119.964 242.875 122.038 240.16 119.921L217.616 102.34H114C111.791 102.34 110 100.549 110 98.3396V4C110 1.79086 111.791 0 114 0H250Z" fill="white"/>
<path d="M245.762 102.34L243.766 102.459L243.639 100.34H245.762V102.34ZM246.612 116.528L244.616 116.647L244.616 116.647L246.612 116.528ZM240.16 119.921L241.39 118.344L241.39 118.344L240.16 119.921ZM217.616 102.34V100.34H218.303L218.846 100.763L217.616 102.34ZM252 4C252 2.89543 251.105 2 250 2V-2C253.314 -2 256 0.686295 256 4H252ZM252 98.3396V4H256V98.3396H252ZM250 100.34C251.105 100.34 252 99.4442 252 98.3396H256C256 101.653 253.314 104.34 250 104.34V100.34ZM245.762 100.34H250V104.34H245.762V100.34ZM244.616 116.647L243.766 102.459L247.759 102.22L248.609 116.408L244.616 116.647ZM241.39 118.344C242.747 119.403 244.719 118.366 244.616 116.647L248.609 116.408C248.918 121.563 243.002 124.674 238.93 121.498L241.39 118.344ZM218.846 100.763L241.39 118.344L238.93 121.498L216.386 103.917L218.846 100.763ZM114 100.34H217.616V104.34H114V100.34ZM112 98.3396C112 99.4442 112.895 100.34 114 100.34V104.34C110.686 104.34 108 101.653 108 98.3396H112ZM112 4V98.3396H108V4H112ZM114 2C112.895 2 112 2.89543 112 4H108C108 0.686291 110.686 -2 114 -2V2ZM250 2H114V-2H250V2Z" fill="#002664" mask="url(#path-7-inside-3)"/>
<circle cx="204.962" cy="62.9811" r="2.01892" fill="#E4E4E6"/>
<rect x="170" y="39" width="27.5919" height="4.03784" rx="2.01892" fill="#E4E4E6"/>
<rect x="170" y="60.9622" width="27.5919" height="4.03784" rx="2.01892" fill="#E4E4E6"/>
<path d="M170 52C170 50.885 170.904 49.9811 172.019 49.9811H215.778C216.893 49.9811 217.797 50.885 217.797 52V52C217.797 53.115 216.893 54.0189 215.778 54.0189H172.019C170.904 54.0189 170 53.115 170 52V52Z" fill="#E4E4E6"/>
<rect x="202.976" y="39" width="14.1324" height="4.03784" rx="2.01892" fill="#E4E4E6"/>
<path fill-rule="evenodd" clip-rule="evenodd" d="M159.108 48.5541C159.108 53.8307 154.831 58.1083 149.554 58.1083C144.278 58.1083 140 53.8307 140 48.5541C140 43.2775 144.278 39 149.554 39C154.831 39 159.108 43.2775 159.108 48.5541ZM145.799 47.6708L148.153 49.8248L153.247 44.7325L154.65 46.1355L148.214 52.5713L144.459 49.1352L145.799 47.6708Z" fill="#00A908"/>
</svg>
