<svg width="341" height="184" viewBox="0 0 341 184" fill="none" xmlns="http://www.w3.org/2000/svg">
<rect x="48.3693" y="0.369318" width="259.261" height="183.182" rx="3.63068" fill="#FAFAFA" stroke="#DCDCDC" stroke-width="0.738636"/>
<path fill-rule="evenodd" clip-rule="evenodd" d="M111.689 62.8395C109.645 64.4399 107.036 65.4052 104.203 65.4052C97.4637 65.4052 92 59.9415 92 53.2026C92 46.4637 97.4637 41 104.203 41C110.941 41 116.405 46.4637 116.405 53.2026C116.405 56.0364 115.44 58.6437 113.819 60.7148L113.84 60.6874L122 68.8168L119.834 70.9832L111.704 62.8383L111.689 62.8395ZM104.214 62.3509C109.269 62.3509 113.366 58.2539 113.366 53.199C113.366 48.1441 109.269 44.047 104.214 44.047C99.1596 44.047 95.0625 48.1441 95.0625 53.199C95.0625 58.2539 99.1596 62.3509 104.214 62.3509Z" fill="#002664"/>
<g filter="url(#filter0_d)">
<rect x="169" y="41" width="152" height="51" rx="1.74713" fill="white"/>
</g>
<path fill-rule="evenodd" clip-rule="evenodd" d="M313.875 74.75L315.125 76L313.875 77.25L310.125 81L308.875 79.75L312.625 76L308.875 72.25L310.125 71L313.875 74.75Z" fill="#E4E4E6"/>
<rect x="178" y="55" width="103" height="8" rx="2" fill="#E4E4E6"/>
<rect x="178" y="70" width="72" height="8" rx="2" fill="#E4E4E6"/>
<g filter="url(#filter1_d)">
<rect x="178" y="101" width="152" height="51" rx="1.74713" fill="white"/>
</g>
<rect x="187" y="115" width="103" height="8" rx="2" fill="#E4E4E6"/>
<rect x="187" y="130" width="72" height="8" rx="2" fill="#E4E4E6"/>
<path fill-rule="evenodd" clip-rule="evenodd" d="M318.875 136.75L320.125 138L318.875 139.25L315.125 143L313.875 141.75L317.625 138L313.875 134.25L315.125 133L318.875 136.75Z" fill="#E4E4E6"/>
<g filter="url(#filter2_d)">
<rect x="11" y="101" width="152" height="51" rx="1.74713" fill="white"/>
</g>
<rect x="20" y="115" width="103" height="8" rx="2" fill="#E4E4E6"/>
<rect x="20" y="130" width="72" height="8" rx="2" fill="#E4E4E6"/>
<path fill-rule="evenodd" clip-rule="evenodd" d="M151.875 136.75L153.125 138L151.875 139.25L148.125 143L146.875 141.75L150.625 138L146.875 134.25L148.125 133L151.875 136.75Z" fill="#E4E4E6"/>
<defs>
<filter id="filter0_d" x="158.517" y="34.0115" width="172.966" height="71.9655" filterUnits="userSpaceOnUse" color-interpolation-filters="sRGB">
<feFlood flood-opacity="0" result="BackgroundImageFix"/>
<feColorMatrix in="SourceAlpha" type="matrix" values="0 0 0 0 0 0 0 0 0 0 0 0 0 0 0 0 0 0 127 0"/>
<feOffset dy="3.49425"/>
<feGaussianBlur stdDeviation="5.24138"/>
<feColorMatrix type="matrix" values="0 0 0 0 0 0 0 0 0 0 0 0 0 0 0 0 0 0 0.15 0"/>
<feBlend mode="normal" in2="BackgroundImageFix" result="effect1_dropShadow"/>
<feBlend mode="normal" in="SourceGraphic" in2="effect1_dropShadow" result="shape"/>
</filter>
<filter id="filter1_d" x="167.517" y="94.0115" width="172.966" height="71.9655" filterUnits="userSpaceOnUse" color-interpolation-filters="sRGB">
<feFlood flood-opacity="0" result="BackgroundImageFix"/>
<feColorMatrix in="SourceAlpha" type="matrix" values="0 0 0 0 0 0 0 0 0 0 0 0 0 0 0 0 0 0 127 0"/>
<feOffset dy="3.49425"/>
<feGaussianBlur stdDeviation="5.24138"/>
<feColorMatrix type="matrix" values="0 0 0 0 0 0 0 0 0 0 0 0 0 0 0 0 0 0 0.15 0"/>
<feBlend mode="normal" in2="BackgroundImageFix" result="effect1_dropShadow"/>
<feBlend mode="normal" in="SourceGraphic" in2="effect1_dropShadow" result="shape"/>
</filter>
<filter id="filter2_d" x="0.517241" y="94.0115" width="172.966" height="71.9655" filterUnits="userSpaceOnUse" color-interpolation-filters="sRGB">
<feFlood flood-opacity="0" result="BackgroundImageFix"/>
<feColorMatrix in="SourceAlpha" type="matrix" values="0 0 0 0 0 0 0 0 0 0 0 0 0 0 0 0 0 0 127 0"/>
<feOffset dy="3.49425"/>
<feGaussianBlur stdDeviation="5.24138"/>
<feColorMatrix type="matrix" values="0 0 0 0 0 0 0 0 0 0 0 0 0 0 0 0 0 0 0.15 0"/>
<feBlend mode="normal" in2="BackgroundImageFix" result="effect1_dropShadow"/>
<feBlend mode="normal" in="SourceGraphic" in2="effect1_dropShadow" result="shape"/>
</filter>
</defs>
</svg>
