<svg width="16" height="16" viewBox="0 0 16 16" fill="none" xmlns="http://www.w3.org/2000/svg">
<path fill-rule="evenodd" clip-rule="evenodd" d="M8 16C10.1217 16 12.1563 15.1569 13.6568 13.6568C15.1568 12.1562 16 10.1217 16 8C16 5.87833 15.1569 3.84367 13.6568 2.34317C12.1562 0.843165 10.1217 0 8 0C5.87833 0 3.84367 0.843099 2.34317 2.34317C0.843166 3.84382 0 5.87833 0 8C0 10.1217 0.8431 12.1563 2.34317 13.6568C3.84382 15.1568 5.87833 16 8 16ZM8 3.5C8.4043 3.5 8.76888 3.74348 8.92383 4.11718C9.07878 4.49088 8.99284 4.92122 8.70703 5.20703C8.42123 5.49283 7.99088 5.57878 7.61718 5.42383C7.24348 5.26888 7 4.9043 7 4.5C7 3.94792 7.44792 3.5 8 3.5ZM7 7L9 7V12.5H7L7 7Z" fill="#2E5299"/>
</svg>
