<svg width="544" height="420" viewBox="0 0 544 420" fill="none" xmlns="http://www.w3.org/2000/svg">
<rect width="544" height="420" fill="white"/>
<circle cx="268" cy="210" r="141" fill="#FAFAFA"/>
<g filter="url(#filter0_d)">
<rect x="125" y="118" width="169" height="39" rx="4.73504" fill="white"/>
</g>
<path d="M141.875 141.875C144.636 141.875 146.875 139.636 146.875 136.875C146.875 134.114 144.636 131.875 141.875 131.875C139.114 131.875 136.875 134.114 136.875 136.875C136.875 139.636 139.114 141.875 141.875 141.875Z" stroke="#333333" stroke-width="1.66667" stroke-linecap="round" stroke-linejoin="round"/>
<path d="M148.125 143.125L145.406 140.406" stroke="#333333" stroke-width="1.66667" stroke-linecap="round" stroke-linejoin="round"/>
<path d="M165.697 133.418V142H164.91V140.797C164.664 141.206 164.336 141.518 163.927 141.734C163.526 141.95 163.071 142.058 162.562 142.058C161.992 142.058 161.475 141.927 161.013 141.665C160.55 141.402 160.187 141.036 159.925 140.566C159.663 140.095 159.532 139.56 159.532 138.958C159.532 138.357 159.663 137.821 159.925 137.35C160.187 136.88 160.55 136.518 161.013 136.263C161.475 136.001 161.992 135.87 162.562 135.87C163.056 135.87 163.499 135.974 163.893 136.182C164.293 136.383 164.621 136.68 164.876 137.073V133.418H165.697ZM162.632 141.329C163.056 141.329 163.438 141.233 163.777 141.04C164.124 140.84 164.394 140.558 164.587 140.196C164.787 139.833 164.887 139.421 164.887 138.958C164.887 138.495 164.787 138.083 164.587 137.72C164.394 137.358 164.124 137.08 163.777 136.888C163.438 136.687 163.056 136.587 162.632 136.587C162.2 136.587 161.811 136.687 161.464 136.888C161.124 137.08 160.854 137.358 160.654 137.72C160.461 138.083 160.365 138.495 160.365 138.958C160.365 139.421 160.461 139.833 160.654 140.196C160.854 140.558 161.124 140.84 161.464 141.04C161.811 141.233 162.2 141.329 162.632 141.329ZM173.281 139.213H168.192C168.238 139.845 168.481 140.358 168.921 140.751C169.36 141.136 169.915 141.329 170.586 141.329C170.964 141.329 171.311 141.264 171.627 141.133C171.943 140.994 172.217 140.793 172.448 140.531L172.911 141.063C172.641 141.387 172.302 141.634 171.893 141.803C171.492 141.973 171.049 142.058 170.563 142.058C169.939 142.058 169.383 141.927 168.898 141.665C168.42 141.395 168.046 141.025 167.776 140.554C167.506 140.084 167.371 139.552 167.371 138.958C167.371 138.364 167.498 137.832 167.753 137.362C168.015 136.892 168.369 136.525 168.817 136.263C169.272 136.001 169.781 135.87 170.343 135.87C170.906 135.87 171.411 136.001 171.859 136.263C172.306 136.525 172.657 136.892 172.911 137.362C173.166 137.825 173.293 138.357 173.293 138.958L173.281 139.213ZM170.343 136.575C169.757 136.575 169.264 136.764 168.863 137.142C168.47 137.512 168.246 137.998 168.192 138.6H172.506C172.452 137.998 172.225 137.512 171.824 137.142C171.431 136.764 170.937 136.575 170.343 136.575ZM176.595 142.058C176.102 142.058 175.627 141.988 175.173 141.85C174.725 141.703 174.374 141.522 174.12 141.306L174.49 140.658C174.745 140.859 175.065 141.025 175.45 141.156C175.836 141.279 176.237 141.341 176.653 141.341C177.208 141.341 177.617 141.256 177.879 141.086C178.149 140.909 178.284 140.662 178.284 140.346C178.284 140.122 178.211 139.949 178.064 139.826C177.918 139.694 177.733 139.598 177.509 139.536C177.285 139.467 176.988 139.401 176.618 139.34C176.125 139.247 175.728 139.155 175.427 139.062C175.126 138.962 174.868 138.796 174.652 138.565C174.444 138.333 174.34 138.013 174.34 137.605C174.34 137.096 174.552 136.68 174.976 136.356C175.4 136.032 175.99 135.87 176.746 135.87C177.139 135.87 177.532 135.924 177.925 136.032C178.319 136.132 178.642 136.267 178.897 136.437L178.538 137.096C178.037 136.749 177.44 136.575 176.746 136.575C176.221 136.575 175.824 136.668 175.554 136.853C175.292 137.038 175.161 137.281 175.161 137.582C175.161 137.813 175.234 137.998 175.381 138.137C175.535 138.276 175.724 138.38 175.947 138.449C176.171 138.511 176.48 138.576 176.873 138.646C177.359 138.738 177.748 138.831 178.041 138.923C178.334 139.016 178.585 139.174 178.793 139.398C179.001 139.621 179.105 139.93 179.105 140.323C179.105 140.855 178.881 141.279 178.434 141.595C177.995 141.904 177.382 142.058 176.595 142.058ZM180.623 135.916H181.444V142H180.623V135.916ZM181.04 134.586C180.87 134.586 180.727 134.528 180.612 134.413C180.496 134.297 180.438 134.158 180.438 133.996C180.438 133.842 180.496 133.707 180.612 133.591C180.727 133.476 180.87 133.418 181.04 133.418C181.209 133.418 181.352 133.476 181.468 133.591C181.583 133.699 181.641 133.83 181.641 133.985C181.641 134.154 181.583 134.297 181.468 134.413C181.352 134.528 181.209 134.586 181.04 134.586ZM189.362 135.916V141.26C189.362 142.293 189.108 143.056 188.599 143.55C188.098 144.051 187.338 144.302 186.32 144.302C185.757 144.302 185.221 144.217 184.713 144.047C184.211 143.885 183.803 143.658 183.487 143.365L183.903 142.74C184.196 143.002 184.551 143.207 184.967 143.353C185.391 143.5 185.834 143.573 186.297 143.573C187.068 143.573 187.635 143.392 187.997 143.029C188.36 142.675 188.541 142.12 188.541 141.364V140.589C188.287 140.974 187.951 141.267 187.535 141.468C187.126 141.668 186.671 141.769 186.17 141.769C185.599 141.769 185.079 141.645 184.608 141.399C184.146 141.144 183.78 140.793 183.51 140.346C183.247 139.891 183.116 139.378 183.116 138.808C183.116 138.237 183.247 137.728 183.51 137.281C183.78 136.834 184.146 136.487 184.608 136.24C185.071 135.993 185.592 135.87 186.17 135.87C186.687 135.87 187.153 135.974 187.569 136.182C187.986 136.39 188.321 136.691 188.576 137.084V135.916H189.362ZM186.251 141.04C186.69 141.04 187.087 140.947 187.442 140.762C187.797 140.57 188.071 140.304 188.263 139.964C188.464 139.625 188.564 139.24 188.564 138.808C188.564 138.376 188.464 137.994 188.263 137.663C188.071 137.323 187.797 137.061 187.442 136.876C187.095 136.683 186.698 136.587 186.251 136.587C185.811 136.587 185.414 136.68 185.06 136.865C184.713 137.05 184.439 137.312 184.238 137.651C184.046 137.99 183.949 138.376 183.949 138.808C183.949 139.24 184.046 139.625 184.238 139.964C184.439 140.304 184.713 140.57 185.06 140.762C185.414 140.947 185.811 141.04 186.251 141.04ZM194.758 135.87C195.522 135.87 196.127 136.093 196.574 136.541C197.029 136.98 197.257 137.624 197.257 138.472V142H196.435V138.553C196.435 137.921 196.277 137.439 195.961 137.107C195.645 136.776 195.194 136.61 194.608 136.61C193.953 136.61 193.432 136.807 193.047 137.2C192.669 137.586 192.48 138.121 192.48 138.808V142H191.659V135.916H192.445V137.038C192.669 136.668 192.977 136.383 193.37 136.182C193.771 135.974 194.234 135.87 194.758 135.87ZM199.567 142.058C199.397 142.058 199.251 141.996 199.128 141.873C199.012 141.749 198.954 141.599 198.954 141.422C198.954 141.244 199.012 141.098 199.128 140.982C199.251 140.859 199.397 140.797 199.567 140.797C199.737 140.797 199.883 140.859 200.007 140.982C200.13 141.098 200.192 141.244 200.192 141.422C200.192 141.599 200.13 141.749 200.007 141.873C199.883 141.996 199.737 142.058 199.567 142.058ZM202.018 142.058C201.849 142.058 201.702 141.996 201.579 141.873C201.463 141.749 201.405 141.599 201.405 141.422C201.405 141.244 201.463 141.098 201.579 140.982C201.702 140.859 201.849 140.797 202.018 140.797C202.188 140.797 202.334 140.859 202.458 140.982C202.581 141.098 202.643 141.244 202.643 141.422C202.643 141.599 202.581 141.749 202.458 141.873C202.334 141.996 202.188 142.058 202.018 142.058ZM204.469 142.058C204.3 142.058 204.153 141.996 204.03 141.873C203.914 141.749 203.856 141.599 203.856 141.422C203.856 141.244 203.914 141.098 204.03 140.982C204.153 140.859 204.3 140.797 204.469 140.797C204.639 140.797 204.785 140.859 204.909 140.982C205.032 141.098 205.094 141.244 205.094 141.422C205.094 141.599 205.032 141.749 204.909 141.873C204.785 141.996 204.639 142.058 204.469 142.058Z" fill="#6D7079"/>
<path d="M327 230H400C401.105 230 402 229.105 402 228V191" stroke="#1C1E2D" stroke-linecap="round" stroke-linejoin="bevel"/>
<path d="M399.313 195.553C398.541 195.553 398.06 194.716 398.45 194.049L401.119 189.478C401.505 188.817 402.46 188.817 402.846 189.478L405.516 194.049C405.905 194.716 405.425 195.553 404.653 195.553H401.983L399.313 195.553Z" fill="#1C1E2D"/>
<path d="M160 255.5H202.74C203.917 255.5 204.505 255.5 204.95 255.26C205.293 255.075 205.575 254.793 205.76 254.45C206 254.005 206 253.417 206 252.24V236.26C206 235.083 206 234.495 206.24 234.05C206.425 233.707 206.707 233.425 207.05 233.24C207.495 233 208.083 233 209.26 233H249" stroke="#1B1D2C"/>
<path d="M159 210H202.774C203.95 210 204.539 210 204.983 210.24C205.327 210.425 205.609 210.707 205.794 211.05C206.034 211.495 206.034 212.083 206.034 213.26V229.74C206.034 230.917 206.034 231.505 206.274 231.95C206.459 232.293 206.741 232.575 207.084 232.76C207.529 233 208.117 233 209.294 233H250" stroke="#1B1D2C"/>
<g filter="url(#filter1_d)">
<rect x="232" y="200" width="138" height="57" rx="1.74713" fill="white"/>
<rect x="231.5" y="199.5" width="139" height="58" rx="2.24713" stroke="#2E5299"/>
</g>
<path d="M250.219 241.104C249.66 241.104 249.118 241.024 248.594 240.865C248.076 240.707 247.666 240.496 247.362 240.234L247.828 239.189C248.125 239.423 248.487 239.617 248.915 239.768C249.349 239.913 249.784 239.986 250.219 239.986C250.757 239.986 251.157 239.899 251.42 239.727C251.689 239.554 251.823 239.327 251.823 239.044C251.823 238.837 251.747 238.668 251.595 238.537C251.451 238.399 251.264 238.292 251.037 238.216C250.809 238.14 250.498 238.054 250.105 237.957C249.553 237.826 249.105 237.695 248.76 237.564C248.421 237.433 248.128 237.229 247.88 236.953C247.638 236.67 247.518 236.291 247.518 235.815C247.518 235.414 247.624 235.052 247.838 234.728C248.059 234.397 248.387 234.134 248.822 233.941C249.263 233.748 249.801 233.651 250.436 233.651C250.878 233.651 251.313 233.707 251.74 233.817C252.168 233.927 252.537 234.086 252.848 234.293L252.423 235.338C252.106 235.152 251.775 235.011 251.43 234.914C251.085 234.818 250.75 234.769 250.426 234.769C249.895 234.769 249.498 234.859 249.236 235.038C248.98 235.218 248.853 235.456 248.853 235.752C248.853 235.959 248.925 236.129 249.07 236.26C249.222 236.391 249.412 236.494 249.639 236.57C249.867 236.646 250.177 236.732 250.571 236.829C251.109 236.953 251.551 237.084 251.896 237.222C252.241 237.353 252.534 237.557 252.775 237.833C253.024 238.109 253.148 238.481 253.148 238.951C253.148 239.351 253.038 239.713 252.817 240.037C252.603 240.362 252.275 240.62 251.834 240.814C251.392 241.007 250.854 241.104 250.219 241.104ZM259.554 238.268C259.554 238.357 259.547 238.485 259.533 238.651H255.196C255.272 239.058 255.469 239.382 255.786 239.623C256.111 239.858 256.511 239.975 256.987 239.975C257.594 239.975 258.094 239.775 258.488 239.375L259.181 240.172C258.933 240.469 258.619 240.693 258.239 240.845C257.86 240.997 257.432 241.072 256.956 241.072C256.349 241.072 255.814 240.952 255.352 240.71C254.889 240.469 254.53 240.134 254.275 239.706C254.027 239.272 253.903 238.782 253.903 238.237C253.903 237.698 254.023 237.215 254.265 236.787C254.513 236.353 254.855 236.015 255.289 235.773C255.724 235.532 256.214 235.411 256.759 235.411C257.297 235.411 257.777 235.532 258.198 235.773C258.626 236.008 258.957 236.342 259.192 236.777C259.433 237.205 259.554 237.702 259.554 238.268ZM256.759 236.446C256.345 236.446 255.993 236.57 255.704 236.819C255.421 237.06 255.248 237.384 255.186 237.791H258.322C258.267 237.391 258.098 237.067 257.815 236.819C257.532 236.57 257.18 236.446 256.759 236.446ZM262.028 236.28C262.401 235.701 263.056 235.411 263.995 235.411V236.643C263.884 236.622 263.784 236.612 263.695 236.612C263.191 236.612 262.798 236.76 262.515 237.057C262.232 237.346 262.09 237.767 262.09 238.319V241H260.797V235.473H262.028V236.28ZM270.469 235.473L268.099 241H266.764L264.394 235.473H265.739L267.458 239.572L269.227 235.473H270.469ZM271.278 235.473H272.572V241H271.278V235.473ZM271.93 234.562C271.696 234.562 271.499 234.49 271.34 234.345C271.181 234.193 271.102 234.007 271.102 233.786C271.102 233.565 271.181 233.382 271.34 233.237C271.499 233.086 271.696 233.01 271.93 233.01C272.165 233.01 272.361 233.082 272.52 233.227C272.679 233.365 272.758 233.541 272.758 233.755C272.758 233.983 272.679 234.176 272.52 234.335C272.368 234.486 272.172 234.562 271.93 234.562ZM276.806 241.072C276.233 241.072 275.719 240.952 275.264 240.71C274.808 240.469 274.453 240.134 274.197 239.706C273.942 239.272 273.814 238.782 273.814 238.237C273.814 237.691 273.942 237.205 274.197 236.777C274.453 236.349 274.805 236.015 275.253 235.773C275.709 235.532 276.226 235.411 276.806 235.411C277.351 235.411 277.827 235.521 278.234 235.742C278.648 235.963 278.959 236.28 279.166 236.694L278.172 237.274C278.013 237.019 277.813 236.829 277.572 236.705C277.337 236.574 277.078 236.508 276.795 236.508C276.312 236.508 275.912 236.667 275.595 236.984C275.277 237.295 275.119 237.712 275.119 238.237C275.119 238.761 275.274 239.182 275.584 239.499C275.902 239.81 276.305 239.965 276.795 239.965C277.078 239.965 277.337 239.903 277.572 239.779C277.813 239.648 278.013 239.454 278.172 239.199L279.166 239.779C278.952 240.193 278.638 240.514 278.224 240.741C277.817 240.962 277.344 241.072 276.806 241.072ZM285.399 238.268C285.399 238.357 285.392 238.485 285.378 238.651H281.041C281.117 239.058 281.314 239.382 281.631 239.623C281.956 239.858 282.356 239.975 282.832 239.975C283.439 239.975 283.939 239.775 284.333 239.375L285.026 240.172C284.778 240.469 284.464 240.693 284.084 240.845C283.705 240.997 283.277 241.072 282.801 241.072C282.194 241.072 281.659 240.952 281.197 240.71C280.734 240.469 280.376 240.134 280.12 239.706C279.872 239.272 279.748 238.782 279.748 238.237C279.748 237.698 279.868 237.215 280.11 236.787C280.358 236.353 280.7 236.015 281.135 235.773C281.569 235.532 282.059 235.411 282.604 235.411C283.142 235.411 283.622 235.532 284.043 235.773C284.471 236.008 284.802 236.342 285.037 236.777C285.278 237.205 285.399 237.702 285.399 238.268ZM282.604 236.446C282.19 236.446 281.838 236.57 281.549 236.819C281.266 237.06 281.093 237.384 281.031 237.791H284.167C284.112 237.391 283.943 237.067 283.66 236.819C283.377 236.57 283.025 236.446 282.604 236.446ZM294.915 233.32V241H293.673V240.286C293.459 240.548 293.194 240.745 292.876 240.876C292.566 241.007 292.221 241.072 291.841 241.072C291.31 241.072 290.83 240.955 290.402 240.721C289.982 240.486 289.65 240.155 289.409 239.727C289.167 239.292 289.047 238.795 289.047 238.237C289.047 237.678 289.167 237.184 289.409 236.756C289.65 236.329 289.982 235.997 290.402 235.763C290.83 235.528 291.31 235.411 291.841 235.411C292.207 235.411 292.541 235.473 292.845 235.597C293.149 235.721 293.407 235.908 293.621 236.156V233.32H294.915ZM291.996 239.965C292.307 239.965 292.586 239.896 292.835 239.758C293.083 239.613 293.28 239.41 293.425 239.147C293.57 238.885 293.642 238.582 293.642 238.237C293.642 237.892 293.57 237.588 293.425 237.326C293.28 237.063 293.083 236.863 292.835 236.725C292.586 236.58 292.307 236.508 291.996 236.508C291.686 236.508 291.406 236.58 291.158 236.725C290.91 236.863 290.713 237.063 290.568 237.326C290.423 237.588 290.351 237.892 290.351 238.237C290.351 238.582 290.423 238.885 290.568 239.147C290.713 239.41 290.91 239.613 291.158 239.758C291.406 239.896 291.686 239.965 291.996 239.965ZM301.803 238.268C301.803 238.357 301.796 238.485 301.783 238.651H297.446C297.522 239.058 297.719 239.382 298.036 239.623C298.36 239.858 298.76 239.975 299.237 239.975C299.844 239.975 300.344 239.775 300.737 239.375L301.431 240.172C301.182 240.469 300.868 240.693 300.489 240.845C300.109 240.997 299.682 241.072 299.206 241.072C298.598 241.072 298.064 240.952 297.601 240.71C297.139 240.469 296.78 240.134 296.525 239.706C296.276 239.272 296.152 238.782 296.152 238.237C296.152 237.698 296.273 237.215 296.514 236.787C296.763 236.353 297.104 236.015 297.539 235.773C297.974 235.532 298.464 235.411 299.009 235.411C299.547 235.411 300.027 235.532 300.448 235.773C300.875 236.008 301.207 236.342 301.441 236.777C301.683 237.205 301.803 237.702 301.803 238.268ZM299.009 236.446C298.595 236.446 298.243 236.57 297.953 236.819C297.67 237.06 297.498 237.384 297.436 237.791H300.572C300.517 237.391 300.347 237.067 300.065 236.819C299.782 236.57 299.43 236.446 299.009 236.446ZM304.754 241.072C304.305 241.072 303.867 241.014 303.439 240.896C303.012 240.779 302.67 240.631 302.415 240.451L302.912 239.468C303.16 239.634 303.457 239.768 303.802 239.872C304.154 239.968 304.499 240.017 304.837 240.017C305.61 240.017 305.996 239.813 305.996 239.406C305.996 239.213 305.896 239.078 305.696 239.002C305.503 238.927 305.189 238.854 304.754 238.785C304.299 238.716 303.926 238.637 303.636 238.547C303.353 238.457 303.105 238.302 302.891 238.081C302.684 237.854 302.58 237.54 302.58 237.139C302.58 236.615 302.798 236.198 303.232 235.887C303.674 235.57 304.267 235.411 305.013 235.411C305.392 235.411 305.772 235.456 306.151 235.545C306.531 235.628 306.841 235.742 307.083 235.887L306.586 236.87C306.117 236.594 305.589 236.456 305.002 236.456C304.623 236.456 304.333 236.515 304.133 236.632C303.94 236.743 303.843 236.891 303.843 237.077C303.843 237.284 303.947 237.433 304.154 237.522C304.368 237.605 304.695 237.685 305.137 237.76C305.578 237.829 305.941 237.909 306.224 237.998C306.507 238.088 306.748 238.24 306.948 238.454C307.155 238.668 307.259 238.971 307.259 239.365C307.259 239.882 307.034 240.296 306.586 240.607C306.137 240.917 305.527 241.072 304.754 241.072ZM308.373 235.473H309.667V241H308.373V235.473ZM309.025 234.562C308.79 234.562 308.594 234.49 308.435 234.345C308.276 234.193 308.197 234.007 308.197 233.786C308.197 233.565 308.276 233.382 308.435 233.237C308.594 233.086 308.79 233.01 309.025 233.01C309.259 233.01 309.456 233.082 309.615 233.227C309.774 233.365 309.853 233.541 309.853 233.755C309.853 233.983 309.774 234.176 309.615 234.335C309.463 234.486 309.266 234.562 309.025 234.562ZM316.85 235.473V240.162C316.85 242.107 315.857 243.08 313.869 243.08C313.338 243.08 312.834 243.011 312.358 242.873C311.882 242.742 311.489 242.549 311.178 242.294L311.758 241.321C311.999 241.521 312.303 241.68 312.669 241.797C313.041 241.921 313.417 241.983 313.797 241.983C314.404 241.983 314.849 241.845 315.132 241.569C315.415 241.293 315.556 240.872 315.556 240.307V240.017C315.336 240.258 315.067 240.441 314.749 240.565C314.432 240.689 314.083 240.752 313.704 240.752C313.179 240.752 312.703 240.641 312.275 240.42C311.855 240.193 311.52 239.875 311.272 239.468C311.03 239.061 310.909 238.595 310.909 238.071C310.909 237.547 311.03 237.084 311.272 236.684C311.52 236.277 311.855 235.963 312.275 235.742C312.703 235.521 313.179 235.411 313.704 235.411C314.104 235.411 314.466 235.476 314.791 235.608C315.122 235.739 315.398 235.939 315.619 236.208V235.473H316.85ZM313.9 239.654C314.39 239.654 314.791 239.51 315.101 239.22C315.418 238.923 315.577 238.54 315.577 238.071C315.577 237.609 315.418 237.233 315.101 236.943C314.791 236.653 314.39 236.508 313.9 236.508C313.404 236.508 312.997 236.653 312.679 236.943C312.369 237.233 312.213 237.609 312.213 238.071C312.213 238.54 312.369 238.923 312.679 239.22C312.997 239.51 313.404 239.654 313.9 239.654ZM321.687 235.411C322.384 235.411 322.943 235.614 323.364 236.022C323.785 236.429 323.995 237.032 323.995 237.833V241H322.702V237.998C322.702 237.515 322.588 237.153 322.36 236.912C322.132 236.663 321.808 236.539 321.387 236.539C320.911 236.539 320.535 236.684 320.259 236.974C319.983 237.257 319.845 237.667 319.845 238.205V241H318.551V235.473H319.783V236.187C319.997 235.932 320.266 235.739 320.59 235.608C320.914 235.476 321.28 235.411 321.687 235.411ZM330.883 238.268C330.883 238.357 330.876 238.485 330.862 238.651H326.525C326.601 239.058 326.798 239.382 327.115 239.623C327.44 239.858 327.84 239.975 328.316 239.975C328.923 239.975 329.423 239.775 329.817 239.375L330.51 240.172C330.262 240.469 329.948 240.693 329.568 240.845C329.189 240.997 328.761 241.072 328.285 241.072C327.678 241.072 327.143 240.952 326.681 240.71C326.218 240.469 325.86 240.134 325.604 239.706C325.356 239.272 325.232 238.782 325.232 238.237C325.232 237.698 325.352 237.215 325.594 236.787C325.842 236.353 326.184 236.015 326.619 235.773C327.053 235.532 327.543 235.411 328.088 235.411C328.627 235.411 329.106 235.532 329.527 235.773C329.955 236.008 330.286 236.342 330.521 236.777C330.762 237.205 330.883 237.702 330.883 238.268ZM328.088 236.446C327.674 236.446 327.322 236.57 327.033 236.819C326.75 237.06 326.577 237.384 326.515 237.791H329.651C329.596 237.391 329.427 237.067 329.144 236.819C328.861 236.57 328.509 236.446 328.088 236.446ZM333.357 236.28C333.73 235.701 334.385 235.411 335.324 235.411V236.643C335.213 236.622 335.113 236.612 335.024 236.612C334.52 236.612 334.127 236.76 333.844 237.057C333.561 237.346 333.419 237.767 333.419 238.319V241H332.126V235.473H333.357V236.28Z" fill="#333333"/>
<path d="M247 217.682C247 213.992 249.992 211 253.682 211H288.227C291.918 211 294.909 213.992 294.909 217.682V217.682C294.909 221.372 291.918 224.364 288.227 224.364H253.682C249.992 224.364 247 221.372 247 217.682V217.682Z" fill="#F1F6FF"/>
<path d="M257.824 214.391H258.437V219.652H261.679V220.182H257.824V214.391ZM266.296 218.188H262.656C262.689 218.64 262.863 219.007 263.177 219.288C263.492 219.564 263.889 219.702 264.369 219.702C264.639 219.702 264.887 219.655 265.113 219.561C265.339 219.462 265.535 219.319 265.7 219.131L266.031 219.512C265.838 219.743 265.596 219.92 265.303 220.041C265.017 220.163 264.699 220.223 264.352 220.223C263.905 220.223 263.508 220.129 263.161 219.942C262.819 219.749 262.551 219.484 262.358 219.148C262.165 218.811 262.069 218.431 262.069 218.006C262.069 217.581 262.16 217.201 262.342 216.865C262.529 216.528 262.783 216.266 263.103 216.079C263.428 215.891 263.792 215.797 264.195 215.797C264.597 215.797 264.959 215.891 265.279 216.079C265.598 216.266 265.849 216.528 266.031 216.865C266.213 217.195 266.304 217.576 266.304 218.006L266.296 218.188ZM264.195 216.302C263.776 216.302 263.423 216.437 263.136 216.707C262.855 216.972 262.695 217.32 262.656 217.75H265.742C265.703 217.32 265.54 216.972 265.254 216.707C264.972 216.437 264.619 216.302 264.195 216.302ZM271.076 215.83L269.14 220.182H268.536L266.608 215.83H267.221L268.85 219.537L270.497 215.83H271.076ZM275.571 218.188H271.931C271.964 218.64 272.137 219.007 272.452 219.288C272.766 219.564 273.163 219.702 273.643 219.702C273.913 219.702 274.161 219.655 274.388 219.561C274.614 219.462 274.809 219.319 274.975 219.131L275.306 219.512C275.113 219.743 274.87 219.92 274.578 220.041C274.291 220.163 273.974 220.223 273.626 220.223C273.18 220.223 272.783 220.129 272.435 219.942C272.093 219.749 271.826 219.484 271.633 219.148C271.44 218.811 271.343 218.431 271.343 218.006C271.343 217.581 271.434 217.201 271.616 216.865C271.804 216.528 272.057 216.266 272.377 216.079C272.703 215.891 273.067 215.797 273.469 215.797C273.872 215.797 274.233 215.891 274.553 216.079C274.873 216.266 275.124 216.528 275.306 216.865C275.488 217.195 275.579 217.576 275.579 218.006L275.571 218.188ZM273.469 216.302C273.05 216.302 272.697 216.437 272.41 216.707C272.129 216.972 271.969 217.32 271.931 217.75H275.016C274.978 217.32 274.815 216.972 274.528 216.707C274.247 216.437 273.894 216.302 273.469 216.302ZM276.774 214.044H277.362V220.182H276.774V214.044ZM282.295 216.765C283.133 216.765 283.742 216.917 284.123 217.22C284.509 217.518 284.702 217.937 284.702 218.478C284.702 218.814 284.622 219.115 284.462 219.379C284.308 219.644 284.073 219.854 283.759 220.008C283.444 220.157 283.058 220.232 282.601 220.232C282.187 220.232 281.793 220.165 281.418 220.033C281.048 219.895 280.75 219.713 280.524 219.487L280.814 219.015C281.007 219.214 281.26 219.377 281.575 219.504C281.889 219.625 282.228 219.686 282.592 219.686C283.072 219.686 283.442 219.578 283.701 219.363C283.966 219.148 284.098 218.861 284.098 218.503C284.098 218.105 283.949 217.805 283.651 217.601C283.359 217.397 282.863 217.295 282.162 217.295H280.93L281.227 214.391H284.396V214.92H281.749L281.55 216.765H282.295Z" fill="#333333"/>
<g filter="url(#filter2_d)">
<rect x="370" y="148" width="75.5263" height="31.1957" rx="2.59145" fill="white"/>
<rect x="370.274" y="148.274" width="74.979" height="30.6484" rx="2.31781" stroke="#E4E4E6" stroke-width="0.547292"/>
</g>
<path d="M380.164 167.035C380.508 167.035 380.806 167.091 381.059 167.205C381.316 167.318 381.512 167.48 381.648 167.692C381.784 167.903 381.852 168.155 381.852 168.445C381.852 168.732 381.784 168.983 381.648 169.199C381.512 169.41 381.316 169.573 381.059 169.686C380.806 169.799 380.508 169.856 380.164 169.856H379.269V171H378.532V167.035H380.164ZM380.13 169.233C380.451 169.233 380.694 169.165 380.861 169.029C381.027 168.893 381.11 168.698 381.11 168.445C381.11 168.192 381.027 167.998 380.861 167.862C380.694 167.726 380.451 167.658 380.13 167.658H379.269V169.233H380.13ZM383.166 168.417C383.37 168.1 383.728 167.941 384.242 167.941V168.615C384.182 168.604 384.127 168.598 384.078 168.598C383.802 168.598 383.587 168.679 383.432 168.842C383.277 169 383.2 169.231 383.2 169.533V171H382.492V167.975H383.166V168.417ZM384.843 167.975H385.551V171H384.843V167.975ZM385.2 167.477C385.071 167.477 384.963 167.437 384.877 167.358C384.79 167.275 384.746 167.173 384.746 167.052C384.746 166.931 384.79 166.831 384.877 166.752C384.963 166.669 385.071 166.627 385.2 166.627C385.328 166.627 385.436 166.667 385.522 166.746C385.609 166.821 385.653 166.918 385.653 167.035C385.653 167.159 385.609 167.265 385.522 167.352C385.439 167.435 385.332 167.477 385.2 167.477ZM388.196 167.941C388.578 167.941 388.884 168.053 389.114 168.275C389.344 168.498 389.46 168.829 389.46 169.267V171H388.752V169.357C388.752 169.093 388.689 168.895 388.565 168.763C388.44 168.627 388.263 168.559 388.032 168.559C387.772 168.559 387.566 168.638 387.415 168.796C387.264 168.951 387.188 169.176 387.188 169.471V171H386.48V167.975H387.154V168.366C387.271 168.226 387.418 168.121 387.596 168.049C387.773 167.977 387.974 167.941 388.196 167.941ZM391.773 171.04C391.46 171.04 391.179 170.974 390.929 170.841C390.68 170.709 390.486 170.526 390.346 170.292C390.206 170.054 390.136 169.786 390.136 169.488C390.136 169.189 390.206 168.923 390.346 168.689C390.486 168.455 390.678 168.272 390.924 168.139C391.173 168.007 391.456 167.941 391.773 167.941C392.072 167.941 392.332 168.002 392.555 168.122C392.782 168.243 392.952 168.417 393.065 168.644L392.521 168.961C392.434 168.821 392.325 168.717 392.192 168.649C392.064 168.577 391.922 168.542 391.768 168.542C391.503 168.542 391.284 168.628 391.111 168.802C390.937 168.972 390.85 169.201 390.85 169.488C390.85 169.775 390.935 170.005 391.105 170.179C391.279 170.349 391.5 170.434 391.768 170.434C391.922 170.434 392.064 170.4 392.192 170.332C392.325 170.26 392.434 170.154 392.521 170.014L393.065 170.332C392.948 170.558 392.776 170.734 392.549 170.858C392.327 170.979 392.068 171.04 391.773 171.04ZM393.677 167.975H394.385V171H393.677V167.975ZM394.034 167.477C393.905 167.477 393.798 167.437 393.711 167.358C393.624 167.275 393.581 167.173 393.581 167.052C393.581 166.931 393.624 166.831 393.711 166.752C393.798 166.669 393.905 166.627 394.034 166.627C394.162 166.627 394.27 166.667 394.357 166.746C394.444 166.821 394.487 166.918 394.487 167.035C394.487 167.159 394.444 167.265 394.357 167.352C394.274 167.435 394.166 167.477 394.034 167.477ZM396.991 167.941C397.286 167.941 397.548 168.005 397.778 168.134C398.013 168.262 398.196 168.443 398.328 168.678C398.46 168.912 398.526 169.182 398.526 169.488C398.526 169.793 398.46 170.065 398.328 170.303C398.196 170.537 398.013 170.719 397.778 170.847C397.548 170.975 397.286 171.04 396.991 171.04C396.583 171.04 396.26 170.904 396.022 170.632V172.099H395.314V167.975H395.988V168.372C396.105 168.228 396.249 168.121 396.419 168.049C396.593 167.977 396.783 167.941 396.991 167.941ZM396.912 170.434C397.172 170.434 397.386 170.347 397.552 170.173C397.722 169.999 397.807 169.771 397.807 169.488C397.807 169.204 397.722 168.976 397.552 168.802C397.386 168.628 397.172 168.542 396.912 168.542C396.742 168.542 396.589 168.581 396.453 168.661C396.317 168.736 396.209 168.846 396.13 168.989C396.051 169.133 396.011 169.299 396.011 169.488C396.011 169.676 396.051 169.843 396.13 169.986C396.209 170.13 396.317 170.241 396.453 170.32C396.589 170.396 396.742 170.434 396.912 170.434ZM399.198 166.797H399.906V171H399.198V166.797ZM401.991 167.941C402.436 167.941 402.776 168.049 403.01 168.264C403.248 168.475 403.367 168.796 403.367 169.227V171H402.699V170.632C402.612 170.764 402.487 170.866 402.325 170.938C402.166 171.006 401.974 171.04 401.747 171.04C401.52 171.04 401.322 171.002 401.152 170.926C400.982 170.847 400.85 170.739 400.756 170.603C400.665 170.464 400.62 170.307 400.62 170.133C400.62 169.861 400.72 169.644 400.92 169.482C401.124 169.316 401.443 169.233 401.877 169.233H402.659V169.187C402.659 168.976 402.595 168.813 402.466 168.7C402.342 168.587 402.155 168.53 401.906 168.53C401.736 168.53 401.568 168.557 401.402 168.61C401.239 168.662 401.101 168.736 400.988 168.83L400.71 168.315C400.869 168.194 401.06 168.102 401.283 168.037C401.505 167.973 401.741 167.941 401.991 167.941ZM401.894 170.524C402.072 170.524 402.229 170.485 402.364 170.405C402.504 170.322 402.602 170.205 402.659 170.054V169.703H401.928C401.52 169.703 401.317 169.837 401.317 170.105C401.317 170.233 401.368 170.335 401.469 170.411C401.571 170.486 401.713 170.524 401.894 170.524ZM404.276 166.797H404.984V171H404.276V166.797ZM410.441 166.797V171H409.762V170.609C409.644 170.753 409.499 170.86 409.325 170.932C409.155 171.004 408.967 171.04 408.759 171.04C408.468 171.04 408.206 170.975 407.972 170.847C407.741 170.719 407.56 170.537 407.428 170.303C407.296 170.065 407.23 169.793 407.23 169.488C407.23 169.182 407.296 168.912 407.428 168.678C407.56 168.443 407.741 168.262 407.972 168.134C408.206 168.005 408.468 167.941 408.759 167.941C408.959 167.941 409.142 167.975 409.308 168.043C409.475 168.111 409.616 168.213 409.733 168.349V166.797H410.441ZM408.844 170.434C409.014 170.434 409.167 170.396 409.303 170.32C409.439 170.241 409.546 170.13 409.626 169.986C409.705 169.843 409.745 169.676 409.745 169.488C409.745 169.299 409.705 169.133 409.626 168.989C409.546 168.846 409.439 168.736 409.303 168.661C409.167 168.581 409.014 168.542 408.844 168.542C408.674 168.542 408.521 168.581 408.385 168.661C408.249 168.736 408.141 168.846 408.062 168.989C407.983 169.133 407.943 169.299 407.943 169.488C407.943 169.676 407.983 169.843 408.062 169.986C408.141 170.13 408.249 170.241 408.385 170.32C408.521 170.396 408.674 170.434 408.844 170.434ZM414.211 169.505C414.211 169.554 414.207 169.624 414.2 169.714H411.826C411.868 169.937 411.976 170.114 412.149 170.247C412.327 170.375 412.546 170.439 412.806 170.439C413.139 170.439 413.412 170.33 413.628 170.111L414.007 170.547C413.871 170.709 413.699 170.832 413.492 170.915C413.284 170.998 413.05 171.04 412.789 171.04C412.457 171.04 412.164 170.974 411.911 170.841C411.658 170.709 411.462 170.526 411.322 170.292C411.186 170.054 411.118 169.786 411.118 169.488C411.118 169.193 411.184 168.929 411.317 168.695C411.453 168.457 411.639 168.272 411.877 168.139C412.115 168.007 412.383 167.941 412.682 167.941C412.976 167.941 413.239 168.007 413.469 168.139C413.703 168.268 413.885 168.451 414.013 168.689C414.145 168.923 414.211 169.195 414.211 169.505ZM412.682 168.508C412.455 168.508 412.263 168.576 412.104 168.712C411.949 168.844 411.855 169.021 411.821 169.244H413.537C413.507 169.025 413.414 168.847 413.26 168.712C413.105 168.576 412.912 168.508 412.682 168.508ZM415.826 171.04C415.581 171.04 415.341 171.008 415.107 170.943C414.872 170.879 414.686 170.798 414.546 170.7L414.818 170.162C414.954 170.252 415.116 170.326 415.305 170.383C415.497 170.435 415.686 170.462 415.871 170.462C416.294 170.462 416.506 170.35 416.506 170.128C416.506 170.022 416.451 169.948 416.341 169.907C416.236 169.865 416.064 169.826 415.826 169.788C415.577 169.75 415.373 169.707 415.214 169.658C415.059 169.608 414.923 169.523 414.806 169.403C414.693 169.278 414.636 169.106 414.636 168.887C414.636 168.6 414.755 168.372 414.993 168.202C415.235 168.028 415.56 167.941 415.968 167.941C416.175 167.941 416.383 167.966 416.591 168.015C416.798 168.06 416.968 168.122 417.101 168.202L416.829 168.74C416.572 168.589 416.283 168.513 415.962 168.513C415.754 168.513 415.596 168.545 415.486 168.61C415.38 168.67 415.328 168.751 415.328 168.853C415.328 168.966 415.384 169.048 415.497 169.097C415.615 169.142 415.794 169.185 416.036 169.227C416.277 169.265 416.476 169.308 416.63 169.357C416.785 169.406 416.917 169.489 417.027 169.607C417.14 169.724 417.197 169.89 417.197 170.105C417.197 170.388 417.074 170.615 416.829 170.785C416.583 170.955 416.249 171.04 415.826 171.04ZM417.807 167.975H418.515V171H417.807V167.975ZM418.163 167.477C418.035 167.477 417.927 167.437 417.841 167.358C417.754 167.275 417.71 167.173 417.71 167.052C417.71 166.931 417.754 166.831 417.841 166.752C417.927 166.669 418.035 166.627 418.163 166.627C418.292 166.627 418.399 166.667 418.486 166.746C418.573 166.821 418.617 166.918 418.617 167.035C418.617 167.159 418.573 167.265 418.486 167.352C418.403 167.435 418.296 167.477 418.163 167.477ZM422.446 167.975V170.541C422.446 171.606 421.902 172.139 420.815 172.139C420.524 172.139 420.248 172.101 419.988 172.025C419.727 171.954 419.512 171.848 419.342 171.708L419.659 171.176C419.791 171.285 419.958 171.372 420.158 171.436C420.362 171.504 420.567 171.538 420.775 171.538C421.107 171.538 421.351 171.463 421.506 171.312C421.661 171.16 421.738 170.93 421.738 170.62V170.462C421.617 170.594 421.47 170.694 421.296 170.762C421.123 170.83 420.932 170.864 420.724 170.864C420.437 170.864 420.177 170.804 419.942 170.683C419.712 170.558 419.529 170.384 419.393 170.162C419.261 169.939 419.195 169.684 419.195 169.397C419.195 169.11 419.261 168.857 419.393 168.638C419.529 168.415 419.712 168.243 419.942 168.122C420.177 168.002 420.437 167.941 420.724 167.941C420.943 167.941 421.141 167.977 421.319 168.049C421.5 168.121 421.651 168.23 421.772 168.377V167.975H422.446ZM420.832 170.264C421.1 170.264 421.319 170.184 421.489 170.026C421.663 169.863 421.749 169.654 421.749 169.397C421.749 169.144 421.663 168.938 421.489 168.779C421.319 168.621 421.1 168.542 420.832 168.542C420.56 168.542 420.337 168.621 420.163 168.779C419.993 168.938 419.908 169.144 419.908 169.397C419.908 169.654 419.993 169.863 420.163 170.026C420.337 170.184 420.56 170.264 420.832 170.264ZM425.093 167.941C425.475 167.941 425.781 168.053 426.011 168.275C426.241 168.498 426.357 168.829 426.357 169.267V171H425.649V169.357C425.649 169.093 425.586 168.895 425.462 168.763C425.337 168.627 425.16 168.559 424.929 168.559C424.669 168.559 424.463 168.638 424.312 168.796C424.161 168.951 424.085 169.176 424.085 169.471V171H423.377V167.975H424.051V168.366C424.168 168.226 424.316 168.121 424.493 168.049C424.671 167.977 424.871 167.941 425.093 167.941ZM430.126 169.505C430.126 169.554 430.122 169.624 430.115 169.714H427.741C427.783 169.937 427.891 170.114 428.064 170.247C428.242 170.375 428.461 170.439 428.721 170.439C429.054 170.439 429.327 170.33 429.543 170.111L429.922 170.547C429.786 170.709 429.614 170.832 429.407 170.915C429.199 170.998 428.965 171.04 428.704 171.04C428.372 171.04 428.079 170.974 427.826 170.841C427.573 170.709 427.377 170.526 427.237 170.292C427.101 170.054 427.033 169.786 427.033 169.488C427.033 169.193 427.099 168.929 427.232 168.695C427.368 168.457 427.554 168.272 427.792 168.139C428.03 168.007 428.298 167.941 428.597 167.941C428.891 167.941 429.154 168.007 429.384 168.139C429.618 168.268 429.8 168.451 429.928 168.689C430.06 168.923 430.126 169.195 430.126 169.505ZM428.597 168.508C428.37 168.508 428.178 168.576 428.019 168.712C427.864 168.844 427.77 169.021 427.736 169.244H429.452C429.422 169.025 429.329 168.847 429.175 168.712C429.02 168.576 428.827 168.508 428.597 168.508ZM431.48 168.417C431.684 168.1 432.043 167.941 432.557 167.941V168.615C432.496 168.604 432.441 168.598 432.392 168.598C432.117 168.598 431.901 168.679 431.747 168.842C431.592 169 431.514 169.231 431.514 169.533V171H430.806V167.975H431.48V168.417Z" fill="#333333"/>
<path d="M378.21 157.578C378.21 155.613 379.803 154.02 381.767 154.02H409.351C411.315 154.02 412.908 155.613 412.908 157.578V157.578C412.908 159.542 411.315 161.135 409.351 161.135H381.767C379.803 161.135 378.21 159.542 378.21 157.578V157.578Z" fill="#F1F6FF"/>
<path d="M388.373 155.498H388.708V158.377H390.483V158.667H388.373V155.498ZM393.01 157.576H391.017C391.035 157.823 391.131 158.024 391.303 158.178C391.475 158.329 391.692 158.404 391.955 158.404C392.102 158.404 392.238 158.379 392.362 158.327C392.486 158.273 392.593 158.195 392.684 158.092L392.865 158.3C392.759 158.427 392.626 158.524 392.466 158.59C392.309 158.656 392.136 158.69 391.946 158.69C391.701 158.69 391.484 158.638 391.294 158.536C391.106 158.43 390.96 158.285 390.854 158.101C390.749 157.917 390.696 157.709 390.696 157.476C390.696 157.244 390.746 157.036 390.845 156.851C390.948 156.667 391.087 156.524 391.262 156.421C391.44 156.319 391.639 156.267 391.86 156.267C392.08 156.267 392.278 156.319 392.453 156.421C392.628 156.524 392.765 156.667 392.865 156.851C392.964 157.033 393.014 157.241 393.014 157.476L393.01 157.576ZM391.86 156.544C391.63 156.544 391.437 156.617 391.28 156.765C391.126 156.91 391.038 157.1 391.017 157.336H392.706C392.685 157.1 392.596 156.91 392.439 156.765C392.285 156.617 392.092 156.544 391.86 156.544ZM395.625 156.285L394.566 158.667H394.235L393.18 156.285H393.515L394.407 158.314L395.308 156.285H395.625ZM398.085 157.576H396.093C396.111 157.823 396.206 158.024 396.378 158.178C396.551 158.329 396.768 158.404 397.03 158.404C397.178 158.404 397.314 158.379 397.438 158.327C397.562 158.273 397.669 158.195 397.759 158.092L397.94 158.3C397.835 158.427 397.702 158.524 397.542 158.59C397.385 158.656 397.212 158.69 397.021 158.69C396.777 158.69 396.56 158.638 396.369 158.536C396.182 158.43 396.036 158.285 395.93 158.101C395.825 157.917 395.772 157.709 395.772 157.476C395.772 157.244 395.822 157.036 395.921 156.851C396.024 156.667 396.163 156.524 396.338 156.421C396.516 156.319 396.715 156.267 396.935 156.267C397.156 156.267 397.353 156.319 397.528 156.421C397.704 156.524 397.841 156.667 397.94 156.851C398.04 157.033 398.09 157.241 398.09 157.476L398.085 157.576ZM396.935 156.544C396.706 156.544 396.513 156.617 396.356 156.765C396.202 156.91 396.114 157.1 396.093 157.336H397.782C397.761 157.1 397.672 156.91 397.515 156.765C397.361 156.617 397.168 156.544 396.935 156.544ZM398.744 155.308H399.066V158.667H398.744V155.308ZM401.765 156.797C402.224 156.797 402.558 156.88 402.766 157.046C402.977 157.209 403.083 157.439 403.083 157.734C403.083 157.918 403.039 158.083 402.952 158.228C402.867 158.373 402.739 158.487 402.567 158.572C402.395 158.653 402.183 158.694 401.933 158.694C401.706 158.694 401.491 158.658 401.285 158.585C401.083 158.51 400.92 158.41 400.796 158.287L400.955 158.029C401.061 158.137 401.199 158.226 401.371 158.296C401.544 158.362 401.729 158.395 401.928 158.395C402.191 158.395 402.393 158.336 402.535 158.219C402.68 158.101 402.752 157.944 402.752 157.748C402.752 157.531 402.671 157.366 402.508 157.254C402.348 157.143 402.076 157.087 401.693 157.087H401.018L401.181 155.498H402.915V155.787H401.467L401.358 156.797H401.765Z" fill="#333333"/>
<g filter="url(#filter3_d)">
<rect x="90" y="189.988" width="86" height="35.5217" rx="2.95082" fill="white"/>
<rect x="90.3116" y="190.3" width="85.3768" height="34.8986" rx="2.63923" stroke="#E4E4E6" stroke-width="0.623188"/>
</g>
<path d="M101.355 216.125C101.006 216.125 100.669 216.075 100.342 215.976C100.019 215.878 99.7636 215.746 99.5744 215.583L99.8646 214.932C100.05 215.078 100.275 215.198 100.542 215.293C100.813 215.383 101.084 215.428 101.355 215.428C101.69 215.428 101.939 215.374 102.103 215.267C102.271 215.159 102.354 215.018 102.354 214.841C102.354 214.712 102.307 214.607 102.212 214.525C102.122 214.439 102.006 214.373 101.864 214.325C101.722 214.278 101.529 214.224 101.284 214.164C100.94 214.082 100.66 214.001 100.445 213.919C100.234 213.837 100.052 213.71 99.8969 213.538C99.7464 213.362 99.6711 213.126 99.6711 212.829C99.6711 212.579 99.7378 212.354 99.8711 212.152C100.009 211.945 100.213 211.782 100.484 211.661C100.759 211.541 101.094 211.481 101.49 211.481C101.765 211.481 102.036 211.515 102.303 211.584C102.569 211.653 102.799 211.752 102.993 211.881L102.728 212.532C102.531 212.416 102.324 212.328 102.109 212.268C101.894 212.207 101.686 212.177 101.484 212.177C101.153 212.177 100.905 212.233 100.742 212.345C100.583 212.457 100.503 212.605 100.503 212.79C100.503 212.919 100.548 213.024 100.639 213.106C100.733 213.188 100.852 213.252 100.993 213.3C101.135 213.347 101.329 213.401 101.574 213.461C101.909 213.538 102.185 213.62 102.4 213.706C102.615 213.788 102.797 213.915 102.948 214.087C103.103 214.259 103.18 214.491 103.18 214.783C103.18 215.033 103.111 215.258 102.974 215.46C102.84 215.663 102.636 215.824 102.361 215.944C102.086 216.065 101.75 216.125 101.355 216.125ZM105.514 216.105C105.157 216.105 104.837 216.03 104.553 215.88C104.269 215.729 104.048 215.521 103.889 215.254C103.73 214.983 103.65 214.678 103.65 214.338C103.65 213.998 103.73 213.695 103.889 213.429C104.048 213.162 104.267 212.954 104.547 212.803C104.831 212.653 105.153 212.577 105.514 212.577C105.854 212.577 106.151 212.646 106.404 212.784C106.662 212.921 106.856 213.119 106.985 213.377L106.366 213.738C106.267 213.579 106.142 213.461 105.992 213.384C105.845 213.302 105.684 213.261 105.508 213.261C105.207 213.261 104.957 213.36 104.76 213.558C104.562 213.751 104.463 214.011 104.463 214.338C104.463 214.665 104.56 214.927 104.753 215.125C104.951 215.319 105.203 215.415 105.508 215.415C105.684 215.415 105.845 215.377 105.992 215.299C106.142 215.217 106.267 215.097 106.366 214.938L106.985 215.299C106.852 215.557 106.656 215.757 106.398 215.899C106.144 216.037 105.85 216.105 105.514 216.105ZM108.449 213.119C108.682 212.758 109.09 212.577 109.675 212.577V213.345C109.606 213.332 109.544 213.325 109.488 213.325C109.174 213.325 108.929 213.418 108.753 213.603C108.576 213.783 108.488 214.046 108.488 214.39V216.06H107.682V212.616H108.449V213.119ZM113.725 212.616V216.06H112.958V215.622C112.829 215.776 112.667 215.897 112.474 215.983C112.28 216.065 112.072 216.105 111.848 216.105C111.388 216.105 111.025 215.979 110.758 215.725C110.496 215.467 110.365 215.086 110.365 214.583V212.616H111.171V214.474C111.171 214.783 111.24 215.015 111.377 215.17C111.519 215.321 111.719 215.396 111.977 215.396C112.265 215.396 112.493 215.308 112.661 215.131C112.833 214.951 112.919 214.693 112.919 214.357V212.616H113.725ZM119.128 212.577C119.562 212.577 119.906 212.704 120.16 212.958C120.414 213.207 120.541 213.583 120.541 214.087V216.06H119.734V214.19C119.734 213.889 119.668 213.663 119.535 213.513C119.401 213.358 119.21 213.28 118.96 213.28C118.69 213.28 118.472 213.371 118.309 213.551C118.146 213.728 118.064 213.981 118.064 214.312V216.06H117.258V214.19C117.258 213.889 117.191 213.663 117.058 213.513C116.924 213.358 116.733 213.28 116.484 213.28C116.208 213.28 115.989 213.368 115.826 213.545C115.667 213.721 115.587 213.977 115.587 214.312V216.06H114.781V212.616H115.548V213.055C115.677 212.9 115.839 212.782 116.032 212.7C116.226 212.618 116.441 212.577 116.677 212.577C116.935 212.577 117.163 212.627 117.361 212.726C117.563 212.82 117.722 212.962 117.838 213.151C117.98 212.971 118.163 212.831 118.386 212.732C118.61 212.629 118.857 212.577 119.128 212.577ZM127.701 212.577C128.135 212.577 128.479 212.704 128.733 212.958C128.987 213.207 129.114 213.583 129.114 214.087V216.06H128.307V214.19C128.307 213.889 128.241 213.663 128.107 213.513C127.974 213.358 127.783 213.28 127.533 213.28C127.262 213.28 127.045 213.371 126.882 213.551C126.718 213.728 126.637 213.981 126.637 214.312V216.06H125.83V214.19C125.83 213.889 125.764 213.663 125.63 213.513C125.497 213.358 125.306 213.28 125.056 213.28C124.781 213.28 124.562 213.368 124.399 213.545C124.239 213.721 124.16 213.977 124.16 214.312V216.06H123.354V212.616H124.121V213.055C124.25 212.9 124.411 212.782 124.605 212.7C124.798 212.618 125.013 212.577 125.25 212.577C125.508 212.577 125.736 212.627 125.934 212.726C126.136 212.82 126.295 212.962 126.411 213.151C126.553 212.971 126.736 212.831 126.959 212.732C127.183 212.629 127.43 212.577 127.701 212.577ZM131.46 212.577C131.967 212.577 132.354 212.7 132.621 212.945C132.892 213.186 133.027 213.551 133.027 214.041V216.06H132.266V215.641C132.167 215.792 132.025 215.908 131.84 215.989C131.66 216.067 131.44 216.105 131.182 216.105C130.924 216.105 130.699 216.062 130.505 215.976C130.312 215.886 130.161 215.764 130.054 215.609C129.95 215.45 129.899 215.271 129.899 215.073C129.899 214.764 130.013 214.517 130.241 214.332C130.473 214.142 130.836 214.048 131.331 214.048H132.221V213.996C132.221 213.755 132.148 213.571 132.001 213.442C131.86 213.313 131.647 213.248 131.363 213.248C131.169 213.248 130.978 213.278 130.789 213.338C130.604 213.399 130.447 213.482 130.318 213.59L130.002 213.003C130.183 212.865 130.4 212.76 130.653 212.687C130.907 212.614 131.176 212.577 131.46 212.577ZM131.35 215.518C131.552 215.518 131.731 215.473 131.885 215.383C132.044 215.288 132.156 215.155 132.221 214.983V214.583H131.389C130.924 214.583 130.692 214.736 130.692 215.041C130.692 215.187 130.75 215.303 130.866 215.389C130.982 215.475 131.144 215.518 131.35 215.518ZM135.126 216.105C134.847 216.105 134.573 216.069 134.307 215.996C134.04 215.923 133.827 215.83 133.668 215.718L133.978 215.106C134.133 215.209 134.318 215.293 134.533 215.357C134.752 215.417 134.967 215.448 135.178 215.448C135.659 215.448 135.9 215.321 135.9 215.067C135.9 214.947 135.838 214.863 135.713 214.815C135.593 214.768 135.397 214.723 135.126 214.68C134.842 214.637 134.61 214.588 134.429 214.532C134.253 214.476 134.098 214.379 133.965 214.241C133.836 214.099 133.772 213.904 133.772 213.654C133.772 213.328 133.907 213.067 134.178 212.874C134.453 212.676 134.823 212.577 135.287 212.577C135.524 212.577 135.76 212.605 135.997 212.661C136.233 212.713 136.427 212.784 136.577 212.874L136.268 213.487C135.975 213.315 135.646 213.229 135.281 213.229C135.044 213.229 134.864 213.265 134.739 213.338C134.619 213.407 134.558 213.5 134.558 213.616C134.558 213.745 134.623 213.837 134.752 213.893C134.885 213.945 135.089 213.994 135.365 214.041C135.64 214.084 135.866 214.134 136.042 214.19C136.218 214.246 136.369 214.34 136.493 214.474C136.622 214.607 136.687 214.796 136.687 215.041C136.687 215.364 136.547 215.622 136.268 215.815C135.988 216.009 135.608 216.105 135.126 216.105ZM139.452 215.873C139.357 215.951 139.241 216.009 139.103 216.047C138.97 216.086 138.828 216.105 138.678 216.105C138.299 216.105 138.007 216.007 137.801 215.809C137.594 215.611 137.491 215.323 137.491 214.944V213.287H136.923V212.642H137.491V211.855H138.297V212.642H139.22V213.287H138.297V214.925C138.297 215.093 138.338 215.222 138.42 215.312C138.501 215.398 138.62 215.441 138.775 215.441C138.955 215.441 139.106 215.394 139.226 215.299L139.452 215.873ZM143.24 214.357C143.24 214.413 143.235 214.493 143.227 214.596H140.524C140.571 214.85 140.694 215.052 140.892 215.202C141.094 215.349 141.343 215.422 141.64 215.422C142.018 215.422 142.33 215.297 142.575 215.048L143.007 215.544C142.853 215.729 142.657 215.869 142.42 215.964C142.184 216.058 141.917 216.105 141.621 216.105C141.242 216.105 140.909 216.03 140.621 215.88C140.333 215.729 140.109 215.521 139.95 215.254C139.795 214.983 139.718 214.678 139.718 214.338C139.718 214.003 139.793 213.702 139.944 213.435C140.098 213.164 140.311 212.954 140.582 212.803C140.853 212.653 141.158 212.577 141.498 212.577C141.833 212.577 142.132 212.653 142.395 212.803C142.661 212.949 142.868 213.158 143.014 213.429C143.164 213.695 143.24 214.005 143.24 214.357ZM141.498 213.222C141.24 213.222 141.021 213.3 140.84 213.454C140.664 213.605 140.556 213.807 140.518 214.061H142.472C142.438 213.811 142.332 213.609 142.156 213.454C141.98 213.3 141.76 213.222 141.498 213.222ZM144.782 213.119C145.014 212.758 145.422 212.577 146.007 212.577V213.345C145.938 213.332 145.876 213.325 145.82 213.325C145.506 213.325 145.261 213.418 145.085 213.603C144.908 213.783 144.82 214.046 144.82 214.39V216.06H144.014V212.616H144.782V213.119Z" fill="#333333"/>
<path d="M99 201C99 198.791 100.791 197 103 197H123C125.209 197 127 198.791 127 201V201C127 203.209 125.209 205 123 205H103C100.791 205 99 203.209 99 201V201Z" fill="#F1F6FF"/>
<path d="M104.817 199.128H105.199V202.407H107.22V202.737H104.817V199.128ZM110.097 201.494H107.828C107.849 201.776 107.957 202.004 108.153 202.18C108.349 202.352 108.597 202.438 108.896 202.438C109.064 202.438 109.219 202.408 109.36 202.35C109.501 202.288 109.623 202.199 109.726 202.082L109.932 202.319C109.812 202.463 109.66 202.573 109.478 202.649C109.299 202.725 109.102 202.762 108.885 202.762C108.607 202.762 108.359 202.704 108.143 202.587C107.93 202.467 107.763 202.302 107.643 202.092C107.523 201.882 107.462 201.645 107.462 201.381C107.462 201.116 107.519 200.879 107.633 200.669C107.749 200.46 107.908 200.296 108.107 200.179C108.31 200.063 108.536 200.004 108.787 200.004C109.038 200.004 109.263 200.063 109.463 200.179C109.662 200.296 109.818 200.46 109.932 200.669C110.045 200.875 110.102 201.113 110.102 201.381L110.097 201.494ZM108.787 200.319C108.526 200.319 108.306 200.403 108.127 200.571C107.952 200.736 107.853 200.953 107.828 201.221H109.751C109.727 200.953 109.626 200.736 109.447 200.571C109.272 200.403 109.052 200.319 108.787 200.319ZM113.075 200.025L111.869 202.737H111.493L110.291 200.025H110.673L111.689 202.334L112.715 200.025H113.075ZM115.877 201.494H113.608C113.629 201.776 113.737 202.004 113.933 202.18C114.129 202.352 114.376 202.438 114.675 202.438C114.844 202.438 114.998 202.408 115.139 202.35C115.28 202.288 115.402 202.199 115.505 202.082L115.712 202.319C115.591 202.463 115.44 202.573 115.258 202.649C115.079 202.725 114.882 202.762 114.665 202.762C114.387 202.762 114.139 202.704 113.923 202.587C113.71 202.467 113.543 202.302 113.423 202.092C113.302 201.882 113.242 201.645 113.242 201.381C113.242 201.116 113.299 200.879 113.412 200.669C113.529 200.46 113.687 200.296 113.887 200.179C114.089 200.063 114.316 200.004 114.567 200.004C114.818 200.004 115.043 200.063 115.243 200.179C115.442 200.296 115.598 200.46 115.712 200.669C115.825 200.875 115.882 201.113 115.882 201.381L115.877 201.494ZM114.567 200.319C114.306 200.319 114.086 200.403 113.907 200.571C113.732 200.736 113.632 200.953 113.608 201.221H115.531C115.507 200.953 115.406 200.736 115.227 200.571C115.052 200.403 114.832 200.319 114.567 200.319ZM116.627 198.911H116.993V202.737H116.627V198.911ZM120.067 200.607C120.589 200.607 120.969 200.702 121.206 200.891C121.447 201.077 121.567 201.338 121.567 201.675C121.567 201.884 121.517 202.072 121.418 202.236C121.321 202.401 121.175 202.532 120.979 202.628C120.784 202.721 120.543 202.768 120.258 202.768C120 202.768 119.754 202.726 119.52 202.644C119.29 202.558 119.105 202.444 118.964 202.304L119.144 202.01C119.264 202.133 119.423 202.235 119.618 202.314C119.814 202.389 120.026 202.427 120.253 202.427C120.552 202.427 120.782 202.36 120.943 202.226C121.108 202.092 121.191 201.913 121.191 201.69C121.191 201.443 121.098 201.255 120.912 201.128C120.73 201.001 120.421 200.937 119.984 200.937H119.216L119.402 199.128H121.376V199.458H119.727L119.603 200.607H120.067Z" fill="#333333"/>
<g filter="url(#filter4_d)">
<rect x="90" y="236.674" width="86" height="35.5217" rx="2.95082" fill="white"/>
<rect x="90.3116" y="236.985" width="85.3768" height="34.8986" rx="2.63923" stroke="#E4E4E6" stroke-width="0.623188"/>
</g>
<path d="M103.154 260.398C103.404 260.48 103.601 260.617 103.748 260.811C103.894 261 103.967 261.237 103.967 261.52C103.967 261.912 103.816 262.215 103.515 262.43C103.214 262.64 102.776 262.746 102.2 262.746H99.9549V258.231H102.071C102.604 258.231 103.014 258.336 103.303 258.547C103.591 258.753 103.735 259.039 103.735 259.405C103.735 259.628 103.683 259.826 103.58 259.998C103.477 260.17 103.335 260.303 103.154 260.398ZM100.793 258.889V260.134H101.98C102.273 260.134 102.496 260.082 102.651 259.979C102.81 259.871 102.89 259.716 102.89 259.514C102.89 259.308 102.81 259.153 102.651 259.05C102.496 258.942 102.273 258.889 101.98 258.889H100.793ZM102.148 262.088C102.797 262.088 103.122 261.871 103.122 261.436C103.122 261.002 102.797 260.785 102.148 260.785H100.793V262.088H102.148ZM108.119 259.301V262.746H107.352V262.307C107.223 262.462 107.061 262.582 106.868 262.668C106.674 262.75 106.466 262.791 106.242 262.791C105.782 262.791 105.419 262.664 105.152 262.41C104.89 262.152 104.759 261.772 104.759 261.269V259.301H105.565V261.159C105.565 261.469 105.634 261.701 105.771 261.856C105.913 262.006 106.113 262.081 106.371 262.081C106.659 262.081 106.887 261.993 107.055 261.817C107.227 261.636 107.313 261.378 107.313 261.043V259.301H108.119ZM110.239 262.791C109.96 262.791 109.686 262.754 109.42 262.681C109.153 262.608 108.94 262.516 108.781 262.404L109.091 261.791C109.246 261.894 109.431 261.978 109.646 262.043C109.865 262.103 110.08 262.133 110.291 262.133C110.772 262.133 111.013 262.006 111.013 261.753C111.013 261.632 110.951 261.548 110.826 261.501C110.706 261.454 110.51 261.409 110.239 261.366C109.955 261.323 109.723 261.273 109.542 261.217C109.366 261.161 109.211 261.065 109.078 260.927C108.949 260.785 108.884 260.589 108.884 260.34C108.884 260.013 109.02 259.753 109.291 259.56C109.566 259.362 109.936 259.263 110.4 259.263C110.637 259.263 110.873 259.291 111.11 259.347C111.346 259.398 111.54 259.469 111.69 259.56L111.381 260.172C111.088 260 110.759 259.914 110.394 259.914C110.157 259.914 109.977 259.951 109.852 260.024C109.732 260.093 109.671 260.185 109.671 260.301C109.671 260.43 109.736 260.523 109.865 260.579C109.998 260.63 110.202 260.68 110.478 260.727C110.753 260.77 110.979 260.819 111.155 260.875C111.331 260.931 111.482 261.026 111.606 261.159C111.735 261.292 111.8 261.482 111.8 261.727C111.8 262.049 111.66 262.307 111.381 262.501C111.101 262.694 110.721 262.791 110.239 262.791ZM112.494 259.301H113.301V262.746H112.494V259.301ZM112.901 258.734C112.754 258.734 112.632 258.689 112.533 258.598C112.434 258.504 112.385 258.388 112.385 258.25C112.385 258.113 112.434 257.999 112.533 257.908C112.632 257.814 112.754 257.766 112.901 257.766C113.047 257.766 113.169 257.812 113.268 257.902C113.367 257.988 113.417 258.097 113.417 258.231C113.417 258.373 113.367 258.493 113.268 258.592C113.174 258.687 113.051 258.734 112.901 258.734ZM116.313 259.263C116.747 259.263 117.096 259.39 117.358 259.643C117.62 259.897 117.752 260.273 117.752 260.772V262.746H116.945V260.875C116.945 260.574 116.874 260.349 116.732 260.198C116.59 260.043 116.388 259.966 116.126 259.966C115.829 259.966 115.595 260.056 115.423 260.237C115.251 260.413 115.165 260.669 115.165 261.004V262.746H114.359V259.301H115.126V259.747C115.26 259.587 115.427 259.467 115.629 259.385C115.832 259.304 116.059 259.263 116.313 259.263ZM122.044 261.043C122.044 261.099 122.039 261.178 122.031 261.282H119.328C119.376 261.535 119.498 261.737 119.696 261.888C119.898 262.034 120.147 262.107 120.444 262.107C120.823 262.107 121.134 261.983 121.379 261.733L121.812 262.23C121.657 262.415 121.461 262.554 121.225 262.649C120.988 262.744 120.721 262.791 120.425 262.791C120.046 262.791 119.713 262.716 119.425 262.565C119.137 262.415 118.913 262.206 118.754 261.94C118.599 261.669 118.522 261.363 118.522 261.024C118.522 260.688 118.597 260.387 118.748 260.121C118.903 259.85 119.115 259.639 119.386 259.489C119.657 259.338 119.963 259.263 120.302 259.263C120.638 259.263 120.936 259.338 121.199 259.489C121.465 259.635 121.672 259.843 121.818 260.114C121.968 260.381 122.044 260.69 122.044 261.043ZM120.302 259.908C120.044 259.908 119.825 259.985 119.644 260.14C119.468 260.291 119.36 260.493 119.322 260.746H121.276C121.242 260.497 121.136 260.295 120.96 260.14C120.784 259.985 120.565 259.908 120.302 259.908ZM123.882 262.791C123.603 262.791 123.33 262.754 123.063 262.681C122.797 262.608 122.584 262.516 122.425 262.404L122.734 261.791C122.889 261.894 123.074 261.978 123.289 262.043C123.508 262.103 123.723 262.133 123.934 262.133C124.416 262.133 124.656 262.006 124.656 261.753C124.656 261.632 124.594 261.548 124.469 261.501C124.349 261.454 124.153 261.409 123.882 261.366C123.599 261.323 123.366 261.273 123.186 261.217C123.01 261.161 122.855 261.065 122.721 260.927C122.592 260.785 122.528 260.589 122.528 260.34C122.528 260.013 122.663 259.753 122.934 259.56C123.21 259.362 123.579 259.263 124.044 259.263C124.28 259.263 124.517 259.291 124.753 259.347C124.99 259.398 125.183 259.469 125.334 259.56L125.024 260.172C124.732 260 124.403 259.914 124.037 259.914C123.801 259.914 123.62 259.951 123.495 260.024C123.375 260.093 123.315 260.185 123.315 260.301C123.315 260.43 123.379 260.523 123.508 260.579C123.642 260.63 123.846 260.68 124.121 260.727C124.396 260.77 124.622 260.819 124.798 260.875C124.975 260.931 125.125 261.026 125.25 261.159C125.379 261.292 125.443 261.482 125.443 261.727C125.443 262.049 125.304 262.307 125.024 262.501C124.745 262.694 124.364 262.791 123.882 262.791ZM127.202 262.791C126.922 262.791 126.649 262.754 126.383 262.681C126.116 262.608 125.903 262.516 125.744 262.404L126.054 261.791C126.209 261.894 126.394 261.978 126.609 262.043C126.828 262.103 127.043 262.133 127.254 262.133C127.735 262.133 127.976 262.006 127.976 261.753C127.976 261.632 127.914 261.548 127.789 261.501C127.669 261.454 127.473 261.409 127.202 261.366C126.918 261.323 126.686 261.273 126.505 261.217C126.329 261.161 126.174 261.065 126.041 260.927C125.912 260.785 125.847 260.589 125.847 260.34C125.847 260.013 125.983 259.753 126.254 259.56C126.529 259.362 126.899 259.263 127.363 259.263C127.6 259.263 127.836 259.291 128.073 259.347C128.309 259.398 128.503 259.469 128.653 259.56L128.344 260.172C128.051 260 127.722 259.914 127.357 259.914C127.12 259.914 126.94 259.951 126.815 260.024C126.695 260.093 126.634 260.185 126.634 260.301C126.634 260.43 126.699 260.523 126.828 260.579C126.961 260.63 127.165 260.68 127.441 260.727C127.716 260.77 127.942 260.819 128.118 260.875C128.294 260.931 128.445 261.026 128.569 261.159C128.698 261.292 128.763 261.482 128.763 261.727C128.763 262.049 128.623 262.307 128.344 262.501C128.064 262.694 127.684 262.791 127.202 262.791ZM132.556 259.263C133.063 259.263 133.45 259.385 133.717 259.63C133.988 259.871 134.123 260.237 134.123 260.727V262.746H133.362V262.327C133.263 262.477 133.121 262.593 132.936 262.675C132.756 262.752 132.536 262.791 132.278 262.791C132.02 262.791 131.795 262.748 131.601 262.662C131.408 262.572 131.257 262.449 131.15 262.294C131.046 262.135 130.995 261.957 130.995 261.759C130.995 261.449 131.109 261.202 131.337 261.017C131.569 260.828 131.932 260.733 132.427 260.733H133.317V260.682C133.317 260.441 133.244 260.256 133.097 260.127C132.956 259.998 132.743 259.934 132.459 259.934C132.265 259.934 132.074 259.964 131.885 260.024C131.7 260.084 131.543 260.168 131.414 260.275L131.098 259.689C131.279 259.551 131.496 259.446 131.749 259.372C132.003 259.299 132.272 259.263 132.556 259.263ZM132.446 262.204C132.648 262.204 132.827 262.159 132.981 262.069C133.14 261.974 133.252 261.841 133.317 261.669V261.269H132.485C132.02 261.269 131.788 261.421 131.788 261.727C131.788 261.873 131.846 261.989 131.962 262.075C132.078 262.161 132.24 262.204 132.446 262.204ZM137.112 259.263C137.546 259.263 137.895 259.39 138.157 259.643C138.419 259.897 138.551 260.273 138.551 260.772V262.746H137.744V260.875C137.744 260.574 137.673 260.349 137.531 260.198C137.39 260.043 137.187 259.966 136.925 259.966C136.628 259.966 136.394 260.056 136.222 260.237C136.05 260.413 135.964 260.669 135.964 261.004V262.746H135.158V259.301H135.925V259.747C136.059 259.587 136.226 259.467 136.428 259.385C136.631 259.304 136.858 259.263 137.112 259.263ZM140.889 259.263C141.397 259.263 141.784 259.385 142.05 259.63C142.321 259.871 142.457 260.237 142.457 260.727V262.746H141.695V262.327C141.597 262.477 141.455 262.593 141.27 262.675C141.089 262.752 140.87 262.791 140.612 262.791C140.354 262.791 140.128 262.748 139.935 262.662C139.741 262.572 139.591 262.449 139.483 262.294C139.38 262.135 139.328 261.957 139.328 261.759C139.328 261.449 139.442 261.202 139.67 261.017C139.902 260.828 140.266 260.733 140.76 260.733H141.65V260.682C141.65 260.441 141.577 260.256 141.431 260.127C141.289 259.998 141.076 259.934 140.792 259.934C140.599 259.934 140.408 259.964 140.218 260.024C140.033 260.084 139.876 260.168 139.747 260.275L139.431 259.689C139.612 259.551 139.829 259.446 140.083 259.372C140.337 259.299 140.605 259.263 140.889 259.263ZM140.779 262.204C140.982 262.204 141.16 262.159 141.315 262.069C141.474 261.974 141.586 261.841 141.65 261.669V261.269H140.818C140.354 261.269 140.122 261.421 140.122 261.727C140.122 261.873 140.18 261.989 140.296 262.075C140.412 262.161 140.573 262.204 140.779 262.204ZM143.491 257.96H144.298V262.746H143.491V257.96ZM148.581 259.301L146.968 263.023C146.818 263.397 146.635 263.66 146.42 263.81C146.205 263.965 145.945 264.042 145.64 264.042C145.468 264.042 145.298 264.014 145.13 263.958C144.962 263.903 144.825 263.825 144.717 263.726L145.04 263.133C145.117 263.206 145.207 263.264 145.311 263.307C145.418 263.35 145.526 263.372 145.633 263.372C145.775 263.372 145.891 263.335 145.981 263.262C146.076 263.189 146.162 263.066 146.239 262.894L146.297 262.759L144.795 259.301H145.633L146.717 261.849L147.807 259.301H148.581ZM150.105 262.791C149.825 262.791 149.552 262.754 149.286 262.681C149.019 262.608 148.806 262.516 148.647 262.404L148.957 261.791C149.112 261.894 149.296 261.978 149.511 262.043C149.731 262.103 149.946 262.133 150.156 262.133C150.638 262.133 150.879 262.006 150.879 261.753C150.879 261.632 150.817 261.548 150.692 261.501C150.571 261.454 150.376 261.409 150.105 261.366C149.821 261.323 149.589 261.273 149.408 261.217C149.232 261.161 149.077 261.065 148.944 260.927C148.815 260.785 148.75 260.589 148.75 260.34C148.75 260.013 148.886 259.753 149.157 259.56C149.432 259.362 149.802 259.263 150.266 259.263C150.503 259.263 150.739 259.291 150.976 259.347C151.212 259.398 151.406 259.469 151.556 259.56L151.247 260.172C150.954 260 150.625 259.914 150.26 259.914C150.023 259.914 149.843 259.951 149.718 260.024C149.597 260.093 149.537 260.185 149.537 260.301C149.537 260.43 149.602 260.523 149.731 260.579C149.864 260.63 150.068 260.68 150.344 260.727C150.619 260.77 150.844 260.819 151.021 260.875C151.197 260.931 151.348 261.026 151.472 261.159C151.601 261.292 151.666 261.482 151.666 261.727C151.666 262.049 151.526 262.307 151.247 262.501C150.967 262.694 150.586 262.791 150.105 262.791ZM154.431 262.559C154.336 262.636 154.22 262.694 154.082 262.733C153.949 262.772 153.807 262.791 153.657 262.791C153.278 262.791 152.986 262.692 152.779 262.494C152.573 262.296 152.47 262.008 152.47 261.63V259.972H151.902V259.327H152.47V258.54H153.276V259.327H154.198V259.972H153.276V261.611C153.276 261.778 153.317 261.907 153.399 261.998C153.48 262.084 153.599 262.127 153.753 262.127C153.934 262.127 154.084 262.079 154.205 261.985L154.431 262.559Z" fill="#333333"/>
<path d="M99 248C99 245.791 100.791 244 103 244H123C125.209 244 127 245.791 127 248V248C127 250.209 125.209 252 123 252H103C100.791 252 99 250.209 99 248V248Z" fill="#F1F6FF"/>
<path d="M104.817 246.128H105.199V249.407H107.22V249.737H104.817V246.128ZM110.097 248.494H107.828C107.849 248.776 107.957 249.004 108.153 249.18C108.349 249.352 108.597 249.438 108.896 249.438C109.064 249.438 109.219 249.408 109.36 249.35C109.501 249.288 109.623 249.199 109.726 249.082L109.932 249.319C109.812 249.463 109.66 249.573 109.478 249.649C109.299 249.725 109.102 249.762 108.885 249.762C108.607 249.762 108.359 249.704 108.143 249.587C107.93 249.467 107.763 249.302 107.643 249.092C107.523 248.882 107.462 248.645 107.462 248.381C107.462 248.116 107.519 247.879 107.633 247.669C107.749 247.46 107.908 247.296 108.107 247.179C108.31 247.063 108.536 247.004 108.787 247.004C109.038 247.004 109.263 247.063 109.463 247.179C109.662 247.296 109.818 247.46 109.932 247.669C110.045 247.875 110.102 248.113 110.102 248.381L110.097 248.494ZM108.787 247.319C108.526 247.319 108.306 247.403 108.127 247.571C107.952 247.736 107.853 247.953 107.828 248.221H109.751C109.727 247.953 109.626 247.736 109.447 247.571C109.272 247.403 109.052 247.319 108.787 247.319ZM113.075 247.025L111.869 249.737H111.493L110.291 247.025H110.673L111.689 249.334L112.715 247.025H113.075ZM115.877 248.494H113.608C113.629 248.776 113.737 249.004 113.933 249.18C114.129 249.352 114.376 249.438 114.675 249.438C114.844 249.438 114.998 249.408 115.139 249.35C115.28 249.288 115.402 249.199 115.505 249.082L115.712 249.319C115.591 249.463 115.44 249.573 115.258 249.649C115.079 249.725 114.882 249.762 114.665 249.762C114.387 249.762 114.139 249.704 113.923 249.587C113.71 249.467 113.543 249.302 113.423 249.092C113.302 248.882 113.242 248.645 113.242 248.381C113.242 248.116 113.299 247.879 113.412 247.669C113.529 247.46 113.687 247.296 113.887 247.179C114.089 247.063 114.316 247.004 114.567 247.004C114.818 247.004 115.043 247.063 115.243 247.179C115.442 247.296 115.598 247.46 115.712 247.669C115.825 247.875 115.882 248.113 115.882 248.381L115.877 248.494ZM114.567 247.319C114.306 247.319 114.086 247.403 113.907 247.571C113.732 247.736 113.632 247.953 113.608 248.221H115.531C115.507 247.953 115.406 247.736 115.227 247.571C115.052 247.403 114.832 247.319 114.567 247.319ZM116.627 245.911H116.993V249.737H116.627V245.911ZM120.067 247.607C120.589 247.607 120.969 247.702 121.206 247.891C121.447 248.077 121.567 248.338 121.567 248.675C121.567 248.884 121.517 249.072 121.418 249.236C121.321 249.401 121.175 249.532 120.979 249.628C120.784 249.721 120.543 249.768 120.258 249.768C120 249.768 119.754 249.726 119.52 249.644C119.29 249.558 119.105 249.444 118.964 249.304L119.144 249.01C119.264 249.133 119.423 249.235 119.618 249.314C119.814 249.389 120.026 249.427 120.253 249.427C120.552 249.427 120.782 249.36 120.943 249.226C121.108 249.092 121.191 248.913 121.191 248.69C121.191 248.443 121.098 248.255 120.912 248.128C120.73 248.001 120.421 247.937 119.984 247.937H119.216L119.402 246.128H121.376V246.458H119.727L119.603 247.607H120.067Z" fill="#333333"/>
<defs>
<filter id="filter0_d" x="113.888" y="110.592" width="191.224" height="61.2242" filterUnits="userSpaceOnUse" color-interpolation-filters="sRGB">
<feFlood flood-opacity="0" result="BackgroundImageFix"/>
<feColorMatrix in="SourceAlpha" type="matrix" values="0 0 0 0 0 0 0 0 0 0 0 0 0 0 0 0 0 0 127 0"/>
<feOffset dy="3.70403"/>
<feGaussianBlur stdDeviation="5.55605"/>
<feColorMatrix type="matrix" values="0 0 0 0 0 0 0 0 0 0 0 0 0 0 0 0 0 0 0.15 0"/>
<feBlend mode="normal" in2="BackgroundImageFix" result="effect1_dropShadow"/>
<feBlend mode="normal" in="SourceGraphic" in2="effect1_dropShadow" result="shape"/>
</filter>
<filter id="filter1_d" x="220.517" y="192.011" width="160.966" height="79.9655" filterUnits="userSpaceOnUse" color-interpolation-filters="sRGB">
<feFlood flood-opacity="0" result="BackgroundImageFix"/>
<feColorMatrix in="SourceAlpha" type="matrix" values="0 0 0 0 0 0 0 0 0 0 0 0 0 0 0 0 0 0 127 0"/>
<feOffset dy="3.49425"/>
<feGaussianBlur stdDeviation="5.24138"/>
<feColorMatrix type="matrix" values="0 0 0 0 0 0 0 0 0 0 0 0 0 0 0 0 0 0 0.15 0"/>
<feBlend mode="normal" in2="BackgroundImageFix" result="effect1_dropShadow"/>
<feBlend mode="normal" in="SourceGraphic" in2="effect1_dropShadow" result="shape"/>
</filter>
<filter id="filter2_d" x="363.918" y="143.946" width="87.6894" height="43.3588" filterUnits="userSpaceOnUse" color-interpolation-filters="sRGB">
<feFlood flood-opacity="0" result="BackgroundImageFix"/>
<feColorMatrix in="SourceAlpha" type="matrix" values="0 0 0 0 0 0 0 0 0 0 0 0 0 0 0 0 0 0 127 0"/>
<feOffset dy="2.02719"/>
<feGaussianBlur stdDeviation="3.04078"/>
<feColorMatrix type="matrix" values="0 0 0 0 0 0 0 0 0 0 0 0 0 0 0 0 0 0 0.15 0"/>
<feBlend mode="normal" in2="BackgroundImageFix" result="effect1_dropShadow"/>
<feBlend mode="normal" in="SourceGraphic" in2="effect1_dropShadow" result="shape"/>
</filter>
<filter id="filter3_d" x="83.0751" y="185.372" width="99.8499" height="49.3716" filterUnits="userSpaceOnUse" color-interpolation-filters="sRGB">
<feFlood flood-opacity="0" result="BackgroundImageFix"/>
<feColorMatrix in="SourceAlpha" type="matrix" values="0 0 0 0 0 0 0 0 0 0 0 0 0 0 0 0 0 0 127 0"/>
<feOffset dy="2.30831"/>
<feGaussianBlur stdDeviation="3.46246"/>
<feColorMatrix type="matrix" values="0 0 0 0 0 0 0 0 0 0 0 0 0 0 0 0 0 0 0.15 0"/>
<feBlend mode="normal" in2="BackgroundImageFix" result="effect1_dropShadow"/>
<feBlend mode="normal" in="SourceGraphic" in2="effect1_dropShadow" result="shape"/>
</filter>
<filter id="filter4_d" x="83.0751" y="232.057" width="99.8499" height="49.3716" filterUnits="userSpaceOnUse" color-interpolation-filters="sRGB">
<feFlood flood-opacity="0" result="BackgroundImageFix"/>
<feColorMatrix in="SourceAlpha" type="matrix" values="0 0 0 0 0 0 0 0 0 0 0 0 0 0 0 0 0 0 127 0"/>
<feOffset dy="2.30831"/>
<feGaussianBlur stdDeviation="3.46246"/>
<feColorMatrix type="matrix" values="0 0 0 0 0 0 0 0 0 0 0 0 0 0 0 0 0 0 0.15 0"/>
<feBlend mode="normal" in2="BackgroundImageFix" result="effect1_dropShadow"/>
<feBlend mode="normal" in="SourceGraphic" in2="effect1_dropShadow" result="shape"/>
</filter>
</defs>
</svg>
