<svg width="421" height="421" viewBox="0 0 421 421" fill="none" xmlns="http://www.w3.org/2000/svg">
<g clip-path="url(#clip0_2744_13677)">
<circle cx="206.4" cy="210.08" r="169.5" fill="#FAFAFA"/>
<g filter="url(#filter0_d_2744_13677)">
<rect x="19.4521" y="66.7527" width="235.555" height="274.191" rx="5.9014" fill="white"/>
</g>
<g filter="url(#filter1_d_2744_13677)">
<path d="M19.4521 72.6541C19.4521 69.3948 22.0943 66.7527 25.3535 66.7527H249.106C252.365 66.7527 255.007 69.3948 255.007 72.6541V114.634L137.23 115.359L19.4521 114.634V72.6541Z" fill="#FAFAFA"/>
</g>
<path d="M45.3655 95.2692C45.3655 95.9123 45.2609 96.4638 45.0515 96.9237C44.8421 97.3799 44.5075 97.7313 44.0476 97.9781C43.5914 98.2211 42.9894 98.3426 42.2416 98.3426C41.4938 98.3426 40.89 98.2193 40.4301 97.9725C39.9739 97.722 39.643 97.363 39.4374 96.8957C39.2318 96.4245 39.1289 95.8562 39.1289 95.1907V90.1206H40.5254V95.3309C40.5254 95.959 40.6787 96.4227 40.9853 96.7218C41.2957 97.0209 41.7144 97.1705 42.2416 97.1705C42.5968 97.1705 42.9053 97.105 43.167 96.9742C43.4288 96.8433 43.6307 96.6433 43.7727 96.3741C43.9148 96.1011 43.9859 95.7534 43.9859 95.3309V90.1206H45.3655V95.2692ZM46.9288 100.036V92.4313H48.2917L48.3029 93.3455C48.3777 93.2184 48.473 93.0931 48.5889 92.9697C48.7086 92.8464 48.845 92.7361 48.9983 92.6388C49.1554 92.5416 49.3292 92.465 49.5199 92.4089C49.7106 92.3491 49.92 92.3192 50.1481 92.3192C50.593 92.3192 50.9875 92.4257 51.3315 92.6388C51.6754 92.8482 51.9446 93.1716 52.1391 93.6091C52.3372 94.0466 52.4363 94.5999 52.4363 95.2692C52.4363 95.9534 52.3354 96.5236 52.1335 96.9798C51.9316 97.4359 51.6493 97.7781 51.2866 98.0061C50.9239 98.2305 50.5033 98.3426 50.0247 98.3426C49.8041 98.3426 49.6022 98.3127 49.419 98.2529C49.2395 98.1931 49.0787 98.1108 48.9366 98.0061C48.7946 97.9014 48.6693 97.7874 48.5609 97.664C48.4562 97.5406 48.3683 97.4116 48.2973 97.277V100.036H46.9288ZM49.7218 97.3219C50.1331 97.3219 50.4734 97.1593 50.7426 96.834C51.0118 96.5049 51.1464 95.9908 51.1464 95.2916C51.1464 94.6859 51.0192 94.2092 50.765 93.8615C50.5145 93.51 50.1668 93.3343 49.7218 93.3343C49.2432 93.3343 48.8843 93.5194 48.645 93.8895C48.4057 94.2559 48.2861 94.7233 48.2861 95.2916C48.2861 95.6581 48.3384 95.9964 48.4431 96.3068C48.5515 96.6134 48.7104 96.8601 48.9198 97.0471C49.1329 97.2303 49.4003 97.3219 49.7218 97.3219ZM55.8034 98.3426C55.3996 98.3426 55.0164 98.2791 54.6537 98.152C54.2947 98.0211 53.9919 97.8173 53.7451 97.5406C53.5021 97.2639 53.3488 96.9069 53.2852 96.4694H54.4854C54.5378 96.6825 54.6294 96.8564 54.7602 96.991C54.8948 97.1256 55.0537 97.2247 55.237 97.2882C55.4202 97.3481 55.6071 97.378 55.7978 97.378C56.1455 97.378 56.4259 97.3182 56.6391 97.1985C56.8559 97.0789 56.9644 96.8938 56.9644 96.6433C56.9644 96.4601 56.9045 96.3142 56.7849 96.2058C56.6652 96.0974 56.4746 96.0151 56.2128 95.959L55.108 95.7067C54.6182 95.5982 54.2237 95.4188 53.9246 95.1683C53.6292 94.9177 53.4796 94.5644 53.4759 94.1083C53.4722 93.7643 53.5582 93.4577 53.7339 93.1885C53.9096 92.9193 54.1713 92.708 54.5191 92.5547C54.8668 92.3977 55.2968 92.3192 55.809 92.3192C56.4858 92.3192 57.0279 92.4706 57.4355 92.7734C57.843 93.0726 58.0524 93.5007 58.0636 94.0578H56.9027C56.8615 93.8073 56.7438 93.6128 56.5493 93.4745C56.3549 93.3324 56.1025 93.2614 55.7922 93.2614C55.4706 93.2614 55.207 93.3231 55.0014 93.4465C54.7958 93.5698 54.6929 93.7587 54.6929 94.0129C54.6929 94.1886 54.7715 94.327 54.9285 94.4279C55.0855 94.5289 55.3211 94.6149 55.6352 94.6859L56.6783 94.9383C56.9774 95.0131 57.2223 95.114 57.413 95.2412C57.6037 95.3683 57.7533 95.5085 57.8617 95.6618C57.9701 95.8114 58.0449 95.9665 58.086 96.1273C58.1309 96.2843 58.1533 96.4302 58.1533 96.5648C58.1533 96.9387 58.0561 97.2583 57.8617 97.5238C57.671 97.7855 57.3999 97.9874 57.0485 98.1295C56.697 98.2716 56.282 98.3426 55.8034 98.3426ZM64.8056 98.2305H63.4203L61.7378 95.544L60.7955 96.5311V98.2305H59.4383V89.8963H60.7955V95.0617L63.2016 92.4313H64.699L62.6015 94.6971L64.8056 98.2305ZM67.276 92.4313V98.2305H65.9636V92.4313H67.276ZM67.2929 90.1263V91.4162H65.9412V90.1263H67.2929ZM70.6506 98.3146C70.2767 98.3146 69.9776 98.2679 69.7532 98.1744C69.5289 98.0809 69.3606 97.9557 69.2485 97.7986C69.1363 97.6416 69.0634 97.4658 69.0297 97.2714C68.9961 97.0733 68.9792 96.8714 68.9792 96.6657V89.8963H70.3141V96.5087C70.3141 96.7592 70.3645 96.9536 70.4655 97.092C70.5702 97.2303 70.7384 97.3107 70.9702 97.3331L71.2619 97.3443V98.2024C71.1609 98.2323 71.0581 98.2585 70.9534 98.2809C70.8487 98.3034 70.7478 98.3146 70.6506 98.3146ZM73.9915 98.3146C73.6176 98.3146 73.3185 98.2679 73.0942 98.1744C72.8698 98.0809 72.7016 97.9557 72.5894 97.7986C72.4773 97.6416 72.4043 97.4658 72.3707 97.2714C72.337 97.0733 72.3202 96.8714 72.3202 96.6657V89.8963H73.655V96.5087C73.655 96.7592 73.7055 96.9536 73.8065 97.092C73.9112 97.2303 74.0794 97.3107 74.3112 97.3331L74.6029 97.3443V98.2024C74.5019 98.2323 74.3991 98.2585 74.2944 98.2809C74.1897 98.3034 74.0888 98.3146 73.9915 98.3146ZM77.2004 92.4313V98.2305H75.888V92.4313H77.2004ZM77.2172 90.1263V91.4162H75.8656V90.1263H77.2172ZM78.9036 98.2305V92.4313H80.2384V93.2614C80.3281 93.1118 80.4496 92.9679 80.6029 92.8295C80.76 92.6912 80.9525 92.579 81.1806 92.493C81.4087 92.407 81.676 92.364 81.9826 92.364C82.3416 92.364 82.6743 92.4351 82.9809 92.5771C83.2913 92.7192 83.5399 92.9417 83.7269 93.2446C83.9175 93.5474 84.0129 93.9381 84.0129 94.4167V98.2305H82.6444V94.5794C82.6444 94.198 82.5397 93.9157 82.3303 93.7325C82.121 93.5455 81.8574 93.4521 81.5396 93.4521C81.3227 93.4521 81.1171 93.4895 80.9226 93.5642C80.7282 93.6353 80.5693 93.7456 80.4459 93.8951C80.3263 94.041 80.2664 94.2242 80.2664 94.4448V98.2305H78.9036ZM88.0503 100.149C87.0744 100.149 86.3247 100.018 85.8013 99.756C85.2778 99.4942 85.0161 99.1353 85.0161 98.6791C85.0161 98.4735 85.0666 98.3015 85.1675 98.1632C85.2685 98.0248 85.3881 97.9108 85.5265 97.8211C85.6648 97.7313 85.7919 97.6621 85.9078 97.6135C86.0238 97.5649 86.0985 97.5294 86.1322 97.507C86.0686 97.4696 85.9845 97.421 85.8798 97.3612C85.7751 97.3013 85.6798 97.2191 85.5938 97.1144C85.5115 97.0097 85.4704 96.8732 85.4704 96.705C85.4704 96.5105 85.562 96.3311 85.7452 96.1666C85.9321 96.002 86.2107 95.8843 86.5809 95.8132C86.2182 95.6375 85.9396 95.4001 85.7452 95.101C85.5508 94.8018 85.4536 94.4915 85.4536 94.1699C85.4536 93.7886 85.5639 93.4614 85.7845 93.1885C86.0088 92.9155 86.3191 92.7061 86.7155 92.5603C87.1155 92.4145 87.5773 92.3416 88.1008 92.3416C88.4896 92.3416 88.8112 92.3846 89.0654 92.4706C89.3197 92.5566 89.5571 92.6725 89.7777 92.8183C89.8525 92.7884 89.9571 92.7473 90.0918 92.6949C90.2301 92.6388 90.3797 92.579 90.5404 92.5155C90.7012 92.4482 90.8545 92.3846 91.0003 92.3248C91.1499 92.2612 91.277 92.2089 91.3817 92.1677L91.3705 93.295L90.3666 93.4745C90.4152 93.5829 90.4526 93.7007 90.4787 93.8278C90.5086 93.955 90.5236 94.0671 90.5236 94.1643C90.5236 94.5008 90.4283 94.813 90.2376 95.101C90.0506 95.3851 89.7683 95.6132 89.3907 95.7852C89.0168 95.9572 88.5494 96.0432 87.9886 96.0432C87.9325 96.0432 87.8558 96.0413 87.7586 96.0376C87.6614 96.0338 87.5829 96.0301 87.5231 96.0263C87.2202 96.0376 87.0127 96.0731 86.9005 96.1329C86.7884 96.1927 86.7323 96.2582 86.7323 96.3292C86.7323 96.4302 86.8164 96.4975 86.9847 96.5311C87.1529 96.5648 87.4221 96.5947 87.7923 96.6208C87.9231 96.6283 88.0951 96.6377 88.3083 96.6489C88.5214 96.6601 88.7588 96.6751 89.0205 96.6938C89.6823 96.7349 90.1834 96.9013 90.5236 97.1929C90.8639 97.4808 91.034 97.8547 91.034 98.3146C91.034 98.8493 90.7872 99.2886 90.2937 99.6326C89.8001 99.9766 89.0523 100.149 88.0503 100.149ZM88.2802 99.3466C88.77 99.3466 89.1327 99.2793 89.3683 99.1446C89.6038 99.01 89.7216 98.8119 89.7216 98.5502C89.7216 98.3482 89.6412 98.1837 89.4804 98.0566C89.3197 97.9295 89.0804 97.8547 88.7625 97.8323L87.2987 97.7425C87.138 97.7313 86.9847 97.7612 86.8388 97.8323C86.6968 97.8996 86.5809 97.9949 86.4911 98.1183C86.4014 98.2379 86.3565 98.3707 86.3565 98.5165C86.3565 98.7894 86.5136 98.9951 86.8276 99.1334C87.1417 99.2755 87.6259 99.3466 88.2802 99.3466ZM88.0334 95.2412C88.3887 95.2412 88.6766 95.1514 88.8972 94.972C89.1178 94.7887 89.2281 94.5308 89.2281 94.198C89.2281 93.854 89.1178 93.5867 88.8972 93.396C88.6766 93.2016 88.3887 93.1043 88.0334 93.1043C87.6708 93.1043 87.3773 93.2016 87.1529 93.396C86.9323 93.5904 86.822 93.8577 86.822 94.198C86.822 94.5195 86.9286 94.7738 87.1417 94.9607C87.3548 95.1477 87.6521 95.2412 88.0334 95.2412ZM94.9512 98.2305V92.4313H96.258V93.6876C96.3515 93.3997 96.4842 93.1548 96.6562 92.9529C96.8319 92.7473 97.0376 92.5902 97.2731 92.4818C97.5087 92.3734 97.7648 92.3192 98.0415 92.3192C98.1088 92.3192 98.1742 92.3229 98.2378 92.3304C98.3013 92.3379 98.3481 92.3509 98.378 92.3696V93.6764C98.3369 93.6577 98.2826 93.6446 98.2153 93.6371C98.1518 93.6297 98.0957 93.6259 98.0471 93.6259C97.7667 93.6035 97.518 93.6147 97.3012 93.6596C97.088 93.7044 96.9067 93.7811 96.7571 93.8895C96.6113 93.9942 96.501 94.1288 96.4262 94.2933C96.3515 94.4541 96.3141 94.6429 96.3141 94.8598V98.2305H94.9512ZM100.426 95.645C100.422 95.974 100.475 96.2656 100.583 96.5199C100.691 96.7741 100.852 96.9742 101.065 97.12C101.278 97.2621 101.542 97.3331 101.856 97.3331C102.178 97.3331 102.456 97.2621 102.692 97.12C102.931 96.9742 103.09 96.7536 103.168 96.4582H104.419C104.352 96.862 104.191 97.2041 103.937 97.4845C103.683 97.765 103.374 97.9781 103.011 98.1239C102.652 98.2697 102.279 98.3426 101.89 98.3426C101.329 98.3426 100.835 98.2249 100.409 97.9893C99.9866 97.75 99.6557 97.4098 99.4164 96.9686C99.1809 96.5274 99.0631 96.002 99.0631 95.3926C99.0631 94.7981 99.1715 94.2709 99.3884 93.811C99.6052 93.3474 99.9174 92.9828 100.325 92.7174C100.736 92.4519 101.23 92.3192 101.806 92.3192C102.378 92.3192 102.858 92.4407 103.247 92.6837C103.64 92.9267 103.935 93.267 104.133 93.7044C104.335 94.1382 104.436 94.6467 104.436 95.2299V95.645H100.426ZM100.426 94.7981H103.146C103.146 94.5177 103.097 94.2653 103 94.041C102.903 93.8129 102.753 93.6334 102.552 93.5025C102.353 93.3679 102.103 93.3006 101.8 93.3006C101.501 93.3006 101.249 93.3735 101.043 93.5194C100.837 93.6652 100.682 93.854 100.577 94.0858C100.473 94.3139 100.422 94.5513 100.426 94.7981ZM107.868 98.3426C107.464 98.3426 107.081 98.2791 106.718 98.152C106.359 98.0211 106.056 97.8173 105.81 97.5406C105.567 97.2639 105.413 96.9069 105.35 96.4694H106.55C106.602 96.6825 106.694 96.8564 106.825 96.991C106.959 97.1256 107.118 97.2247 107.301 97.2882C107.485 97.3481 107.672 97.378 107.862 97.378C108.21 97.378 108.49 97.3182 108.704 97.1985C108.92 97.0789 109.029 96.8938 109.029 96.6433C109.029 96.4601 108.969 96.3142 108.849 96.2058C108.73 96.0974 108.539 96.0151 108.277 95.959L107.172 95.7067C106.683 95.5982 106.288 95.4188 105.989 95.1683C105.694 94.9177 105.544 94.5644 105.54 94.1083C105.537 93.7643 105.623 93.4577 105.798 93.1885C105.974 92.9193 106.236 92.708 106.584 92.5547C106.931 92.3977 107.361 92.3192 107.873 92.3192C108.55 92.3192 109.092 92.4706 109.5 92.7734C109.907 93.0726 110.117 93.5007 110.128 94.0578H108.967C108.926 93.8073 108.808 93.6128 108.614 93.4745C108.419 93.3324 108.167 93.2614 107.857 93.2614C107.535 93.2614 107.271 93.3231 107.066 93.4465C106.86 93.5698 106.757 93.7587 106.757 94.0129C106.757 94.1886 106.836 94.327 106.993 94.4279C107.15 94.5289 107.386 94.6149 107.7 94.6859L108.743 94.9383C109.042 95.0131 109.287 95.114 109.477 95.2412C109.668 95.3683 109.818 95.5085 109.926 95.6618C110.035 95.8114 110.109 95.9665 110.15 96.1273C110.195 96.2843 110.218 96.4302 110.218 96.5648C110.218 96.9387 110.121 97.2583 109.926 97.5238C109.735 97.7855 109.464 97.9874 109.113 98.1295C108.761 98.2716 108.346 98.3426 107.868 98.3426ZM113.909 98.3426C113.355 98.3426 112.873 98.2249 112.462 97.9893C112.05 97.75 111.731 97.4079 111.503 96.963C111.278 96.518 111.166 95.9833 111.166 95.3589C111.166 94.7532 111.275 94.2223 111.492 93.7661C111.712 93.31 112.028 92.9548 112.439 92.7005C112.851 92.4463 113.342 92.3192 113.914 92.3192C114.468 92.3192 114.948 92.4407 115.356 92.6837C115.763 92.9267 116.077 93.2745 116.298 93.7269C116.522 94.1793 116.634 94.7233 116.634 95.3589C116.634 95.946 116.528 96.4638 116.315 96.9125C116.105 97.3574 115.797 97.707 115.389 97.9613C114.986 98.2155 114.492 98.3426 113.909 98.3426ZM113.914 97.3051C114.228 97.3051 114.486 97.2191 114.688 97.0471C114.894 96.8751 115.045 96.6395 115.143 96.3404C115.244 96.0413 115.294 95.7011 115.294 95.3197C115.294 94.9645 115.249 94.6373 115.159 94.3382C115.073 94.0391 114.928 93.7998 114.722 93.6203C114.52 93.4371 114.251 93.3455 113.914 93.3455C113.597 93.3455 113.333 93.4296 113.124 93.5979C112.918 93.7624 112.763 93.9942 112.658 94.2933C112.557 94.5887 112.507 94.9308 112.507 95.3197C112.507 95.6711 112.552 95.9983 112.641 96.3012C112.735 96.6003 112.884 96.8433 113.09 97.0303C113.296 97.2135 113.57 97.3051 113.914 97.3051ZM119.9 98.3426C119.615 98.3426 119.341 98.3015 119.075 98.2193C118.813 98.1333 118.578 98.0099 118.369 97.8491C118.159 97.6846 117.993 97.4827 117.869 97.2434C117.746 97.0041 117.684 96.7255 117.684 96.4077V92.4313H119.053V96.2507C119.053 96.5648 119.152 96.8227 119.35 97.0247C119.552 97.2266 119.855 97.3275 120.259 97.3275C120.625 97.3275 120.919 97.2322 121.139 97.0415C121.36 96.847 121.47 96.5685 121.47 96.2058V92.4313H122.827V98.2305H121.778L121.627 97.0976C121.556 97.4154 121.431 97.6659 121.251 97.8491C121.076 98.0286 120.868 98.1557 120.629 98.2305C120.393 98.3052 120.15 98.3426 119.9 98.3426ZM124.341 98.2305V92.4313H125.648V93.6876C125.741 93.3997 125.874 93.1548 126.046 92.9529C126.222 92.7473 126.427 92.5902 126.663 92.4818C126.898 92.3734 127.154 92.3192 127.431 92.3192C127.498 92.3192 127.564 92.3229 127.627 92.3304C127.691 92.3379 127.738 92.3509 127.768 92.3696V93.6764C127.726 93.6577 127.672 93.6446 127.605 93.6371C127.541 93.6297 127.485 93.6259 127.437 93.6259C127.156 93.6035 126.908 93.6147 126.691 93.6596C126.478 93.7044 126.296 93.7811 126.147 93.8895C126.001 93.9942 125.891 94.1288 125.816 94.2933C125.741 94.4541 125.704 94.6429 125.704 94.8598V98.2305H124.341ZM131.15 92.3192C131.603 92.3192 132.001 92.4089 132.345 92.5884C132.689 92.7678 132.964 93.0165 133.169 93.3343C133.379 93.6521 133.504 94.0129 133.545 94.4167H132.379C132.352 94.241 132.289 94.0746 132.188 93.9176C132.087 93.7568 131.951 93.6278 131.779 93.5306C131.607 93.4296 131.399 93.3792 131.156 93.3792C130.722 93.3792 130.369 93.5399 130.096 93.8615C129.827 94.183 129.692 94.6766 129.692 95.3421C129.692 95.9553 129.821 96.4432 130.079 96.8059C130.337 97.1686 130.705 97.3499 131.184 97.3499C131.423 97.3499 131.627 97.2976 131.795 97.1929C131.967 97.0845 132.102 96.9517 132.199 96.7947C132.3 96.6339 132.366 96.4732 132.395 96.3124H133.528C133.495 96.705 133.371 97.0546 133.158 97.3612C132.949 97.6678 132.672 97.9089 132.328 98.0846C131.988 98.2566 131.595 98.3426 131.15 98.3426C130.619 98.3426 130.146 98.2267 129.731 97.9949C129.32 97.7594 128.997 97.4191 128.761 96.9742C128.526 96.5255 128.408 95.9852 128.408 95.3533C128.408 94.7514 128.518 94.2242 128.739 93.7717C128.959 93.3156 129.275 92.9604 129.687 92.7061C130.098 92.4482 130.586 92.3192 131.15 92.3192ZM135.873 95.645C135.869 95.974 135.922 96.2656 136.03 96.5199C136.139 96.7741 136.299 96.9742 136.513 97.12C136.726 97.2621 136.989 97.3331 137.303 97.3331C137.625 97.3331 137.903 97.2621 138.139 97.12C138.378 96.9742 138.537 96.7536 138.616 96.4582H139.866C139.799 96.862 139.638 97.2041 139.384 97.4845C139.13 97.765 138.821 97.9781 138.459 98.1239C138.1 98.2697 137.726 98.3426 137.337 98.3426C136.776 98.3426 136.283 98.2249 135.856 97.9893C135.434 97.75 135.103 97.4098 134.864 96.9686C134.628 96.5274 134.51 96.002 134.51 95.3926C134.51 94.7981 134.619 94.2709 134.836 93.811C135.052 93.3474 135.365 92.9828 135.772 92.7174C136.183 92.4519 136.677 92.3192 137.253 92.3192C137.825 92.3192 138.305 92.4407 138.694 92.6837C139.087 92.9267 139.382 93.267 139.58 93.7044C139.782 94.1382 139.883 94.6467 139.883 95.2299V95.645H135.873ZM135.873 94.7981H138.593C138.593 94.5177 138.545 94.2653 138.447 94.041C138.35 93.8129 138.201 93.6334 137.999 93.5025C137.801 93.3679 137.55 93.3006 137.247 93.3006C136.948 93.3006 136.696 93.3735 136.49 93.5194C136.284 93.6652 136.129 93.854 136.025 94.0858C135.92 94.3139 135.869 94.5513 135.873 94.7981ZM143.315 98.3426C142.911 98.3426 142.528 98.2791 142.165 98.152C141.806 98.0211 141.504 97.8173 141.257 97.5406C141.014 97.2639 140.86 96.9069 140.797 96.4694H141.997C142.049 96.6825 142.141 96.8564 142.272 96.991C142.406 97.1256 142.565 97.2247 142.749 97.2882C142.932 97.3481 143.119 97.378 143.309 97.378C143.657 97.378 143.938 97.3182 144.151 97.1985C144.368 97.0789 144.476 96.8938 144.476 96.6433C144.476 96.4601 144.416 96.3142 144.297 96.2058C144.177 96.0974 143.986 96.0151 143.724 95.959L142.62 95.7067C142.13 95.5982 141.735 95.4188 141.436 95.1683C141.141 94.9177 140.991 94.5644 140.988 94.1083C140.984 93.7643 141.07 93.4577 141.246 93.1885C141.421 92.9193 141.683 92.708 142.031 92.5547C142.378 92.3977 142.808 92.3192 143.321 92.3192C143.997 92.3192 144.54 92.4706 144.947 92.7734C145.355 93.0726 145.564 93.5007 145.575 94.0578H144.414C144.373 93.8073 144.255 93.6128 144.061 93.4745C143.867 93.3324 143.614 93.2614 143.304 93.2614C142.982 93.2614 142.719 93.3231 142.513 93.4465C142.307 93.5698 142.205 93.7587 142.205 94.0129C142.205 94.1886 142.283 94.327 142.44 94.4279C142.597 94.5289 142.833 94.6149 143.147 94.6859L144.19 94.9383C144.489 95.0131 144.734 95.114 144.925 95.2412C145.115 95.3683 145.265 95.5085 145.373 95.6618C145.482 95.8114 145.557 95.9665 145.598 96.1273C145.643 96.2843 145.665 96.4302 145.665 96.5648C145.665 96.9387 145.568 97.2583 145.373 97.5238C145.183 97.7855 144.912 97.9874 144.56 98.1295C144.209 98.2716 143.794 98.3426 143.315 98.3426Z" fill="#22272B"/>
<circle cx="43.0648" cy="147.306" r="2.95157" fill="#E4E4E6"/>
<rect x="38.1475" y="131.562" width="40.3381" height="5.90314" rx="2.95157" fill="#E4E4E6"/>
<rect x="117.309" y="131.562" width="40.3381" height="5.90314" rx="2.95157" fill="#E4E4E6"/>
<path d="M220.11 93.5492C220.11 92.5167 220.947 91.6797 221.98 91.6797H234.443C235.476 91.6797 236.313 92.5167 236.313 93.5492C236.313 94.5817 235.476 95.4187 234.443 95.4187H221.98C220.947 95.4187 220.11 94.5817 220.11 93.5492Z" fill="#E4E4E6"/>
<rect x="51.9199" y="144.354" width="97.4017" height="5.90314" rx="2.95157" fill="#E4E4E6"/>
<rect x="86.3555" y="131.562" width="20.661" height="5.90314" rx="2.95157" fill="#E4E4E6"/>
<rect x="38.7706" y="169.575" width="196.919" height="42.375" fill="#FAFBFB" stroke="#ECECEC" stroke-width="1.24632"/>
<rect x="38.7706" y="220.673" width="196.919" height="42.375" fill="#FAFBFB" stroke="#ECECEC" stroke-width="1.24632"/>
<rect x="38.7706" y="273.019" width="196.919" height="42.375" fill="#FAFBFB" stroke="#ECECEC" stroke-width="1.24632"/>
<g clip-path="url(#clip1_2744_13677)">
<g clip-path="url(#clip2_2744_13677)">
<path d="M60.7888 182.868H54.9726C54.587 182.868 54.2171 183.022 53.9444 183.294C53.6717 183.567 53.5186 183.937 53.5186 184.322V195.955C53.5186 196.34 53.6717 196.71 53.9444 196.983C54.2171 197.256 54.587 197.409 54.9726 197.409H63.6969C64.0825 197.409 64.4523 197.256 64.725 196.983C64.9977 196.71 65.1509 196.34 65.1509 195.955V187.231L60.7888 182.868Z" stroke="#322642" stroke-width="1.49559" stroke-linecap="round" stroke-linejoin="round"/>
<path d="M60.7881 182.868V187.231H65.1502" stroke="#322642" stroke-width="1.49559" stroke-linecap="round" stroke-linejoin="round"/>
<path d="M62.242 190.866H56.4258" stroke="#322642" stroke-width="1.49559" stroke-linecap="round" stroke-linejoin="round"/>
<path d="M62.242 193.774H56.4258" stroke="#322642" stroke-width="1.49559" stroke-linecap="round" stroke-linejoin="round"/>
<path d="M57.8798 187.958H57.1528H56.4258" stroke="#322642" stroke-width="1.49559" stroke-linecap="round" stroke-linejoin="round"/>
</g>
</g>
<path d="M77.0365 194.43L78.9807 189.023H79.9641L81.9046 194.43H80.9923L80.51 193.072H78.4461L77.9525 194.43H77.0365ZM78.6555 192.265H80.2856L79.4743 189.909L78.6555 192.265ZM82.673 194.43V190.564H83.5442V191.401C83.6065 191.209 83.695 191.046 83.8096 190.911C83.9268 190.774 84.0639 190.67 84.2209 190.597C84.3779 190.525 84.5487 190.489 84.7331 190.489C84.778 190.489 84.8216 190.491 84.864 190.496C84.9064 190.501 84.9375 190.51 84.9575 190.522V191.394C84.9301 191.381 84.8939 191.372 84.8491 191.367C84.8067 191.362 84.7693 191.36 84.7369 191.36C84.5499 191.345 84.3842 191.353 84.2396 191.382C84.0975 191.412 83.9766 191.463 83.8769 191.536C83.7797 191.606 83.7062 191.695 83.6563 191.805C83.6065 191.912 83.5815 192.038 83.5815 192.183V194.43H82.673ZM87.9094 191.207H87.0457L87.0494 193.424C87.0494 193.539 87.0619 193.623 87.0868 193.678C87.1142 193.73 87.1566 193.765 87.214 193.783C87.2738 193.798 87.3535 193.805 87.4532 193.805H87.9281V194.381C87.8782 194.401 87.8022 194.418 87.7 194.433C87.6003 194.451 87.4657 194.46 87.2962 194.46C86.9896 194.46 86.7516 194.42 86.5821 194.34C86.4151 194.258 86.2992 194.142 86.2343 193.992C86.1695 193.843 86.1371 193.664 86.1371 193.458V191.207H85.509V190.564H86.1633L86.3914 189.416H87.0457V190.56H87.9094V191.207ZM89.7384 190.564V194.43H88.8635V190.564H89.7384ZM89.7496 189.027V189.887H88.8485V189.027H89.7496ZM92.4414 190.489C92.743 190.489 93.0085 190.549 93.2378 190.668C93.4671 190.788 93.6503 190.954 93.7874 191.166C93.927 191.377 94.0105 191.618 94.0379 191.887H93.2602C93.2428 191.77 93.2004 191.659 93.1331 191.554C93.0658 191.447 92.9748 191.361 92.8602 191.296C92.7455 191.229 92.6071 191.195 92.4451 191.195C92.156 191.195 91.9204 191.303 91.7385 191.517C91.559 191.731 91.4693 192.06 91.4693 192.504C91.4693 192.913 91.5553 193.238 91.7272 193.48C91.8992 193.722 92.1448 193.843 92.4638 193.843C92.6233 193.843 92.7592 193.808 92.8714 193.738C92.986 193.666 93.0758 193.577 93.1406 193.473C93.2079 193.365 93.2515 193.258 93.2714 193.151H94.0267C94.0043 193.413 93.922 193.646 93.7799 193.85C93.6403 194.055 93.4559 194.215 93.2266 194.332C92.9997 194.447 92.738 194.504 92.4414 194.504C92.0874 194.504 91.7721 194.427 91.4954 194.273C91.2212 194.116 91.0056 193.889 90.8486 193.592C90.6915 193.293 90.613 192.933 90.613 192.512C90.613 192.11 90.6866 191.759 90.8336 191.457C90.9807 191.153 91.1913 190.916 91.4655 190.747C91.7397 190.575 92.065 190.489 92.4414 190.489ZM95.99 194.486C95.7407 194.486 95.5413 194.455 95.3917 194.392C95.2422 194.33 95.13 194.246 95.0552 194.142C94.9804 194.037 94.9318 193.92 94.9094 193.79C94.887 193.658 94.8757 193.524 94.8757 193.387V188.874H95.7656V193.282C95.7656 193.449 95.7993 193.578 95.8666 193.671C95.9364 193.763 96.0485 193.816 96.2031 193.831L96.3975 193.839V194.411C96.3302 194.431 96.2617 194.448 96.1919 194.463C96.1221 194.478 96.0548 194.486 95.99 194.486ZM97.8756 192.706C97.8731 192.925 97.908 193.12 97.9803 193.289C98.0526 193.459 98.1598 193.592 98.3019 193.689C98.444 193.784 98.6197 193.831 98.8291 193.831C99.0434 193.831 99.2291 193.784 99.3862 193.689C99.5457 193.592 99.6516 193.445 99.704 193.248H100.538C100.493 193.517 100.386 193.745 100.216 193.932C100.047 194.119 99.8411 194.261 99.5993 194.359C99.36 194.456 99.1107 194.504 98.8515 194.504C98.4776 194.504 98.1486 194.426 97.8644 194.269C97.5827 194.109 97.3621 193.883 97.2026 193.588C97.0456 193.294 96.9671 192.944 96.9671 192.538C96.9671 192.141 97.0393 191.79 97.1839 191.483C97.3285 191.174 97.5366 190.931 97.8083 190.754C98.0825 190.577 98.4116 190.489 98.7954 190.489C99.1768 190.489 99.4971 190.57 99.7563 190.732C100.018 190.894 100.215 191.121 100.347 191.412C100.482 191.701 100.549 192.04 100.549 192.429V192.706H97.8756ZM97.8756 192.141H99.689C99.689 191.954 99.6566 191.786 99.5918 191.637C99.527 191.485 99.4273 191.365 99.2927 191.278C99.1606 191.188 98.9936 191.143 98.7917 191.143C98.5923 191.143 98.424 191.192 98.2869 191.289C98.1498 191.386 98.0464 191.512 97.9766 191.667C97.9068 191.819 97.8731 191.977 97.8756 192.141ZM103.721 192.527C103.564 192.527 103.422 192.489 103.295 192.414C103.17 192.337 103.07 192.234 102.992 192.104C102.917 191.974 102.88 191.832 102.88 191.678C102.88 191.523 102.917 191.382 102.992 191.255C103.07 191.128 103.17 191.027 103.295 190.952C103.422 190.875 103.564 190.837 103.721 190.837C103.876 190.837 104.017 190.875 104.144 190.952C104.273 191.027 104.376 191.128 104.45 191.255C104.528 191.382 104.566 191.523 104.566 191.678C104.566 191.832 104.528 191.974 104.45 192.104C104.376 192.234 104.273 192.337 104.144 192.414C104.017 192.489 103.876 192.527 103.721 192.527ZM111.365 194.43H110.415L109.484 192.235H108.228V194.43H107.319V189.023H109.514C109.928 189.023 110.268 189.088 110.535 189.218C110.804 189.345 111.003 189.525 111.133 189.76C111.262 189.992 111.327 190.263 111.327 190.575C111.327 190.864 111.28 191.107 111.185 191.304C111.09 191.498 110.967 191.658 110.815 191.782C110.665 191.905 110.505 192.004 110.333 192.082L111.365 194.43ZM109.308 191.513C109.652 191.513 109.92 191.434 110.112 191.274C110.307 191.114 110.404 190.893 110.404 190.608C110.404 190.329 110.314 190.114 110.135 189.962C109.955 189.81 109.718 189.734 109.424 189.734H108.228V191.513H109.308ZM113.217 190.564V194.43H112.342V190.564H113.217ZM113.228 189.027V189.887H112.327V189.027H113.228ZM115.77 194.504C115.501 194.504 115.245 194.462 115.003 194.377C114.764 194.29 114.562 194.154 114.398 193.97C114.236 193.785 114.134 193.547 114.091 193.256H114.891C114.926 193.398 114.987 193.514 115.074 193.603C115.164 193.693 115.27 193.759 115.392 193.802C115.514 193.841 115.639 193.861 115.766 193.861C115.998 193.861 116.185 193.821 116.327 193.742C116.472 193.662 116.544 193.539 116.544 193.372C116.544 193.249 116.504 193.152 116.424 193.08C116.344 193.008 116.217 192.953 116.043 192.915L115.306 192.747C114.98 192.675 114.717 192.555 114.517 192.388C114.32 192.221 114.221 191.986 114.218 191.682C114.216 191.452 114.273 191.248 114.39 191.068C114.507 190.889 114.682 190.748 114.914 190.646C115.146 190.541 115.432 190.489 115.774 190.489C116.225 190.489 116.586 190.59 116.858 190.792C117.13 190.991 117.269 191.276 117.277 191.648H116.503C116.475 191.481 116.397 191.351 116.267 191.259C116.138 191.164 115.969 191.117 115.762 191.117C115.548 191.117 115.372 191.158 115.235 191.24C115.098 191.323 115.03 191.448 115.03 191.618C115.03 191.735 115.082 191.827 115.187 191.895C115.291 191.962 115.448 192.019 115.658 192.067L116.353 192.235C116.553 192.285 116.716 192.352 116.843 192.437C116.97 192.522 117.07 192.615 117.142 192.717C117.214 192.817 117.264 192.92 117.292 193.028C117.322 193.132 117.337 193.229 117.337 193.319C117.337 193.568 117.272 193.782 117.142 193.959C117.015 194.133 116.834 194.268 116.6 194.362C116.366 194.457 116.089 194.504 115.77 194.504ZM121.771 194.43H120.848L119.726 192.639L119.098 193.297V194.43H118.193V188.874H119.098V192.317L120.702 190.564H121.7L120.302 192.074L121.771 194.43ZM124.269 194.43V189.023H125.57L126.987 193.155L128.419 189.023H129.713V194.43H128.789V190.19L127.364 194.43H126.605L125.192 190.216V194.43H124.269ZM131.966 194.504C131.719 194.504 131.498 194.46 131.301 194.37C131.106 194.278 130.953 194.147 130.841 193.977C130.731 193.805 130.676 193.597 130.676 193.353C130.676 192.927 130.83 192.605 131.136 192.388C131.445 192.171 131.937 192.058 132.613 192.048L133.189 192.033V191.771C133.189 191.567 133.128 191.407 133.006 191.293C132.886 191.176 132.699 191.118 132.445 191.121C132.258 191.123 132.086 191.168 131.929 191.255C131.774 191.34 131.672 191.483 131.622 191.685H130.848C130.863 191.421 130.939 191.2 131.076 191.023C131.216 190.844 131.407 190.711 131.648 190.623C131.89 190.534 132.169 190.489 132.486 190.489C132.855 190.489 133.155 190.537 133.387 190.635C133.619 190.732 133.79 190.873 133.899 191.057C134.009 191.239 134.064 191.46 134.064 191.719V194.43H133.297L133.226 193.734C133.087 194.026 132.91 194.228 132.695 194.34C132.483 194.45 132.24 194.504 131.966 194.504ZM132.262 193.888C132.374 193.888 132.485 193.868 132.594 193.828C132.704 193.785 132.804 193.729 132.893 193.659C132.983 193.587 133.054 193.507 133.107 193.42C133.161 193.333 133.189 193.242 133.189 193.147V192.538L132.714 192.545C132.48 192.548 132.275 192.573 132.101 192.62C131.926 192.667 131.789 192.743 131.689 192.848C131.592 192.95 131.544 193.087 131.544 193.259C131.544 193.456 131.612 193.611 131.749 193.723C131.886 193.833 132.057 193.888 132.262 193.888ZM135.128 194.43V190.564H136.018V191.117C136.078 191.017 136.159 190.921 136.261 190.829C136.366 190.737 136.494 190.662 136.646 190.605C136.798 190.547 136.976 190.519 137.181 190.519C137.42 190.519 137.642 190.566 137.846 190.661C138.053 190.756 138.219 190.904 138.344 191.106C138.471 191.308 138.534 191.568 138.534 191.887V194.43H137.622V191.996C137.622 191.741 137.552 191.553 137.413 191.431C137.273 191.306 137.097 191.244 136.885 191.244C136.741 191.244 136.604 191.269 136.474 191.319C136.345 191.366 136.239 191.44 136.156 191.539C136.077 191.637 136.037 191.759 136.037 191.906V194.43H135.128ZM140.583 194.504C140.337 194.504 140.115 194.46 139.918 194.37C139.723 194.278 139.57 194.147 139.458 193.977C139.348 193.805 139.293 193.597 139.293 193.353C139.293 192.927 139.447 192.605 139.753 192.388C140.062 192.171 140.555 192.058 141.23 192.048L141.806 192.033V191.771C141.806 191.567 141.745 191.407 141.623 191.293C141.503 191.176 141.316 191.118 141.062 191.121C140.875 191.123 140.703 191.168 140.546 191.255C140.391 191.34 140.289 191.483 140.239 191.685H139.465C139.48 191.421 139.556 191.2 139.693 191.023C139.833 190.844 140.024 190.711 140.266 190.623C140.507 190.534 140.786 190.489 141.103 190.489C141.472 190.489 141.772 190.537 142.004 190.635C142.236 190.732 142.407 190.873 142.516 191.057C142.626 191.239 142.681 191.46 142.681 191.719V194.43H141.914L141.843 193.734C141.704 194.026 141.527 194.228 141.312 194.34C141.101 194.45 140.858 194.504 140.583 194.504ZM140.879 193.888C140.991 193.888 141.102 193.868 141.211 193.828C141.321 193.785 141.421 193.729 141.511 193.659C141.6 193.587 141.671 193.507 141.724 193.42C141.779 193.333 141.806 193.242 141.806 193.147V192.538L141.331 192.545C141.097 192.548 140.892 192.573 140.718 192.62C140.543 192.667 140.406 192.743 140.307 192.848C140.209 192.95 140.161 193.087 140.161 193.259C140.161 193.456 140.229 193.611 140.366 193.723C140.504 193.833 140.674 193.888 140.879 193.888ZM145.461 195.708C144.811 195.708 144.311 195.621 143.962 195.447C143.613 195.272 143.439 195.033 143.439 194.729C143.439 194.592 143.472 194.477 143.54 194.385C143.607 194.293 143.687 194.217 143.779 194.157C143.871 194.097 143.956 194.051 144.033 194.018C144.11 193.986 144.16 193.962 144.183 193.947C144.14 193.922 144.084 193.89 144.014 193.85C143.945 193.81 143.881 193.755 143.824 193.686C143.769 193.616 143.742 193.525 143.742 193.413C143.742 193.283 143.803 193.163 143.925 193.054C144.049 192.944 144.235 192.866 144.482 192.818C144.24 192.701 144.054 192.543 143.925 192.343C143.795 192.144 143.73 191.937 143.73 191.723C143.73 191.468 143.804 191.25 143.951 191.068C144.1 190.886 144.307 190.747 144.572 190.65C144.838 190.552 145.146 190.504 145.495 190.504C145.754 190.504 145.969 190.532 146.138 190.59C146.308 190.647 146.466 190.724 146.613 190.822C146.663 190.802 146.733 190.774 146.822 190.739C146.915 190.702 147.014 190.662 147.122 190.62C147.229 190.575 147.331 190.532 147.428 190.493C147.528 190.45 147.613 190.415 147.682 190.388L147.675 191.139L147.006 191.259C147.038 191.331 147.063 191.41 147.08 191.495C147.1 191.579 147.11 191.654 147.11 191.719C147.11 191.943 147.047 192.151 146.92 192.343C146.795 192.533 146.607 192.685 146.355 192.799C146.106 192.914 145.794 192.971 145.42 192.971C145.383 192.971 145.332 192.97 145.267 192.968C145.202 192.965 145.15 192.963 145.11 192.96C144.908 192.968 144.77 192.991 144.695 193.031C144.62 193.071 144.583 193.115 144.583 193.162C144.583 193.229 144.639 193.274 144.751 193.297C144.863 193.319 145.043 193.339 145.289 193.357C145.377 193.362 145.491 193.368 145.633 193.375C145.776 193.383 145.934 193.393 146.108 193.405C146.549 193.433 146.884 193.544 147.11 193.738C147.337 193.93 147.451 194.179 147.451 194.486C147.451 194.842 147.286 195.135 146.957 195.364C146.628 195.594 146.129 195.708 145.461 195.708ZM145.615 195.174C145.941 195.174 146.183 195.129 146.34 195.039C146.497 194.949 146.576 194.817 146.576 194.643C146.576 194.508 146.522 194.399 146.415 194.314C146.308 194.229 146.148 194.179 145.936 194.164L144.96 194.104C144.853 194.097 144.751 194.117 144.654 194.164C144.559 194.209 144.482 194.273 144.422 194.355C144.362 194.435 144.332 194.523 144.332 194.62C144.332 194.802 144.437 194.939 144.646 195.032C144.856 195.126 145.179 195.174 145.615 195.174ZM145.45 192.437C145.687 192.437 145.879 192.377 146.026 192.257C146.173 192.135 146.247 191.963 146.247 191.741C146.247 191.512 146.173 191.334 146.026 191.207C145.879 191.077 145.687 191.012 145.45 191.012C145.208 191.012 145.013 191.077 144.863 191.207C144.716 191.336 144.643 191.515 144.643 191.741C144.643 191.956 144.714 192.125 144.856 192.25C144.998 192.374 145.196 192.437 145.45 192.437ZM149.016 192.706C149.014 192.925 149.049 193.12 149.121 193.289C149.193 193.459 149.3 193.592 149.443 193.689C149.585 193.784 149.76 193.831 149.97 193.831C150.184 193.831 150.37 193.784 150.527 193.689C150.686 193.592 150.792 193.445 150.845 193.248H151.678C151.634 193.517 151.526 193.745 151.357 193.932C151.187 194.119 150.982 194.261 150.74 194.359C150.501 194.456 150.251 194.504 149.992 194.504C149.618 194.504 149.289 194.426 149.005 194.269C148.723 194.109 148.503 193.883 148.343 193.588C148.186 193.294 148.108 192.944 148.108 192.538C148.108 192.141 148.18 191.79 148.325 191.483C148.469 191.174 148.677 190.931 148.949 190.754C149.223 190.577 149.552 190.489 149.936 190.489C150.317 190.489 150.638 190.57 150.897 190.732C151.159 190.894 151.356 191.121 151.488 191.412C151.622 191.701 151.69 192.04 151.69 192.429V192.706H149.016ZM149.016 192.141H150.83C150.83 191.954 150.797 191.786 150.732 191.637C150.668 191.485 150.568 191.365 150.433 191.278C150.301 191.188 150.134 191.143 149.932 191.143C149.733 191.143 149.565 191.192 149.428 191.289C149.29 191.386 149.187 191.512 149.117 191.667C149.047 191.819 149.014 191.977 149.016 192.141ZM152.538 194.43V190.564H153.424V191.117C153.536 190.947 153.688 190.8 153.88 190.676C154.074 190.551 154.321 190.489 154.62 190.489C154.757 190.489 154.896 190.512 155.035 190.56C155.177 190.607 155.308 190.677 155.428 190.769C155.55 190.861 155.647 190.976 155.72 191.113C155.842 190.931 156.004 190.782 156.206 190.665C156.41 190.547 156.639 190.489 156.894 190.489C157.033 190.489 157.177 190.511 157.324 190.556C157.473 190.601 157.61 190.676 157.735 190.78C157.859 190.885 157.96 191.028 158.038 191.21C158.115 191.39 158.154 191.615 158.154 191.887V194.43H157.245V191.996C157.245 191.804 157.211 191.653 157.144 191.543C157.077 191.434 156.99 191.356 156.882 191.311C156.778 191.264 156.666 191.24 156.546 191.24C156.439 191.24 156.327 191.262 156.209 191.304C156.095 191.346 155.996 191.416 155.914 191.513C155.834 191.611 155.794 191.741 155.794 191.906V194.43H154.886V191.85C154.886 191.715 154.851 191.603 154.781 191.513C154.711 191.424 154.623 191.356 154.516 191.311C154.411 191.264 154.304 191.24 154.194 191.24C154.082 191.24 153.967 191.264 153.85 191.311C153.735 191.359 153.639 191.431 153.562 191.528C153.485 191.625 153.446 191.751 153.446 191.906V194.43H152.538ZM159.846 192.706C159.844 192.925 159.879 193.12 159.951 193.289C160.023 193.459 160.13 193.592 160.272 193.689C160.414 193.784 160.59 193.831 160.8 193.831C161.014 193.831 161.2 193.784 161.357 193.689C161.516 193.592 161.622 193.445 161.675 193.248H162.508C162.463 193.517 162.356 193.745 162.187 193.932C162.017 194.119 161.812 194.261 161.57 194.359C161.331 194.456 161.081 194.504 160.822 194.504C160.448 194.504 160.119 194.426 159.835 194.269C159.553 194.109 159.333 193.883 159.173 193.588C159.016 193.294 158.938 192.944 158.938 192.538C158.938 192.141 159.01 191.79 159.154 191.483C159.299 191.174 159.507 190.931 159.779 190.754C160.053 190.577 160.382 190.489 160.766 190.489C161.147 190.489 161.468 190.57 161.727 190.732C161.989 190.894 162.185 191.121 162.318 191.412C162.452 191.701 162.52 192.04 162.52 192.429V192.706H159.846ZM159.846 192.141H161.66C161.66 191.954 161.627 191.786 161.562 191.637C161.498 191.485 161.398 191.365 161.263 191.278C161.131 191.188 160.964 191.143 160.762 191.143C160.563 191.143 160.395 191.192 160.257 191.289C160.12 191.386 160.017 191.512 159.947 191.667C159.877 191.819 159.844 191.977 159.846 192.141ZM163.368 194.43V190.564H164.257V191.117C164.317 191.017 164.398 190.921 164.5 190.829C164.605 190.737 164.734 190.662 164.886 190.605C165.038 190.547 165.216 190.519 165.42 190.519C165.66 190.519 165.881 190.566 166.086 190.661C166.293 190.756 166.458 190.904 166.583 191.106C166.71 191.308 166.774 191.568 166.774 191.887V194.43H165.861V191.996C165.861 191.741 165.792 191.553 165.652 191.431C165.512 191.306 165.337 191.244 165.125 191.244C164.98 191.244 164.843 191.269 164.714 191.319C164.584 191.366 164.478 191.44 164.396 191.539C164.316 191.637 164.276 191.759 164.276 191.906V194.43H163.368ZM169.751 191.207H168.887L168.891 193.424C168.891 193.539 168.903 193.623 168.928 193.678C168.955 193.73 168.998 193.765 169.055 193.783C169.115 193.798 169.195 193.805 169.294 193.805H169.769V194.381C169.719 194.401 169.643 194.418 169.541 194.433C169.441 194.451 169.307 194.46 169.137 194.46C168.831 194.46 168.593 194.42 168.423 194.34C168.256 194.258 168.14 194.142 168.075 193.992C168.011 193.843 167.978 193.664 167.978 193.458V191.207H167.35V190.564H168.004L168.232 189.416H168.887V190.56H169.751V191.207Z" fill="#22272B"/>
<path d="M81.7476 240.122L79.8594 245.528H78.805L76.9393 240.122H77.8179L79.3322 244.477L80.8689 240.122H81.7476ZM83.3559 241.662V245.528H82.4809V241.662H83.3559ZM83.3671 240.125V240.985H82.466V240.125H83.3671ZM85.8719 245.603C85.3609 245.603 84.9596 245.427 84.6679 245.076C84.3763 244.724 84.2305 244.224 84.2305 243.576C84.2305 243.173 84.2891 242.822 84.4062 242.526C84.5259 242.227 84.7004 241.996 84.9297 241.834C85.1615 241.669 85.4481 241.587 85.7896 241.587C85.9492 241.587 86.0937 241.607 86.2234 241.647C86.3555 241.684 86.4726 241.734 86.5748 241.797C86.677 241.859 86.763 241.927 86.8328 242.002C86.9051 242.077 86.9612 242.152 87.0011 242.227V239.972H87.9134V245.528H87.2404L87.1394 244.735C87.1095 244.828 87.0646 244.925 87.0048 245.027C86.9475 245.127 86.869 245.22 86.7693 245.307C86.672 245.395 86.5499 245.466 86.4028 245.521C86.2558 245.575 86.0788 245.603 85.8719 245.603ZM86.0588 244.934C86.3854 244.934 86.6234 244.828 86.773 244.616C86.925 244.401 87.0011 244.047 87.0011 243.554C86.9986 243.272 86.9637 243.035 86.8964 242.843C86.8316 242.652 86.7306 242.507 86.5935 242.41C86.4589 242.313 86.2844 242.264 86.0701 242.264C85.7959 242.264 85.5703 242.365 85.3933 242.567C85.2163 242.769 85.1278 243.098 85.1278 243.554C85.1278 244.008 85.2089 244.352 85.3709 244.586C85.5329 244.818 85.7622 244.934 86.0588 244.934ZM89.6601 243.804C89.6576 244.024 89.6925 244.218 89.7648 244.388C89.8371 244.557 89.9443 244.691 90.0864 244.788C90.2284 244.882 90.4042 244.93 90.6136 244.93C90.8279 244.93 91.0136 244.882 91.1707 244.788C91.3302 244.691 91.4361 244.543 91.4885 244.347H92.3223C92.2774 244.616 92.1702 244.844 92.0007 245.031C91.8312 245.218 91.6256 245.36 91.3838 245.457C91.1445 245.554 90.8952 245.603 90.636 245.603C90.2621 245.603 89.9331 245.524 89.6489 245.367C89.3672 245.208 89.1466 244.981 88.9871 244.687C88.8301 244.393 88.7515 244.042 88.7515 243.636C88.7515 243.24 88.8238 242.888 88.9684 242.582C89.113 242.273 89.3211 242.03 89.5928 241.853C89.867 241.676 90.196 241.587 90.5799 241.587C90.9613 241.587 91.2816 241.668 91.5408 241.83C91.8025 241.992 91.9995 242.219 92.1316 242.511C92.2662 242.8 92.3335 243.139 92.3335 243.528V243.804H89.6601ZM89.6601 243.24H91.4735C91.4735 243.053 91.4411 242.885 91.3763 242.735C91.3115 242.583 91.2118 242.463 91.0772 242.376C90.9451 242.286 90.7781 242.242 90.5762 242.242C90.3768 242.242 90.2085 242.29 90.0714 242.387C89.9343 242.485 89.8309 242.61 89.7611 242.765C89.6913 242.917 89.6576 243.075 89.6601 243.24ZM94.7855 245.603C94.4166 245.603 94.0951 245.524 93.8209 245.367C93.5467 245.208 93.3336 244.98 93.1815 244.683C93.032 244.386 92.9572 244.03 92.9572 243.614C92.9572 243.21 93.0295 242.856 93.1741 242.552C93.3211 242.248 93.5317 242.011 93.8059 241.841C94.0801 241.672 94.4079 241.587 94.7893 241.587C95.1582 241.587 95.4785 241.668 95.7502 241.83C96.0219 241.992 96.2313 242.224 96.3783 242.526C96.5279 242.827 96.6027 243.19 96.6027 243.614C96.6027 244.005 96.5316 244.35 96.3896 244.649C96.25 244.946 96.0443 245.179 95.7726 245.349C95.5034 245.518 95.1744 245.603 94.7855 245.603ZM94.7893 244.911C94.9987 244.911 95.1707 244.854 95.3053 244.739C95.4424 244.624 95.5433 244.467 95.6081 244.268C95.6754 244.069 95.7091 243.842 95.7091 243.588C95.7091 243.351 95.6792 243.133 95.6193 242.933C95.562 242.734 95.4648 242.574 95.3277 242.455C95.1931 242.333 95.0136 242.271 94.7893 242.271C94.5774 242.271 94.4017 242.328 94.2621 242.44C94.125 242.549 94.0216 242.704 93.9518 242.903C93.8845 243.1 93.8508 243.328 93.8508 243.588C93.8508 243.822 93.8807 244.04 93.9405 244.242C94.0029 244.441 94.1026 244.603 94.2397 244.728C94.3768 244.85 94.56 244.911 94.7893 244.911ZM99.7341 243.625C99.577 243.625 99.435 243.588 99.3078 243.513C99.1832 243.435 99.0822 243.332 99.005 243.202C98.9302 243.073 98.8928 242.931 98.8928 242.776C98.8928 242.622 98.9302 242.481 99.005 242.354C99.0822 242.227 99.1832 242.126 99.3078 242.051C99.435 241.974 99.577 241.935 99.7341 241.935C99.8886 241.935 100.029 241.974 100.157 242.051C100.286 242.126 100.388 242.227 100.463 242.354C100.54 242.481 100.579 242.622 100.579 242.776C100.579 242.931 100.54 243.073 100.463 243.202C100.388 243.332 100.286 243.435 100.157 243.513C100.029 243.588 99.8886 243.625 99.7341 243.625ZM103.332 245.528V240.122H105.25C105.639 240.122 105.987 240.189 106.293 240.323C106.602 240.456 106.845 240.651 107.022 240.91C107.199 241.17 107.288 241.489 107.288 241.868C107.288 242.224 107.207 242.529 107.045 242.784C106.885 243.038 106.662 243.232 106.375 243.367C106.089 243.502 105.753 243.569 105.37 243.569H104.255V245.528H103.332ZM104.248 242.84H105.347C105.664 242.84 105.922 242.745 106.121 242.556C106.323 242.366 106.424 242.119 106.424 241.815C106.424 241.506 106.319 241.267 106.11 241.097C105.901 240.925 105.638 240.839 105.321 240.839H104.248V242.84ZM108.013 245.528V241.662H108.884V242.5C108.947 242.308 109.035 242.144 109.15 242.01C109.267 241.873 109.404 241.768 109.561 241.696C109.718 241.623 109.889 241.587 110.073 241.587C110.118 241.587 110.162 241.59 110.204 241.595C110.247 241.6 110.278 241.608 110.298 241.621V242.492C110.27 242.48 110.234 242.471 110.189 242.466C110.147 242.461 110.11 242.458 110.077 242.458C109.89 242.443 109.724 242.451 109.58 242.481C109.438 242.511 109.317 242.562 109.217 242.634C109.12 242.704 109.046 242.794 108.997 242.903C108.947 243.011 108.922 243.136 108.922 243.281V245.528H108.013ZM112.553 245.603C112.184 245.603 111.862 245.524 111.588 245.367C111.314 245.208 111.101 244.98 110.949 244.683C110.799 244.386 110.725 244.03 110.725 243.614C110.725 243.21 110.797 242.856 110.941 242.552C111.089 242.248 111.299 242.011 111.573 241.841C111.848 241.672 112.175 241.587 112.557 241.587C112.926 241.587 113.246 241.668 113.518 241.83C113.789 241.992 113.999 242.224 114.146 242.526C114.295 242.827 114.37 243.19 114.37 243.614C114.37 244.005 114.299 244.35 114.157 244.649C114.017 244.946 113.812 245.179 113.54 245.349C113.271 245.518 112.942 245.603 112.553 245.603ZM112.557 244.911C112.766 244.911 112.938 244.854 113.073 244.739C113.21 244.624 113.311 244.467 113.376 244.268C113.443 244.069 113.476 243.842 113.476 243.588C113.476 243.351 113.447 243.133 113.387 242.933C113.329 242.734 113.232 242.574 113.095 242.455C112.961 242.333 112.781 242.271 112.557 242.271C112.345 242.271 112.169 242.328 112.03 242.44C111.892 242.549 111.789 242.704 111.719 242.903C111.652 243.1 111.618 243.328 111.618 243.588C111.618 243.822 111.648 244.04 111.708 244.242C111.77 244.441 111.87 244.603 112.007 244.728C112.144 244.85 112.327 244.911 112.557 244.911ZM116.781 241.587C117.083 241.587 117.348 241.647 117.578 241.767C117.807 241.886 117.99 242.052 118.127 242.264C118.267 242.476 118.35 242.716 118.378 242.986H117.6C117.583 242.868 117.54 242.757 117.473 242.653C117.406 242.546 117.315 242.46 117.2 242.395C117.085 242.328 116.947 242.294 116.785 242.294C116.496 242.294 116.26 242.401 116.078 242.615C115.899 242.83 115.809 243.159 115.809 243.603C115.809 244.011 115.895 244.337 116.067 244.578C116.239 244.82 116.485 244.941 116.804 244.941C116.963 244.941 117.099 244.906 117.211 244.836C117.326 244.764 117.416 244.676 117.48 244.571C117.548 244.464 117.591 244.357 117.611 244.249H118.367C118.344 244.511 118.262 244.744 118.12 244.949C117.98 245.153 117.796 245.314 117.566 245.431C117.34 245.546 117.078 245.603 116.781 245.603C116.427 245.603 116.112 245.526 115.835 245.371C115.561 245.214 115.345 244.987 115.188 244.691C115.031 244.391 114.953 244.031 114.953 243.61C114.953 243.209 115.026 242.857 115.173 242.556C115.321 242.251 115.531 242.015 115.805 241.845C116.08 241.673 116.405 241.587 116.781 241.587ZM120.585 245.603C120.396 245.603 120.213 245.575 120.036 245.521C119.861 245.463 119.704 245.381 119.565 245.274C119.425 245.164 119.314 245.03 119.232 244.87C119.149 244.71 119.108 244.525 119.108 244.313V241.662H120.021V244.208C120.021 244.418 120.087 244.59 120.219 244.724C120.353 244.859 120.555 244.926 120.825 244.926C121.069 244.926 121.265 244.863 121.412 244.735C121.559 244.606 121.632 244.42 121.632 244.178V241.662H122.537V245.528H121.838L121.737 244.773C121.69 244.985 121.606 245.152 121.486 245.274C121.369 245.393 121.231 245.478 121.071 245.528C120.914 245.578 120.752 245.603 120.585 245.603ZM123.546 245.528V241.662H124.417V242.5C124.48 242.308 124.568 242.144 124.683 242.01C124.8 241.873 124.937 241.768 125.094 241.696C125.251 241.623 125.422 241.587 125.606 241.587C125.651 241.587 125.695 241.59 125.737 241.595C125.779 241.6 125.811 241.608 125.831 241.621V242.492C125.803 242.48 125.767 242.471 125.722 242.466C125.68 242.461 125.642 242.458 125.61 242.458C125.423 242.443 125.257 242.451 125.113 242.481C124.971 242.511 124.85 242.562 124.75 242.634C124.653 242.704 124.579 242.794 124.529 242.903C124.48 243.011 124.455 243.136 124.455 243.281V245.528H123.546ZM127.196 243.804C127.193 244.024 127.228 244.218 127.301 244.388C127.373 244.557 127.48 244.691 127.622 244.788C127.764 244.882 127.94 244.93 128.149 244.93C128.364 244.93 128.549 244.882 128.706 244.788C128.866 244.691 128.972 244.543 129.024 244.347H129.858C129.813 244.616 129.706 244.844 129.536 245.031C129.367 245.218 129.161 245.36 128.92 245.457C128.68 245.554 128.431 245.603 128.172 245.603C127.798 245.603 127.469 245.524 127.185 245.367C126.903 245.208 126.682 244.981 126.523 244.687C126.366 244.393 126.287 244.042 126.287 243.636C126.287 243.24 126.36 242.888 126.504 242.582C126.649 242.273 126.857 242.03 127.129 241.853C127.403 241.676 127.732 241.587 128.116 241.587C128.497 241.587 128.817 241.668 129.077 241.83C129.338 241.992 129.535 242.219 129.667 242.511C129.802 242.8 129.869 243.139 129.869 243.528V243.804H127.196ZM127.196 243.24H129.009C129.009 243.053 128.977 242.885 128.912 242.735C128.847 242.583 128.748 242.463 128.613 242.376C128.481 242.286 128.314 242.242 128.112 242.242C127.913 242.242 127.744 242.29 127.607 242.387C127.47 242.485 127.367 242.61 127.297 242.765C127.227 242.917 127.193 243.075 127.196 243.24ZM130.717 245.528V241.662H131.603V242.215C131.716 242.046 131.868 241.899 132.06 241.774C132.254 241.65 132.501 241.587 132.8 241.587C132.937 241.587 133.075 241.611 133.215 241.658C133.357 241.706 133.488 241.775 133.608 241.868C133.73 241.96 133.827 242.075 133.899 242.212C134.021 242.03 134.183 241.88 134.385 241.763C134.59 241.646 134.819 241.587 135.073 241.587C135.213 241.587 135.356 241.61 135.503 241.655C135.653 241.699 135.79 241.774 135.914 241.879C136.039 241.984 136.14 242.127 136.217 242.309C136.295 242.488 136.333 242.714 136.333 242.986V245.528H135.425V243.094C135.425 242.902 135.391 242.751 135.324 242.642C135.256 242.532 135.169 242.455 135.062 242.41C134.957 242.362 134.845 242.339 134.725 242.339C134.618 242.339 134.506 242.36 134.389 242.402C134.274 242.445 134.176 242.514 134.094 242.612C134.014 242.709 133.974 242.84 133.974 243.004V245.528H133.065V242.948C133.065 242.814 133.03 242.701 132.961 242.612C132.891 242.522 132.802 242.455 132.695 242.41C132.591 242.362 132.483 242.339 132.374 242.339C132.261 242.339 132.147 242.362 132.03 242.41C131.915 242.457 131.819 242.529 131.742 242.627C131.664 242.724 131.626 242.85 131.626 243.004V245.528H130.717ZM138.026 243.804C138.023 244.024 138.058 244.218 138.13 244.388C138.203 244.557 138.31 244.691 138.452 244.788C138.594 244.882 138.77 244.93 138.979 244.93C139.194 244.93 139.379 244.882 139.536 244.788C139.696 244.691 139.802 244.543 139.854 244.347H140.688C140.643 244.616 140.536 244.844 140.366 245.031C140.197 245.218 139.991 245.36 139.749 245.457C139.51 245.554 139.261 245.603 139.002 245.603C138.628 245.603 138.299 245.524 138.015 245.367C137.733 245.208 137.512 244.981 137.353 244.687C137.196 244.393 137.117 244.042 137.117 243.636C137.117 243.24 137.189 242.888 137.334 242.582C137.479 242.273 137.687 242.03 137.958 241.853C138.233 241.676 138.562 241.587 138.946 241.587C139.327 241.587 139.647 241.668 139.906 241.83C140.168 241.992 140.365 242.219 140.497 242.511C140.632 242.8 140.699 243.139 140.699 243.528V243.804H138.026ZM138.026 243.24H139.839C139.839 243.053 139.807 242.885 139.742 242.735C139.677 242.583 139.577 242.463 139.443 242.376C139.311 242.286 139.144 242.242 138.942 242.242C138.742 242.242 138.574 242.29 138.437 242.387C138.3 242.485 138.196 242.61 138.127 242.765C138.057 242.917 138.023 243.075 138.026 243.24ZM141.547 245.528V241.662H142.437V242.215C142.497 242.116 142.578 242.02 142.68 241.927C142.785 241.835 142.913 241.76 143.065 241.703C143.217 241.646 143.395 241.617 143.6 241.617C143.839 241.617 144.061 241.664 144.265 241.759C144.472 241.854 144.638 242.002 144.763 242.204C144.89 242.406 144.953 242.667 144.953 242.986V245.528H144.041V243.094C144.041 242.84 143.971 242.652 143.832 242.529C143.692 242.405 143.516 242.342 143.304 242.342C143.16 242.342 143.023 242.367 142.893 242.417C142.764 242.465 142.658 242.538 142.575 242.638C142.496 242.735 142.456 242.857 142.456 243.004V245.528H141.547ZM147.93 242.305H147.066L147.07 244.522C147.07 244.637 147.083 244.722 147.108 244.777C147.135 244.829 147.177 244.864 147.235 244.881C147.294 244.896 147.374 244.904 147.474 244.904H147.949V245.479C147.899 245.499 147.823 245.517 147.721 245.532C147.621 245.549 147.486 245.558 147.317 245.558C147.01 245.558 146.772 245.518 146.603 245.438C146.436 245.356 146.32 245.24 146.255 245.091C146.19 244.941 146.158 244.763 146.158 244.556V242.305H145.53V241.662H146.184L146.412 240.514H147.066V241.658H147.93V242.305ZM150.209 245.528L152.154 240.122H153.137L155.077 245.528H154.165L153.683 244.171H151.619L151.125 245.528H150.209ZM151.828 243.363H153.458L152.647 241.008L151.828 243.363ZM155.846 245.528V241.662H156.736V242.215C156.796 242.116 156.877 242.02 156.979 241.927C157.083 241.835 157.212 241.76 157.364 241.703C157.516 241.646 157.694 241.617 157.898 241.617C158.138 241.617 158.36 241.664 158.564 241.759C158.771 241.854 158.937 242.002 159.061 242.204C159.188 242.406 159.252 242.667 159.252 242.986V245.528H158.34V243.094C158.34 242.84 158.27 242.652 158.13 242.529C157.991 242.405 157.815 242.342 157.603 242.342C157.459 242.342 157.321 242.367 157.192 242.417C157.062 242.465 156.956 242.538 156.874 242.638C156.794 242.735 156.754 242.857 156.754 243.004V245.528H155.846ZM161.301 245.603C161.054 245.603 160.832 245.558 160.635 245.468C160.441 245.376 160.288 245.245 160.176 245.076C160.066 244.904 160.011 244.696 160.011 244.451C160.011 244.025 160.164 243.703 160.471 243.487C160.78 243.27 161.272 243.156 161.948 243.146L162.524 243.131V242.87C162.524 242.665 162.463 242.506 162.34 242.391C162.221 242.274 162.034 242.217 161.78 242.219C161.593 242.222 161.421 242.266 161.264 242.354C161.109 242.438 161.007 242.582 160.957 242.784H160.183C160.198 242.519 160.274 242.299 160.411 242.122C160.551 241.942 160.741 241.809 160.983 241.722C161.225 241.632 161.504 241.587 161.821 241.587C162.19 241.587 162.49 241.636 162.722 241.733C162.954 241.83 163.124 241.971 163.234 242.156C163.344 242.337 163.399 242.558 163.399 242.817V245.528H162.632L162.561 244.833C162.421 245.124 162.244 245.326 162.03 245.438C161.818 245.548 161.575 245.603 161.301 245.603ZM161.596 244.986C161.709 244.986 161.819 244.966 161.929 244.926C162.039 244.884 162.139 244.828 162.228 244.758C162.318 244.686 162.389 244.606 162.441 244.519C162.496 244.431 162.524 244.34 162.524 244.246V243.636L162.049 243.644C161.815 243.646 161.61 243.671 161.436 243.718C161.261 243.766 161.124 243.842 161.024 243.946C160.927 244.049 160.879 244.186 160.879 244.358C160.879 244.555 160.947 244.709 161.084 244.821C161.221 244.931 161.392 244.986 161.596 244.986ZM165.577 245.584C165.328 245.584 165.128 245.553 164.979 245.491C164.829 245.428 164.717 245.345 164.642 245.24C164.568 245.135 164.519 245.018 164.497 244.889C164.474 244.757 164.463 244.622 164.463 244.485V239.972H165.353V244.38C165.353 244.547 165.386 244.677 165.454 244.769C165.524 244.861 165.636 244.915 165.79 244.93L165.985 244.937V245.509C165.917 245.529 165.849 245.547 165.779 245.562C165.709 245.577 165.642 245.584 165.577 245.584ZM167.133 246.762C166.886 246.762 166.713 246.742 166.613 246.702C166.516 246.665 166.467 246.646 166.467 246.646V246.063L166.856 246.074C167.013 246.081 167.14 246.073 167.238 246.048C167.337 246.023 167.415 245.988 167.469 245.943C167.524 245.901 167.564 245.855 167.589 245.805C167.616 245.757 167.638 245.716 167.653 245.681L167.754 245.397L166.247 241.662H167.155L168.18 244.395L169.204 241.662H170.094L168.501 245.67C168.382 245.962 168.252 246.186 168.112 246.343C167.975 246.503 167.825 246.612 167.66 246.672C167.498 246.732 167.322 246.762 167.133 246.762ZM173.029 242.305H172.166L172.169 244.522C172.169 244.637 172.182 244.722 172.207 244.777C172.234 244.829 172.277 244.864 172.334 244.881C172.394 244.896 172.474 244.904 172.573 244.904H173.048V245.479C172.998 245.499 172.922 245.517 172.82 245.532C172.72 245.549 172.586 245.558 172.416 245.558C172.11 245.558 171.872 245.518 171.702 245.438C171.535 245.356 171.419 245.24 171.354 245.091C171.29 244.941 171.257 244.763 171.257 244.556V242.305H170.629V241.662H171.283L171.511 240.514H172.166V241.658H173.029V242.305ZM174.858 241.662V245.528H173.983V241.662H174.858ZM174.87 240.125V240.985H173.969V240.125H174.87ZM177.561 241.587C177.863 241.587 178.128 241.647 178.358 241.767C178.587 241.886 178.77 242.052 178.907 242.264C179.047 242.476 179.131 242.716 179.158 242.986H178.38C178.363 242.868 178.32 242.757 178.253 242.653C178.186 242.546 178.095 242.46 177.98 242.395C177.865 242.328 177.727 242.294 177.565 242.294C177.276 242.294 177.04 242.401 176.858 242.615C176.679 242.83 176.589 243.159 176.589 243.603C176.589 244.011 176.675 244.337 176.847 244.578C177.019 244.82 177.265 244.941 177.584 244.941C177.743 244.941 177.879 244.906 177.991 244.836C178.106 244.764 178.196 244.676 178.261 244.571C178.328 244.464 178.372 244.357 178.391 244.249H179.147C179.124 244.511 179.042 244.744 178.9 244.949C178.76 245.153 178.576 245.314 178.347 245.431C178.12 245.546 177.858 245.603 177.561 245.603C177.207 245.603 176.892 245.526 176.615 245.371C176.341 245.214 176.126 244.987 175.969 244.691C175.812 244.391 175.733 244.031 175.733 243.61C175.733 243.209 175.807 242.857 175.954 242.556C176.101 242.251 176.311 242.015 176.586 241.845C176.86 241.673 177.185 241.587 177.561 241.587ZM181.436 245.603C181.166 245.603 180.911 245.56 180.669 245.476C180.43 245.388 180.228 245.253 180.063 245.068C179.901 244.884 179.799 244.646 179.757 244.354H180.557C180.592 244.496 180.653 244.612 180.74 244.702C180.83 244.791 180.936 244.858 181.058 244.9C181.18 244.94 181.305 244.96 181.432 244.96C181.664 244.96 181.851 244.92 181.993 244.84C182.137 244.76 182.21 244.637 182.21 244.47C182.21 244.348 182.17 244.251 182.09 244.178C182.01 244.106 181.883 244.051 181.709 244.014L180.972 243.846C180.645 243.773 180.382 243.654 180.183 243.487C179.986 243.32 179.886 243.084 179.884 242.78C179.881 242.551 179.939 242.346 180.056 242.167C180.173 241.987 180.348 241.846 180.579 241.744C180.811 241.64 181.098 241.587 181.439 241.587C181.891 241.587 182.252 241.688 182.524 241.89C182.795 242.089 182.935 242.375 182.942 242.746H182.168C182.141 242.579 182.063 242.45 181.933 242.357C181.803 242.263 181.635 242.215 181.428 242.215C181.214 242.215 181.038 242.256 180.901 242.339C180.764 242.421 180.695 242.547 180.695 242.716C180.695 242.834 180.748 242.926 180.852 242.993C180.957 243.06 181.114 243.118 181.323 243.165L182.019 243.333C182.218 243.383 182.382 243.45 182.509 243.535C182.636 243.62 182.736 243.713 182.808 243.816C182.88 243.915 182.93 244.019 182.957 244.126C182.987 244.231 183.002 244.328 183.002 244.418C183.002 244.667 182.937 244.88 182.808 245.057C182.681 245.231 182.5 245.366 182.266 245.461C182.031 245.555 181.755 245.603 181.436 245.603Z" fill="#22272B"/>
<path d="M77.4365 297.875V292.468H79.3546C79.7435 292.468 80.0912 292.535 80.3978 292.67C80.7069 292.802 80.9499 292.998 81.1269 293.257C81.3039 293.516 81.3924 293.835 81.3924 294.214C81.3924 294.571 81.3114 294.876 81.1493 295.13C80.9898 295.384 80.7667 295.579 80.4801 295.713C80.1934 295.848 79.8582 295.915 79.4743 295.915H78.3601V297.875H77.4365ZM78.3526 295.186H79.4519C79.7684 295.186 80.0264 295.091 80.2258 294.902C80.4277 294.713 80.5287 294.466 80.5287 294.162C80.5287 293.853 80.424 293.613 80.2146 293.444C80.0052 293.272 79.7422 293.186 79.4257 293.186H78.3526V295.186ZM83.5759 297.949C83.207 297.949 82.8855 297.871 82.6113 297.714C82.3371 297.554 82.124 297.326 81.9719 297.03C81.8224 296.733 81.7476 296.376 81.7476 295.96C81.7476 295.556 81.8199 295.202 81.9644 294.898C82.1115 294.594 82.3221 294.357 82.5963 294.188C82.8705 294.018 83.1983 293.934 83.5797 293.934C83.9486 293.934 84.2689 294.015 84.5406 294.177C84.8123 294.339 85.0217 294.571 85.1687 294.872C85.3183 295.174 85.3931 295.536 85.3931 295.96C85.3931 296.352 85.322 296.697 85.18 296.996C85.0404 297.292 84.8347 297.526 84.563 297.695C84.2938 297.865 83.9648 297.949 83.5759 297.949ZM83.5797 297.258C83.7891 297.258 83.9611 297.2 84.0957 297.086C84.2327 296.971 84.3337 296.814 84.3985 296.614C84.4658 296.415 84.4995 296.188 84.4995 295.934C84.4995 295.697 84.4696 295.479 84.4097 295.28C84.3524 295.08 84.2552 294.921 84.1181 294.801C83.9835 294.679 83.804 294.618 83.5797 294.618C83.3678 294.618 83.1921 294.674 83.0525 294.786C82.9154 294.896 82.8119 295.05 82.7421 295.25C82.6748 295.447 82.6412 295.675 82.6412 295.934C82.6412 296.168 82.6711 296.386 82.7309 296.588C82.7932 296.788 82.893 296.95 83.03 297.074C83.1671 297.197 83.3504 297.258 83.5797 297.258ZM87.6172 297.949C87.1062 297.949 86.7049 297.774 86.4133 297.422C86.1217 297.071 85.9758 296.571 85.9758 295.923C85.9758 295.519 86.0344 295.169 86.1516 294.872C86.2712 294.573 86.4457 294.342 86.675 294.18C86.9068 294.016 87.1935 293.934 87.535 293.934C87.6945 293.934 87.8391 293.954 87.9687 293.993C88.1008 294.031 88.218 294.081 88.3202 294.143C88.4224 294.205 88.5084 294.274 88.5782 294.349C88.6504 294.423 88.7065 294.498 88.7464 294.573V292.318H89.6587V297.875H88.9857L88.8847 297.082C88.8548 297.174 88.81 297.271 88.7501 297.373C88.6928 297.473 88.6143 297.567 88.5146 297.654C88.4174 297.741 88.2952 297.812 88.1482 297.867C88.0011 297.922 87.8241 297.949 87.6172 297.949ZM87.8042 297.28C88.1307 297.28 88.3688 297.174 88.5183 296.962C88.6704 296.748 88.7464 296.394 88.7464 295.9C88.7439 295.619 88.709 295.382 88.6417 295.19C88.5769 294.998 88.476 294.853 88.3389 294.756C88.2043 294.659 88.0298 294.61 87.8154 294.61C87.5412 294.61 87.3156 294.711 87.1387 294.913C86.9617 295.115 86.8732 295.444 86.8732 295.9C86.8732 296.354 86.9542 296.698 87.1162 296.932C87.2782 297.164 87.5076 297.28 87.8042 297.28ZM92.2953 293.934C92.5969 293.934 92.8624 293.993 93.0917 294.113C93.3211 294.233 93.5043 294.399 93.6414 294.61C93.781 294.822 93.8645 295.063 93.8919 295.332H93.1142C93.0967 295.215 93.0543 295.104 92.987 294.999C92.9197 294.892 92.8288 294.806 92.7141 294.741C92.5994 294.674 92.4611 294.64 92.2991 294.64C92.0099 294.64 91.7744 294.747 91.5924 294.962C91.4129 295.176 91.3232 295.505 91.3232 295.949C91.3232 296.358 91.4092 296.683 91.5812 296.925C91.7532 297.167 91.9987 297.287 92.3178 297.287C92.4773 297.287 92.6131 297.253 92.7253 297.183C92.84 297.111 92.9297 297.022 92.9945 296.917C93.0618 296.81 93.1054 296.703 93.1254 296.596H93.8807C93.8582 296.858 93.776 297.091 93.6339 297.295C93.4943 297.499 93.3098 297.66 93.0805 297.777C92.8537 297.892 92.592 297.949 92.2953 297.949C91.9414 297.949 91.6261 297.872 91.3494 297.717C91.0752 297.56 90.8596 297.334 90.7025 297.037C90.5455 296.738 90.467 296.378 90.467 295.956C90.467 295.555 90.5405 295.204 90.6876 294.902C90.8346 294.598 91.0453 294.361 91.3195 294.192C91.5937 294.02 91.9189 293.934 92.2953 293.934ZM95.7887 297.949C95.5419 297.949 95.3201 297.904 95.1232 297.815C94.9287 297.722 94.7754 297.592 94.6633 297.422C94.5536 297.25 94.4988 297.042 94.4988 296.798C94.4988 296.371 94.6521 296.05 94.9586 295.833C95.2677 295.616 95.76 295.503 96.4355 295.493L97.0113 295.478V295.216C97.0113 295.012 96.9503 294.852 96.8281 294.738C96.7085 294.62 96.5215 294.563 96.2673 294.566C96.0803 294.568 95.9083 294.613 95.7513 294.7C95.5968 294.785 95.4946 294.928 95.4447 295.13H94.6707C94.6857 294.866 94.7617 294.645 94.8988 294.468C95.0384 294.289 95.2291 294.155 95.4709 294.068C95.7127 293.979 95.9919 293.934 96.3084 293.934C96.6773 293.934 96.9777 293.982 97.2095 294.079C97.4413 294.177 97.6121 294.318 97.7217 294.502C97.8314 294.684 97.8863 294.905 97.8863 295.164V297.875H97.1198L97.0487 297.179C96.9091 297.471 96.7322 297.673 96.5178 297.785C96.3059 297.894 96.0629 297.949 95.7887 297.949ZM96.0841 297.332C96.1962 297.332 96.3072 297.312 96.4168 297.273C96.5265 297.23 96.6262 297.174 96.716 297.104C96.8057 297.032 96.8767 296.952 96.9291 296.865C96.9839 296.778 97.0113 296.687 97.0113 296.592V295.983L96.5365 295.99C96.3022 295.993 96.0978 296.017 95.9233 296.065C95.7488 296.112 95.6117 296.188 95.512 296.293C95.4148 296.395 95.3662 296.532 95.3662 296.704C95.3662 296.901 95.4347 297.056 95.5718 297.168C95.7089 297.278 95.8797 297.332 96.0841 297.332ZM100.354 297.949C100.085 297.949 99.8293 297.907 99.5875 297.822C99.3482 297.735 99.1463 297.599 98.9818 297.415C98.8198 297.23 98.7176 296.992 98.6752 296.7H99.4753C99.5102 296.843 99.5713 296.958 99.6585 297.048C99.7483 297.138 99.8542 297.204 99.9763 297.246C100.098 297.286 100.223 297.306 100.35 297.306C100.582 297.306 100.769 297.266 100.911 297.187C101.056 297.107 101.128 296.983 101.128 296.816C101.128 296.694 101.088 296.597 101.008 296.525C100.929 296.452 100.801 296.398 100.627 296.36L99.8904 296.192C99.5638 296.12 99.3008 296 99.1014 295.833C98.9045 295.666 98.8048 295.43 98.8023 295.126C98.7998 294.897 98.8571 294.693 98.9743 294.513C99.0915 294.334 99.2659 294.193 99.4978 294.091C99.7296 293.986 100.016 293.934 100.358 293.934C100.809 293.934 101.17 294.035 101.442 294.236C101.714 294.436 101.853 294.721 101.861 295.093H101.087C101.059 294.926 100.981 294.796 100.851 294.704C100.722 294.609 100.553 294.562 100.347 294.562C100.132 294.562 99.9564 294.603 99.8193 294.685C99.6822 294.767 99.6137 294.893 99.6137 295.063C99.6137 295.18 99.666 295.272 99.7707 295.339C99.8754 295.407 100.032 295.464 100.242 295.511L100.937 295.68C101.137 295.73 101.3 295.797 101.427 295.882C101.554 295.966 101.654 296.06 101.726 296.162C101.798 296.262 101.848 296.365 101.876 296.472C101.906 296.577 101.921 296.674 101.921 296.764C101.921 297.013 101.856 297.226 101.726 297.403C101.599 297.578 101.418 297.712 101.184 297.807C100.95 297.902 100.673 297.949 100.354 297.949ZM104.888 294.652H104.024L104.028 296.869C104.028 296.983 104.041 297.068 104.066 297.123C104.093 297.175 104.135 297.21 104.193 297.228C104.253 297.243 104.332 297.25 104.432 297.25H104.907V297.826C104.857 297.846 104.781 297.863 104.679 297.878C104.579 297.896 104.444 297.904 104.275 297.904C103.968 297.904 103.73 297.865 103.561 297.785C103.394 297.703 103.278 297.587 103.213 297.437C103.148 297.287 103.116 297.109 103.116 296.902V294.652H102.488V294.008H103.142L103.37 292.861H104.024V294.005H104.888V294.652ZM108.139 295.971C107.982 295.971 107.84 295.934 107.713 295.859C107.589 295.782 107.488 295.678 107.41 295.549C107.336 295.419 107.298 295.277 107.298 295.123C107.298 294.968 107.336 294.827 107.41 294.7C107.488 294.573 107.589 294.472 107.713 294.397C107.84 294.32 107.982 294.281 108.139 294.281C108.294 294.281 108.435 294.32 108.562 294.397C108.692 294.472 108.794 294.573 108.869 294.7C108.946 294.827 108.984 294.968 108.984 295.123C108.984 295.277 108.946 295.419 108.869 295.549C108.794 295.678 108.692 295.782 108.562 295.859C108.435 295.934 108.294 295.971 108.139 295.971ZM111.737 297.875V292.468H113.655C114.044 292.468 114.392 292.535 114.698 292.67C115.008 292.802 115.251 292.998 115.428 293.257C115.605 293.516 115.693 293.835 115.693 294.214C115.693 294.571 115.612 294.876 115.45 295.13C115.29 295.384 115.067 295.579 114.781 295.713C114.494 295.848 114.159 295.915 113.775 295.915H112.661V297.875H111.737ZM112.653 295.186H113.753C114.069 295.186 114.327 295.091 114.526 294.902C114.728 294.713 114.829 294.466 114.829 294.162C114.829 293.853 114.725 293.613 114.515 293.444C114.306 293.272 114.043 293.186 113.726 293.186H112.653V295.186ZM116.419 297.875V294.008H117.29V294.846C117.352 294.654 117.441 294.491 117.555 294.356C117.672 294.219 117.81 294.114 117.967 294.042C118.124 293.97 118.294 293.934 118.479 293.934C118.524 293.934 118.567 293.936 118.61 293.941C118.652 293.946 118.683 293.955 118.703 293.967V294.838C118.676 294.826 118.64 294.817 118.595 294.812C118.552 294.807 118.515 294.805 118.483 294.805C118.296 294.79 118.13 294.797 117.985 294.827C117.843 294.857 117.722 294.908 117.623 294.981C117.525 295.05 117.452 295.14 117.402 295.25C117.352 295.357 117.327 295.483 117.327 295.627V297.875H116.419ZM120.958 297.949C120.589 297.949 120.268 297.871 119.994 297.714C119.719 297.554 119.506 297.326 119.354 297.03C119.205 296.733 119.13 296.376 119.13 295.96C119.13 295.556 119.202 295.202 119.347 294.898C119.494 294.594 119.705 294.357 119.979 294.188C120.253 294.018 120.581 293.934 120.962 293.934C121.331 293.934 121.651 294.015 121.923 294.177C122.195 294.339 122.404 294.571 122.551 294.872C122.701 295.174 122.775 295.536 122.775 295.96C122.775 296.352 122.704 296.697 122.562 296.996C122.423 297.292 122.217 297.526 121.945 297.695C121.676 297.865 121.347 297.949 120.958 297.949ZM120.962 297.258C121.171 297.258 121.343 297.2 121.478 297.086C121.615 296.971 121.716 296.814 121.781 296.614C121.848 296.415 121.882 296.188 121.882 295.934C121.882 295.697 121.852 295.479 121.792 295.28C121.735 295.08 121.638 294.921 121.5 294.801C121.366 294.679 121.186 294.618 120.962 294.618C120.75 294.618 120.574 294.674 120.435 294.786C120.298 294.896 120.194 295.05 120.125 295.25C120.057 295.447 120.024 295.675 120.024 295.934C120.024 296.168 120.054 296.386 120.113 296.588C120.176 296.788 120.275 296.95 120.412 297.074C120.55 297.197 120.733 297.258 120.962 297.258ZM125.624 297.949C125.417 297.949 125.24 297.922 125.093 297.867C124.946 297.812 124.823 297.741 124.723 297.654C124.626 297.567 124.547 297.473 124.487 297.373C124.43 297.271 124.386 297.174 124.357 297.082L124.252 297.875H123.583V292.318H124.495V294.573C124.535 294.498 124.59 294.423 124.659 294.349C124.732 294.274 124.819 294.205 124.921 294.143C125.023 294.081 125.139 294.031 125.269 293.993C125.401 293.954 125.547 293.934 125.706 293.934C126.187 293.934 126.568 294.104 126.847 294.446C127.126 294.787 127.265 295.28 127.265 295.923C127.265 296.329 127.203 296.684 127.079 296.988C126.956 297.292 126.773 297.529 126.529 297.699C126.287 297.866 125.985 297.949 125.624 297.949ZM125.437 297.28C125.709 297.28 125.932 297.172 126.106 296.955C126.281 296.738 126.368 296.386 126.368 295.9C126.368 295.477 126.286 295.156 126.121 294.939C125.957 294.72 125.725 294.61 125.426 294.61C125.212 294.61 125.036 294.659 124.899 294.756C124.764 294.853 124.663 294.998 124.596 295.19C124.531 295.382 124.497 295.619 124.495 295.9C124.495 296.394 124.57 296.748 124.719 296.962C124.871 297.174 125.111 297.28 125.437 297.28ZM129.012 294.008V297.875H128.137V294.008H129.012ZM129.023 292.472V293.332H128.122V292.472H129.023ZM132.31 294.652H131.446L131.45 296.869C131.45 296.983 131.462 297.068 131.487 297.123C131.515 297.175 131.557 297.21 131.614 297.228C131.674 297.243 131.754 297.25 131.854 297.25H132.328V297.826C132.279 297.846 132.202 297.863 132.1 297.878C132.001 297.896 131.866 297.904 131.696 297.904C131.39 297.904 131.152 297.865 130.982 297.785C130.815 297.703 130.699 297.587 130.635 297.437C130.57 297.287 130.537 297.109 130.537 296.902V294.652H129.909V294.008H130.564L130.792 292.861H131.446V294.005H132.31V294.652ZM133.716 299.108C133.469 299.108 133.296 299.088 133.196 299.049C133.099 299.011 133.05 298.992 133.05 298.992V298.409L133.439 298.42C133.596 298.428 133.723 298.419 133.821 298.394C133.92 298.369 133.997 298.334 134.052 298.29C134.107 298.247 134.147 298.201 134.172 298.151C134.199 298.104 134.221 298.063 134.236 298.028L134.336 297.744L132.83 294.008H133.738L134.763 296.742L135.787 294.008H136.677L135.084 298.017C134.965 298.308 134.835 298.533 134.695 298.69C134.558 298.849 134.408 298.959 134.243 299.019C134.081 299.078 133.905 299.108 133.716 299.108ZM139.879 294.008V297.875H139.004V294.008H139.879ZM139.89 292.472V293.332H138.989V292.472H139.89ZM141.014 297.875V294.008H141.904V294.562C141.964 294.462 142.045 294.366 142.147 294.274C142.252 294.182 142.38 294.107 142.532 294.05C142.684 293.992 142.862 293.964 143.067 293.964C143.306 293.964 143.528 294.011 143.732 294.106C143.939 294.2 144.105 294.349 144.23 294.551C144.357 294.752 144.42 295.013 144.42 295.332V297.875H143.508V295.44C143.508 295.186 143.438 294.998 143.299 294.876C143.159 294.751 142.983 294.689 142.771 294.689C142.627 294.689 142.49 294.714 142.36 294.764C142.23 294.811 142.125 294.885 142.042 294.984C141.963 295.082 141.923 295.204 141.923 295.351V297.875H141.014ZM147.184 297.875V292.468H149.103C149.491 292.468 149.839 292.535 150.146 292.67C150.455 292.802 150.698 292.998 150.875 293.257C151.052 293.516 151.14 293.835 151.14 294.214C151.14 294.571 151.059 294.876 150.897 295.13C150.738 295.384 150.515 295.579 150.228 295.713C149.941 295.848 149.606 295.915 149.222 295.915H148.108V297.875H147.184ZM148.1 295.186H149.2C149.516 295.186 149.774 295.091 149.974 294.902C150.176 294.713 150.277 294.466 150.277 294.162C150.277 293.853 150.172 293.613 149.962 293.444C149.753 293.272 149.49 293.186 149.174 293.186H148.1V295.186ZM151.866 297.875V294.008H152.737V294.846C152.799 294.654 152.888 294.491 153.002 294.356C153.12 294.219 153.257 294.114 153.414 294.042C153.571 293.97 153.742 293.934 153.926 293.934C153.971 293.934 154.015 293.936 154.057 293.941C154.099 293.946 154.13 293.955 154.15 293.967V294.838C154.123 294.826 154.087 294.817 154.042 294.812C154 294.807 153.962 294.805 153.93 294.805C153.743 294.79 153.577 294.797 153.432 294.827C153.29 294.857 153.17 294.908 153.07 294.981C152.973 295.05 152.899 295.14 152.849 295.25C152.799 295.357 152.774 295.483 152.774 295.627V297.875H151.866ZM156.406 297.949C156.037 297.949 155.715 297.871 155.441 297.714C155.167 297.554 154.954 297.326 154.802 297.03C154.652 296.733 154.577 296.376 154.577 295.96C154.577 295.556 154.649 295.202 154.794 294.898C154.941 294.594 155.152 294.357 155.426 294.188C155.7 294.018 156.028 293.934 156.409 293.934C156.778 293.934 157.098 294.015 157.37 294.177C157.642 294.339 157.851 294.571 157.998 294.872C158.148 295.174 158.223 295.536 158.223 295.96C158.223 296.352 158.152 296.697 158.01 296.996C157.87 297.292 157.664 297.526 157.393 297.695C157.123 297.865 156.794 297.949 156.406 297.949ZM156.409 297.258C156.619 297.258 156.791 297.2 156.925 297.086C157.062 296.971 157.163 296.814 157.228 296.614C157.295 296.415 157.329 296.188 157.329 295.934C157.329 295.697 157.299 295.479 157.239 295.28C157.182 295.08 157.085 294.921 156.948 294.801C156.813 294.679 156.634 294.618 156.409 294.618C156.197 294.618 156.022 294.674 155.882 294.786C155.745 294.896 155.642 295.05 155.572 295.25C155.504 295.447 155.471 295.675 155.471 295.934C155.471 296.168 155.501 296.386 155.561 296.588C155.623 296.788 155.723 296.95 155.86 297.074C155.997 297.197 156.18 297.258 156.409 297.258ZM160.634 293.934C160.935 293.934 161.201 293.993 161.43 294.113C161.66 294.233 161.843 294.399 161.98 294.61C162.119 294.822 162.203 295.063 162.23 295.332H161.453C161.435 295.215 161.393 295.104 161.326 294.999C161.258 294.892 161.167 294.806 161.053 294.741C160.938 294.674 160.8 294.64 160.638 294.64C160.348 294.64 160.113 294.747 159.931 294.962C159.751 295.176 159.662 295.505 159.662 295.949C159.662 296.358 159.748 296.683 159.92 296.925C160.092 297.167 160.337 297.287 160.656 297.287C160.816 297.287 160.952 297.253 161.064 297.183C161.178 297.111 161.268 297.022 161.333 296.917C161.4 296.81 161.444 296.703 161.464 296.596H162.219C162.197 296.858 162.114 297.091 161.972 297.295C161.833 297.499 161.648 297.66 161.419 297.777C161.192 297.892 160.93 297.949 160.634 297.949C160.28 297.949 159.965 297.872 159.688 297.717C159.414 297.56 159.198 297.334 159.041 297.037C158.884 296.738 158.805 296.378 158.805 295.956C158.805 295.555 158.879 295.204 159.026 294.902C159.173 294.598 159.384 294.361 159.658 294.192C159.932 294.02 160.257 293.934 160.634 293.934ZM164.438 297.949C164.248 297.949 164.065 297.922 163.888 297.867C163.714 297.81 163.557 297.727 163.417 297.62C163.278 297.511 163.167 297.376 163.084 297.216C163.002 297.057 162.961 296.871 162.961 296.659V294.008H163.873V296.555C163.873 296.764 163.939 296.936 164.071 297.071C164.206 297.205 164.408 297.273 164.677 297.273C164.921 297.273 165.117 297.209 165.264 297.082C165.411 296.952 165.485 296.767 165.485 296.525V294.008H166.39V297.875H165.69L165.589 297.119C165.542 297.331 165.459 297.498 165.339 297.62C165.222 297.74 165.083 297.825 164.924 297.875C164.767 297.924 164.605 297.949 164.438 297.949ZM167.399 297.875V294.008H168.27V294.846C168.332 294.654 168.421 294.491 168.535 294.356C168.652 294.219 168.79 294.114 168.947 294.042C169.104 293.97 169.274 293.934 169.459 293.934C169.504 293.934 169.547 293.936 169.59 293.941C169.632 293.946 169.663 293.955 169.683 293.967V294.838C169.656 294.826 169.62 294.817 169.575 294.812C169.532 294.807 169.495 294.805 169.463 294.805C169.276 294.79 169.11 294.797 168.965 294.827C168.823 294.857 168.702 294.908 168.603 294.981C168.505 295.05 168.432 295.14 168.382 295.25C168.332 295.357 168.307 295.483 168.307 295.627V297.875H167.399ZM171.048 296.151C171.046 296.37 171.081 296.565 171.153 296.734C171.225 296.904 171.333 297.037 171.475 297.134C171.617 297.229 171.793 297.276 172.002 297.276C172.216 297.276 172.402 297.229 172.559 297.134C172.719 297.037 172.824 296.89 172.877 296.693H173.711C173.666 296.962 173.559 297.19 173.389 297.377C173.22 297.564 173.014 297.706 172.772 297.803C172.533 297.901 172.284 297.949 172.024 297.949C171.65 297.949 171.321 297.871 171.037 297.714C170.756 297.554 170.535 297.327 170.375 297.033C170.218 296.739 170.14 296.389 170.14 295.983C170.14 295.586 170.212 295.235 170.357 294.928C170.501 294.619 170.709 294.376 170.981 294.199C171.255 294.022 171.584 293.934 171.968 293.934C172.35 293.934 172.67 294.015 172.929 294.177C173.191 294.339 173.388 294.566 173.52 294.857C173.655 295.146 173.722 295.485 173.722 295.874V296.151H171.048ZM171.048 295.586H172.862C172.862 295.399 172.829 295.231 172.765 295.082C172.7 294.929 172.6 294.81 172.466 294.723C172.333 294.633 172.166 294.588 171.965 294.588C171.765 294.588 171.597 294.637 171.46 294.734C171.323 294.831 171.219 294.957 171.149 295.111C171.08 295.263 171.046 295.422 171.048 295.586ZM174.57 297.875V294.008H175.456V294.562C175.568 294.392 175.72 294.245 175.912 294.121C176.107 293.996 176.353 293.934 176.652 293.934C176.79 293.934 176.928 293.957 177.067 294.005C177.21 294.052 177.34 294.122 177.46 294.214C177.582 294.306 177.679 294.421 177.752 294.558C177.874 294.376 178.036 294.227 178.238 294.109C178.442 293.992 178.672 293.934 178.926 293.934C179.065 293.934 179.209 293.956 179.356 294.001C179.505 294.046 179.642 294.121 179.767 294.225C179.892 294.33 179.993 294.473 180.07 294.655C180.147 294.835 180.186 295.06 180.186 295.332V297.875H179.277V295.44C179.277 295.249 179.244 295.098 179.176 294.988C179.109 294.878 179.022 294.801 178.915 294.756C178.81 294.709 178.698 294.685 178.578 294.685C178.471 294.685 178.359 294.706 178.242 294.749C178.127 294.791 178.028 294.861 177.946 294.958C177.866 295.055 177.827 295.186 177.827 295.351V297.875H176.918V295.295C176.918 295.16 176.883 295.048 176.813 294.958C176.743 294.868 176.655 294.801 176.548 294.756C176.443 294.709 176.336 294.685 176.226 294.685C176.114 294.685 175.999 294.709 175.882 294.756C175.768 294.804 175.672 294.876 175.594 294.973C175.517 295.07 175.478 295.196 175.478 295.351V297.875H174.57ZM181.878 296.151C181.876 296.37 181.911 296.565 181.983 296.734C182.055 296.904 182.162 297.037 182.305 297.134C182.447 297.229 182.622 297.276 182.832 297.276C183.046 297.276 183.232 297.229 183.389 297.134C183.548 297.037 183.654 296.89 183.707 296.693H184.54C184.496 296.962 184.388 297.19 184.219 297.377C184.049 297.564 183.844 297.706 183.602 297.803C183.363 297.901 183.113 297.949 182.854 297.949C182.48 297.949 182.151 297.871 181.867 297.714C181.585 297.554 181.365 297.327 181.205 297.033C181.048 296.739 180.97 296.389 180.97 295.983C180.97 295.586 181.042 295.235 181.187 294.928C181.331 294.619 181.539 294.376 181.811 294.199C182.085 294.022 182.414 293.934 182.798 293.934C183.179 293.934 183.5 294.015 183.759 294.177C184.021 294.339 184.218 294.566 184.35 294.857C184.484 295.146 184.552 295.485 184.552 295.874V296.151H181.878ZM181.878 295.586H183.692C183.692 295.399 183.659 295.231 183.595 295.082C183.53 294.929 183.43 294.81 183.295 294.723C183.163 294.633 182.996 294.588 182.794 294.588C182.595 294.588 182.427 294.637 182.29 294.734C182.153 294.831 182.049 294.957 181.979 295.111C181.909 295.263 181.876 295.422 181.878 295.586ZM185.4 297.875V294.008H186.29V294.562C186.349 294.462 186.43 294.366 186.533 294.274C186.637 294.182 186.766 294.107 186.918 294.05C187.07 293.992 187.248 293.964 187.452 293.964C187.692 293.964 187.914 294.011 188.118 294.106C188.325 294.2 188.491 294.349 188.615 294.551C188.742 294.752 188.806 295.013 188.806 295.332V297.875H187.894V295.44C187.894 295.186 187.824 294.998 187.684 294.876C187.545 294.751 187.369 294.689 187.157 294.689C187.012 294.689 186.875 294.714 186.746 294.764C186.616 294.811 186.51 294.885 186.428 294.984C186.348 295.082 186.308 295.204 186.308 295.351V297.875H185.4ZM191.783 294.652H190.919L190.923 296.869C190.923 296.983 190.935 297.068 190.96 297.123C190.988 297.175 191.03 297.21 191.087 297.228C191.147 297.243 191.227 297.25 191.327 297.25H191.801V297.826C191.752 297.846 191.676 297.863 191.573 297.878C191.474 297.896 191.339 297.904 191.169 297.904C190.863 297.904 190.625 297.865 190.455 297.785C190.288 297.703 190.172 297.587 190.108 297.437C190.043 297.287 190.01 297.109 190.01 296.902V294.652H189.382V294.008H190.037L190.265 292.861H190.919V294.005H191.783V294.652Z" fill="#22272B"/>
<path d="M52.2724 234.696C51.4777 234.696 50.8184 235.355 50.8184 236.15V246.328C50.8184 247.123 51.4777 247.782 52.2724 247.782H63.9048C64.6994 247.782 65.3588 247.123 65.3588 246.328V236.15C65.3588 235.355 64.6994 234.696 63.9048 234.696H52.2724ZM52.2724 236.15H63.9048V246.328H52.2724V236.15ZM55.9075 238.331V244.147L60.9967 241.239L55.9075 238.331Z" fill="#322642"/>
<g clip-path="url(#clip3_2744_13677)">
<path d="M58.0884 286.978C56.6428 286.978 55.4712 288.15 55.4712 289.595V294.83C55.4712 296.275 56.6428 297.447 58.0884 297.447C59.534 297.447 60.7057 296.275 60.7057 294.83V289.595C60.7057 288.15 59.534 286.978 58.0884 286.978ZM58.0884 288.723C58.5691 288.723 58.9609 289.115 58.9609 289.595V294.83C58.9609 295.311 58.5691 295.702 58.0884 295.702C57.6077 295.702 57.216 295.311 57.216 294.83V289.595C57.216 289.115 57.6077 288.723 58.0884 288.723ZM51.9814 294.83C51.9814 297.905 54.2579 300.442 57.216 300.867V303.554H58.9609V300.867C61.9189 300.442 64.1954 297.905 64.1954 294.83H62.4506C62.4506 297.239 60.4972 299.192 58.0884 299.192C55.6797 299.192 53.7263 297.239 53.7263 294.83H51.9814Z" fill="#322642"/>
</g>
<g filter="url(#filter2_d_2744_13677)">
<rect x="279.935" y="316.018" width="58.5772" height="58.5772" rx="29.2886" fill="white"/>
</g>
<path d="M316.129 354.186L309.222 349.252L302.315 354.186V338.399C302.315 337.876 302.523 337.374 302.893 337.004C303.263 336.633 303.765 336.426 304.289 336.426H314.156C314.679 336.426 315.181 336.633 315.551 337.004C315.921 337.374 316.129 337.876 316.129 338.399V354.186Z" fill="#441170"/>
<g filter="url(#filter3_d_2744_13677)">
<rect x="334.772" y="236.253" width="58.5772" height="58.5772" rx="29.2886" fill="white"/>
</g>
<path d="M358.96 254.948L375.162 265.541L358.96 276.135V254.948Z" fill="#441170"/>
<g filter="url(#filter4_d_2744_13677)">
<rect x="343.497" y="146.518" width="58.5772" height="58.5772" rx="29.2886" fill="white"/>
</g>
<path d="M372.786 165.034C372.007 165.034 371.26 165.343 370.709 165.894C370.158 166.445 369.849 167.193 369.849 167.972V175.806C369.849 176.585 370.158 177.332 370.709 177.883C371.26 178.434 372.007 178.743 372.786 178.743C373.566 178.743 374.313 178.434 374.864 177.883C375.415 177.332 375.724 176.585 375.724 175.806V167.972C375.724 167.193 375.415 166.445 374.864 165.894C374.313 165.343 373.566 165.034 372.786 165.034Z" fill="#441170"/>
<path d="M379.64 173.848V175.806C379.64 177.624 378.918 179.368 377.633 180.653C376.347 181.939 374.603 182.661 372.785 182.661C370.967 182.661 369.224 181.939 367.938 180.653C366.653 179.368 365.931 177.624 365.931 175.806V173.848" stroke="#441170" stroke-width="1.39639" stroke-linecap="round" stroke-linejoin="round"/>
<path d="M368.869 186.578H376.703" stroke="#441170" stroke-width="1.39639" stroke-linecap="round" stroke-linejoin="round"/>
<g filter="url(#filter5_d_2744_13677)">
<rect x="296.137" y="61.7676" width="58.5772" height="58.5772" rx="29.2886" fill="white"/>
</g>
<path d="M327.399 81.1895H319.506C318.982 81.1895 318.48 81.3974 318.11 81.7674C317.74 82.1375 317.532 82.6394 317.532 83.1628V98.9496C317.532 99.4729 317.74 99.9749 318.11 100.345C318.48 100.715 318.982 100.923 319.506 100.923H331.346C331.869 100.923 332.371 100.715 332.741 100.345C333.111 99.9749 333.319 99.4729 333.319 98.9496V87.1095L327.399 81.1895Z" fill="#441170"/>
<path d="M327.397 81.1895V87.1095H333.317" stroke="white" stroke-width="1.40697" stroke-linecap="round" stroke-linejoin="round"/>
<path d="M329.372 92.0432H321.479" stroke="white" stroke-width="1.40697" stroke-linecap="round" stroke-linejoin="round"/>
<path d="M329.372 95.989H321.479" stroke="white" stroke-width="1.40697" stroke-linecap="round" stroke-linejoin="round"/>
<path d="M323.452 88.0964H322.465H321.479" stroke="white" stroke-width="1.40697" stroke-linecap="round" stroke-linejoin="round"/>
<rect x="66.084" y="221.58" width="177" height="93" fill="url(#paint0_linear_2744_13677)"/>
</g>
<defs>
<filter id="filter0_d_2744_13677" x="5.60289" y="57.5198" width="263.253" height="301.89" filterUnits="userSpaceOnUse" color-interpolation-filters="sRGB">
<feFlood flood-opacity="0" result="BackgroundImageFix"/>
<feColorMatrix in="SourceAlpha" type="matrix" values="0 0 0 0 0 0 0 0 0 0 0 0 0 0 0 0 0 0 127 0" result="hardAlpha"/>
<feOffset dy="4.61642"/>
<feGaussianBlur stdDeviation="6.92463"/>
<feColorMatrix type="matrix" values="0 0 0 0 0 0 0 0 0 0 0 0 0 0 0 0 0 0 0.15 0"/>
<feBlend mode="normal" in2="BackgroundImageFix" result="effect1_dropShadow_2744_13677"/>
<feBlend mode="normal" in="SourceGraphic" in2="effect1_dropShadow_2744_13677" result="shape"/>
</filter>
<filter id="filter1_d_2744_13677" x="19.4521" y="66.7527" width="235.555" height="49.853" filterUnits="userSpaceOnUse" color-interpolation-filters="sRGB">
<feFlood flood-opacity="0" result="BackgroundImageFix"/>
<feColorMatrix in="SourceAlpha" type="matrix" values="0 0 0 0 0 0 0 0 0 0 0 0 0 0 0 0 0 0 127 0" result="hardAlpha"/>
<feOffset dy="1.24632"/>
<feColorMatrix type="matrix" values="0 0 0 0 0.952941 0 0 0 0 0.956863 0 0 0 0 0.956863 0 0 0 1 0"/>
<feBlend mode="normal" in2="BackgroundImageFix" result="effect1_dropShadow_2744_13677"/>
<feBlend mode="normal" in="SourceGraphic" in2="effect1_dropShadow_2744_13677" result="shape"/>
</filter>
<filter id="filter2_d_2744_13677" x="266.085" y="306.785" width="86.2757" height="86.2757" filterUnits="userSpaceOnUse" color-interpolation-filters="sRGB">
<feFlood flood-opacity="0" result="BackgroundImageFix"/>
<feColorMatrix in="SourceAlpha" type="matrix" values="0 0 0 0 0 0 0 0 0 0 0 0 0 0 0 0 0 0 127 0" result="hardAlpha"/>
<feOffset dy="4.61642"/>
<feGaussianBlur stdDeviation="6.92463"/>
<feColorMatrix type="matrix" values="0 0 0 0 0 0 0 0 0 0 0 0 0 0 0 0 0 0 0.15 0"/>
<feBlend mode="normal" in2="BackgroundImageFix" result="effect1_dropShadow_2744_13677"/>
<feBlend mode="normal" in="SourceGraphic" in2="effect1_dropShadow_2744_13677" result="shape"/>
</filter>
<filter id="filter3_d_2744_13677" x="320.923" y="227.02" width="86.2757" height="86.2757" filterUnits="userSpaceOnUse" color-interpolation-filters="sRGB">
<feFlood flood-opacity="0" result="BackgroundImageFix"/>
<feColorMatrix in="SourceAlpha" type="matrix" values="0 0 0 0 0 0 0 0 0 0 0 0 0 0 0 0 0 0 127 0" result="hardAlpha"/>
<feOffset dy="4.61642"/>
<feGaussianBlur stdDeviation="6.92463"/>
<feColorMatrix type="matrix" values="0 0 0 0 0 0 0 0 0 0 0 0 0 0 0 0 0 0 0.15 0"/>
<feBlend mode="normal" in2="BackgroundImageFix" result="effect1_dropShadow_2744_13677"/>
<feBlend mode="normal" in="SourceGraphic" in2="effect1_dropShadow_2744_13677" result="shape"/>
</filter>
<filter id="filter4_d_2744_13677" x="329.648" y="137.285" width="86.2757" height="86.2757" filterUnits="userSpaceOnUse" color-interpolation-filters="sRGB">
<feFlood flood-opacity="0" result="BackgroundImageFix"/>
<feColorMatrix in="SourceAlpha" type="matrix" values="0 0 0 0 0 0 0 0 0 0 0 0 0 0 0 0 0 0 127 0" result="hardAlpha"/>
<feOffset dy="4.61642"/>
<feGaussianBlur stdDeviation="6.92463"/>
<feColorMatrix type="matrix" values="0 0 0 0 0 0 0 0 0 0 0 0 0 0 0 0 0 0 0.15 0"/>
<feBlend mode="normal" in2="BackgroundImageFix" result="effect1_dropShadow_2744_13677"/>
<feBlend mode="normal" in="SourceGraphic" in2="effect1_dropShadow_2744_13677" result="shape"/>
</filter>
<filter id="filter5_d_2744_13677" x="282.287" y="52.5347" width="86.2757" height="86.2757" filterUnits="userSpaceOnUse" color-interpolation-filters="sRGB">
<feFlood flood-opacity="0" result="BackgroundImageFix"/>
<feColorMatrix in="SourceAlpha" type="matrix" values="0 0 0 0 0 0 0 0 0 0 0 0 0 0 0 0 0 0 127 0" result="hardAlpha"/>
<feOffset dy="4.61642"/>
<feGaussianBlur stdDeviation="6.92463"/>
<feColorMatrix type="matrix" values="0 0 0 0 0 0 0 0 0 0 0 0 0 0 0 0 0 0 0.15 0"/>
<feBlend mode="normal" in2="BackgroundImageFix" result="effect1_dropShadow_2744_13677"/>
<feBlend mode="normal" in="SourceGraphic" in2="effect1_dropShadow_2744_13677" result="shape"/>
</filter>
<linearGradient id="paint0_linear_2744_13677" x1="150.764" y1="314.58" x2="150.764" y2="225.776" gradientUnits="userSpaceOnUse">
<stop stop-color="white"/>
<stop offset="1" stop-color="white" stop-opacity="0"/>
</linearGradient>
<clipPath id="clip0_2744_13677">
<rect width="420" height="420" fill="white" transform="translate(0.0839844 0.580078)"/>
</clipPath>
<clipPath id="clip1_2744_13677">
<rect width="17.4485" height="17.4485" fill="white" transform="translate(50.6104 181.415)"/>
</clipPath>
<clipPath id="clip2_2744_13677">
<rect width="17.4485" height="17.4485" fill="white" transform="translate(50.6104 181.415)"/>
</clipPath>
<clipPath id="clip3_2744_13677">
<rect width="17.4485" height="17.4485" fill="white" transform="translate(49.3643 286.105)"/>
</clipPath>
</defs>
</svg>
