<svg width="420" height="420" viewBox="0 0 420 420" fill="none" xmlns="http://www.w3.org/2000/svg">
<rect width="420" height="420" fill="white"/>
<rect width="420" height="420" fill="white"/>
<circle cx="206.316" cy="209.5" r="169.5" fill="#FAFAFA"/>
<g filter="url(#filter0_d)">
<rect x="19.3682" y="66.1729" width="235.555" height="274.191" rx="5.9014" fill="white"/>
</g>
<g filter="url(#filter1_d)">
<path d="M19.3682 72.0743C19.3682 68.815 22.0103 66.1729 25.2696 66.1729H249.022C252.281 66.1729 254.923 68.815 254.923 72.0742V114.054L137.146 114.779L19.3682 114.054V72.0743Z" fill="#FAFAFA"/>
</g>
<path d="M42.4942 97.7626C41.4099 97.7626 40.5648 97.4597 39.9591 96.854C39.3534 96.2408 39.0506 95.3659 39.0506 94.2292V89.7986H40.5088V94.1731C40.5088 95.7136 41.1743 96.4838 42.5054 96.4838C43.829 96.4838 44.4908 95.7136 44.4908 94.1731V89.7986H45.9265V94.2292C45.9265 95.3659 45.6237 96.2408 45.018 96.854C44.4197 97.4597 43.5785 97.7626 42.4942 97.7626ZM51.1543 91.5933C51.7376 91.5933 52.2573 91.7204 52.7135 91.9746C53.1771 92.2289 53.5398 92.5878 53.8015 93.0515C54.0632 93.5151 54.1941 94.0498 54.1941 94.6555C54.1941 95.2612 54.0632 95.7996 53.8015 96.2707C53.5398 96.7343 53.1771 97.0933 52.7135 97.3475C52.2573 97.6018 51.7376 97.7289 51.1543 97.7289C50.3467 97.7289 49.7073 97.4597 49.2362 96.9213V99.8265H47.8341V91.6606H49.1689V92.4457C49.4007 92.1616 49.6849 91.9485 50.0214 91.8064C50.3654 91.6643 50.743 91.5933 51.1543 91.5933ZM50.9973 96.5287C51.5133 96.5287 51.9358 96.3567 52.2648 96.0127C52.6013 95.6687 52.7695 95.2163 52.7695 94.6555C52.7695 94.0946 52.6013 93.6422 52.2648 93.2982C51.9358 92.9542 51.5133 92.7823 50.9973 92.7823C50.6608 92.7823 50.3579 92.8608 50.0887 93.0178C49.8195 93.1674 49.6064 93.3842 49.4493 93.6684C49.2923 93.9525 49.2138 94.2816 49.2138 94.6555C49.2138 95.0294 49.2923 95.3584 49.4493 95.6426C49.6064 95.9267 49.8195 96.1473 50.0887 96.3044C50.3579 96.4539 50.6608 96.5287 50.9973 96.5287ZM57.3746 97.7289C56.8886 97.7289 56.4137 97.6653 55.9501 97.5382C55.4864 97.4111 55.1163 97.2503 54.8396 97.0559L55.378 95.9903C55.6472 96.1698 55.9688 96.3156 56.3427 96.4277C56.724 96.5324 57.0979 96.5848 57.4644 96.5848C58.3019 96.5848 58.7206 96.3642 58.7206 95.923C58.7206 95.7136 58.6122 95.5678 58.3954 95.4855C58.186 95.4033 57.8457 95.3248 57.3746 95.25C56.8811 95.1752 56.4773 95.0892 56.1632 94.992C55.8566 94.8948 55.5874 94.7265 55.3556 94.4872C55.1312 94.2404 55.0191 93.9002 55.0191 93.4665C55.0191 92.8982 55.2546 92.4457 55.7257 92.1092C56.2043 91.7653 56.8474 91.5933 57.655 91.5933C58.0663 91.5933 58.4776 91.6419 58.8889 91.7391C59.3002 91.8288 59.6367 91.9522 59.8984 92.1092L59.36 93.1748C58.8515 92.8757 58.2794 92.7262 57.6438 92.7262C57.2325 92.7262 56.9185 92.7897 56.7016 92.9169C56.4922 93.0365 56.3875 93.1973 56.3875 93.3992C56.3875 93.6235 56.4997 93.7843 56.724 93.8815C56.9559 93.9712 57.3111 94.0572 57.7896 94.1395C58.2682 94.2143 58.6608 94.3003 58.9674 94.3975C59.274 94.4947 59.5357 94.6592 59.7526 94.891C59.9769 95.1228 60.0891 95.4519 60.0891 95.8781C60.0891 96.439 59.8461 96.8876 59.36 97.2241C58.8739 97.5607 58.2121 97.7289 57.3746 97.7289ZM63.7419 95.0817L62.6987 96.0688V97.6504H61.2966V89.3274H62.6987V94.3526L65.6039 91.6606H67.2864L64.7851 94.1731L67.522 97.6504H65.817L63.7419 95.0817ZM68.3729 91.6606H69.775V97.6504H68.3729V91.6606ZM69.0796 90.6735C68.8253 90.6735 68.6122 90.595 68.4402 90.4379C68.2682 90.2734 68.1822 90.0715 68.1822 89.8322C68.1822 89.5929 68.2682 89.3947 68.4402 89.2377C68.6122 89.0732 68.8253 88.9909 69.0796 88.9909C69.3338 88.9909 69.5469 89.0695 69.7189 89.2265C69.8909 89.376 69.9769 89.5667 69.9769 89.7986C69.9769 90.0453 69.8909 90.2547 69.7189 90.4267C69.5544 90.5912 69.3413 90.6735 69.0796 90.6735ZM71.6153 89.3274H73.0174V97.6504H71.6153V89.3274ZM74.8577 89.3274H76.2598V97.6504H74.8577V89.3274ZM78.1001 91.6606H79.5022V97.6504H78.1001V91.6606ZM78.8067 90.6735C78.5525 90.6735 78.3393 90.595 78.1674 90.4379C77.9954 90.2734 77.9094 90.0715 77.9094 89.8322C77.9094 89.5929 77.9954 89.3947 78.1674 89.2377C78.3393 89.0732 78.5525 88.9909 78.8067 88.9909C79.061 88.9909 79.2741 89.0695 79.4461 89.2265C79.6181 89.376 79.7041 89.5667 79.7041 89.7986C79.7041 90.0453 79.6181 90.2547 79.4461 90.4267C79.2816 90.5912 79.0684 90.6735 78.8067 90.6735ZM84.7412 91.5933C85.4964 91.5933 86.1021 91.8139 86.5583 92.2551C87.0145 92.6963 87.2425 93.3506 87.2425 94.218V97.6504H85.8404V94.3975C85.8404 93.874 85.717 93.4814 85.4703 93.2197C85.2235 92.9505 84.872 92.8159 84.4159 92.8159C83.8999 92.8159 83.4923 92.9729 83.1932 93.287C82.8941 93.5936 82.7446 94.0385 82.7446 94.6218V97.6504H81.3424V91.6606H82.6773V92.4345C82.9091 92.1578 83.2007 91.9485 83.5522 91.8064C83.9036 91.6643 84.3 91.5933 84.7412 91.5933ZM95.0209 91.6606V96.7418C95.0209 98.8506 93.9441 99.905 91.7905 99.905C91.2147 99.905 90.6688 99.8302 90.1528 99.6807C89.6368 99.5386 89.2106 99.3292 88.8741 99.0525L89.5022 97.9981C89.7639 98.215 90.093 98.387 90.4893 98.5141C90.8931 98.6487 91.3007 98.716 91.7119 98.716C92.37 98.716 92.8523 98.5664 93.1589 98.2673C93.4655 97.9682 93.6188 97.512 93.6188 96.8989V96.5848C93.3795 96.8465 93.0879 97.0447 92.7439 97.1793C92.3999 97.3139 92.0223 97.3812 91.611 97.3812C91.0427 97.3812 90.5267 97.2615 90.0631 97.0222C89.6069 96.7755 89.2442 96.4315 88.975 95.9903C88.7133 95.5491 88.5824 95.0443 88.5824 94.476C88.5824 93.9077 88.7133 93.4067 88.975 92.9729C89.2442 92.5317 89.6069 92.1915 90.0631 91.9522C90.5267 91.7129 91.0427 91.5933 91.611 91.5933C92.0447 91.5933 92.4373 91.6643 92.7888 91.8064C93.1477 91.9485 93.4468 92.1653 93.6861 92.457V91.6606H95.0209ZM91.8241 96.1922C92.3551 96.1922 92.7888 96.0352 93.1253 95.7211C93.4693 95.3995 93.6413 94.9845 93.6413 94.476C93.6413 93.975 93.4693 93.5674 93.1253 93.2534C92.7888 92.9393 92.3551 92.7823 91.8241 92.7823C91.2857 92.7823 90.8445 92.9393 90.5005 93.2534C90.164 93.5674 89.9958 93.975 89.9958 94.476C89.9958 94.9845 90.164 95.3995 90.5005 95.7211C90.8445 96.0352 91.2857 96.1922 91.8241 96.1922ZM101.299 92.5355C101.703 91.9073 102.413 91.5933 103.43 91.5933V92.9281C103.311 92.9056 103.202 92.8944 103.105 92.8944C102.559 92.8944 102.133 93.0552 101.826 93.3767C101.52 93.6908 101.366 94.147 101.366 94.7452V97.6504H99.9643V91.6606H101.299V92.5355ZM110.196 94.6891C110.196 94.7863 110.188 94.9247 110.173 95.1042H105.474C105.556 95.5454 105.769 95.8968 106.113 96.1585C106.464 96.4128 106.898 96.5399 107.414 96.5399C108.072 96.5399 108.614 96.3231 109.04 95.8893L109.792 96.753C109.523 97.0746 109.183 97.3176 108.771 97.4821C108.36 97.6467 107.896 97.7289 107.38 97.7289C106.722 97.7289 106.143 97.598 105.642 97.3363C105.141 97.0746 104.752 96.7119 104.475 96.2483C104.206 95.7772 104.071 95.2462 104.071 94.6555C104.071 94.0722 104.202 93.5487 104.464 93.0851C104.733 92.614 105.103 92.2476 105.574 91.9859C106.046 91.7241 106.577 91.5933 107.167 91.5933C107.751 91.5933 108.27 91.7241 108.726 91.9859C109.19 92.2401 109.549 92.6028 109.803 93.0739C110.065 93.5375 110.196 94.0759 110.196 94.6891ZM107.167 92.7149C106.719 92.7149 106.337 92.8496 106.023 93.1188C105.717 93.3805 105.53 93.7319 105.462 94.1731H108.861C108.801 93.7394 108.618 93.388 108.311 93.1188C108.005 92.8496 107.623 92.7149 107.167 92.7149ZM113.393 97.7289C112.907 97.7289 112.433 97.6653 111.969 97.5382C111.505 97.4111 111.135 97.2503 110.858 97.0559L111.397 95.9903C111.666 96.1698 111.988 96.3156 112.361 96.4277C112.743 96.5324 113.117 96.5848 113.483 96.5848C114.321 96.5848 114.739 96.3642 114.739 95.923C114.739 95.7136 114.631 95.5678 114.414 95.4855C114.205 95.4033 113.865 95.3248 113.393 95.25C112.9 95.1752 112.496 95.0892 112.182 94.992C111.875 94.8948 111.606 94.7265 111.374 94.4872C111.15 94.2404 111.038 93.9002 111.038 93.4665C111.038 92.8982 111.273 92.4457 111.745 92.1092C112.223 91.7653 112.866 91.5933 113.674 91.5933C114.085 91.5933 114.496 91.6419 114.908 91.7391C115.319 91.8288 115.656 91.9522 115.917 92.1092L115.379 93.1748C114.87 92.8757 114.298 92.7262 113.663 92.7262C113.251 92.7262 112.937 92.7897 112.72 92.9169C112.511 93.0365 112.406 93.1973 112.406 93.3992C112.406 93.6235 112.519 93.7843 112.743 93.8815C112.975 93.9712 113.33 94.0572 113.808 94.1395C114.287 94.2143 114.68 94.3003 114.986 94.3975C115.293 94.4947 115.555 94.6592 115.771 94.891C115.996 95.1228 116.108 95.4519 116.108 95.8781C116.108 96.439 115.865 96.8876 115.379 97.2241C114.893 97.5607 114.231 97.7289 113.393 97.7289ZM120.007 97.7289C119.402 97.7289 118.856 97.598 118.37 97.3363C117.884 97.0746 117.502 96.7119 117.226 96.2483C116.956 95.7772 116.822 95.2462 116.822 94.6555C116.822 94.0647 116.956 93.5375 117.226 93.0739C117.502 92.6103 117.884 92.2476 118.37 91.9859C118.856 91.7241 119.402 91.5933 120.007 91.5933C120.621 91.5933 121.17 91.7241 121.656 91.9859C122.142 92.2476 122.52 92.6103 122.789 93.0739C123.066 93.5375 123.204 94.0647 123.204 94.6555C123.204 95.2462 123.066 95.7772 122.789 96.2483C122.52 96.7119 122.142 97.0746 121.656 97.3363C121.17 97.598 120.621 97.7289 120.007 97.7289ZM120.007 96.5287C120.523 96.5287 120.95 96.3567 121.286 96.0127C121.623 95.6687 121.791 95.2163 121.791 94.6555C121.791 94.0946 121.623 93.6422 121.286 93.2982C120.95 92.9542 120.523 92.7823 120.007 92.7823C119.492 92.7823 119.065 92.9542 118.729 93.2982C118.4 93.6422 118.235 94.0946 118.235 94.6555C118.235 95.2163 118.4 95.6687 118.729 96.0127C119.065 96.3567 119.492 96.5287 120.007 96.5287ZM130.344 91.6606V97.6504H129.009V96.8876C128.785 97.1568 128.505 97.3662 128.168 97.5158C127.832 97.6579 127.469 97.7289 127.08 97.7289C126.28 97.7289 125.648 97.5083 125.184 97.0671C124.728 96.6184 124.5 95.9566 124.5 95.0817V91.6606H125.902V94.891C125.902 95.4294 126.022 95.8333 126.261 96.1025C126.508 96.3642 126.856 96.495 127.304 96.495C127.805 96.495 128.202 96.3418 128.493 96.0352C128.793 95.7211 128.942 95.2724 128.942 94.6891V91.6606H130.344ZM133.515 92.5355C133.919 91.9073 134.629 91.5933 135.646 91.5933V92.9281C135.526 92.9056 135.418 92.8944 135.321 92.8944C134.775 92.8944 134.349 93.0552 134.042 93.3767C133.735 93.6908 133.582 94.147 133.582 94.7452V97.6504H132.18V91.6606H133.515V92.5355ZM139.529 97.7289C138.908 97.7289 138.351 97.598 137.858 97.3363C137.364 97.0746 136.979 96.7119 136.702 96.2483C136.426 95.7772 136.287 95.2462 136.287 94.6555C136.287 94.0647 136.426 93.5375 136.702 93.0739C136.979 92.6103 137.36 92.2476 137.846 91.9859C138.34 91.7241 138.901 91.5933 139.529 91.5933C140.12 91.5933 140.636 91.7129 141.077 91.9522C141.525 92.1915 141.862 92.5355 142.086 92.9842L141.009 93.6123C140.837 93.3356 140.621 93.13 140.359 92.9954C140.105 92.8533 139.824 92.7823 139.518 92.7823C138.994 92.7823 138.56 92.9542 138.216 93.2982C137.872 93.6347 137.7 94.0872 137.7 94.6555C137.7 95.2238 137.869 95.68 138.205 96.0239C138.549 96.3604 138.987 96.5287 139.518 96.5287C139.824 96.5287 140.105 96.4614 140.359 96.3268C140.621 96.1847 140.837 95.9753 141.009 95.6986L142.086 96.3268C141.854 96.7755 141.514 97.1232 141.066 97.37C140.624 97.6093 140.112 97.7289 139.529 97.7289ZM148.842 94.6891C148.842 94.7863 148.834 94.9247 148.819 95.1042H144.119C144.202 95.5454 144.415 95.8968 144.759 96.1585C145.11 96.4128 145.544 96.5399 146.06 96.5399C146.718 96.5399 147.26 96.3231 147.686 95.8893L148.438 96.753C148.169 97.0746 147.828 97.3176 147.417 97.4821C147.006 97.6467 146.542 97.7289 146.026 97.7289C145.368 97.7289 144.789 97.598 144.288 97.3363C143.787 97.0746 143.398 96.7119 143.121 96.2483C142.852 95.7772 142.717 95.2462 142.717 94.6555C142.717 94.0722 142.848 93.5487 143.11 93.0851C143.379 92.614 143.749 92.2476 144.22 91.9859C144.691 91.7241 145.222 91.5933 145.813 91.5933C146.396 91.5933 146.916 91.7241 147.372 91.9859C147.836 92.2401 148.195 92.6028 148.449 93.0739C148.711 93.5375 148.842 94.0759 148.842 94.6891ZM145.813 92.7149C145.364 92.7149 144.983 92.8496 144.669 93.1188C144.362 93.3805 144.175 93.7319 144.108 94.1731H147.507C147.447 93.7394 147.264 93.388 146.957 93.1188C146.651 92.8496 146.269 92.7149 145.813 92.7149ZM152.039 97.7289C151.553 97.7289 151.078 97.6653 150.615 97.5382C150.151 97.4111 149.781 97.2503 149.504 97.0559L150.043 95.9903C150.312 96.1698 150.633 96.3156 151.007 96.4277C151.389 96.5324 151.763 96.5848 152.129 96.5848C152.966 96.5848 153.385 96.3642 153.385 95.923C153.385 95.7136 153.277 95.5678 153.06 95.4855C152.851 95.4033 152.51 95.3248 152.039 95.25C151.546 95.1752 151.142 95.0892 150.828 94.992C150.521 94.8948 150.252 94.7265 150.02 94.4872C149.796 94.2404 149.684 93.9002 149.684 93.4665C149.684 92.8982 149.919 92.4457 150.39 92.1092C150.869 91.7653 151.512 91.5933 152.32 91.5933C152.731 91.5933 153.142 91.6419 153.553 91.7391C153.965 91.8288 154.301 91.9522 154.563 92.1092L154.025 93.1748C153.516 92.8757 152.944 92.7262 152.308 92.7262C151.897 92.7262 151.583 92.7897 151.366 92.9169C151.157 93.0365 151.052 93.1973 151.052 93.3992C151.052 93.6235 151.164 93.7843 151.389 93.8815C151.62 93.9712 151.976 94.0572 152.454 94.1395C152.933 94.2143 153.325 94.3003 153.632 94.3975C153.939 94.4947 154.2 94.6592 154.417 94.891C154.642 95.1228 154.754 95.4519 154.754 95.8781C154.754 96.439 154.511 96.8876 154.025 97.2241C153.539 97.5607 152.877 97.7289 152.039 97.7289Z" fill="#333333"/>
<circle cx="42.9809" cy="146.725" r="2.95157" fill="#E4E4E6"/>
<rect x="38.0635" y="130.982" width="40.3381" height="5.90314" rx="2.95157" fill="#E4E4E6"/>
<rect x="117.225" y="130.982" width="40.3381" height="5.90314" rx="2.95157" fill="#E4E4E6"/>
<path d="M220.026 92.9691C220.026 91.9366 220.863 91.0996 221.896 91.0996H234.359C235.392 91.0996 236.229 91.9366 236.229 92.9691C236.229 94.0016 235.392 94.8386 234.359 94.8386H221.896C220.863 94.8386 220.026 94.0016 220.026 92.9691Z" fill="#E4E4E6"/>
<rect x="51.8359" y="143.773" width="97.4017" height="5.90314" rx="2.95157" fill="#E4E4E6"/>
<rect x="86.2715" y="130.982" width="20.661" height="5.90314" rx="2.95157" fill="#E4E4E6"/>
<rect x="38.6866" y="168.995" width="196.919" height="42.375" fill="#FAFBFB" stroke="#ECECEC" stroke-width="1.24632"/>
<rect x="38.6866" y="220.094" width="196.919" height="42.375" fill="#FAFBFB" stroke="#ECECEC" stroke-width="1.24632"/>
<rect x="38.6866" y="272.439" width="196.919" height="42.375" fill="#FAFBFB" stroke="#ECECEC" stroke-width="1.24632"/>
<g clip-path="url(#clip0)">
<path d="M60.7048 182.289H54.8886C54.503 182.289 54.1331 182.442 53.8604 182.715C53.5878 182.988 53.4346 183.357 53.4346 183.743V195.375C53.4346 195.761 53.5878 196.131 53.8604 196.404C54.1331 196.676 54.503 196.83 54.8886 196.83H63.6129C63.9985 196.83 64.3684 196.676 64.641 196.404C64.9137 196.131 65.0669 195.761 65.0669 195.375V186.651L60.7048 182.289Z" stroke="#322642" stroke-width="1.49559" stroke-linecap="round" stroke-linejoin="round"/>
<path d="M60.7041 182.289V186.651H65.0662" stroke="#322642" stroke-width="1.49559" stroke-linecap="round" stroke-linejoin="round"/>
<path d="M62.159 190.286H56.3428" stroke="#322642" stroke-width="1.49559" stroke-linecap="round" stroke-linejoin="round"/>
<path d="M62.159 193.194H56.3428" stroke="#322642" stroke-width="1.49559" stroke-linecap="round" stroke-linejoin="round"/>
<path d="M57.7968 187.378H57.0698H56.3428" stroke="#322642" stroke-width="1.49559" stroke-linecap="round" stroke-linejoin="round"/>
</g>
<path d="M80.7962 192.638H78.1789L77.6629 193.85H76.6609L79.0164 188.615H79.9736L82.3366 193.85H81.3196L80.7962 192.638ZM80.4746 191.875L79.4875 189.587L78.5079 191.875H80.4746ZM83.8025 190.44C84.0717 190.021 84.5453 189.812 85.2233 189.812V190.701C85.1435 190.686 85.0712 190.679 85.0064 190.679C84.6425 190.679 84.3583 190.786 84.1539 191.001C83.9495 191.21 83.8473 191.514 83.8473 191.913V193.85H82.9126V189.856H83.8025V190.44ZM88.5627 193.633C88.453 193.722 88.3184 193.79 88.1589 193.835C88.0043 193.88 87.8398 193.902 87.6653 193.902C87.2266 193.902 86.8876 193.787 86.6483 193.558C86.4091 193.329 86.2894 192.995 86.2894 192.556V190.634H85.6313V189.886H86.2894V188.974H87.2241V189.886H88.2935V190.634H87.2241V192.533C87.2241 192.728 87.2715 192.877 87.3662 192.982C87.4609 193.082 87.598 193.132 87.7775 193.132C87.9869 193.132 88.1614 193.077 88.301 192.967L88.5627 193.633ZM89.3316 189.856H90.2664V193.85H89.3316V189.856ZM89.8028 189.198C89.6333 189.198 89.4912 189.146 89.3765 189.041C89.2618 188.932 89.2045 188.797 89.2045 188.637C89.2045 188.478 89.2618 188.346 89.3765 188.241C89.4912 188.131 89.6333 188.077 89.8028 188.077C89.9723 188.077 90.1143 188.129 90.229 188.234C90.3437 188.333 90.401 188.461 90.401 188.615C90.401 188.78 90.3437 188.919 90.229 189.034C90.1193 189.143 89.9772 189.198 89.8028 189.198ZM93.3253 193.902C92.9115 193.902 92.5401 193.815 92.2111 193.64C91.8821 193.466 91.6253 193.224 91.4409 192.915C91.2564 192.601 91.1642 192.247 91.1642 191.853C91.1642 191.459 91.2564 191.108 91.4409 190.799C91.6253 190.49 91.8796 190.248 92.2036 190.073C92.5327 189.899 92.9066 189.812 93.3253 189.812C93.7192 189.812 94.0632 189.891 94.3573 190.051C94.6564 190.21 94.8807 190.44 95.0303 190.739L94.3124 191.158C94.1978 190.973 94.0532 190.836 93.8787 190.746C93.7092 190.652 93.5222 190.604 93.3179 190.604C92.9689 190.604 92.6797 190.719 92.4504 190.948C92.2211 191.173 92.1064 191.474 92.1064 191.853C92.1064 192.232 92.2186 192.536 92.4429 192.765C92.6723 192.99 92.9639 193.102 93.3179 193.102C93.5222 193.102 93.7092 193.057 93.8787 192.967C94.0532 192.872 94.1978 192.733 94.3124 192.548L95.0303 192.967C94.8758 193.266 94.6489 193.498 94.3498 193.663C94.0557 193.822 93.7142 193.902 93.3253 193.902ZM95.8018 188.301H96.7366V193.85H95.8018V188.301ZM101.717 191.875C101.717 191.94 101.712 192.032 101.702 192.152H98.5691C98.624 192.446 98.766 192.681 98.9954 192.855C99.2297 193.025 99.5188 193.109 99.8628 193.109C100.302 193.109 100.663 192.965 100.947 192.676L101.448 193.251C101.269 193.466 101.042 193.628 100.768 193.737C100.493 193.847 100.184 193.902 99.8404 193.902C99.4017 193.902 99.0153 193.815 98.6813 193.64C98.3473 193.466 98.088 193.224 97.9036 192.915C97.7241 192.601 97.6344 192.247 97.6344 191.853C97.6344 191.464 97.7216 191.115 97.8961 190.806C98.0756 190.492 98.3223 190.248 98.6364 190.073C98.9505 189.899 99.3044 189.812 99.6983 189.812C100.087 189.812 100.434 189.899 100.738 190.073C101.047 190.243 101.286 190.485 101.456 190.799C101.63 191.108 101.717 191.467 101.717 191.875ZM99.6983 190.559C99.3992 190.559 99.1449 190.649 98.9355 190.829C98.7311 191.003 98.6065 191.237 98.5616 191.531H100.827C100.788 191.242 100.665 191.008 100.461 190.829C100.257 190.649 100.002 190.559 99.6983 190.559ZM105.317 192.586C105.098 192.586 104.909 192.509 104.749 192.354C104.595 192.199 104.517 192.005 104.517 191.771C104.517 191.541 104.595 191.349 104.749 191.195C104.909 191.04 105.098 190.963 105.317 190.963C105.537 190.963 105.726 191.04 105.886 191.195C106.045 191.349 106.125 191.541 106.125 191.771C106.125 192.005 106.045 192.199 105.886 192.354C105.726 192.509 105.537 192.586 105.317 192.586ZM112.738 192.638H110.121L109.605 193.85H108.603L110.958 188.615H111.915L114.279 193.85H113.262L112.738 192.638ZM112.417 191.875L111.429 189.587L110.45 191.875H112.417ZM122.317 188.615L120.582 193.85H119.55L118.256 189.976L116.94 193.85H115.901L114.166 188.615H115.175L116.476 192.593L117.83 188.615H118.727L120.051 192.616L121.389 188.615H122.317ZM124.731 193.924C124.328 193.924 123.936 193.867 123.557 193.752C123.183 193.638 122.887 193.486 122.667 193.296L123.004 192.541C123.218 192.71 123.48 192.85 123.789 192.96C124.103 193.064 124.417 193.117 124.731 193.117C125.12 193.117 125.409 193.054 125.599 192.93C125.793 192.805 125.89 192.641 125.89 192.436C125.89 192.287 125.836 192.165 125.726 192.07C125.621 191.97 125.487 191.893 125.322 191.838C125.158 191.783 124.933 191.721 124.649 191.651C124.25 191.556 123.926 191.462 123.677 191.367C123.433 191.272 123.221 191.125 123.041 190.926C122.867 190.721 122.78 190.447 122.78 190.103C122.78 189.814 122.857 189.552 123.011 189.318C123.171 189.079 123.408 188.889 123.722 188.75C124.041 188.61 124.43 188.54 124.888 188.54C125.207 188.54 125.522 188.58 125.831 188.66C126.14 188.74 126.406 188.854 126.631 189.004L126.324 189.759C126.095 189.625 125.856 189.522 125.606 189.453C125.357 189.383 125.115 189.348 124.881 189.348C124.497 189.348 124.21 189.413 124.021 189.542C123.836 189.672 123.744 189.844 123.744 190.058C123.744 190.208 123.797 190.33 123.901 190.425C124.011 190.519 124.148 190.594 124.313 190.649C124.477 190.704 124.701 190.766 124.986 190.836C125.374 190.926 125.694 191.02 125.943 191.12C126.192 191.215 126.404 191.362 126.578 191.561C126.758 191.761 126.848 192.03 126.848 192.369C126.848 192.658 126.768 192.92 126.608 193.154C126.454 193.388 126.217 193.575 125.898 193.715C125.579 193.855 125.19 193.924 124.731 193.924ZM132.301 193.924C131.773 193.924 131.294 193.81 130.865 193.58C130.442 193.346 130.108 193.025 129.863 192.616C129.624 192.207 129.504 191.746 129.504 191.232C129.504 190.719 129.626 190.258 129.871 189.849C130.115 189.44 130.449 189.121 130.873 188.892C131.302 188.657 131.78 188.54 132.309 188.54C132.737 188.54 133.129 188.615 133.483 188.765C133.837 188.914 134.136 189.131 134.38 189.415L133.752 190.006C133.373 189.597 132.907 189.393 132.353 189.393C131.994 189.393 131.673 189.473 131.389 189.632C131.105 189.787 130.883 190.003 130.723 190.283C130.564 190.562 130.484 190.878 130.484 191.232C130.484 191.586 130.564 191.903 130.723 192.182C130.883 192.461 131.105 192.681 131.389 192.84C131.673 192.995 131.994 193.072 132.353 193.072C132.907 193.072 133.373 192.865 133.752 192.451L134.38 193.049C134.136 193.334 133.834 193.55 133.475 193.7C133.121 193.85 132.73 193.924 132.301 193.924ZM135.222 188.301H136.156V193.85H135.222V188.301ZM139.178 193.902C138.774 193.902 138.41 193.815 138.086 193.64C137.762 193.466 137.508 193.224 137.323 192.915C137.144 192.601 137.054 192.247 137.054 191.853C137.054 191.459 137.144 191.108 137.323 190.799C137.508 190.49 137.762 190.248 138.086 190.073C138.41 189.899 138.774 189.812 139.178 189.812C139.587 189.812 139.953 189.899 140.277 190.073C140.601 190.248 140.853 190.49 141.032 190.799C141.217 191.108 141.309 191.459 141.309 191.853C141.309 192.247 141.217 192.601 141.032 192.915C140.853 193.224 140.601 193.466 140.277 193.64C139.953 193.815 139.587 193.902 139.178 193.902ZM139.178 193.102C139.522 193.102 139.806 192.987 140.03 192.758C140.255 192.529 140.367 192.227 140.367 191.853C140.367 191.479 140.255 191.177 140.03 190.948C139.806 190.719 139.522 190.604 139.178 190.604C138.834 190.604 138.55 190.719 138.325 190.948C138.106 191.177 137.996 191.479 137.996 191.853C137.996 192.227 138.106 192.529 138.325 192.758C138.55 192.987 138.834 193.102 139.178 193.102ZM146.069 189.856V193.85H145.179V193.341C145.03 193.521 144.843 193.66 144.618 193.76C144.394 193.855 144.152 193.902 143.893 193.902C143.36 193.902 142.938 193.755 142.629 193.461C142.325 193.162 142.173 192.72 142.173 192.137V189.856H143.108V192.01C143.108 192.369 143.188 192.638 143.347 192.818C143.512 192.992 143.743 193.079 144.043 193.079C144.377 193.079 144.641 192.977 144.835 192.773C145.035 192.563 145.134 192.264 145.134 191.875V189.856H146.069ZM151.204 188.301V193.85H150.307V193.334C150.152 193.523 149.96 193.665 149.731 193.76C149.506 193.855 149.257 193.902 148.983 193.902C148.599 193.902 148.253 193.817 147.944 193.648C147.639 193.478 147.4 193.239 147.226 192.93C147.051 192.616 146.964 192.257 146.964 191.853C146.964 191.449 147.051 191.093 147.226 190.784C147.4 190.475 147.639 190.235 147.944 190.066C148.253 189.896 148.599 189.812 148.983 189.812C149.247 189.812 149.489 189.856 149.708 189.946C149.928 190.036 150.115 190.17 150.269 190.35V188.301H151.204ZM149.095 193.102C149.32 193.102 149.521 193.052 149.701 192.952C149.88 192.848 150.022 192.7 150.127 192.511C150.232 192.322 150.284 192.102 150.284 191.853C150.284 191.604 150.232 191.384 150.127 191.195C150.022 191.005 149.88 190.861 149.701 190.761C149.521 190.657 149.32 190.604 149.095 190.604C148.871 190.604 148.669 190.657 148.489 190.761C148.31 190.861 148.168 191.005 148.063 191.195C147.959 191.384 147.906 191.604 147.906 191.853C147.906 192.102 147.959 192.322 148.063 192.511C148.168 192.7 148.31 192.848 148.489 192.952C148.669 193.052 148.871 193.102 149.095 193.102ZM158.158 191.173H159.077V193.259C158.808 193.473 158.494 193.638 158.135 193.752C157.776 193.867 157.407 193.924 157.028 193.924C156.495 193.924 156.014 193.81 155.585 193.58C155.156 193.346 154.82 193.025 154.576 192.616C154.331 192.207 154.209 191.746 154.209 191.232C154.209 190.719 154.331 190.258 154.576 189.849C154.82 189.44 155.156 189.121 155.585 188.892C156.019 188.657 156.505 188.54 157.043 188.54C157.482 188.54 157.881 188.613 158.24 188.757C158.599 188.902 158.9 189.114 159.145 189.393L158.532 189.991C158.133 189.592 157.652 189.393 157.088 189.393C156.719 189.393 156.39 189.47 156.101 189.625C155.817 189.779 155.593 189.996 155.428 190.275C155.269 190.554 155.189 190.873 155.189 191.232C155.189 191.581 155.269 191.895 155.428 192.175C155.593 192.454 155.817 192.673 156.101 192.833C156.39 192.992 156.717 193.072 157.081 193.072C157.49 193.072 157.849 192.982 158.158 192.803V191.173ZM164.136 189.856V193.85H163.246V193.341C163.097 193.521 162.91 193.66 162.685 193.76C162.461 193.855 162.219 193.902 161.96 193.902C161.426 193.902 161.005 193.755 160.696 193.461C160.392 193.162 160.24 192.72 160.24 192.137V189.856H161.175V192.01C161.175 192.369 161.254 192.638 161.414 192.818C161.578 192.992 161.81 193.079 162.109 193.079C162.443 193.079 162.708 192.977 162.902 192.773C163.101 192.563 163.201 192.264 163.201 191.875V189.856H164.136ZM166.25 190.44C166.519 190.021 166.992 189.812 167.67 189.812V190.701C167.591 190.686 167.518 190.679 167.454 190.679C167.09 190.679 166.806 190.786 166.601 191.001C166.397 191.21 166.295 191.514 166.295 191.913V193.85H165.36V189.856H166.25V190.44ZM172.366 189.856V193.85H171.476V193.341C171.327 193.521 171.14 193.66 170.915 193.76C170.691 193.855 170.449 193.902 170.19 193.902C169.657 193.902 169.235 193.755 168.926 193.461C168.622 193.162 168.47 192.72 168.47 192.137V189.856H169.405V192.01C169.405 192.369 169.485 192.638 169.644 192.818C169.809 192.992 170.04 193.079 170.34 193.079C170.674 193.079 170.938 192.977 171.132 192.773C171.332 192.563 171.431 192.264 171.431 191.875V189.856H172.366ZM174.824 193.902C174.5 193.902 174.183 193.86 173.874 193.775C173.565 193.69 173.318 193.583 173.134 193.453L173.493 192.743C173.672 192.863 173.887 192.96 174.136 193.035C174.39 193.104 174.639 193.139 174.884 193.139C175.442 193.139 175.721 192.992 175.721 192.698C175.721 192.558 175.649 192.461 175.504 192.406C175.365 192.352 175.138 192.299 174.824 192.249C174.495 192.199 174.226 192.142 174.016 192.077C173.812 192.013 173.632 191.9 173.478 191.741C173.328 191.576 173.253 191.349 173.253 191.06C173.253 190.681 173.41 190.38 173.725 190.156C174.044 189.926 174.472 189.812 175.011 189.812C175.285 189.812 175.559 189.844 175.833 189.909C176.108 189.969 176.332 190.051 176.506 190.156L176.147 190.866C175.808 190.666 175.427 190.567 175.003 190.567C174.729 190.567 174.52 190.609 174.375 190.694C174.236 190.774 174.166 190.881 174.166 191.015C174.166 191.165 174.241 191.272 174.39 191.337C174.545 191.397 174.781 191.454 175.1 191.509C175.42 191.559 175.681 191.616 175.886 191.681C176.09 191.746 176.265 191.855 176.409 192.01C176.559 192.165 176.633 192.384 176.633 192.668C176.633 193.042 176.471 193.341 176.147 193.565C175.823 193.79 175.382 193.902 174.824 193.902Z" fill="#322642"/>
<path d="M82.1871 239.714L79.9063 244.948H78.9491L76.6609 239.714H77.7152L79.4576 243.752L81.2149 239.714H82.1871ZM82.6862 240.955H83.6209V244.948H82.6862V240.955ZM83.1573 240.297C82.9878 240.297 82.8457 240.245 82.7311 240.14C82.6164 240.03 82.5591 239.896 82.5591 239.736C82.5591 239.577 82.6164 239.444 82.7311 239.34C82.8457 239.23 82.9878 239.175 83.1573 239.175C83.3268 239.175 83.4689 239.228 83.5836 239.332C83.6982 239.432 83.7555 239.559 83.7555 239.714C83.7555 239.878 83.6982 240.018 83.5836 240.132C83.4739 240.242 83.3318 240.297 83.1573 240.297ZM88.7588 239.4V244.948H87.8614V244.432C87.7069 244.622 87.5149 244.764 87.2856 244.859C87.0613 244.953 86.812 245.001 86.5378 245.001C86.1539 245.001 85.8075 244.916 85.4984 244.746C85.1943 244.577 84.955 244.338 84.7805 244.028C84.606 243.714 84.5188 243.355 84.5188 242.952C84.5188 242.548 84.606 242.191 84.7805 241.882C84.955 241.573 85.1943 241.334 85.4984 241.164C85.8075 240.995 86.1539 240.91 86.5378 240.91C86.802 240.91 87.0438 240.955 87.2632 241.045C87.4825 241.134 87.6695 241.269 87.824 241.449V239.4H88.7588ZM86.65 244.2C86.8743 244.2 87.0762 244.151 87.2557 244.051C87.4352 243.946 87.5772 243.799 87.6819 243.61C87.7866 243.42 87.839 243.201 87.839 242.952C87.839 242.702 87.7866 242.483 87.6819 242.294C87.5772 242.104 87.4352 241.96 87.2557 241.86C87.0762 241.755 86.8743 241.703 86.65 241.703C86.4256 241.703 86.2237 241.755 86.0443 241.86C85.8648 241.96 85.7227 242.104 85.618 242.294C85.5133 242.483 85.461 242.702 85.461 242.952C85.461 243.201 85.5133 243.42 85.618 243.61C85.7227 243.799 85.8648 243.946 86.0443 244.051C86.2237 244.151 86.4256 244.2 86.65 244.2ZM93.7355 242.974C93.7355 243.039 93.7305 243.131 93.7205 243.251H90.5873C90.6421 243.545 90.7842 243.779 91.0135 243.954C91.2478 244.123 91.537 244.208 91.881 244.208C92.3197 244.208 92.6811 244.063 92.9653 243.774L93.4663 244.35C93.2868 244.564 93.06 244.726 92.7858 244.836C92.5116 244.946 92.2025 245.001 91.8585 245.001C91.4198 245.001 91.0335 244.913 90.6995 244.739C90.3654 244.564 90.1062 244.323 89.9218 244.013C89.7423 243.699 89.6525 243.345 89.6525 242.952C89.6525 242.563 89.7398 242.214 89.9143 241.905C90.0937 241.591 90.3405 241.346 90.6546 241.172C90.9687 240.997 91.3226 240.91 91.7165 240.91C92.1053 240.91 92.4518 240.997 92.7559 241.172C93.065 241.341 93.3043 241.583 93.4738 241.897C93.6483 242.206 93.7355 242.565 93.7355 242.974ZM91.7165 241.658C91.4173 241.658 91.1631 241.748 90.9537 241.927C90.7493 242.102 90.6247 242.336 90.5798 242.63H92.8456C92.8057 242.341 92.6836 242.107 92.4792 241.927C92.2748 241.748 92.0206 241.658 91.7165 241.658ZM96.4281 245.001C96.0243 245.001 95.6604 244.913 95.3363 244.739C95.0123 244.564 94.758 244.323 94.5736 244.013C94.3941 243.699 94.3044 243.345 94.3044 242.952C94.3044 242.558 94.3941 242.206 94.5736 241.897C94.758 241.588 95.0123 241.346 95.3363 241.172C95.6604 240.997 96.0243 240.91 96.4281 240.91C96.8369 240.91 97.2033 240.997 97.5273 241.172C97.8514 241.346 98.1031 241.588 98.2826 241.897C98.4671 242.206 98.5593 242.558 98.5593 242.952C98.5593 243.345 98.4671 243.699 98.2826 244.013C98.1031 244.323 97.8514 244.564 97.5273 244.739C97.2033 244.913 96.8369 245.001 96.4281 245.001ZM96.4281 244.2C96.7721 244.2 97.0562 244.086 97.2806 243.856C97.5049 243.627 97.6171 243.326 97.6171 242.952C97.6171 242.578 97.5049 242.276 97.2806 242.047C97.0562 241.817 96.7721 241.703 96.4281 241.703C96.0841 241.703 95.7999 241.817 95.5756 242.047C95.3563 242.276 95.2466 242.578 95.2466 242.952C95.2466 243.326 95.3563 243.627 95.5756 243.856C95.7999 244.086 96.0841 244.2 96.4281 244.2ZM102.155 243.684C101.936 243.684 101.747 243.607 101.587 243.453C101.433 243.298 101.355 243.104 101.355 242.869C101.355 242.64 101.433 242.448 101.587 242.294C101.747 242.139 101.936 242.062 102.155 242.062C102.375 242.062 102.564 242.139 102.724 242.294C102.883 242.448 102.963 242.64 102.963 242.869C102.963 243.104 102.883 243.298 102.724 243.453C102.564 243.607 102.375 243.684 102.155 243.684ZM110.832 239.714V244.948H109.86V242.705H107.153V244.948H106.181V239.714H107.153V241.875H109.86V239.714H110.832ZM113.94 245.001C113.536 245.001 113.172 244.913 112.848 244.739C112.524 244.564 112.27 244.323 112.085 244.013C111.906 243.699 111.816 243.345 111.816 242.952C111.816 242.558 111.906 242.206 112.085 241.897C112.27 241.588 112.524 241.346 112.848 241.172C113.172 240.997 113.536 240.91 113.94 240.91C114.349 240.91 114.715 240.997 115.039 241.172C115.363 241.346 115.615 241.588 115.794 241.897C115.979 242.206 116.071 242.558 116.071 242.952C116.071 243.345 115.979 243.699 115.794 244.013C115.615 244.323 115.363 244.564 115.039 244.739C114.715 244.913 114.349 245.001 113.94 245.001ZM113.94 244.2C114.284 244.2 114.568 244.086 114.792 243.856C115.017 243.627 115.129 243.326 115.129 242.952C115.129 242.578 115.017 242.276 114.792 242.047C114.568 241.817 114.284 241.703 113.94 241.703C113.596 241.703 113.312 241.817 113.087 242.047C112.868 242.276 112.758 242.578 112.758 242.952C112.758 243.326 112.868 243.627 113.087 243.856C113.312 244.086 113.596 244.2 113.94 244.2ZM123.085 240.955L121.611 244.948H120.714L119.682 242.196L118.635 244.948H117.738L116.272 240.955H117.155L118.209 243.901L119.308 240.955H120.093L121.17 243.916L122.255 240.955H123.085ZM128.194 244.731C128.085 244.821 127.95 244.888 127.791 244.933C127.636 244.978 127.471 245.001 127.297 245.001C126.858 245.001 126.519 244.886 126.28 244.657C126.041 244.427 125.921 244.093 125.921 243.655V241.733H125.263V240.985H125.921V240.073H126.856V240.985H127.925V241.733H126.856V243.632C126.856 243.827 126.903 243.976 126.998 244.081C127.093 244.181 127.23 244.23 127.409 244.23C127.619 244.23 127.793 244.176 127.933 244.066L128.194 244.731ZM130.627 245.001C130.223 245.001 129.859 244.913 129.535 244.739C129.211 244.564 128.956 244.323 128.772 244.013C128.593 243.699 128.503 243.345 128.503 242.952C128.503 242.558 128.593 242.206 128.772 241.897C128.956 241.588 129.211 241.346 129.535 241.172C129.859 240.997 130.223 240.91 130.627 240.91C131.035 240.91 131.402 240.997 131.726 241.172C132.05 241.346 132.302 241.588 132.481 241.897C132.666 242.206 132.758 242.558 132.758 242.952C132.758 243.345 132.666 243.699 132.481 244.013C132.302 244.323 132.05 244.564 131.726 244.739C131.402 244.913 131.035 245.001 130.627 245.001ZM130.627 244.2C130.971 244.2 131.255 244.086 131.479 243.856C131.703 243.627 131.816 243.326 131.816 242.952C131.816 242.578 131.703 242.276 131.479 242.047C131.255 241.817 130.971 241.703 130.627 241.703C130.283 241.703 129.998 241.817 129.774 242.047C129.555 242.276 129.445 242.578 129.445 242.952C129.445 243.326 129.555 243.627 129.774 243.856C129.998 244.086 130.283 244.2 130.627 244.2ZM137.932 240.91C138.321 240.91 138.667 240.995 138.971 241.164C139.28 241.334 139.522 241.573 139.697 241.882C139.871 242.191 139.958 242.548 139.958 242.952C139.958 243.355 139.871 243.714 139.697 244.028C139.522 244.338 139.28 244.577 138.971 244.746C138.667 244.916 138.321 245.001 137.932 245.001C137.658 245.001 137.406 244.953 137.176 244.859C136.952 244.764 136.763 244.622 136.608 244.432V244.948H135.718V239.4H136.653V241.441C136.813 241.267 136.999 241.134 137.214 241.045C137.433 240.955 137.672 240.91 137.932 240.91ZM137.827 244.2C138.171 244.2 138.453 244.086 138.672 243.856C138.896 243.627 139.009 243.326 139.009 242.952C139.009 242.578 138.896 242.276 138.672 242.047C138.453 241.817 138.171 241.703 137.827 241.703C137.603 241.703 137.401 241.755 137.221 241.86C137.042 241.96 136.9 242.104 136.795 242.294C136.69 242.483 136.638 242.702 136.638 242.952C136.638 243.201 136.69 243.42 136.795 243.61C136.9 243.799 137.042 243.946 137.221 244.051C137.401 244.151 137.603 244.2 137.827 244.2ZM144.599 242.974C144.599 243.039 144.594 243.131 144.584 243.251H141.45C141.505 243.545 141.647 243.779 141.877 243.954C142.111 244.123 142.4 244.208 142.744 244.208C143.183 244.208 143.544 244.063 143.828 243.774L144.329 244.35C144.15 244.564 143.923 244.726 143.649 244.836C143.375 244.946 143.066 245.001 142.722 245.001C142.283 245.001 141.897 244.913 141.563 244.739C141.229 244.564 140.969 244.323 140.785 244.013C140.605 243.699 140.516 243.345 140.516 242.952C140.516 242.563 140.603 242.214 140.777 241.905C140.957 241.591 141.204 241.346 141.518 241.172C141.832 240.997 142.186 240.91 142.58 240.91C142.968 240.91 143.315 240.997 143.619 241.172C143.928 241.341 144.167 241.583 144.337 241.897C144.511 242.206 144.599 242.565 144.599 242.974ZM142.58 241.658C142.28 241.658 142.026 241.748 141.817 241.927C141.612 242.102 141.488 242.336 141.443 242.63H143.709C143.669 242.341 143.547 242.107 143.342 241.927C143.138 241.748 142.884 241.658 142.58 241.658ZM149.089 240.91C149.677 240.91 150.126 241.052 150.435 241.336C150.749 241.616 150.906 242.039 150.906 242.608V244.948H150.023V244.462C149.909 244.637 149.744 244.771 149.53 244.866C149.321 244.956 149.066 245.001 148.767 245.001C148.468 245.001 148.206 244.951 147.982 244.851C147.758 244.746 147.583 244.604 147.458 244.425C147.339 244.24 147.279 244.033 147.279 243.804C147.279 243.445 147.411 243.159 147.675 242.944C147.945 242.725 148.366 242.615 148.939 242.615H149.971V242.555C149.971 242.276 149.886 242.062 149.717 241.912C149.552 241.763 149.306 241.688 148.977 241.688C148.752 241.688 148.53 241.723 148.311 241.793C148.097 241.862 147.915 241.96 147.765 242.084L147.399 241.404C147.608 241.244 147.86 241.122 148.154 241.037C148.448 240.953 148.76 240.91 149.089 240.91ZM148.962 244.32C149.196 244.32 149.403 244.268 149.582 244.163C149.767 244.053 149.896 243.899 149.971 243.699V243.236H149.006C148.468 243.236 148.199 243.413 148.199 243.767C148.199 243.936 148.266 244.071 148.401 244.171C148.535 244.27 148.722 244.32 148.962 244.32ZM158.135 240.955V244.343C158.135 245.748 157.418 246.451 155.982 246.451C155.598 246.451 155.234 246.401 154.89 246.302C154.546 246.207 154.262 246.067 154.038 245.883L154.456 245.18C154.631 245.325 154.85 245.439 155.114 245.524C155.384 245.614 155.655 245.659 155.929 245.659C156.368 245.659 156.69 245.559 156.894 245.36C157.098 245.16 157.201 244.856 157.201 244.447V244.238C157.041 244.412 156.847 244.544 156.617 244.634C156.388 244.724 156.136 244.769 155.862 244.769C155.483 244.769 155.139 244.689 154.83 244.529C154.526 244.365 154.284 244.136 154.105 243.842C153.93 243.547 153.843 243.211 153.843 242.832C153.843 242.453 153.93 242.119 154.105 241.83C154.284 241.536 154.526 241.309 154.83 241.149C155.139 240.99 155.483 240.91 155.862 240.91C156.151 240.91 156.413 240.958 156.647 241.052C156.887 241.147 157.086 241.292 157.246 241.486V240.955H158.135ZM156.004 243.976C156.358 243.976 156.647 243.871 156.872 243.662C157.101 243.448 157.216 243.171 157.216 242.832C157.216 242.498 157.101 242.226 156.872 242.017C156.647 241.808 156.358 241.703 156.004 241.703C155.645 241.703 155.351 241.808 155.122 242.017C154.897 242.226 154.785 242.498 154.785 242.832C154.785 243.171 154.897 243.448 155.122 243.662C155.351 243.871 155.645 243.976 156.004 243.976ZM160.254 241.538C160.523 241.12 160.997 240.91 161.675 240.91V241.8C161.595 241.785 161.523 241.778 161.458 241.778C161.094 241.778 160.81 241.885 160.606 242.099C160.401 242.309 160.299 242.613 160.299 243.011V244.948H159.364V240.955H160.254V241.538ZM166.185 242.974C166.185 243.039 166.18 243.131 166.17 243.251H163.037C163.092 243.545 163.234 243.779 163.463 243.954C163.698 244.123 163.987 244.208 164.331 244.208C164.77 244.208 165.131 244.063 165.415 243.774L165.916 244.35C165.737 244.564 165.51 244.726 165.236 244.836C164.961 244.946 164.652 245.001 164.308 245.001C163.87 245.001 163.483 244.913 163.149 244.739C162.815 244.564 162.556 244.323 162.372 244.013C162.192 243.699 162.102 243.345 162.102 242.952C162.102 242.563 162.19 242.214 162.364 241.905C162.544 241.591 162.79 241.346 163.104 241.172C163.419 240.997 163.772 240.91 164.166 240.91C164.555 240.91 164.902 240.997 165.206 241.172C165.515 241.341 165.754 241.583 165.924 241.897C166.098 242.206 166.185 242.565 166.185 242.974ZM164.166 241.658C163.867 241.658 163.613 241.748 163.404 241.927C163.199 242.102 163.075 242.336 163.03 242.63H165.295C165.256 242.341 165.133 242.107 164.929 241.927C164.725 241.748 164.47 241.658 164.166 241.658ZM168.499 240.91C169.087 240.91 169.536 241.052 169.845 241.336C170.159 241.616 170.316 242.039 170.316 242.608V244.948H169.434V244.462C169.319 244.637 169.155 244.771 168.94 244.866C168.731 244.956 168.477 245.001 168.178 245.001C167.879 245.001 167.617 244.951 167.392 244.851C167.168 244.746 166.994 244.604 166.869 244.425C166.749 244.24 166.69 244.033 166.69 243.804C166.69 243.445 166.822 243.159 167.086 242.944C167.355 242.725 167.776 242.615 168.35 242.615H169.382V242.555C169.382 242.276 169.297 242.062 169.127 241.912C168.963 241.763 168.716 241.688 168.387 241.688C168.163 241.688 167.941 241.723 167.721 241.793C167.507 241.862 167.325 241.96 167.176 242.084L166.809 241.404C167.019 241.244 167.27 241.122 167.564 241.037C167.859 240.953 168.17 240.91 168.499 240.91ZM168.372 244.32C168.606 244.32 168.813 244.268 168.993 244.163C169.177 244.053 169.307 243.899 169.382 243.699V243.236H168.417C167.879 243.236 167.609 243.413 167.609 243.767C167.609 243.936 167.677 244.071 167.811 244.171C167.946 244.27 168.133 244.32 168.372 244.32ZM173.916 244.731C173.807 244.821 173.672 244.888 173.513 244.933C173.358 244.978 173.194 245.001 173.019 245.001C172.58 245.001 172.241 244.886 172.002 244.657C171.763 244.427 171.643 244.093 171.643 243.655V241.733H170.985V240.985H171.643V240.073H172.578V240.985H173.647V241.733H172.578V243.632C172.578 243.827 172.625 243.976 172.72 244.081C172.815 244.181 172.952 244.23 173.131 244.23C173.341 244.23 173.515 244.176 173.655 244.066L173.916 244.731ZM181.792 240.91C182.296 240.91 182.694 241.057 182.989 241.351C183.283 241.64 183.43 242.077 183.43 242.66V244.948H182.495V242.78C182.495 242.431 182.418 242.169 182.263 241.994C182.109 241.815 181.887 241.725 181.598 241.725C181.284 241.725 181.032 241.83 180.842 242.039C180.653 242.244 180.558 242.538 180.558 242.922V244.948H179.624V242.78C179.624 242.431 179.546 242.169 179.392 241.994C179.237 241.815 179.015 241.725 178.726 241.725C178.407 241.725 178.153 241.827 177.963 242.032C177.779 242.236 177.687 242.533 177.687 242.922V244.948H176.752V240.955H177.642V241.464C177.791 241.284 177.978 241.147 178.203 241.052C178.427 240.958 178.676 240.91 178.951 240.91C179.25 240.91 179.514 240.967 179.743 241.082C179.977 241.192 180.162 241.356 180.297 241.576C180.461 241.366 180.673 241.204 180.932 241.09C181.191 240.97 181.478 240.91 181.792 240.91ZM186.15 240.91C186.738 240.91 187.187 241.052 187.496 241.336C187.81 241.616 187.967 242.039 187.967 242.608V244.948H187.085V244.462C186.97 244.637 186.805 244.771 186.591 244.866C186.382 244.956 186.127 245.001 185.828 245.001C185.529 245.001 185.267 244.951 185.043 244.851C184.819 244.746 184.644 244.604 184.52 244.425C184.4 244.24 184.34 244.033 184.34 243.804C184.34 243.445 184.472 243.159 184.736 242.944C185.006 242.725 185.427 242.615 186 242.615H187.032V242.555C187.032 242.276 186.947 242.062 186.778 241.912C186.613 241.763 186.367 241.688 186.038 241.688C185.813 241.688 185.591 241.723 185.372 241.793C185.158 241.862 184.976 241.96 184.826 242.084L184.46 241.404C184.669 241.244 184.921 241.122 185.215 241.037C185.509 240.953 185.821 240.91 186.15 240.91ZM186.023 244.32C186.257 244.32 186.464 244.268 186.643 244.163C186.828 244.053 186.957 243.899 187.032 243.699V243.236H186.068C185.529 243.236 185.26 243.413 185.26 243.767C185.26 243.936 185.327 244.071 185.462 244.171C185.596 244.27 185.783 244.32 186.023 244.32ZM191.432 240.91C191.936 240.91 192.34 241.057 192.644 241.351C192.948 241.645 193.1 242.082 193.1 242.66V244.948H192.165V242.78C192.165 242.431 192.083 242.169 191.918 241.994C191.754 241.815 191.52 241.725 191.215 241.725C190.872 241.725 190.6 241.83 190.4 242.039C190.201 242.244 190.101 242.54 190.101 242.929V244.948H189.167V240.955H190.056V241.471C190.211 241.287 190.405 241.147 190.64 241.052C190.874 240.958 191.138 240.91 191.432 240.91ZM195.811 240.91C196.399 240.91 196.848 241.052 197.157 241.336C197.471 241.616 197.628 242.039 197.628 242.608V244.948H196.746V244.462C196.631 244.637 196.467 244.771 196.252 244.866C196.043 244.956 195.789 245.001 195.49 245.001C195.191 245.001 194.929 244.951 194.704 244.851C194.48 244.746 194.306 244.604 194.181 244.425C194.061 244.24 194.002 244.033 194.002 243.804C194.002 243.445 194.134 243.159 194.398 242.944C194.667 242.725 195.088 242.615 195.662 242.615H196.694V242.555C196.694 242.276 196.609 242.062 196.439 241.912C196.275 241.763 196.028 241.688 195.699 241.688C195.475 241.688 195.253 241.723 195.034 241.793C194.819 241.862 194.637 241.96 194.488 242.084L194.121 241.404C194.331 241.244 194.582 241.122 194.876 241.037C195.171 240.953 195.482 240.91 195.811 240.91ZM195.684 244.32C195.918 244.32 196.125 244.268 196.305 244.163C196.489 244.053 196.619 243.899 196.694 243.699V243.236H195.729C195.191 243.236 194.921 243.413 194.921 243.767C194.921 243.936 194.989 244.071 195.123 244.171C195.258 244.27 195.445 244.32 195.684 244.32ZM202.828 240.955V244.343C202.828 245.748 202.11 246.451 200.674 246.451C200.29 246.451 199.926 246.401 199.582 246.302C199.238 246.207 198.954 246.067 198.73 245.883L199.149 245.18C199.323 245.325 199.542 245.439 199.807 245.524C200.076 245.614 200.348 245.659 200.622 245.659C201.061 245.659 201.382 245.559 201.586 245.36C201.791 245.16 201.893 244.856 201.893 244.447V244.238C201.734 244.412 201.539 244.544 201.31 244.634C201.08 244.724 200.829 244.769 200.555 244.769C200.176 244.769 199.832 244.689 199.523 244.529C199.218 244.365 198.977 244.136 198.797 243.842C198.623 243.547 198.535 243.211 198.535 242.832C198.535 242.453 198.623 242.119 198.797 241.83C198.977 241.536 199.218 241.309 199.523 241.149C199.832 240.99 200.176 240.91 200.555 240.91C200.844 240.91 201.105 240.958 201.34 241.052C201.579 241.147 201.778 241.292 201.938 241.486V240.955H202.828ZM200.697 243.976C201.051 243.976 201.34 243.871 201.564 243.662C201.793 243.448 201.908 243.171 201.908 242.832C201.908 242.498 201.793 242.226 201.564 242.017C201.34 241.808 201.051 241.703 200.697 241.703C200.338 241.703 200.044 241.808 199.814 242.017C199.59 242.226 199.478 242.498 199.478 242.832C199.478 243.171 199.59 243.448 199.814 243.662C200.044 243.871 200.338 243.976 200.697 243.976ZM207.811 242.974C207.811 243.039 207.806 243.131 207.796 243.251H204.662C204.717 243.545 204.859 243.779 205.089 243.954C205.323 244.123 205.612 244.208 205.956 244.208C206.395 244.208 206.756 244.063 207.04 243.774L207.541 244.35C207.362 244.564 207.135 244.726 206.861 244.836C206.587 244.946 206.278 245.001 205.934 245.001C205.495 245.001 205.109 244.913 204.775 244.739C204.441 244.564 204.181 244.323 203.997 244.013C203.817 243.699 203.728 243.345 203.728 242.952C203.728 242.563 203.815 242.214 203.989 241.905C204.169 241.591 204.416 241.346 204.73 241.172C205.044 240.997 205.398 240.91 205.792 240.91C206.18 240.91 206.527 240.997 206.831 241.172C207.14 241.341 207.379 241.583 207.549 241.897C207.723 242.206 207.811 242.565 207.811 242.974ZM205.792 241.658C205.492 241.658 205.238 241.748 205.029 241.927C204.824 242.102 204.7 242.336 204.655 242.63H206.921C206.881 242.341 206.759 242.107 206.554 241.927C206.35 241.748 206.096 241.658 205.792 241.658ZM209.598 241.538C209.868 241.12 210.341 240.91 211.019 240.91V241.8C210.939 241.785 210.867 241.778 210.802 241.778C210.438 241.778 210.154 241.885 209.95 242.099C209.745 242.309 209.643 242.613 209.643 243.011V244.948H208.709V240.955H209.598V241.538Z" fill="#322642"/>
<path d="M79.5548 292.06C80.0085 292.06 80.4023 292.135 80.7363 292.285C81.0753 292.434 81.3346 292.649 81.514 292.928C81.6935 293.207 81.7832 293.539 81.7832 293.922C81.7832 294.301 81.6935 294.633 81.514 294.917C81.3346 295.196 81.0753 295.41 80.7363 295.56C80.4023 295.71 80.0085 295.784 79.5548 295.784H78.3733V297.295H77.4012V292.06H79.5548ZM79.5099 294.962C79.9337 294.962 80.2552 294.872 80.4746 294.693C80.694 294.513 80.8036 294.256 80.8036 293.922C80.8036 293.588 80.694 293.332 80.4746 293.152C80.2552 292.973 79.9337 292.883 79.5099 292.883H78.3733V294.962H79.5099ZM84.4444 297.347C84.0406 297.347 83.6767 297.26 83.3526 297.086C83.0286 296.911 82.7743 296.669 82.5899 296.36C82.4104 296.046 82.3207 295.692 82.3207 295.298C82.3207 294.904 82.4104 294.553 82.5899 294.244C82.7743 293.935 83.0286 293.693 83.3526 293.519C83.6767 293.344 84.0406 293.257 84.4444 293.257C84.8532 293.257 85.2196 293.344 85.5437 293.519C85.8677 293.693 86.1195 293.935 86.2989 294.244C86.4834 294.553 86.5756 294.904 86.5756 295.298C86.5756 295.692 86.4834 296.046 86.2989 296.36C86.1195 296.669 85.8677 296.911 85.5437 297.086C85.2196 297.26 84.8532 297.347 84.4444 297.347ZM84.4444 296.547C84.7884 296.547 85.0725 296.432 85.2969 296.203C85.5212 295.974 85.6334 295.672 85.6334 295.298C85.6334 294.924 85.5212 294.623 85.2969 294.393C85.0725 294.164 84.7884 294.049 84.4444 294.049C84.1004 294.049 83.8162 294.164 83.5919 294.393C83.3726 294.623 83.2629 294.924 83.2629 295.298C83.2629 295.672 83.3726 295.974 83.5919 296.203C83.8162 296.432 84.1004 296.547 84.4444 296.547ZM91.3804 291.746V297.295H90.4831V296.779C90.3285 296.968 90.1366 297.11 89.9073 297.205C89.6829 297.3 89.4337 297.347 89.1595 297.347C88.7756 297.347 88.4291 297.263 88.12 297.093C87.8159 296.924 87.5766 296.684 87.4022 296.375C87.2277 296.061 87.1404 295.702 87.1404 295.298C87.1404 294.895 87.2277 294.538 87.4022 294.229C87.5766 293.92 87.8159 293.681 88.12 293.511C88.4291 293.342 88.7756 293.257 89.1595 293.257C89.4237 293.257 89.6655 293.302 89.8848 293.391C90.1042 293.481 90.2911 293.616 90.4457 293.795V291.746H91.3804ZM89.2716 296.547C89.496 296.547 89.6979 296.497 89.8774 296.398C90.0568 296.293 90.1989 296.146 90.3036 295.956C90.4083 295.767 90.4606 295.548 90.4606 295.298C90.4606 295.049 90.4083 294.83 90.3036 294.64C90.1989 294.451 90.0568 294.306 89.8774 294.207C89.6979 294.102 89.496 294.049 89.2716 294.049C89.0473 294.049 88.8454 294.102 88.6659 294.207C88.4865 294.306 88.3444 294.451 88.2397 294.64C88.135 294.83 88.0826 295.049 88.0826 295.298C88.0826 295.548 88.135 295.767 88.2397 295.956C88.3444 296.146 88.4865 296.293 88.6659 296.398C88.8454 296.497 89.0473 296.547 89.2716 296.547ZM94.4353 297.347C94.0216 297.347 93.6502 297.26 93.3211 297.086C92.9921 296.911 92.7353 296.669 92.5509 296.36C92.3664 296.046 92.2742 295.692 92.2742 295.298C92.2742 294.904 92.3664 294.553 92.5509 294.244C92.7353 293.935 92.9896 293.693 93.3136 293.519C93.6427 293.344 94.0166 293.257 94.4353 293.257C94.8292 293.257 95.1732 293.337 95.4673 293.496C95.7664 293.656 95.9907 293.885 96.1403 294.184L95.4224 294.603C95.3078 294.418 95.1632 294.281 94.9887 294.192C94.8192 294.097 94.6323 294.049 94.4279 294.049C94.0789 294.049 93.7897 294.164 93.5604 294.393C93.3311 294.618 93.2164 294.919 93.2164 295.298C93.2164 295.677 93.3286 295.981 93.5529 296.211C93.7823 296.435 94.0739 296.547 94.4279 296.547C94.6323 296.547 94.8192 296.502 94.9887 296.413C95.1632 296.318 95.3078 296.178 95.4224 295.994L96.1403 296.413C95.9858 296.712 95.7589 296.943 95.4598 297.108C95.1657 297.268 94.8242 297.347 94.4353 297.347ZM98.4738 293.257C99.0621 293.257 99.5108 293.399 99.8199 293.683C100.134 293.962 100.291 294.386 100.291 294.954V297.295H99.4086V296.809C99.2939 296.983 99.1294 297.118 98.915 297.213C98.7056 297.302 98.4514 297.347 98.1523 297.347C97.8532 297.347 97.5914 297.297 97.3671 297.198C97.1428 297.093 96.9683 296.951 96.8436 296.771C96.724 296.587 96.6642 296.38 96.6642 296.151C96.6642 295.792 96.7963 295.505 97.0605 295.291C97.3297 295.071 97.751 294.962 98.3243 294.962H99.3562V294.902C99.3562 294.623 99.2715 294.408 99.102 294.259C98.9375 294.109 98.6907 294.035 98.3617 294.035C98.1373 294.035 97.9155 294.069 97.6961 294.139C97.4818 294.209 97.2998 294.306 97.1502 294.431L96.7838 293.75C96.9932 293.591 97.245 293.469 97.5391 293.384C97.8332 293.299 98.1448 293.257 98.4738 293.257ZM98.3467 296.667C98.581 296.667 98.7879 296.614 98.9674 296.51C99.1518 296.4 99.2814 296.246 99.3562 296.046V295.582H98.3916C97.8532 295.582 97.584 295.759 97.584 296.113C97.584 296.283 97.6513 296.418 97.7859 296.517C97.9205 296.617 98.1074 296.667 98.3467 296.667ZM102.724 297.347C102.4 297.347 102.084 297.305 101.775 297.22C101.466 297.135 101.219 297.028 101.034 296.899L101.393 296.188C101.573 296.308 101.787 296.405 102.036 296.48C102.291 296.55 102.54 296.585 102.784 296.585C103.343 296.585 103.622 296.437 103.622 296.143C103.622 296.004 103.55 295.907 103.405 295.852C103.265 295.797 103.039 295.744 102.724 295.695C102.395 295.645 102.126 295.587 101.917 295.523C101.712 295.458 101.533 295.346 101.378 295.186C101.229 295.022 101.154 294.795 101.154 294.506C101.154 294.127 101.311 293.825 101.625 293.601C101.944 293.371 102.373 293.257 102.911 293.257C103.186 293.257 103.46 293.289 103.734 293.354C104.008 293.414 104.233 293.496 104.407 293.601L104.048 294.311C103.709 294.112 103.328 294.012 102.904 294.012C102.63 294.012 102.42 294.054 102.276 294.139C102.136 294.219 102.066 294.326 102.066 294.461C102.066 294.61 102.141 294.718 102.291 294.782C102.445 294.842 102.682 294.899 103.001 294.954C103.32 295.004 103.582 295.062 103.786 295.126C103.991 295.191 104.165 295.301 104.31 295.455C104.459 295.61 104.534 295.829 104.534 296.113C104.534 296.487 104.372 296.786 104.048 297.011C103.724 297.235 103.283 297.347 102.724 297.347ZM107.74 297.078C107.63 297.168 107.495 297.235 107.336 297.28C107.181 297.325 107.017 297.347 106.842 297.347C106.403 297.347 106.064 297.233 105.825 297.003C105.586 296.774 105.466 296.44 105.466 296.001V294.079H104.808V293.332H105.466V292.419H106.401V293.332H107.47V294.079H106.401V295.979C106.401 296.173 106.448 296.323 106.543 296.427C106.638 296.527 106.775 296.577 106.954 296.577C107.164 296.577 107.338 296.522 107.478 296.413L107.74 297.078ZM111.211 296.031C110.991 296.031 110.802 295.954 110.642 295.799C110.488 295.645 110.411 295.45 110.411 295.216C110.411 294.987 110.488 294.795 110.642 294.64C110.802 294.486 110.991 294.408 111.211 294.408C111.43 294.408 111.62 294.486 111.779 294.64C111.939 294.795 112.018 294.987 112.018 295.216C112.018 295.45 111.939 295.645 111.779 295.799C111.62 295.954 111.43 296.031 111.211 296.031ZM117.659 297.37C117.131 297.37 116.652 297.255 116.223 297.026C115.8 296.791 115.466 296.47 115.221 296.061C114.982 295.652 114.862 295.191 114.862 294.678C114.862 294.164 114.985 293.703 115.229 293.294C115.473 292.885 115.807 292.566 116.231 292.337C116.66 292.103 117.138 291.986 117.667 291.986C118.095 291.986 118.487 292.06 118.841 292.21C119.195 292.359 119.494 292.576 119.738 292.861L119.11 293.451C118.731 293.042 118.265 292.838 117.712 292.838C117.353 292.838 117.031 292.918 116.747 293.077C116.463 293.232 116.241 293.449 116.081 293.728C115.922 294.007 115.842 294.324 115.842 294.678C115.842 295.032 115.922 295.348 116.081 295.627C116.241 295.907 116.463 296.126 116.747 296.285C117.031 296.44 117.353 296.517 117.712 296.517C118.265 296.517 118.731 296.31 119.11 295.897L119.738 296.495C119.494 296.779 119.192 296.996 118.833 297.145C118.479 297.295 118.088 297.37 117.659 297.37ZM120.58 291.746H121.515V297.295H120.58V291.746ZM124.536 297.347C124.132 297.347 123.768 297.26 123.444 297.086C123.12 296.911 122.866 296.669 122.682 296.36C122.502 296.046 122.412 295.692 122.412 295.298C122.412 294.904 122.502 294.553 122.682 294.244C122.866 293.935 123.12 293.693 123.444 293.519C123.768 293.344 124.132 293.257 124.536 293.257C124.945 293.257 125.311 293.344 125.635 293.519C125.959 293.693 126.211 293.935 126.391 294.244C126.575 294.553 126.667 294.904 126.667 295.298C126.667 295.692 126.575 296.046 126.391 296.36C126.211 296.669 125.959 296.911 125.635 297.086C125.311 297.26 124.945 297.347 124.536 297.347ZM124.536 296.547C124.88 296.547 125.164 296.432 125.389 296.203C125.613 295.974 125.725 295.672 125.725 295.298C125.725 294.924 125.613 294.623 125.389 294.393C125.164 294.164 124.88 294.049 124.536 294.049C124.192 294.049 123.908 294.164 123.684 294.393C123.464 294.623 123.355 294.924 123.355 295.298C123.355 295.672 123.464 295.974 123.684 296.203C123.908 296.432 124.192 296.547 124.536 296.547ZM131.427 293.302V297.295H130.537V296.786C130.388 296.966 130.201 297.105 129.977 297.205C129.752 297.3 129.51 297.347 129.251 297.347C128.718 297.347 128.296 297.2 127.987 296.906C127.683 296.607 127.531 296.166 127.531 295.582V293.302H128.466V295.455C128.466 295.814 128.546 296.083 128.705 296.263C128.87 296.437 129.102 296.525 129.401 296.525C129.735 296.525 129.999 296.422 130.193 296.218C130.393 296.009 130.493 295.71 130.493 295.321V293.302H131.427ZM136.562 291.746V297.295H135.665V296.779C135.51 296.968 135.318 297.11 135.089 297.205C134.865 297.3 134.615 297.347 134.341 297.347C133.957 297.347 133.611 297.263 133.302 297.093C132.998 296.924 132.758 296.684 132.584 296.375C132.409 296.061 132.322 295.702 132.322 295.298C132.322 294.895 132.409 294.538 132.584 294.229C132.758 293.92 132.998 293.681 133.302 293.511C133.611 293.342 133.957 293.257 134.341 293.257C134.605 293.257 134.847 293.302 135.066 293.391C135.286 293.481 135.473 293.616 135.627 293.795V291.746H136.562ZM134.453 296.547C134.678 296.547 134.88 296.497 135.059 296.398C135.238 296.293 135.381 296.146 135.485 295.956C135.59 295.767 135.642 295.548 135.642 295.298C135.642 295.049 135.59 294.83 135.485 294.64C135.381 294.451 135.238 294.306 135.059 294.207C134.88 294.102 134.678 294.049 134.453 294.049C134.229 294.049 134.027 294.102 133.848 294.207C133.668 294.306 133.526 294.451 133.421 294.64C133.317 294.83 133.264 295.049 133.264 295.298C133.264 295.548 133.317 295.767 133.421 295.956C133.526 296.146 133.668 296.293 133.848 296.398C134.027 296.497 134.229 296.547 134.453 296.547ZM141.684 297.347C141.27 297.347 140.898 297.26 140.569 297.086C140.24 296.911 139.984 296.669 139.799 296.36C139.615 296.046 139.523 295.692 139.523 295.298C139.523 294.904 139.615 294.553 139.799 294.244C139.984 293.935 140.238 293.693 140.562 293.519C140.891 293.344 141.265 293.257 141.684 293.257C142.077 293.257 142.421 293.337 142.716 293.496C143.015 293.656 143.239 293.885 143.389 294.184L142.671 294.603C142.556 294.418 142.412 294.281 142.237 294.192C142.068 294.097 141.881 294.049 141.676 294.049C141.327 294.049 141.038 294.164 140.809 294.393C140.579 294.618 140.465 294.919 140.465 295.298C140.465 295.677 140.577 295.981 140.801 296.211C141.031 296.435 141.322 296.547 141.676 296.547C141.881 296.547 142.068 296.502 142.237 296.413C142.412 296.318 142.556 296.178 142.671 295.994L143.389 296.413C143.234 296.712 143.007 296.943 142.708 297.108C142.414 297.268 142.073 297.347 141.684 297.347ZM145.933 297.347C145.529 297.347 145.165 297.26 144.841 297.086C144.517 296.911 144.263 296.669 144.078 296.36C143.899 296.046 143.809 295.692 143.809 295.298C143.809 294.904 143.899 294.553 144.078 294.244C144.263 293.935 144.517 293.693 144.841 293.519C145.165 293.344 145.529 293.257 145.933 293.257C146.342 293.257 146.708 293.344 147.032 293.519C147.356 293.693 147.608 293.935 147.787 294.244C147.972 294.553 148.064 294.904 148.064 295.298C148.064 295.692 147.972 296.046 147.787 296.36C147.608 296.669 147.356 296.911 147.032 297.086C146.708 297.26 146.342 297.347 145.933 297.347ZM145.933 296.547C146.277 296.547 146.561 296.432 146.785 296.203C147.01 295.974 147.122 295.672 147.122 295.298C147.122 294.924 147.01 294.623 146.785 294.393C146.561 294.164 146.277 294.049 145.933 294.049C145.589 294.049 145.305 294.164 145.08 294.393C144.861 294.623 144.751 294.924 144.751 295.298C144.751 295.672 144.861 295.974 145.08 296.203C145.305 296.432 145.589 296.547 145.933 296.547ZM153.998 293.257C154.502 293.257 154.9 293.404 155.195 293.698C155.489 293.987 155.636 294.423 155.636 295.007V297.295H154.701V295.126C154.701 294.777 154.624 294.516 154.469 294.341C154.315 294.162 154.093 294.072 153.804 294.072C153.49 294.072 153.238 294.177 153.048 294.386C152.859 294.59 152.764 294.885 152.764 295.268V297.295H151.83V295.126C151.83 294.777 151.752 294.516 151.598 294.341C151.443 294.162 151.221 294.072 150.932 294.072C150.613 294.072 150.359 294.174 150.169 294.379C149.985 294.583 149.893 294.88 149.893 295.268V297.295H148.958V293.302H149.848V293.81C149.997 293.631 150.184 293.494 150.409 293.399C150.633 293.304 150.882 293.257 151.157 293.257C151.456 293.257 151.72 293.314 151.949 293.429C152.183 293.539 152.368 293.703 152.503 293.922C152.667 293.713 152.879 293.551 153.138 293.436C153.397 293.317 153.684 293.257 153.998 293.257ZM159.044 293.257C159.433 293.257 159.779 293.342 160.083 293.511C160.392 293.681 160.634 293.92 160.809 294.229C160.983 294.538 161.07 294.895 161.07 295.298C161.07 295.702 160.983 296.061 160.809 296.375C160.634 296.684 160.392 296.924 160.083 297.093C159.779 297.263 159.433 297.347 159.044 297.347C158.505 297.347 158.079 297.168 157.765 296.809V298.746H156.83V293.302H157.72V293.825C157.875 293.636 158.064 293.494 158.288 293.399C158.518 293.304 158.77 293.257 159.044 293.257ZM158.939 296.547C159.283 296.547 159.565 296.432 159.784 296.203C160.008 295.974 160.121 295.672 160.121 295.298C160.121 294.924 160.008 294.623 159.784 294.393C159.565 294.164 159.283 294.049 158.939 294.049C158.715 294.049 158.513 294.102 158.333 294.207C158.154 294.306 158.012 294.451 157.907 294.64C157.802 294.83 157.75 295.049 157.75 295.298C157.75 295.548 157.802 295.767 157.907 295.956C158.012 296.146 158.154 296.293 158.333 296.398C158.513 296.497 158.715 296.547 158.939 296.547ZM165.823 293.302V297.295H164.933V296.786C164.783 296.966 164.596 297.105 164.372 297.205C164.148 297.3 163.906 297.347 163.647 297.347C163.113 297.347 162.692 297.2 162.383 296.906C162.079 296.607 161.927 296.166 161.927 295.582V293.302H162.862V295.455C162.862 295.814 162.941 296.083 163.101 296.263C163.265 296.437 163.497 296.525 163.796 296.525C164.13 296.525 164.395 296.422 164.589 296.218C164.788 296.009 164.888 295.71 164.888 295.321V293.302H165.823ZM169.447 297.078C169.337 297.168 169.203 297.235 169.043 297.28C168.889 297.325 168.724 297.347 168.55 297.347C168.111 297.347 167.772 297.233 167.533 297.003C167.294 296.774 167.174 296.44 167.174 296.001V294.079H166.516V293.332H167.174V292.419H168.109V293.332H169.178V294.079H168.109V295.979C168.109 296.173 168.156 296.323 168.251 296.427C168.345 296.527 168.482 296.577 168.662 296.577C168.871 296.577 169.046 296.522 169.185 296.413L169.447 297.078ZM173.839 295.321C173.839 295.386 173.834 295.478 173.824 295.597H170.69C170.745 295.892 170.887 296.126 171.117 296.3C171.351 296.47 171.64 296.555 171.984 296.555C172.423 296.555 172.784 296.41 173.068 296.121L173.569 296.697C173.39 296.911 173.163 297.073 172.889 297.183C172.615 297.292 172.306 297.347 171.962 297.347C171.523 297.347 171.137 297.26 170.803 297.086C170.469 296.911 170.209 296.669 170.025 296.36C169.845 296.046 169.756 295.692 169.756 295.298C169.756 294.909 169.843 294.56 170.017 294.251C170.197 293.937 170.444 293.693 170.758 293.519C171.072 293.344 171.426 293.257 171.82 293.257C172.208 293.257 172.555 293.344 172.859 293.519C173.168 293.688 173.407 293.93 173.577 294.244C173.751 294.553 173.839 294.912 173.839 295.321ZM171.82 294.005C171.52 294.005 171.266 294.094 171.057 294.274C170.852 294.448 170.728 294.683 170.683 294.977H172.949C172.909 294.688 172.787 294.453 172.582 294.274C172.378 294.094 172.124 294.005 171.82 294.005ZM175.626 293.885C175.896 293.466 176.369 293.257 177.047 293.257V294.147C176.967 294.132 176.895 294.124 176.83 294.124C176.466 294.124 176.182 294.231 175.978 294.446C175.773 294.655 175.671 294.959 175.671 295.358V297.295H174.736V293.302H175.626V293.885Z" fill="#322642"/>
<path d="M52.1884 234.115C51.3937 234.115 50.7344 234.775 50.7344 235.569V245.748C50.7344 246.542 51.3937 247.202 52.1884 247.202H63.8208C64.6155 247.202 65.2748 246.542 65.2748 245.748V235.569C65.2748 234.775 64.6155 234.115 63.8208 234.115H52.1884ZM52.1884 235.569H63.8208V245.748H52.1884V235.569ZM55.8235 237.75V243.567L60.9127 240.658L55.8235 237.75Z" fill="#322642"/>
<g clip-path="url(#clip1)">
<path d="M58.0044 286.397C56.5588 286.397 55.3872 287.569 55.3872 289.015V294.249C55.3872 295.695 56.5588 296.867 58.0044 296.867C59.4501 296.867 60.6217 295.695 60.6217 294.249V289.015C60.6217 287.569 59.4501 286.397 58.0044 286.397ZM58.0044 288.142C58.4852 288.142 58.8769 288.534 58.8769 289.015V294.249C58.8769 294.73 58.4852 295.122 58.0044 295.122C57.5237 295.122 57.132 294.73 57.132 294.249V289.015C57.132 288.534 57.5237 288.142 58.0044 288.142ZM51.8975 294.249C51.8975 297.325 54.1739 299.862 57.132 300.286V302.974H58.8769V300.286C61.835 299.862 64.1114 297.325 64.1114 294.249H62.3666C62.3666 296.658 60.4132 298.611 58.0044 298.611C55.5957 298.611 53.6423 296.658 53.6423 294.249H51.8975Z" fill="#322642"/>
</g>
<g filter="url(#filter2_d)">
<rect x="279.851" y="315.438" width="58.5772" height="58.5772" rx="29.2886" fill="white"/>
</g>
<path d="M314.799 353.606L307.892 348.672L300.985 353.606V337.819C300.985 337.296 301.193 336.794 301.563 336.424C301.933 336.054 302.435 335.846 302.959 335.846H312.825C313.349 335.846 313.851 336.054 314.221 336.424C314.591 336.794 314.799 337.296 314.799 337.819V353.606Z" fill="#2E5299"/>
<g filter="url(#filter3_d)">
<rect x="334.688" y="235.673" width="58.5772" height="58.5772" rx="29.2886" fill="white"/>
</g>
<path d="M357.122 254.367L373.324 264.961L357.122 275.555V254.367Z" fill="#2E5299"/>
<g filter="url(#filter4_d)">
<rect x="343.413" y="145.938" width="58.5772" height="58.5772" rx="29.2886" fill="white"/>
</g>
<path d="M371.455 163.386C370.676 163.386 369.929 163.695 369.378 164.246C368.827 164.797 368.518 165.544 368.518 166.324V174.158C368.518 174.937 368.827 175.684 369.378 176.235C369.929 176.786 370.676 177.095 371.455 177.095C372.234 177.095 372.982 176.786 373.533 176.235C374.084 175.684 374.393 174.937 374.393 174.158V166.324C374.393 165.544 374.084 164.797 373.533 164.246C372.982 163.695 372.234 163.386 371.455 163.386Z" fill="#2E5299"/>
<path d="M378.31 172.199V174.158C378.31 175.976 377.588 177.719 376.302 179.005C375.017 180.29 373.273 181.013 371.455 181.013C369.637 181.013 367.894 180.29 366.608 179.005C365.323 177.719 364.601 175.976 364.601 174.158V172.199" stroke="#2E5299" stroke-width="1.39639" stroke-linecap="round" stroke-linejoin="round"/>
<path d="M367.539 184.93H375.373" stroke="#2E5299" stroke-width="1.39639" stroke-linecap="round" stroke-linejoin="round"/>
<g filter="url(#filter5_d)">
<rect x="296.053" y="61.1875" width="58.5772" height="58.5772" rx="29.2886" fill="white"/>
</g>
<path d="M327.315 80.6094H319.422C318.898 80.6094 318.396 80.8173 318.026 81.1874C317.656 81.5574 317.448 82.0594 317.448 82.5827V98.3695C317.448 98.8928 317.656 99.3948 318.026 99.7649C318.396 100.135 318.898 100.343 319.422 100.343H331.262C331.785 100.343 332.287 100.135 332.657 99.7649C333.027 99.3948 333.235 98.8928 333.235 98.3695V86.5294L327.315 80.6094Z" fill="#2E5299"/>
<path d="M327.313 80.6094V86.5294H333.234" stroke="white" stroke-width="1.40697" stroke-linecap="round" stroke-linejoin="round"/>
<path d="M329.288 91.4629H321.395" stroke="white" stroke-width="1.40697" stroke-linecap="round" stroke-linejoin="round"/>
<path d="M329.288 95.4082H321.395" stroke="white" stroke-width="1.40697" stroke-linecap="round" stroke-linejoin="round"/>
<path d="M323.368 87.5156H322.381H321.395" stroke="white" stroke-width="1.40697" stroke-linecap="round" stroke-linejoin="round"/>
<rect x="66" y="221" width="177" height="93" fill="url(#paint0_linear)"/>
<defs>
<filter id="filter0_d" x="5.5189" y="56.94" width="263.254" height="301.89" filterUnits="userSpaceOnUse" color-interpolation-filters="sRGB">
<feFlood flood-opacity="0" result="BackgroundImageFix"/>
<feColorMatrix in="SourceAlpha" type="matrix" values="0 0 0 0 0 0 0 0 0 0 0 0 0 0 0 0 0 0 127 0"/>
<feOffset dy="4.61642"/>
<feGaussianBlur stdDeviation="6.92463"/>
<feColorMatrix type="matrix" values="0 0 0 0 0 0 0 0 0 0 0 0 0 0 0 0 0 0 0.15 0"/>
<feBlend mode="normal" in2="BackgroundImageFix" result="effect1_dropShadow"/>
<feBlend mode="normal" in="SourceGraphic" in2="effect1_dropShadow" result="shape"/>
</filter>
<filter id="filter1_d" x="19.3682" y="66.1729" width="235.555" height="49.8529" filterUnits="userSpaceOnUse" color-interpolation-filters="sRGB">
<feFlood flood-opacity="0" result="BackgroundImageFix"/>
<feColorMatrix in="SourceAlpha" type="matrix" values="0 0 0 0 0 0 0 0 0 0 0 0 0 0 0 0 0 0 127 0"/>
<feOffset dy="1.24632"/>
<feColorMatrix type="matrix" values="0 0 0 0 0.952941 0 0 0 0 0.956863 0 0 0 0 0.956863 0 0 0 1 0"/>
<feBlend mode="normal" in2="BackgroundImageFix" result="effect1_dropShadow"/>
<feBlend mode="normal" in="SourceGraphic" in2="effect1_dropShadow" result="shape"/>
</filter>
<filter id="filter2_d" x="266.001" y="306.205" width="86.2757" height="86.2757" filterUnits="userSpaceOnUse" color-interpolation-filters="sRGB">
<feFlood flood-opacity="0" result="BackgroundImageFix"/>
<feColorMatrix in="SourceAlpha" type="matrix" values="0 0 0 0 0 0 0 0 0 0 0 0 0 0 0 0 0 0 127 0"/>
<feOffset dy="4.61642"/>
<feGaussianBlur stdDeviation="6.92463"/>
<feColorMatrix type="matrix" values="0 0 0 0 0 0 0 0 0 0 0 0 0 0 0 0 0 0 0.15 0"/>
<feBlend mode="normal" in2="BackgroundImageFix" result="effect1_dropShadow"/>
<feBlend mode="normal" in="SourceGraphic" in2="effect1_dropShadow" result="shape"/>
</filter>
<filter id="filter3_d" x="320.839" y="226.44" width="86.2757" height="86.2757" filterUnits="userSpaceOnUse" color-interpolation-filters="sRGB">
<feFlood flood-opacity="0" result="BackgroundImageFix"/>
<feColorMatrix in="SourceAlpha" type="matrix" values="0 0 0 0 0 0 0 0 0 0 0 0 0 0 0 0 0 0 127 0"/>
<feOffset dy="4.61642"/>
<feGaussianBlur stdDeviation="6.92463"/>
<feColorMatrix type="matrix" values="0 0 0 0 0 0 0 0 0 0 0 0 0 0 0 0 0 0 0.15 0"/>
<feBlend mode="normal" in2="BackgroundImageFix" result="effect1_dropShadow"/>
<feBlend mode="normal" in="SourceGraphic" in2="effect1_dropShadow" result="shape"/>
</filter>
<filter id="filter4_d" x="329.564" y="136.705" width="86.2757" height="86.2757" filterUnits="userSpaceOnUse" color-interpolation-filters="sRGB">
<feFlood flood-opacity="0" result="BackgroundImageFix"/>
<feColorMatrix in="SourceAlpha" type="matrix" values="0 0 0 0 0 0 0 0 0 0 0 0 0 0 0 0 0 0 127 0"/>
<feOffset dy="4.61642"/>
<feGaussianBlur stdDeviation="6.92463"/>
<feColorMatrix type="matrix" values="0 0 0 0 0 0 0 0 0 0 0 0 0 0 0 0 0 0 0.15 0"/>
<feBlend mode="normal" in2="BackgroundImageFix" result="effect1_dropShadow"/>
<feBlend mode="normal" in="SourceGraphic" in2="effect1_dropShadow" result="shape"/>
</filter>
<filter id="filter5_d" x="282.203" y="51.9547" width="86.2757" height="86.2757" filterUnits="userSpaceOnUse" color-interpolation-filters="sRGB">
<feFlood flood-opacity="0" result="BackgroundImageFix"/>
<feColorMatrix in="SourceAlpha" type="matrix" values="0 0 0 0 0 0 0 0 0 0 0 0 0 0 0 0 0 0 127 0"/>
<feOffset dy="4.61642"/>
<feGaussianBlur stdDeviation="6.92463"/>
<feColorMatrix type="matrix" values="0 0 0 0 0 0 0 0 0 0 0 0 0 0 0 0 0 0 0.15 0"/>
<feBlend mode="normal" in2="BackgroundImageFix" result="effect1_dropShadow"/>
<feBlend mode="normal" in="SourceGraphic" in2="effect1_dropShadow" result="shape"/>
</filter>
<linearGradient id="paint0_linear" x1="150.68" y1="314" x2="150.68" y2="225.195" gradientUnits="userSpaceOnUse">
<stop stop-color="white"/>
<stop offset="1" stop-color="white" stop-opacity="0"/>
</linearGradient>
<clipPath id="clip0">
<rect width="17.4485" height="17.4485" fill="white" transform="translate(50.5264 180.835)"/>
</clipPath>
<clipPath id="clip1">
<rect width="17.4485" height="17.4485" fill="white" transform="translate(49.2803 285.525)"/>
</clipPath>
</defs>
</svg>
