<svg width="420" height="420" viewBox="0 0 420 420" fill="none" xmlns="http://www.w3.org/2000/svg">
<rect width="420" height="420" fill="white"/>
<circle cx="211.5" cy="209.5" r="197.5" fill="#FAFAFA"/>
<g filter="url(#filter0_d)">
<rect x="46.8154" y="38.7383" width="318.431" height="353.677" rx="2.12343" fill="white"/>
</g>
<path d="M78.2115 139.287H74.8279V137.682H83.4911V139.287H80.1075V147.892H78.2115V139.287ZM87.3012 140.016C88.4486 140.016 89.3236 140.293 89.9265 140.847C90.539 141.392 90.8453 142.218 90.8453 143.327V147.892H89.1243V146.944C88.9007 147.284 88.5798 147.546 88.1617 147.731C87.7534 147.906 87.2575 147.994 86.6741 147.994C86.0907 147.994 85.5803 147.896 85.1427 147.702C84.7052 147.498 84.3649 147.221 84.1218 146.871C83.8884 146.511 83.7718 146.107 83.7718 145.66C83.7718 144.96 84.0294 144.401 84.5448 143.983C85.0698 143.555 85.8914 143.341 87.0096 143.341H89.0222V143.225C89.0222 142.68 88.8569 142.262 88.5264 141.97C88.2055 141.679 87.7242 141.533 87.0825 141.533C86.6449 141.533 86.2123 141.601 85.7844 141.737C85.3664 141.873 85.0115 142.063 84.7198 142.306L84.0051 140.978C84.4135 140.667 84.9045 140.429 85.4782 140.264C86.0518 140.099 86.6595 140.016 87.3012 140.016ZM87.0533 146.666C87.5103 146.666 87.9138 146.564 88.2638 146.36C88.6236 146.146 88.8764 145.845 89.0222 145.456V144.552H87.1408C86.0907 144.552 85.5657 144.897 85.5657 145.587C85.5657 145.918 85.6969 146.18 85.9595 146.375C86.222 146.569 86.5866 146.666 87.0533 146.666ZM94.9206 141.241C95.4456 140.424 96.3693 140.016 97.6916 140.016V141.751C97.5361 141.722 97.3951 141.708 97.2687 141.708C96.5589 141.708 96.0047 141.917 95.606 142.335C95.2074 142.743 95.0081 143.336 95.0081 144.114V147.892H93.185V140.103H94.9206V141.241ZM106.897 140.103V146.71C106.897 149.452 105.497 150.823 102.696 150.823C101.948 150.823 101.238 150.726 100.567 150.531C99.8962 150.347 99.342 150.074 98.9044 149.715L99.7212 148.344C100.061 148.626 100.489 148.849 101.005 149.015C101.53 149.19 102.06 149.277 102.594 149.277C103.45 149.277 104.077 149.083 104.476 148.694C104.874 148.305 105.074 147.712 105.074 146.914V146.506C104.763 146.846 104.383 147.104 103.936 147.279C103.489 147.454 102.998 147.542 102.463 147.542C101.724 147.542 101.053 147.386 100.45 147.075C99.8573 146.754 99.3857 146.307 99.0357 145.733C98.6954 145.159 98.5252 144.503 98.5252 143.764C98.5252 143.025 98.6954 142.374 99.0357 141.81C99.3857 141.236 99.8573 140.794 100.45 140.483C101.053 140.171 101.724 140.016 102.463 140.016C103.027 140.016 103.537 140.108 103.994 140.293C104.461 140.478 104.85 140.76 105.161 141.139V140.103H106.897ZM102.74 145.996C103.431 145.996 103.994 145.791 104.432 145.383C104.879 144.965 105.103 144.425 105.103 143.764C105.103 143.113 104.879 142.583 104.432 142.174C103.994 141.766 103.431 141.562 102.74 141.562C102.04 141.562 101.466 141.766 101.019 142.174C100.582 142.583 100.363 143.113 100.363 143.764C100.363 144.425 100.582 144.965 101.019 145.383C101.466 145.791 102.04 145.996 102.74 145.996ZM116.615 144.041C116.615 144.168 116.605 144.348 116.586 144.581H110.475C110.582 145.155 110.859 145.612 111.306 145.952C111.763 146.282 112.327 146.448 112.998 146.448C113.854 146.448 114.559 146.166 115.113 145.602L116.09 146.725C115.74 147.143 115.298 147.459 114.763 147.673C114.228 147.887 113.625 147.994 112.954 147.994C112.099 147.994 111.345 147.824 110.694 147.483C110.042 147.143 109.537 146.671 109.177 146.069C108.827 145.456 108.652 144.766 108.652 143.998C108.652 143.239 108.822 142.558 109.162 141.956C109.512 141.343 109.994 140.867 110.606 140.526C111.219 140.186 111.909 140.016 112.677 140.016C113.436 140.016 114.111 140.186 114.704 140.526C115.307 140.857 115.774 141.329 116.105 141.941C116.445 142.544 116.615 143.244 116.615 144.041ZM112.677 141.474C112.094 141.474 111.598 141.649 111.19 141.999C110.791 142.34 110.548 142.797 110.46 143.37H114.88C114.802 142.806 114.564 142.349 114.165 141.999C113.766 141.649 113.27 141.474 112.677 141.474ZM123.048 147.469C122.834 147.644 122.571 147.775 122.26 147.862C121.959 147.95 121.638 147.994 121.298 147.994C120.442 147.994 119.781 147.77 119.314 147.323C118.848 146.876 118.614 146.224 118.614 145.368V141.62H117.331V140.162H118.614V138.382H120.437V140.162H122.523V141.62H120.437V145.325C120.437 145.704 120.53 145.996 120.714 146.2C120.899 146.394 121.166 146.491 121.517 146.491C121.925 146.491 122.265 146.385 122.537 146.171L123.048 147.469ZM130.314 141.241C130.839 140.424 131.763 140.016 133.085 140.016V141.751C132.929 141.722 132.788 141.708 132.662 141.708C131.952 141.708 131.398 141.917 130.999 142.335C130.601 142.743 130.401 143.336 130.401 144.114V147.892H128.578V140.103H130.314V141.241ZM138.061 147.994C137.273 147.994 136.563 147.824 135.931 147.483C135.299 147.143 134.803 146.671 134.444 146.069C134.094 145.456 133.919 144.766 133.919 143.998C133.919 143.229 134.094 142.544 134.444 141.941C134.803 141.338 135.299 140.867 135.931 140.526C136.563 140.186 137.273 140.016 138.061 140.016C138.858 140.016 139.573 140.186 140.205 140.526C140.837 140.867 141.328 141.338 141.678 141.941C142.037 142.544 142.217 143.229 142.217 143.998C142.217 144.766 142.037 145.456 141.678 146.069C141.328 146.671 140.837 147.143 140.205 147.483C139.573 147.824 138.858 147.994 138.061 147.994ZM138.061 146.433C138.732 146.433 139.286 146.21 139.723 145.762C140.161 145.315 140.38 144.727 140.38 143.998C140.38 143.268 140.161 142.68 139.723 142.233C139.286 141.786 138.732 141.562 138.061 141.562C137.39 141.562 136.836 141.786 136.398 142.233C135.97 142.68 135.756 143.268 135.756 143.998C135.756 144.727 135.97 145.315 136.398 145.762C136.836 146.21 137.39 146.433 138.061 146.433ZM143.961 137.07H145.784V147.892H143.961V137.07ZM155.498 144.041C155.498 144.168 155.488 144.348 155.469 144.581H149.358C149.465 145.155 149.742 145.612 150.189 145.952C150.646 146.282 151.21 146.448 151.881 146.448C152.737 146.448 153.441 146.166 153.996 145.602L154.973 146.725C154.623 147.143 154.18 147.459 153.646 147.673C153.111 147.887 152.508 147.994 151.837 147.994C150.982 147.994 150.228 147.824 149.577 147.483C148.925 147.143 148.419 146.671 148.06 146.069C147.71 145.456 147.535 144.766 147.535 143.998C147.535 143.239 147.705 142.558 148.045 141.956C148.395 141.343 148.876 140.867 149.489 140.526C150.102 140.186 150.792 140.016 151.56 140.016C152.318 140.016 152.994 140.186 153.587 140.526C154.19 140.857 154.657 141.329 154.987 141.941C155.328 142.544 155.498 143.244 155.498 144.041ZM151.56 141.474C150.977 141.474 150.481 141.649 150.072 141.999C149.674 142.34 149.431 142.797 149.343 143.37H153.762C153.685 142.806 153.446 142.349 153.048 141.999C152.649 141.649 152.153 141.474 151.56 141.474Z" fill="#6D7079"/>
<g filter="url(#filter1_d)">
<path d="M46.8154 44.4932C46.8154 41.3148 49.392 38.7383 52.5703 38.7383H359.491C362.67 38.7383 365.246 41.3148 365.246 44.4932V85.4308L206.031 86.1383L46.8154 85.4308V44.4932Z" fill="#FAFAFA"/>
</g>
<path d="M328.924 64.869C328.924 63.8621 329.74 63.0459 330.747 63.0459H342.841C343.848 63.0459 344.664 63.8621 344.664 64.869C344.664 65.8758 343.848 66.6921 342.841 66.6921H330.747C329.74 66.6921 328.924 65.8758 328.924 64.869Z" fill="#E4E4E6"/>
<path d="M72.4099 64.9367V68.5391H70.5139V64.9658L66.5031 58.3298H68.5304L71.5202 63.3032L74.5392 58.3298H76.4061L72.4099 64.9367ZM80.1042 68.6412C79.3166 68.6412 78.6068 68.471 77.9748 68.1307C77.3428 67.7904 76.8469 67.3188 76.4872 66.716C76.1372 66.1034 75.9621 65.4131 75.9621 64.645C75.9621 63.8768 76.1372 63.1914 76.4872 62.5885C76.8469 61.9857 77.3428 61.5141 77.9748 61.1738C78.6068 60.8335 79.3166 60.6634 80.1042 60.6634C80.9015 60.6634 81.6161 60.8335 82.2481 61.1738C82.8801 61.5141 83.3711 61.9857 83.7212 62.5885C84.0809 63.1914 84.2608 63.8768 84.2608 64.645C84.2608 65.4131 84.0809 66.1034 83.7212 66.716C83.3711 67.3188 82.8801 67.7904 82.2481 68.1307C81.6161 68.471 80.9015 68.6412 80.1042 68.6412ZM80.1042 67.0806C80.7751 67.0806 81.3293 66.857 81.7668 66.4097C82.2044 65.9624 82.4231 65.3742 82.4231 64.645C82.4231 63.9157 82.2044 63.3275 81.7668 62.8802C81.3293 62.433 80.7751 62.2093 80.1042 62.2093C79.4333 62.2093 78.8791 62.433 78.4415 62.8802C78.0137 63.3275 77.7998 63.9157 77.7998 64.645C77.7998 65.3742 78.0137 65.9624 78.4415 66.4097C78.8791 66.857 79.4333 67.0806 80.1042 67.0806ZM93.5444 60.7509V68.5391H91.8088V67.5473C91.5171 67.8973 91.1525 68.1696 90.7149 68.364C90.2774 68.5488 89.8058 68.6412 89.3002 68.6412C88.2599 68.6412 87.4383 68.3543 86.8354 67.7807C86.2423 67.1973 85.9458 66.3368 85.9458 65.1992V60.7509H87.7688V64.9512C87.7688 65.6513 87.9244 66.1764 88.2356 66.5264C88.5564 66.8667 89.0085 67.0368 89.5919 67.0368C90.2434 67.0368 90.7587 66.8375 91.1379 66.4389C91.5268 66.0305 91.7213 65.4471 91.7213 64.6887V60.7509H93.5444ZM97.6669 61.8885C98.1919 61.0717 99.1156 60.6634 100.438 60.6634V62.3989C100.282 62.3698 100.141 62.3552 100.015 62.3552C99.3052 62.3552 98.751 62.5642 98.3524 62.9823C97.9537 63.3907 97.7544 63.9838 97.7544 64.7616V68.5391H95.9313V60.7509H97.6669V61.8885ZM110.403 60.6634C111.162 60.6634 111.838 60.8287 112.431 61.1592C113.034 61.4898 113.505 61.9565 113.845 62.5594C114.186 63.1622 114.356 63.8574 114.356 64.645C114.356 65.4325 114.186 66.1326 113.845 66.7452C113.505 67.348 113.034 67.8147 112.431 68.1453C111.838 68.4759 111.162 68.6412 110.403 68.6412C109.353 68.6412 108.522 68.2911 107.91 67.5911V71.3685H106.086V60.7509H107.822V61.7718C108.123 61.4023 108.493 61.1252 108.93 60.9405C109.378 60.7557 109.869 60.6634 110.403 60.6634ZM110.199 67.0806C110.87 67.0806 111.42 66.857 111.847 66.4097C112.285 65.9624 112.504 65.3742 112.504 64.645C112.504 63.9157 112.285 63.3275 111.847 62.8802C111.42 62.433 110.87 62.2093 110.199 62.2093C109.762 62.2093 109.368 62.3114 109.018 62.5156C108.668 62.7101 108.391 62.992 108.187 63.3615C107.982 63.731 107.88 64.1588 107.88 64.645C107.88 65.1311 107.982 65.5589 108.187 65.9284C108.391 66.2979 108.668 66.5847 109.018 66.7889C109.368 66.9834 109.762 67.0806 110.199 67.0806ZM123.406 64.6887C123.406 64.8151 123.397 64.995 123.377 65.2284H117.266C117.373 65.802 117.65 66.259 118.098 66.5993C118.555 66.9299 119.118 67.0952 119.789 67.0952C120.645 67.0952 121.35 66.8132 121.904 66.2493L122.881 67.3723C122.531 67.7904 122.089 68.1064 121.554 68.3203C121.019 68.5342 120.417 68.6412 119.746 68.6412C118.89 68.6412 118.136 68.471 117.485 68.1307C116.834 67.7904 116.328 67.3188 115.968 66.716C115.618 66.1034 115.443 65.4131 115.443 64.645C115.443 63.8866 115.613 63.206 115.954 62.6031C116.304 61.9906 116.785 61.5141 117.397 61.1738C118.01 60.8335 118.7 60.6634 119.469 60.6634C120.227 60.6634 120.903 60.8335 121.496 61.1738C122.099 61.5044 122.565 61.976 122.896 62.5885C123.236 63.1914 123.406 63.8914 123.406 64.6887ZM119.469 62.1218C118.885 62.1218 118.389 62.2968 117.981 62.6469C117.582 62.9872 117.339 63.4442 117.252 64.0178H121.671C121.593 63.4539 121.355 62.9969 120.956 62.6469C120.557 62.2968 120.062 62.1218 119.469 62.1218ZM126.893 61.8885C127.418 61.0717 128.342 60.6634 129.664 60.6634V62.3989C129.509 62.3698 129.368 62.3552 129.241 62.3552C128.531 62.3552 127.977 62.5642 127.579 62.9823C127.18 63.3907 126.981 63.9838 126.981 64.7616V68.5391H125.158V60.7509H126.893V61.8885ZM133.646 68.6412C133.014 68.6412 132.396 68.5585 131.793 68.3932C131.191 68.2279 130.709 68.0189 130.35 67.7661L131.05 66.3805C131.4 66.6139 131.818 66.8035 132.304 66.9493C132.8 67.0855 133.286 67.1535 133.762 67.1535C134.851 67.1535 135.396 66.8667 135.396 66.293C135.396 66.0208 135.255 65.8312 134.973 65.7242C134.701 65.6173 134.258 65.5152 133.646 65.418C133.004 65.3207 132.479 65.2089 132.071 65.0825C131.672 64.9561 131.322 64.7373 131.02 64.4262C130.729 64.1053 130.583 63.6629 130.583 63.099C130.583 62.36 130.889 61.7718 131.502 61.3343C132.124 60.887 132.96 60.6634 134.01 60.6634C134.545 60.6634 135.08 60.7266 135.615 60.853C136.149 60.9696 136.587 61.1301 136.927 61.3343L136.227 62.7198C135.566 62.3309 134.822 62.1364 133.996 62.1364C133.461 62.1364 133.053 62.2191 132.771 62.3844C132.498 62.5399 132.362 62.749 132.362 63.0115C132.362 63.3032 132.508 63.5122 132.8 63.6386C133.101 63.7553 133.563 63.8671 134.185 63.9741C134.808 64.0713 135.318 64.1831 135.717 64.3095C136.115 64.4359 136.456 64.6498 136.738 64.9512C137.029 65.2527 137.175 65.6805 137.175 66.2347C137.175 66.9639 136.859 67.5473 136.227 67.9848C135.595 68.4224 134.735 68.6412 133.646 68.6412ZM142.245 68.6412C141.458 68.6412 140.748 68.471 140.116 68.1307C139.484 67.7904 138.988 67.3188 138.628 66.716C138.278 66.1034 138.103 65.4131 138.103 64.645C138.103 63.8768 138.278 63.1914 138.628 62.5885C138.988 61.9857 139.484 61.5141 140.116 61.1738C140.748 60.8335 141.458 60.6634 142.245 60.6634C143.043 60.6634 143.757 60.8335 144.389 61.1738C145.021 61.5141 145.512 61.9857 145.862 62.5885C146.222 63.1914 146.402 63.8768 146.402 64.645C146.402 65.4131 146.222 66.1034 145.862 66.716C145.512 67.3188 145.021 67.7904 144.389 68.1307C143.757 68.471 143.043 68.6412 142.245 68.6412ZM142.245 67.0806C142.916 67.0806 143.471 66.857 143.908 66.4097C144.346 65.9624 144.564 65.3742 144.564 64.645C144.564 63.9157 144.346 63.3275 143.908 62.8802C143.471 62.433 142.916 62.2093 142.245 62.2093C141.575 62.2093 141.02 62.433 140.583 62.8802C140.155 63.3275 139.941 63.9157 139.941 64.645C139.941 65.3742 140.155 65.9624 140.583 66.4097C141.02 66.857 141.575 67.0806 142.245 67.0806ZM152.565 60.6634C153.547 60.6634 154.334 60.9502 154.927 61.5239C155.52 62.0975 155.817 62.9483 155.817 64.0762V68.5391H153.994V64.3095C153.994 63.6289 153.833 63.1184 153.513 62.7781C153.192 62.4281 152.735 62.2531 152.142 62.2531C151.471 62.2531 150.941 62.4573 150.552 62.8656C150.163 63.2643 149.968 63.8428 149.968 64.6012V68.5391H148.145V60.7509H149.881V61.7572C150.182 61.3975 150.562 61.1252 151.019 60.9405C151.476 60.7557 151.991 60.6634 152.565 60.6634ZM161.105 60.6634C162.252 60.6634 163.127 60.9405 163.73 61.4947C164.343 62.0392 164.649 62.8656 164.649 63.9741V68.5391H162.928V67.5911C162.704 67.9314 162.383 68.1939 161.965 68.3786C161.557 68.5536 161.061 68.6412 160.478 68.6412C159.894 68.6412 159.384 68.5439 158.946 68.3495C158.509 68.1453 158.168 67.8682 157.925 67.5181C157.692 67.1584 157.575 66.7549 157.575 66.3076C157.575 65.6076 157.833 65.0485 158.348 64.6304C158.873 64.2026 159.695 63.9887 160.813 63.9887H162.826V63.872C162.826 63.3275 162.661 62.9094 162.33 62.6177C162.009 62.326 161.528 62.1802 160.886 62.1802C160.449 62.1802 160.016 62.2482 159.588 62.3844C159.17 62.5205 158.815 62.7101 158.523 62.9532L157.809 61.626C158.217 61.3148 158.708 61.0766 159.282 60.9113C159.855 60.746 160.463 60.6634 161.105 60.6634ZM160.857 67.314C161.314 67.314 161.717 67.2119 162.067 67.0077C162.427 66.7938 162.68 66.4924 162.826 66.1034V65.1992H160.944C159.894 65.1992 159.369 65.5444 159.369 66.2347C159.369 66.5653 159.501 66.8278 159.763 67.0223C160.026 67.2167 160.39 67.314 160.857 67.314ZM166.989 57.7173H168.812V68.5391H166.989V57.7173ZM171.204 60.7509H173.028V68.5391H171.204V60.7509ZM172.123 59.4674C171.793 59.4674 171.516 59.3653 171.292 59.1612C171.068 58.9472 170.957 58.6847 170.957 58.3736C170.957 58.0624 171.068 57.8048 171.292 57.6006C171.516 57.3867 171.793 57.2797 172.123 57.2797C172.454 57.2797 172.731 57.3818 172.955 57.586C173.178 57.7805 173.29 58.0284 173.29 58.3298C173.29 58.6507 173.178 58.9229 172.955 59.1466C172.741 59.3605 172.464 59.4674 172.123 59.4674ZM177.827 68.6412C177.195 68.6412 176.577 68.5585 175.975 68.3932C175.372 68.2279 174.89 68.0189 174.531 67.7661L175.231 66.3805C175.581 66.6139 175.999 66.8035 176.485 66.9493C176.981 67.0855 177.467 67.1535 177.943 67.1535C179.032 67.1535 179.577 66.8667 179.577 66.293C179.577 66.0208 179.436 65.8312 179.154 65.7242C178.882 65.6173 178.439 65.5152 177.827 65.418C177.185 65.3207 176.66 65.2089 176.252 65.0825C175.853 64.9561 175.503 64.7373 175.202 64.4262C174.91 64.1053 174.764 63.6629 174.764 63.099C174.764 62.36 175.07 61.7718 175.683 61.3343C176.305 60.887 177.141 60.6634 178.191 60.6634C178.726 60.6634 179.261 60.7266 179.796 60.853C180.33 60.9696 180.768 61.1301 181.108 61.3343L180.408 62.7198C179.747 62.3309 179.003 62.1364 178.177 62.1364C177.642 62.1364 177.234 62.2191 176.952 62.3844C176.679 62.5399 176.543 62.749 176.543 63.0115C176.543 63.3032 176.689 63.5122 176.981 63.6386C177.282 63.7553 177.744 63.8671 178.366 63.9741C178.989 64.0713 179.499 64.1831 179.898 64.3095C180.296 64.4359 180.637 64.6498 180.919 64.9512C181.21 65.2527 181.356 65.6805 181.356 66.2347C181.356 66.9639 181.04 67.5473 180.408 67.9848C179.776 68.4224 178.916 68.6412 177.827 68.6412ZM190.248 64.6887C190.248 64.8151 190.238 64.995 190.219 65.2284H184.108C184.215 65.802 184.492 66.259 184.939 66.5993C185.396 66.9299 185.96 67.0952 186.631 67.0952C187.486 67.0952 188.191 66.8132 188.746 66.2493L189.723 67.3723C189.373 67.7904 188.93 68.1064 188.396 68.3203C187.861 68.5342 187.258 68.6412 186.587 68.6412C185.731 68.6412 184.978 68.471 184.326 68.1307C183.675 67.7904 183.169 67.3188 182.81 66.716C182.46 66.1034 182.285 65.4131 182.285 64.645C182.285 63.8866 182.455 63.206 182.795 62.6031C183.145 61.9906 183.626 61.5141 184.239 61.1738C184.851 60.8335 185.542 60.6634 186.31 60.6634C187.068 60.6634 187.744 60.8335 188.337 61.1738C188.94 61.5044 189.407 61.976 189.737 62.5885C190.078 63.1914 190.248 63.8914 190.248 64.6887ZM186.31 62.1218C185.727 62.1218 185.231 62.2968 184.822 62.6469C184.424 62.9872 184.181 63.4442 184.093 64.0178H188.512C188.434 63.4539 188.196 62.9969 187.798 62.6469C187.399 62.2968 186.903 62.1218 186.31 62.1218ZM199.627 57.7173V68.5391H197.877V67.5327C197.575 67.9022 197.201 68.1793 196.754 68.364C196.316 68.5488 195.83 68.6412 195.295 68.6412C194.546 68.6412 193.871 68.4759 193.268 68.1453C192.675 67.8147 192.208 67.348 191.868 66.7452C191.527 66.1326 191.357 65.4325 191.357 64.645C191.357 63.8574 191.527 63.1622 191.868 62.5594C192.208 61.9565 192.675 61.4898 193.268 61.1592C193.871 60.8287 194.546 60.6634 195.295 60.6634C195.81 60.6634 196.282 60.7509 196.71 60.9259C197.138 61.1009 197.502 61.3634 197.804 61.7135V57.7173H199.627ZM195.514 67.0806C195.951 67.0806 196.345 66.9834 196.695 66.7889C197.045 66.5847 197.322 66.2979 197.527 65.9284C197.731 65.5589 197.833 65.1311 197.833 64.645C197.833 64.1588 197.731 63.731 197.527 63.3615C197.322 62.992 197.045 62.7101 196.695 62.5156C196.345 62.3114 195.951 62.2093 195.514 62.2093C195.076 62.2093 194.683 62.3114 194.332 62.5156C193.982 62.7101 193.705 62.992 193.501 63.3615C193.297 63.731 193.195 64.1588 193.195 64.645C193.195 65.1311 193.297 65.5589 193.501 65.9284C193.705 66.2979 193.982 66.5847 194.332 66.7889C194.683 66.9834 195.076 67.0806 195.514 67.0806ZM209.616 68.6412C208.809 68.6412 208.084 68.471 207.442 68.1307C206.801 67.7904 206.3 67.3188 205.94 66.716C205.58 66.1034 205.401 65.4131 205.401 64.645C205.401 63.8768 205.58 63.1914 205.94 62.5885C206.3 61.9857 206.796 61.5141 207.428 61.1738C208.07 60.8335 208.799 60.6634 209.616 60.6634C210.384 60.6634 211.055 60.8189 211.628 61.1301C212.212 61.4412 212.649 61.8885 212.941 62.4719L211.541 63.2886C211.317 62.9288 211.035 62.6615 210.695 62.4864C210.364 62.3017 210 62.2093 209.601 62.2093C208.92 62.2093 208.356 62.433 207.909 62.8802C207.462 63.3178 207.238 63.906 207.238 64.645C207.238 65.3839 207.457 65.977 207.895 66.4243C208.342 66.8618 208.911 67.0806 209.601 67.0806C210 67.0806 210.364 66.9931 210.695 66.8181C211.035 66.6333 211.317 66.3611 211.541 66.0013L212.941 66.8181C212.639 67.4015 212.197 67.8536 211.614 68.1744C211.04 68.4856 210.374 68.6412 209.616 68.6412ZM217.492 60.6634C218.639 60.6634 219.514 60.9405 220.117 61.4947C220.73 62.0392 221.036 62.8656 221.036 63.9741V68.5391H219.315V67.5911C219.091 67.9314 218.771 68.1939 218.353 68.3786C217.944 68.5536 217.448 68.6412 216.865 68.6412C216.282 68.6412 215.771 68.5439 215.334 68.3495C214.896 68.1453 214.556 67.8682 214.313 67.5181C214.079 67.1584 213.963 66.7549 213.963 66.3076C213.963 65.6076 214.22 65.0485 214.736 64.6304C215.261 64.2026 216.082 63.9887 217.2 63.9887H219.213V63.872C219.213 63.3275 219.048 62.9094 218.717 62.6177C218.396 62.326 217.915 62.1802 217.273 62.1802C216.836 62.1802 216.403 62.2482 215.975 62.3844C215.557 62.5205 215.202 62.7101 214.911 62.9532L214.196 61.626C214.604 61.3148 215.095 61.0766 215.669 60.9113C216.243 60.746 216.85 60.6634 217.492 60.6634ZM217.244 67.314C217.701 67.314 218.105 67.2119 218.455 67.0077C218.814 66.7938 219.067 66.4924 219.213 66.1034V65.1992H217.332C216.282 65.1992 215.756 65.5444 215.756 66.2347C215.756 66.5653 215.888 66.8278 216.15 67.0223C216.413 67.2167 216.777 67.314 217.244 67.314ZM225.111 61.8885C225.636 61.0717 226.56 60.6634 227.882 60.6634V62.3989C227.727 62.3698 227.586 62.3552 227.46 62.3552C226.75 62.3552 226.196 62.5642 225.797 62.9823C225.398 63.3907 225.199 63.9838 225.199 64.7616V68.5391H223.376V60.7509H225.111V61.8885ZM236.679 64.6887C236.679 64.8151 236.67 64.995 236.65 65.2284H230.539C230.646 65.802 230.923 66.259 231.37 66.5993C231.827 66.9299 232.391 67.0952 233.062 67.0952C233.918 67.0952 234.623 66.8132 235.177 66.2493L236.154 67.3723C235.804 67.7904 235.362 68.1064 234.827 68.3203C234.292 68.5342 233.689 68.6412 233.019 68.6412C232.163 68.6412 231.409 68.471 230.758 68.1307C230.106 67.7904 229.601 67.3188 229.241 66.716C228.891 66.1034 228.716 65.4131 228.716 64.645C228.716 63.8866 228.886 63.206 229.227 62.6031C229.577 61.9906 230.058 61.5141 230.67 61.1738C231.283 60.8335 231.973 60.6634 232.741 60.6634C233.5 60.6634 234.176 60.8335 234.769 61.1738C235.371 61.5044 235.838 61.976 236.169 62.5885C236.509 63.1914 236.679 63.8914 236.679 64.6887ZM232.741 62.1218C232.158 62.1218 231.662 62.2968 231.254 62.6469C230.855 62.9872 230.612 63.4442 230.525 64.0178H234.944C234.866 63.4539 234.628 62.9969 234.229 62.6469C233.83 62.2968 233.335 62.1218 232.741 62.1218ZM245.752 64.6887C245.752 64.8151 245.742 64.995 245.723 65.2284H239.612C239.719 65.802 239.996 66.259 240.443 66.5993C240.9 66.9299 241.464 67.0952 242.135 67.0952C242.991 67.0952 243.695 66.8132 244.25 66.2493L245.227 67.3723C244.877 67.7904 244.434 68.1064 243.9 68.3203C243.365 68.5342 242.762 68.6412 242.091 68.6412C241.236 68.6412 240.482 68.471 239.831 68.1307C239.179 67.7904 238.674 67.3188 238.314 66.716C237.964 66.1034 237.789 65.4131 237.789 64.645C237.789 63.8866 237.959 63.206 238.299 62.6031C238.649 61.9906 239.13 61.5141 239.743 61.1738C240.356 60.8335 241.046 60.6634 241.814 60.6634C242.572 60.6634 243.248 60.8335 243.841 61.1738C244.444 61.5044 244.911 61.976 245.241 62.5885C245.582 63.1914 245.752 63.8914 245.752 64.6887ZM241.814 62.1218C241.231 62.1218 240.735 62.2968 240.326 62.6469C239.928 62.9872 239.685 63.4442 239.597 64.0178H244.016C243.939 63.4539 243.7 62.9969 243.302 62.6469C242.903 62.2968 242.407 62.1218 241.814 62.1218ZM249.239 61.8885C249.764 61.0717 250.687 60.6634 252.01 60.6634V62.3989C251.854 62.3698 251.713 62.3552 251.587 62.3552C250.877 62.3552 250.323 62.5642 249.924 62.9823C249.525 63.3907 249.326 63.9838 249.326 64.7616V68.5391H247.503V60.7509H249.239V61.8885ZM261.975 60.6634C262.734 60.6634 263.409 60.8287 264.003 61.1592C264.605 61.4898 265.077 61.9565 265.417 62.5594C265.758 63.1622 265.928 63.8574 265.928 64.645C265.928 65.4325 265.758 66.1326 265.417 66.7452C265.077 67.348 264.605 67.8147 264.003 68.1453C263.409 68.4759 262.734 68.6412 261.975 68.6412C260.925 68.6412 260.094 68.2911 259.481 67.5911V71.3685H257.658V60.7509H259.394V61.7718C259.695 61.4023 260.065 61.1252 260.502 60.9405C260.949 60.7557 261.44 60.6634 261.975 60.6634ZM261.771 67.0806C262.442 67.0806 262.991 66.857 263.419 66.4097C263.857 65.9624 264.075 65.3742 264.075 64.645C264.075 63.9157 263.857 63.3275 263.419 62.8802C262.991 62.433 262.442 62.2093 261.771 62.2093C261.334 62.2093 260.94 62.3114 260.59 62.5156C260.24 62.7101 259.963 62.992 259.758 63.3615C259.554 63.731 259.452 64.1588 259.452 64.645C259.452 65.1311 259.554 65.5589 259.758 65.9284C259.963 66.2979 260.24 66.5847 260.59 66.7889C260.94 66.9834 261.334 67.0806 261.771 67.0806ZM267.657 57.7173H269.48V68.5391H267.657V57.7173ZM274.848 60.6634C275.995 60.6634 276.87 60.9405 277.473 61.4947C278.086 62.0392 278.392 62.8656 278.392 63.9741V68.5391H276.671V67.5911C276.447 67.9314 276.126 68.1939 275.708 68.3786C275.3 68.5536 274.804 68.6412 274.221 68.6412C273.637 68.6412 273.127 68.5439 272.689 68.3495C272.252 68.1453 271.911 67.8682 271.668 67.5181C271.435 67.1584 271.318 66.7549 271.318 66.3076C271.318 65.6076 271.576 65.0485 272.091 64.6304C272.616 64.2026 273.438 63.9887 274.556 63.9887H276.569V63.872C276.569 63.3275 276.403 62.9094 276.073 62.6177C275.752 62.326 275.271 62.1802 274.629 62.1802C274.191 62.1802 273.759 62.2482 273.331 62.3844C272.913 62.5205 272.558 62.7101 272.266 62.9532L271.552 61.626C271.96 61.3148 272.451 61.0766 273.025 60.9113C273.598 60.746 274.206 60.6634 274.848 60.6634ZM274.6 67.314C275.057 67.314 275.46 67.2119 275.81 67.0077C276.17 66.7938 276.423 66.4924 276.569 66.1034V65.1992H274.687C273.637 65.1992 273.112 65.5444 273.112 66.2347C273.112 66.5653 273.243 66.8278 273.506 67.0223C273.768 67.2167 274.133 67.314 274.6 67.314ZM285.151 60.6634C286.133 60.6634 286.92 60.9502 287.513 61.5239C288.106 62.0975 288.403 62.9483 288.403 64.0762V68.5391H286.58V64.3095C286.58 63.6289 286.42 63.1184 286.099 62.7781C285.778 62.4281 285.321 62.2531 284.728 62.2531C284.057 62.2531 283.527 62.4573 283.138 62.8656C282.749 63.2643 282.555 63.8428 282.555 64.6012V68.5391H280.732V60.7509H282.467V61.7572C282.769 61.3975 283.148 61.1252 283.605 60.9405C284.062 60.7557 284.577 60.6634 285.151 60.6634Z" fill="#333333"/>
<rect x="46.8154" y="86.1387" width="318.431" height="123.969" fill="#F1F6FF"/>
<g filter="url(#filter2_d)">
<path d="M67.4775 129.112C67.4775 128.201 68.2164 127.462 69.1279 127.462H338.073C338.985 127.462 339.724 128.201 339.724 129.112V181.719C339.724 182.631 338.985 183.37 338.073 183.37H69.1279C68.2164 183.37 67.4775 182.631 67.4775 181.719V129.112Z" fill="white"/>
</g>
<circle cx="100.176" cy="154.89" r="15.8229" fill="#2E5299"/>
<path d="M71.5607 106.768H68.741V105.431H75.9604V106.768H73.1407V113.938H71.5607V106.768ZM79.1355 107.375C80.0916 107.375 80.8208 107.606 81.3232 108.068C81.8336 108.522 82.0889 109.211 82.0889 110.134V113.938H80.6547V113.148C80.4684 113.432 80.201 113.651 79.8526 113.805C79.5122 113.951 79.099 114.024 78.6129 114.024C78.1267 114.024 77.7013 113.943 77.3367 113.78C76.9721 113.61 76.6885 113.379 76.4859 113.088C76.2915 112.788 76.1942 112.452 76.1942 112.079C76.1942 111.496 76.409 111.03 76.8384 110.681C77.2759 110.325 77.9606 110.146 78.8924 110.146H80.5696V110.049C80.5696 109.596 80.4319 109.247 80.1564 109.004C79.889 108.761 79.4879 108.639 78.9532 108.639C78.5886 108.639 78.228 108.696 77.8715 108.81C77.5231 108.923 77.2273 109.081 76.9842 109.284L76.3887 108.178C76.729 107.918 77.1382 107.72 77.6162 107.582C78.0943 107.444 78.6007 107.375 79.1355 107.375ZM78.9289 112.918C79.3097 112.918 79.6459 112.832 79.9376 112.662C80.2374 112.484 80.4481 112.233 80.5696 111.909V111.155H79.0018C78.1267 111.155 77.6892 111.443 77.6892 112.018C77.6892 112.294 77.7986 112.512 78.0173 112.674C78.2361 112.837 78.5399 112.918 78.9289 112.918ZM85.4849 108.396C85.9225 107.716 86.6922 107.375 87.7941 107.375V108.822C87.6645 108.797 87.547 108.785 87.4417 108.785C86.8502 108.785 86.3884 108.959 86.0561 109.308C85.7239 109.648 85.5578 110.142 85.5578 110.791V113.938H84.0386V107.448H85.4849V108.396ZM95.4651 107.448V112.954C95.4651 115.239 94.2984 116.381 91.9648 116.381C91.3409 116.381 90.7494 116.3 90.1904 116.138C89.6313 115.984 89.1694 115.758 88.8048 115.458L89.4854 114.315C89.769 114.55 90.1255 114.737 90.555 114.874C90.9925 115.02 91.4341 115.093 91.8797 115.093C92.5928 115.093 93.1154 114.931 93.4476 114.607C93.7798 114.283 93.9459 113.789 93.9459 113.124V112.784C93.6866 113.067 93.3706 113.282 92.9979 113.428C92.6252 113.574 92.216 113.647 91.7704 113.647C91.1546 113.647 90.5955 113.517 90.0931 113.258C89.5989 112.99 89.2059 112.618 88.9142 112.14C88.6306 111.662 88.4888 111.115 88.4888 110.499C88.4888 109.883 88.6306 109.34 88.9142 108.87C89.2059 108.392 89.5989 108.024 90.0931 107.764C90.5955 107.505 91.1546 107.375 91.7704 107.375C92.2403 107.375 92.6657 107.452 93.0465 107.606C93.4354 107.76 93.7595 107.995 94.0188 108.311V107.448H95.4651ZM92.0013 112.358C92.5766 112.358 93.0465 112.188 93.4111 111.848C93.7838 111.5 93.9702 111.05 93.9702 110.499C93.9702 109.956 93.7838 109.514 93.4111 109.174C93.0465 108.834 92.5766 108.664 92.0013 108.664C91.4179 108.664 90.9398 108.834 90.5671 109.174C90.2025 109.514 90.0202 109.956 90.0202 110.499C90.0202 111.05 90.2025 111.5 90.5671 111.848C90.9398 112.188 91.4179 112.358 92.0013 112.358ZM103.564 110.73C103.564 110.835 103.556 110.985 103.539 111.18H98.4469C98.536 111.658 98.7669 112.038 99.1397 112.322C99.5205 112.598 99.9904 112.735 100.55 112.735C101.263 112.735 101.85 112.5 102.312 112.03L103.126 112.966C102.834 113.315 102.466 113.578 102.02 113.756C101.574 113.934 101.072 114.024 100.513 114.024C99.8 114.024 99.1721 113.882 98.6292 113.598C98.0863 113.315 97.665 112.922 97.3652 112.419C97.0735 111.909 96.9277 111.334 96.9277 110.693C96.9277 110.061 97.0695 109.494 97.3531 108.992C97.6447 108.481 98.0458 108.084 98.5563 107.801C99.0667 107.517 99.642 107.375 100.282 107.375C100.914 107.375 101.477 107.517 101.972 107.801C102.474 108.076 102.863 108.469 103.138 108.98C103.422 109.482 103.564 110.065 103.564 110.73ZM100.282 108.591C99.796 108.591 99.3827 108.737 99.0424 109.028C98.7102 109.312 98.5077 109.693 98.4347 110.171H102.117C102.053 109.701 101.854 109.32 101.522 109.028C101.19 108.737 100.776 108.591 100.282 108.591ZM108.924 113.586C108.746 113.732 108.527 113.841 108.268 113.914C108.017 113.987 107.749 114.024 107.466 114.024C106.753 114.024 106.202 113.837 105.813 113.464C105.424 113.092 105.23 112.549 105.23 111.836V108.712H104.16V107.497H105.23V106.014H106.749V107.497H108.487V108.712H106.749V111.799C106.749 112.115 106.826 112.358 106.98 112.529C107.134 112.691 107.357 112.772 107.648 112.772C107.989 112.772 108.272 112.683 108.499 112.504L108.924 113.586ZM114.979 108.396C115.417 107.716 116.187 107.375 117.289 107.375V108.822C117.159 108.797 117.041 108.785 116.936 108.785C116.345 108.785 115.883 108.959 115.551 109.308C115.218 109.648 115.052 110.142 115.052 110.791V113.938H113.533V107.448H114.979V108.396ZM121.435 114.024C120.779 114.024 120.187 113.882 119.66 113.598C119.134 113.315 118.721 112.922 118.421 112.419C118.129 111.909 117.983 111.334 117.983 110.693C117.983 110.053 118.129 109.482 118.421 108.98C118.721 108.477 119.134 108.084 119.66 107.801C120.187 107.517 120.779 107.375 121.435 107.375C122.099 107.375 122.695 107.517 123.222 107.801C123.748 108.084 124.157 108.477 124.449 108.98C124.749 109.482 124.899 110.053 124.899 110.693C124.899 111.334 124.749 111.909 124.449 112.419C124.157 112.922 123.748 113.315 123.222 113.598C122.695 113.882 122.099 114.024 121.435 114.024ZM121.435 112.723C121.994 112.723 122.456 112.537 122.82 112.164C123.185 111.791 123.367 111.301 123.367 110.693C123.367 110.086 123.185 109.596 122.82 109.223C122.456 108.85 121.994 108.664 121.435 108.664C120.876 108.664 120.414 108.85 120.049 109.223C119.693 109.596 119.515 110.086 119.515 110.693C119.515 111.301 119.693 111.791 120.049 112.164C120.414 112.537 120.876 112.723 121.435 112.723ZM126.352 104.92H127.871V113.938H126.352V104.92ZM135.966 110.73C135.966 110.835 135.958 110.985 135.942 111.18H130.849C130.938 111.658 131.169 112.038 131.542 112.322C131.923 112.598 132.393 112.735 132.952 112.735C133.665 112.735 134.252 112.5 134.714 112.03L135.528 112.966C135.237 113.315 134.868 113.578 134.422 113.756C133.977 113.934 133.474 114.024 132.915 114.024C132.202 114.024 131.574 113.882 131.032 113.598C130.489 113.315 130.067 112.922 129.768 112.419C129.476 111.909 129.33 111.334 129.33 110.693C129.33 110.061 129.472 109.494 129.755 108.992C130.047 108.481 130.448 108.084 130.959 107.801C131.469 107.517 132.044 107.375 132.684 107.375C133.316 107.375 133.88 107.517 134.374 107.801C134.876 108.076 135.265 108.469 135.541 108.98C135.824 109.482 135.966 110.065 135.966 110.73ZM132.684 108.591C132.198 108.591 131.785 108.737 131.445 109.028C131.113 109.312 130.91 109.693 130.837 110.171H134.52C134.455 109.701 134.256 109.32 133.924 109.028C133.592 108.737 133.179 108.591 132.684 108.591Z" fill="#333333"/>
<g filter="url(#filter3_d)">
<path d="M124.6 309.053C124.6 308.106 125.367 307.339 126.313 307.339H325.855C326.802 307.339 327.569 308.106 327.569 309.053V363.963C327.569 364.91 326.802 365.677 325.855 365.677H126.313C125.367 365.677 124.6 364.91 124.6 363.963V309.053Z" fill="white"/>
<path d="M125.207 309.053C125.207 308.442 125.703 307.947 126.313 307.947H325.855C326.466 307.947 326.961 308.442 326.961 309.053V363.963C326.961 364.574 326.466 365.07 325.855 365.07H126.313C125.703 365.07 125.207 364.574 125.207 363.963V309.053Z" stroke="#B7D2E7" stroke-width="1.21538"/>
</g>
<circle cx="152.769" cy="343.77" r="3.28632" fill="#E4E4E6"/>
<rect x="147.293" y="326.241" width="44.913" height="6.57264" rx="3.28632" fill="#E4E4E6"/>
<rect x="235.433" y="326.241" width="44.913" height="6.57264" rx="3.28632" fill="#E4E4E6"/>
<rect x="162.628" y="340.483" width="108.449" height="6.57264" rx="3.28632" fill="#E4E4E6"/>
<rect x="200.97" y="326.241" width="23.0042" height="6.57264" rx="3.28632" fill="#E4E4E6"/>
<g filter="url(#filter4_d)">
<path d="M124.6 232.482C124.6 231.536 125.367 230.769 126.313 230.769H325.855C326.802 230.769 327.569 231.536 327.569 232.482V287.393C327.569 288.34 326.802 289.107 325.855 289.107H126.313C125.367 289.107 124.6 288.34 124.6 287.393V232.482Z" fill="white"/>
<path d="M125.207 232.482C125.207 231.871 125.703 231.376 126.313 231.376H325.855C326.466 231.376 326.961 231.871 326.961 232.482V287.393C326.961 288.004 326.466 288.499 325.855 288.499H126.313C125.703 288.499 125.207 288.004 125.207 287.393V232.482Z" stroke="#B7D2E7" stroke-width="1.21538"/>
</g>
<circle cx="152.769" cy="266.92" r="3.28632" fill="#E4E4E6"/>
<rect x="147.293" y="249.392" width="44.913" height="6.57264" rx="3.28632" fill="#E4E4E6"/>
<rect x="235.433" y="249.392" width="44.913" height="6.57264" rx="3.28632" fill="#E4E4E6"/>
<rect x="162.628" y="263.634" width="108.449" height="6.57264" rx="3.28632" fill="#E4E4E6"/>
<rect x="200.97" y="249.392" width="23.0042" height="6.57264" rx="3.28632" fill="#E4E4E6"/>
<path d="M95.4307 211.931V391.808" stroke="#E4E4E6" stroke-width="1.21538"/>
<circle cx="96.0391" cy="260.546" r="6.68462" fill="white"/>
<path fill-rule="evenodd" clip-rule="evenodd" d="M106.369 259.938C106.369 265.98 101.472 270.877 95.4306 270.877C89.3895 270.877 84.4922 265.98 84.4922 259.938C84.4922 253.897 89.3895 249 95.4306 249C101.472 249 106.369 253.897 106.369 259.938ZM91.1312 258.927L93.8265 261.393L99.6582 255.563L101.264 257.169L93.8961 264.538L89.5967 260.604L91.1312 258.927Z" fill="#00A908"/>
<circle cx="96.0391" cy="329.822" r="6.68462" fill="white"/>
<path fill-rule="evenodd" clip-rule="evenodd" d="M106.369 330.431C106.369 336.472 101.472 341.369 95.4306 341.369C89.3895 341.369 84.4922 336.472 84.4922 330.431C84.4922 324.39 89.3895 319.492 95.4306 319.492C101.472 319.492 106.369 324.39 106.369 330.431ZM91.1312 329.419L93.8265 331.885L99.6582 326.055L101.264 327.661L93.8961 335.03L89.5967 331.096L91.1312 329.419Z" fill="#A0A5AE"/>
<path d="M131.852 149.482H132.416V151.603C132.156 151.83 131.849 152.005 131.494 152.127C131.14 152.248 130.766 152.309 130.375 152.309C129.819 152.309 129.318 152.188 128.874 151.944C128.429 151.701 128.08 151.364 127.825 150.935C127.571 150.501 127.444 150.017 127.444 149.482C127.444 148.947 127.571 148.466 127.825 148.037C128.08 147.603 128.429 147.264 128.874 147.02C129.318 146.777 129.821 146.655 130.383 146.655C130.806 146.655 131.195 146.724 131.55 146.861C131.905 146.994 132.204 147.192 132.447 147.457L132.082 147.83C131.643 147.396 131.084 147.179 130.406 147.179C129.956 147.179 129.549 147.28 129.183 147.481C128.823 147.677 128.54 147.952 128.334 148.307C128.127 148.656 128.024 149.048 128.024 149.482C128.024 149.916 128.127 150.308 128.334 150.658C128.54 151.007 128.823 151.282 129.183 151.483C129.543 151.685 129.948 151.785 130.398 151.785C130.97 151.785 131.455 151.642 131.852 151.356V149.482ZM134.5 148.902C134.632 148.622 134.828 148.41 135.088 148.267C135.352 148.124 135.678 148.053 136.064 148.053V148.601L135.929 148.593C135.49 148.593 135.146 148.728 134.897 148.998C134.648 149.268 134.524 149.646 134.524 150.133V152.262H133.96V148.084H134.5V148.902ZM138.539 148.053C139.084 148.053 139.502 148.19 139.794 148.466C140.085 148.736 140.23 149.138 140.23 149.673V152.262H139.69V151.611C139.563 151.828 139.375 151.997 139.126 152.119C138.883 152.241 138.592 152.301 138.253 152.301C137.787 152.301 137.416 152.19 137.141 151.968C136.866 151.746 136.728 151.452 136.728 151.086C136.728 150.732 136.855 150.446 137.109 150.229C137.369 150.012 137.779 149.903 138.34 149.903H139.666V149.649C139.666 149.289 139.566 149.016 139.365 148.831C139.164 148.64 138.87 148.545 138.483 148.545C138.218 148.545 137.964 148.59 137.721 148.68C137.477 148.765 137.268 148.884 137.093 149.037L136.839 148.617C137.051 148.437 137.305 148.299 137.602 148.204C137.898 148.103 138.211 148.053 138.539 148.053ZM138.34 151.857C138.658 151.857 138.931 151.785 139.158 151.642C139.386 151.494 139.555 151.282 139.666 151.007V150.324H138.356C137.641 150.324 137.284 150.573 137.284 151.07C137.284 151.314 137.377 151.507 137.562 151.65C137.747 151.788 138.007 151.857 138.34 151.857ZM145.589 146.369V152.262H145.049V151.436C144.88 151.716 144.655 151.931 144.374 152.079C144.099 152.227 143.787 152.301 143.437 152.301C143.045 152.301 142.691 152.211 142.373 152.031C142.055 151.851 141.806 151.6 141.626 151.277C141.446 150.954 141.356 150.586 141.356 150.173C141.356 149.76 141.446 149.392 141.626 149.069C141.806 148.746 142.055 148.497 142.373 148.323C142.691 148.143 143.045 148.053 143.437 148.053C143.776 148.053 144.08 148.124 144.35 148.267C144.626 148.405 144.851 148.609 145.025 148.879V146.369H145.589ZM143.485 151.801C143.776 151.801 144.038 151.735 144.271 151.603C144.509 151.465 144.695 151.272 144.827 151.023C144.965 150.774 145.033 150.491 145.033 150.173C145.033 149.855 144.965 149.572 144.827 149.323C144.695 149.074 144.509 148.884 144.271 148.752C144.038 148.614 143.776 148.545 143.485 148.545C143.188 148.545 142.921 148.614 142.683 148.752C142.45 148.884 142.264 149.074 142.127 149.323C141.994 149.572 141.928 149.855 141.928 150.173C141.928 150.491 141.994 150.774 142.127 151.023C142.264 151.272 142.45 151.465 142.683 151.603C142.921 151.735 143.188 151.801 143.485 151.801ZM150.797 150.348H147.303C147.334 150.782 147.501 151.134 147.803 151.404C148.105 151.669 148.486 151.801 148.947 151.801C149.206 151.801 149.444 151.756 149.661 151.666C149.878 151.571 150.066 151.433 150.225 151.253L150.543 151.618C150.357 151.841 150.125 152.01 149.844 152.127C149.569 152.243 149.264 152.301 148.931 152.301C148.502 152.301 148.121 152.211 147.787 152.031C147.459 151.846 147.202 151.592 147.017 151.269C146.831 150.946 146.739 150.581 146.739 150.173C146.739 149.765 146.826 149.4 147.001 149.077C147.181 148.754 147.424 148.503 147.731 148.323C148.044 148.143 148.393 148.053 148.78 148.053C149.166 148.053 149.513 148.143 149.82 148.323C150.127 148.503 150.368 148.754 150.543 149.077C150.718 149.395 150.805 149.76 150.805 150.173L150.797 150.348ZM148.78 148.537C148.377 148.537 148.039 148.667 147.763 148.926C147.493 149.18 147.34 149.514 147.303 149.927H150.265C150.228 149.514 150.072 149.18 149.796 148.926C149.526 148.667 149.187 148.537 148.78 148.537ZM157.581 146.703V147.108L155.254 152.262H154.635L156.922 147.211H154.063V148.251H153.499V146.703H157.581ZM158.002 149.863H160.083V150.356H158.002V149.863ZM164.156 149.347C164.505 149.464 164.773 149.638 164.958 149.871C165.148 150.104 165.244 150.385 165.244 150.713C165.244 151.036 165.156 151.319 164.982 151.563C164.807 151.801 164.556 151.986 164.227 152.119C163.904 152.246 163.523 152.309 163.084 152.309C162.417 152.309 161.892 152.166 161.511 151.881C161.13 151.595 160.939 151.205 160.939 150.713C160.939 150.38 161.029 150.099 161.209 149.871C161.395 149.638 161.662 149.464 162.012 149.347C161.726 149.236 161.509 149.077 161.36 148.871C161.212 148.659 161.138 148.41 161.138 148.124C161.138 147.674 161.313 147.317 161.662 147.052C162.017 146.787 162.491 146.655 163.084 146.655C163.475 146.655 163.817 146.716 164.108 146.838C164.405 146.954 164.635 147.123 164.799 147.346C164.963 147.568 165.045 147.828 165.045 148.124C165.045 148.41 164.968 148.659 164.815 148.871C164.661 149.077 164.442 149.236 164.156 149.347ZM161.71 148.14C161.71 148.447 161.832 148.691 162.075 148.871C162.319 149.051 162.655 149.141 163.084 149.141C163.513 149.141 163.849 149.051 164.092 148.871C164.341 148.691 164.466 148.45 164.466 148.148C164.466 147.836 164.338 147.589 164.084 147.409C163.835 147.229 163.502 147.139 163.084 147.139C162.66 147.139 162.324 147.229 162.075 147.409C161.832 147.589 161.71 147.833 161.71 148.14ZM163.084 151.825C163.576 151.825 163.96 151.724 164.235 151.523C164.516 151.322 164.656 151.049 164.656 150.705C164.656 150.361 164.516 150.091 164.235 149.895C163.96 149.694 163.576 149.593 163.084 149.593C162.597 149.593 162.213 149.694 161.932 149.895C161.657 150.091 161.519 150.361 161.519 150.705C161.519 151.055 161.657 151.33 161.932 151.531C162.207 151.727 162.591 151.825 163.084 151.825ZM129.913 164.354C129.412 164.354 128.928 164.283 128.458 164.141C127.995 163.999 127.627 163.811 127.356 163.576L127.772 162.64C128.038 162.85 128.362 163.023 128.745 163.159C129.134 163.289 129.524 163.354 129.913 163.354C130.395 163.354 130.753 163.277 130.988 163.122C131.228 162.968 131.349 162.764 131.349 162.511C131.349 162.325 131.281 162.174 131.145 162.057C131.015 161.933 130.849 161.837 130.645 161.769C130.441 161.701 130.163 161.624 129.811 161.538C129.317 161.42 128.915 161.303 128.606 161.186C128.304 161.068 128.041 160.886 127.819 160.639C127.603 160.386 127.495 160.046 127.495 159.62C127.495 159.262 127.59 158.937 127.782 158.647C127.979 158.351 128.273 158.116 128.662 157.943C129.057 157.77 129.539 157.683 130.107 157.683C130.503 157.683 130.892 157.733 131.275 157.832C131.658 157.93 131.988 158.073 132.266 158.258L131.886 159.194C131.602 159.027 131.306 158.9 130.997 158.814C130.688 158.727 130.388 158.684 130.098 158.684C129.622 158.684 129.267 158.764 129.033 158.925C128.804 159.086 128.69 159.299 128.69 159.564C128.69 159.75 128.755 159.901 128.884 160.018C129.02 160.136 129.19 160.228 129.394 160.296C129.598 160.364 129.876 160.441 130.228 160.528C130.71 160.639 131.105 160.756 131.414 160.88C131.723 160.997 131.985 161.179 132.201 161.427C132.424 161.674 132.535 162.007 132.535 162.427C132.535 162.785 132.436 163.11 132.238 163.4C132.047 163.69 131.753 163.922 131.358 164.095C130.963 164.268 130.481 164.354 129.913 164.354ZM138.269 161.816C138.269 161.896 138.263 162.01 138.251 162.159H134.368C134.436 162.523 134.612 162.813 134.897 163.029C135.187 163.239 135.545 163.344 135.971 163.344C136.515 163.344 136.963 163.165 137.315 162.807L137.936 163.521C137.713 163.786 137.432 163.987 137.092 164.123C136.753 164.259 136.37 164.327 135.944 164.327C135.4 164.327 134.921 164.218 134.507 164.002C134.094 163.786 133.772 163.487 133.544 163.104C133.321 162.714 133.21 162.276 133.21 161.788C133.21 161.306 133.318 160.874 133.535 160.491C133.757 160.102 134.063 159.799 134.452 159.583C134.841 159.367 135.28 159.258 135.767 159.258C136.249 159.258 136.679 159.367 137.055 159.583C137.438 159.793 137.735 160.092 137.945 160.482C138.161 160.864 138.269 161.309 138.269 161.816ZM135.767 160.185C135.397 160.185 135.082 160.296 134.822 160.519C134.569 160.735 134.415 161.025 134.359 161.389H137.167C137.117 161.031 136.966 160.741 136.713 160.519C136.459 160.296 136.144 160.185 135.767 160.185ZM142.189 159.258C142.813 159.258 143.313 159.441 143.69 159.805C144.067 160.17 144.255 160.71 144.255 161.427V164.262H143.097V161.575C143.097 161.142 142.995 160.818 142.791 160.602C142.587 160.38 142.297 160.268 141.92 160.268C141.494 160.268 141.157 160.398 140.91 160.658C140.663 160.911 140.54 161.278 140.54 161.76V164.262H139.382V159.314H140.484V159.953C140.676 159.725 140.917 159.552 141.207 159.435C141.497 159.317 141.825 159.258 142.189 159.258ZM145.724 159.314H146.882V164.262H145.724V159.314ZM146.308 158.499C146.098 158.499 145.922 158.434 145.78 158.304C145.638 158.168 145.567 158.002 145.567 157.804C145.567 157.606 145.638 157.443 145.78 157.313C145.922 157.177 146.098 157.109 146.308 157.109C146.518 157.109 146.694 157.174 146.836 157.304C146.978 157.427 147.049 157.585 147.049 157.776C147.049 157.98 146.978 158.153 146.836 158.295C146.7 158.431 146.524 158.499 146.308 158.499ZM150.626 164.327C150.126 164.327 149.675 164.218 149.273 164.002C148.872 163.786 148.557 163.487 148.328 163.104C148.106 162.714 147.995 162.276 147.995 161.788C147.995 161.3 148.106 160.864 148.328 160.482C148.557 160.099 148.872 159.799 149.273 159.583C149.675 159.367 150.126 159.258 150.626 159.258C151.133 159.258 151.587 159.367 151.988 159.583C152.39 159.799 152.702 160.099 152.924 160.482C153.152 160.864 153.267 161.3 153.267 161.788C153.267 162.276 153.152 162.714 152.924 163.104C152.702 163.487 152.39 163.786 151.988 164.002C151.587 164.218 151.133 164.327 150.626 164.327ZM150.626 163.335C151.052 163.335 151.404 163.193 151.682 162.909C151.96 162.625 152.099 162.251 152.099 161.788C152.099 161.325 151.96 160.951 151.682 160.667C151.404 160.383 151.052 160.241 150.626 160.241C150.2 160.241 149.848 160.383 149.57 160.667C149.298 160.951 149.162 161.325 149.162 161.788C149.162 162.251 149.298 162.625 149.57 162.909C149.848 163.193 150.2 163.335 150.626 163.335ZM155.477 160.037C155.81 159.518 156.397 159.258 157.237 159.258V160.361C157.138 160.343 157.049 160.333 156.968 160.333C156.518 160.333 156.166 160.466 155.912 160.732C155.659 160.991 155.532 161.368 155.532 161.862V164.262H154.374V159.314H155.477V160.037ZM166.866 157.776L164.041 164.262H162.855L160.019 157.776H161.326L163.485 162.779L165.662 157.776H166.866ZM167.485 159.314H168.643V164.262H167.485V159.314ZM168.069 158.499C167.859 158.499 167.683 158.434 167.54 158.304C167.398 158.168 167.327 158.002 167.327 157.804C167.327 157.606 167.398 157.443 167.54 157.313C167.683 157.177 167.859 157.109 168.069 157.109C168.279 157.109 168.455 157.174 168.597 157.304C168.739 157.427 168.81 157.585 168.81 157.776C168.81 157.98 168.739 158.153 168.597 158.295C168.461 158.431 168.285 158.499 168.069 158.499ZM171.692 164.327C171.29 164.327 170.898 164.274 170.515 164.169C170.132 164.064 169.826 163.931 169.598 163.771L170.043 162.89C170.265 163.039 170.531 163.159 170.839 163.252C171.155 163.338 171.463 163.382 171.766 163.382C172.458 163.382 172.804 163.199 172.804 162.835C172.804 162.662 172.714 162.541 172.535 162.474C172.362 162.406 172.081 162.341 171.692 162.279C171.284 162.217 170.951 162.146 170.691 162.066C170.438 161.986 170.216 161.847 170.024 161.649C169.839 161.445 169.746 161.164 169.746 160.806C169.746 160.336 169.941 159.963 170.33 159.685C170.725 159.401 171.256 159.258 171.924 159.258C172.263 159.258 172.603 159.299 172.943 159.379C173.282 159.453 173.56 159.555 173.777 159.685L173.332 160.565C172.912 160.318 172.439 160.194 171.914 160.194C171.575 160.194 171.315 160.247 171.136 160.352C170.963 160.451 170.877 160.583 170.877 160.75C170.877 160.936 170.969 161.068 171.155 161.149C171.346 161.223 171.639 161.294 172.035 161.362C172.43 161.423 172.754 161.495 173.008 161.575C173.261 161.655 173.477 161.791 173.656 161.982C173.841 162.174 173.934 162.446 173.934 162.798C173.934 163.261 173.733 163.632 173.332 163.91C172.93 164.188 172.384 164.327 171.692 164.327ZM179.722 159.314V164.262H178.619V163.632C178.434 163.854 178.202 164.027 177.924 164.151C177.646 164.268 177.347 164.327 177.025 164.327C176.364 164.327 175.843 164.144 175.46 163.78C175.083 163.409 174.894 162.863 174.894 162.14V159.314H176.053V161.982C176.053 162.427 176.151 162.761 176.349 162.983C176.553 163.199 176.84 163.307 177.211 163.307C177.625 163.307 177.952 163.181 178.193 162.928C178.44 162.668 178.563 162.297 178.563 161.816V159.314H179.722ZM183.128 159.258C183.857 159.258 184.413 159.435 184.796 159.787C185.185 160.133 185.38 160.658 185.38 161.362V164.262H184.286V163.659C184.144 163.876 183.94 164.042 183.675 164.16C183.415 164.271 183.1 164.327 182.73 164.327C182.359 164.327 182.035 164.265 181.757 164.141C181.479 164.012 181.263 163.836 181.108 163.613C180.96 163.385 180.886 163.128 180.886 162.844C180.886 162.399 181.05 162.044 181.377 161.779C181.71 161.507 182.232 161.371 182.943 161.371H184.221V161.297C184.221 160.951 184.116 160.685 183.906 160.5C183.703 160.315 183.397 160.222 182.989 160.222C182.711 160.222 182.436 160.265 182.164 160.352C181.899 160.438 181.673 160.559 181.488 160.713L181.034 159.87C181.294 159.672 181.605 159.521 181.97 159.416C182.334 159.311 182.72 159.258 183.128 159.258ZM182.971 163.483C183.261 163.483 183.517 163.419 183.74 163.289C183.968 163.153 184.129 162.961 184.221 162.714V162.14H183.026C182.359 162.14 182.026 162.359 182.026 162.798C182.026 163.008 182.109 163.175 182.276 163.298C182.442 163.422 182.674 163.483 182.971 163.483ZM186.866 157.387H188.024V164.262H186.866V157.387ZM195.218 164.354C194.563 164.354 193.97 164.212 193.439 163.928C192.914 163.638 192.5 163.239 192.197 162.733C191.901 162.226 191.753 161.655 191.753 161.019C191.753 160.383 191.904 159.811 192.207 159.305C192.509 158.798 192.923 158.403 193.448 158.119C193.979 157.829 194.572 157.683 195.227 157.683C195.758 157.683 196.243 157.776 196.682 157.961C197.12 158.147 197.491 158.415 197.794 158.767L197.015 159.499C196.546 158.993 195.968 158.74 195.283 158.74C194.838 158.74 194.44 158.838 194.087 159.036C193.735 159.228 193.461 159.496 193.263 159.842C193.065 160.188 192.966 160.58 192.966 161.019C192.966 161.457 193.065 161.85 193.263 162.196C193.461 162.541 193.735 162.813 194.087 163.011C194.44 163.202 194.838 163.298 195.283 163.298C195.968 163.298 196.546 163.042 197.015 162.529L197.794 163.27C197.491 163.622 197.117 163.891 196.672 164.076C196.234 164.262 195.749 164.354 195.218 164.354ZM200.879 164.327C200.379 164.327 199.928 164.218 199.526 164.002C199.125 163.786 198.81 163.487 198.581 163.104C198.359 162.714 198.248 162.276 198.248 161.788C198.248 161.3 198.359 160.864 198.581 160.482C198.81 160.099 199.125 159.799 199.526 159.583C199.928 159.367 200.379 159.258 200.879 159.258C201.386 159.258 201.84 159.367 202.241 159.583C202.643 159.799 202.955 160.099 203.177 160.482C203.405 160.864 203.52 161.3 203.52 161.788C203.52 162.276 203.405 162.714 203.177 163.104C202.955 163.487 202.643 163.786 202.241 164.002C201.84 164.218 201.386 164.327 200.879 164.327ZM200.879 163.335C201.305 163.335 201.657 163.193 201.935 162.909C202.213 162.625 202.352 162.251 202.352 161.788C202.352 161.325 202.213 160.951 201.935 160.667C201.657 160.383 201.305 160.241 200.879 160.241C200.453 160.241 200.101 160.383 199.823 160.667C199.551 160.951 199.415 161.325 199.415 161.788C199.415 162.251 199.551 162.625 199.823 162.909C200.101 163.193 200.453 163.335 200.879 163.335ZM210.872 159.258C211.496 159.258 211.99 159.441 212.354 159.805C212.719 160.163 212.901 160.704 212.901 161.427V164.262H211.743V161.575C211.743 161.142 211.647 160.818 211.456 160.602C211.264 160.38 210.989 160.268 210.631 160.268C210.242 160.268 209.93 160.398 209.695 160.658C209.461 160.911 209.343 161.275 209.343 161.751V164.262H208.185V161.575C208.185 161.142 208.089 160.818 207.898 160.602C207.706 160.38 207.432 160.268 207.073 160.268C206.678 160.268 206.363 160.395 206.128 160.648C205.9 160.902 205.785 161.269 205.785 161.751V164.262H204.627V159.314H205.73V159.944C205.915 159.722 206.147 159.552 206.425 159.435C206.703 159.317 207.011 159.258 207.351 159.258C207.722 159.258 208.049 159.33 208.333 159.472C208.624 159.607 208.852 159.811 209.019 160.083C209.223 159.824 209.485 159.623 209.806 159.481C210.128 159.333 210.483 159.258 210.872 159.258ZM220.626 159.258C221.25 159.258 221.744 159.441 222.108 159.805C222.473 160.163 222.655 160.704 222.655 161.427V164.262H221.497V161.575C221.497 161.142 221.401 160.818 221.21 160.602C221.018 160.38 220.743 160.268 220.385 160.268C219.996 160.268 219.684 160.398 219.449 160.658C219.214 160.911 219.097 161.275 219.097 161.751V164.262H217.939V161.575C217.939 161.142 217.843 160.818 217.652 160.602C217.46 160.38 217.185 160.268 216.827 160.268C216.432 160.268 216.117 160.395 215.882 160.648C215.653 160.902 215.539 161.269 215.539 161.751V164.262H214.381V159.314H215.484V159.944C215.669 159.722 215.901 159.552 216.179 159.435C216.456 159.317 216.765 159.258 217.105 159.258C217.476 159.258 217.803 159.33 218.087 159.472C218.377 159.607 218.606 159.811 218.773 160.083C218.977 159.824 219.239 159.623 219.56 159.481C219.882 159.333 220.237 159.258 220.626 159.258ZM228.925 159.314V164.262H227.822V163.632C227.637 163.854 227.406 164.027 227.128 164.151C226.85 164.268 226.55 164.327 226.229 164.327C225.568 164.327 225.046 164.144 224.663 163.78C224.286 163.409 224.098 162.863 224.098 162.14V159.314H225.256V161.982C225.256 162.427 225.355 162.761 225.552 162.983C225.756 163.199 226.044 163.307 226.414 163.307C226.828 163.307 227.155 163.181 227.396 162.928C227.643 162.668 227.767 162.297 227.767 161.816V159.314H228.925ZM233.249 159.258C233.873 159.258 234.373 159.441 234.75 159.805C235.126 160.17 235.315 160.71 235.315 161.427V164.262H234.157V161.575C234.157 161.142 234.055 160.818 233.851 160.602C233.647 160.38 233.357 160.268 232.98 160.268C232.554 160.268 232.217 160.398 231.97 160.658C231.723 160.911 231.6 161.278 231.6 161.76V164.262H230.441V159.314H231.544V159.953C231.735 159.725 231.976 159.552 232.267 159.435C232.557 159.317 232.884 159.258 233.249 159.258ZM236.784 159.314H237.942V164.262H236.784V159.314ZM237.368 158.499C237.158 158.499 236.982 158.434 236.84 158.304C236.698 158.168 236.627 158.002 236.627 157.804C236.627 157.606 236.698 157.443 236.84 157.313C236.982 157.177 237.158 157.109 237.368 157.109C237.578 157.109 237.754 157.174 237.896 157.304C238.038 157.427 238.109 157.585 238.109 157.776C238.109 157.98 238.038 158.153 237.896 158.295C237.76 158.431 237.584 158.499 237.368 158.499ZM241.732 164.327C241.22 164.327 240.759 164.218 240.352 164.002C239.944 163.786 239.626 163.487 239.397 163.104C239.169 162.714 239.055 162.276 239.055 161.788C239.055 161.3 239.169 160.864 239.397 160.482C239.626 160.099 239.941 159.799 240.343 159.583C240.75 159.367 241.213 159.258 241.732 159.258C242.22 159.258 242.646 159.357 243.011 159.555C243.382 159.753 243.659 160.037 243.845 160.407L242.955 160.926C242.813 160.698 242.634 160.528 242.418 160.417C242.208 160.299 241.976 160.241 241.723 160.241C241.291 160.241 240.932 160.383 240.648 160.667C240.364 160.945 240.222 161.318 240.222 161.788C240.222 162.257 240.361 162.634 240.639 162.918C240.923 163.196 241.284 163.335 241.723 163.335C241.976 163.335 242.208 163.28 242.418 163.168C242.634 163.051 242.813 162.878 242.955 162.65L243.845 163.168C243.653 163.539 243.372 163.826 243.002 164.03C242.637 164.228 242.214 164.327 241.732 164.327ZM246.736 159.258C247.465 159.258 248.021 159.435 248.404 159.787C248.793 160.133 248.987 160.658 248.987 161.362V164.262H247.894V163.659C247.752 163.876 247.548 164.042 247.283 164.16C247.023 164.271 246.708 164.327 246.338 164.327C245.967 164.327 245.643 164.265 245.365 164.141C245.087 164.012 244.871 163.836 244.716 163.613C244.568 163.385 244.494 163.128 244.494 162.844C244.494 162.399 244.658 162.044 244.985 161.779C245.318 161.507 245.84 161.371 246.551 161.371H247.829V161.297C247.829 160.951 247.724 160.685 247.514 160.5C247.31 160.315 247.005 160.222 246.597 160.222C246.319 160.222 246.044 160.265 245.772 160.352C245.507 160.438 245.281 160.559 245.096 160.713L244.642 159.87C244.902 159.672 245.213 159.521 245.578 159.416C245.942 159.311 246.328 159.258 246.736 159.258ZM246.579 163.483C246.869 163.483 247.125 163.419 247.348 163.289C247.576 163.153 247.737 162.961 247.829 162.714V162.14H246.634C245.967 162.14 245.633 162.359 245.633 162.798C245.633 163.008 245.717 163.175 245.884 163.298C246.05 163.422 246.282 163.483 246.579 163.483ZM253.448 163.993C253.312 164.104 253.145 164.188 252.948 164.243C252.756 164.299 252.552 164.327 252.336 164.327C251.793 164.327 251.373 164.185 251.076 163.9C250.78 163.616 250.631 163.202 250.631 162.659V160.278H249.816V159.351H250.631V158.221H251.789V159.351H253.114V160.278H251.789V162.631C251.789 162.872 251.848 163.057 251.966 163.187C252.083 163.31 252.253 163.372 252.475 163.372C252.735 163.372 252.951 163.304 253.124 163.168L253.448 163.993ZM254.401 159.314H255.559V164.262H254.401V159.314ZM254.984 158.499C254.774 158.499 254.598 158.434 254.456 158.304C254.314 158.168 254.243 158.002 254.243 157.804C254.243 157.606 254.314 157.443 254.456 157.313C254.598 157.177 254.774 157.109 254.984 157.109C255.194 157.109 255.37 157.174 255.513 157.304C255.655 157.427 255.726 157.585 255.726 157.776C255.726 157.98 255.655 158.153 255.513 158.295C255.377 158.431 255.201 158.499 254.984 158.499ZM259.303 164.327C258.802 164.327 258.351 164.218 257.95 164.002C257.548 163.786 257.233 163.487 257.005 163.104C256.782 162.714 256.671 162.276 256.671 161.788C256.671 161.3 256.782 160.864 257.005 160.482C257.233 160.099 257.548 159.799 257.95 159.583C258.351 159.367 258.802 159.258 259.303 159.258C259.809 159.258 260.263 159.367 260.665 159.583C261.066 159.799 261.378 160.099 261.6 160.482C261.829 160.864 261.943 161.3 261.943 161.788C261.943 162.276 261.829 162.714 261.6 163.104C261.378 163.487 261.066 163.786 260.665 164.002C260.263 164.218 259.809 164.327 259.303 164.327ZM259.303 163.335C259.729 163.335 260.081 163.193 260.359 162.909C260.637 162.625 260.776 162.251 260.776 161.788C260.776 161.325 260.637 160.951 260.359 160.667C260.081 160.383 259.729 160.241 259.303 160.241C258.876 160.241 258.524 160.383 258.246 160.667C257.975 160.951 257.839 161.325 257.839 161.788C257.839 162.251 257.975 162.625 258.246 162.909C258.524 163.193 258.876 163.335 259.303 163.335ZM265.858 159.258C266.482 159.258 266.982 159.441 267.359 159.805C267.736 160.17 267.924 160.71 267.924 161.427V164.262H266.766V161.575C266.766 161.142 266.664 160.818 266.46 160.602C266.256 160.38 265.966 160.268 265.589 160.268C265.163 160.268 264.826 160.398 264.579 160.658C264.332 160.911 264.209 161.278 264.209 161.76V164.262H263.051V159.314H264.153V159.953C264.345 159.725 264.586 159.552 264.876 159.435C265.166 159.317 265.494 159.258 265.858 159.258ZM272.065 157.776H274.9C275.592 157.776 276.207 157.912 276.744 158.184C277.281 158.449 277.698 158.829 277.995 159.323C278.291 159.811 278.44 160.377 278.44 161.019C278.44 161.661 278.291 162.23 277.995 162.724C277.698 163.212 277.281 163.592 276.744 163.863C276.207 164.129 275.592 164.262 274.9 164.262H272.065V157.776ZM274.845 163.243C275.32 163.243 275.737 163.153 276.096 162.974C276.46 162.789 276.738 162.529 276.929 162.196C277.127 161.856 277.226 161.464 277.226 161.019C277.226 160.574 277.127 160.185 276.929 159.851C276.738 159.512 276.46 159.252 276.096 159.073C275.737 158.888 275.32 158.795 274.845 158.795H273.27V163.243H274.845ZM284.26 161.816C284.26 161.896 284.254 162.01 284.241 162.159H280.359C280.427 162.523 280.603 162.813 280.887 163.029C281.178 163.239 281.536 163.344 281.962 163.344C282.506 163.344 282.953 163.165 283.305 162.807L283.926 163.521C283.704 163.786 283.423 163.987 283.083 164.123C282.743 164.259 282.36 164.327 281.934 164.327C281.391 164.327 280.912 164.218 280.498 164.002C280.084 163.786 279.763 163.487 279.534 163.104C279.312 162.714 279.201 162.276 279.201 161.788C279.201 161.306 279.309 160.874 279.525 160.491C279.748 160.102 280.053 159.799 280.442 159.583C280.832 159.367 281.27 159.258 281.758 159.258C282.24 159.258 282.669 159.367 283.046 159.583C283.429 159.793 283.725 160.092 283.935 160.482C284.152 160.864 284.26 161.309 284.26 161.816ZM281.758 160.185C281.388 160.185 281.073 160.296 280.813 160.519C280.56 160.735 280.405 161.025 280.35 161.389H283.157C283.108 161.031 282.956 160.741 282.703 160.519C282.45 160.296 282.135 160.185 281.758 160.185ZM286.901 164.327C286.5 164.327 286.107 164.274 285.724 164.169C285.341 164.064 285.036 163.931 284.807 163.771L285.252 162.89C285.474 163.039 285.74 163.159 286.049 163.252C286.364 163.338 286.672 163.382 286.975 163.382C287.667 163.382 288.013 163.199 288.013 162.835C288.013 162.662 287.923 162.541 287.744 162.474C287.571 162.406 287.29 162.341 286.901 162.279C286.493 162.217 286.16 162.146 285.9 162.066C285.647 161.986 285.425 161.847 285.233 161.649C285.048 161.445 284.955 161.164 284.955 160.806C284.955 160.336 285.15 159.963 285.539 159.685C285.934 159.401 286.466 159.258 287.133 159.258C287.472 159.258 287.812 159.299 288.152 159.379C288.492 159.453 288.769 159.555 288.986 159.685L288.541 160.565C288.121 160.318 287.648 160.194 287.123 160.194C286.784 160.194 286.524 160.247 286.345 160.352C286.172 160.451 286.086 160.583 286.086 160.75C286.086 160.936 286.178 161.068 286.364 161.149C286.555 161.223 286.848 161.294 287.244 161.362C287.639 161.423 287.963 161.495 288.217 161.575C288.47 161.655 288.686 161.791 288.865 161.982C289.051 162.174 289.143 162.446 289.143 162.798C289.143 163.261 288.942 163.632 288.541 163.91C288.139 164.188 287.593 164.327 286.901 164.327ZM290.141 159.314H291.299V164.262H290.141V159.314ZM290.724 158.499C290.514 158.499 290.338 158.434 290.196 158.304C290.054 158.168 289.983 158.002 289.983 157.804C289.983 157.606 290.054 157.443 290.196 157.313C290.338 157.177 290.514 157.109 290.724 157.109C290.934 157.109 291.11 157.174 291.252 157.304C291.394 157.427 291.465 157.585 291.465 157.776C291.465 157.98 291.394 158.153 291.252 158.295C291.116 158.431 290.94 158.499 290.724 158.499ZM297.729 159.314V163.511C297.729 165.253 296.84 166.124 295.061 166.124C294.585 166.124 294.134 166.062 293.708 165.939C293.282 165.821 292.93 165.648 292.652 165.42L293.171 164.549C293.387 164.728 293.659 164.87 293.986 164.975C294.32 165.086 294.656 165.142 294.996 165.142C295.54 165.142 295.938 165.018 296.191 164.771C296.445 164.524 296.571 164.147 296.571 163.641V163.382C296.374 163.598 296.133 163.761 295.849 163.873C295.564 163.984 295.252 164.039 294.913 164.039C294.443 164.039 294.017 163.941 293.634 163.743C293.257 163.539 292.958 163.255 292.735 162.89C292.519 162.526 292.411 162.109 292.411 161.64C292.411 161.17 292.519 160.756 292.735 160.398C292.958 160.034 293.257 159.753 293.634 159.555C294.017 159.357 294.443 159.258 294.913 159.258C295.271 159.258 295.595 159.317 295.886 159.435C296.182 159.552 296.429 159.731 296.627 159.972V159.314H297.729ZM295.089 163.057C295.527 163.057 295.886 162.928 296.164 162.668C296.448 162.402 296.59 162.06 296.59 161.64C296.59 161.226 296.448 160.889 296.164 160.63C295.886 160.37 295.527 160.241 295.089 160.241C294.644 160.241 294.28 160.37 293.995 160.63C293.718 160.889 293.579 161.226 293.579 161.64C293.579 162.06 293.718 162.402 293.995 162.668C294.28 162.928 294.644 163.057 295.089 163.057ZM302.059 159.258C302.683 159.258 303.184 159.441 303.56 159.805C303.937 160.17 304.125 160.71 304.125 161.427V164.262H302.967V161.575C302.967 161.142 302.865 160.818 302.662 160.602C302.458 160.38 302.167 160.268 301.791 160.268C301.364 160.268 301.028 160.398 300.781 160.658C300.534 160.911 300.41 161.278 300.41 161.76V164.262H299.252V159.314H300.355V159.953C300.546 159.725 300.787 159.552 301.077 159.435C301.368 159.317 301.695 159.258 302.059 159.258ZM310.291 161.816C310.291 161.896 310.285 162.01 310.273 162.159H306.39C306.458 162.523 306.634 162.813 306.919 163.029C307.209 163.239 307.567 163.344 307.993 163.344C308.537 163.344 308.985 163.165 309.337 162.807L309.958 163.521C309.735 163.786 309.454 163.987 309.114 164.123C308.775 164.259 308.392 164.327 307.965 164.327C307.422 164.327 306.943 164.218 306.529 164.002C306.116 163.786 305.794 163.487 305.566 163.104C305.343 162.714 305.232 162.276 305.232 161.788C305.232 161.306 305.34 160.874 305.557 160.491C305.779 160.102 306.085 159.799 306.474 159.583C306.863 159.367 307.301 159.258 307.789 159.258C308.271 159.258 308.701 159.367 309.077 159.583C309.46 159.793 309.757 160.092 309.967 160.482C310.183 160.864 310.291 161.309 310.291 161.816ZM307.789 160.185C307.419 160.185 307.104 160.296 306.844 160.519C306.591 160.735 306.437 161.025 306.381 161.389H309.189C309.139 161.031 308.988 160.741 308.735 160.519C308.481 160.296 308.166 160.185 307.789 160.185ZM312.506 160.037C312.84 159.518 313.426 159.258 314.266 159.258V160.361C314.168 160.343 314.078 160.333 313.998 160.333C313.547 160.333 313.195 160.466 312.942 160.732C312.688 160.991 312.562 161.368 312.562 161.862V164.262H311.404V159.314H312.506V160.037Z" fill="#333333"/>
<g clip-path="url(#clip0)">
<path d="M99.6846 159.922L103.584 156.022L105.255 157.694L101.356 161.593L99.6846 159.922Z" stroke="#F1F6FF" stroke-width="1.1141" stroke-linecap="round" stroke-linejoin="round"/>
<path d="M103.027 156.581L102.192 152.403L94.1143 150.453L96.0639 158.53L100.242 159.366L103.027 156.581Z" stroke="#F1F6FF" stroke-width="1.1141" stroke-linecap="round" stroke-linejoin="round"/>
<path d="M94.1143 150.453L98.34 154.679" stroke="#F1F6FF" stroke-width="1.1141" stroke-linecap="round" stroke-linejoin="round"/>
<path d="M99.1278 156.58C99.7431 156.58 100.242 156.081 100.242 155.466C100.242 154.85 99.7431 154.352 99.1278 154.352C98.5125 154.352 98.0137 154.85 98.0137 155.466C98.0137 156.081 98.5125 156.58 99.1278 156.58Z" stroke="#F1F6FF" stroke-width="1.1141" stroke-linecap="round" stroke-linejoin="round"/>
</g>
<rect x="48.0312" y="212.538" width="313.569" height="177.446" fill="url(#paint0_linear)"/>
<defs>
<filter id="filter0_d" x="34.0748" y="30.2446" width="343.912" height="379.158" filterUnits="userSpaceOnUse" color-interpolation-filters="sRGB">
<feFlood flood-opacity="0" result="BackgroundImageFix"/>
<feColorMatrix in="SourceAlpha" type="matrix" values="0 0 0 0 0 0 0 0 0 0 0 0 0 0 0 0 0 0 127 0"/>
<feOffset dy="4.24686"/>
<feGaussianBlur stdDeviation="6.37029"/>
<feColorMatrix type="matrix" values="0 0 0 0 0 0 0 0 0 0 0 0 0 0 0 0 0 0 0.15 0"/>
<feBlend mode="normal" in2="BackgroundImageFix" result="effect1_dropShadow"/>
<feBlend mode="normal" in="SourceGraphic" in2="effect1_dropShadow" result="shape"/>
</filter>
<filter id="filter1_d" x="46.8154" y="38.7383" width="318.431" height="48.6154" filterUnits="userSpaceOnUse" color-interpolation-filters="sRGB">
<feFlood flood-opacity="0" result="BackgroundImageFix"/>
<feColorMatrix in="SourceAlpha" type="matrix" values="0 0 0 0 0 0 0 0 0 0 0 0 0 0 0 0 0 0 127 0"/>
<feOffset dy="1.21538"/>
<feColorMatrix type="matrix" values="0 0 0 0 0.952941 0 0 0 0 0.956863 0 0 0 0 0.956863 0 0 0 1 0"/>
<feBlend mode="normal" in2="BackgroundImageFix" result="effect1_dropShadow"/>
<feBlend mode="normal" in="SourceGraphic" in2="effect1_dropShadow" result="shape"/>
</filter>
<filter id="filter2_d" x="57.5754" y="120.861" width="292.05" height="75.7119" filterUnits="userSpaceOnUse" color-interpolation-filters="sRGB">
<feFlood flood-opacity="0" result="BackgroundImageFix"/>
<feColorMatrix in="SourceAlpha" type="matrix" values="0 0 0 0 0 0 0 0 0 0 0 0 0 0 0 0 0 0 127 0"/>
<feOffset dy="3.3007"/>
<feGaussianBlur stdDeviation="4.95105"/>
<feColorMatrix type="matrix" values="0 0 0 0 0 0 0 0 0 0 0 0 0 0 0 0 0 0 0.15 0"/>
<feBlend mode="normal" in2="BackgroundImageFix" result="effect1_dropShadow"/>
<feBlend mode="normal" in="SourceGraphic" in2="effect1_dropShadow" result="shape"/>
</filter>
<filter id="filter3_d" x="114.317" y="300.484" width="223.535" height="78.9045" filterUnits="userSpaceOnUse" color-interpolation-filters="sRGB">
<feFlood flood-opacity="0" result="BackgroundImageFix"/>
<feColorMatrix in="SourceAlpha" type="matrix" values="0 0 0 0 0 0 0 0 0 0 0 0 0 0 0 0 0 0 127 0"/>
<feOffset dy="3.42767"/>
<feGaussianBlur stdDeviation="5.1415"/>
<feColorMatrix type="matrix" values="0 0 0 0 0 0 0 0 0 0 0 0 0 0 0 0 0 0 0.15 0"/>
<feBlend mode="normal" in2="BackgroundImageFix" result="effect1_dropShadow"/>
<feBlend mode="normal" in="SourceGraphic" in2="effect1_dropShadow" result="shape"/>
</filter>
<filter id="filter4_d" x="114.317" y="223.913" width="223.535" height="78.9045" filterUnits="userSpaceOnUse" color-interpolation-filters="sRGB">
<feFlood flood-opacity="0" result="BackgroundImageFix"/>
<feColorMatrix in="SourceAlpha" type="matrix" values="0 0 0 0 0 0 0 0 0 0 0 0 0 0 0 0 0 0 127 0"/>
<feOffset dy="3.42767"/>
<feGaussianBlur stdDeviation="5.1415"/>
<feColorMatrix type="matrix" values="0 0 0 0 0 0 0 0 0 0 0 0 0 0 0 0 0 0 0.15 0"/>
<feBlend mode="normal" in2="BackgroundImageFix" result="effect1_dropShadow"/>
<feBlend mode="normal" in="SourceGraphic" in2="effect1_dropShadow" result="shape"/>
</filter>
<linearGradient id="paint0_linear" x1="198.048" y1="389.984" x2="198.048" y2="220.543" gradientUnits="userSpaceOnUse">
<stop stop-color="white"/>
<stop offset="1" stop-color="white" stop-opacity="0"/>
</linearGradient>
<clipPath id="clip0">
<rect width="13.3692" height="13.3692" fill="white" transform="translate(93 149.338)"/>
</clipPath>
</defs>
</svg>
