<svg width="24" height="25" viewBox="0 0 24 25" fill="none" xmlns="http://www.w3.org/2000/svg">
<g clip-path="url(#clip0_2911_13315)">
<path d="M11.9983 24.4965C18.6247 24.4965 23.9965 19.1247 23.9965 12.4983C23.9965 5.8718 18.6247 0.5 11.9983 0.5C5.3718 0.5 0 5.8718 0 12.4983C0 19.1247 5.3718 24.4965 11.9983 24.4965Z" fill="white"/>
<mask id="mask0_2911_13315" style="mask-type:luminance" maskUnits="userSpaceOnUse" x="0" y="0" width="24" height="25">
<path d="M11.9983 24.4965C18.6247 24.4965 23.9965 19.1247 23.9965 12.4983C23.9965 5.8718 18.6247 0.5 11.9983 0.5C5.3718 0.5 0 5.8718 0 12.4983C0 19.1247 5.3718 24.4965 11.9983 24.4965Z" fill="white"/>
</mask>
<g mask="url(#mask0_2911_13315)">
<path d="M8.40831 8.63424H9.94805V12.2647C10.2138 12.3832 10.4725 12.5152 10.7225 12.6602V7.85936H9.06384L11.9983 4.92491L14.9327 7.85936H13.2741V12.6602C13.5241 12.5152 13.7828 12.3832 14.0485 12.2647V8.63424H15.5883C15.7926 8.63424 15.9751 8.51228 16.053 8.32368C16.131 8.13507 16.0883 7.9199 15.9441 7.77529L12.3541 4.18531C12.2592 4.09035 12.1329 4.03809 11.9983 4.03809C11.8637 4.03809 11.7378 4.09035 11.6424 4.18531L8.05244 7.77529C7.90827 7.9199 7.86558 8.13507 7.94355 8.32368C8.02152 8.51228 8.20402 8.63424 8.40831 8.63424Z" fill="#061A4D"/>
<path d="M22.1941 14.0245L18.6041 10.4345C18.4595 10.2899 18.2443 10.2472 18.0557 10.3256C17.8671 10.4036 17.7452 10.5861 17.7452 10.7904V12.3301H17.3697C16.1762 12.3301 15.0481 12.6137 14.048 13.1163C13.7802 13.2509 13.5214 13.4012 13.2736 13.5663C13.0236 13.7322 12.784 13.913 12.5566 14.1072C12.6455 14.2009 12.7326 14.2963 12.8171 14.3939C12.9016 14.4914 12.9839 14.5907 13.0636 14.6922C13.1325 14.6334 13.2022 14.5759 13.2736 14.5202C13.5184 14.3281 13.7775 14.1525 14.048 13.9957C15.0259 13.4295 16.1606 13.1046 17.3697 13.1046H18.5196V11.4459L21.4541 14.3804L18.5196 17.3148V15.6561H17.3697C16.171 15.6561 15.0908 16.174 14.3412 16.9977C14.3921 17.1397 14.4387 17.2834 14.4819 17.4289C14.5289 17.587 14.5707 17.7473 14.6082 17.9089C15.2045 17.0182 16.2198 16.4306 17.3697 16.4306H17.7452V17.9703C17.7452 18.1746 17.8671 18.3571 18.0557 18.4351C18.2443 18.5131 18.4595 18.4704 18.6041 18.3262L22.1941 14.7362C22.3901 14.5402 22.3901 14.2209 22.1941 14.0249V14.0245Z" fill="#061A4D"/>
<path d="M13.7819 17.7786C13.6948 17.4628 13.5877 17.1553 13.4614 16.8583C13.403 16.7211 13.3403 16.586 13.2741 16.4532C13.1756 16.2559 13.0693 16.0638 12.9544 15.8769C12.8163 15.6522 12.666 15.4353 12.5053 15.2271C12.4256 15.1238 12.3437 15.0228 12.2587 14.9239C12.1742 14.8255 12.0876 14.7292 11.9983 14.6356C11.8214 14.45 11.6346 14.2736 11.4394 14.1072C11.2121 13.9129 10.9725 13.7322 10.7225 13.5662C10.4742 13.4011 10.2159 13.2509 9.94804 13.1163C8.94796 12.6136 7.81983 12.3301 6.62637 12.3301H6.2509V10.7903C6.2509 10.586 6.12894 10.4035 5.94034 10.3256C5.75174 10.2476 5.53657 10.2903 5.39196 10.4345L1.80197 14.0244C1.60597 14.2205 1.60597 14.5397 1.80197 14.7357L5.39196 18.3257C5.53657 18.4703 5.75174 18.5126 5.94034 18.4346C6.12894 18.3566 6.2509 18.1741 6.2509 17.9699V16.4301H6.62637C7.77628 16.4301 8.79159 17.0177 9.38789 17.9084C9.74114 18.4363 9.94804 19.0701 9.94804 19.7518V28.6928H14.0485V19.7518C14.0485 19.2857 14.005 18.8297 13.9222 18.3876C13.8839 18.1815 13.8368 17.9786 13.7815 17.7791L13.7819 17.7786ZM13.2741 27.9183H10.7229V19.7518C10.7229 19.26 10.6358 18.7879 10.4759 18.3505C10.4036 18.1524 10.3161 17.9611 10.215 17.7786C10.1345 17.6332 10.0452 17.4933 9.94847 17.3592C9.85744 17.2333 9.7603 17.1118 9.65577 16.9972C8.90615 16.1736 7.82593 15.6557 6.6268 15.6557H5.47689V17.3143L2.54245 14.3799L5.47689 11.4454V13.1041H6.6268C7.83595 13.1041 8.97061 13.4286 9.94847 13.9953C10.2194 14.1521 10.4781 14.3276 10.7229 14.5197C10.7944 14.5754 10.864 14.6329 10.9329 14.6917C11.1293 14.859 11.3157 15.0376 11.4917 15.2266C11.5814 15.3229 11.6685 15.4213 11.7522 15.5228C11.8375 15.626 11.9194 15.7323 11.9987 15.8408C12.1625 16.0651 12.3123 16.2999 12.4473 16.5438C12.6521 16.9136 12.8219 17.3047 12.9539 17.7129C13.1617 18.3558 13.2741 19.0405 13.2741 19.7513V27.9179V27.9183Z" fill="#061A4D"/>
</g>
</g>
<defs>
<clipPath id="clip0_2911_13315">
<rect width="24" height="24" fill="white" transform="translate(0 0.5)"/>
</clipPath>
</defs>
</svg>
