<svg width="24" height="24" viewBox="0 0 24 24" fill="none" xmlns="http://www.w3.org/2000/svg">
<g clip-path="url(#clip0_2674_24720)">
<path d="M11.9983 23.9965C18.6247 23.9965 23.9965 18.6247 23.9965 11.9983C23.9965 5.3718 18.6247 0 11.9983 0C5.3718 0 0 5.3718 0 11.9983C0 18.6247 5.3718 23.9965 11.9983 23.9965Z" fill="#C9D7ED"/>
<mask id="mask0_2674_24720" style="mask-type:luminance" maskUnits="userSpaceOnUse" x="0" y="0" width="24" height="24">
<path d="M11.9983 23.9965C18.6247 23.9965 23.9965 18.6247 23.9965 11.9983C23.9965 5.3718 18.6247 0 11.9983 0C5.3718 0 0 5.3718 0 11.9983C0 18.6247 5.3718 23.9965 11.9983 23.9965Z" fill="white"/>
</mask>
<g mask="url(#mask0_2674_24720)">
<path d="M8.40831 8.13424H9.94805V11.7647C10.2138 11.8832 10.4725 12.0152 10.7225 12.1602V7.35936H9.06384L11.9983 4.42491L14.9327 7.35936H13.2741V12.1602C13.5241 12.0152 13.7828 11.8832 14.0485 11.7647V8.13424H15.5883C15.7926 8.13424 15.9751 8.01228 16.053 7.82368C16.131 7.63507 16.0883 7.4199 15.9441 7.27529L12.3541 3.68531C12.2592 3.59035 12.1329 3.53809 11.9983 3.53809C11.8637 3.53809 11.7378 3.59035 11.6424 3.68531L8.05244 7.27529C7.90827 7.4199 7.86558 7.63507 7.94355 7.82368C8.02152 8.01228 8.20402 8.13424 8.40831 8.13424Z" fill="#061A4D"/>
<path d="M22.1941 13.5245L18.6041 9.93451C18.4595 9.7899 18.2443 9.74721 18.0557 9.82562C17.8671 9.90358 17.7452 10.0861 17.7452 10.2904V11.8301H17.3697C16.1762 11.8301 15.0481 12.1137 14.048 12.6163C13.7802 12.7509 13.5214 12.9012 13.2736 13.0663C13.0236 13.2322 12.784 13.413 12.5566 13.6072C12.6455 13.7009 12.7326 13.7963 12.8171 13.8939C12.9016 13.9914 12.9839 14.0907 13.0636 14.1922C13.1325 14.1334 13.2022 14.0759 13.2736 14.0202C13.5184 13.8281 13.7775 13.6525 14.048 13.4957C15.0259 12.9295 16.1606 12.6046 17.3697 12.6046H18.5196V10.9459L21.4541 13.8804L18.5196 16.8148V15.1561H17.3697C16.171 15.1561 15.0908 15.674 14.3412 16.4977C14.3921 16.6397 14.4387 16.7834 14.4819 16.9289C14.5289 17.087 14.5707 17.2473 14.6082 17.4089C15.2045 16.5182 16.2198 15.9306 17.3697 15.9306H17.7452V17.4703C17.7452 17.6746 17.8671 17.8571 18.0557 17.9351C18.2443 18.0131 18.4595 17.9704 18.6041 17.8262L22.1941 14.2362C22.3901 14.0402 22.3901 13.7209 22.1941 13.5249V13.5245Z" fill="#061A4D"/>
<path d="M13.7819 17.2786C13.6948 16.9628 13.5877 16.6553 13.4614 16.3583C13.403 16.2211 13.3403 16.086 13.2741 15.9532C13.1756 15.7559 13.0693 15.5638 12.9544 15.3769C12.8163 15.1522 12.666 14.9353 12.5053 14.7271C12.4256 14.6238 12.3437 14.5228 12.2587 14.4239C12.1742 14.3255 12.0876 14.2292 11.9983 14.1356C11.8214 13.95 11.6346 13.7736 11.4394 13.6072C11.2121 13.4129 10.9725 13.2322 10.7225 13.0662C10.4742 12.9011 10.2159 12.7509 9.94804 12.6163C8.94796 12.1136 7.81983 11.8301 6.62637 11.8301H6.2509V10.2903C6.2509 10.086 6.12894 9.90354 5.94034 9.82557C5.75174 9.7476 5.53657 9.79029 5.39196 9.93446L1.80197 13.5244C1.60597 13.7205 1.60597 14.0397 1.80197 14.2357L5.39196 17.8257C5.53657 17.9703 5.75174 18.0126 5.94034 17.9346C6.12894 17.8566 6.2509 17.6741 6.2509 17.4699V15.9301H6.62637C7.77628 15.9301 8.79159 16.5177 9.38789 17.4084C9.74114 17.9363 9.94804 18.5701 9.94804 19.2518V28.1928H14.0485V19.2518C14.0485 18.7857 14.005 18.3297 13.9222 17.8876C13.8839 17.6815 13.8368 17.4786 13.7815 17.2791L13.7819 17.2786ZM13.2741 27.4183H10.7229V19.2518C10.7229 18.76 10.6358 18.2879 10.4759 17.8505C10.4036 17.6524 10.3161 17.4611 10.215 17.2786C10.1345 17.1332 10.0452 16.9933 9.94847 16.8592C9.85744 16.7333 9.7603 16.6118 9.65577 16.4972C8.90615 15.6736 7.82593 15.1557 6.6268 15.1557H5.47689V16.8143L2.54245 13.8799L5.47689 10.9454V12.6041H6.6268C7.83595 12.6041 8.97061 12.9286 9.94847 13.4953C10.2194 13.6521 10.4781 13.8276 10.7229 14.0197C10.7944 14.0754 10.864 14.1329 10.9329 14.1917C11.1293 14.359 11.3157 14.5376 11.4917 14.7266C11.5814 14.8229 11.6685 14.9213 11.7522 15.0228C11.8375 15.126 11.9194 15.2323 11.9987 15.3408C12.1625 15.5651 12.3123 15.7999 12.4473 16.0438C12.6521 16.4136 12.8219 16.8047 12.9539 17.2129C13.1617 17.8558 13.2741 18.5405 13.2741 19.2513V27.4179V27.4183Z" fill="#061A4D"/>
</g>
</g>
<defs>
<clipPath id="clip0_2674_24720">
<rect width="24" height="24" fill="white"/>
</clipPath>
</defs>
</svg>
