<svg width="357" height="206" viewBox="0 0 357 206" fill="none" xmlns="http://www.w3.org/2000/svg">
<circle cx="178" cy="103" r="103" fill="#F4F4F7"/>
<g filter="url(#filter0_d)">
<rect x="194" y="64" width="152" height="51" rx="1.74713" fill="white"/>
</g>
<rect x="203" y="78" width="103" height="8" rx="2" fill="#E4E4E6"/>
<rect x="203" y="93" width="72" height="8" rx="2" fill="#E4E4E6"/>
<path fill-rule="evenodd" clip-rule="evenodd" d="M334.875 99.75L336.125 101L334.875 102.25L331.125 106L329.875 104.75L333.625 101L329.875 97.25L331.125 96L334.875 99.75Z" fill="#E4E4E6"/>
<g filter="url(#filter1_d)">
<rect x="194" y="131" width="152" height="51" rx="1.74713" fill="white"/>
</g>
<rect x="203" y="145" width="103" height="8" rx="2" fill="#E4E4E6"/>
<rect x="203" y="160" width="72" height="8" rx="2" fill="#E4E4E6"/>
<path fill-rule="evenodd" clip-rule="evenodd" d="M334.875 166.75L336.125 168L334.875 169.25L331.125 173L329.875 171.75L333.625 168L329.875 164.25L331.125 163L334.875 166.75Z" fill="#E4E4E6"/>
<g filter="url(#filter2_d)">
<rect x="11" y="90" width="152" height="51" rx="1.74713" fill="white"/>
</g>
<rect x="20" y="104" width="103" height="8" rx="2" fill="#E4E4E6"/>
<rect x="20" y="119" width="72" height="8" rx="2" fill="#E4E4E6"/>
<path fill-rule="evenodd" clip-rule="evenodd" d="M151.875 125.75L153.125 127L151.875 128.25L148.125 132L146.875 130.75L150.625 127L146.875 123.25L148.125 122L151.875 125.75Z" fill="#E4E4E6"/>
<g filter="url(#filter3_d)">
<rect x="11" y="22" width="152" height="51" rx="1.74713" fill="white"/>
</g>
<rect x="20" y="36" width="103" height="8" rx="2" fill="#E4E4E6"/>
<rect x="20" y="51" width="72" height="8" rx="2" fill="#E4E4E6"/>
<path fill-rule="evenodd" clip-rule="evenodd" d="M151.875 57.75L153.125 59L151.875 60.25L148.125 64L146.875 62.75L150.625 59L146.875 55.25L148.125 54L151.875 57.75Z" fill="#E4E4E6"/>
<defs>
<filter id="filter0_d" x="183.517" y="57.0115" width="172.966" height="71.9655" filterUnits="userSpaceOnUse" color-interpolation-filters="sRGB">
<feFlood flood-opacity="0" result="BackgroundImageFix"/>
<feColorMatrix in="SourceAlpha" type="matrix" values="0 0 0 0 0 0 0 0 0 0 0 0 0 0 0 0 0 0 127 0"/>
<feOffset dy="3.49425"/>
<feGaussianBlur stdDeviation="5.24138"/>
<feColorMatrix type="matrix" values="0 0 0 0 0 0 0 0 0 0 0 0 0 0 0 0 0 0 0.15 0"/>
<feBlend mode="normal" in2="BackgroundImageFix" result="effect1_dropShadow"/>
<feBlend mode="normal" in="SourceGraphic" in2="effect1_dropShadow" result="shape"/>
</filter>
<filter id="filter1_d" x="183.517" y="124.011" width="172.966" height="71.9655" filterUnits="userSpaceOnUse" color-interpolation-filters="sRGB">
<feFlood flood-opacity="0" result="BackgroundImageFix"/>
<feColorMatrix in="SourceAlpha" type="matrix" values="0 0 0 0 0 0 0 0 0 0 0 0 0 0 0 0 0 0 127 0"/>
<feOffset dy="3.49425"/>
<feGaussianBlur stdDeviation="5.24138"/>
<feColorMatrix type="matrix" values="0 0 0 0 0 0 0 0 0 0 0 0 0 0 0 0 0 0 0.15 0"/>
<feBlend mode="normal" in2="BackgroundImageFix" result="effect1_dropShadow"/>
<feBlend mode="normal" in="SourceGraphic" in2="effect1_dropShadow" result="shape"/>
</filter>
<filter id="filter2_d" x="0.517241" y="83.0115" width="172.966" height="71.9655" filterUnits="userSpaceOnUse" color-interpolation-filters="sRGB">
<feFlood flood-opacity="0" result="BackgroundImageFix"/>
<feColorMatrix in="SourceAlpha" type="matrix" values="0 0 0 0 0 0 0 0 0 0 0 0 0 0 0 0 0 0 127 0"/>
<feOffset dy="3.49425"/>
<feGaussianBlur stdDeviation="5.24138"/>
<feColorMatrix type="matrix" values="0 0 0 0 0 0 0 0 0 0 0 0 0 0 0 0 0 0 0.15 0"/>
<feBlend mode="normal" in2="BackgroundImageFix" result="effect1_dropShadow"/>
<feBlend mode="normal" in="SourceGraphic" in2="effect1_dropShadow" result="shape"/>
</filter>
<filter id="filter3_d" x="0.517241" y="15.0115" width="172.966" height="71.9655" filterUnits="userSpaceOnUse" color-interpolation-filters="sRGB">
<feFlood flood-opacity="0" result="BackgroundImageFix"/>
<feColorMatrix in="SourceAlpha" type="matrix" values="0 0 0 0 0 0 0 0 0 0 0 0 0 0 0 0 0 0 127 0"/>
<feOffset dy="3.49425"/>
<feGaussianBlur stdDeviation="5.24138"/>
<feColorMatrix type="matrix" values="0 0 0 0 0 0 0 0 0 0 0 0 0 0 0 0 0 0 0.15 0"/>
<feBlend mode="normal" in2="BackgroundImageFix" result="effect1_dropShadow"/>
<feBlend mode="normal" in="SourceGraphic" in2="effect1_dropShadow" result="shape"/>
</filter>
</defs>
</svg>
