<svg width="18" height="14" viewBox="0 0 18 14" fill="none" xmlns="http://www.w3.org/2000/svg">
<path fill-rule="evenodd" clip-rule="evenodd" d="M13.1912 13.2642L18 6.99954L13.1912 0.734834C13.0294 0.528952 12.8419 0.37454 12.6287 0.271599C12.4154 0.168658 12.1838 0.117188 11.9338 0.117188H1.58823C1.14706 0.117188 0.772058 0.2716 0.463235 0.580423C0.154411 0.889247 0 1.26425 0 1.70542V12.2937C0 12.7348 0.154412 13.1098 0.463235 13.4187C0.772059 13.7275 1.14706 13.8819 1.58824 13.8819L11.9338 13.8819C12.1838 13.8819 12.4154 13.8304 12.6287 13.7275C12.8419 13.6245 13.0294 13.4701 13.1912 13.2642ZM3.17647 8.00204L6 10.7054L11.6471 5.29866L10.6588 4.35248L6 8.81306L4.16471 7.05586L3.17647 8.00204Z" fill="#061A4D"/>
</svg>
