<svg width="18" height="14" viewBox="0 0 18 14" fill="none" xmlns="http://www.w3.org/2000/svg">
<path fill-rule="evenodd" clip-rule="evenodd" d="M13.1912 13.1471L18 6.88235L13.1912 0.617647C13.0294 0.411764 12.8419 0.257353 12.6287 0.154411C12.4154 0.0514702 12.1838 0 11.9338 0H1.58824C1.14706 0 0.772059 0.154412 0.463235 0.463236C0.154412 0.772059 0 1.14706 0 1.58824V12.1765C0 12.6176 0.154412 12.9926 0.463236 13.3015C0.772059 13.6103 1.14706 13.7647 1.58824 13.7647L11.9338 13.7647C12.1838 13.7647 12.4154 13.7132 12.6287 13.6103C12.8419 13.5074 13.0294 13.3529 13.1912 13.1471ZM5.64545 9.82689L6.46845 11.1176L7.94118 10.5328L9.4139 11.1176L10.2369 9.82689L11.7963 9.5042L11.6447 8.01176L12.7059 6.88235L11.6447 5.75294L11.7963 4.2605L10.2369 3.93781L9.4139 2.64706L7.94118 3.23193L6.46845 2.64706L5.64545 3.93781L4.0861 4.2605L4.2377 5.75294L3.17647 6.88235L4.2377 8.01176L4.0861 9.5042L5.64545 9.82689ZM9.93369 6.03529L7.48636 8.31429L5.94866 6.88235L6.55508 6.31765L7.48636 7.16471L9.32727 5.45042L9.93369 6.03529Z" fill="#061A4D"/>
</svg>
