<svg width="32" height="32" viewBox="0 0 32 32" fill="none" xmlns="http://www.w3.org/2000/svg">
<circle cx="16" cy="16" r="16" fill="#002664"/>
<path d="M19.5 8.5L21.25 8.5C21.7141 8.5 22.1592 8.68437 22.4874 9.01256C22.8156 9.34075 23 9.78587 23 10.25L23 22.5C23 22.9641 22.8156 23.4092 22.4874 23.7374C22.1592 24.0656 21.7141 24.25 21.25 24.25L10.75 24.25C10.2859 24.25 9.84075 24.0656 9.51256 23.7374C9.18437 23.4092 9 22.9641 9 22.5L9 10.25C9 9.78587 9.18437 9.34075 9.51256 9.01256C9.84075 8.68437 10.2859 8.5 10.75 8.5L12.5 8.5" stroke="white" stroke-linecap="round" stroke-linejoin="round"/>
<path d="M18.625 6.75L13.375 6.75C12.8918 6.75 12.5 7.14175 12.5 7.625L12.5 9.375C12.5 9.85825 12.8918 10.25 13.375 10.25L18.625 10.25C19.1082 10.25 19.5 9.85825 19.5 9.375L19.5 7.625C19.5 7.14175 19.1082 6.75 18.625 6.75Z" stroke="white" stroke-linecap="round" stroke-linejoin="round"/>
<path d="M18.9168 15.0625L14.9064 19.0729L13.0835 17.25" stroke="white" stroke-linecap="round" stroke-linejoin="round"/>
</svg>
