<svg width="266" height="260" viewBox="0 0 266 260" fill="none" xmlns="http://www.w3.org/2000/svg">
<circle cx="133.411" cy="129.745" r="120.745" fill="#FAFAFA"/>
<g filter="url(#filter0_d_2472_26981)">
<rect x="23" y="46" width="222" height="168" rx="3.37749" fill="white"/>
</g>
<path d="M23 49.3775C23 47.5122 24.5122 46 26.3775 46H88.6225C90.4878 46 92 47.5122 92 49.3775V214H55.4091H23V49.3775Z" fill="#F1F6FF"/>
<path d="M32.7143 67V61.6805H34.9029C35.3741 61.6805 35.7769 61.7565 36.1112 61.9084C36.4507 62.0604 36.7116 62.2783 36.894 62.562C37.0764 62.8457 37.1676 63.1826 37.1676 63.5727C37.1676 63.9628 37.0764 64.2997 36.894 64.5834C36.7116 64.8621 36.4507 65.0774 36.1112 65.2294C35.7769 65.3763 35.3741 65.4497 34.9029 65.4497H33.2615L33.7023 65.0014V67H32.7143ZM36.1948 67L34.8498 65.0698H35.9061L37.2587 67H36.1948ZM33.7023 65.1078L33.2615 64.6366H34.8574C35.293 64.6366 35.6198 64.5429 35.8377 64.3554C36.0606 64.168 36.172 63.9071 36.172 63.5727C36.172 63.2333 36.0606 62.9723 35.8377 62.79C35.6198 62.6076 35.293 62.5164 34.8574 62.5164H33.2615L33.7023 62.03V65.1078ZM40.0055 67.0532C39.5901 67.0532 39.2202 66.9645 38.896 66.7872C38.5717 66.6048 38.3159 66.3566 38.1285 66.0425C37.941 65.7284 37.8473 65.3712 37.8473 64.971C37.8473 64.5657 37.941 64.2085 38.1285 63.8995C38.3159 63.5854 38.5717 63.3397 38.896 63.1623C39.2202 62.985 39.5901 62.8964 40.0055 62.8964C40.426 62.8964 40.7984 62.985 41.1226 63.1623C41.4519 63.3397 41.7077 63.5828 41.8901 63.8919C42.0776 64.2009 42.1713 64.5606 42.1713 64.971C42.1713 65.3712 42.0776 65.7284 41.8901 66.0425C41.7077 66.3566 41.4519 66.6048 41.1226 66.7872C40.7984 66.9645 40.426 67.0532 40.0055 67.0532ZM40.0055 66.2401C40.2385 66.2401 40.4463 66.1894 40.6286 66.0881C40.811 65.9868 40.9529 65.8398 41.0542 65.6473C41.1606 65.4548 41.2138 65.2294 41.2138 64.971C41.2138 64.7075 41.1606 64.4821 41.0542 64.2946C40.9529 64.1021 40.811 63.9552 40.6286 63.8539C40.4463 63.7525 40.2411 63.7019 40.0131 63.7019C39.78 63.7019 39.5723 63.7525 39.3899 63.8539C39.2126 63.9552 39.0708 64.1021 38.9644 64.2946C38.858 64.4821 38.8048 64.7075 38.8048 64.971C38.8048 65.2294 38.858 65.4548 38.9644 65.6473C39.0708 65.8398 39.2126 65.9868 39.3899 66.0881C39.5723 66.1894 39.7775 66.2401 40.0055 66.2401ZM43.0797 67V61.3613H44.0296V67H43.0797ZM47.1838 67.0532C46.7329 67.0532 46.3377 66.9645 45.9983 66.7872C45.6639 66.6048 45.403 66.3566 45.2156 66.0425C45.0332 65.7284 44.942 65.3712 44.942 64.971C44.942 64.5657 45.0306 64.2085 45.208 63.8995C45.3903 63.5854 45.6386 63.3397 45.9527 63.1623C46.2719 62.985 46.6341 62.8964 47.0394 62.8964C47.4346 62.8964 47.7867 62.9825 48.0957 63.1547C48.4047 63.327 48.6479 63.5702 48.8252 63.8843C49.0026 64.1984 49.0912 64.5682 49.0912 64.9938C49.0912 65.0343 49.0887 65.0799 49.0836 65.1306C49.0836 65.1812 49.0811 65.2294 49.076 65.2749H45.6943V64.6442H48.5745L48.2021 64.8418C48.2072 64.6087 48.159 64.4036 48.0577 64.2262C47.9564 64.0489 47.8171 63.9096 47.6397 63.8083C47.4675 63.707 47.2674 63.6563 47.0394 63.6563C46.8063 63.6563 46.6012 63.707 46.4238 63.8083C46.2516 63.9096 46.1148 64.0515 46.0135 64.2338C45.9172 64.4112 45.8691 64.6214 45.8691 64.8646V65.0166C45.8691 65.2598 45.9248 65.4751 46.0363 65.6625C46.1477 65.85 46.3048 65.9944 46.5074 66.0957C46.7101 66.197 46.9431 66.2477 47.2066 66.2477C47.4346 66.2477 47.6397 66.2122 47.8221 66.1413C48.0045 66.0703 48.1666 65.9589 48.3085 65.8069L48.8176 66.3921C48.6353 66.6048 48.4047 66.7695 48.1261 66.886C47.8525 66.9975 47.5384 67.0532 47.1838 67.0532ZM53.107 63.8919H55.7516V64.705H53.107V63.8919ZM53.183 66.1717H56.1847V67H52.1951V61.6805H56.0783V62.5088H53.183V66.1717ZM56.5733 67L58.3591 64.6746L58.3439 65.1838L56.6417 62.942H57.698L58.8911 64.5378H58.4883L59.689 62.942H60.7149L58.9975 65.1838L59.0051 64.6746L60.7833 67H59.7118L58.4579 65.3053L58.8531 65.3585L57.622 67H56.5733ZM63.7337 67.0532C63.4044 67.0532 63.103 66.9772 62.8294 66.8252C62.5609 66.6732 62.3456 66.4452 62.1835 66.1413C62.0264 65.8322 61.9479 65.4421 61.9479 64.971C61.9479 64.4948 62.0239 64.1047 62.1759 63.8007C62.3329 63.4967 62.5457 63.2713 62.8142 63.1243C63.0827 62.9723 63.3892 62.8964 63.7337 62.8964C64.134 62.8964 64.4861 62.9825 64.79 63.1547C65.0991 63.327 65.3422 63.5676 65.5196 63.8767C65.702 64.1857 65.7931 64.5505 65.7931 64.971C65.7931 65.3915 65.702 65.7588 65.5196 66.0729C65.3422 66.3819 65.0991 66.6226 64.79 66.7948C64.4861 66.9671 64.134 67.0532 63.7337 67.0532ZM61.4843 68.4743V62.942H62.3886V63.8995L62.3582 64.9786L62.4342 66.0577V68.4743H61.4843ZM63.6273 66.2401C63.8553 66.2401 64.058 66.1894 64.2353 66.0881C64.4177 65.9868 64.562 65.8398 64.6684 65.6473C64.7748 65.4548 64.828 65.2294 64.828 64.971C64.828 64.7075 64.7748 64.4821 64.6684 64.2946C64.562 64.1021 64.4177 63.9552 64.2353 63.8539C64.058 63.7525 63.8553 63.7019 63.6273 63.7019C63.3993 63.7019 63.1942 63.7525 63.0118 63.8539C62.8294 63.9552 62.685 64.1021 62.5786 64.2946C62.4722 64.4821 62.419 64.7075 62.419 64.971C62.419 65.2294 62.4722 65.4548 62.5786 65.6473C62.685 65.8398 62.8294 65.9868 63.0118 66.0881C63.1942 66.1894 63.3993 66.2401 63.6273 66.2401ZM66.694 67V61.3613H67.6439V67H66.694ZM70.7145 67.0532C70.2991 67.0532 69.9293 66.9645 69.605 66.7872C69.2808 66.6048 69.025 66.3566 68.8375 66.0425C68.6501 65.7284 68.5563 65.3712 68.5563 64.971C68.5563 64.5657 68.6501 64.2085 68.8375 63.8995C69.025 63.5854 69.2808 63.3397 69.605 63.1623C69.9293 62.985 70.2991 62.8964 70.7145 62.8964C71.135 62.8964 71.5074 62.985 71.8317 63.1623C72.161 63.3397 72.4168 63.5828 72.5992 63.8919C72.7866 64.2009 72.8804 64.5606 72.8804 64.971C72.8804 65.3712 72.7866 65.7284 72.5992 66.0425C72.4168 66.3566 72.161 66.6048 71.8317 66.7872C71.5074 66.9645 71.135 67.0532 70.7145 67.0532ZM70.7145 66.2401C70.9476 66.2401 71.1553 66.1894 71.3377 66.0881C71.5201 65.9868 71.6619 65.8398 71.7633 65.6473C71.8696 65.4548 71.9228 65.2294 71.9228 64.971C71.9228 64.7075 71.8696 64.4821 71.7633 64.2946C71.6619 64.1021 71.5201 63.9552 71.3377 63.8539C71.1553 63.7525 70.9501 63.7019 70.7221 63.7019C70.4891 63.7019 70.2814 63.7525 70.099 63.8539C69.9217 63.9552 69.7798 64.1021 69.6734 64.2946C69.567 64.4821 69.5139 64.7075 69.5139 64.971C69.5139 65.2294 69.567 65.4548 69.6734 65.6473C69.7798 65.8398 69.9217 65.9868 70.099 66.0881C70.2814 66.1894 70.4866 66.2401 70.7145 66.2401ZM73.7887 67V62.942H74.693V64.0591L74.5867 63.7323C74.7082 63.4587 74.8982 63.251 75.1566 63.1091C75.42 62.9673 75.7468 62.8964 76.1369 62.8964V63.8007C76.0964 63.7905 76.0584 63.7855 76.0229 63.7855C75.9875 63.7804 75.952 63.7779 75.9165 63.7779C75.5568 63.7779 75.2706 63.8843 75.0578 64.0971C74.845 64.3048 74.7386 64.6163 74.7386 65.0318V67H73.7887ZM78.8131 67.0532C78.3622 67.0532 77.967 66.9645 77.6276 66.7872C77.2932 66.6048 77.0323 66.3566 76.8448 66.0425C76.6625 65.7284 76.5713 65.3712 76.5713 64.971C76.5713 64.5657 76.6599 64.2085 76.8372 63.8995C77.0196 63.5854 77.2679 63.3397 77.582 63.1623C77.9011 62.985 78.2634 62.8964 78.6687 62.8964C79.0638 62.8964 79.416 62.9825 79.725 63.1547C80.034 63.327 80.2772 63.5702 80.4545 63.8843C80.6318 64.1984 80.7205 64.5682 80.7205 64.9938C80.7205 65.0343 80.718 65.0799 80.7129 65.1306C80.7129 65.1812 80.7104 65.2294 80.7053 65.2749H77.3236V64.6442H80.2038L79.8314 64.8418C79.8364 64.6087 79.7883 64.4036 79.687 64.2262C79.5857 64.0489 79.4463 63.9096 79.269 63.8083C79.0968 63.707 78.8967 63.6563 78.6687 63.6563C78.4356 63.6563 78.2305 63.707 78.0531 63.8083C77.8809 63.9096 77.7441 64.0515 77.6428 64.2338C77.5465 64.4112 77.4984 64.6214 77.4984 64.8646V65.0166C77.4984 65.2598 77.5541 65.4751 77.6656 65.6625C77.777 65.85 77.9341 65.9944 78.1367 66.0957C78.3394 66.197 78.5724 66.2477 78.8359 66.2477C79.0638 66.2477 79.269 66.2122 79.4514 66.1413C79.6338 66.0703 79.7959 65.9589 79.9378 65.8069L80.4469 66.3921C80.2645 66.6048 80.034 66.7695 79.7554 66.886C79.4818 66.9975 79.1677 67.0532 78.8131 67.0532ZM81.633 67V62.942H82.5373V64.0591L82.4309 63.7323C82.5525 63.4587 82.7425 63.251 83.0008 63.1091C83.2643 62.9673 83.5911 62.8964 83.9812 62.8964V63.8007C83.9406 63.7905 83.9026 63.7855 83.8672 63.7855C83.8317 63.7804 83.7962 63.7779 83.7608 63.7779C83.4011 63.7779 83.1148 63.8843 82.9021 64.0971C82.6893 64.3048 82.5829 64.6163 82.5829 65.0318V67H81.633Z" fill="#074889"/>
<rect x="29.4222" y="76.4222" width="52.1556" height="12.1556" rx="2.9553" fill="white" stroke="#E4E4E6" stroke-width="0.844371"/>
<mask id="mask0_2472_26981" style="mask-type:alpha" maskUnits="userSpaceOnUse" x="32" y="79" width="8" height="8">
<rect x="32" y="79" width="7.875" height="7.875" fill="#D9D9D9"/>
</mask>
<g mask="url(#mask0_2472_26981)">
<path d="M38.4313 85.8906L36.3641 83.8234C36.2 83.9547 36.0113 84.0586 35.798 84.1352C35.5848 84.2117 35.3578 84.25 35.1172 84.25C34.5211 84.25 34.0166 84.0436 33.6037 83.6307C33.1908 83.2178 32.9844 82.7133 32.9844 82.1172C32.9844 81.5211 33.1908 81.0166 33.6037 80.6037C34.0166 80.1908 34.5211 79.9844 35.1172 79.9844C35.7133 79.9844 36.2178 80.1908 36.6307 80.6037C37.0436 81.0166 37.25 81.5211 37.25 82.1172C37.25 82.3578 37.2117 82.5848 37.1352 82.798C37.0586 83.0113 36.9547 83.2 36.8234 83.3641L38.8906 85.4313L38.4313 85.8906ZM35.1172 83.5938C35.5273 83.5938 35.876 83.4502 36.1631 83.1631C36.4502 82.876 36.5938 82.5273 36.5938 82.1172C36.5938 81.707 36.4502 81.3584 36.1631 81.0713C35.876 80.7842 35.5273 80.6406 35.1172 80.6406C34.707 80.6406 34.3584 80.7842 34.0713 81.0713C33.7842 81.3584 33.6406 81.707 33.6406 82.1172C33.6406 82.5273 33.7842 82.876 34.0713 83.1631C34.3584 83.4502 34.707 83.5938 35.1172 83.5938Z" fill="#1C1B1F"/>
</g>
<rect x="29.4222" y="92.4222" width="52.1556" height="12.1556" rx="2.9553" fill="white" stroke="#E4E4E6" stroke-width="0.844371"/>
<mask id="mask1_2472_26981" style="mask-type:alpha" maskUnits="userSpaceOnUse" x="71" y="95" width="8" height="8">
<rect x="79" y="103" width="8" height="8" transform="rotate(-180 79 103)" fill="#D9D9D9"/>
</mask>
<g mask="url(#mask1_2472_26981)">
<path d="M75 99.4002L76.5333 97.8668L77 98.3335L75 100.333L73 98.3335L73.4667 97.8668L75 99.4002Z" fill="#1C1B1F"/>
</g>
<path d="M96 100C96 95.5817 99.5817 92 104 92H152C156.418 92 160 95.5817 160 100V139C160 143.418 156.418 147 152 147H104C99.5817 147 96 143.418 96 139V100Z" fill="#E5F6E6"/>
<path d="M163 100C163 95.5817 166.582 92 171 92H245V192H171C166.582 192 163 188.418 163 184V100Z" fill="#FFF4CF"/>
<g clip-path="url(#clip0_2472_26981)">
<g filter="url(#filter1_d_2472_26981)">
<path d="M230 100.49C230 100.219 230.219 100 230.49 100H287.51C287.781 100 288 100.219 288 100.49V116.181C288 116.451 287.781 116.671 287.51 116.671H230.49C230.219 116.671 230 116.451 230 116.181V100.49Z" fill="white"/>
<path d="M230.174 100.49C230.174 100.315 230.315 100.174 230.49 100.174H287.51C287.685 100.174 287.826 100.315 287.826 100.49V116.181C287.826 116.355 287.685 116.497 287.51 116.497H230.49C230.315 116.497 230.174 116.355 230.174 116.181V100.49Z" stroke="#B7D2E7" stroke-width="0.347305"/>
</g>
<circle cx="238.05" cy="110.331" r="0.939091" fill="#E4E4E6"/>
<rect x="236.485" y="105.322" width="12.8342" height="1.87818" rx="0.939091" fill="#E4E4E6"/>
<rect x="240.867" y="109.392" width="30.99" height="1.87818" rx="0.939091" fill="#E4E4E6"/>
<g filter="url(#filter2_d_2472_26981)">
<path d="M230 122.49C230 122.219 230.219 122 230.49 122H287.51C287.781 122 288 122.219 288 122.49V138.181C288 138.451 287.781 138.671 287.51 138.671H230.49C230.219 138.671 230 138.451 230 138.181V122.49Z" fill="white"/>
<path d="M230.174 122.49C230.174 122.315 230.315 122.174 230.49 122.174H287.51C287.685 122.174 287.826 122.315 287.826 122.49V138.181C287.826 138.355 287.685 138.497 287.51 138.497H230.49C230.315 138.497 230.174 138.355 230.174 138.181V122.49Z" stroke="#B7D2E7" stroke-width="0.347305"/>
</g>
<circle cx="238.05" cy="132.331" r="0.939091" fill="#E4E4E6"/>
<rect x="236.485" y="127.322" width="12.8342" height="1.87818" rx="0.939091" fill="#E4E4E6"/>
<rect x="240.867" y="131.392" width="30.99" height="1.87818" rx="0.939091" fill="#E4E4E6"/>
<g filter="url(#filter3_d_2472_26981)">
<path d="M230 144.49C230 144.219 230.219 144 230.49 144H287.51C287.781 144 288 144.219 288 144.49V160.181C288 160.451 287.781 160.671 287.51 160.671H230.49C230.219 160.671 230 160.451 230 160.181V144.49Z" fill="white"/>
<path d="M230.174 144.49C230.174 144.315 230.315 144.174 230.49 144.174H287.51C287.685 144.174 287.826 144.315 287.826 144.49V160.181C287.826 160.355 287.685 160.497 287.51 160.497H230.49C230.315 160.497 230.174 160.355 230.174 160.181V144.49Z" stroke="#B7D2E7" stroke-width="0.347305"/>
</g>
<circle cx="238.05" cy="154.331" r="0.939091" fill="#E4E4E6"/>
<rect x="236.485" y="149.322" width="12.8342" height="1.87818" rx="0.939091" fill="#E4E4E6"/>
<rect x="240.867" y="153.392" width="30.99" height="1.87818" rx="0.939091" fill="#E4E4E6"/>
<g filter="url(#filter4_d_2472_26981)">
<path d="M230 166.49C230 166.219 230.219 166 230.49 166H287.51C287.781 166 288 166.219 288 166.49V182.181C288 182.451 287.781 182.671 287.51 182.671H230.49C230.219 182.671 230 182.451 230 182.181V166.49Z" fill="white"/>
<path d="M230.174 166.49C230.174 166.315 230.315 166.174 230.49 166.174H287.51C287.685 166.174 287.826 166.315 287.826 166.49V182.181C287.826 182.355 287.685 182.497 287.51 182.497H230.49C230.315 182.497 230.174 182.355 230.174 182.181V166.49Z" stroke="#B7D2E7" stroke-width="0.347305"/>
</g>
<circle cx="238.05" cy="176.331" r="0.939091" fill="#E4E4E6"/>
<rect x="236.485" y="171.322" width="12.8342" height="1.87818" rx="0.939091" fill="#E4E4E6"/>
<rect x="240.867" y="175.392" width="30.99" height="1.87818" rx="0.939091" fill="#E4E4E6"/>
</g>
<defs>
<filter id="filter0_d_2472_26981" x="15.0738" y="40.7159" width="237.852" height="183.852" filterUnits="userSpaceOnUse" color-interpolation-filters="sRGB">
<feFlood flood-opacity="0" result="BackgroundImageFix"/>
<feColorMatrix in="SourceAlpha" type="matrix" values="0 0 0 0 0 0 0 0 0 0 0 0 0 0 0 0 0 0 127 0" result="hardAlpha"/>
<feOffset dy="2.64207"/>
<feGaussianBlur stdDeviation="3.9631"/>
<feColorMatrix type="matrix" values="0 0 0 0 0 0 0 0 0 0 0 0 0 0 0 0 0 0 0.15 0"/>
<feBlend mode="normal" in2="BackgroundImageFix" result="effect1_dropShadow_2472_26981"/>
<feBlend mode="normal" in="SourceGraphic" in2="effect1_dropShadow_2472_26981" result="shape"/>
</filter>
<filter id="filter1_d_2472_26981" x="227.062" y="98.041" width="63.8769" height="22.5478" filterUnits="userSpaceOnUse" color-interpolation-filters="sRGB">
<feFlood flood-opacity="0" result="BackgroundImageFix"/>
<feColorMatrix in="SourceAlpha" type="matrix" values="0 0 0 0 0 0 0 0 0 0 0 0 0 0 0 0 0 0 127 0" result="hardAlpha"/>
<feOffset dy="0.979483"/>
<feGaussianBlur stdDeviation="1.46922"/>
<feColorMatrix type="matrix" values="0 0 0 0 0 0 0 0 0 0 0 0 0 0 0 0 0 0 0.15 0"/>
<feBlend mode="normal" in2="BackgroundImageFix" result="effect1_dropShadow_2472_26981"/>
<feBlend mode="normal" in="SourceGraphic" in2="effect1_dropShadow_2472_26981" result="shape"/>
</filter>
<filter id="filter2_d_2472_26981" x="227.062" y="120.041" width="63.8769" height="22.5478" filterUnits="userSpaceOnUse" color-interpolation-filters="sRGB">
<feFlood flood-opacity="0" result="BackgroundImageFix"/>
<feColorMatrix in="SourceAlpha" type="matrix" values="0 0 0 0 0 0 0 0 0 0 0 0 0 0 0 0 0 0 127 0" result="hardAlpha"/>
<feOffset dy="0.979483"/>
<feGaussianBlur stdDeviation="1.46922"/>
<feColorMatrix type="matrix" values="0 0 0 0 0 0 0 0 0 0 0 0 0 0 0 0 0 0 0.15 0"/>
<feBlend mode="normal" in2="BackgroundImageFix" result="effect1_dropShadow_2472_26981"/>
<feBlend mode="normal" in="SourceGraphic" in2="effect1_dropShadow_2472_26981" result="shape"/>
</filter>
<filter id="filter3_d_2472_26981" x="227.062" y="142.041" width="63.8769" height="22.5478" filterUnits="userSpaceOnUse" color-interpolation-filters="sRGB">
<feFlood flood-opacity="0" result="BackgroundImageFix"/>
<feColorMatrix in="SourceAlpha" type="matrix" values="0 0 0 0 0 0 0 0 0 0 0 0 0 0 0 0 0 0 127 0" result="hardAlpha"/>
<feOffset dy="0.979483"/>
<feGaussianBlur stdDeviation="1.46922"/>
<feColorMatrix type="matrix" values="0 0 0 0 0 0 0 0 0 0 0 0 0 0 0 0 0 0 0.15 0"/>
<feBlend mode="normal" in2="BackgroundImageFix" result="effect1_dropShadow_2472_26981"/>
<feBlend mode="normal" in="SourceGraphic" in2="effect1_dropShadow_2472_26981" result="shape"/>
</filter>
<filter id="filter4_d_2472_26981" x="227.062" y="164.041" width="63.8769" height="22.5478" filterUnits="userSpaceOnUse" color-interpolation-filters="sRGB">
<feFlood flood-opacity="0" result="BackgroundImageFix"/>
<feColorMatrix in="SourceAlpha" type="matrix" values="0 0 0 0 0 0 0 0 0 0 0 0 0 0 0 0 0 0 127 0" result="hardAlpha"/>
<feOffset dy="0.979483"/>
<feGaussianBlur stdDeviation="1.46922"/>
<feColorMatrix type="matrix" values="0 0 0 0 0 0 0 0 0 0 0 0 0 0 0 0 0 0 0.15 0"/>
<feBlend mode="normal" in2="BackgroundImageFix" result="effect1_dropShadow_2472_26981"/>
<feBlend mode="normal" in="SourceGraphic" in2="effect1_dropShadow_2472_26981" result="shape"/>
</filter>
<clipPath id="clip0_2472_26981">
<rect width="15" height="100" fill="white" transform="translate(230 100)"/>
</clipPath>
</defs>
</svg>
