<svg width="267" height="260" viewBox="0 0 267 260" fill="none" xmlns="http://www.w3.org/2000/svg">
<circle cx="133.911" cy="129.745" r="120.745" fill="#FAFAFA"/>
<g filter="url(#filter0_d_2376_18348)">
<rect x="34.2205" y="39" width="199.451" height="182.89" rx="2.85482" fill="white"/>
</g>
<g filter="url(#filter1_d_2376_18348)">
<path d="M34.2205 41.8548C34.2205 40.2781 35.4986 39 37.0753 39H230.817C232.393 39 233.672 40.2781 233.672 41.8548V66.7079L133.946 67.1277L34.2205 66.7079V41.8548Z" fill="#FAFAFA"/>
</g>
<path d="M101.765 53.8799V49.3835H102.453L104.418 52.6659H104.058L105.992 49.3835H106.679L106.686 53.8799H105.896L105.889 50.6232H106.056L104.412 53.366H104.039L102.369 50.6232H102.562V53.8799H101.765ZM108.106 55.171C107.939 55.171 107.772 55.1431 107.605 55.0875C107.438 55.0318 107.298 54.9547 107.187 54.8562L107.508 54.2653C107.59 54.3381 107.682 54.3959 107.785 54.4387C107.887 54.4815 107.992 54.5029 108.099 54.5029C108.245 54.5029 108.363 54.4665 108.453 54.3938C108.542 54.321 108.626 54.1989 108.703 54.0276L108.902 53.578L108.966 53.4816L110.264 50.4498H111.035L109.429 54.1561C109.322 54.413 109.202 54.6164 109.069 54.7663C108.941 54.9162 108.795 55.0211 108.632 55.081C108.474 55.141 108.298 55.171 108.106 55.171ZM108.812 54.0019L107.264 50.4498H108.099L109.358 53.411L108.812 54.0019ZM114.372 53.9248C114.085 53.9248 113.808 53.8884 113.543 53.8156C113.282 53.7386 113.074 53.6465 112.92 53.5394L113.228 52.9292C113.382 53.0277 113.567 53.1091 113.781 53.1733C113.995 53.2375 114.209 53.2697 114.423 53.2697C114.676 53.2697 114.858 53.2354 114.969 53.1669C115.085 53.0984 115.142 53.0063 115.142 52.8907C115.142 52.7965 115.104 52.7258 115.027 52.6787C114.95 52.6273 114.849 52.5888 114.725 52.5631C114.601 52.5374 114.462 52.5139 114.307 52.4924C114.157 52.471 114.005 52.4432 113.851 52.4089C113.701 52.3704 113.564 52.3169 113.44 52.2484C113.316 52.1756 113.215 52.0792 113.138 51.9593C113.061 51.8394 113.023 51.681 113.023 51.484C113.023 51.2656 113.085 51.0772 113.209 50.9187C113.333 50.756 113.507 50.6318 113.729 50.5462C113.956 50.4562 114.224 50.4113 114.532 50.4113C114.763 50.4113 114.997 50.437 115.232 50.4884C115.468 50.5397 115.663 50.6125 115.817 50.7067L115.509 51.317C115.346 51.2185 115.181 51.1521 115.014 51.1178C114.851 51.0793 114.688 51.06 114.526 51.06C114.282 51.06 114.1 51.0964 113.98 51.1692C113.864 51.242 113.806 51.3341 113.806 51.4454C113.806 51.5482 113.845 51.6253 113.922 51.6767C113.999 51.7281 114.1 51.7687 114.224 51.7987C114.348 51.8287 114.485 51.8544 114.635 51.8758C114.789 51.8929 114.941 51.9208 115.091 51.9593C115.241 51.9978 115.378 52.0514 115.502 52.1199C115.631 52.1841 115.733 52.2762 115.81 52.3961C115.888 52.516 115.926 52.6723 115.926 52.865C115.926 53.0791 115.862 53.2654 115.733 53.4238C115.609 53.5823 115.431 53.7065 115.2 53.7964C114.969 53.882 114.693 53.9248 114.372 53.9248ZM117.273 53.1155L117.292 52.107L119.084 50.4498H120.048L118.525 51.9786L118.101 52.3319L117.273 53.1155ZM116.618 53.8799V49.1138H117.42V53.8799H116.618ZM119.206 53.8799L117.954 52.3319L118.461 51.6895L120.182 53.8799H119.206ZM120.701 53.8799V50.4498H121.504V53.8799H120.701ZM121.106 49.8846C120.956 49.8846 120.832 49.8375 120.733 49.7432C120.639 49.649 120.592 49.5356 120.592 49.4028C120.592 49.2658 120.639 49.1523 120.733 49.0624C120.832 48.9682 120.956 48.9211 121.106 48.9211C121.256 48.9211 121.378 48.966 121.472 49.0559C121.57 49.1416 121.62 49.2508 121.62 49.3835C121.62 49.5249 121.573 49.6448 121.478 49.7432C121.384 49.8375 121.26 49.8846 121.106 49.8846ZM122.558 53.8799V49.1138H123.361V53.8799H122.558ZM124.415 53.8799V49.1138H125.218V53.8799H124.415ZM129.62 53.9248C129.261 53.9248 128.939 53.8499 128.657 53.7C128.378 53.5459 128.16 53.336 128.002 53.0705C127.843 52.805 127.764 52.5031 127.764 52.1648C127.764 51.8223 127.843 51.5204 128.002 51.2592C128.16 50.9937 128.378 50.786 128.657 50.6361C128.939 50.4862 129.261 50.4113 129.62 50.4113C129.954 50.4113 130.248 50.4798 130.5 50.6168C130.757 50.7496 130.952 50.9466 131.085 51.2078L130.468 51.5675C130.365 51.4048 130.239 51.2848 130.089 51.2078C129.944 51.1307 129.785 51.0921 129.614 51.0921C129.417 51.0921 129.239 51.135 129.081 51.2206C128.922 51.3063 128.798 51.4304 128.708 51.5932C128.618 51.7516 128.573 51.9422 128.573 52.1648C128.573 52.3875 128.618 52.5802 128.708 52.7429C128.798 52.9014 128.922 53.0234 129.081 53.1091C129.239 53.1947 129.417 53.2375 129.614 53.2375C129.785 53.2375 129.944 53.199 130.089 53.1219C130.239 53.0448 130.365 52.9249 130.468 52.7622L131.085 53.1219C130.952 53.3789 130.757 53.578 130.5 53.7193C130.248 53.8563 129.954 53.9248 129.62 53.9248ZM133.27 53.9248C132.919 53.9248 132.607 53.8499 132.332 53.7C132.058 53.5459 131.842 53.336 131.684 53.0705C131.525 52.805 131.446 52.5031 131.446 52.1648C131.446 51.8223 131.525 51.5204 131.684 51.2592C131.842 50.9937 132.058 50.786 132.332 50.6361C132.607 50.4862 132.919 50.4113 133.27 50.4113C133.626 50.4113 133.94 50.4862 134.215 50.6361C134.493 50.786 134.709 50.9915 134.863 51.2527C135.022 51.5139 135.101 51.818 135.101 52.1648C135.101 52.5031 135.022 52.805 134.863 53.0705C134.709 53.336 134.493 53.5459 134.215 53.7C133.94 53.8499 133.626 53.9248 133.27 53.9248ZM133.27 53.2375C133.467 53.2375 133.643 53.1947 133.797 53.1091C133.951 53.0234 134.071 52.8993 134.157 52.7365C134.247 52.5738 134.292 52.3832 134.292 52.1648C134.292 51.9422 134.247 51.7516 134.157 51.5932C134.071 51.4304 133.951 51.3063 133.797 51.2206C133.643 51.135 133.469 51.0921 133.277 51.0921C133.08 51.0921 132.904 51.135 132.75 51.2206C132.6 51.3063 132.48 51.4304 132.39 51.5932C132.3 51.7516 132.255 51.9422 132.255 52.1648C132.255 52.3832 132.3 52.5738 132.39 52.7365C132.48 52.8993 132.6 53.0234 132.75 53.1091C132.904 53.1947 133.078 53.2375 133.27 53.2375ZM140.198 50.4113C140.472 50.4113 140.714 50.4648 140.924 50.5719C141.138 50.6789 141.305 50.8438 141.425 51.0665C141.545 51.2848 141.605 51.5675 141.605 51.9143V53.8799H140.802V52.0171C140.802 51.7131 140.736 51.4861 140.603 51.3362C140.47 51.1864 140.279 51.1114 140.031 51.1114C139.856 51.1114 139.699 51.15 139.562 51.227C139.429 51.3041 139.325 51.4176 139.247 51.5675C139.175 51.7174 139.138 51.9079 139.138 52.1392V53.8799H138.335V52.0171C138.335 51.7131 138.269 51.4861 138.136 51.3362C138.003 51.1864 137.813 51.1114 137.565 51.1114C137.389 51.1114 137.233 51.15 137.096 51.227C136.963 51.3041 136.858 51.4176 136.781 51.5675C136.708 51.7174 136.672 51.9079 136.672 52.1392V53.8799H135.869V50.4498H136.633V51.3619L136.498 51.0921C136.614 50.8695 136.781 50.7003 136.999 50.5847C137.222 50.4691 137.475 50.4113 137.757 50.4113C138.078 50.4113 138.357 50.4905 138.592 50.6489C138.832 50.8074 138.99 51.0472 139.068 51.3684L138.753 51.2592C138.864 51.0022 139.048 50.7967 139.305 50.6425C139.562 50.4884 139.86 50.4113 140.198 50.4113ZM144.532 53.9248C144.254 53.9248 143.999 53.8606 143.768 53.7321C143.541 53.6037 143.359 53.411 143.222 53.154C143.089 52.8928 143.023 52.5631 143.023 52.1648C143.023 51.7623 143.087 51.4326 143.215 51.1757C143.348 50.9187 143.528 50.7282 143.755 50.604C143.982 50.4755 144.241 50.4113 144.532 50.4113C144.87 50.4113 145.168 50.4841 145.425 50.6297C145.686 50.7753 145.892 50.9787 146.042 51.2399C146.196 51.5011 146.273 51.8094 146.273 52.1648C146.273 52.5203 146.196 52.8307 146.042 53.0962C145.892 53.3575 145.686 53.5609 145.425 53.7065C145.168 53.852 144.87 53.9248 144.532 53.9248ZM142.631 55.126V50.4498H143.395V51.2592L143.37 52.1713L143.434 53.0834V55.126H142.631ZM144.442 53.2375C144.635 53.2375 144.806 53.1947 144.956 53.1091C145.11 53.0234 145.232 52.8993 145.322 52.7365C145.412 52.5738 145.457 52.3832 145.457 52.1648C145.457 51.9422 145.412 51.7516 145.322 51.5932C145.232 51.4304 145.11 51.3063 144.956 51.2206C144.806 51.135 144.635 51.0921 144.442 51.0921C144.25 51.0921 144.076 51.135 143.922 51.2206C143.768 51.3063 143.646 51.4304 143.556 51.5932C143.466 51.7516 143.421 51.9422 143.421 52.1648C143.421 52.3832 143.466 52.5738 143.556 52.7365C143.646 52.8993 143.768 53.0234 143.922 53.1091C144.076 53.1947 144.25 53.2375 144.442 53.2375ZM149.104 53.8799V53.1862L149.059 53.0384V51.8244C149.059 51.5889 148.988 51.4069 148.847 51.2784C148.705 51.1457 148.491 51.0793 148.204 51.0793C148.012 51.0793 147.821 51.1093 147.633 51.1692C147.449 51.2292 147.292 51.3127 147.164 51.4197L146.849 50.8352C147.033 50.6939 147.252 50.589 147.504 50.5205C147.761 50.4477 148.027 50.4113 148.301 50.4113C148.798 50.4113 149.181 50.5312 149.451 50.771C149.725 51.0065 149.862 51.3726 149.862 51.8694V53.8799H149.104ZM148.025 53.9248C147.768 53.9248 147.543 53.882 147.35 53.7964C147.157 53.7065 147.008 53.5844 146.901 53.4302C146.798 53.2718 146.746 53.0941 146.746 52.8971C146.746 52.7044 146.791 52.531 146.881 52.3768C146.975 52.2227 147.127 52.1006 147.337 52.0107C147.547 51.9208 147.825 51.8758 148.172 51.8758H149.168V52.4089H148.23C147.956 52.4089 147.772 52.4539 147.678 52.5438C147.584 52.6295 147.536 52.7365 147.536 52.865C147.536 53.0106 147.594 53.1262 147.71 53.2119C147.825 53.2975 147.986 53.3403 148.192 53.3403C148.389 53.3403 148.564 53.2954 148.718 53.2054C148.877 53.1155 148.99 52.9828 149.059 52.8072L149.194 53.2889C149.117 53.4902 148.977 53.6465 148.776 53.7578C148.579 53.8692 148.329 53.9248 148.025 53.9248ZM150.892 53.8799V50.4498H151.656V51.394L151.567 51.1178C151.669 50.8866 151.83 50.711 152.048 50.5911C152.271 50.4712 152.547 50.4113 152.877 50.4113V51.1757C152.843 51.1671 152.811 51.1628 152.781 51.1628C152.751 51.1585 152.721 51.1564 152.691 51.1564C152.387 51.1564 152.145 51.2463 151.965 51.4262C151.785 51.6017 151.695 51.8651 151.695 52.2162V53.8799H150.892ZM153.558 53.8799V50.4498H154.361V53.8799H153.558ZM153.963 49.8846C153.813 49.8846 153.689 49.8375 153.59 49.7432C153.496 49.649 153.449 49.5356 153.449 49.4028C153.449 49.2658 153.496 49.1523 153.59 49.0624C153.689 48.9682 153.813 48.9211 153.963 48.9211C154.113 48.9211 154.235 48.966 154.329 49.0559C154.427 49.1416 154.477 49.2508 154.477 49.3835C154.477 49.5249 154.429 49.6448 154.335 49.7432C154.241 49.8375 154.117 49.8846 153.963 49.8846ZM156.475 53.9248C156.188 53.9248 155.912 53.8884 155.646 53.8156C155.385 53.7386 155.177 53.6465 155.023 53.5394L155.331 52.9292C155.485 53.0277 155.67 53.1091 155.884 53.1733C156.098 53.2375 156.312 53.2697 156.526 53.2697C156.779 53.2697 156.961 53.2354 157.072 53.1669C157.188 53.0984 157.245 53.0063 157.245 52.8907C157.245 52.7965 157.207 52.7258 157.13 52.6787C157.053 52.6273 156.952 52.5888 156.828 52.5631C156.704 52.5374 156.565 52.5139 156.41 52.4924C156.261 52.471 156.109 52.4432 155.954 52.4089C155.804 52.3704 155.667 52.3169 155.543 52.2484C155.419 52.1756 155.318 52.0792 155.241 51.9593C155.164 51.8394 155.126 51.681 155.126 51.484C155.126 51.2656 155.188 51.0772 155.312 50.9187C155.436 50.756 155.61 50.6318 155.832 50.5462C156.059 50.4562 156.327 50.4113 156.635 50.4113C156.866 50.4113 157.1 50.437 157.335 50.4884C157.571 50.5397 157.766 50.6125 157.92 50.7067L157.612 51.317C157.449 51.2185 157.284 51.1521 157.117 51.1178C156.954 51.0793 156.792 51.06 156.629 51.06C156.385 51.06 156.203 51.0964 156.083 51.1692C155.967 51.242 155.909 51.3341 155.909 51.4454C155.909 51.5482 155.948 51.6253 156.025 51.6767C156.102 51.7281 156.203 51.7687 156.327 51.7987C156.451 51.8287 156.588 51.8544 156.738 51.8758C156.892 51.8929 157.044 51.9208 157.194 51.9593C157.344 51.9978 157.481 52.0514 157.605 52.1199C157.734 52.1841 157.836 52.2762 157.913 52.3961C157.991 52.516 158.029 52.6723 158.029 52.865C158.029 53.0791 157.965 53.2654 157.836 53.4238C157.712 53.5823 157.535 53.7065 157.303 53.7964C157.072 53.882 156.796 53.9248 156.475 53.9248ZM160.262 53.9248C159.911 53.9248 159.598 53.8499 159.324 53.7C159.05 53.5459 158.834 53.336 158.676 53.0705C158.517 52.805 158.438 52.5031 158.438 52.1648C158.438 51.8223 158.517 51.5204 158.676 51.2592C158.834 50.9937 159.05 50.786 159.324 50.6361C159.598 50.4862 159.911 50.4113 160.262 50.4113C160.618 50.4113 160.932 50.4862 161.206 50.6361C161.485 50.786 161.701 50.9915 161.855 51.2527C162.014 51.5139 162.093 51.818 162.093 52.1648C162.093 52.5031 162.014 52.805 161.855 53.0705C161.701 53.336 161.485 53.5459 161.206 53.7C160.932 53.8499 160.618 53.9248 160.262 53.9248ZM160.262 53.2375C160.459 53.2375 160.635 53.1947 160.789 53.1091C160.943 53.0234 161.063 52.8993 161.149 52.7365C161.239 52.5738 161.283 52.3832 161.283 52.1648C161.283 51.9422 161.239 51.7516 161.149 51.5932C161.063 51.4304 160.943 51.3063 160.789 51.2206C160.635 51.135 160.461 51.0921 160.269 51.0921C160.072 51.0921 159.896 51.135 159.742 51.2206C159.592 51.3063 159.472 51.4304 159.382 51.5932C159.292 51.7516 159.247 51.9422 159.247 52.1648C159.247 52.3832 159.292 52.5738 159.382 52.7365C159.472 52.8993 159.592 53.0234 159.742 53.1091C159.896 53.1947 160.069 53.2375 160.262 53.2375ZM164.807 50.4113C165.081 50.4113 165.325 50.4648 165.539 50.5719C165.758 50.6789 165.929 50.8438 166.053 51.0665C166.177 51.2848 166.239 51.5675 166.239 51.9143V53.8799H165.436V52.0171C165.436 51.7131 165.364 51.4861 165.218 51.3362C165.077 51.1864 164.878 51.1114 164.621 51.1114C164.432 51.1114 164.265 51.15 164.12 51.227C163.974 51.3041 163.861 51.4197 163.779 51.5739C163.702 51.7238 163.664 51.9143 163.664 52.1456V53.8799H162.861V50.4498H163.625V51.3748L163.49 51.0921C163.61 50.8738 163.783 50.7067 164.01 50.5911C164.242 50.4712 164.507 50.4113 164.807 50.4113Z" fill="#333333"/>
<path d="M133.947 67.4419L133.947 221.553" stroke="#F3F4F4" stroke-width="0.713706"/>
<path d="M55.105 80.3428V78.8397L55.2624 79.2738L53.6128 76.5444H54.367L55.691 78.742H55.2678L56.6026 76.5444H57.2972L55.6476 79.2738L55.8104 78.8397V80.3428H55.105ZM58.6731 80.3808C58.3764 80.3808 58.1124 80.3175 57.8808 80.1908C57.6493 80.0606 57.4666 79.8834 57.3328 79.6591C57.199 79.4348 57.132 79.1798 57.132 78.894C57.132 78.6046 57.199 78.3495 57.3328 78.1289C57.4666 77.9046 57.6493 77.7291 57.8808 77.6025C58.1124 77.4759 58.3764 77.4126 58.6731 77.4126C58.9733 77.4126 59.2392 77.4759 59.4707 77.6025C59.7059 77.7291 59.8886 77.9028 60.0188 78.1234C60.1526 78.3441 60.2196 78.601 60.2196 78.894C60.2196 79.1798 60.1526 79.4348 60.0188 79.6591C59.8886 79.8834 59.7059 80.0606 59.4707 80.1908C59.2392 80.3175 58.9733 80.3808 58.6731 80.3808ZM58.6731 79.8002C58.8395 79.8002 58.9878 79.764 59.118 79.6916C59.2483 79.6193 59.3495 79.5144 59.4219 79.3769C59.4979 79.2394 59.5358 79.0785 59.5358 78.894C59.5358 78.7059 59.4979 78.5449 59.4219 78.411C59.3495 78.2736 59.2483 78.1687 59.118 78.0963C58.9878 78.024 58.8413 77.9878 58.6785 77.9878C58.5121 77.9878 58.3638 78.024 58.2336 78.0963C58.1069 78.1687 58.0057 78.2736 57.9297 78.411C57.8537 78.5449 57.8157 78.7059 57.8157 78.894C57.8157 79.0785 57.8537 79.2394 57.9297 79.3769C58.0057 79.5144 58.1069 79.6193 58.2336 79.6916C58.3638 79.764 58.5103 79.8002 58.6731 79.8002ZM62.0945 80.3808C61.8485 80.3808 61.6314 80.3355 61.4433 80.2451C61.2552 80.151 61.1087 80.01 61.0038 79.8219C60.8989 79.6301 60.8464 79.3896 60.8464 79.1002V77.4452H61.5247V79.0079C61.5247 79.2684 61.5826 79.4637 61.6984 79.594C61.8177 79.7206 61.986 79.7839 62.203 79.7839C62.3622 79.7839 62.4996 79.7513 62.6154 79.6862C62.7348 79.6211 62.827 79.5234 62.8921 79.3932C62.9609 79.263 62.9952 79.102 62.9952 78.9103V77.4452H63.6735V80.3428H63.0278V79.5614L63.1417 79.8002C63.0441 79.9883 62.9012 80.133 62.7131 80.2342C62.525 80.3319 62.3188 80.3808 62.0945 80.3808ZM64.5616 80.3428V77.4452H65.2073V78.2428L65.1313 78.0095C65.2182 77.8142 65.3538 77.6658 65.5383 77.5645C65.7264 77.4633 65.9597 77.4126 66.2383 77.4126V78.0583C66.2094 78.0511 66.1822 78.0475 66.1569 78.0475C66.1316 78.0439 66.1063 78.0421 66.0809 78.0421C65.8241 78.0421 65.6197 78.118 65.4678 78.27C65.3158 78.4183 65.2399 78.6407 65.2399 78.9374V80.3428H64.5616ZM69.6692 80.3808C69.3654 80.3808 69.0941 80.3175 68.8553 80.1908C68.6202 80.0606 68.4357 79.8834 68.3018 79.6591C68.168 79.4348 68.1011 79.1798 68.1011 78.894C68.1011 78.6046 68.168 78.3495 68.3018 78.1289C68.4357 77.9046 68.6202 77.7291 68.8553 77.6025C69.0941 77.4759 69.3654 77.4126 69.6692 77.4126C69.9514 77.4126 70.1992 77.4705 70.4126 77.5863C70.6297 77.6984 70.7943 77.8648 70.9064 78.0855L70.3855 78.3893C70.2987 78.2519 70.192 78.1506 70.0653 78.0855C69.9424 78.0203 69.8085 77.9878 69.6638 77.9878C69.4974 77.9878 69.3473 78.024 69.2134 78.0963C69.0796 78.1687 68.9747 78.2736 68.8987 78.411C68.8227 78.5449 68.7848 78.7059 68.7848 78.894C68.7848 79.0821 68.8227 79.2449 68.8987 79.3823C68.9747 79.5162 69.0796 79.6193 69.2134 79.6916C69.3473 79.764 69.4974 79.8002 69.6638 79.8002C69.8085 79.8002 69.9424 79.7676 70.0653 79.7025C70.192 79.6374 70.2987 79.5361 70.3855 79.3986L70.9064 79.7025C70.7943 79.9195 70.6297 80.0877 70.4126 80.2071C70.1992 80.3229 69.9514 80.3808 69.6692 80.3808ZM72.7191 80.3808C72.4731 80.3808 72.256 80.3355 72.0679 80.2451C71.8798 80.151 71.7333 80.01 71.6284 79.8219C71.5235 79.6301 71.471 79.3896 71.471 79.1002V77.4452H72.1493V79.0079C72.1493 79.2684 72.2072 79.4637 72.323 79.594C72.4423 79.7206 72.6105 79.7839 72.8276 79.7839C72.9868 79.7839 73.1242 79.7513 73.24 79.6862C73.3594 79.6211 73.4516 79.5234 73.5167 79.3932C73.5855 79.263 73.6198 79.102 73.6198 78.9103V77.4452H74.2981V80.3428H73.6524V79.5614L73.7663 79.8002C73.6687 79.9883 73.5258 80.133 73.3377 80.2342C73.1495 80.3319 72.9434 80.3808 72.7191 80.3808ZM75.1862 80.3428V77.4452H75.8319V78.2428L75.7559 78.0095C75.8427 77.8142 75.9784 77.6658 76.1629 77.5645C76.351 77.4633 76.5843 77.4126 76.8629 77.4126V78.0583C76.8339 78.0511 76.8068 78.0475 76.7815 78.0475C76.7562 78.0439 76.7308 78.0421 76.7055 78.0421C76.4487 78.0421 76.2443 78.118 76.0924 78.27C75.9404 78.4183 75.8645 78.6407 75.8645 78.9374V80.3428H75.1862ZM77.4383 80.3428V77.4452H78.084V78.2428L78.008 78.0095C78.0948 77.8142 78.2305 77.6658 78.415 77.5645C78.6031 77.4633 78.8364 77.4126 79.115 77.4126V78.0583C79.086 78.0511 79.0589 78.0475 79.0336 78.0475C79.0083 78.0439 78.9829 78.0421 78.9576 78.0421C78.7008 78.0421 78.4964 78.118 78.3445 78.27C78.1925 78.4183 78.1165 78.6407 78.1165 78.9374V80.3428H77.4383ZM81.0259 80.3808C80.7039 80.3808 80.4217 80.3175 80.1794 80.1908C79.9406 80.0606 79.7543 79.8834 79.6205 79.6591C79.4902 79.4348 79.4251 79.1798 79.4251 78.894C79.4251 78.6046 79.4884 78.3495 79.615 78.1289C79.7453 77.9046 79.9225 77.7291 80.1468 77.6025C80.3747 77.4759 80.6334 77.4126 80.9228 77.4126C81.2049 77.4126 81.4563 77.4741 81.677 77.5971C81.8977 77.7201 82.0713 77.8937 82.1979 78.118C82.3245 78.3423 82.3878 78.6064 82.3878 78.9103C82.3878 78.9392 82.386 78.9717 82.3824 79.0079C82.3824 79.0441 82.3806 79.0785 82.377 79.111H79.9623V78.6606H82.0189L81.753 78.8017C81.7566 78.6353 81.7222 78.4888 81.6499 78.3622C81.5775 78.2356 81.478 78.1361 81.3514 78.0638C81.2284 77.9914 81.0855 77.9552 80.9228 77.9552C80.7563 77.9552 80.6098 77.9914 80.4832 78.0638C80.3602 78.1361 80.2626 78.2374 80.1902 78.3676C80.1215 78.4942 80.0871 78.6444 80.0871 78.818V78.9265C80.0871 79.1002 80.1269 79.2539 80.2065 79.3878C80.2861 79.5216 80.3982 79.6247 80.5429 79.6971C80.6876 79.7694 80.854 79.8056 81.0421 79.8056C81.2049 79.8056 81.3514 79.7803 81.4817 79.7296C81.6119 79.679 81.7276 79.5994 81.8289 79.4909L82.1925 79.9087C82.0623 80.0606 81.8977 80.1782 81.6987 80.2614C81.5034 80.341 81.2791 80.3808 81.0259 80.3808ZM84.6835 77.4126C84.915 77.4126 85.1212 77.4578 85.3021 77.5483C85.4866 77.6387 85.6313 77.778 85.7362 77.9661C85.8411 78.1506 85.8936 78.3893 85.8936 78.6823V80.3428H85.2153V78.7692C85.2153 78.5123 85.1538 78.3206 85.0308 78.194C84.9114 78.0674 84.7432 78.0041 84.5261 78.0041C84.367 78.0041 84.2259 78.0366 84.1029 78.1017C83.9799 78.1669 83.884 78.2645 83.8153 78.3948C83.7502 78.5214 83.7176 78.6823 83.7176 78.8777V80.3428H83.0394V77.4452H83.6851V78.2265L83.5711 77.9878C83.6724 77.8033 83.8189 77.6622 84.0107 77.5645C84.206 77.4633 84.4303 77.4126 84.6835 77.4126ZM87.8447 80.3808C87.5263 80.3808 87.2803 80.2994 87.1067 80.1366C86.9331 79.9702 86.8462 79.726 86.8462 79.404V76.8049H87.5245V79.3878C87.5245 79.5252 87.5589 79.6319 87.6276 79.7079C87.7 79.7839 87.7994 79.8219 87.9261 79.8219C88.078 79.8219 88.2046 79.7821 88.3059 79.7025L88.4958 80.1854C88.4162 80.2505 88.3186 80.2994 88.2028 80.3319C88.087 80.3645 87.9677 80.3808 87.8447 80.3808ZM86.3687 78.0095V77.4669H88.3005V78.0095H86.3687ZM90.5534 80.3428V77.4452H91.1991V78.2428L91.1232 78.0095C91.21 77.8142 91.3456 77.6658 91.5301 77.5645C91.7182 77.4633 91.9516 77.4126 92.2301 77.4126V78.0583C92.2012 78.0511 92.174 78.0475 92.1487 78.0475C92.1234 78.0439 92.0981 78.0421 92.0728 78.0421C91.8159 78.0421 91.6115 78.118 91.4596 78.27C91.3077 78.4183 91.2317 78.6407 91.2317 78.9374V80.3428H90.5534ZM94.0813 80.3808C93.7847 80.3808 93.5206 80.3175 93.2891 80.1908C93.0576 80.0606 92.8749 79.8834 92.741 79.6591C92.6072 79.4348 92.5403 79.1798 92.5403 78.894C92.5403 78.6046 92.6072 78.3495 92.741 78.1289C92.8749 77.9046 93.0576 77.7291 93.2891 77.6025C93.5206 77.4759 93.7847 77.4126 94.0813 77.4126C94.3816 77.4126 94.6474 77.4759 94.879 77.6025C95.1141 77.7291 95.2968 77.9028 95.427 78.1234C95.5609 78.3441 95.6278 78.601 95.6278 78.894C95.6278 79.1798 95.5609 79.4348 95.427 79.6591C95.2968 79.8834 95.1141 80.0606 94.879 80.1908C94.6474 80.3175 94.3816 80.3808 94.0813 80.3808ZM94.0813 79.8002C94.2477 79.8002 94.396 79.764 94.5263 79.6916C94.6565 79.6193 94.7578 79.5144 94.8301 79.3769C94.9061 79.2394 94.9441 79.0785 94.9441 78.894C94.9441 78.7059 94.9061 78.5449 94.8301 78.411C94.7578 78.2736 94.6565 78.1687 94.5263 78.0963C94.396 78.024 94.2495 77.9878 94.0867 77.9878C93.9203 77.9878 93.772 78.024 93.6418 78.0963C93.5152 78.1687 93.4139 78.2736 93.3379 78.411C93.2619 78.5449 93.224 78.7059 93.224 78.894C93.224 79.0785 93.2619 79.2394 93.3379 79.3769C93.4139 79.5144 93.5152 79.6193 93.6418 79.6916C93.772 79.764 93.9185 79.8002 94.0813 79.8002ZM96.2764 80.3428V76.3165H96.9547V80.3428H96.2764ZM99.2069 80.3808C98.8849 80.3808 98.6028 80.3175 98.3604 80.1908C98.1216 80.0606 97.9353 79.8834 97.8015 79.6591C97.6713 79.4348 97.6061 79.1798 97.6061 78.894C97.6061 78.6046 97.6695 78.3495 97.7961 78.1289C97.9263 77.9046 98.1035 77.7291 98.3278 77.6025C98.5557 77.4759 98.8144 77.4126 99.1038 77.4126C99.3859 77.4126 99.6374 77.4741 99.858 77.5971C100.079 77.7201 100.252 77.8937 100.379 78.118C100.506 78.3423 100.569 78.6064 100.569 78.9103C100.569 78.9392 100.567 78.9717 100.563 79.0079C100.563 79.0441 100.562 79.0785 100.558 79.111H98.1433V78.6606H100.2L99.934 78.8017C99.9376 78.6353 99.9032 78.4888 99.8309 78.3622C99.7585 78.2356 99.6591 78.1361 99.5325 78.0638C99.4095 77.9914 99.2666 77.9552 99.1038 77.9552C98.9374 77.9552 98.7909 77.9914 98.6643 78.0638C98.5413 78.1361 98.4436 78.2374 98.3712 78.3676C98.3025 78.4942 98.2681 78.6444 98.2681 78.818V78.9265C98.2681 79.1002 98.3079 79.2539 98.3875 79.3878C98.4671 79.5216 98.5792 79.6247 98.7239 79.6971C98.8686 79.7694 99.0351 79.8056 99.2232 79.8056C99.3859 79.8056 99.5325 79.7803 99.6627 79.7296C99.7929 79.679 99.9087 79.5994 100.01 79.4909L100.374 79.9087C100.243 80.0606 100.079 80.1782 99.8797 80.2614C99.6844 80.341 99.4601 80.3808 99.2069 80.3808Z" fill="#585858"/>
<path d="M162.373 80.2817V78.7787L162.531 79.2128L160.881 76.4834H161.635L162.959 78.681H162.536L163.871 76.4834H164.566L162.916 79.2128L163.079 78.7787V80.2817H162.373ZM165.941 80.3197C165.645 80.3197 165.381 80.2564 165.149 80.1298C164.918 79.9996 164.735 79.8223 164.601 79.598C164.467 79.3738 164.4 79.1187 164.4 78.8329C164.4 78.5435 164.467 78.2885 164.601 78.0678C164.735 77.8436 164.918 77.6681 165.149 77.5415C165.381 77.4149 165.645 77.3516 165.941 77.3516C166.242 77.3516 166.508 77.4149 166.739 77.5415C166.974 77.6681 167.157 77.8417 167.287 78.0624C167.421 78.2831 167.488 78.5399 167.488 78.8329C167.488 79.1187 167.421 79.3738 167.287 79.598C167.157 79.8223 166.974 79.9996 166.739 80.1298C166.508 80.2564 166.242 80.3197 165.941 80.3197ZM165.941 79.7391C166.108 79.7391 166.256 79.7029 166.386 79.6306C166.517 79.5582 166.618 79.4533 166.69 79.3159C166.766 79.1784 166.804 79.0174 166.804 78.8329C166.804 78.6448 166.766 78.4838 166.69 78.35C166.618 78.2125 166.517 78.1076 166.386 78.0353C166.256 77.9629 166.11 77.9268 165.947 77.9268C165.78 77.9268 165.632 77.9629 165.502 78.0353C165.375 78.1076 165.274 78.2125 165.198 78.35C165.122 78.4838 165.084 78.6448 165.084 78.8329C165.084 79.0174 165.122 79.1784 165.198 79.3159C165.274 79.4533 165.375 79.5582 165.502 79.6306C165.632 79.7029 165.779 79.7391 165.941 79.7391ZM169.363 80.3197C169.117 80.3197 168.9 80.2745 168.712 80.1841C168.524 80.09 168.377 79.9489 168.272 79.7608C168.167 79.5691 168.115 79.3285 168.115 79.0391V77.3841H168.793V78.9469C168.793 79.2073 168.851 79.4027 168.967 79.5329C169.086 79.6595 169.254 79.7228 169.471 79.7228C169.631 79.7228 169.768 79.6903 169.884 79.6252C170.003 79.5601 170.095 79.4624 170.161 79.3321C170.229 79.2019 170.264 79.0409 170.264 78.8492V77.3841H170.942V80.2817H170.296V79.5004L170.41 79.7391C170.312 79.9272 170.17 80.0719 169.981 80.1732C169.793 80.2709 169.587 80.3197 169.363 80.3197ZM171.83 80.2817V77.3841H172.476V78.1818L172.4 77.9485C172.487 77.7531 172.622 77.6048 172.807 77.5035C172.995 77.4022 173.228 77.3516 173.507 77.3516V77.9973C173.478 77.9901 173.451 77.9864 173.425 77.9864C173.4 77.9828 173.375 77.981 173.349 77.981C173.092 77.981 172.888 78.057 172.736 78.2089C172.584 78.3572 172.508 78.5797 172.508 78.8763V80.2817H171.83ZM176.699 80.3197C176.381 80.3197 176.135 80.2383 175.961 80.0755C175.787 79.9091 175.7 79.665 175.7 79.343V76.7438H176.379V79.3267C176.379 79.4642 176.413 79.5709 176.482 79.6469C176.554 79.7228 176.654 79.7608 176.78 79.7608C176.932 79.7608 177.059 79.721 177.16 79.6414L177.35 80.1244C177.27 80.1895 177.173 80.2383 177.057 80.2709C176.941 80.3034 176.822 80.3197 176.699 80.3197ZM175.223 77.9485V77.4058H177.155V77.9485H175.223ZM179.693 80.2817V79.6957L179.655 79.5709V78.5453C179.655 78.3464 179.596 78.1926 179.476 78.0841C179.357 77.972 179.176 77.9159 178.934 77.9159C178.771 77.9159 178.61 77.9412 178.451 77.9919C178.295 78.0425 178.163 78.1131 178.054 78.2035L177.789 77.7097C177.944 77.5903 178.129 77.5017 178.342 77.4438C178.559 77.3823 178.783 77.3516 179.015 77.3516C179.435 77.3516 179.758 77.4529 179.986 77.6554C180.218 77.8544 180.333 78.1637 180.333 78.5833V80.2817H179.693ZM178.782 80.3197C178.565 80.3197 178.375 80.2835 178.212 80.2112C178.049 80.1352 177.922 80.0321 177.832 79.9019C177.745 79.7681 177.702 79.6179 177.702 79.4515C177.702 79.2887 177.74 79.1422 177.816 79.012C177.895 78.8818 178.024 78.7787 178.201 78.7027C178.378 78.6267 178.613 78.5888 178.906 78.5888H179.747V79.0391H178.955C178.724 79.0391 178.568 79.0771 178.489 79.1531C178.409 79.2254 178.369 79.3159 178.369 79.4244C178.369 79.5474 178.418 79.6451 178.516 79.7174C178.613 79.7898 178.749 79.8259 178.923 79.8259C179.089 79.8259 179.237 79.788 179.368 79.712C179.501 79.636 179.597 79.5239 179.655 79.3756L179.769 79.7825C179.704 79.9525 179.586 80.0846 179.416 80.1786C179.25 80.2727 179.038 80.3197 178.782 80.3197ZM181.204 80.2817V77.3841H181.85V78.1818L181.774 77.9485C181.861 77.7531 181.996 77.6048 182.181 77.5035C182.369 77.4022 182.602 77.3516 182.881 77.3516V77.9973C182.852 77.9901 182.825 77.9864 182.799 77.9864C182.774 77.9828 182.749 77.981 182.723 77.981C182.466 77.981 182.262 78.057 182.11 78.2089C181.958 78.3572 181.882 78.5797 181.882 78.8763V80.2817H181.204ZM184.743 81.3724C184.475 81.3724 184.213 81.3362 183.956 81.2639C183.703 81.1952 183.495 81.0939 183.332 80.96L183.636 80.45C183.762 80.5549 183.922 80.6381 184.113 80.6996C184.309 80.7647 184.506 80.7972 184.705 80.7972C185.023 80.7972 185.256 80.7231 185.405 80.5748C185.553 80.4301 185.627 80.2112 185.627 79.9182V79.4027L185.681 78.7461L185.66 78.0895V77.3841H186.305V79.8422C186.305 80.3667 186.172 80.752 185.904 80.998C185.636 81.2476 185.249 81.3724 184.743 81.3724ZM184.656 80.1515C184.381 80.1515 184.131 80.0936 183.907 79.9779C183.686 79.8585 183.511 79.6939 183.381 79.4841C183.254 79.2743 183.191 79.0283 183.191 78.7461C183.191 78.4676 183.254 78.2234 183.381 78.0136C183.511 77.8038 183.686 77.641 183.907 77.5252C184.131 77.4095 184.381 77.3516 184.656 77.3516C184.902 77.3516 185.123 77.4004 185.318 77.4981C185.513 77.5958 185.669 77.7477 185.785 77.9539C185.904 78.1601 185.964 78.4242 185.964 78.7461C185.964 79.0681 185.904 79.334 185.785 79.5438C185.669 79.75 185.513 79.9037 185.318 80.005C185.123 80.1027 184.902 80.1515 184.656 80.1515ZM184.759 79.5763C184.929 79.5763 185.081 79.542 185.215 79.4732C185.349 79.4009 185.452 79.3032 185.524 79.1802C185.6 79.0536 185.638 78.9089 185.638 78.7461C185.638 78.5833 185.6 78.4404 185.524 78.3174C185.452 78.1908 185.349 78.095 185.215 78.0299C185.081 77.9611 184.929 77.9268 184.759 77.9268C184.589 77.9268 184.435 77.9611 184.298 78.0299C184.164 78.095 184.059 78.1908 183.983 78.3174C183.911 78.4404 183.875 78.5833 183.875 78.7461C183.875 78.9089 183.911 79.0536 183.983 79.1802C184.059 79.3032 184.164 79.4009 184.298 79.4732C184.435 79.542 184.589 79.5763 184.759 79.5763ZM188.559 80.3197C188.237 80.3197 187.955 80.2564 187.713 80.1298C187.474 79.9996 187.288 79.8223 187.154 79.598C187.024 79.3738 186.958 79.1187 186.958 78.8329C186.958 78.5435 187.022 78.2885 187.148 78.0678C187.279 77.8436 187.456 77.6681 187.68 77.5415C187.908 77.4149 188.167 77.3516 188.456 77.3516C188.738 77.3516 188.99 77.4131 189.21 77.5361C189.431 77.6591 189.605 77.8327 189.731 78.057C189.858 78.2813 189.921 78.5453 189.921 78.8492C189.921 78.8782 189.919 78.9107 189.916 78.9469C189.916 78.9831 189.914 79.0174 189.91 79.05H187.496V78.5996H189.552L189.286 78.7407C189.29 78.5743 189.256 78.4278 189.183 78.3012C189.111 78.1746 189.011 78.0751 188.885 78.0027C188.762 77.9304 188.619 77.8942 188.456 77.8942C188.29 77.8942 188.143 77.9304 188.017 78.0027C187.894 78.0751 187.796 78.1764 187.724 78.3066C187.655 78.4332 187.62 78.5833 187.62 78.757V78.8655C187.62 79.0391 187.66 79.1929 187.74 79.3267C187.819 79.4606 187.932 79.5637 188.076 79.636C188.221 79.7084 188.387 79.7445 188.575 79.7445C188.738 79.7445 188.885 79.7192 189.015 79.6686C189.145 79.6179 189.261 79.5383 189.362 79.4298L189.726 79.8476C189.596 79.9996 189.431 80.1171 189.232 80.2003C189.037 80.2799 188.812 80.3197 188.559 80.3197ZM191.663 80.3197C191.345 80.3197 191.099 80.2383 190.925 80.0755C190.752 79.9091 190.665 79.665 190.665 79.343V76.7438H191.343V79.3267C191.343 79.4642 191.378 79.5709 191.446 79.6469C191.519 79.7228 191.618 79.7608 191.745 79.7608C191.897 79.7608 192.023 79.721 192.125 79.6414L192.315 80.1244C192.235 80.1895 192.137 80.2383 192.021 80.2709C191.906 80.3034 191.786 80.3197 191.663 80.3197ZM190.187 77.9485V77.4058H192.119V77.9485H190.187ZM194.372 80.2817V77.3841H195.018V78.1818L194.942 77.9485C195.029 77.7531 195.164 77.6048 195.349 77.5035C195.537 77.4022 195.77 77.3516 196.049 77.3516V77.9973C196.02 77.9901 195.993 77.9864 195.967 77.9864C195.942 77.9828 195.917 77.981 195.891 77.981C195.635 77.981 195.43 78.057 195.278 78.2089C195.126 78.3572 195.05 78.5797 195.05 78.8763V80.2817H194.372ZM197.9 80.3197C197.603 80.3197 197.339 80.2564 197.108 80.1298C196.876 79.9996 196.694 79.8223 196.56 79.598C196.426 79.3738 196.359 79.1187 196.359 78.8329C196.359 78.5435 196.426 78.2885 196.56 78.0678C196.694 77.8436 196.876 77.6681 197.108 77.5415C197.339 77.4149 197.603 77.3516 197.9 77.3516C198.2 77.3516 198.466 77.4149 198.698 77.5415C198.933 77.6681 199.115 77.8417 199.246 78.0624C199.38 78.2831 199.446 78.5399 199.446 78.8329C199.446 79.1187 199.38 79.3738 199.246 79.598C199.115 79.8223 198.933 79.9996 198.698 80.1298C198.466 80.2564 198.2 80.3197 197.9 80.3197ZM197.9 79.7391C198.066 79.7391 198.215 79.7029 198.345 79.6306C198.475 79.5582 198.576 79.4533 198.649 79.3159C198.725 79.1784 198.763 79.0174 198.763 78.8329C198.763 78.6448 198.725 78.4838 198.649 78.35C198.576 78.2125 198.475 78.1076 198.345 78.0353C198.215 77.9629 198.068 77.9268 197.905 77.9268C197.739 77.9268 197.591 77.9629 197.46 78.0353C197.334 78.1076 197.233 78.2125 197.157 78.35C197.081 78.4838 197.043 78.6448 197.043 78.8329C197.043 79.0174 197.081 79.1784 197.157 79.3159C197.233 79.4533 197.334 79.5582 197.46 79.6306C197.591 79.7029 197.737 79.7391 197.9 79.7391ZM200.095 80.2817V76.2555H200.773V80.2817H200.095ZM203.026 80.3197C202.704 80.3197 202.421 80.2564 202.179 80.1298C201.94 79.9996 201.754 79.8223 201.62 79.598C201.49 79.3738 201.425 79.1187 201.425 78.8329C201.425 78.5435 201.488 78.2885 201.615 78.0678C201.745 77.8436 201.922 77.6681 202.147 77.5415C202.374 77.4149 202.633 77.3516 202.922 77.3516C203.205 77.3516 203.456 77.4131 203.677 77.5361C203.897 77.6591 204.071 77.8327 204.198 78.057C204.324 78.2813 204.388 78.5453 204.388 78.8492C204.388 78.8782 204.386 78.9107 204.382 78.9469C204.382 78.9831 204.38 79.0174 204.377 79.05H201.962V78.5996H204.019L203.753 78.7407C203.756 78.5743 203.722 78.4278 203.65 78.3012C203.577 78.1746 203.478 78.0751 203.351 78.0027C203.228 77.9304 203.085 77.8942 202.922 77.8942C202.756 77.8942 202.61 77.9304 202.483 78.0027C202.36 78.0751 202.262 78.1764 202.19 78.3066C202.121 78.4332 202.087 78.5833 202.087 78.757V78.8655C202.087 79.0391 202.127 79.1929 202.206 79.3267C202.286 79.4606 202.398 79.5637 202.543 79.636C202.687 79.7084 202.854 79.7445 203.042 79.7445C203.205 79.7445 203.351 79.7192 203.481 79.6686C203.612 79.6179 203.727 79.5383 203.829 79.4298L204.192 79.8476C204.062 79.9996 203.897 80.1171 203.698 80.2003C203.503 80.2799 203.279 80.3197 203.026 80.3197Z" fill="#585858"/>
<g filter="url(#filter2_d_2376_18348)">
<path d="M42.1409 192.852C42.1409 192.585 42.3576 192.368 42.6249 192.368H122.424C122.692 192.368 122.908 192.585 122.908 192.852V211.467C122.908 211.735 122.692 211.951 122.424 211.951H42.6249C42.3576 211.951 42.1409 211.735 42.1409 211.467V192.852Z" fill="white"/>
</g>
<circle cx="53.5944" cy="201.976" r="5.54241" fill="#E4E4E6"/>
<circle cx="63.9406" cy="204.562" r="1.10848" fill="#E4E4E6"/>
<rect x="62.0936" y="198.649" width="15.1493" height="2.21696" rx="1.10848" fill="#E4E4E6"/>
<rect x="91.8239" y="198.649" width="15.1493" height="2.21696" rx="1.10848" fill="#E4E4E6"/>
<rect x="67.2665" y="203.454" width="36.5799" height="2.21696" rx="1.10848" fill="#E4E4E6"/>
<rect x="80.1987" y="198.649" width="7.75937" height="2.21696" rx="1.10848" fill="#E4E4E6"/>
<g filter="url(#filter3_d_2376_18348)">
<path d="M142.946 192.852C142.946 192.585 143.163 192.368 143.43 192.368H223.23C223.497 192.368 223.714 192.585 223.714 192.852V211.467C223.714 211.735 223.497 211.951 223.23 211.951H143.43C143.163 211.951 142.946 211.735 142.946 211.467V192.852Z" fill="white"/>
</g>
<circle cx="154.4" cy="201.976" r="5.54241" fill="#E4E4E6"/>
<circle cx="164.746" cy="204.562" r="1.10848" fill="#E4E4E6"/>
<rect x="162.899" y="198.649" width="15.1493" height="2.21696" rx="1.10848" fill="#E4E4E6"/>
<rect x="192.629" y="198.649" width="15.1493" height="2.21696" rx="1.10848" fill="#E4E4E6"/>
<rect x="168.071" y="203.454" width="36.5799" height="2.21696" rx="1.10848" fill="#E4E4E6"/>
<rect x="181.004" y="198.649" width="7.75937" height="2.21696" rx="1.10848" fill="#E4E4E6"/>
<g filter="url(#filter4_d_2376_18348)">
<path d="M42.1409 167.651C42.1409 167.383 42.3576 167.167 42.6249 167.167H122.424C122.692 167.167 122.908 167.383 122.908 167.651V186.266C122.908 186.533 122.692 186.75 122.424 186.75H42.6249C42.3576 186.75 42.1409 186.533 42.1409 186.266V167.651Z" fill="white"/>
</g>
<circle cx="53.5944" cy="176.774" r="5.54241" fill="#E4E4E6"/>
<circle cx="63.9406" cy="179.361" r="1.10848" fill="#E4E4E6"/>
<rect x="62.0936" y="173.449" width="15.1493" height="2.21696" rx="1.10848" fill="#E4E4E6"/>
<rect x="91.8239" y="173.449" width="15.1493" height="2.21696" rx="1.10848" fill="#E4E4E6"/>
<rect x="67.2665" y="178.252" width="36.5799" height="2.21696" rx="1.10848" fill="#E4E4E6"/>
<rect x="80.1987" y="173.449" width="7.75937" height="2.21696" rx="1.10848" fill="#E4E4E6"/>
<g filter="url(#filter5_d_2376_18348)">
<path d="M142.946 167.651C142.946 167.383 143.163 167.167 143.43 167.167H223.23C223.497 167.167 223.714 167.383 223.714 167.651V186.266C223.714 186.533 223.497 186.75 223.23 186.75H143.43C143.163 186.75 142.946 186.533 142.946 186.266V167.651Z" fill="white"/>
</g>
<circle cx="154.4" cy="176.774" r="5.54241" fill="#E4E4E6"/>
<circle cx="164.746" cy="179.361" r="1.10848" fill="#E4E4E6"/>
<rect x="162.899" y="173.449" width="15.1493" height="2.21696" rx="1.10848" fill="#E4E4E6"/>
<rect x="192.629" y="173.449" width="15.1493" height="2.21696" rx="1.10848" fill="#E4E4E6"/>
<rect x="168.071" y="178.252" width="36.5799" height="2.21696" rx="1.10848" fill="#E4E4E6"/>
<rect x="181.004" y="173.449" width="7.75937" height="2.21696" rx="1.10848" fill="#E4E4E6"/>
<g filter="url(#filter6_d_2376_18348)">
<path d="M42.1409 142.45C42.1409 142.183 42.3576 141.966 42.6249 141.966H122.424C122.692 141.966 122.908 142.183 122.908 142.45V161.065C122.908 161.332 122.692 161.549 122.424 161.549H42.6249C42.3576 161.549 42.1409 161.332 42.1409 161.065V142.45Z" fill="white"/>
</g>
<circle cx="53.5944" cy="151.573" r="5.54241" fill="#E4E4E6"/>
<circle cx="63.9406" cy="154.16" r="1.10848" fill="#E4E4E6"/>
<rect x="62.0936" y="148.247" width="15.1493" height="2.21696" rx="1.10848" fill="#E4E4E6"/>
<rect x="91.8239" y="148.247" width="15.1493" height="2.21696" rx="1.10848" fill="#E4E4E6"/>
<rect x="67.2665" y="153.051" width="36.5799" height="2.21696" rx="1.10848" fill="#E4E4E6"/>
<rect x="80.1987" y="148.247" width="7.75937" height="2.21696" rx="1.10848" fill="#E4E4E6"/>
<g filter="url(#filter7_d_2376_18348)">
<path d="M142.946 142.45C142.946 142.183 143.163 141.966 143.43 141.966H223.23C223.497 141.966 223.714 142.183 223.714 142.45V161.065C223.714 161.332 223.497 161.549 223.23 161.549H143.43C143.163 161.549 142.946 161.332 142.946 161.065V142.45Z" fill="white"/>
</g>
<circle cx="154.4" cy="151.573" r="5.54241" fill="#E4E4E6"/>
<circle cx="164.746" cy="154.16" r="1.10848" fill="#E4E4E6"/>
<rect x="162.899" y="148.247" width="15.1493" height="2.21696" rx="1.10848" fill="#E4E4E6"/>
<rect x="192.629" y="148.247" width="15.1493" height="2.21696" rx="1.10848" fill="#E4E4E6"/>
<rect x="168.071" y="153.051" width="36.5799" height="2.21696" rx="1.10848" fill="#E4E4E6"/>
<rect x="181.004" y="148.247" width="7.75937" height="2.21696" rx="1.10848" fill="#E4E4E6"/>
<g filter="url(#filter8_d_2376_18348)">
<path d="M42.1409 117.968C42.1409 117.701 42.3576 117.484 42.6249 117.484H122.424C122.692 117.484 122.908 117.701 122.908 117.968V136.584C122.908 136.851 122.692 137.068 122.424 137.068H42.6249C42.3576 137.068 42.1409 136.851 42.1409 136.584V117.968Z" fill="white"/>
</g>
<circle cx="53.5944" cy="127.092" r="5.54241" fill="#E4E4E6"/>
<circle cx="63.9406" cy="129.678" r="1.10848" fill="#E4E4E6"/>
<rect x="62.0936" y="123.766" width="15.1493" height="2.21696" rx="1.10848" fill="#E4E4E6"/>
<rect x="91.8239" y="123.766" width="15.1493" height="2.21696" rx="1.10848" fill="#E4E4E6"/>
<rect x="67.2665" y="128.57" width="36.5799" height="2.21696" rx="1.10848" fill="#E4E4E6"/>
<rect x="80.1987" y="123.766" width="7.75937" height="2.21696" rx="1.10848" fill="#E4E4E6"/>
<g filter="url(#filter9_d_2376_18348)">
<path d="M42.1409 92.047C42.1409 91.7797 42.3576 91.563 42.6249 91.563H122.424C122.692 91.563 122.908 91.7797 122.908 92.047V110.662C122.908 110.929 122.692 111.146 122.424 111.146H42.6249C42.3576 111.146 42.1409 110.929 42.1409 110.662V92.047Z" fill="white"/>
</g>
<circle cx="53.5944" cy="101.17" r="5.54241" fill="#E4E4E6"/>
<circle cx="63.9406" cy="103.756" r="1.10848" fill="#E4E4E6"/>
<rect x="62.0936" y="97.8438" width="15.1493" height="2.21696" rx="1.10848" fill="#E4E4E6"/>
<rect x="91.8239" y="97.8438" width="15.1493" height="2.21696" rx="1.10848" fill="#E4E4E6"/>
<rect x="67.2665" y="102.648" width="36.5799" height="2.21696" rx="1.10848" fill="#E4E4E6"/>
<rect x="80.1987" y="97.8438" width="7.75937" height="2.21696" rx="1.10848" fill="#E4E4E6"/>
<g filter="url(#filter10_d_2376_18348)">
<path d="M142.946 117.968C142.946 117.701 143.163 117.484 143.43 117.484H223.23C223.497 117.484 223.714 117.701 223.714 117.968V136.584C223.714 136.851 223.497 137.068 223.23 137.068H143.43C143.163 137.068 142.946 136.851 142.946 136.584V117.968Z" fill="white"/>
</g>
<circle cx="154.4" cy="127.092" r="5.54241" fill="#E4E4E6"/>
<circle cx="164.746" cy="129.678" r="1.10848" fill="#E4E4E6"/>
<rect x="162.899" y="123.766" width="15.1493" height="2.21696" rx="1.10848" fill="#E4E4E6"/>
<rect x="192.629" y="123.766" width="15.1493" height="2.21696" rx="1.10848" fill="#E4E4E6"/>
<rect x="168.071" y="128.57" width="36.5799" height="2.21696" rx="1.10848" fill="#E4E4E6"/>
<rect x="181.004" y="123.766" width="7.75937" height="2.21696" rx="1.10848" fill="#E4E4E6"/>
<g filter="url(#filter11_d_2376_18348)">
<path d="M142.946 92.047C142.946 91.7797 143.163 91.563 143.43 91.563H223.23C223.497 91.563 223.714 91.7797 223.714 92.047V110.662C223.714 110.929 223.497 111.146 223.23 111.146H143.43C143.163 111.146 142.946 110.929 142.946 110.662V92.047Z" fill="white"/>
</g>
<circle cx="154.4" cy="101.17" r="5.54241" fill="#E4E4E6"/>
<circle cx="164.746" cy="103.756" r="1.10848" fill="#E4E4E6"/>
<rect x="162.899" y="97.8438" width="15.1493" height="2.21696" rx="1.10848" fill="#E4E4E6"/>
<rect x="192.629" y="97.8438" width="15.1493" height="2.21696" rx="1.10848" fill="#E4E4E6"/>
<rect x="168.071" y="102.648" width="36.5799" height="2.21696" rx="1.10848" fill="#E4E4E6"/>
<rect x="181.004" y="97.8438" width="7.75937" height="2.21696" rx="1.10848" fill="#E4E4E6"/>
<path fill-rule="evenodd" clip-rule="evenodd" d="M59.4219 100.924C59.4219 104.105 56.8429 106.684 53.6616 106.684C50.4802 106.684 47.9012 104.105 47.9012 100.924C47.9012 97.7426 50.4802 95.1636 53.6616 95.1636C56.8429 95.1636 59.4219 97.7426 59.4219 100.924ZM51.3974 100.391L52.8168 101.69L55.8878 98.6197L56.7337 99.4656L52.8534 103.346L50.5893 101.274L51.3974 100.391Z" fill="#00A908"/>
<path fill-rule="evenodd" clip-rule="evenodd" d="M59.4219 126.845C59.4219 130.026 56.8429 132.605 53.6616 132.605C50.4802 132.605 47.9012 130.026 47.9012 126.845C47.9012 123.663 50.4802 121.084 53.6616 121.084C56.8429 121.084 59.4219 123.663 59.4219 126.845ZM51.3974 126.312L52.8168 127.611L55.8878 124.541L56.7337 125.387L52.8534 129.267L50.5893 127.195L51.3974 126.312Z" fill="#00A908"/>
<path fill-rule="evenodd" clip-rule="evenodd" d="M59.4219 151.326C59.4219 154.508 56.8429 157.087 53.6616 157.087C50.4802 157.087 47.9012 154.508 47.9012 151.326C47.9012 148.145 50.4802 145.566 53.6616 145.566C56.8429 145.566 59.4219 148.145 59.4219 151.326ZM51.3974 150.794L52.8168 152.092L55.8878 149.022L56.7337 149.868L52.8534 153.748L50.5893 151.677L51.3974 150.794Z" fill="#00A908"/>
<path fill-rule="evenodd" clip-rule="evenodd" d="M160.227 126.845C160.227 130.026 157.648 132.605 154.467 132.605C151.286 132.605 148.707 130.026 148.707 126.845C148.707 123.663 151.286 121.084 154.467 121.084C157.648 121.084 160.227 123.663 160.227 126.845ZM152.203 126.312L153.622 127.611L156.693 124.541L157.539 125.387L153.659 129.267L151.395 127.195L152.203 126.312Z" fill="#00A908"/>
<path fill-rule="evenodd" clip-rule="evenodd" d="M160.227 151.326C160.227 154.508 157.648 157.087 154.467 157.087C151.286 157.087 148.707 154.508 148.707 151.326C148.707 148.145 151.286 145.566 154.467 145.566C157.648 145.566 160.227 148.145 160.227 151.326ZM152.203 150.794L153.622 152.092L156.693 149.022L157.539 149.868L153.659 153.748L151.395 151.677L152.203 150.794Z" fill="#00A908"/>
<path fill-rule="evenodd" clip-rule="evenodd" d="M154.467 95.1636C151.299 95.1636 148.707 97.7557 148.707 100.924C148.707 104.092 151.299 106.684 154.467 106.684C157.635 106.684 160.227 104.092 160.227 100.924C160.227 97.7557 157.635 95.1636 154.467 95.1636ZM157.289 102.94L156.483 103.746L154.467 101.729L152.451 103.746L151.645 102.94L153.662 100.924L151.645 98.9077L152.451 98.1022L154.467 100.118L156.483 98.1022L157.289 98.9077L155.273 100.924L157.289 102.94Z" fill="#B81237"/>
<rect x="33.5" y="126.125" width="200.171" height="95.7654" fill="url(#paint0_linear_2376_18348)"/>
<defs>
<filter id="filter0_d_2376_18348" x="27.5208" y="34.5336" width="212.85" height="196.289" filterUnits="userSpaceOnUse" color-interpolation-filters="sRGB">
<feFlood flood-opacity="0" result="BackgroundImageFix"/>
<feColorMatrix in="SourceAlpha" type="matrix" values="0 0 0 0 0 0 0 0 0 0 0 0 0 0 0 0 0 0 127 0" result="hardAlpha"/>
<feOffset dy="2.23321"/>
<feGaussianBlur stdDeviation="3.34982"/>
<feColorMatrix type="matrix" values="0 0 0 0 0 0 0 0 0 0 0 0 0 0 0 0 0 0 0.15 0"/>
<feBlend mode="normal" in2="BackgroundImageFix" result="effect1_dropShadow_2376_18348"/>
<feBlend mode="normal" in="SourceGraphic" in2="effect1_dropShadow_2376_18348" result="shape"/>
</filter>
<filter id="filter1_d_2376_18348" x="34.2205" y="39" width="199.451" height="28.7308" filterUnits="userSpaceOnUse" color-interpolation-filters="sRGB">
<feFlood flood-opacity="0" result="BackgroundImageFix"/>
<feColorMatrix in="SourceAlpha" type="matrix" values="0 0 0 0 0 0 0 0 0 0 0 0 0 0 0 0 0 0 127 0" result="hardAlpha"/>
<feOffset dy="0.602914"/>
<feColorMatrix type="matrix" values="0 0 0 0 0.952941 0 0 0 0 0.956863 0 0 0 0 0.956863 0 0 0 1 0"/>
<feBlend mode="normal" in2="BackgroundImageFix" result="effect1_dropShadow_2376_18348"/>
<feBlend mode="normal" in="SourceGraphic" in2="effect1_dropShadow_2376_18348" result="shape"/>
</filter>
<filter id="filter2_d_2376_18348" x="39.2366" y="190.432" width="86.5761" height="25.3916" filterUnits="userSpaceOnUse" color-interpolation-filters="sRGB">
<feFlood flood-opacity="0" result="BackgroundImageFix"/>
<feColorMatrix in="SourceAlpha" type="matrix" values="0 0 0 0 0 0 0 0 0 0 0 0 0 0 0 0 0 0 127 0" result="hardAlpha"/>
<feOffset dy="0.968091"/>
<feGaussianBlur stdDeviation="1.45214"/>
<feColorMatrix type="matrix" values="0 0 0 0 0 0 0 0 0 0 0 0 0 0 0 0 0 0 0.15 0"/>
<feBlend mode="normal" in2="BackgroundImageFix" result="effect1_dropShadow_2376_18348"/>
<feBlend mode="normal" in="SourceGraphic" in2="effect1_dropShadow_2376_18348" result="shape"/>
</filter>
<filter id="filter3_d_2376_18348" x="140.042" y="190.432" width="86.5761" height="25.3916" filterUnits="userSpaceOnUse" color-interpolation-filters="sRGB">
<feFlood flood-opacity="0" result="BackgroundImageFix"/>
<feColorMatrix in="SourceAlpha" type="matrix" values="0 0 0 0 0 0 0 0 0 0 0 0 0 0 0 0 0 0 127 0" result="hardAlpha"/>
<feOffset dy="0.968091"/>
<feGaussianBlur stdDeviation="1.45214"/>
<feColorMatrix type="matrix" values="0 0 0 0 0 0 0 0 0 0 0 0 0 0 0 0 0 0 0.15 0"/>
<feBlend mode="normal" in2="BackgroundImageFix" result="effect1_dropShadow_2376_18348"/>
<feBlend mode="normal" in="SourceGraphic" in2="effect1_dropShadow_2376_18348" result="shape"/>
</filter>
<filter id="filter4_d_2376_18348" x="39.2366" y="165.23" width="86.5761" height="25.3916" filterUnits="userSpaceOnUse" color-interpolation-filters="sRGB">
<feFlood flood-opacity="0" result="BackgroundImageFix"/>
<feColorMatrix in="SourceAlpha" type="matrix" values="0 0 0 0 0 0 0 0 0 0 0 0 0 0 0 0 0 0 127 0" result="hardAlpha"/>
<feOffset dy="0.968091"/>
<feGaussianBlur stdDeviation="1.45214"/>
<feColorMatrix type="matrix" values="0 0 0 0 0 0 0 0 0 0 0 0 0 0 0 0 0 0 0.15 0"/>
<feBlend mode="normal" in2="BackgroundImageFix" result="effect1_dropShadow_2376_18348"/>
<feBlend mode="normal" in="SourceGraphic" in2="effect1_dropShadow_2376_18348" result="shape"/>
</filter>
<filter id="filter5_d_2376_18348" x="140.042" y="165.23" width="86.5761" height="25.3916" filterUnits="userSpaceOnUse" color-interpolation-filters="sRGB">
<feFlood flood-opacity="0" result="BackgroundImageFix"/>
<feColorMatrix in="SourceAlpha" type="matrix" values="0 0 0 0 0 0 0 0 0 0 0 0 0 0 0 0 0 0 127 0" result="hardAlpha"/>
<feOffset dy="0.968091"/>
<feGaussianBlur stdDeviation="1.45214"/>
<feColorMatrix type="matrix" values="0 0 0 0 0 0 0 0 0 0 0 0 0 0 0 0 0 0 0.15 0"/>
<feBlend mode="normal" in2="BackgroundImageFix" result="effect1_dropShadow_2376_18348"/>
<feBlend mode="normal" in="SourceGraphic" in2="effect1_dropShadow_2376_18348" result="shape"/>
</filter>
<filter id="filter6_d_2376_18348" x="39.2366" y="140.03" width="86.5761" height="25.3916" filterUnits="userSpaceOnUse" color-interpolation-filters="sRGB">
<feFlood flood-opacity="0" result="BackgroundImageFix"/>
<feColorMatrix in="SourceAlpha" type="matrix" values="0 0 0 0 0 0 0 0 0 0 0 0 0 0 0 0 0 0 127 0" result="hardAlpha"/>
<feOffset dy="0.968091"/>
<feGaussianBlur stdDeviation="1.45214"/>
<feColorMatrix type="matrix" values="0 0 0 0 0 0 0 0 0 0 0 0 0 0 0 0 0 0 0.15 0"/>
<feBlend mode="normal" in2="BackgroundImageFix" result="effect1_dropShadow_2376_18348"/>
<feBlend mode="normal" in="SourceGraphic" in2="effect1_dropShadow_2376_18348" result="shape"/>
</filter>
<filter id="filter7_d_2376_18348" x="140.042" y="140.03" width="86.5761" height="25.3916" filterUnits="userSpaceOnUse" color-interpolation-filters="sRGB">
<feFlood flood-opacity="0" result="BackgroundImageFix"/>
<feColorMatrix in="SourceAlpha" type="matrix" values="0 0 0 0 0 0 0 0 0 0 0 0 0 0 0 0 0 0 127 0" result="hardAlpha"/>
<feOffset dy="0.968091"/>
<feGaussianBlur stdDeviation="1.45214"/>
<feColorMatrix type="matrix" values="0 0 0 0 0 0 0 0 0 0 0 0 0 0 0 0 0 0 0.15 0"/>
<feBlend mode="normal" in2="BackgroundImageFix" result="effect1_dropShadow_2376_18348"/>
<feBlend mode="normal" in="SourceGraphic" in2="effect1_dropShadow_2376_18348" result="shape"/>
</filter>
<filter id="filter8_d_2376_18348" x="39.2366" y="115.548" width="86.5761" height="25.3916" filterUnits="userSpaceOnUse" color-interpolation-filters="sRGB">
<feFlood flood-opacity="0" result="BackgroundImageFix"/>
<feColorMatrix in="SourceAlpha" type="matrix" values="0 0 0 0 0 0 0 0 0 0 0 0 0 0 0 0 0 0 127 0" result="hardAlpha"/>
<feOffset dy="0.968091"/>
<feGaussianBlur stdDeviation="1.45214"/>
<feColorMatrix type="matrix" values="0 0 0 0 0 0 0 0 0 0 0 0 0 0 0 0 0 0 0.15 0"/>
<feBlend mode="normal" in2="BackgroundImageFix" result="effect1_dropShadow_2376_18348"/>
<feBlend mode="normal" in="SourceGraphic" in2="effect1_dropShadow_2376_18348" result="shape"/>
</filter>
<filter id="filter9_d_2376_18348" x="39.2366" y="89.6268" width="86.5761" height="25.3916" filterUnits="userSpaceOnUse" color-interpolation-filters="sRGB">
<feFlood flood-opacity="0" result="BackgroundImageFix"/>
<feColorMatrix in="SourceAlpha" type="matrix" values="0 0 0 0 0 0 0 0 0 0 0 0 0 0 0 0 0 0 127 0" result="hardAlpha"/>
<feOffset dy="0.968091"/>
<feGaussianBlur stdDeviation="1.45214"/>
<feColorMatrix type="matrix" values="0 0 0 0 0 0 0 0 0 0 0 0 0 0 0 0 0 0 0.15 0"/>
<feBlend mode="normal" in2="BackgroundImageFix" result="effect1_dropShadow_2376_18348"/>
<feBlend mode="normal" in="SourceGraphic" in2="effect1_dropShadow_2376_18348" result="shape"/>
</filter>
<filter id="filter10_d_2376_18348" x="140.042" y="115.548" width="86.5761" height="25.3916" filterUnits="userSpaceOnUse" color-interpolation-filters="sRGB">
<feFlood flood-opacity="0" result="BackgroundImageFix"/>
<feColorMatrix in="SourceAlpha" type="matrix" values="0 0 0 0 0 0 0 0 0 0 0 0 0 0 0 0 0 0 127 0" result="hardAlpha"/>
<feOffset dy="0.968091"/>
<feGaussianBlur stdDeviation="1.45214"/>
<feColorMatrix type="matrix" values="0 0 0 0 0 0 0 0 0 0 0 0 0 0 0 0 0 0 0.15 0"/>
<feBlend mode="normal" in2="BackgroundImageFix" result="effect1_dropShadow_2376_18348"/>
<feBlend mode="normal" in="SourceGraphic" in2="effect1_dropShadow_2376_18348" result="shape"/>
</filter>
<filter id="filter11_d_2376_18348" x="140.042" y="89.6268" width="86.5761" height="25.3916" filterUnits="userSpaceOnUse" color-interpolation-filters="sRGB">
<feFlood flood-opacity="0" result="BackgroundImageFix"/>
<feColorMatrix in="SourceAlpha" type="matrix" values="0 0 0 0 0 0 0 0 0 0 0 0 0 0 0 0 0 0 127 0" result="hardAlpha"/>
<feOffset dy="0.968091"/>
<feGaussianBlur stdDeviation="1.45214"/>
<feColorMatrix type="matrix" values="0 0 0 0 0 0 0 0 0 0 0 0 0 0 0 0 0 0 0.15 0"/>
<feBlend mode="normal" in2="BackgroundImageFix" result="effect1_dropShadow_2376_18348"/>
<feBlend mode="normal" in="SourceGraphic" in2="effect1_dropShadow_2376_18348" result="shape"/>
</filter>
<linearGradient id="paint0_linear_2376_18348" x1="129.265" y1="221.89" x2="129.265" y2="130.445" gradientUnits="userSpaceOnUse">
<stop stop-color="white"/>
<stop offset="1" stop-color="white" stop-opacity="0"/>
</linearGradient>
</defs>
</svg>
