<svg width="267" height="260" viewBox="0 0 267 260" fill="none" xmlns="http://www.w3.org/2000/svg">
<circle cx="133.661" cy="129.745" r="120.745" fill="#FAFAFA"/>
<g filter="url(#filter0_d_2376_18348)">
<rect x="46.25" y="33" width="175" height="227" rx="1.16789" fill="white"/>
</g>
<path d="M63.8544 93.1343V88.4016H61.9934V87.5192H66.7582V88.4016H64.8972V93.1343H63.8544ZM69.8564 93.1343V92.268L69.8003 92.0835V90.5674C69.8003 90.2733 69.7121 90.046 69.5356 89.8856C69.3591 89.7198 69.0917 89.6369 68.7334 89.6369C68.4928 89.6369 68.2548 89.6743 68.0195 89.7492C67.7896 89.8241 67.5944 89.9283 67.4339 90.062L67.0409 89.3321C67.2708 89.1556 67.5436 89.0246 67.8591 88.939C68.1799 88.8481 68.5115 88.8026 68.8537 88.8026C69.4741 88.8026 69.9527 88.9524 70.2896 89.2519C70.6319 89.546 70.803 90.0032 70.803 90.6235V93.1343H69.8564ZM68.5088 93.1904C68.188 93.1904 67.9072 93.137 67.6666 93.03C67.4259 92.9177 67.2387 92.7653 67.1051 92.5728C66.9767 92.3749 66.9125 92.153 66.9125 91.907C66.9125 91.6663 66.9687 91.4498 67.081 91.2572C67.1986 91.0647 67.3885 90.9123 67.6505 90.8C67.9126 90.6877 68.2602 90.6316 68.6933 90.6316H69.9367V91.2973H68.7655C68.4233 91.2973 68.1933 91.3535 68.0757 91.4658C67.958 91.5728 67.8992 91.7064 67.8992 91.8669C67.8992 92.0487 67.9714 92.1931 68.1158 92.3C68.2602 92.407 68.4607 92.4605 68.7174 92.4605C68.9634 92.4605 69.1826 92.4043 69.3751 92.292C69.573 92.1797 69.7147 92.0139 69.8003 91.7947L69.9687 92.3963C69.8725 92.6476 69.6987 92.8428 69.4473 92.9819C69.2013 93.1209 68.8885 93.1904 68.5088 93.1904ZM72.0898 93.1343V88.8508H73.0444V90.0299L72.9321 89.685C73.0604 89.3962 73.261 89.177 73.5337 89.0272C73.8118 88.8775 74.1567 88.8026 74.5685 88.8026V89.7572C74.5257 89.7465 74.4856 89.7412 74.4481 89.7412C74.4107 89.7358 74.3733 89.7331 74.3358 89.7331C73.9562 89.7331 73.654 89.8454 73.4294 90.07C73.2048 90.2893 73.0925 90.6182 73.0925 91.0567V93.1343H72.0898ZM77.3211 94.7466C76.9254 94.7466 76.5377 94.6931 76.158 94.5862C75.7836 94.4846 75.4762 94.3348 75.2355 94.137L75.6847 93.3829C75.8719 93.538 76.1072 93.661 76.3906 93.7519C76.6794 93.8482 76.9708 93.8963 77.265 93.8963C77.7356 93.8963 78.0805 93.7867 78.2997 93.5674C78.519 93.3535 78.6286 93.03 78.6286 92.5968V91.8348L78.7088 90.8642L78.6767 89.8936V88.8508H79.6313V92.4845C79.6313 93.2599 79.4334 93.8295 79.0377 94.1931C78.642 94.5621 78.0698 94.7466 77.3211 94.7466ZM77.1928 92.9418C76.7863 92.9418 76.4173 92.8562 76.0858 92.6851C75.7596 92.5086 75.5002 92.2653 75.3077 91.9551C75.1205 91.6449 75.0269 91.2813 75.0269 90.8642C75.0269 90.4524 75.1205 90.0914 75.3077 89.7813C75.5002 89.4711 75.7596 89.2305 76.0858 89.0593C76.4173 88.8882 76.7863 88.8026 77.1928 88.8026C77.5564 88.8026 77.8826 88.8748 78.1714 89.0192C78.4602 89.1636 78.6901 89.3882 78.8612 89.693C79.0377 89.9979 79.126 90.3882 79.126 90.8642C79.126 91.3401 79.0377 91.7332 78.8612 92.0433C78.6901 92.3482 78.4602 92.5754 78.1714 92.7252C77.8826 92.8696 77.5564 92.9418 77.1928 92.9418ZM77.3452 92.0915C77.5965 92.0915 77.8211 92.0407 78.019 91.9391C78.2168 91.8321 78.3693 91.6877 78.4762 91.5059C78.5885 91.3187 78.6447 91.1048 78.6447 90.8642C78.6447 90.6235 78.5885 90.4123 78.4762 90.2305C78.3693 90.0433 78.2168 89.9016 78.019 89.8053C77.8211 89.7037 77.5965 89.6529 77.3452 89.6529C77.0938 89.6529 76.8666 89.7037 76.6633 89.8053C76.4655 89.9016 76.3104 90.0433 76.1981 90.2305C76.0911 90.4123 76.0377 90.6235 76.0377 90.8642C76.0377 91.1048 76.0911 91.3187 76.1981 91.5059C76.3104 91.6877 76.4655 91.8321 76.6633 91.9391C76.8666 92.0407 77.0938 92.0915 77.3452 92.0915ZM82.9629 93.1904C82.487 93.1904 82.0699 93.0968 81.7116 92.9097C81.3586 92.7172 81.0832 92.4551 80.8854 92.1236C80.6928 91.792 80.5966 91.415 80.5966 90.9925C80.5966 90.5647 80.6902 90.1877 80.8773 89.8615C81.0699 89.5299 81.3319 89.2706 81.6635 89.0834C82.0004 88.8962 82.3827 88.8026 82.8105 88.8026C83.2277 88.8026 83.5993 88.8936 83.9255 89.0754C84.2517 89.2572 84.5084 89.5139 84.6956 89.8454C84.8828 90.177 84.9764 90.5674 84.9764 91.0166C84.9764 91.0594 84.9737 91.1075 84.9683 91.161C84.9683 91.2145 84.9657 91.2653 84.9603 91.3134H81.3907V90.6476H84.4309L84.0378 90.8562C84.0432 90.6102 83.9924 90.3936 83.8854 90.2064C83.7785 90.0192 83.6314 89.8722 83.4442 89.7652C83.2624 89.6583 83.0512 89.6048 82.8105 89.6048C82.5645 89.6048 82.348 89.6583 82.1608 89.7652C81.979 89.8722 81.8346 90.0219 81.7276 90.2144C81.626 90.4016 81.5752 90.6235 81.5752 90.8802V91.0407C81.5752 91.2973 81.634 91.5246 81.7517 91.7225C81.8693 91.9204 82.0351 92.0728 82.249 92.1797C82.4629 92.2867 82.7089 92.3401 82.987 92.3401C83.2277 92.3401 83.4442 92.3027 83.6368 92.2278C83.8293 92.153 84.0004 92.0353 84.1501 91.8749L84.6876 92.4926C84.4951 92.7172 84.2517 92.891 83.9576 93.014C83.6688 93.1316 83.3373 93.1904 82.9629 93.1904ZM87.5518 93.1904C87.0812 93.1904 86.7176 93.0701 86.4609 92.8295C86.2042 92.5835 86.0759 92.2225 86.0759 91.7466V87.9042H87.0786V91.7225C87.0786 91.9257 87.1294 92.0835 87.231 92.1958C87.3379 92.3081 87.485 92.3642 87.6722 92.3642C87.8968 92.3642 88.0839 92.3054 88.2337 92.1877L88.5144 92.9017C88.3968 92.9979 88.2524 93.0701 88.0813 93.1182C87.9101 93.1664 87.7337 93.1904 87.5518 93.1904ZM85.37 89.685V88.8829H88.2256V89.685H85.37ZM91.5561 93.1343V88.8508H92.5107V90.0299L92.3984 89.685C92.5268 89.3962 92.7273 89.177 93 89.0272C93.2781 88.8775 93.623 88.8026 94.0348 88.8026V89.7572C93.992 89.7465 93.9519 89.7412 93.9145 89.7412C93.877 89.7358 93.8396 89.7331 93.8022 89.7331C93.4225 89.7331 93.1203 89.8454 92.8957 90.07C92.6711 90.2893 92.5588 90.6182 92.5588 91.0567V93.1343H91.5561ZM96.7714 93.1904C96.3329 93.1904 95.9425 93.0968 95.6003 92.9097C95.258 92.7172 94.9879 92.4551 94.7901 92.1236C94.5922 91.792 94.4933 91.415 94.4933 90.9925C94.4933 90.5647 94.5922 90.1877 94.7901 89.8615C94.9879 89.5299 95.258 89.2706 95.6003 89.0834C95.9425 88.8962 96.3329 88.8026 96.7714 88.8026C97.2153 88.8026 97.6083 88.8962 97.9506 89.0834C98.2982 89.2706 98.5682 89.5273 98.7607 89.8535C98.9586 90.1797 99.0575 90.5594 99.0575 90.9925C99.0575 91.415 98.9586 91.792 98.7607 92.1236C98.5682 92.4551 98.2982 92.7172 97.9506 92.9097C97.6083 93.0968 97.2153 93.1904 96.7714 93.1904ZM96.7714 92.3321C97.0174 92.3321 97.2366 92.2786 97.4292 92.1717C97.6217 92.0647 97.7714 91.9097 97.8784 91.7064C97.9907 91.5032 98.0468 91.2653 98.0468 90.9925C98.0468 90.7144 97.9907 90.4765 97.8784 90.2786C97.7714 90.0754 97.6217 89.9203 97.4292 89.8134C97.2366 89.7064 97.0201 89.6529 96.7794 89.6529C96.5334 89.6529 96.3142 89.7064 96.1217 89.8134C95.9345 89.9203 95.7847 90.0754 95.6724 90.2786C95.5601 90.4765 95.504 90.7144 95.504 90.9925C95.504 91.2653 95.5601 91.5032 95.6724 91.7064C95.7847 91.9097 95.9345 92.0647 96.1217 92.1717C96.3142 92.2786 96.5308 92.3321 96.7714 92.3321ZM100.016 93.1343V87.1823H101.019V93.1343H100.016ZM104.348 93.1904C103.873 93.1904 103.455 93.0968 103.097 92.9097C102.744 92.7172 102.469 92.4551 102.271 92.1236C102.078 91.792 101.982 91.415 101.982 90.9925C101.982 90.5647 102.076 90.1877 102.263 89.8615C102.455 89.5299 102.717 89.2706 103.049 89.0834C103.386 88.8962 103.768 88.8026 104.196 88.8026C104.613 88.8026 104.985 88.8936 105.311 89.0754C105.637 89.2572 105.894 89.5139 106.081 89.8454C106.268 90.177 106.362 90.5674 106.362 91.0166C106.362 91.0594 106.359 91.1075 106.354 91.161C106.354 91.2145 106.351 91.2653 106.346 91.3134H102.776V90.6476H105.816L105.423 90.8562C105.429 90.6102 105.378 90.3936 105.271 90.2064C105.164 90.0192 105.017 89.8722 104.83 89.7652C104.648 89.6583 104.437 89.6048 104.196 89.6048C103.95 89.6048 103.734 89.6583 103.546 89.7652C103.365 89.8722 103.22 90.0219 103.113 90.2144C103.012 90.4016 102.961 90.6235 102.961 90.8802V91.0407C102.961 91.2973 103.02 91.5246 103.137 91.7225C103.255 91.9204 103.421 92.0728 103.635 92.1797C103.848 92.2867 104.094 92.3401 104.373 92.3401C104.613 92.3401 104.83 92.3027 105.022 92.2278C105.215 92.153 105.386 92.0353 105.536 91.8749L106.073 92.4926C105.881 92.7172 105.637 92.891 105.343 93.014C105.054 93.1316 104.723 93.1904 104.348 93.1904Z" fill="#6D7079"/>
<g filter="url(#filter1_d_2376_18348)">
<path d="M46.5869 36.1652C46.5869 34.4171 48.004 33 49.7521 33H218.559C220.307 33 221.724 34.4171 221.724 36.1652V58.6809L134.155 59.07L46.5869 58.6809V36.1652Z" fill="#FAFAFA"/>
</g>
<path d="M59.6093 49.6899V47.468L59.8419 48.1097L57.4033 44.0749H58.5183L60.4756 47.3236H59.8499L61.8232 44.0749H62.85L60.4114 48.1097L60.6521 47.468V49.6899H59.6093ZM64.8839 49.7461C64.4454 49.7461 64.055 49.6525 63.7128 49.4653C63.3705 49.2728 63.1005 49.0108 62.9026 48.6792C62.7047 48.3477 62.6058 47.9707 62.6058 47.5482C62.6058 47.1204 62.7047 46.7434 62.9026 46.4172C63.1005 46.0856 63.3705 45.8262 63.7128 45.6391C64.055 45.4519 64.4454 45.3583 64.8839 45.3583C65.3278 45.3583 65.7208 45.4519 66.0631 45.6391C66.4107 45.8262 66.6807 46.0829 66.8733 46.4091C67.0711 46.7353 67.1701 47.115 67.1701 47.5482C67.1701 47.9707 67.0711 48.3477 66.8733 48.6792C66.6807 49.0108 66.4107 49.2728 66.0631 49.4653C65.7208 49.6525 65.3278 49.7461 64.8839 49.7461ZM64.8839 48.8878C65.1299 48.8878 65.3492 48.8343 65.5417 48.7274C65.7342 48.6204 65.8839 48.4653 65.9909 48.2621C66.1032 48.0589 66.1593 47.8209 66.1593 47.5482C66.1593 47.2701 66.1032 47.0321 65.9909 46.8343C65.8839 46.6311 65.7342 46.476 65.5417 46.369C65.3492 46.2621 65.1326 46.2086 64.8919 46.2086C64.646 46.2086 64.4267 46.2621 64.2342 46.369C64.047 46.476 63.8973 46.6311 63.785 46.8343C63.6727 47.0321 63.6165 47.2701 63.6165 47.5482C63.6165 47.8209 63.6727 48.0589 63.785 48.2621C63.8973 48.4653 64.047 48.6204 64.2342 48.7274C64.4267 48.8343 64.6433 48.8878 64.8839 48.8878ZM69.9418 49.7461C69.5781 49.7461 69.2573 49.6792 68.9792 49.5456C68.7011 49.4065 68.4845 49.198 68.3294 48.9199C68.1743 48.6364 68.0968 48.2808 68.0968 47.853V45.4064H69.0995V47.7166C69.0995 48.1017 69.1851 48.3905 69.3562 48.583C69.5327 48.7701 69.7813 48.8637 70.1022 48.8637C70.3375 48.8637 70.5407 48.8156 70.7118 48.7193C70.8883 48.6231 71.0247 48.4787 71.1209 48.2862C71.2225 48.0937 71.2733 47.8557 71.2733 47.5723V45.4064H72.276V49.6899H71.3215V48.5348L71.4899 48.8878C71.3455 49.1659 71.1343 49.3798 70.8562 49.5295C70.5781 49.6739 70.2733 49.7461 69.9418 49.7461ZM73.5889 49.6899V45.4064H74.5434V46.5856L74.4311 46.2407C74.5595 45.9519 74.76 45.7326 75.0327 45.5829C75.3108 45.4332 75.6557 45.3583 76.0675 45.3583V46.3129C76.0247 46.3022 75.9846 46.2968 75.9472 46.2968C75.9098 46.2915 75.8723 46.2888 75.8349 46.2888C75.4552 46.2888 75.1531 46.4011 74.9285 46.6257C74.7039 46.845 74.5916 47.1739 74.5916 47.6124V49.6899H73.5889ZM81.5485 49.7461C81.2009 49.7461 80.8828 49.6659 80.594 49.5054C80.3106 49.345 80.0833 49.1044 79.9122 48.7835C79.7464 48.4573 79.6635 48.0455 79.6635 47.5482C79.6635 47.0455 79.7437 46.6337 79.9041 46.3129C80.0699 45.992 80.2945 45.754 80.5779 45.599C80.8614 45.4385 81.1849 45.3583 81.5485 45.3583C81.971 45.3583 82.3427 45.4492 82.6635 45.631C82.9897 45.8129 83.2464 46.0669 83.4336 46.3931C83.6261 46.7193 83.7224 47.1043 83.7224 47.5482C83.7224 47.992 83.6261 48.3798 83.4336 48.7113C83.2464 49.0375 82.9897 49.2915 82.6635 49.4734C82.3427 49.6552 81.971 49.7461 81.5485 49.7461ZM79.1742 51.2461V45.4064H80.1287V46.4172L80.0966 47.5562L80.1769 48.6953V51.2461H79.1742ZM81.4362 48.8878C81.6769 48.8878 81.8908 48.8343 82.078 48.7274C82.2705 48.6204 82.4229 48.4653 82.5352 48.2621C82.6475 48.0589 82.7036 47.8209 82.7036 47.5482C82.7036 47.2701 82.6475 47.0321 82.5352 46.8343C82.4229 46.6311 82.2705 46.476 82.078 46.369C81.8908 46.2621 81.6769 46.2086 81.4362 46.2086C81.1956 46.2086 80.979 46.2621 80.7865 46.369C80.594 46.476 80.4416 46.6311 80.3293 46.8343C80.217 47.0321 80.1608 47.2701 80.1608 47.5482C80.1608 47.8209 80.217 48.0589 80.3293 48.2621C80.4416 48.4653 80.594 48.6204 80.7865 48.7274C80.979 48.8343 81.1956 48.8878 81.4362 48.8878ZM86.6867 49.7461C86.2108 49.7461 85.7937 49.6525 85.4354 49.4653C85.0824 49.2728 84.807 49.0108 84.6091 48.6792C84.4166 48.3477 84.3204 47.9707 84.3204 47.5482C84.3204 47.1204 84.4139 46.7434 84.6011 46.4172C84.7936 46.0856 85.0557 45.8262 85.3872 45.6391C85.7241 45.4519 86.1065 45.3583 86.5343 45.3583C86.9514 45.3583 87.3231 45.4492 87.6493 45.631C87.9755 45.8129 88.2322 46.0696 88.4194 46.4011C88.6065 46.7327 88.7001 47.123 88.7001 47.5723C88.7001 47.615 88.6974 47.6632 88.6921 47.7166C88.6921 47.7701 88.6894 47.8209 88.6841 47.8691H85.1145V47.2033H88.1547L87.7616 47.4118C87.767 47.1658 87.7161 46.9492 87.6092 46.7621C87.5022 46.5749 87.3552 46.4278 87.168 46.3209C86.9862 46.2139 86.775 46.1605 86.5343 46.1605C86.2883 46.1605 86.0717 46.2139 85.8846 46.3209C85.7027 46.4278 85.5584 46.5776 85.4514 46.7701C85.3498 46.9573 85.299 47.1792 85.299 47.4359V47.5963C85.299 47.853 85.3578 48.0803 85.4755 48.2782C85.5931 48.476 85.7589 48.6284 85.9728 48.7354C86.1867 48.8423 86.4327 48.8958 86.7108 48.8958C86.9514 48.8958 87.168 48.8584 87.3605 48.7835C87.553 48.7086 87.7242 48.591 87.8739 48.4306L88.4113 49.0482C88.2188 49.2728 87.9755 49.4466 87.6814 49.5696C87.3926 49.6873 87.0611 49.7461 86.6867 49.7461ZM89.6633 49.6899V45.4064H90.6178V46.5856L90.5055 46.2407C90.6339 45.9519 90.8344 45.7326 91.1072 45.5829C91.3852 45.4332 91.7302 45.3583 92.1419 45.3583V46.3129C92.0991 46.3022 92.059 46.2968 92.0216 46.2968C91.9842 46.2915 91.9467 46.2888 91.9093 46.2888C91.5296 46.2888 91.2275 46.4011 91.0029 46.6257C90.7783 46.845 90.666 47.1739 90.666 47.6124V49.6899H89.6633ZM94.3552 49.7461C93.997 49.7461 93.652 49.7006 93.3205 49.6097C92.9943 49.5135 92.7349 49.3985 92.5424 49.2648L92.9274 48.5028C93.1199 48.6258 93.3499 48.7274 93.6173 48.8076C93.8847 48.8878 94.152 48.9279 94.4194 48.9279C94.7349 48.9279 94.9622 48.8851 95.1013 48.7996C95.2456 48.714 95.3178 48.599 95.3178 48.4546C95.3178 48.337 95.2697 48.2487 95.1734 48.1899C95.0772 48.1257 94.9515 48.0776 94.7964 48.0455C94.6413 48.0134 94.4675 47.984 94.275 47.9573C94.0879 47.9306 93.898 47.8958 93.7055 47.853C93.5183 47.8049 93.3472 47.738 93.1921 47.6525C93.037 47.5616 92.9114 47.4412 92.8151 47.2915C92.7189 47.1418 92.6707 46.9439 92.6707 46.6979C92.6707 46.4252 92.7483 46.1899 92.9033 45.992C93.0584 45.7888 93.275 45.6337 93.5531 45.5268C93.8365 45.4145 94.1708 45.3583 94.5558 45.3583C94.8446 45.3583 95.136 45.3904 95.4301 45.4546C95.7243 45.5187 95.9676 45.6097 96.1601 45.7273L95.7751 46.4893C95.5718 46.3664 95.366 46.2835 95.1574 46.2407C94.9542 46.1926 94.751 46.1685 94.5478 46.1685C94.2429 46.1685 94.0157 46.2139 93.8659 46.3049C93.7215 46.3958 93.6494 46.5107 93.6494 46.6498C93.6494 46.7781 93.6975 46.8744 93.7937 46.9386C93.89 47.0027 94.0157 47.0535 94.1708 47.091C94.3258 47.1284 94.497 47.1605 94.6841 47.1872C94.8766 47.2086 95.0665 47.2434 95.2537 47.2915C95.4408 47.3396 95.612 47.4065 95.767 47.492C95.9275 47.5723 96.0558 47.6872 96.1521 47.837C96.2483 47.9867 96.2965 48.1819 96.2965 48.4225C96.2965 48.6899 96.2162 48.9225 96.0558 49.1204C95.9007 49.3183 95.6788 49.4734 95.39 49.5857C95.1013 49.6926 94.7563 49.7461 94.3552 49.7461ZM99.0851 49.7461C98.6466 49.7461 98.2562 49.6525 97.914 49.4653C97.5717 49.2728 97.3017 49.0108 97.1038 48.6792C96.9059 48.3477 96.807 47.9707 96.807 47.5482C96.807 47.1204 96.9059 46.7434 97.1038 46.4172C97.3017 46.0856 97.5717 45.8262 97.914 45.6391C98.2562 45.4519 98.6466 45.3583 99.0851 45.3583C99.529 45.3583 99.922 45.4519 100.264 45.6391C100.612 45.8262 100.882 46.0829 101.074 46.4091C101.272 46.7353 101.371 47.115 101.371 47.5482C101.371 47.9707 101.272 48.3477 101.074 48.6792C100.882 49.0108 100.612 49.2728 100.264 49.4653C99.922 49.6525 99.529 49.7461 99.0851 49.7461ZM99.0851 48.8878C99.3311 48.8878 99.5504 48.8343 99.7429 48.7274C99.9354 48.6204 100.085 48.4653 100.192 48.2621C100.304 48.0589 100.361 47.8209 100.361 47.5482C100.361 47.2701 100.304 47.0321 100.192 46.8343C100.085 46.6311 99.9354 46.476 99.7429 46.369C99.5504 46.2621 99.3338 46.2086 99.0932 46.2086C98.8472 46.2086 98.6279 46.2621 98.4354 46.369C98.2482 46.476 98.0985 46.6311 97.9862 46.8343C97.8739 47.0321 97.8177 47.2701 97.8177 47.5482C97.8177 47.8209 97.8739 48.0589 97.9862 48.2621C98.0985 48.4653 98.2482 48.6204 98.4354 48.7274C98.6279 48.8343 98.8445 48.8878 99.0851 48.8878ZM104.761 45.3583C105.103 45.3583 105.408 45.4252 105.675 45.5588C105.948 45.6925 106.162 45.8984 106.317 46.1765C106.472 46.4492 106.549 46.8022 106.549 47.2354V49.6899H105.547V47.3637C105.547 46.984 105.456 46.7006 105.274 46.5134C105.098 46.3262 104.849 46.2327 104.528 46.2327C104.293 46.2327 104.084 46.2808 103.902 46.377C103.72 46.4733 103.579 46.6177 103.477 46.8102C103.381 46.9974 103.333 47.2354 103.333 47.5241V49.6899H102.33V45.4064H103.285V46.5615L103.116 46.2086C103.266 45.9359 103.483 45.7273 103.766 45.5829C104.055 45.4332 104.386 45.3583 104.761 45.3583ZM110.46 49.6899V48.8236L110.404 48.6391V47.123C110.404 46.8289 110.316 46.6016 110.14 46.4412C109.963 46.2754 109.696 46.1926 109.337 46.1926C109.097 46.1926 108.859 46.23 108.624 46.3049C108.394 46.3797 108.198 46.484 108.038 46.6177L107.645 45.8877C107.875 45.7113 108.148 45.5802 108.463 45.4947C108.784 45.4038 109.116 45.3583 109.458 45.3583C110.078 45.3583 110.557 45.508 110.894 45.8075C111.236 46.1016 111.407 46.5589 111.407 47.1792V49.6899H110.46ZM109.113 49.7461C108.792 49.7461 108.511 49.6926 108.271 49.5857C108.03 49.4734 107.843 49.321 107.709 49.1284C107.581 48.9306 107.517 48.7086 107.517 48.4626C107.517 48.222 107.573 48.0054 107.685 47.8129C107.803 47.6204 107.993 47.468 108.255 47.3557C108.517 47.2434 108.864 47.1872 109.297 47.1872H110.541V47.853H109.37C109.027 47.853 108.797 47.9092 108.68 48.0215C108.562 48.1284 108.503 48.2621 108.503 48.4225C108.503 48.6044 108.575 48.7487 108.72 48.8557C108.864 48.9627 109.065 49.0161 109.321 49.0161C109.567 49.0161 109.787 48.96 109.979 48.8477C110.177 48.7354 110.319 48.5696 110.404 48.3503L110.573 48.952C110.477 49.2033 110.303 49.3985 110.051 49.5375C109.805 49.6766 109.493 49.7461 109.113 49.7461ZM112.694 49.6899V43.738H113.697V49.6899H112.694ZM115.013 49.6899V45.4064H116.015V49.6899H115.013ZM115.518 44.7005C115.331 44.7005 115.176 44.6417 115.053 44.5241C114.935 44.4064 114.876 44.2647 114.876 44.0989C114.876 43.9278 114.935 43.7861 115.053 43.6738C115.176 43.5561 115.331 43.4973 115.518 43.4973C115.705 43.4973 115.858 43.5535 115.975 43.6658C116.098 43.7727 116.16 43.9091 116.16 44.0749C116.16 44.2513 116.101 44.4011 115.983 44.5241C115.866 44.6417 115.71 44.7005 115.518 44.7005ZM118.655 49.7461C118.297 49.7461 117.952 49.7006 117.62 49.6097C117.294 49.5135 117.035 49.3985 116.842 49.2648L117.227 48.5028C117.42 48.6258 117.65 48.7274 117.917 48.8076C118.184 48.8878 118.452 48.9279 118.719 48.9279C119.035 48.9279 119.262 48.8851 119.401 48.7996C119.545 48.714 119.617 48.599 119.617 48.4546C119.617 48.337 119.569 48.2487 119.473 48.1899C119.377 48.1257 119.251 48.0776 119.096 48.0455C118.941 48.0134 118.767 47.984 118.575 47.9573C118.387 47.9306 118.198 47.8958 118.005 47.853C117.818 47.8049 117.647 47.738 117.492 47.6525C117.337 47.5616 117.211 47.4412 117.115 47.2915C117.018 47.1418 116.97 46.9439 116.97 46.6979C116.97 46.4252 117.048 46.1899 117.203 45.992C117.358 45.7888 117.575 45.6337 117.853 45.5268C118.136 45.4145 118.47 45.3583 118.855 45.3583C119.144 45.3583 119.436 45.3904 119.73 45.4546C120.024 45.5187 120.267 45.6097 120.46 45.7273L120.075 46.4893C119.871 46.3664 119.666 46.2835 119.457 46.2407C119.254 46.1926 119.051 46.1685 118.847 46.1685C118.543 46.1685 118.315 46.2139 118.166 46.3049C118.021 46.3958 117.949 46.5107 117.949 46.6498C117.949 46.7781 117.997 46.8744 118.093 46.9386C118.19 47.0027 118.315 47.0535 118.47 47.091C118.625 47.1284 118.797 47.1605 118.984 47.1872C119.176 47.2086 119.366 47.2434 119.553 47.2915C119.74 47.3396 119.912 47.4065 120.067 47.492C120.227 47.5723 120.355 47.6872 120.452 47.837C120.548 47.9867 120.596 48.1819 120.596 48.4225C120.596 48.6899 120.516 48.9225 120.355 49.1204C120.2 49.3183 119.978 49.4734 119.69 49.5857C119.401 49.6926 119.056 49.7461 118.655 49.7461ZM123.473 49.7461C122.997 49.7461 122.58 49.6525 122.222 49.4653C121.869 49.2728 121.593 49.0108 121.395 48.6792C121.203 48.3477 121.107 47.9707 121.107 47.5482C121.107 47.1204 121.2 46.7434 121.387 46.4172C121.58 46.0856 121.842 45.8262 122.174 45.6391C122.51 45.4519 122.893 45.3583 123.321 45.3583C123.738 45.3583 124.109 45.4492 124.436 45.631C124.762 45.8129 125.018 46.0696 125.206 46.4011C125.393 46.7327 125.486 47.123 125.486 47.5723C125.486 47.615 125.484 47.6632 125.478 47.7166C125.478 47.7701 125.476 47.8209 125.47 47.8691H121.901V47.2033H124.941L124.548 47.4118C124.553 47.1658 124.502 46.9492 124.395 46.7621C124.289 46.5749 124.141 46.4278 123.954 46.3209C123.772 46.2139 123.561 46.1605 123.321 46.1605C123.075 46.1605 122.858 46.2139 122.671 46.3209C122.489 46.4278 122.345 46.5776 122.238 46.7701C122.136 46.9573 122.085 47.1792 122.085 47.4359V47.5963C122.085 47.853 122.144 48.0803 122.262 48.2782C122.379 48.476 122.545 48.6284 122.759 48.7354C122.973 48.8423 123.219 48.8958 123.497 48.8958C123.738 48.8958 123.954 48.8584 124.147 48.7835C124.339 48.7086 124.51 48.591 124.66 48.4306L125.198 49.0482C125.005 49.2728 124.762 49.4466 124.468 49.5696C124.179 49.6873 123.847 49.7461 123.473 49.7461ZM128.262 49.7461C127.851 49.7461 127.479 49.6552 127.147 49.4734C126.821 49.2862 126.565 49.0295 126.377 48.7033C126.19 48.3771 126.097 47.992 126.097 47.5482C126.097 47.1043 126.19 46.7193 126.377 46.3931C126.565 46.0669 126.821 45.8129 127.147 45.631C127.479 45.4492 127.851 45.3583 128.262 45.3583C128.621 45.3583 128.942 45.4385 129.225 45.599C129.508 45.754 129.733 45.992 129.899 46.3129C130.065 46.6337 130.147 47.0455 130.147 47.5482C130.147 48.0455 130.067 48.4573 129.907 48.7835C129.746 49.1044 129.524 49.345 129.241 49.5054C128.958 49.6659 128.631 49.7461 128.262 49.7461ZM128.383 48.8878C128.623 48.8878 128.837 48.8343 129.024 48.7274C129.217 48.6204 129.369 48.4653 129.482 48.2621C129.599 48.0589 129.658 47.8209 129.658 47.5482C129.658 47.2701 129.599 47.0321 129.482 46.8343C129.369 46.6311 129.217 46.476 129.024 46.369C128.837 46.2621 128.623 46.2086 128.383 46.2086C128.142 46.2086 127.926 46.2621 127.733 46.369C127.546 46.476 127.393 46.6311 127.276 46.8343C127.163 47.0321 127.107 47.2701 127.107 47.5482C127.107 47.8209 127.163 48.0589 127.276 48.2621C127.393 48.4653 127.546 48.6204 127.733 48.7274C127.926 48.8343 128.142 48.8878 128.383 48.8878ZM129.682 49.6899V48.6792L129.722 47.5402L129.642 46.4011V43.738H130.637V49.6899H129.682ZM136.139 49.7461C135.689 49.7461 135.288 49.6525 134.935 49.4653C134.588 49.2728 134.315 49.0108 134.117 48.6792C133.919 48.3477 133.82 47.9707 133.82 47.5482C133.82 47.1204 133.919 46.7434 134.117 46.4172C134.315 46.0856 134.588 45.8262 134.935 45.6391C135.288 45.4519 135.689 45.3583 136.139 45.3583C136.556 45.3583 136.922 45.4439 137.238 45.615C137.559 45.7808 137.802 46.0268 137.968 46.353L137.198 46.8022C137.069 46.599 136.911 46.4492 136.724 46.353C136.542 46.2567 136.345 46.2086 136.131 46.2086C135.885 46.2086 135.663 46.2621 135.465 46.369C135.267 46.476 135.112 46.6311 135 46.8343C134.887 47.0321 134.831 47.2701 134.831 47.5482C134.831 47.8263 134.887 48.0669 135 48.2701C135.112 48.468 135.267 48.6204 135.465 48.7274C135.663 48.8343 135.885 48.8878 136.131 48.8878C136.345 48.8878 136.542 48.8397 136.724 48.7434C136.911 48.6471 137.069 48.4974 137.198 48.2942L137.968 48.7434C137.802 49.0643 137.559 49.3129 137.238 49.4894C136.922 49.6605 136.556 49.7461 136.139 49.7461ZM141.473 49.6899V48.8236L141.417 48.6391V47.123C141.417 46.8289 141.329 46.6016 141.153 46.4412C140.976 46.2754 140.709 46.1926 140.35 46.1926C140.11 46.1926 139.872 46.23 139.637 46.3049C139.407 46.3797 139.211 46.484 139.051 46.6177L138.658 45.8877C138.888 45.7113 139.161 45.5802 139.476 45.4947C139.797 45.4038 140.129 45.3583 140.471 45.3583C141.091 45.3583 141.57 45.508 141.907 45.8075C142.249 46.1016 142.42 46.5589 142.42 47.1792V49.6899H141.473ZM140.126 49.7461C139.805 49.7461 139.524 49.6926 139.284 49.5857C139.043 49.4734 138.856 49.321 138.722 49.1284C138.594 48.9306 138.53 48.7086 138.53 48.4626C138.53 48.222 138.586 48.0054 138.698 47.8129C138.816 47.6204 139.005 47.468 139.268 47.3557C139.53 47.2434 139.877 47.1872 140.31 47.1872H141.554V47.853H140.383C140.04 47.853 139.81 47.9092 139.693 48.0215C139.575 48.1284 139.516 48.2621 139.516 48.4225C139.516 48.6044 139.588 48.7487 139.733 48.8557C139.877 48.9627 140.078 49.0161 140.334 49.0161C140.58 49.0161 140.8 48.96 140.992 48.8477C141.19 48.7354 141.332 48.5696 141.417 48.3503L141.586 48.952C141.489 49.2033 141.316 49.3985 141.064 49.5375C140.818 49.6766 140.506 49.7461 140.126 49.7461ZM143.707 49.6899V45.4064H144.661V46.5856L144.549 46.2407C144.677 45.9519 144.878 45.7326 145.151 45.5829C145.429 45.4332 145.774 45.3583 146.185 45.3583V46.3129C146.143 46.3022 146.103 46.2968 146.065 46.2968C146.028 46.2915 145.99 46.2888 145.953 46.2888C145.573 46.2888 145.271 46.4011 145.046 46.6257C144.822 46.845 144.71 47.1739 144.71 47.6124V49.6899H143.707ZM149.01 49.7461C148.534 49.7461 148.117 49.6525 147.759 49.4653C147.406 49.2728 147.131 49.0108 146.933 48.6792C146.74 48.3477 146.644 47.9707 146.644 47.5482C146.644 47.1204 146.738 46.7434 146.925 46.4172C147.117 46.0856 147.379 45.8262 147.711 45.6391C148.048 45.4519 148.43 45.3583 148.858 45.3583C149.275 45.3583 149.647 45.4492 149.973 45.631C150.299 45.8129 150.556 46.0696 150.743 46.4011C150.93 46.7327 151.024 47.123 151.024 47.5723C151.024 47.615 151.021 47.6632 151.016 47.7166C151.016 47.7701 151.013 47.8209 151.008 47.8691H147.438V47.2033H150.478L150.085 47.4118C150.091 47.1658 150.04 46.9492 149.933 46.7621C149.826 46.5749 149.679 46.4278 149.492 46.3209C149.31 46.2139 149.099 46.1605 148.858 46.1605C148.612 46.1605 148.395 46.2139 148.208 46.3209C148.026 46.4278 147.882 46.5776 147.775 46.7701C147.673 46.9573 147.623 47.1792 147.623 47.4359V47.5963C147.623 47.853 147.681 48.0803 147.799 48.2782C147.917 48.476 148.082 48.6284 148.296 48.7354C148.51 48.8423 148.756 48.8958 149.034 48.8958C149.275 48.8958 149.492 48.8584 149.684 48.7835C149.877 48.7086 150.048 48.591 150.198 48.4306L150.735 49.0482C150.542 49.2728 150.299 49.4466 150.005 49.5696C149.716 49.6873 149.385 49.7461 149.01 49.7461ZM154 49.7461C153.524 49.7461 153.107 49.6525 152.749 49.4653C152.396 49.2728 152.121 49.0108 151.923 48.6792C151.73 48.3477 151.634 47.9707 151.634 47.5482C151.634 47.1204 151.728 46.7434 151.915 46.4172C152.107 46.0856 152.369 45.8262 152.701 45.6391C153.038 45.4519 153.42 45.3583 153.848 45.3583C154.265 45.3583 154.637 45.4492 154.963 45.631C155.289 45.8129 155.546 46.0696 155.733 46.4011C155.92 46.7327 156.014 47.123 156.014 47.5723C156.014 47.615 156.011 47.6632 156.006 47.7166C156.006 47.7701 156.003 47.8209 155.998 47.8691H152.428V47.2033H155.468L155.075 47.4118C155.081 47.1658 155.03 46.9492 154.923 46.7621C154.816 46.5749 154.669 46.4278 154.482 46.3209C154.3 46.2139 154.089 46.1605 153.848 46.1605C153.602 46.1605 153.385 46.2139 153.198 46.3209C153.016 46.4278 152.872 46.5776 152.765 46.7701C152.663 46.9573 152.613 47.1792 152.613 47.4359V47.5963C152.613 47.853 152.671 48.0803 152.789 48.2782C152.907 48.476 153.072 48.6284 153.286 48.7354C153.5 48.8423 153.746 48.8958 154.024 48.8958C154.265 48.8958 154.482 48.8584 154.674 48.7835C154.867 48.7086 155.038 48.591 155.187 48.4306L155.725 49.0482C155.532 49.2728 155.289 49.4466 154.995 49.5696C154.706 49.6873 154.375 49.7461 154 49.7461ZM156.977 49.6899V45.4064H157.931V46.5856L157.819 46.2407C157.947 45.9519 158.148 45.7326 158.421 45.5829C158.699 45.4332 159.044 45.3583 159.455 45.3583V46.3129C159.413 46.3022 159.373 46.2968 159.335 46.2968C159.298 46.2915 159.26 46.2888 159.223 46.2888C158.843 46.2888 158.541 46.4011 158.316 46.6257C158.092 46.845 157.98 47.1739 157.98 47.6124V49.6899H156.977ZM164.937 49.7461C164.589 49.7461 164.271 49.6659 163.982 49.5054C163.699 49.345 163.471 49.1044 163.3 48.7835C163.134 48.4573 163.051 48.0455 163.051 47.5482C163.051 47.0455 163.132 46.6337 163.292 46.3129C163.458 45.992 163.682 45.754 163.966 45.599C164.249 45.4385 164.573 45.3583 164.937 45.3583C165.359 45.3583 165.731 45.4492 166.052 45.631C166.378 45.8129 166.634 46.0669 166.822 46.3931C167.014 46.7193 167.11 47.1043 167.11 47.5482C167.11 47.992 167.014 48.3798 166.822 48.7113C166.634 49.0375 166.378 49.2915 166.052 49.4734C165.731 49.6552 165.359 49.7461 164.937 49.7461ZM162.562 51.2461V45.4064H163.517V46.4172L163.485 47.5562L163.565 48.6953V51.2461H162.562ZM164.824 48.8878C165.065 48.8878 165.279 48.8343 165.466 48.7274C165.658 48.6204 165.811 48.4653 165.923 48.2621C166.035 48.0589 166.092 47.8209 166.092 47.5482C166.092 47.2701 166.035 47.0321 165.923 46.8343C165.811 46.6311 165.658 46.476 165.466 46.369C165.279 46.2621 165.065 46.2086 164.824 46.2086C164.584 46.2086 164.367 46.2621 164.174 46.369C163.982 46.476 163.83 46.6311 163.717 46.8343C163.605 47.0321 163.549 47.2701 163.549 47.5482C163.549 47.8209 163.605 48.0589 163.717 48.2621C163.83 48.4653 163.982 48.6204 164.174 48.7274C164.367 48.8343 164.584 48.8878 164.824 48.8878ZM168.061 49.6899V43.738H169.064V49.6899H168.061ZM173.019 49.6899V48.8236L172.963 48.6391V47.123C172.963 46.8289 172.875 46.6016 172.698 46.4412C172.522 46.2754 172.254 46.1926 171.896 46.1926C171.655 46.1926 171.417 46.23 171.182 46.3049C170.952 46.3797 170.757 46.484 170.597 46.6177L170.204 45.8877C170.433 45.7113 170.706 45.5802 171.022 45.4947C171.343 45.4038 171.674 45.3583 172.016 45.3583C172.637 45.3583 173.115 45.508 173.452 45.8075C173.795 46.1016 173.966 46.5589 173.966 47.1792V49.6899H173.019ZM171.671 49.7461C171.351 49.7461 171.07 49.6926 170.829 49.5857C170.589 49.4734 170.401 49.321 170.268 49.1284C170.139 48.9306 170.075 48.7086 170.075 48.4626C170.075 48.222 170.131 48.0054 170.244 47.8129C170.361 47.6204 170.551 47.468 170.813 47.3557C171.075 47.2434 171.423 47.1872 171.856 47.1872H173.099V47.853H171.928C171.586 47.853 171.356 47.9092 171.238 48.0215C171.121 48.1284 171.062 48.2621 171.062 48.4225C171.062 48.6044 171.134 48.7487 171.278 48.8557C171.423 48.9627 171.623 49.0161 171.88 49.0161C172.126 49.0161 172.345 48.96 172.538 48.8477C172.736 48.7354 172.877 48.5696 172.963 48.3503L173.131 48.952C173.035 49.2033 172.861 49.3985 172.61 49.5375C172.364 49.6766 172.051 49.7461 171.671 49.7461ZM177.683 45.3583C178.025 45.3583 178.33 45.4252 178.597 45.5588C178.87 45.6925 179.084 45.8984 179.239 46.1765C179.394 46.4492 179.472 46.8022 179.472 47.2354V49.6899H178.469V47.3637C178.469 46.984 178.378 46.7006 178.196 46.5134C178.02 46.3262 177.771 46.2327 177.45 46.2327C177.215 46.2327 177.007 46.2808 176.825 46.377C176.643 46.4733 176.501 46.6177 176.4 46.8102C176.303 46.9974 176.255 47.2354 176.255 47.5241V49.6899H175.252V45.4064H176.207V46.5615L176.039 46.2086C176.188 45.9359 176.405 45.7273 176.688 45.5829C176.977 45.4332 177.309 45.3583 177.683 45.3583Z" fill="#333333"/>
<rect x="46.5869" y="59.0703" width="175.137" height="68.1831" fill="#F1F6FF"/>
<g filter="url(#filter2_d_2376_18348)">
<path d="M57.9508 82.7055C57.9508 82.2042 58.3572 81.7979 58.8585 81.7979H206.778C207.28 81.7979 207.686 82.2042 207.686 82.7055V111.639C207.686 112.141 207.28 112.547 206.778 112.547H58.8585C58.3572 112.547 57.9508 112.141 57.9508 111.639V82.7055Z" fill="white"/>
</g>
<circle cx="75.9353" cy="96.8833" r="8.70261" fill="#074889"/>
<path d="M60.1971 73.7603V69.8163H58.6462V69.081H62.6169V69.8163H61.0661V73.7603H60.1971ZM65.1988 73.7603V73.0383L65.152 72.8846V71.6212C65.152 71.3761 65.0785 71.1867 64.9314 71.053C64.7843 70.9148 64.5615 70.8458 64.2629 70.8458C64.0624 70.8458 63.8641 70.877 63.668 70.9393C63.4764 71.0017 63.3137 71.0886 63.18 71.2L62.8525 70.5917C63.0441 70.4447 63.2714 70.3355 63.5343 70.2642C63.8017 70.1884 64.078 70.1506 64.3632 70.1506C64.8802 70.1506 65.279 70.2753 65.5598 70.5249C65.845 70.77 65.9876 71.151 65.9876 71.668V73.7603H65.1988ZM64.0758 73.807C63.8084 73.807 63.5744 73.7625 63.3739 73.6734C63.1733 73.5798 63.0174 73.4528 62.906 73.2923C62.799 73.1274 62.7455 72.9425 62.7455 72.7375C62.7455 72.537 62.7923 72.3565 62.8859 72.1961C62.984 72.0356 63.1422 71.9086 63.3605 71.815C63.5789 71.7214 63.8685 71.6747 64.2295 71.6747H65.2656V72.2295H64.2897C64.0045 72.2295 63.8128 72.2763 63.7148 72.3699C63.6168 72.459 63.5677 72.5704 63.5677 72.7041C63.5677 72.8556 63.6279 72.9759 63.7482 73.0651C63.8685 73.1542 64.0357 73.1987 64.2496 73.1987C64.4546 73.1987 64.6373 73.152 64.7977 73.0584C64.9626 72.9648 65.0807 72.8266 65.152 72.6439L65.2924 73.1453C65.2122 73.3547 65.0673 73.5174 64.8579 73.6332C64.6529 73.7491 64.3922 73.807 64.0758 73.807ZM67.0599 73.7603V70.1907H67.8554V71.1733L67.7618 70.8859C67.8688 70.6452 68.0359 70.4625 68.2632 70.3377C68.4949 70.213 68.7823 70.1506 69.1255 70.1506V70.946C69.0898 70.9371 69.0564 70.9327 69.0252 70.9327C68.994 70.9282 68.9628 70.926 68.9316 70.926C68.6152 70.926 68.3634 71.0196 68.1763 71.2067C67.9891 71.3894 67.8955 71.6635 67.8955 72.0289V73.7603H67.0599ZM71.4193 75.1039C71.0896 75.1039 70.7665 75.0593 70.4501 74.9702C70.1381 74.8855 69.8819 74.7607 69.6813 74.5958L70.0557 73.9675C70.2117 74.0967 70.4077 74.1992 70.6439 74.275C70.8846 74.3552 71.1274 74.3953 71.3726 74.3953C71.7647 74.3953 72.0522 74.3039 72.2349 74.1212C72.4176 73.943 72.5089 73.6734 72.5089 73.3124V72.6773L72.5758 71.8685L72.549 71.0597V70.1907H73.3445V73.2188C73.3445 73.865 73.1796 74.3396 72.8499 74.6426C72.5201 74.9501 72.0432 75.1039 71.4193 75.1039ZM71.3124 73.5998C70.9737 73.5998 70.6662 73.5285 70.3899 73.3859C70.1181 73.2389 69.9019 73.0361 69.7415 72.7776C69.5855 72.5191 69.5075 72.2161 69.5075 71.8685C69.5075 71.5254 69.5855 71.2246 69.7415 70.9661C69.9019 70.7076 70.1181 70.5071 70.3899 70.3645C70.6662 70.2219 70.9737 70.1506 71.3124 70.1506C71.6154 70.1506 71.8873 70.2107 72.1279 70.331C72.3686 70.4514 72.5602 70.6385 72.7028 70.8926C72.8499 71.1466 72.9234 71.4719 72.9234 71.8685C72.9234 72.2651 72.8499 72.5927 72.7028 72.8511C72.5602 73.1052 72.3686 73.2946 72.1279 73.4193C71.8873 73.5397 71.6154 73.5998 71.3124 73.5998ZM71.4394 72.8913C71.6488 72.8913 71.836 72.8489 72.0009 72.7642C72.1658 72.6751 72.2928 72.5548 72.3819 72.4033C72.4755 72.2473 72.5223 72.069 72.5223 71.8685C72.5223 71.668 72.4755 71.4919 72.3819 71.3404C72.2928 71.1844 72.1658 71.0664 72.0009 70.9861C71.836 70.9015 71.6488 70.8591 71.4394 70.8591C71.2299 70.8591 71.0405 70.9015 70.8712 70.9861C70.7063 71.0664 70.5771 71.1844 70.4835 71.3404C70.3944 71.4919 70.3498 71.668 70.3498 71.8685C70.3498 72.069 70.3944 72.2473 70.4835 72.4033C70.5771 72.5548 70.7063 72.6751 70.8712 72.7642C71.0405 72.8489 71.2299 72.8913 71.4394 72.8913ZM76.1209 73.807C75.7243 73.807 75.3767 73.7291 75.0781 73.5731C74.784 73.4127 74.5544 73.1943 74.3896 72.918C74.2291 72.6417 74.1489 72.3275 74.1489 71.9755C74.1489 71.6189 74.2269 71.3048 74.3829 71.0329C74.5433 70.7566 74.7617 70.5405 75.038 70.3845C75.3187 70.2285 75.6374 70.1506 75.9939 70.1506C76.3415 70.1506 76.6512 70.2263 76.923 70.3778C77.1949 70.5294 77.4088 70.7433 77.5648 71.0196C77.7207 71.2959 77.7987 71.6212 77.7987 71.9955C77.7987 72.0312 77.7965 72.0713 77.792 72.1158C77.792 72.1604 77.7898 72.2027 77.7853 72.2428H74.8107V71.688H77.3442L77.0166 71.8618C77.0211 71.6568 76.9787 71.4763 76.8896 71.3204C76.8005 71.1644 76.6779 71.0418 76.522 70.9527C76.3704 70.8636 76.1944 70.819 75.9939 70.819C75.7889 70.819 75.6084 70.8636 75.4524 70.9527C75.3009 71.0418 75.1806 71.1666 75.0914 71.3271C75.0068 71.483 74.9644 71.668 74.9644 71.8819V72.0156C74.9644 72.2295 75.0135 72.4189 75.1115 72.5838C75.2095 72.7486 75.3477 72.8757 75.5259 72.9648C75.7042 73.0539 75.9092 73.0985 76.1409 73.0985C76.3415 73.0985 76.522 73.0673 76.6824 73.0049C76.8428 72.9425 76.9854 72.8445 77.1102 72.7108L77.5581 73.2255C77.3976 73.4127 77.1949 73.5575 76.9498 73.66C76.7091 73.758 76.4328 73.807 76.1209 73.807ZM79.9449 73.807C79.5528 73.807 79.2497 73.7068 79.0358 73.5062C78.8219 73.3012 78.715 73.0004 78.715 72.6038V69.4019H79.5506V72.5838C79.5506 72.7531 79.5929 72.8846 79.6776 72.9782C79.7667 73.0717 79.8892 73.1185 80.0452 73.1185C80.2324 73.1185 80.3884 73.0695 80.5131 72.9715L80.7471 73.5664C80.6491 73.6466 80.5287 73.7068 80.3861 73.7469C80.2435 73.787 80.0965 73.807 79.9449 73.807ZM78.1267 70.8859V70.2174H80.5065V70.8859H78.1267ZM83.2819 73.7603V70.1907H84.0773V71.1733L83.9838 70.8859C84.0907 70.6452 84.2578 70.4625 84.4851 70.3377C84.7168 70.213 85.0043 70.1506 85.3474 70.1506V70.946C85.3118 70.9371 85.2783 70.9327 85.2471 70.9327C85.216 70.9282 85.1848 70.926 85.1536 70.926C84.8372 70.926 84.5854 71.0196 84.3982 71.2067C84.211 71.3894 84.1174 71.6635 84.1174 72.0289V73.7603H83.2819ZM87.6279 73.807C87.2625 73.807 86.9372 73.7291 86.652 73.5731C86.3668 73.4127 86.1417 73.1943 85.9768 72.918C85.8119 72.6417 85.7295 72.3275 85.7295 71.9755C85.7295 71.6189 85.8119 71.3048 85.9768 71.0329C86.1417 70.7566 86.3668 70.5405 86.652 70.3845C86.9372 70.2285 87.2625 70.1506 87.6279 70.1506C87.9978 70.1506 88.3253 70.2285 88.6106 70.3845C88.9002 70.5405 89.1253 70.7544 89.2857 71.0262C89.4506 71.2981 89.533 71.6145 89.533 71.9755C89.533 72.3275 89.4506 72.6417 89.2857 72.918C89.1253 73.1943 88.9002 73.4127 88.6106 73.5731C88.3253 73.7291 87.9978 73.807 87.6279 73.807ZM87.6279 73.0918C87.8329 73.0918 88.0156 73.0472 88.1761 72.9581C88.3365 72.869 88.4613 72.7397 88.5504 72.5704C88.644 72.401 88.6908 72.2027 88.6908 71.9755C88.6908 71.7437 88.644 71.5454 88.5504 71.3805C88.4613 71.2112 88.3365 71.082 88.1761 70.9928C88.0156 70.9037 87.8351 70.8591 87.6346 70.8591C87.4296 70.8591 87.2469 70.9037 87.0865 70.9928C86.9305 71.082 86.8057 71.2112 86.7121 71.3805C86.6185 71.5454 86.5717 71.7437 86.5717 71.9755C86.5717 72.2027 86.6185 72.401 86.7121 72.5704C86.8057 72.7397 86.9305 72.869 87.0865 72.9581C87.2469 73.0472 87.4274 73.0918 87.6279 73.0918ZM90.3321 73.7603V68.8003H91.1676V73.7603H90.3321ZM93.9422 73.807C93.5455 73.807 93.1979 73.7291 92.8994 73.5731C92.6052 73.4127 92.3757 73.1943 92.2108 72.918C92.0504 72.6417 91.9702 72.3275 91.9702 71.9755C91.9702 71.6189 92.0482 71.3048 92.2042 71.0329C92.3646 70.7566 92.583 70.5405 92.8593 70.3845C93.14 70.2285 93.4586 70.1506 93.8152 70.1506C94.1628 70.1506 94.4725 70.2263 94.7443 70.3778C95.0162 70.5294 95.2301 70.7433 95.386 71.0196C95.542 71.2959 95.62 71.6212 95.62 71.9955C95.62 72.0312 95.6178 72.0713 95.6133 72.1158C95.6133 72.1604 95.6111 72.2027 95.6066 72.2428H92.632V71.688H95.1654L94.8379 71.8618C94.8424 71.6568 94.8 71.4763 94.7109 71.3204C94.6218 71.1644 94.4992 71.0418 94.3432 70.9527C94.1917 70.8636 94.0157 70.819 93.8152 70.819C93.6102 70.819 93.4297 70.8636 93.2737 70.9527C93.1222 71.0418 93.0019 71.1666 92.9127 71.3271C92.8281 71.483 92.7857 71.668 92.7857 71.8819V72.0156C92.7857 72.2295 92.8347 72.4189 92.9328 72.5838C93.0308 72.7486 93.169 72.8757 93.3472 72.9648C93.5255 73.0539 93.7305 73.0985 93.9622 73.0985C94.1628 73.0985 94.3432 73.0673 94.5037 73.0049C94.6641 72.9425 94.8067 72.8445 94.9315 72.7108L95.3794 73.2255C95.2189 73.4127 95.0162 73.5575 94.7711 73.66C94.5304 73.758 94.2541 73.807 93.9422 73.807Z" fill="#333333"/>
<circle cx="73.6599" cy="154.994" r="3.67654" fill="white"/>
<circle cx="73.6599" cy="193.096" r="3.67654" fill="white"/>
<path d="M91.1225 95.9878V92.8298H91.5265V95.9878H91.1225ZM92.2765 95.9878V93.7296H92.6674V94.0572C92.7227 93.9625 92.8093 93.8788 92.9273 93.806C93.0452 93.7332 93.1945 93.6968 93.375 93.6968C93.5177 93.6968 93.6487 93.7252 93.7681 93.782C93.8889 93.8388 93.985 93.9276 94.0564 94.0484C94.1292 94.1678 94.1656 94.3222 94.1656 94.5114V95.9878H93.7616V94.5508C93.7616 94.3746 93.715 94.2443 93.6218 94.1598C93.5301 94.0739 93.4107 94.031 93.2636 94.031C93.1617 94.031 93.0663 94.0477 92.9775 94.0812C92.8887 94.1132 92.8166 94.1627 92.7613 94.2297C92.706 94.2952 92.6783 94.3782 92.6783 94.4787V95.9878H92.2765ZM95.5885 96.0315C95.4312 96.0315 95.2849 96.0067 95.1495 95.9572C95.0156 95.9077 94.9042 95.832 94.8154 95.7301C94.7266 95.6267 94.6712 95.4935 94.6494 95.3304H95.0163C95.0454 95.4629 95.1117 95.5627 95.215 95.6296C95.3199 95.6966 95.4436 95.7301 95.5863 95.7301C95.7392 95.7301 95.8622 95.7017 95.9554 95.6449C96.0486 95.5881 96.0952 95.5008 96.0952 95.3828C96.0952 95.2241 95.9947 95.1208 95.7938 95.0727L95.3264 94.957C95.1444 94.9133 94.9988 94.8449 94.8896 94.7517C94.7819 94.6585 94.7273 94.5282 94.7258 94.3608C94.7258 94.1627 94.7972 94.0011 94.9399 93.8759C95.084 93.7492 95.2995 93.6859 95.5863 93.6859C95.8309 93.6859 96.0282 93.7412 96.1782 93.8519C96.3296 93.9625 96.4089 94.1234 96.4162 94.3345H96.058C96.0435 94.2268 95.9954 94.1416 95.9139 94.079C95.8324 94.015 95.7217 93.9829 95.5819 93.9829C95.4378 93.9829 95.3206 94.012 95.2303 94.0703C95.1401 94.1271 95.0949 94.2159 95.0949 94.3367C95.0949 94.4168 95.1269 94.4801 95.191 94.5267C95.2565 94.5719 95.3512 94.6097 95.4749 94.6403L95.9292 94.7539C96.0675 94.7903 96.1745 94.8419 96.2502 94.9089C96.3274 94.9759 96.3813 95.0494 96.4118 95.1295C96.4424 95.2096 96.4577 95.2867 96.4577 95.361C96.4577 95.5692 96.3813 95.733 96.2284 95.8524C96.077 95.9718 95.8637 96.0315 95.5885 96.0315ZM96.9856 96.691V93.7296H97.3874L97.3918 94.1227C97.4268 94.0616 97.4755 93.9975 97.5381 93.9305C97.6022 93.8621 97.683 93.8046 97.7806 93.758C97.8781 93.7099 97.996 93.6859 98.1344 93.6859C98.4037 93.6859 98.6236 93.7791 98.7939 93.9655C98.9643 94.1518 99.0494 94.4394 99.0494 94.8281C99.0494 95.2154 98.9657 95.5131 98.7983 95.7214C98.6308 95.9281 98.3986 96.0315 98.1016 96.0315C97.9676 96.0315 97.8534 96.0074 97.7587 95.9594C97.6655 95.9099 97.5891 95.8502 97.5294 95.7803C97.4697 95.7104 97.4238 95.6435 97.3918 95.5794V96.691H96.9856ZM98.0252 95.717C98.2115 95.717 98.3637 95.6464 98.4816 95.5051C98.5995 95.3625 98.6585 95.1411 98.6585 94.8412C98.6585 94.585 98.6046 94.3811 98.4969 94.2297C98.3892 94.0768 98.2319 94.0004 98.0252 94.0004C97.8155 94.0004 97.6568 94.0783 97.5491 94.2341C97.4413 94.3899 97.3874 94.5923 97.3874 94.8412C97.3874 95.0028 97.4115 95.1499 97.4595 95.2824C97.5076 95.4149 97.5789 95.5204 97.6735 95.5991C97.7682 95.6777 97.8854 95.717 98.0252 95.717ZM100.542 96.0315C100.332 96.0315 100.147 95.9856 99.9872 95.8939C99.8271 95.8022 99.7019 95.6704 99.6116 95.4986C99.5213 95.3268 99.4762 95.1208 99.4762 94.8805C99.4762 94.6432 99.517 94.435 99.5985 94.2559C99.68 94.0768 99.798 93.9371 99.9523 93.8366C100.107 93.7361 100.294 93.6859 100.514 93.6859C100.831 93.6859 101.075 93.7871 101.245 93.9895C101.417 94.1904 101.503 94.4619 101.503 94.8041V94.9526H99.8846C99.8846 95.0953 99.9079 95.2249 99.9545 95.3413C100.003 95.4564 100.075 95.5481 100.171 95.6165C100.267 95.685 100.388 95.7192 100.535 95.7192C100.68 95.7192 100.803 95.6857 100.907 95.6187C101.012 95.5517 101.078 95.4549 101.108 95.3282H101.488C101.46 95.4811 101.399 95.61 101.304 95.7148C101.211 95.8196 101.097 95.899 100.963 95.9528C100.83 96.0053 100.689 96.0315 100.542 96.0315ZM99.8868 94.6796H101.114C101.114 94.486 101.065 94.3229 100.966 94.1904C100.867 94.0579 100.715 93.9917 100.511 93.9917C100.37 93.9917 100.253 94.0259 100.16 94.0943C100.067 94.1613 99.9974 94.2479 99.9523 94.3542C99.9072 94.459 99.8853 94.5675 99.8868 94.6796ZM102.97 96.0315C102.766 96.0315 102.586 95.9871 102.428 95.8983C102.273 95.8094 102.15 95.6784 102.062 95.5051C101.974 95.3319 101.931 95.1193 101.931 94.8674C101.931 94.633 101.971 94.427 102.051 94.2494C102.132 94.0717 102.25 93.9334 102.404 93.8344C102.559 93.7354 102.747 93.6859 102.97 93.6859C103.212 93.6859 103.416 93.7551 103.582 93.8934C103.748 94.0302 103.846 94.2137 103.876 94.4437H103.518C103.499 94.3258 103.442 94.2246 103.346 94.1402C103.251 94.0543 103.127 94.0113 102.972 94.0113C102.779 94.0113 102.621 94.0812 102.498 94.221C102.378 94.3608 102.317 94.5748 102.317 94.8631C102.317 95.1237 102.373 95.3326 102.485 95.4899C102.597 95.6456 102.761 95.7235 102.977 95.7235C103.131 95.7235 103.255 95.6799 103.35 95.5925C103.445 95.5051 103.502 95.4047 103.523 95.2911H103.874C103.845 95.5182 103.747 95.6988 103.579 95.8327C103.412 95.9652 103.209 96.0315 102.97 96.0315ZM105.163 95.9987C104.928 95.9987 104.77 95.9514 104.689 95.8568C104.609 95.7621 104.569 95.6238 104.569 95.4418V94.0244H104.202V93.7296H104.58L104.678 93.0722H104.975V93.7274H105.484V94.0244H104.975V95.4287C104.975 95.5495 104.994 95.6238 105.032 95.6515C105.071 95.6777 105.144 95.6908 105.25 95.6908H105.497V95.9616C105.468 95.9718 105.425 95.9805 105.368 95.9878C105.313 95.9951 105.244 95.9987 105.163 95.9987ZM106.877 96.0315C106.564 96.0315 106.313 95.9317 106.124 95.7323C105.936 95.5328 105.842 95.2445 105.842 94.8674C105.842 94.6316 105.882 94.4248 105.962 94.2472C106.042 94.0696 106.159 93.932 106.314 93.8344C106.468 93.7354 106.657 93.6859 106.879 93.6859C107.19 93.6859 107.438 93.7878 107.624 93.9917C107.812 94.1955 107.906 94.4874 107.906 94.8674C107.906 95.0975 107.867 95.2998 107.788 95.4746C107.711 95.6493 107.596 95.7861 107.443 95.8851C107.29 95.9827 107.101 96.0315 106.877 96.0315ZM106.879 95.7126C107.08 95.7126 107.235 95.6369 107.342 95.4855C107.452 95.3326 107.506 95.1237 107.506 94.8587C107.506 94.6971 107.484 94.5522 107.441 94.4241C107.398 94.2945 107.331 94.1919 107.238 94.1162C107.146 94.0404 107.026 94.0026 106.879 94.0026C106.674 94.0026 106.517 94.0783 106.408 94.2297C106.298 94.3797 106.244 94.5893 106.244 94.8587C106.244 95.0174 106.265 95.1615 106.307 95.2911C106.351 95.4207 106.419 95.5233 106.512 95.5991C106.606 95.6748 106.728 95.7126 106.879 95.7126ZM108.443 95.9878V93.7296H108.827V94.1642C108.884 94.0026 108.973 93.8825 109.096 93.8038C109.22 93.7252 109.353 93.6859 109.495 93.6859C109.529 93.6859 109.561 93.6881 109.592 93.6925C109.624 93.6968 109.649 93.7041 109.668 93.7143V94.1052C109.646 94.095 109.618 94.0885 109.583 94.0856C109.549 94.0812 109.521 94.079 109.498 94.079C109.319 94.0674 109.165 94.1016 109.037 94.1817C108.909 94.2617 108.845 94.3957 108.845 94.5835V95.9878H108.443ZM91.1512 101.988V98.3035H91.7704V101.988H91.1512ZM92.5698 101.988V99.3532H93.1762V99.7303C93.2373 99.6284 93.3316 99.535 93.459 99.45C93.5881 99.3651 93.758 99.3227 93.9686 99.3227C94.1317 99.3227 94.2828 99.3549 94.4221 99.4195C94.5631 99.484 94.6761 99.5851 94.761 99.7227C94.8476 99.8603 94.8909 100.038 94.8909 100.255V101.988H94.2692V100.329C94.2692 100.158 94.2208 100.029 94.124 99.9443C94.0289 99.8594 93.91 99.817 93.7673 99.817C93.6178 99.817 93.4836 99.8543 93.3647 99.9291C93.2475 100.004 93.1889 100.117 93.1889 100.268V101.988H92.5698ZM96.5135 102.008C96.3046 102.008 96.1424 101.981 96.0268 101.927C95.913 101.872 95.8341 101.794 95.7899 101.692C95.7457 101.589 95.7236 101.466 95.7236 101.325V99.7915H95.2956V99.3532H95.7415L95.8969 98.571H96.3428V99.3507H96.9314V99.7915H96.3428L96.3453 101.302C96.3453 101.42 96.3657 101.493 96.4065 101.522C96.4473 101.549 96.5178 101.562 96.618 101.562H96.9441V101.955C96.9084 101.968 96.8558 101.98 96.7861 101.99C96.7182 102.002 96.6273 102.008 96.5135 102.008ZM98.6011 102.039C98.348 102.039 98.1247 101.985 97.931 101.878C97.7391 101.77 97.5888 101.615 97.48 101.415C97.373 101.214 97.3195 100.975 97.3195 100.699C97.3195 100.428 97.3679 100.189 97.4648 99.98C97.5633 99.7694 97.7051 99.6038 97.8903 99.4832C98.0771 99.3626 98.3022 99.3023 98.5655 99.3023C98.9545 99.3023 99.2509 99.4237 99.4547 99.6666C99.6585 99.9078 99.7605 100.227 99.7605 100.625V100.813H97.9387C97.937 101.037 97.9913 101.222 98.1017 101.366C98.2122 101.509 98.3744 101.58 98.5884 101.58C98.7345 101.58 98.861 101.548 98.968 101.483C99.0768 101.417 99.1489 101.317 99.1846 101.183H99.7503C99.7197 101.366 99.6466 101.522 99.5311 101.649C99.4173 101.776 99.278 101.873 99.1133 101.939C98.9502 102.006 98.7795 102.039 98.6011 102.039ZM97.9361 100.428H99.1744C99.1744 100.238 99.1243 100.078 99.0241 99.9469C98.9239 99.8144 98.7702 99.7482 98.5629 99.7482C98.427 99.7482 98.3124 99.7813 98.219 99.8475C98.1255 99.9138 98.055 99.9996 98.0075 100.105C97.9599 100.208 97.9361 100.316 97.9361 100.428ZM101.112 102.026C100.885 102.026 100.716 101.99 100.608 101.919C100.501 101.846 100.431 101.752 100.399 101.636C100.368 101.521 100.353 101.401 100.353 101.277V98.2016H100.959V101.206C100.959 101.319 100.982 101.408 101.028 101.471C101.076 101.533 101.152 101.57 101.257 101.58L101.39 101.585V101.975C101.344 101.99 101.297 102.002 101.247 102.011C101.2 102.021 101.155 102.026 101.112 102.026ZM102.655 102.026C102.427 102.026 102.259 101.99 102.15 101.919C102.043 101.846 101.974 101.752 101.941 101.636C101.911 101.521 101.896 101.401 101.896 101.277V98.2016H102.502V101.206C102.502 101.319 102.525 101.408 102.571 101.471C102.618 101.533 102.695 101.57 102.8 101.58L102.933 101.585V101.975C102.887 101.99 102.839 102.002 102.79 102.011C102.742 102.021 102.697 102.026 102.655 102.026ZM103.488 98.892V98.306H104.102V98.892H103.488ZM103.498 101.988V99.3532H104.092V101.988H103.498ZM105.959 102.859C105.516 102.859 105.175 102.799 104.937 102.678C104.699 102.559 104.581 102.397 104.581 102.192C104.581 102.1 104.603 102.023 104.649 101.96C104.695 101.895 104.75 101.843 104.812 101.802C104.875 101.761 104.933 101.73 104.986 101.708C105.038 101.685 105.072 101.669 105.088 101.659C105.059 101.642 105.02 101.62 104.973 101.593C104.925 101.566 104.882 101.528 104.843 101.481C104.806 101.433 104.787 101.371 104.787 101.295C104.787 101.206 104.829 101.125 104.912 101.05C104.997 100.975 105.123 100.922 105.291 100.89C105.127 100.81 105 100.703 104.912 100.569C104.823 100.433 104.779 100.291 104.779 100.143C104.779 99.9698 104.829 99.8212 104.93 99.6972C105.032 99.5732 105.173 99.4781 105.353 99.4118C105.533 99.3456 105.742 99.3125 105.982 99.3125C106.157 99.3125 106.302 99.332 106.418 99.3711C106.535 99.4101 106.644 99.4628 106.744 99.529C106.79 99.5103 106.858 99.4832 106.95 99.4475C107.042 99.4101 107.136 99.3719 107.233 99.3328C107.33 99.2921 107.409 99.259 107.47 99.2335L107.467 99.7456L107.011 99.8271C107.059 99.9342 107.083 100.039 107.083 100.141C107.083 100.293 107.039 100.435 106.953 100.566C106.868 100.695 106.74 100.799 106.568 100.877C106.398 100.955 106.186 100.994 105.931 100.994C105.905 100.994 105.871 100.993 105.826 100.992C105.782 100.99 105.747 100.988 105.719 100.986C105.582 100.992 105.488 101.008 105.437 101.035C105.386 101.062 105.36 101.092 105.36 101.124C105.36 101.17 105.398 101.201 105.475 101.218C105.551 101.234 105.674 101.246 105.842 101.257C105.901 101.26 105.979 101.265 106.076 101.272C106.173 101.277 106.281 101.283 106.4 101.29C106.7 101.31 106.928 101.386 107.083 101.516C107.237 101.647 107.314 101.817 107.314 102.026C107.314 102.269 107.202 102.469 106.978 102.625C106.754 102.781 106.414 102.859 105.959 102.859ZM105.951 100.63C106.113 100.63 106.244 100.589 106.344 100.507C106.444 100.424 106.494 100.307 106.494 100.156C106.494 100.001 106.444 99.8798 106.344 99.7915C106.244 99.7031 106.113 99.659 105.951 99.659C105.787 99.659 105.653 99.7031 105.551 99.7915C105.451 99.8798 105.401 100.001 105.401 100.156C105.401 100.304 105.449 100.42 105.546 100.505C105.643 100.588 105.778 100.63 105.951 100.63ZM106.063 102.495C106.5 102.495 106.718 102.374 106.718 102.133C106.718 102.043 106.682 101.969 106.609 101.911C106.536 101.852 106.427 101.817 106.283 101.807L105.618 101.766C105.507 101.759 105.408 101.792 105.319 101.863C105.233 101.934 105.19 102.019 105.19 102.118C105.19 102.243 105.26 102.338 105.401 102.401C105.544 102.463 105.764 102.495 106.063 102.495ZM109.067 102.039C108.814 102.039 108.59 101.985 108.396 101.878C108.205 101.77 108.054 101.615 107.946 101.415C107.838 101.214 107.785 100.975 107.785 100.699C107.785 100.428 107.833 100.189 107.93 99.98C108.029 99.7694 108.171 99.6038 108.356 99.4832C108.543 99.3626 108.768 99.3023 109.031 99.3023C109.42 99.3023 109.716 99.4237 109.92 99.6666C110.124 99.9078 110.226 100.227 110.226 100.625V100.813H108.404C108.402 101.037 108.457 101.222 108.567 101.366C108.678 101.509 108.84 101.58 109.054 101.58C109.2 101.58 109.326 101.548 109.433 101.483C109.542 101.417 109.614 101.317 109.65 101.183H110.216C110.185 101.366 110.112 101.522 109.997 101.649C109.883 101.776 109.743 101.873 109.579 101.939C109.416 102.006 109.245 102.039 109.067 102.039ZM108.402 100.428H109.64C109.64 100.238 109.59 100.078 109.49 99.9469C109.389 99.8144 109.236 99.7482 109.028 99.7482C108.892 99.7482 108.778 99.7813 108.684 99.8475C108.591 99.9138 108.52 99.9996 108.473 100.105C108.425 100.208 108.402 100.316 108.402 100.428ZM110.818 101.988V99.3532H111.425V99.7303C111.486 99.6284 111.58 99.535 111.708 99.45C111.837 99.3651 112.007 99.3227 112.217 99.3227C112.38 99.3227 112.531 99.3549 112.671 99.4195C112.812 99.484 112.925 99.5851 113.01 99.7227C113.096 99.8603 113.14 100.038 113.14 100.255V101.988H112.518V100.329C112.518 100.158 112.469 100.029 112.373 99.9443C112.278 99.8594 112.159 99.817 112.016 99.817C111.866 99.817 111.732 99.8543 111.613 99.9291C111.496 100.004 111.438 100.117 111.438 100.268V101.988H110.818ZM114.91 102.039C114.669 102.039 114.454 101.986 114.265 101.881C114.079 101.774 113.932 101.619 113.825 101.417C113.718 101.213 113.664 100.968 113.664 100.681C113.664 100.407 113.714 100.168 113.814 99.9622C113.916 99.755 114.06 99.5936 114.245 99.4781C114.432 99.3609 114.654 99.3023 114.91 99.3023C115.116 99.3023 115.296 99.3439 115.453 99.4271C115.609 99.5086 115.734 99.6216 115.827 99.766C115.922 99.9087 115.979 100.072 115.998 100.255H115.471C115.45 100.136 115.393 100.028 115.3 99.9316C115.208 99.8331 115.08 99.7838 114.915 99.7838C114.718 99.7838 114.558 99.8577 114.434 100.005C114.311 100.152 114.25 100.375 114.25 100.676C114.25 100.954 114.308 101.176 114.423 101.341C114.541 101.505 114.708 101.588 114.925 101.588C115.034 101.588 115.127 101.564 115.206 101.516C115.284 101.467 115.345 101.407 115.389 101.336C115.435 101.262 115.464 101.189 115.476 101.116H115.99C115.975 101.296 115.92 101.456 115.825 101.595C115.73 101.733 115.604 101.842 115.448 101.922C115.291 102 115.112 102.039 114.91 102.039ZM117.736 102.039C117.482 102.039 117.259 101.985 117.065 101.878C116.874 101.77 116.723 101.615 116.614 101.415C116.507 101.214 116.454 100.975 116.454 100.699C116.454 100.428 116.502 100.189 116.599 99.98C116.698 99.7694 116.84 99.6038 117.025 99.4832C117.212 99.3626 117.437 99.3023 117.7 99.3023C118.089 99.3023 118.385 99.4237 118.589 99.6666C118.793 99.9078 118.895 100.227 118.895 100.625V100.813H117.073C117.071 101.037 117.126 101.222 117.236 101.366C117.347 101.509 117.509 101.58 117.723 101.58C117.869 101.58 117.995 101.548 118.102 101.483C118.211 101.417 118.283 101.317 118.319 101.183H118.885C118.854 101.366 118.781 101.522 118.666 101.649C118.552 101.776 118.412 101.873 118.248 101.939C118.085 102.006 117.914 102.039 117.736 102.039ZM117.071 100.428H118.309C118.309 100.238 118.259 100.078 118.159 99.9469C118.058 99.8144 117.905 99.7482 117.697 99.7482C117.561 99.7482 117.447 99.7813 117.353 99.8475C117.26 99.9138 117.189 99.9996 117.142 100.105C117.094 100.208 117.071 100.316 117.071 100.428ZM120.746 101.988V98.3035H121.633L122.598 101.119L123.574 98.3035H124.456V101.988H123.827V99.0984L122.856 101.988H122.339L121.375 99.1163V101.988H120.746ZM126.002 102.039C125.749 102.039 125.539 101.971 125.373 101.835C125.206 101.697 125.123 101.504 125.123 101.254C125.123 100.964 125.227 100.744 125.436 100.597C125.647 100.449 125.982 100.372 126.44 100.365L126.835 100.355V100.176C126.835 100.037 126.793 99.9282 126.71 99.8501C126.627 99.7719 126.5 99.7329 126.328 99.7329C126.199 99.7346 126.082 99.7651 125.976 99.8246C125.871 99.884 125.801 99.9817 125.768 100.118H125.24C125.254 99.8475 125.362 99.6445 125.564 99.5086C125.768 99.3711 126.032 99.3023 126.356 99.3023C126.731 99.3023 127.004 99.3762 127.174 99.5239C127.346 99.67 127.431 99.8756 127.431 100.141V101.988H126.909L126.858 101.514C126.763 101.713 126.643 101.85 126.499 101.927C126.354 102.001 126.189 102.039 126.002 102.039ZM126.203 101.618C126.305 101.618 126.405 101.595 126.501 101.547C126.598 101.498 126.677 101.435 126.738 101.358C126.801 101.282 126.833 101.2 126.835 101.114V100.699L126.512 100.704C126.272 100.707 126.079 100.745 125.933 100.818C125.787 100.891 125.714 101.015 125.714 101.19C125.714 101.324 125.76 101.43 125.852 101.506C125.945 101.581 126.062 101.618 126.203 101.618ZM128.092 101.988V99.3532H128.698V99.7303C128.759 99.6284 128.853 99.535 128.981 99.45C129.11 99.3651 129.28 99.3227 129.49 99.3227C129.653 99.3227 129.805 99.3549 129.944 99.4195C130.085 99.484 130.198 99.5851 130.283 99.7227C130.369 99.8603 130.413 100.038 130.413 100.255V101.988H129.791V100.329C129.791 100.158 129.743 100.029 129.646 99.9443C129.551 99.8594 129.432 99.817 129.289 99.817C129.14 99.817 129.005 99.8543 128.887 99.9291C128.769 100.004 128.711 100.117 128.711 100.268V101.988H128.092ZM131.824 102.039C131.571 102.039 131.361 101.971 131.195 101.835C131.029 101.697 130.945 101.504 130.945 101.254C130.945 100.964 131.05 100.744 131.259 100.597C131.469 100.449 131.804 100.372 132.263 100.365L132.658 100.355V100.176C132.658 100.037 132.616 99.9282 132.533 99.8501C132.449 99.7719 132.322 99.7329 132.151 99.7329C132.021 99.7346 131.904 99.7651 131.799 99.8246C131.694 99.884 131.624 99.9817 131.59 100.118H131.063C131.076 99.8475 131.184 99.6445 131.386 99.5086C131.59 99.3711 131.854 99.3023 132.179 99.3023C132.554 99.3023 132.827 99.3762 132.996 99.5239C133.168 99.67 133.254 99.8756 133.254 100.141V101.988H132.731L132.68 101.514C132.585 101.713 132.466 101.85 132.321 101.927C132.177 102.001 132.011 102.039 131.824 102.039ZM132.026 101.618C132.128 101.618 132.227 101.595 132.324 101.547C132.421 101.498 132.5 101.435 132.561 101.358C132.624 101.282 132.656 101.2 132.658 101.114V100.699L132.334 100.704C132.094 100.707 131.902 100.745 131.756 100.818C131.609 100.891 131.536 101.015 131.536 101.19C131.536 101.324 131.582 101.43 131.674 101.506C131.767 101.581 131.885 101.618 132.026 101.618ZM135.086 102.859C134.643 102.859 134.302 102.799 134.064 102.678C133.827 102.559 133.708 102.397 133.708 102.192C133.708 102.1 133.731 102.023 133.776 101.96C133.822 101.895 133.877 101.843 133.94 101.802C134.002 101.761 134.06 101.73 134.113 101.708C134.165 101.685 134.199 101.669 134.215 101.659C134.186 101.642 134.148 101.62 134.1 101.593C134.052 101.566 134.009 101.528 133.97 101.481C133.933 101.433 133.914 101.371 133.914 101.295C133.914 101.206 133.956 101.125 134.039 101.05C134.124 100.975 134.25 100.922 134.419 100.89C134.254 100.81 134.127 100.703 134.039 100.569C133.951 100.433 133.906 100.291 133.906 100.143C133.906 99.9698 133.957 99.8212 134.057 99.6972C134.159 99.5732 134.3 99.4781 134.48 99.4118C134.66 99.3456 134.87 99.3125 135.109 99.3125C135.284 99.3125 135.429 99.332 135.545 99.3711C135.662 99.4101 135.771 99.4628 135.871 99.529C135.917 99.5103 135.986 99.4832 136.077 99.4475C136.169 99.4101 136.263 99.3719 136.36 99.3328C136.457 99.2921 136.536 99.259 136.597 99.2335L136.594 99.7456L136.138 99.8271C136.186 99.9342 136.21 100.039 136.21 100.141C136.21 100.293 136.166 100.435 136.08 100.566C135.995 100.695 135.867 100.799 135.695 100.877C135.525 100.955 135.313 100.994 135.058 100.994C135.033 100.994 134.998 100.993 134.954 100.992C134.909 100.99 134.874 100.988 134.847 100.986C134.709 100.992 134.615 101.008 134.564 101.035C134.513 101.062 134.487 101.092 134.487 101.124C134.487 101.17 134.526 101.201 134.602 101.218C134.678 101.234 134.801 101.246 134.969 101.257C135.028 101.26 135.106 101.265 135.203 101.272C135.3 101.277 135.408 101.283 135.527 101.29C135.828 101.31 136.055 101.386 136.21 101.516C136.364 101.647 136.442 101.817 136.442 102.026C136.442 102.269 136.329 102.469 136.105 102.625C135.881 102.781 135.541 102.859 135.086 102.859ZM135.078 100.63C135.24 100.63 135.371 100.589 135.471 100.507C135.571 100.424 135.621 100.307 135.621 100.156C135.621 100.001 135.571 99.8798 135.471 99.7915C135.371 99.7031 135.24 99.659 135.078 99.659C134.914 99.659 134.78 99.7031 134.678 99.7915C134.578 99.8798 134.528 100.001 134.528 100.156C134.528 100.304 134.577 100.42 134.673 100.505C134.77 100.588 134.905 100.63 135.078 100.63ZM135.191 102.495C135.627 102.495 135.845 102.374 135.845 102.133C135.845 102.043 135.809 101.969 135.736 101.911C135.663 101.852 135.554 101.817 135.41 101.807L134.745 101.766C134.634 101.759 134.535 101.792 134.447 101.863C134.36 101.934 134.317 102.019 134.317 102.118C134.317 102.243 134.387 102.338 134.528 102.401C134.671 102.463 134.892 102.495 135.191 102.495ZM138.194 102.039C137.941 102.039 137.717 101.985 137.524 101.878C137.332 101.77 137.181 101.615 137.073 101.415C136.966 101.214 136.912 100.975 136.912 100.699C136.912 100.428 136.96 100.189 137.057 99.98C137.156 99.7694 137.298 99.6038 137.483 99.4832C137.67 99.3626 137.895 99.3023 138.158 99.3023C138.547 99.3023 138.843 99.4237 139.047 99.6666C139.251 99.9078 139.353 100.227 139.353 100.625V100.813H137.531C137.53 101.037 137.584 101.222 137.694 101.366C137.805 101.509 137.967 101.58 138.181 101.58C138.327 101.58 138.454 101.548 138.561 101.483C138.669 101.417 138.742 101.317 138.777 101.183H139.343C139.312 101.366 139.239 101.522 139.124 101.649C139.01 101.776 138.871 101.873 138.706 101.939C138.543 102.006 138.372 102.039 138.194 102.039ZM137.529 100.428H138.767C138.767 100.238 138.717 100.078 138.617 99.9469C138.516 99.8144 138.363 99.7482 138.155 99.7482C138.02 99.7482 137.905 99.7813 137.812 99.8475C137.718 99.9138 137.648 99.9996 137.6 100.105C137.552 100.208 137.529 100.316 137.529 100.428ZM139.945 101.988V99.3532H140.539V99.924C140.604 99.7286 140.707 99.5766 140.85 99.4679C140.994 99.3575 141.161 99.3023 141.349 99.3023C141.38 99.3023 141.409 99.304 141.436 99.3074C141.465 99.3108 141.487 99.3167 141.502 99.3252V99.9189C141.484 99.9104 141.459 99.9044 141.428 99.901C141.4 99.8976 141.374 99.8959 141.352 99.8959C141.097 99.8756 140.902 99.9155 140.766 100.016C140.632 100.114 140.565 100.261 140.565 100.456V101.988H139.945Z" fill="#333333"/>
<g clip-path="url(#clip0_2376_18348)">
<path d="M75.665 99.651L77.8097 97.5063L78.7288 98.4255L76.5842 100.57L75.665 99.651Z" stroke="#F1F6FF" stroke-width="0.612756" stroke-linecap="round" stroke-linejoin="round"/>
<path d="M77.5036 97.813L77.044 95.5152L72.6016 94.4429L73.6739 98.8854L75.9717 99.3449L77.5036 97.813Z" stroke="#F1F6FF" stroke-width="0.612756" stroke-linecap="round" stroke-linejoin="round"/>
<path d="M72.6016 94.4429L74.9257 96.7671" stroke="#F1F6FF" stroke-width="0.612756" stroke-linecap="round" stroke-linejoin="round"/>
<path d="M75.3585 97.8129C75.6969 97.8129 75.9712 97.5386 75.9712 97.2002C75.9712 96.8617 75.6969 96.5874 75.3585 96.5874C75.0201 96.5874 74.7457 96.8617 74.7457 97.2002C74.7457 97.5386 75.0201 97.8129 75.3585 97.8129Z" stroke="#F1F6FF" stroke-width="0.612756" stroke-linecap="round" stroke-linejoin="round"/>
</g>
<g filter="url(#filter3_d_2376_18348)">
<path d="M86.25 165.405C86.25 165.138 86.4667 164.921 86.734 164.921H166.534C166.801 164.921 167.018 165.138 167.018 165.405V184.021C167.018 184.288 166.801 184.505 166.534 184.505H86.734C86.4667 184.505 86.25 184.288 86.25 184.021V165.405Z" fill="white"/>
</g>
<circle cx="97.7035" cy="174.529" r="5.54241" fill="#E4E4E6"/>
<circle cx="108.05" cy="177.115" r="1.10848" fill="#E4E4E6"/>
<rect x="106.203" y="171.203" width="15.1493" height="2.21696" rx="1.10848" fill="#E4E4E6"/>
<rect x="135.933" y="171.203" width="15.1493" height="2.21696" rx="1.10848" fill="#E4E4E6"/>
<rect x="111.376" y="176.007" width="36.5799" height="2.21696" rx="1.10848" fill="#E4E4E6"/>
<rect x="124.308" y="171.203" width="7.75937" height="2.21696" rx="1.10848" fill="#E4E4E6"/>
<g filter="url(#filter4_d_2376_18348)">
<path d="M86.25 191.484C86.25 191.217 86.4667 191 86.734 191H166.534C166.801 191 167.018 191.217 167.018 191.484V210.099C167.018 210.366 166.801 210.583 166.534 210.583H86.734C86.4667 210.583 86.25 210.366 86.25 210.099V191.484Z" fill="white"/>
</g>
<circle cx="97.7035" cy="200.607" r="5.54241" fill="#E4E4E6"/>
<circle cx="108.05" cy="203.194" r="1.10848" fill="#E4E4E6"/>
<rect x="106.203" y="197.281" width="15.1493" height="2.21696" rx="1.10848" fill="#E4E4E6"/>
<rect x="135.933" y="197.281" width="15.1493" height="2.21696" rx="1.10848" fill="#E4E4E6"/>
<rect x="111.376" y="202.085" width="36.5799" height="2.21696" rx="1.10848" fill="#E4E4E6"/>
<rect x="124.308" y="197.281" width="7.75937" height="2.21696" rx="1.10848" fill="#E4E4E6"/>
<g filter="url(#filter5_d_2376_18348)">
<path d="M86.25 139.484C86.25 139.217 86.4667 139 86.734 139H166.534C166.801 139 167.018 139.217 167.018 139.484V158.099C167.018 158.366 166.801 158.583 166.534 158.583H86.734C86.4667 158.583 86.25 158.366 86.25 158.099V139.484Z" fill="white"/>
</g>
<circle cx="97.7035" cy="148.607" r="5.54241" fill="#E4E4E6"/>
<circle cx="108.05" cy="151.193" r="1.10848" fill="#E4E4E6"/>
<rect x="106.203" y="145.281" width="15.1493" height="2.21696" rx="1.10848" fill="#E4E4E6"/>
<rect x="135.933" y="145.281" width="15.1493" height="2.21696" rx="1.10848" fill="#E4E4E6"/>
<rect x="111.376" y="150.085" width="36.5799" height="2.21696" rx="1.10848" fill="#E4E4E6"/>
<rect x="124.308" y="145.281" width="7.75937" height="2.21696" rx="1.10848" fill="#E4E4E6"/>
<rect x="160.099" y="144.849" width="27.898" height="7.51231" rx="3.75615" fill="#E5F6E6"/>
<rect x="160.099" y="144.849" width="27.898" height="7.51231" rx="3.75615" stroke="white" stroke-width="0.302461"/>
<path d="M164.633 149.605V146.641H165.086L166.945 148.923H166.72V146.641H167.267V149.605H166.814L164.955 147.323H165.179V149.605H164.633ZM169.073 149.635C168.822 149.635 168.602 149.585 168.412 149.486C168.226 149.385 168.081 149.246 167.976 149.071C167.875 148.896 167.824 148.697 167.824 148.474C167.824 148.249 167.873 148.05 167.972 147.877C168.074 147.702 168.212 147.565 168.387 147.467C168.565 147.368 168.767 147.318 168.993 147.318C169.213 147.318 169.409 147.366 169.581 147.462C169.753 147.558 169.889 147.694 169.988 147.869C170.086 148.044 170.136 148.25 170.136 148.487C170.136 148.51 170.134 148.535 170.132 148.563C170.132 148.592 170.13 148.618 170.127 148.644H168.243V148.292H169.848L169.64 148.402C169.643 148.273 169.616 148.158 169.56 148.059C169.504 147.961 169.426 147.883 169.327 147.827C169.231 147.77 169.12 147.742 168.993 147.742C168.863 147.742 168.748 147.77 168.65 147.827C168.554 147.883 168.477 147.962 168.421 148.064C168.367 148.162 168.34 148.28 168.34 148.415V148.5C168.34 148.635 168.372 148.755 168.434 148.86C168.496 148.964 168.583 149.045 168.696 149.101C168.809 149.158 168.939 149.186 169.086 149.186C169.213 149.186 169.327 149.166 169.429 149.126C169.53 149.087 169.621 149.025 169.7 148.94L169.983 149.266C169.882 149.385 169.753 149.477 169.598 149.541C169.446 149.604 169.271 149.635 169.073 149.635ZM171.103 149.605L170.273 147.344H170.772L171.484 149.338H171.247L171.992 147.344H172.436L173.161 149.338H172.928L173.66 147.344H174.13L173.296 149.605H172.788L172.127 147.839H172.284L171.611 149.605H171.103ZM176.363 149.635C176.174 149.635 175.992 149.611 175.817 149.563C175.645 149.512 175.508 149.451 175.406 149.381L175.609 148.978C175.711 149.043 175.832 149.097 175.974 149.139C176.115 149.182 176.256 149.203 176.397 149.203C176.564 149.203 176.684 149.18 176.757 149.135C176.833 149.09 176.871 149.029 176.871 148.953C176.871 148.891 176.846 148.844 176.795 148.813C176.744 148.779 176.678 148.754 176.596 148.737C176.514 148.72 176.422 148.704 176.321 148.69C176.222 148.676 176.122 148.658 176.02 148.635C175.921 148.61 175.831 148.575 175.749 148.529C175.667 148.481 175.601 148.418 175.55 148.339C175.499 148.26 175.474 148.155 175.474 148.026C175.474 147.882 175.515 147.757 175.597 147.653C175.679 147.546 175.793 147.464 175.94 147.407C176.089 147.348 176.266 147.318 176.469 147.318C176.621 147.318 176.775 147.335 176.931 147.369C177.086 147.403 177.214 147.451 177.316 147.513L177.113 147.915C177.005 147.851 176.897 147.807 176.787 147.784C176.679 147.759 176.572 147.746 176.465 147.746C176.304 147.746 176.184 147.77 176.105 147.818C176.029 147.866 175.991 147.927 175.991 148C175.991 148.068 176.016 148.119 176.067 148.153C176.118 148.186 176.184 148.213 176.266 148.233C176.348 148.253 176.438 148.27 176.537 148.284C176.638 148.295 176.739 148.313 176.837 148.339C176.936 148.364 177.027 148.4 177.108 148.445C177.193 148.487 177.261 148.548 177.312 148.627C177.362 148.706 177.388 148.809 177.388 148.936C177.388 149.077 177.346 149.2 177.261 149.304C177.179 149.409 177.062 149.491 176.909 149.55C176.757 149.606 176.575 149.635 176.363 149.635ZM178.276 149.101L178.288 148.436L179.47 147.344H180.105L179.101 148.352L178.822 148.584L178.276 149.101ZM177.844 149.605V146.463H178.373V149.605H177.844ZM179.55 149.605L178.724 148.584L179.059 148.161L180.194 149.605H179.55ZM180.536 149.605V147.344H181.065V149.605H180.536ZM180.803 146.971C180.704 146.971 180.622 146.94 180.557 146.878C180.495 146.816 180.464 146.741 180.464 146.654C180.464 146.563 180.495 146.488 180.557 146.429C180.622 146.367 180.704 146.336 180.803 146.336C180.901 146.336 180.982 146.366 181.044 146.425C181.109 146.481 181.141 146.553 181.141 146.641C181.141 146.734 181.11 146.813 181.048 146.878C180.986 146.94 180.904 146.971 180.803 146.971ZM181.76 149.605V146.463H182.289V149.605H181.76ZM182.984 149.605V146.463H183.513V149.605H182.984Z" fill="#008A07"/>
<rect x="160.099" y="169.849" width="27.898" height="7.51231" rx="3.75615" fill="#E5F6E6"/>
<rect x="160.099" y="169.849" width="27.898" height="7.51231" rx="3.75615" stroke="white" stroke-width="0.302461"/>
<path d="M164.633 174.605V171.641H165.086L166.945 173.923H166.72V171.641H167.267V174.605H166.814L164.955 172.323H165.179V174.605H164.633ZM169.073 174.635C168.822 174.635 168.602 174.585 168.412 174.486C168.226 174.385 168.081 174.246 167.976 174.071C167.875 173.896 167.824 173.697 167.824 173.474C167.824 173.249 167.873 173.05 167.972 172.877C168.074 172.702 168.212 172.565 168.387 172.467C168.565 172.368 168.767 172.318 168.993 172.318C169.213 172.318 169.409 172.366 169.581 172.462C169.753 172.558 169.889 172.694 169.988 172.869C170.086 173.044 170.136 173.25 170.136 173.487C170.136 173.51 170.134 173.535 170.132 173.563C170.132 173.592 170.13 173.618 170.127 173.644H168.243V173.292H169.848L169.64 173.402C169.643 173.273 169.616 173.158 169.56 173.059C169.504 172.961 169.426 172.883 169.327 172.827C169.231 172.77 169.12 172.742 168.993 172.742C168.863 172.742 168.748 172.77 168.65 172.827C168.554 172.883 168.477 172.962 168.421 173.064C168.367 173.162 168.34 173.28 168.34 173.415V173.5C168.34 173.635 168.372 173.755 168.434 173.86C168.496 173.964 168.583 174.045 168.696 174.101C168.809 174.158 168.939 174.186 169.086 174.186C169.213 174.186 169.327 174.166 169.429 174.126C169.53 174.087 169.621 174.025 169.7 173.94L169.983 174.266C169.882 174.385 169.753 174.477 169.598 174.541C169.446 174.604 169.271 174.635 169.073 174.635ZM171.103 174.605L170.273 172.344H170.772L171.484 174.338H171.247L171.992 172.344H172.436L173.161 174.338H172.928L173.66 172.344H174.13L173.296 174.605H172.788L172.127 172.839H172.284L171.611 174.605H171.103ZM176.363 174.635C176.174 174.635 175.992 174.611 175.817 174.563C175.645 174.512 175.508 174.451 175.406 174.381L175.609 173.978C175.711 174.043 175.832 174.097 175.974 174.139C176.115 174.182 176.256 174.203 176.397 174.203C176.564 174.203 176.684 174.18 176.757 174.135C176.833 174.09 176.871 174.029 176.871 173.953C176.871 173.891 176.846 173.844 176.795 173.813C176.744 173.779 176.678 173.754 176.596 173.737C176.514 173.72 176.422 173.704 176.321 173.69C176.222 173.676 176.122 173.658 176.02 173.635C175.921 173.61 175.831 173.575 175.749 173.529C175.667 173.481 175.601 173.418 175.55 173.339C175.499 173.26 175.474 173.155 175.474 173.026C175.474 172.882 175.515 172.757 175.597 172.653C175.679 172.546 175.793 172.464 175.94 172.407C176.089 172.348 176.266 172.318 176.469 172.318C176.621 172.318 176.775 172.335 176.931 172.369C177.086 172.403 177.214 172.451 177.316 172.513L177.113 172.915C177.005 172.851 176.897 172.807 176.787 172.784C176.679 172.759 176.572 172.746 176.465 172.746C176.304 172.746 176.184 172.77 176.105 172.818C176.029 172.866 175.991 172.927 175.991 173C175.991 173.068 176.016 173.119 176.067 173.153C176.118 173.186 176.184 173.213 176.266 173.233C176.348 173.253 176.438 173.27 176.537 173.284C176.638 173.295 176.739 173.313 176.837 173.339C176.936 173.364 177.027 173.4 177.108 173.445C177.193 173.487 177.261 173.548 177.312 173.627C177.362 173.706 177.388 173.809 177.388 173.936C177.388 174.077 177.346 174.2 177.261 174.304C177.179 174.409 177.062 174.491 176.909 174.55C176.757 174.606 176.575 174.635 176.363 174.635ZM178.276 174.101L178.288 173.436L179.47 172.344H180.105L179.101 173.352L178.822 173.584L178.276 174.101ZM177.844 174.605V171.463H178.373V174.605H177.844ZM179.55 174.605L178.724 173.584L179.059 173.161L180.194 174.605H179.55ZM180.536 174.605V172.344H181.065V174.605H180.536ZM180.803 171.971C180.704 171.971 180.622 171.94 180.557 171.878C180.495 171.816 180.464 171.741 180.464 171.654C180.464 171.563 180.495 171.488 180.557 171.429C180.622 171.367 180.704 171.336 180.803 171.336C180.901 171.336 180.982 171.366 181.044 171.425C181.109 171.481 181.141 171.553 181.141 171.641C181.141 171.734 181.11 171.813 181.048 171.878C180.986 171.94 180.904 171.971 180.803 171.971ZM181.76 174.605V171.463H182.289V174.605H181.76ZM182.984 174.605V171.463H183.513V174.605H182.984Z" fill="#008A07"/>
<rect x="160.099" y="196.849" width="27.898" height="7.51231" rx="3.75615" fill="#FBEEE5"/>
<rect x="160.099" y="196.849" width="27.898" height="7.51231" rx="3.75615" stroke="white" stroke-width="0.302461"/>
<path d="M167.491 201.647C167.085 201.647 166.766 201.533 166.534 201.304C166.306 201.076 166.191 200.745 166.191 200.313V198.641H166.742V200.292C166.742 200.597 166.807 200.819 166.937 200.957C167.069 201.095 167.256 201.165 167.495 201.165C167.735 201.165 167.92 201.095 168.05 200.957C168.18 200.819 168.245 200.597 168.245 200.292V198.641H168.787V200.313C168.787 200.745 168.671 201.076 168.44 201.304C168.211 201.533 167.895 201.647 167.491 201.647ZM170.761 201.635C170.577 201.635 170.409 201.592 170.257 201.508C170.107 201.423 169.987 201.296 169.897 201.126C169.809 200.954 169.765 200.737 169.765 200.474C169.765 200.209 169.808 199.992 169.892 199.822C169.98 199.653 170.099 199.527 170.248 199.445C170.398 199.361 170.569 199.318 170.761 199.318C170.984 199.318 171.18 199.366 171.349 199.462C171.521 199.558 171.657 199.692 171.756 199.865C171.857 200.037 171.908 200.24 171.908 200.474C171.908 200.709 171.857 200.913 171.756 201.088C171.657 201.261 171.521 201.395 171.349 201.491C171.18 201.587 170.984 201.635 170.761 201.635ZM169.507 202.426V199.344H170.011V199.877L169.994 200.479L170.036 201.08V202.426H169.507ZM170.701 201.182C170.828 201.182 170.941 201.153 171.04 201.097C171.142 201.04 171.222 200.959 171.281 200.851C171.341 200.744 171.37 200.618 171.37 200.474C171.37 200.328 171.341 200.202 171.281 200.098C171.222 199.99 171.142 199.908 171.04 199.852C170.941 199.795 170.828 199.767 170.701 199.767C170.574 199.767 170.46 199.795 170.358 199.852C170.257 199.908 170.176 199.99 170.117 200.098C170.058 200.202 170.028 200.328 170.028 200.474C170.028 200.618 170.058 200.744 170.117 200.851C170.176 200.959 170.257 201.04 170.358 201.097C170.46 201.153 170.574 201.182 170.701 201.182ZM172.337 200.648V200.208H173.502V200.648H172.337ZM174.779 201.635C174.59 201.635 174.408 201.611 174.233 201.563C174.061 201.512 173.924 201.451 173.822 201.381L174.026 200.978C174.127 201.043 174.249 201.097 174.39 201.139C174.531 201.182 174.672 201.203 174.813 201.203C174.98 201.203 175.1 201.18 175.173 201.135C175.249 201.09 175.288 201.029 175.288 200.953C175.288 200.891 175.262 200.844 175.211 200.813C175.16 200.779 175.094 200.754 175.012 200.737C174.93 200.72 174.839 200.704 174.737 200.69C174.638 200.676 174.538 200.658 174.436 200.635C174.338 200.61 174.247 200.575 174.165 200.529C174.084 200.481 174.017 200.418 173.966 200.339C173.916 200.26 173.89 200.155 173.89 200.026C173.89 199.882 173.931 199.757 174.013 199.653C174.095 199.546 174.209 199.464 174.356 199.407C174.506 199.348 174.682 199.318 174.885 199.318C175.038 199.318 175.192 199.335 175.347 199.369C175.502 199.403 175.63 199.451 175.732 199.513L175.529 199.915C175.422 199.851 175.313 199.807 175.203 199.784C175.096 199.759 174.988 199.746 174.881 199.746C174.72 199.746 174.6 199.77 174.521 199.818C174.445 199.866 174.407 199.927 174.407 200C174.407 200.068 174.432 200.119 174.483 200.153C174.534 200.186 174.6 200.213 174.682 200.233C174.764 200.253 174.854 200.27 174.953 200.284C175.055 200.295 175.155 200.313 175.254 200.339C175.352 200.364 175.443 200.4 175.525 200.445C175.609 200.487 175.677 200.548 175.728 200.627C175.779 200.706 175.804 200.809 175.804 200.936C175.804 201.077 175.762 201.2 175.677 201.304C175.595 201.409 175.478 201.491 175.326 201.55C175.173 201.606 174.991 201.635 174.779 201.635ZM176.692 201.101L176.705 200.436L177.886 199.344H178.521L177.518 200.352L177.238 200.584L176.692 201.101ZM176.26 201.605V198.463H176.789V201.605H176.26ZM177.966 201.605L177.141 200.584L177.475 200.161L178.61 201.605H177.966ZM178.952 201.605V199.344H179.481V201.605H178.952ZM179.219 198.971C179.12 198.971 179.038 198.94 178.973 198.878C178.911 198.816 178.88 198.741 178.88 198.654C178.88 198.563 178.911 198.488 178.973 198.429C179.038 198.367 179.12 198.336 179.219 198.336C179.318 198.336 179.398 198.366 179.46 198.425C179.525 198.481 179.557 198.553 179.557 198.641C179.557 198.734 179.526 198.813 179.464 198.878C179.402 198.94 179.32 198.971 179.219 198.971ZM180.176 201.605V198.463H180.705V201.605H180.176ZM181.4 201.605V198.463H181.929V201.605H181.4Z" fill="#C95000"/>
<defs>
<filter id="filter0_d_2376_18348" x="39.2427" y="28.3285" width="189.015" height="241.015" filterUnits="userSpaceOnUse" color-interpolation-filters="sRGB">
<feFlood flood-opacity="0" result="BackgroundImageFix"/>
<feColorMatrix in="SourceAlpha" type="matrix" values="0 0 0 0 0 0 0 0 0 0 0 0 0 0 0 0 0 0 127 0" result="hardAlpha"/>
<feOffset dy="2.33577"/>
<feGaussianBlur stdDeviation="3.50366"/>
<feColorMatrix type="matrix" values="0 0 0 0 0 0 0 0 0 0 0 0 0 0 0 0 0 0 0.15 0"/>
<feBlend mode="normal" in2="BackgroundImageFix" result="effect1_dropShadow_2376_18348"/>
<feBlend mode="normal" in="SourceGraphic" in2="effect1_dropShadow_2376_18348" result="shape"/>
</filter>
<filter id="filter1_d_2376_18348" x="46.5869" y="33" width="175.137" height="26.7383" filterUnits="userSpaceOnUse" color-interpolation-filters="sRGB">
<feFlood flood-opacity="0" result="BackgroundImageFix"/>
<feColorMatrix in="SourceAlpha" type="matrix" values="0 0 0 0 0 0 0 0 0 0 0 0 0 0 0 0 0 0 127 0" result="hardAlpha"/>
<feOffset dy="0.668462"/>
<feColorMatrix type="matrix" values="0 0 0 0 0.952941 0 0 0 0 0.956863 0 0 0 0 0.956863 0 0 0 1 0"/>
<feBlend mode="normal" in2="BackgroundImageFix" result="effect1_dropShadow_2376_18348"/>
<feBlend mode="normal" in="SourceGraphic" in2="effect1_dropShadow_2376_18348" result="shape"/>
</filter>
<filter id="filter2_d_2376_18348" x="52.5046" y="78.1671" width="160.628" height="41.6413" filterUnits="userSpaceOnUse" color-interpolation-filters="sRGB">
<feFlood flood-opacity="0" result="BackgroundImageFix"/>
<feColorMatrix in="SourceAlpha" type="matrix" values="0 0 0 0 0 0 0 0 0 0 0 0 0 0 0 0 0 0 127 0" result="hardAlpha"/>
<feOffset dy="1.81539"/>
<feGaussianBlur stdDeviation="2.72308"/>
<feColorMatrix type="matrix" values="0 0 0 0 0 0 0 0 0 0 0 0 0 0 0 0 0 0 0.15 0"/>
<feBlend mode="normal" in2="BackgroundImageFix" result="effect1_dropShadow_2376_18348"/>
<feBlend mode="normal" in="SourceGraphic" in2="effect1_dropShadow_2376_18348" result="shape"/>
</filter>
<filter id="filter3_d_2376_18348" x="83.3457" y="162.985" width="86.5761" height="25.3916" filterUnits="userSpaceOnUse" color-interpolation-filters="sRGB">
<feFlood flood-opacity="0" result="BackgroundImageFix"/>
<feColorMatrix in="SourceAlpha" type="matrix" values="0 0 0 0 0 0 0 0 0 0 0 0 0 0 0 0 0 0 127 0" result="hardAlpha"/>
<feOffset dy="0.968091"/>
<feGaussianBlur stdDeviation="1.45214"/>
<feColorMatrix type="matrix" values="0 0 0 0 0 0 0 0 0 0 0 0 0 0 0 0 0 0 0.15 0"/>
<feBlend mode="normal" in2="BackgroundImageFix" result="effect1_dropShadow_2376_18348"/>
<feBlend mode="normal" in="SourceGraphic" in2="effect1_dropShadow_2376_18348" result="shape"/>
</filter>
<filter id="filter4_d_2376_18348" x="83.3457" y="189.064" width="86.5761" height="25.3916" filterUnits="userSpaceOnUse" color-interpolation-filters="sRGB">
<feFlood flood-opacity="0" result="BackgroundImageFix"/>
<feColorMatrix in="SourceAlpha" type="matrix" values="0 0 0 0 0 0 0 0 0 0 0 0 0 0 0 0 0 0 127 0" result="hardAlpha"/>
<feOffset dy="0.968091"/>
<feGaussianBlur stdDeviation="1.45214"/>
<feColorMatrix type="matrix" values="0 0 0 0 0 0 0 0 0 0 0 0 0 0 0 0 0 0 0.15 0"/>
<feBlend mode="normal" in2="BackgroundImageFix" result="effect1_dropShadow_2376_18348"/>
<feBlend mode="normal" in="SourceGraphic" in2="effect1_dropShadow_2376_18348" result="shape"/>
</filter>
<filter id="filter5_d_2376_18348" x="83.3457" y="137.064" width="86.5761" height="25.3916" filterUnits="userSpaceOnUse" color-interpolation-filters="sRGB">
<feFlood flood-opacity="0" result="BackgroundImageFix"/>
<feColorMatrix in="SourceAlpha" type="matrix" values="0 0 0 0 0 0 0 0 0 0 0 0 0 0 0 0 0 0 127 0" result="hardAlpha"/>
<feOffset dy="0.968091"/>
<feGaussianBlur stdDeviation="1.45214"/>
<feColorMatrix type="matrix" values="0 0 0 0 0 0 0 0 0 0 0 0 0 0 0 0 0 0 0.15 0"/>
<feBlend mode="normal" in2="BackgroundImageFix" result="effect1_dropShadow_2376_18348"/>
<feBlend mode="normal" in="SourceGraphic" in2="effect1_dropShadow_2376_18348" result="shape"/>
</filter>
<clipPath id="clip0_2376_18348">
<rect width="7.35308" height="7.35308" fill="white" transform="translate(71.9884 93.8296)"/>
</clipPath>
</defs>
</svg>
