<svg width="421" height="421" viewBox="0 0 421 421" fill="none" xmlns="http://www.w3.org/2000/svg">
<circle cx="211.584" cy="210.08" r="197.5" fill="#FAFAFA"/>
<g filter="url(#filter0_d_2744_13690)">
<rect x="46.8994" y="39.3181" width="318.431" height="353.677" rx="2.12343" fill="white"/>
</g>
<path d="M78.295 148.472V139.867H74.9114V138.262H83.5746V139.867H80.191V148.472H78.295ZM89.2078 148.472V146.897L89.1057 146.561V143.805C89.1057 143.27 88.9453 142.857 88.6244 142.565C88.3036 142.263 87.8174 142.113 87.166 142.113C86.7284 142.113 86.2958 142.181 85.8679 142.317C85.4499 142.453 85.095 142.643 84.8033 142.886L84.0886 141.559C84.5067 141.238 85.0026 140.999 85.5763 140.844C86.1596 140.679 86.7625 140.596 87.3847 140.596C88.5126 140.596 89.3828 140.868 89.9954 141.413C90.6177 141.947 90.9288 142.779 90.9288 143.907V148.472H89.2078ZM86.7576 148.574C86.1742 148.574 85.6638 148.477 85.2262 148.282C84.7887 148.078 84.4484 147.801 84.2053 147.451C83.9719 147.091 83.8553 146.687 83.8553 146.24C83.8553 145.803 83.9574 145.409 84.1615 145.059C84.3755 144.709 84.7206 144.432 85.1971 144.228C85.6735 144.023 86.3055 143.921 87.0931 143.921H89.3537V145.132H87.2243C86.602 145.132 86.1839 145.234 85.97 145.438C85.7561 145.633 85.6492 145.876 85.6492 146.167C85.6492 146.498 85.7804 146.76 86.043 146.955C86.3055 147.149 86.6701 147.247 87.1368 147.247C87.5841 147.247 87.9827 147.144 88.3327 146.94C88.6925 146.736 88.9502 146.435 89.1057 146.036L89.412 147.13C89.237 147.587 88.921 147.942 88.464 148.195C88.0167 148.447 87.4479 148.574 86.7576 148.574ZM93.2685 148.472V140.683H95.0041V142.827L94.7999 142.2C95.0332 141.675 95.3979 141.277 95.8937 141.004C96.3993 140.732 97.0265 140.596 97.7751 140.596V142.332C97.6974 142.312 97.6244 142.302 97.5564 142.302C97.4883 142.293 97.4203 142.288 97.3522 142.288C96.6619 142.288 96.1125 142.492 95.7041 142.9C95.2958 143.299 95.0916 143.897 95.0916 144.694V148.472H93.2685ZM102.78 151.403C102.06 151.403 101.356 151.306 100.665 151.111C99.9846 150.927 99.4255 150.655 98.9879 150.295L99.8047 148.924C100.145 149.206 100.573 149.429 101.088 149.595C101.613 149.77 102.143 149.857 102.678 149.857C103.533 149.857 104.161 149.658 104.559 149.259C104.958 148.87 105.157 148.282 105.157 147.495V146.109L105.303 144.344L105.245 142.579V140.683H106.98V147.29C106.98 148.7 106.621 149.736 105.901 150.397C105.182 151.068 104.141 151.403 102.78 151.403ZM102.547 148.122C101.808 148.122 101.137 147.966 100.534 147.655C99.9408 147.334 99.4692 146.892 99.1192 146.328C98.7789 145.764 98.6087 145.103 98.6087 144.344C98.6087 143.596 98.7789 142.939 99.1192 142.375C99.4692 141.811 99.9408 141.374 100.534 141.063C101.137 140.752 101.808 140.596 102.547 140.596C103.208 140.596 103.801 140.727 104.326 140.99C104.851 141.252 105.269 141.661 105.58 142.215C105.901 142.769 106.061 143.479 106.061 144.344C106.061 145.21 105.901 145.924 105.58 146.488C105.269 147.042 104.851 147.456 104.326 147.728C103.801 147.99 103.208 148.122 102.547 148.122ZM102.824 146.576C103.281 146.576 103.689 146.483 104.049 146.299C104.409 146.104 104.686 145.842 104.88 145.511C105.084 145.171 105.186 144.782 105.186 144.344C105.186 143.907 105.084 143.523 104.88 143.192C104.686 142.852 104.409 142.594 104.049 142.419C103.689 142.234 103.281 142.142 102.824 142.142C102.367 142.142 101.953 142.234 101.584 142.419C101.224 142.594 100.942 142.852 100.738 143.192C100.544 143.523 100.446 143.907 100.446 144.344C100.446 144.782 100.544 145.171 100.738 145.511C100.942 145.842 101.224 146.104 101.584 146.299C101.953 146.483 102.367 146.576 102.824 146.576ZM113.038 148.574C112.172 148.574 111.414 148.404 110.763 148.063C110.121 147.713 109.62 147.237 109.26 146.634C108.91 146.031 108.735 145.346 108.735 144.578C108.735 143.8 108.906 143.114 109.246 142.521C109.596 141.918 110.072 141.447 110.675 141.106C111.288 140.766 111.983 140.596 112.761 140.596C113.519 140.596 114.195 140.761 114.788 141.092C115.381 141.422 115.848 141.889 116.188 142.492C116.528 143.095 116.699 143.805 116.699 144.621C116.699 144.699 116.694 144.787 116.684 144.884C116.684 144.981 116.679 145.073 116.669 145.161H110.179V143.95H115.707L114.992 144.33C115.002 143.882 114.91 143.489 114.715 143.148C114.521 142.808 114.253 142.541 113.913 142.346C113.582 142.152 113.198 142.054 112.761 142.054C112.313 142.054 111.92 142.152 111.579 142.346C111.249 142.541 110.986 142.813 110.792 143.163C110.607 143.503 110.515 143.907 110.515 144.373V144.665C110.515 145.132 110.622 145.545 110.836 145.905C111.049 146.265 111.351 146.542 111.74 146.736C112.129 146.931 112.576 147.028 113.082 147.028C113.519 147.028 113.913 146.96 114.263 146.824C114.613 146.687 114.924 146.474 115.196 146.182L116.174 147.305C115.823 147.713 115.381 148.029 114.846 148.253C114.321 148.467 113.718 148.574 113.038 148.574ZM121.381 148.574C120.526 148.574 119.864 148.355 119.398 147.917C118.931 147.47 118.698 146.814 118.698 145.949V138.963H120.521V145.905C120.521 146.274 120.613 146.561 120.798 146.765C120.992 146.969 121.26 147.072 121.6 147.072C122.008 147.072 122.349 146.965 122.621 146.751L123.131 148.049C122.918 148.224 122.655 148.355 122.344 148.443C122.033 148.53 121.712 148.574 121.381 148.574ZM117.414 142.2V140.742H122.606V142.2H117.414ZM128.662 148.472V140.683H130.397V142.827L130.193 142.2C130.427 141.675 130.791 141.277 131.287 141.004C131.793 140.732 132.42 140.596 133.168 140.596V142.332C133.091 142.312 133.018 142.302 132.95 142.302C132.882 142.293 132.814 142.288 132.746 142.288C132.055 142.288 131.506 142.492 131.097 142.9C130.689 143.299 130.485 143.897 130.485 144.694V148.472H128.662ZM138.144 148.574C137.347 148.574 136.637 148.404 136.015 148.063C135.392 147.713 134.901 147.237 134.542 146.634C134.182 146.031 134.002 145.346 134.002 144.578C134.002 143.8 134.182 143.114 134.542 142.521C134.901 141.918 135.392 141.447 136.015 141.106C136.637 140.766 137.347 140.596 138.144 140.596C138.951 140.596 139.666 140.766 140.288 141.106C140.92 141.447 141.411 141.913 141.761 142.507C142.121 143.1 142.301 143.79 142.301 144.578C142.301 145.346 142.121 146.031 141.761 146.634C141.411 147.237 140.92 147.713 140.288 148.063C139.666 148.404 138.951 148.574 138.144 148.574ZM138.144 147.013C138.591 147.013 138.99 146.916 139.34 146.722C139.69 146.527 139.962 146.245 140.157 145.876C140.361 145.506 140.463 145.073 140.463 144.578C140.463 144.072 140.361 143.639 140.157 143.28C139.962 142.91 139.69 142.628 139.34 142.434C138.99 142.239 138.596 142.142 138.159 142.142C137.711 142.142 137.313 142.239 136.963 142.434C136.622 142.628 136.35 142.91 136.146 143.28C135.942 143.639 135.84 144.072 135.84 144.578C135.84 145.073 135.942 145.506 136.146 145.876C136.35 146.245 136.622 146.527 136.963 146.722C137.313 146.916 137.707 147.013 138.144 147.013ZM144.044 148.472V137.65H145.867V148.472H144.044ZM151.921 148.574C151.055 148.574 150.297 148.404 149.645 148.063C149.004 147.713 148.503 147.237 148.143 146.634C147.793 146.031 147.618 145.346 147.618 144.578C147.618 143.8 147.788 143.114 148.129 142.521C148.479 141.918 148.955 141.447 149.558 141.106C150.17 140.766 150.866 140.596 151.644 140.596C152.402 140.596 153.078 140.761 153.671 141.092C154.264 141.422 154.731 141.889 155.071 142.492C155.411 143.095 155.581 143.805 155.581 144.621C155.581 144.699 155.577 144.787 155.567 144.884C155.567 144.981 155.562 145.073 155.552 145.161H149.062V143.95H154.59L153.875 144.33C153.885 143.882 153.792 143.489 153.598 143.148C153.403 142.808 153.136 142.541 152.796 142.346C152.465 142.152 152.081 142.054 151.644 142.054C151.196 142.054 150.802 142.152 150.462 142.346C150.132 142.541 149.869 142.813 149.675 143.163C149.49 143.503 149.398 143.907 149.398 144.373V144.665C149.398 145.132 149.504 145.545 149.718 145.905C149.932 146.265 150.234 146.542 150.623 146.736C151.012 146.931 151.459 147.028 151.964 147.028C152.402 147.028 152.796 146.96 153.146 146.824C153.496 146.687 153.807 146.474 154.079 146.182L155.056 147.305C154.706 147.713 154.264 148.029 153.729 148.253C153.204 148.467 152.601 148.574 151.921 148.574Z" fill="#6D7079"/>
<g filter="url(#filter1_d_2744_13690)">
<path d="M46.8994 45.073C46.8994 41.8947 49.476 39.3181 52.6543 39.3181H359.575C362.754 39.3181 365.33 41.8947 365.33 45.073V86.0107L206.115 86.7181L46.8994 86.0107V45.073Z" fill="#FAFAFA"/>
</g>
<path d="M329.007 65.4491C329.007 64.4422 329.824 63.626 330.83 63.626H342.924C343.931 63.626 344.747 64.4422 344.747 65.4491C344.747 66.4559 343.931 67.2721 342.924 67.2721H330.83C329.824 67.2721 329.007 66.4559 329.007 65.4491Z" fill="#E4E4E6"/>
<path d="M73.6498 58.574L70.0255 64.6631V69.1187H68.2535V64.6558L64.6219 58.574H66.5471L69.1504 63.1098L71.71 58.574H73.6498ZM76.7504 69.2645C76.0309 69.2645 75.4037 69.1114 74.8689 68.8051C74.3342 68.4939 73.9185 68.0491 73.622 67.4706C73.3303 66.8921 73.1844 66.1969 73.1844 65.385C73.1844 64.5974 73.3254 63.9071 73.6074 63.314C73.8942 62.7209 74.305 62.259 74.8398 61.9284C75.3745 61.5979 76.0138 61.4326 76.7577 61.4326C77.4772 61.4326 78.1019 61.5906 78.6318 61.9066C79.1617 62.2226 79.5701 62.6747 79.8569 63.2629C80.1486 63.8512 80.2944 64.5585 80.2944 65.385C80.2944 66.1483 80.1559 66.8216 79.8788 67.405C79.6065 67.9835 79.2054 68.438 78.6755 68.7686C78.1505 69.0992 77.5088 69.2645 76.7504 69.2645ZM76.7577 67.9154C77.166 67.9154 77.5015 67.8036 77.764 67.58C78.0314 67.3563 78.2283 67.0501 78.3547 66.6611C78.4859 66.2722 78.5516 65.8298 78.5516 65.3339C78.5516 64.8721 78.4932 64.4467 78.3765 64.0578C78.2647 63.6689 78.0751 63.3577 77.8077 63.1244C77.5452 62.8862 77.1952 62.7671 76.7577 62.7671C76.3444 62.7671 76.0017 62.8764 75.7294 63.0952C75.4621 63.3091 75.2603 63.6105 75.1242 63.9995C74.9929 64.3835 74.9273 64.8283 74.9273 65.3339C74.9273 65.7909 74.9856 66.2163 75.1023 66.6101C75.2238 66.999 75.4183 67.315 75.6857 67.5581C75.9531 67.7963 76.3104 67.9154 76.7577 67.9154ZM84.5399 69.2645C84.1704 69.2645 83.8131 69.211 83.4679 69.1041C83.1276 68.9923 82.8214 68.8318 82.5491 68.6228C82.2769 68.4089 82.0605 68.1463 81.9001 67.8352C81.7397 67.5241 81.6595 67.1619 81.6595 66.7487V61.5784H83.4388V66.5445C83.4388 66.9528 83.5676 67.2883 83.8253 67.5508C84.0878 67.8133 84.4816 67.9446 85.0066 67.9446C85.4831 67.9446 85.8647 67.8206 86.1515 67.5727C86.4383 67.3199 86.5818 66.9577 86.5818 66.4861V61.5784H88.3465V69.1187H86.9828L86.7859 67.6456C86.6936 68.0588 86.5307 68.3846 86.2974 68.6228C86.0689 68.8561 85.7991 69.0214 85.4879 69.1187C85.1816 69.2159 84.8656 69.2645 84.5399 69.2645ZM90.3145 69.1187V61.5784H92.0136V63.2119C92.1352 62.8375 92.3077 62.5191 92.5314 62.2566C92.7599 61.9892 93.0273 61.785 93.3335 61.644C93.6398 61.5031 93.9728 61.4326 94.3326 61.4326C94.4201 61.4326 94.5052 61.4374 94.5878 61.4471C94.6705 61.4569 94.7312 61.4739 94.7701 61.4982V63.1973C94.7166 63.173 94.6461 63.156 94.5586 63.1463C94.476 63.1365 94.4031 63.1317 94.3399 63.1317C93.9753 63.1025 93.652 63.1171 93.37 63.1754C93.0929 63.2338 92.8571 63.3334 92.6626 63.4744C92.473 63.6105 92.3296 63.7855 92.2324 63.9995C92.1352 64.2085 92.0865 64.454 92.0865 64.736V69.1187H90.3145ZM99.3444 71.4668V61.5784H101.116L101.131 62.7671C101.228 62.6018 101.352 62.4389 101.503 62.2785C101.659 62.118 101.836 61.9746 102.035 61.8482C102.239 61.7218 102.466 61.6222 102.713 61.5492C102.961 61.4715 103.234 61.4326 103.53 61.4326C104.109 61.4326 104.622 61.5711 105.069 61.8482C105.516 62.1205 105.866 62.541 106.119 63.1098C106.377 63.6786 106.505 64.3981 106.505 65.2683C106.505 66.158 106.374 66.8994 106.112 67.4925C105.849 68.0856 105.482 68.5304 105.011 68.827C104.539 69.1187 103.992 69.2645 103.37 69.2645C103.083 69.2645 102.82 69.2256 102.582 69.1478C102.349 69.07 102.14 68.9631 101.955 68.827C101.77 68.6908 101.607 68.5426 101.467 68.3821C101.33 68.2217 101.216 68.054 101.124 67.879V71.4668H99.3444ZM102.976 67.9373C103.511 67.9373 103.953 67.7258 104.303 67.3029C104.653 66.8751 104.828 66.2066 104.828 65.2975C104.828 64.5099 104.663 63.8901 104.332 63.4379C104.007 62.981 103.555 62.7525 102.976 62.7525C102.354 62.7525 101.887 62.9931 101.576 63.4744C101.265 63.9508 101.109 64.5585 101.109 65.2975C101.109 65.7739 101.177 66.2139 101.313 66.6174C101.454 67.016 101.661 67.3369 101.933 67.58C102.21 67.8182 102.558 67.9373 102.976 67.9373ZM109.468 65.7569C109.463 66.1847 109.531 66.5639 109.672 66.8945C109.813 67.2251 110.022 67.4852 110.299 67.6748C110.577 67.8595 110.919 67.9519 111.328 67.9519C111.746 67.9519 112.108 67.8595 112.414 67.6748C112.725 67.4852 112.932 67.1983 113.034 66.8143H114.66C114.573 67.3393 114.364 67.7842 114.033 68.1488C113.703 68.5134 113.301 68.7905 112.83 68.9801C112.363 69.1697 111.877 69.2645 111.371 69.2645C110.642 69.2645 110 69.1114 109.446 68.8051C108.897 68.4939 108.467 68.0515 108.155 67.4779C107.849 66.9042 107.696 66.2212 107.696 65.4287C107.696 64.6558 107.837 63.9703 108.119 63.3723C108.401 62.7695 108.807 62.2955 109.337 61.9503C109.872 61.6051 110.513 61.4326 111.262 61.4326C112.006 61.4326 112.631 61.5906 113.136 61.9066C113.647 62.2226 114.031 62.665 114.288 63.2338C114.551 63.7977 114.682 64.4589 114.682 65.2173V65.7569H109.468ZM109.468 64.6558H113.005C113.005 64.2911 112.942 63.963 112.815 63.6713C112.689 63.3747 112.494 63.1414 112.232 62.9712C111.974 62.7962 111.649 62.7087 111.255 62.7087C110.866 62.7087 110.538 62.8035 110.27 62.9931C110.003 63.1827 109.801 63.4282 109.665 63.7296C109.529 64.0262 109.463 64.3349 109.468 64.6558ZM116.336 69.1187V61.5784H118.035V63.2119C118.157 62.8375 118.329 62.5191 118.553 62.2566C118.781 61.9892 119.049 61.785 119.355 61.644C119.661 61.5031 119.994 61.4326 120.354 61.4326C120.442 61.4326 120.527 61.4374 120.609 61.4471C120.692 61.4569 120.753 61.4739 120.792 61.4982V63.1973C120.738 63.173 120.668 63.156 120.58 63.1463C120.498 63.1365 120.425 63.1317 120.361 63.1317C119.997 63.1025 119.674 63.1171 119.392 63.1754C119.114 63.2338 118.879 63.3334 118.684 63.4744C118.495 63.6105 118.351 63.7855 118.254 63.9995C118.157 64.2085 118.108 64.454 118.108 64.736V69.1187H116.336ZM124.955 69.2645C124.43 69.2645 123.932 69.1819 123.46 69.0166C122.994 68.8464 122.6 68.5815 122.279 68.2217C121.963 67.8619 121.764 67.3977 121.681 66.8289H123.242C123.31 67.106 123.429 67.332 123.599 67.5071C123.774 67.6821 123.981 67.8109 124.219 67.8935C124.457 67.9713 124.7 68.0102 124.948 68.0102C125.4 68.0102 125.765 67.9324 126.042 67.7769C126.324 67.6213 126.465 67.3807 126.465 67.0549C126.465 66.8167 126.387 66.6271 126.232 66.4861C126.076 66.3451 125.828 66.2382 125.488 66.1653L124.051 65.8371C123.414 65.6961 122.901 65.4628 122.512 65.1371C122.128 64.8113 121.934 64.3519 121.929 63.7588C121.924 63.3115 122.036 62.9129 122.265 62.5629C122.493 62.2128 122.833 61.9382 123.285 61.7388C123.738 61.5347 124.297 61.4326 124.963 61.4326C125.843 61.4326 126.548 61.6295 127.077 62.0232C127.607 62.4122 127.88 62.9688 127.894 63.6932H126.385C126.331 63.3675 126.178 63.1147 125.925 62.9348C125.672 62.75 125.344 62.6577 124.941 62.6577C124.523 62.6577 124.18 62.7379 123.913 62.8983C123.645 63.0587 123.511 63.3043 123.511 63.6348C123.511 63.8633 123.614 64.0432 123.818 64.1745C124.022 64.3057 124.328 64.4175 124.737 64.5099L126.093 64.8381C126.482 64.9353 126.8 65.0666 127.048 65.2319C127.296 65.3971 127.491 65.5795 127.632 65.7788C127.773 65.9732 127.87 66.175 127.923 66.384C127.982 66.5882 128.011 66.7778 128.011 66.9528C128.011 67.439 127.884 67.8547 127.632 68.1998C127.384 68.5401 127.031 68.8027 126.574 68.9874C126.117 69.1721 125.578 69.2645 124.955 69.2645ZM132.81 69.2645C132.09 69.2645 131.463 69.1114 130.929 68.8051C130.394 68.4939 129.978 68.0491 129.682 67.4706C129.39 66.8921 129.244 66.1969 129.244 65.385C129.244 64.5974 129.385 63.9071 129.667 63.314C129.954 62.7209 130.365 62.259 130.899 61.9284C131.434 61.5979 132.073 61.4326 132.817 61.4326C133.537 61.4326 134.161 61.5906 134.691 61.9066C135.221 62.2226 135.63 62.6747 135.917 63.2629C136.208 63.8512 136.354 64.5585 136.354 65.385C136.354 66.1483 136.215 66.8216 135.938 67.405C135.666 67.9835 135.265 68.438 134.735 68.7686C134.21 69.0992 133.568 69.2645 132.81 69.2645ZM132.817 67.9154C133.226 67.9154 133.561 67.8036 133.824 67.58C134.091 67.3563 134.288 67.0501 134.414 66.6611C134.546 66.2722 134.611 65.8298 134.611 65.3339C134.611 64.8721 134.553 64.4467 134.436 64.0578C134.324 63.6689 134.135 63.3577 133.867 63.1244C133.605 62.8862 133.255 62.7671 132.817 62.7671C132.404 62.7671 132.061 62.8764 131.789 63.0952C131.522 63.3091 131.32 63.6105 131.184 63.9995C131.053 64.3835 130.987 64.8283 130.987 65.3339C130.987 65.7909 131.045 66.2163 131.162 66.6101C131.283 66.999 131.478 67.315 131.745 67.5581C132.013 67.7963 132.37 67.9154 132.817 67.9154ZM137.928 69.1187V61.5784H139.664V62.6577C139.78 62.4632 139.938 62.276 140.138 62.0962C140.342 61.9163 140.592 61.7704 140.889 61.6586C141.185 61.5468 141.533 61.4909 141.932 61.4909C142.398 61.4909 142.831 61.5833 143.23 61.768C143.633 61.9527 143.956 62.242 144.2 62.6358C144.447 63.0296 144.571 63.5376 144.571 64.1599V69.1187H142.792V64.3714C142.792 63.8755 142.656 63.5084 142.384 63.2702C142.112 63.0271 141.769 62.9056 141.356 62.9056C141.074 62.9056 140.806 62.9542 140.553 63.0515C140.301 63.1438 140.094 63.2872 139.934 63.4817C139.778 63.6713 139.7 63.9095 139.7 64.1963V69.1187H137.928ZM148.568 69.2645C148.086 69.2645 147.654 69.177 147.27 69.002C146.891 68.8221 146.592 68.5669 146.373 68.2363C146.159 67.9008 146.052 67.4949 146.052 67.0185C146.052 66.1871 146.351 65.56 146.949 65.1371C147.552 64.7141 148.512 64.4929 149.829 64.4735L150.952 64.4443V63.9338C150.952 63.5352 150.833 63.224 150.595 63.0004C150.362 62.7719 149.997 62.6601 149.501 62.665C149.137 62.6698 148.801 62.7573 148.495 62.9275C148.193 63.0928 147.994 63.3723 147.897 63.7661H146.387C146.417 63.2508 146.565 62.8205 146.832 62.4754C147.104 62.1253 147.476 61.8652 147.948 61.6951C148.419 61.5201 148.964 61.4326 149.581 61.4326C150.301 61.4326 150.887 61.5274 151.339 61.717C151.791 61.9066 152.124 62.1812 152.338 62.541C152.552 62.8959 152.659 63.3261 152.659 63.8317V69.1187H151.164L151.025 67.7623C150.753 68.3311 150.408 68.7249 149.99 68.9436C149.577 69.1575 149.103 69.2645 148.568 69.2645ZM149.144 68.0613C149.363 68.0613 149.579 68.0224 149.793 67.9446C150.007 67.8619 150.201 67.7526 150.376 67.6164C150.551 67.4755 150.69 67.3199 150.792 67.1497C150.899 66.9796 150.952 66.8021 150.952 66.6174V65.4287L150.026 65.4433C149.569 65.4482 149.171 65.4968 148.83 65.5892C148.49 65.6815 148.223 65.8298 148.028 66.034C147.839 66.2333 147.744 66.5007 147.744 66.8362C147.744 67.2202 147.877 67.5216 148.145 67.7404C148.412 67.9543 148.745 68.0613 149.144 68.0613ZM156.908 69.228C156.422 69.228 156.033 69.1673 155.741 69.0457C155.449 68.9242 155.231 68.7613 155.085 68.5571C154.939 68.353 154.844 68.1245 154.8 67.8717C154.757 67.614 154.735 67.3515 154.735 67.0841V58.2823H156.47V66.8799C156.47 67.2056 156.536 67.4584 156.667 67.6383C156.803 67.8182 157.022 67.9227 157.323 67.9519L157.703 67.9665V69.0822C157.571 69.1211 157.438 69.1551 157.302 69.1843C157.165 69.2135 157.034 69.228 156.908 69.228ZM161.08 61.5784V69.1187H159.374V61.5784H161.08ZM161.102 58.5813V60.2585H159.344V58.5813H161.102ZM166.06 69.2645C165.535 69.2645 165.037 69.1819 164.565 69.0166C164.098 68.8464 163.705 68.5815 163.384 68.2217C163.068 67.8619 162.868 67.3977 162.786 66.8289H164.346C164.414 67.106 164.534 67.332 164.704 67.5071C164.879 67.6821 165.085 67.8109 165.324 67.8935C165.562 67.9713 165.805 68.0102 166.053 68.0102C166.505 68.0102 166.87 67.9324 167.147 67.7769C167.429 67.6213 167.57 67.3807 167.57 67.0549C167.57 66.8167 167.492 66.6271 167.336 66.4861C167.181 66.3451 166.933 66.2382 166.592 66.1653L165.156 65.8371C164.519 65.6961 164.006 65.4628 163.617 65.1371C163.233 64.8113 163.039 64.3519 163.034 63.7588C163.029 63.3115 163.141 62.9129 163.369 62.5629C163.598 62.2128 163.938 61.9382 164.39 61.7388C164.842 61.5347 165.401 61.4326 166.067 61.4326C166.947 61.4326 167.652 61.6295 168.182 62.0232C168.712 62.4122 168.984 62.9688 168.999 63.6932H167.489C167.436 63.3675 167.283 63.1147 167.03 62.9348C166.777 62.75 166.449 62.6577 166.045 62.6577C165.627 62.6577 165.285 62.7379 165.017 62.8983C164.75 63.0587 164.616 63.3043 164.616 63.6348C164.616 63.8633 164.718 64.0432 164.922 64.1745C165.127 64.3057 165.433 64.4175 165.841 64.5099L167.198 64.8381C167.587 64.9353 167.905 65.0666 168.153 65.2319C168.401 65.3971 168.595 65.5795 168.736 65.7788C168.877 65.9732 168.975 66.175 169.028 66.384C169.086 66.5882 169.116 66.7778 169.116 66.9528C169.116 67.439 168.989 67.8547 168.736 68.1998C168.488 68.5401 168.136 68.8027 167.679 68.9874C167.222 69.1721 166.682 69.2645 166.06 69.2645ZM172.179 65.7569C172.174 66.1847 172.242 66.5639 172.383 66.8945C172.524 67.2251 172.733 67.4852 173.01 67.6748C173.288 67.8595 173.63 67.9519 174.039 67.9519C174.457 67.9519 174.819 67.8595 175.125 67.6748C175.436 67.4852 175.643 67.1983 175.745 66.8143H177.371C177.284 67.3393 177.075 67.7842 176.744 68.1488C176.413 68.5134 176.012 68.7905 175.541 68.9801C175.074 69.1697 174.588 69.2645 174.082 69.2645C173.353 69.2645 172.711 69.1114 172.157 68.8051C171.608 68.4939 171.178 68.0515 170.866 67.4779C170.56 66.9042 170.407 66.2212 170.407 65.4287C170.407 64.6558 170.548 63.9703 170.83 63.3723C171.112 62.7695 171.518 62.2955 172.048 61.9503C172.583 61.6051 173.224 61.4326 173.973 61.4326C174.717 61.4326 175.342 61.5906 175.847 61.9066C176.358 62.2226 176.742 62.665 176.999 63.2338C177.262 63.7977 177.393 64.4589 177.393 65.2173V65.7569H172.179ZM172.179 64.6558H175.716C175.716 64.2911 175.653 63.963 175.526 63.6713C175.4 63.3747 175.205 63.1414 174.943 62.9712C174.685 62.7962 174.359 62.7087 173.966 62.7087C173.577 62.7087 173.249 62.8035 172.981 62.9931C172.714 63.1827 172.512 63.4282 172.376 63.7296C172.24 64.0262 172.174 64.3349 172.179 64.6558ZM181.811 69.2645C180.814 69.2645 180.032 68.9218 179.463 68.2363C178.894 67.5508 178.61 66.5761 178.61 65.3121C178.61 64.5245 178.724 63.8415 178.952 63.2629C179.186 62.6795 179.526 62.2299 179.973 61.9139C180.425 61.593 180.984 61.4326 181.65 61.4326C181.962 61.4326 182.244 61.4715 182.496 61.5492C182.754 61.6222 182.983 61.7194 183.182 61.8409C183.381 61.9625 183.549 62.0962 183.685 62.242C183.826 62.3879 183.935 62.5337 184.013 62.6795V58.2823H185.792V69.1187H184.48L184.283 67.5727C184.225 67.7526 184.137 67.9422 184.02 68.1415C183.909 68.3359 183.755 68.5183 183.561 68.6884C183.371 68.8586 183.133 68.9971 182.846 69.1041C182.56 69.211 182.214 69.2645 181.811 69.2645ZM182.175 67.9592C182.812 67.9592 183.277 67.7526 183.568 67.3393C183.865 66.9212 184.013 66.2309 184.013 65.2683C184.008 64.719 183.94 64.2571 183.809 63.8828C183.683 63.5084 183.486 63.2265 183.218 63.0369C182.956 62.8473 182.615 62.7525 182.197 62.7525C181.663 62.7525 181.223 62.9494 180.877 63.3431C180.532 63.7369 180.36 64.3787 180.36 65.2683C180.36 66.1531 180.518 66.824 180.834 67.281C181.15 67.7331 181.597 67.9592 182.175 67.9592ZM194.025 61.4326C194.614 61.4326 195.131 61.5492 195.579 61.7826C196.026 62.0159 196.383 62.3392 196.651 62.7525C196.923 63.1657 197.086 63.6348 197.139 64.1599H195.623C195.588 63.9314 195.506 63.7151 195.375 63.5109C195.243 63.3018 195.066 63.1341 194.842 63.0077C194.619 62.8764 194.349 62.8108 194.033 62.8108C193.469 62.8108 193.009 63.0199 192.655 63.4379C192.305 63.856 192.129 64.4978 192.129 65.3631C192.129 66.1604 192.297 66.7948 192.633 67.2664C192.968 67.738 193.447 67.9738 194.069 67.9738C194.38 67.9738 194.645 67.9057 194.864 67.7696C195.088 67.6286 195.263 67.456 195.389 67.2518C195.52 67.0428 195.605 66.8337 195.644 66.6247H197.117C197.074 67.1351 196.913 67.5897 196.636 67.9883C196.364 68.387 196.004 68.7006 195.557 68.9291C195.114 69.1527 194.604 69.2645 194.025 69.2645C193.335 69.2645 192.72 69.1138 192.181 68.8124C191.646 68.5061 191.225 68.0637 190.919 67.4852C190.613 66.9018 190.46 66.1993 190.46 65.3777C190.46 64.595 190.603 63.9095 190.89 63.3213C191.177 62.7282 191.587 62.2663 192.122 61.9357C192.657 61.6003 193.291 61.4326 194.025 61.4326ZM200.839 69.2645C200.357 69.2645 199.925 69.177 199.541 69.002C199.162 68.8221 198.863 68.5669 198.644 68.2363C198.43 67.9008 198.323 67.4949 198.323 67.0185C198.323 66.1871 198.622 65.56 199.22 65.1371C199.823 64.7141 200.783 64.4929 202.1 64.4735L203.223 64.4443V63.9338C203.223 63.5352 203.104 63.224 202.866 63.0004C202.633 62.7719 202.268 62.6601 201.772 62.665C201.408 62.6698 201.072 62.7573 200.766 62.9275C200.464 63.0928 200.265 63.3723 200.168 63.7661H198.658C198.688 63.2508 198.836 62.8205 199.103 62.4754C199.375 62.1253 199.747 61.8652 200.219 61.6951C200.691 61.5201 201.235 61.4326 201.852 61.4326C202.572 61.4326 203.158 61.5274 203.61 61.717C204.062 61.9066 204.395 62.1812 204.609 62.541C204.823 62.8959 204.93 63.3261 204.93 63.8317V69.1187H203.435L203.296 67.7623C203.024 68.3311 202.679 68.7249 202.261 68.9436C201.848 69.1575 201.374 69.2645 200.839 69.2645ZM201.415 68.0613C201.634 68.0613 201.85 68.0224 202.064 67.9446C202.278 67.8619 202.472 67.7526 202.647 67.6164C202.822 67.4755 202.961 67.3199 203.063 67.1497C203.17 66.9796 203.223 66.8021 203.223 66.6174V65.4287L202.297 65.4433C201.84 65.4482 201.442 65.4968 201.101 65.5892C200.761 65.6815 200.494 65.8298 200.299 66.034C200.11 66.2333 200.015 66.5007 200.015 66.8362C200.015 67.2202 200.148 67.5216 200.416 67.7404C200.683 67.9543 201.016 68.0613 201.415 68.0613ZM207.006 69.1187V61.5784H208.705V63.2119C208.826 62.8375 208.999 62.5191 209.223 62.2566C209.451 61.9892 209.718 61.785 210.025 61.644C210.331 61.5031 210.664 61.4326 211.024 61.4326C211.111 61.4326 211.196 61.4374 211.279 61.4471C211.362 61.4569 211.422 61.4739 211.461 61.4982V63.1973C211.408 63.173 211.337 63.156 211.25 63.1463C211.167 63.1365 211.094 63.1317 211.031 63.1317C210.666 63.1025 210.343 63.1171 210.061 63.1754C209.784 63.2338 209.548 63.3334 209.354 63.4744C209.164 63.6105 209.021 63.7855 208.924 63.9995C208.826 64.2085 208.778 64.454 208.778 64.736V69.1187H207.006ZM214.124 65.7569C214.119 66.1847 214.187 66.5639 214.328 66.8945C214.469 67.2251 214.678 67.4852 214.955 67.6748C215.233 67.8595 215.575 67.9519 215.984 67.9519C216.402 67.9519 216.764 67.8595 217.07 67.6748C217.381 67.4852 217.588 67.1983 217.69 66.8143H219.316C219.229 67.3393 219.02 67.7842 218.689 68.1488C218.359 68.5134 217.957 68.7905 217.486 68.9801C217.019 69.1697 216.533 69.2645 216.027 69.2645C215.298 69.2645 214.656 69.1114 214.102 68.8051C213.553 68.4939 213.123 68.0515 212.811 67.4779C212.505 66.9042 212.352 66.2212 212.352 65.4287C212.352 64.6558 212.493 63.9703 212.775 63.3723C213.057 62.7695 213.463 62.2955 213.993 61.9503C214.528 61.6051 215.169 61.4326 215.918 61.4326C216.662 61.4326 217.287 61.5906 217.792 61.9066C218.303 62.2226 218.687 62.665 218.944 63.2338C219.207 63.7977 219.338 64.4589 219.338 65.2173V65.7569H214.124ZM214.124 64.6558H217.661C217.661 64.2911 217.598 63.963 217.471 63.6713C217.345 63.3747 217.15 63.1414 216.888 62.9712C216.63 62.7962 216.305 62.7087 215.911 62.7087C215.522 62.7087 215.194 62.8035 214.926 62.9931C214.659 63.1827 214.457 63.4282 214.321 63.7296C214.185 64.0262 214.119 64.3349 214.124 64.6558ZM222.385 65.7569C222.38 66.1847 222.448 66.5639 222.589 66.8945C222.73 67.2251 222.939 67.4852 223.216 67.6748C223.493 67.8595 223.836 67.9519 224.244 67.9519C224.663 67.9519 225.025 67.8595 225.331 67.6748C225.642 67.4852 225.849 67.1983 225.951 66.8143H227.577C227.49 67.3393 227.281 67.7842 226.95 68.1488C226.619 68.5134 226.218 68.7905 225.747 68.9801C225.28 69.1697 224.794 69.2645 224.288 69.2645C223.559 69.2645 222.917 69.1114 222.363 68.8051C221.814 68.4939 221.383 68.0515 221.072 67.4779C220.766 66.9042 220.613 66.2212 220.613 65.4287C220.613 64.6558 220.754 63.9703 221.036 63.3723C221.318 62.7695 221.724 62.2955 222.254 61.9503C222.788 61.6051 223.43 61.4326 224.179 61.4326C224.923 61.4326 225.547 61.5906 226.053 61.9066C226.563 62.2226 226.947 62.665 227.205 63.2338C227.468 63.7977 227.599 64.4589 227.599 65.2173V65.7569H222.385ZM222.385 64.6558H225.922C225.922 64.2911 225.859 63.963 225.732 63.6713C225.606 63.3747 225.411 63.1414 225.149 62.9712C224.891 62.7962 224.565 62.7087 224.172 62.7087C223.783 62.7087 223.454 62.8035 223.187 62.9931C222.92 63.1827 222.718 63.4282 222.582 63.7296C222.446 64.0262 222.38 64.3349 222.385 64.6558ZM229.253 69.1187V61.5784H230.952V63.2119C231.074 62.8375 231.246 62.5191 231.47 62.2566C231.698 61.9892 231.966 61.785 232.272 61.644C232.578 61.5031 232.911 61.4326 233.271 61.4326C233.358 61.4326 233.444 61.4374 233.526 61.4471C233.609 61.4569 233.67 61.4739 233.709 61.4982V63.1973C233.655 63.173 233.585 63.156 233.497 63.1463C233.414 63.1365 233.341 63.1317 233.278 63.1317C232.914 63.1025 232.59 63.1171 232.308 63.1754C232.031 63.2338 231.796 63.3334 231.601 63.4744C231.411 63.6105 231.268 63.7855 231.171 63.9995C231.074 64.2085 231.025 64.454 231.025 64.736V69.1187H229.253ZM238.283 71.4668V61.5784H240.055L240.069 62.7671C240.167 62.6018 240.291 62.4389 240.441 62.2785C240.597 62.118 240.774 61.9746 240.974 61.8482C241.178 61.7218 241.404 61.6222 241.652 61.5492C241.9 61.4715 242.172 61.4326 242.469 61.4326C243.047 61.4326 243.56 61.5711 244.007 61.8482C244.455 62.1205 244.805 62.541 245.057 63.1098C245.315 63.6786 245.444 64.3981 245.444 65.2683C245.444 66.158 245.313 66.8994 245.05 67.4925C244.788 68.0856 244.421 68.5304 243.949 68.827C243.477 69.1187 242.93 69.2645 242.308 69.2645C242.021 69.2645 241.759 69.2256 241.521 69.1478C241.287 69.07 241.078 68.9631 240.893 68.827C240.709 68.6908 240.546 68.5426 240.405 68.3821C240.269 68.2217 240.155 68.054 240.062 67.879V71.4668H238.283ZM241.914 67.9373C242.449 67.9373 242.892 67.7258 243.242 67.3029C243.592 66.8751 243.767 66.2066 243.767 65.2975C243.767 64.5099 243.601 63.8901 243.271 63.4379C242.945 62.981 242.493 62.7525 241.914 62.7525C241.292 62.7525 240.825 62.9931 240.514 63.4744C240.203 63.9508 240.048 64.5585 240.048 65.2975C240.048 65.7739 240.116 66.2139 240.252 66.6174C240.393 67.016 240.599 67.3369 240.872 67.58C241.149 67.8182 241.496 67.9373 241.914 67.9373ZM249.187 69.228C248.701 69.228 248.312 69.1673 248.02 69.0457C247.728 68.9242 247.51 68.7613 247.364 68.5571C247.218 68.353 247.123 68.1245 247.079 67.8717C247.036 67.614 247.014 67.3515 247.014 67.0841V58.2823H248.749V66.8799C248.749 67.2056 248.815 67.4584 248.946 67.6383C249.082 67.8182 249.301 67.9227 249.602 67.9519L249.982 67.9665V69.0822C249.85 69.1211 249.717 69.1551 249.581 69.1843C249.444 69.2135 249.313 69.228 249.187 69.228ZM253.637 69.2645C253.156 69.2645 252.723 69.177 252.339 69.002C251.96 68.8221 251.661 68.5669 251.442 68.2363C251.228 67.9008 251.121 67.4949 251.121 67.0185C251.121 66.1871 251.42 65.56 252.018 65.1371C252.621 64.7141 253.581 64.4929 254.898 64.4735L256.021 64.4443V63.9338C256.021 63.5352 255.902 63.224 255.664 63.0004C255.431 62.7719 255.066 62.6601 254.57 62.665C254.206 62.6698 253.87 62.7573 253.564 62.9275C253.262 63.0928 253.063 63.3723 252.966 63.7661H251.456C251.486 63.2508 251.634 62.8205 251.901 62.4754C252.173 62.1253 252.545 61.8652 253.017 61.6951C253.489 61.5201 254.033 61.4326 254.65 61.4326C255.37 61.4326 255.956 61.5274 256.408 61.717C256.86 61.9066 257.193 62.1812 257.407 62.541C257.621 62.8959 257.728 63.3261 257.728 63.8317V69.1187H256.233L256.094 67.7623C255.822 68.3311 255.477 68.7249 255.059 68.9436C254.646 69.1575 254.172 69.2645 253.637 69.2645ZM254.213 68.0613C254.432 68.0613 254.648 68.0224 254.862 67.9446C255.076 67.8619 255.27 67.7526 255.445 67.6164C255.62 67.4755 255.759 67.3199 255.861 67.1497C255.968 66.9796 256.021 66.8021 256.021 66.6174V65.4287L255.095 65.4433C254.638 65.4482 254.24 65.4968 253.899 65.5892C253.559 65.6815 253.292 65.8298 253.097 66.034C252.908 66.2333 252.813 66.5007 252.813 66.8362C252.813 67.2202 252.946 67.5216 253.214 67.7404C253.481 67.9543 253.814 68.0613 254.213 68.0613ZM259.804 69.1187V61.5784H261.539V62.6577C261.656 62.4632 261.814 62.276 262.013 62.0962C262.217 61.9163 262.468 61.7704 262.764 61.6586C263.061 61.5468 263.409 61.4909 263.807 61.4909C264.274 61.4909 264.707 61.5833 265.105 61.768C265.509 61.9527 265.832 62.242 266.075 62.6358C266.323 63.0296 266.447 63.5376 266.447 64.1599V69.1187H264.668V64.3714C264.668 63.8755 264.532 63.5084 264.259 63.2702C263.987 63.0271 263.644 62.9056 263.231 62.9056C262.949 62.9056 262.682 62.9542 262.429 63.0515C262.176 63.1438 261.97 63.2872 261.809 63.4817C261.654 63.6713 261.576 63.9095 261.576 64.1963V69.1187H259.804Z" fill="#22272B"/>
<rect x="46.8994" y="86.719" width="318.431" height="123.969" fill="#8055F1" fill-opacity="0.1"/>
<g filter="url(#filter2_d_2744_13690)">
<path d="M67.561 129.692C67.561 128.781 68.2999 128.042 69.2114 128.042H338.157C339.068 128.042 339.807 128.781 339.807 129.692V182.299C339.807 183.211 339.068 183.95 338.157 183.95H69.2114C68.2999 183.95 67.561 183.211 67.561 182.299V129.692Z" fill="white"/>
</g>
<circle cx="100.26" cy="155.47" r="15.8229" fill="#441170"/>
<path d="M69.0321 106.062V104.731H75.8869V106.062H73.2495V113.518H71.7667V106.062H69.0321ZM78.0308 113.64C77.6297 113.64 77.2691 113.567 76.9491 113.421C76.6331 113.271 76.3839 113.058 76.2016 112.783C76.0234 112.503 75.9342 112.165 75.9342 111.768C75.9342 111.075 76.1834 110.553 76.6817 110.2C77.1841 109.848 77.9842 109.664 79.0821 109.647L80.0179 109.623V109.198C80.0179 108.865 79.9187 108.606 79.7202 108.42C79.5257 108.229 79.2219 108.136 78.8086 108.14C78.5048 108.144 78.2252 108.217 77.97 108.359C77.7188 108.497 77.5527 108.73 77.4717 109.058H76.2138C76.2381 108.628 76.3616 108.27 76.5845 107.982C76.8113 107.691 77.1213 107.474 77.5142 107.332C77.9072 107.186 78.361 107.113 78.8755 107.113C79.4751 107.113 79.9632 107.192 80.34 107.35C80.7168 107.508 80.9943 107.737 81.1725 108.037C81.3508 108.333 81.4399 108.691 81.4399 109.113V113.518H80.1942L80.0787 112.388C79.8518 112.862 79.5642 113.19 79.2158 113.372C78.8714 113.551 78.4764 113.64 78.0308 113.64ZM78.5109 112.637C78.6932 112.637 78.8734 112.605 79.0517 112.54C79.23 112.471 79.392 112.38 79.5379 112.266C79.6837 112.149 79.7992 112.019 79.8842 111.878C79.9734 111.736 80.0179 111.588 80.0179 111.434V110.443L79.2462 110.456C78.8653 110.46 78.5331 110.5 78.2495 110.577C77.966 110.654 77.7431 110.778 77.5811 110.948C77.4231 111.114 77.3441 111.337 77.3441 111.616C77.3441 111.936 77.4555 112.187 77.6783 112.37C77.9011 112.548 78.1786 112.637 78.5109 112.637ZM83.1699 113.518V107.235H84.5858V108.596C84.6871 108.284 84.8309 108.019 85.0172 107.8C85.2077 107.577 85.4305 107.407 85.6857 107.289C85.9409 107.172 86.2184 107.113 86.5182 107.113C86.5912 107.113 86.6621 107.117 86.7309 107.125C86.7998 107.133 86.8504 107.148 86.8829 107.168V108.584C86.8383 108.564 86.7795 108.549 86.7066 108.541C86.6378 108.533 86.577 108.529 86.5243 108.529C86.2205 108.505 85.9511 108.517 85.7161 108.566C85.4852 108.614 85.2887 108.697 85.1266 108.815C84.9686 108.928 84.8491 109.074 84.7681 109.252C84.6871 109.427 84.6465 109.631 84.6465 109.866V113.518H83.1699ZM90.8017 115.597C89.7443 115.597 88.932 115.455 88.3649 115.171C87.7977 114.888 87.5141 114.499 87.5141 114.004C87.5141 113.782 87.5688 113.595 87.6782 113.445C87.7876 113.295 87.9172 113.172 88.0671 113.075C88.217 112.977 88.3547 112.903 88.4803 112.85C88.6059 112.797 88.6869 112.759 88.7234 112.734C88.6545 112.694 88.5634 112.641 88.4499 112.576C88.3365 112.512 88.2332 112.422 88.14 112.309C88.0509 112.196 88.0063 112.048 88.0063 111.865C88.0063 111.655 88.1056 111.46 88.3041 111.282C88.5067 111.104 88.8085 110.976 89.2096 110.899C88.8166 110.709 88.5148 110.451 88.3041 110.127C88.0934 109.803 87.9881 109.467 87.9881 109.119C87.9881 108.705 88.1076 108.351 88.3466 108.055C88.5897 107.759 88.926 107.533 89.3554 107.375C89.7889 107.217 90.2892 107.138 90.8564 107.138C91.2777 107.138 91.6261 107.184 91.9016 107.277C92.1771 107.37 92.4344 107.496 92.6734 107.654C92.7544 107.622 92.8679 107.577 93.0137 107.52C93.1636 107.46 93.3257 107.395 93.4999 107.326C93.6741 107.253 93.8402 107.184 93.9982 107.119C94.1602 107.05 94.298 106.994 94.4114 106.949L94.3993 108.171L93.3115 108.365C93.3641 108.483 93.4047 108.61 93.433 108.748C93.4654 108.886 93.4816 109.007 93.4816 109.113C93.4816 109.477 93.3783 109.815 93.1717 110.127C92.9691 110.435 92.6633 110.682 92.2541 110.869C91.849 111.055 91.3426 111.148 90.7349 111.148C90.6741 111.148 90.591 111.146 90.4857 111.142C90.3804 111.138 90.2953 111.134 90.2305 111.13C89.9023 111.142 89.6775 111.181 89.5559 111.246C89.4344 111.31 89.3736 111.381 89.3736 111.458C89.3736 111.568 89.4648 111.641 89.6471 111.677C89.8294 111.713 90.1211 111.746 90.5222 111.774C90.664 111.782 90.8503 111.792 91.0813 111.805C91.3122 111.817 91.5694 111.833 91.853 111.853C92.5701 111.898 93.113 112.078 93.4816 112.394C93.8503 112.706 94.0346 113.111 94.0346 113.609C94.0346 114.189 93.7673 114.665 93.2325 115.038C92.6977 115.41 91.8875 115.597 90.8017 115.597ZM91.0509 114.728C91.5816 114.728 91.9746 114.655 92.2298 114.509C92.485 114.363 92.6126 114.148 92.6126 113.865C92.6126 113.646 92.5255 113.468 92.3513 113.33C92.1771 113.192 91.9178 113.111 91.5735 113.087L89.9874 112.99C89.8132 112.977 89.6471 113.01 89.4891 113.087C89.3351 113.16 89.2096 113.263 89.1123 113.397C89.0151 113.526 88.9665 113.67 88.9665 113.828C88.9665 114.124 89.1366 114.347 89.4769 114.497C89.8173 114.651 90.3419 114.728 91.0509 114.728ZM90.7835 110.279C91.1684 110.279 91.4803 110.182 91.7193 109.988C91.9584 109.789 92.0779 109.51 92.0779 109.149C92.0779 108.776 91.9584 108.487 91.7193 108.28C91.4803 108.069 91.1684 107.964 90.7835 107.964C90.3905 107.964 90.0725 108.069 89.8294 108.28C89.5904 108.491 89.4709 108.78 89.4709 109.149C89.4709 109.497 89.5863 109.773 89.8173 109.975C90.0482 110.178 90.3703 110.279 90.7835 110.279ZM96.5793 110.717C96.5753 111.073 96.632 111.389 96.7495 111.665C96.867 111.94 97.0412 112.157 97.2721 112.315C97.503 112.469 97.7887 112.546 98.129 112.546C98.4774 112.546 98.7792 112.469 99.0344 112.315C99.2937 112.157 99.4659 111.918 99.551 111.598H100.906C100.833 112.036 100.659 112.406 100.384 112.71C100.108 113.014 99.7738 113.245 99.3808 113.403C98.9919 113.561 98.5868 113.64 98.1654 113.64C97.5577 113.64 97.023 113.512 96.5611 113.257C96.1033 112.998 95.7448 112.629 95.4855 112.151C95.2303 111.673 95.1027 111.104 95.1027 110.443C95.1027 109.799 95.2201 109.228 95.4551 108.73C95.6901 108.227 96.0284 107.832 96.47 107.545C96.9156 107.257 97.4504 107.113 98.0743 107.113C98.6941 107.113 99.2147 107.245 99.636 107.508C100.061 107.772 100.381 108.14 100.596 108.614C100.815 109.084 100.924 109.635 100.924 110.267V110.717H96.5793ZM96.5793 109.799H99.5267C99.5267 109.495 99.474 109.222 99.3687 108.979C99.2633 108.732 99.1013 108.537 98.8825 108.395C98.6678 108.25 98.3963 108.177 98.0682 108.177C97.7441 108.177 97.4706 108.256 97.2478 108.414C97.025 108.572 96.8569 108.776 96.7434 109.027C96.63 109.275 96.5753 109.532 96.5793 109.799ZM105.639 108.28H104.235L104.241 111.884C104.241 112.07 104.261 112.208 104.302 112.297C104.346 112.382 104.415 112.439 104.508 112.467C104.605 112.491 104.735 112.503 104.897 112.503H105.669V113.439C105.588 113.472 105.464 113.5 105.298 113.524C105.136 113.553 104.917 113.567 104.642 113.567C104.144 113.567 103.757 113.502 103.481 113.372C103.21 113.239 103.021 113.05 102.916 112.807C102.811 112.564 102.758 112.275 102.758 111.938V108.28H101.737V107.235H102.801L103.171 105.369H104.235V107.229H105.639V108.28ZM109.768 113.518V107.235H111.184V108.596C111.285 108.284 111.429 108.019 111.616 107.8C111.806 107.577 112.029 107.407 112.284 107.289C112.539 107.172 112.817 107.113 113.117 107.113C113.19 107.113 113.26 107.117 113.329 107.125C113.398 107.133 113.449 107.148 113.481 107.168V108.584C113.437 108.564 113.378 108.549 113.305 108.541C113.236 108.533 113.175 108.529 113.123 108.529C112.819 108.505 112.549 108.517 112.314 108.566C112.084 108.614 111.887 108.697 111.725 108.815C111.567 108.928 111.448 109.074 111.366 109.252C111.285 109.427 111.245 109.631 111.245 109.866V113.518H109.768ZM117.147 113.64C116.547 113.64 116.024 113.512 115.579 113.257C115.133 112.998 114.787 112.627 114.54 112.145C114.297 111.663 114.175 111.083 114.175 110.407C114.175 109.751 114.292 109.175 114.527 108.681C114.766 108.187 115.109 107.802 115.554 107.526C116 107.251 116.533 107.113 117.153 107.113C117.752 107.113 118.273 107.245 118.714 107.508C119.156 107.772 119.496 108.148 119.735 108.639C119.978 109.129 120.1 109.718 120.1 110.407C120.1 111.043 119.985 111.604 119.754 112.09C119.527 112.572 119.192 112.951 118.751 113.227C118.313 113.502 117.779 113.64 117.147 113.64ZM117.153 112.516C117.493 112.516 117.773 112.422 117.991 112.236C118.214 112.05 118.378 111.794 118.484 111.47C118.593 111.146 118.648 110.778 118.648 110.364C118.648 109.98 118.599 109.625 118.502 109.301C118.409 108.977 118.251 108.718 118.028 108.523C117.809 108.325 117.517 108.225 117.153 108.225C116.808 108.225 116.523 108.316 116.296 108.499C116.073 108.677 115.905 108.928 115.791 109.252C115.682 109.572 115.627 109.943 115.627 110.364C115.627 110.745 115.676 111.1 115.773 111.428C115.874 111.752 116.037 112.015 116.259 112.218C116.482 112.416 116.78 112.516 117.153 112.516ZM123.223 113.609C122.818 113.609 122.493 113.559 122.25 113.458C122.007 113.356 121.825 113.221 121.703 113.05C121.582 112.88 121.503 112.69 121.466 112.479C121.43 112.264 121.412 112.046 121.412 111.823V104.488H122.858V111.653C122.858 111.924 122.913 112.135 123.022 112.285C123.136 112.435 123.318 112.522 123.569 112.546L123.885 112.558V113.488C123.776 113.52 123.664 113.549 123.551 113.573C123.437 113.597 123.328 113.609 123.223 113.609ZM126.287 110.717C126.283 111.073 126.34 111.389 126.458 111.665C126.575 111.94 126.749 112.157 126.98 112.315C127.211 112.469 127.497 112.546 127.837 112.546C128.185 112.546 128.487 112.469 128.743 112.315C129.002 112.157 129.174 111.918 129.259 111.598H130.614C130.541 112.036 130.367 112.406 130.092 112.71C129.816 113.014 129.482 113.245 129.089 113.403C128.7 113.561 128.295 113.64 127.874 113.64C127.266 113.64 126.731 113.512 126.269 113.257C125.811 112.998 125.453 112.629 125.194 112.151C124.938 111.673 124.811 111.104 124.811 110.443C124.811 109.799 124.928 109.228 125.163 108.73C125.398 108.227 125.736 107.832 126.178 107.545C126.624 107.257 127.158 107.113 127.782 107.113C128.402 107.113 128.923 107.245 129.344 107.508C129.77 107.772 130.09 108.14 130.304 108.614C130.523 109.084 130.632 109.635 130.632 110.267V110.717H126.287ZM126.287 109.799H129.235C129.235 109.495 129.182 109.222 129.077 108.979C128.971 108.732 128.809 108.537 128.591 108.395C128.376 108.25 128.104 108.177 127.776 108.177C127.452 108.177 127.179 108.256 126.956 108.414C126.733 108.572 126.565 108.776 126.452 109.027C126.338 109.275 126.283 109.532 126.287 109.799Z" fill="#22272B"/>
<g filter="url(#filter3_d_2744_13690)">
<path d="M124.684 309.633C124.684 308.686 125.451 307.919 126.398 307.919H325.939C326.886 307.919 327.653 308.686 327.653 309.633V364.543C327.653 365.49 326.886 366.257 325.939 366.257H126.398C125.451 366.257 124.684 365.49 124.684 364.543V309.633Z" fill="white"/>
<path d="M125.292 309.633C125.292 309.022 125.787 308.526 126.398 308.526H325.939C326.55 308.526 327.046 309.022 327.046 309.633V364.543C327.046 365.154 326.55 365.649 325.939 365.649H126.398C125.787 365.649 125.292 365.154 125.292 364.543V309.633Z" stroke="#B7D2E7" stroke-width="1.21538"/>
</g>
<circle cx="152.853" cy="344.35" r="3.28632" fill="#E4E4E6"/>
<rect x="147.377" y="326.821" width="44.913" height="6.57264" rx="3.28632" fill="#E4E4E6"/>
<rect x="235.518" y="326.821" width="44.913" height="6.57264" rx="3.28632" fill="#E4E4E6"/>
<rect x="162.713" y="341.064" width="108.449" height="6.57264" rx="3.28632" fill="#E4E4E6"/>
<rect x="201.054" y="326.821" width="23.0042" height="6.57264" rx="3.28632" fill="#E4E4E6"/>
<g filter="url(#filter4_d_2744_13690)">
<path d="M124.684 233.063C124.684 232.116 125.451 231.349 126.398 231.349H325.939C326.886 231.349 327.653 232.116 327.653 233.063V287.973C327.653 288.92 326.886 289.687 325.939 289.687H126.398C125.451 289.687 124.684 288.92 124.684 287.973V233.063Z" fill="white"/>
<path d="M125.292 233.063C125.292 232.452 125.787 231.957 126.398 231.957H325.939C326.55 231.957 327.046 232.452 327.046 233.063V287.973C327.046 288.584 326.55 289.08 325.939 289.08H126.398C125.787 289.08 125.292 288.584 125.292 287.973V233.063Z" stroke="#B7D2E7" stroke-width="1.21538"/>
</g>
<circle cx="152.853" cy="267.501" r="3.28632" fill="#E4E4E6"/>
<rect x="147.377" y="249.972" width="44.913" height="6.57264" rx="3.28632" fill="#E4E4E6"/>
<rect x="235.518" y="249.972" width="44.913" height="6.57264" rx="3.28632" fill="#E4E4E6"/>
<rect x="162.713" y="264.215" width="108.449" height="6.57264" rx="3.28632" fill="#E4E4E6"/>
<rect x="201.054" y="249.972" width="23.0042" height="6.57264" rx="3.28632" fill="#E4E4E6"/>
<path d="M95.5146 212.511V392.388" stroke="#E4E4E6" stroke-width="1.21538"/>
<circle cx="96.1231" cy="261.126" r="6.68462" fill="white"/>
<path fill-rule="evenodd" clip-rule="evenodd" d="M106.453 260.519C106.453 266.56 101.556 271.457 95.5146 271.457C89.4735 271.457 84.5762 266.56 84.5762 260.519C84.5762 254.478 89.4735 249.581 95.5146 249.581C101.556 249.581 106.453 254.478 106.453 260.519ZM91.2155 259.508L93.9108 261.974L99.7424 256.144L101.349 257.75L93.9804 265.119L89.681 261.185L91.2155 259.508Z" fill="#008A07"/>
<circle cx="96.1231" cy="330.403" r="6.68462" fill="white"/>
<path fill-rule="evenodd" clip-rule="evenodd" d="M106.453 331.011C106.453 337.052 101.556 341.95 95.5146 341.95C89.4735 341.95 84.5762 337.052 84.5762 331.011C84.5762 324.97 89.4735 320.073 95.5146 320.073C101.556 320.073 106.453 324.97 106.453 331.011ZM91.2155 330L93.9108 332.466L99.7424 326.636L101.349 328.243L93.9804 335.611L89.681 331.677L91.2155 330Z" fill="#A0A5AE"/>
<path d="M129.986 147.02C130.391 147.02 130.749 147.105 131.062 147.274C131.374 147.441 131.626 147.665 131.816 147.946C132.007 148.226 132.119 148.535 132.154 148.871H131.371C131.329 148.646 131.248 148.442 131.129 148.259C131.01 148.077 130.854 147.931 130.661 147.822C130.467 147.714 130.236 147.66 129.966 147.66C129.619 147.66 129.325 147.742 129.084 147.906C128.846 148.067 128.665 148.317 128.54 148.656C128.418 148.995 128.358 149.429 128.358 149.959C128.358 150.758 128.494 151.346 128.767 151.722C129.042 152.095 129.442 152.282 129.966 152.282C130.236 152.282 130.467 152.225 130.661 152.111C130.854 151.997 131.01 151.845 131.129 151.654C131.248 151.464 131.329 151.257 131.371 151.035H132.154C132.125 151.278 132.058 151.514 131.955 151.742C131.855 151.967 131.716 152.168 131.538 152.345C131.361 152.523 131.142 152.663 130.883 152.766C130.626 152.869 130.327 152.921 129.986 152.921C129.469 152.921 129.029 152.803 128.663 152.568C128.301 152.332 128.023 151.993 127.829 151.551C127.639 151.109 127.544 150.576 127.544 149.951C127.544 149.329 127.639 148.799 127.829 148.362C128.02 147.926 128.297 147.593 128.659 147.366C129.025 147.135 129.467 147.02 129.986 147.02ZM134.226 152.893C134.004 152.893 133.824 152.863 133.686 152.802C133.551 152.741 133.447 152.659 133.373 152.556C133.301 152.452 133.252 152.335 133.226 152.202C133.202 152.067 133.19 151.928 133.19 151.785V146.941H133.913V151.714C133.913 151.92 133.952 152.075 134.032 152.178C134.114 152.282 134.228 152.339 134.373 152.349L134.596 152.353V152.83C134.535 152.848 134.471 152.863 134.405 152.873C134.339 152.887 134.279 152.893 134.226 152.893ZM136.017 150.959C136.017 151.219 136.06 151.454 136.144 151.666C136.232 151.875 136.363 152.042 136.538 152.167C136.715 152.291 136.936 152.353 137.201 152.353C137.463 152.353 137.688 152.292 137.876 152.17C138.066 152.049 138.188 151.873 138.241 151.642H138.936C138.886 151.92 138.774 152.155 138.602 152.345C138.43 152.536 138.223 152.68 137.979 152.778C137.735 152.873 137.481 152.921 137.217 152.921C136.833 152.921 136.495 152.838 136.204 152.671C135.913 152.504 135.685 152.264 135.521 151.952C135.357 151.64 135.275 151.265 135.275 150.828C135.275 150.397 135.349 150.018 135.497 149.693C135.645 149.367 135.86 149.113 136.141 148.93C136.424 148.748 136.764 148.656 137.161 148.656C137.548 148.656 137.874 148.74 138.142 148.906C138.409 149.073 138.612 149.309 138.749 149.613C138.89 149.915 138.96 150.274 138.96 150.689V150.959H136.017ZM136.021 150.463H138.253C138.253 150.227 138.213 150.016 138.134 149.828C138.054 149.637 137.933 149.488 137.769 149.379C137.607 149.268 137.403 149.212 137.157 149.212C136.9 149.212 136.687 149.274 136.518 149.399C136.351 149.521 136.225 149.678 136.141 149.871C136.058 150.062 136.019 150.259 136.021 150.463ZM139.968 152.842V148.736H140.667V149.526C140.736 149.33 140.833 149.169 140.957 149.041C141.081 148.912 141.223 148.815 141.382 148.752C141.543 148.688 141.71 148.656 141.882 148.656C141.943 148.656 142.003 148.66 142.061 148.668C142.119 148.676 142.164 148.689 142.196 148.708V149.419C142.156 149.4 142.104 149.388 142.041 149.383C141.98 149.375 141.928 149.371 141.886 149.371C141.722 149.36 141.568 149.371 141.425 149.403C141.283 149.432 141.157 149.484 141.048 149.558C140.94 149.632 140.854 149.73 140.79 149.852C140.729 149.971 140.699 150.116 140.699 150.288V152.842H139.968ZM146.653 152.842H145.874L144.588 150.781L143.778 151.619V152.842H143.047V146.941H143.778V150.789L145.708 148.736H146.549L145.068 150.3L146.653 152.842ZM151.619 152.921C151.117 152.921 150.682 152.806 150.317 152.576C149.952 152.343 149.671 152.008 149.475 151.571C149.279 151.134 149.181 150.606 149.181 149.987C149.181 149.362 149.281 148.828 149.479 148.386C149.68 147.944 149.966 147.607 150.337 147.374C150.708 147.138 151.146 147.02 151.651 147.02C151.94 147.02 152.211 147.071 152.465 147.171C152.719 147.272 152.944 147.409 153.14 147.584C153.336 147.756 153.492 147.953 153.609 148.176C153.728 148.398 153.795 148.63 153.811 148.871H153.025C152.988 148.659 152.906 148.462 152.779 148.279C152.652 148.096 152.49 147.95 152.295 147.838C152.101 147.727 151.883 147.672 151.639 147.672C151.308 147.672 151.017 147.754 150.766 147.918C150.517 148.079 150.322 148.329 150.182 148.668C150.044 149.007 149.976 149.441 149.976 149.971C149.976 150.378 150.018 150.728 150.103 151.019C150.187 151.31 150.305 151.547 150.456 151.73C150.61 151.91 150.788 152.043 150.992 152.131C151.199 152.215 151.421 152.258 151.659 152.258C151.9 152.258 152.109 152.215 152.287 152.131C152.467 152.046 152.616 151.938 152.735 151.805C152.854 151.67 152.946 151.526 153.009 151.372C153.075 151.216 153.111 151.067 153.116 150.924L153.14 150.415H151.743V149.875L153.903 149.879V152.842H153.351V151.968C153.25 152.132 153.123 152.287 152.97 152.433C152.816 152.578 152.628 152.696 152.406 152.786C152.186 152.876 151.924 152.921 151.619 152.921ZM155.184 152.842V148.736H155.883V149.526C155.952 149.33 156.049 149.169 156.173 149.041C156.298 148.912 156.439 148.815 156.598 148.752C156.76 148.688 156.926 148.656 157.098 148.656C157.159 148.656 157.219 148.66 157.277 148.668C157.335 148.676 157.38 148.689 157.412 148.708V149.419C157.372 149.4 157.321 149.388 157.257 149.383C157.196 149.375 157.145 149.371 157.102 149.371C156.938 149.36 156.785 149.371 156.642 149.403C156.499 149.432 156.373 149.484 156.265 149.558C156.156 149.632 156.07 149.73 156.006 149.852C155.946 149.971 155.915 150.116 155.915 150.288V152.842H155.184ZM159.298 152.921C159.034 152.921 158.799 152.875 158.595 152.782C158.392 152.687 158.231 152.55 158.115 152.373C158.001 152.196 157.944 151.981 157.944 151.73C157.944 151.274 158.103 150.936 158.421 150.713C158.738 150.491 159.248 150.372 159.949 150.356L160.684 150.336V150.014C160.684 149.763 160.609 149.564 160.458 149.419C160.307 149.27 160.073 149.196 159.755 149.196C159.519 149.199 159.311 149.255 159.131 149.363C158.954 149.472 158.839 149.649 158.786 149.895H158.139C158.155 149.628 158.23 149.403 158.365 149.22C158.5 149.035 158.688 148.895 158.929 148.799C159.172 148.704 159.46 148.656 159.791 148.656C160.148 148.656 160.444 148.707 160.68 148.807C160.918 148.908 161.096 149.056 161.212 149.252C161.331 149.448 161.391 149.689 161.391 149.975V152.842H160.763L160.712 152.071C160.553 152.392 160.35 152.614 160.104 152.738C159.861 152.86 159.592 152.921 159.298 152.921ZM159.521 152.393C159.658 152.393 159.795 152.368 159.93 152.317C160.067 152.267 160.193 152.2 160.307 152.115C160.421 152.028 160.511 151.931 160.577 151.825C160.646 151.716 160.681 151.605 160.684 151.491V150.789L160.073 150.801C159.76 150.806 159.498 150.838 159.286 150.896C159.077 150.954 158.92 151.045 158.814 151.17C158.711 151.294 158.659 151.457 158.659 151.658C158.659 151.889 158.738 152.069 158.897 152.198C159.059 152.328 159.266 152.393 159.521 152.393ZM164.126 152.921C163.594 152.921 163.172 152.738 162.86 152.373C162.547 152.008 162.391 151.474 162.391 150.773C162.391 150.347 162.453 149.975 162.578 149.657C162.705 149.339 162.893 149.093 163.142 148.918C163.39 148.744 163.7 148.656 164.071 148.656C164.267 148.656 164.44 148.681 164.591 148.732C164.744 148.782 164.877 148.846 164.988 148.922C165.099 148.999 165.189 149.079 165.258 149.161C165.33 149.243 165.382 149.318 165.417 149.387V146.941H166.155V152.842H165.596L165.516 152C165.49 152.079 165.447 152.172 165.389 152.278C165.331 152.381 165.249 152.483 165.143 152.583C165.037 152.681 164.901 152.762 164.734 152.826C164.57 152.889 164.367 152.921 164.126 152.921ZM164.257 152.357C164.673 152.357 164.97 152.231 165.147 151.98C165.327 151.726 165.417 151.311 165.417 150.737C165.414 150.417 165.373 150.144 165.294 149.919C165.217 149.694 165.095 149.523 164.928 149.407C164.764 149.288 164.546 149.228 164.273 149.228C163.934 149.228 163.659 149.349 163.447 149.589C163.236 149.83 163.13 150.213 163.13 150.737C163.13 151.251 163.225 151.649 163.416 151.932C163.609 152.215 163.889 152.357 164.257 152.357ZM167.892 150.959C167.892 151.219 167.935 151.454 168.02 151.666C168.107 151.875 168.238 152.042 168.413 152.167C168.59 152.291 168.811 152.353 169.076 152.353C169.338 152.353 169.563 152.292 169.751 152.17C169.941 152.049 170.063 151.873 170.116 151.642H170.811C170.761 151.92 170.65 152.155 170.477 152.345C170.305 152.536 170.098 152.68 169.854 152.778C169.611 152.873 169.356 152.921 169.092 152.921C168.708 152.921 168.37 152.838 168.079 152.671C167.788 152.504 167.56 152.264 167.396 151.952C167.232 151.64 167.15 151.265 167.15 150.828C167.15 150.397 167.224 150.018 167.372 149.693C167.521 149.367 167.735 149.113 168.016 148.93C168.299 148.748 168.639 148.656 169.036 148.656C169.423 148.656 169.75 148.74 170.017 148.906C170.284 149.073 170.487 149.309 170.624 149.613C170.765 149.915 170.835 150.274 170.835 150.689V150.959H167.892ZM167.896 150.463H170.128C170.128 150.227 170.088 150.016 170.009 149.828C169.93 149.637 169.808 149.488 169.644 149.379C169.482 149.268 169.278 149.212 169.032 149.212C168.775 149.212 168.562 149.274 168.393 149.399C168.226 149.521 168.1 149.678 168.016 149.871C167.934 150.062 167.894 150.259 167.896 150.463ZM173.389 147.1H177.419V147.735C177.215 148.013 177.013 148.329 176.812 148.684C176.613 149.036 176.424 149.405 176.244 149.792C176.064 150.176 175.902 150.556 175.759 150.932C175.616 151.305 175.497 151.657 175.402 151.988C175.309 152.316 175.25 152.601 175.223 152.842H174.425C174.468 152.579 174.543 152.255 174.651 151.869C174.763 151.482 174.908 151.06 175.088 150.602C175.268 150.141 175.485 149.666 175.739 149.176C175.994 148.687 176.285 148.206 176.613 147.735H173.389V147.1ZM180.295 150.499V151.079L178.282 151.082V150.507L180.295 150.499ZM183.36 147.02C183.728 147.02 184.057 147.081 184.348 147.203C184.64 147.325 184.87 147.502 185.039 147.735C185.209 147.968 185.293 148.251 185.293 148.585C185.293 148.897 185.209 149.159 185.039 149.371C184.872 149.583 184.657 149.744 184.392 149.856C184.585 149.893 184.769 149.983 184.944 150.126C185.121 150.268 185.267 150.442 185.381 150.646C185.495 150.85 185.551 151.063 185.551 151.285C185.551 151.616 185.46 151.904 185.278 152.151C185.098 152.397 184.843 152.589 184.515 152.726C184.187 152.861 183.802 152.929 183.36 152.929C182.92 152.929 182.536 152.861 182.208 152.726C181.88 152.589 181.624 152.397 181.442 152.151C181.262 151.904 181.172 151.616 181.172 151.285C181.172 151.063 181.227 150.85 181.338 150.646C181.452 150.442 181.598 150.268 181.775 150.126C181.953 149.983 182.138 149.893 182.331 149.856C182.069 149.744 181.852 149.583 181.68 149.371C181.511 149.159 181.426 148.897 181.426 148.585C181.426 148.251 181.511 147.968 181.68 147.735C181.849 147.502 182.08 147.325 182.371 147.203C182.665 147.081 182.994 147.02 183.36 147.02ZM183.36 149.546C183.709 149.546 183.992 149.46 184.209 149.288C184.429 149.116 184.539 148.876 184.539 148.569C184.539 148.259 184.429 148.016 184.209 147.838C183.99 147.658 183.706 147.568 183.36 147.568C183.013 147.568 182.73 147.658 182.51 147.838C182.29 148.018 182.18 148.262 182.18 148.569C182.18 148.876 182.29 149.116 182.51 149.288C182.73 149.46 183.013 149.546 183.36 149.546ZM183.36 152.333C183.786 152.333 184.126 152.238 184.38 152.047C184.634 151.854 184.761 151.599 184.761 151.281C184.761 151.072 184.703 150.885 184.587 150.721C184.473 150.557 184.311 150.429 184.102 150.336C183.893 150.241 183.646 150.193 183.36 150.193C183.076 150.193 182.83 150.241 182.621 150.336C182.415 150.429 182.253 150.557 182.137 150.721C182.023 150.885 181.966 151.072 181.966 151.281C181.966 151.599 182.092 151.854 182.343 152.047C182.597 152.238 182.936 152.333 183.36 152.333ZM130.334 164.934C130.01 164.934 129.694 164.894 129.385 164.814C129.076 164.73 128.795 164.608 128.542 164.448C128.291 164.284 128.083 164.082 127.916 163.841C127.749 163.597 127.647 163.313 127.61 162.989H128.778C128.827 163.214 128.925 163.404 129.07 163.558C129.215 163.713 129.396 163.83 129.612 163.91C129.831 163.991 130.07 164.031 130.33 164.031C130.608 164.031 130.858 163.994 131.08 163.92C131.306 163.846 131.483 163.737 131.613 163.595C131.746 163.453 131.812 163.279 131.812 163.072C131.812 162.89 131.764 162.735 131.669 162.609C131.573 162.482 131.439 162.379 131.266 162.298C131.096 162.215 130.897 162.148 130.668 162.099L129.436 161.83C128.938 161.728 128.545 161.531 128.254 161.237C127.964 160.944 127.816 160.553 127.81 160.065C127.807 159.661 127.913 159.309 128.129 159.009C128.349 158.706 128.647 158.473 129.023 158.31C129.4 158.143 129.826 158.059 130.302 158.059C130.858 158.059 131.326 158.151 131.706 158.333C132.089 158.512 132.377 158.753 132.572 159.055C132.77 159.358 132.87 159.69 132.873 160.051H131.733C131.706 159.786 131.625 159.574 131.493 159.417C131.363 159.259 131.196 159.147 130.992 159.079C130.788 159.011 130.563 158.977 130.316 158.977C130.131 158.977 129.958 158.998 129.797 159.042C129.636 159.085 129.496 159.148 129.375 159.231C129.255 159.315 129.161 159.417 129.093 159.537C129.028 159.655 128.996 159.789 128.996 159.94C128.996 160.156 129.067 160.332 129.209 160.468C129.354 160.601 129.624 160.714 130.019 160.807L131.224 161.075C131.598 161.149 131.899 161.261 132.127 161.409C132.356 161.557 132.53 161.727 132.651 161.918C132.771 162.107 132.851 162.3 132.892 162.497C132.932 162.695 132.952 162.884 132.952 163.063C132.952 163.412 132.844 163.728 132.628 164.012C132.414 164.296 132.112 164.522 131.72 164.689C131.33 164.852 130.869 164.934 130.334 164.934ZM134.954 162.706C134.951 162.978 134.995 163.219 135.084 163.429C135.174 163.639 135.307 163.804 135.483 163.924C135.659 164.042 135.876 164.1 136.136 164.1C136.401 164.1 136.631 164.042 136.826 163.924C137.024 163.804 137.155 163.622 137.22 163.378H138.253C138.197 163.711 138.064 163.994 137.854 164.225C137.644 164.457 137.39 164.633 137.09 164.754C136.794 164.874 136.485 164.934 136.164 164.934C135.7 164.934 135.293 164.837 134.941 164.642C134.592 164.445 134.318 164.164 134.121 163.799C133.926 163.435 133.829 163.001 133.829 162.497C133.829 162.006 133.918 161.571 134.097 161.191C134.277 160.808 134.534 160.507 134.871 160.288C135.211 160.068 135.618 159.959 136.094 159.959C136.567 159.959 136.963 160.059 137.285 160.26C137.609 160.461 137.853 160.742 138.017 161.103C138.183 161.461 138.267 161.881 138.267 162.363V162.706H134.954ZM134.954 162.006H137.201C137.201 161.775 137.161 161.566 137.081 161.381C137.001 161.193 136.877 161.044 136.71 160.936C136.547 160.825 136.34 160.769 136.089 160.769C135.842 160.769 135.634 160.83 135.464 160.95C135.294 161.071 135.166 161.227 135.08 161.418C134.993 161.606 134.951 161.803 134.954 162.006ZM139.317 164.842V160.051H140.42V160.737C140.494 160.614 140.595 160.495 140.721 160.38C140.851 160.266 141.01 160.173 141.198 160.102C141.387 160.031 141.608 159.996 141.861 159.996C142.157 159.996 142.432 160.055 142.685 160.172C142.942 160.289 143.147 160.473 143.302 160.723C143.459 160.973 143.538 161.296 143.538 161.691V164.842H142.407V161.826C142.407 161.511 142.321 161.278 142.148 161.126C141.975 160.972 141.757 160.895 141.495 160.895C141.316 160.895 141.146 160.925 140.985 160.987C140.825 161.046 140.693 161.137 140.591 161.261C140.493 161.381 140.443 161.532 140.443 161.715V164.842H139.317ZM145.909 160.051V164.842H144.825V160.051H145.909ZM145.923 158.147V159.213H144.807V158.147H145.923ZM149.258 164.934C148.801 164.934 148.403 164.837 148.063 164.642C147.723 164.445 147.459 164.162 147.271 163.795C147.085 163.427 146.993 162.985 146.993 162.47C146.993 161.969 147.082 161.531 147.261 161.154C147.444 160.777 147.705 160.484 148.044 160.274C148.384 160.064 148.79 159.959 149.263 159.959C149.72 159.959 150.117 160.059 150.453 160.26C150.79 160.461 151.049 160.748 151.232 161.122C151.417 161.495 151.51 161.945 151.51 162.47C151.51 162.955 151.422 163.382 151.246 163.753C151.073 164.12 150.818 164.409 150.481 164.619C150.148 164.829 149.74 164.934 149.258 164.934ZM149.263 164.077C149.522 164.077 149.735 164.006 149.902 163.864C150.072 163.722 150.197 163.527 150.277 163.28C150.361 163.033 150.402 162.752 150.402 162.437C150.402 162.144 150.365 161.874 150.291 161.627C150.22 161.379 150.1 161.182 149.93 161.034C149.763 160.882 149.541 160.807 149.263 160.807C149 160.807 148.783 160.876 148.61 161.015C148.44 161.151 148.312 161.342 148.225 161.589C148.142 161.833 148.1 162.116 148.1 162.437C148.1 162.728 148.137 162.998 148.211 163.248C148.288 163.495 148.412 163.696 148.582 163.85C148.752 164.002 148.979 164.077 149.263 164.077ZM152.51 164.842V160.051H153.589V161.089C153.666 160.851 153.776 160.649 153.918 160.482C154.063 160.312 154.233 160.183 154.427 160.093C154.622 160.004 154.834 159.959 155.062 159.959C155.118 159.959 155.172 159.962 155.224 159.968C155.277 159.974 155.315 159.985 155.34 160V161.08C155.306 161.064 155.261 161.054 155.206 161.047C155.153 161.041 155.107 161.038 155.067 161.038C154.835 161.02 154.63 161.029 154.451 161.066C154.275 161.103 154.125 161.166 154.001 161.256C153.881 161.342 153.79 161.454 153.728 161.589C153.666 161.722 153.635 161.878 153.635 162.057V164.842H152.51ZM158.417 164.842V158.143H160.794C161.276 158.143 161.707 158.226 162.086 158.393C162.469 158.557 162.771 158.799 162.99 159.12C163.209 159.441 163.319 159.837 163.319 160.306C163.319 160.748 163.218 161.126 163.018 161.441C162.82 161.756 162.544 161.997 162.188 162.164C161.833 162.331 161.418 162.414 160.942 162.414H159.562V164.842H158.417ZM159.552 161.511H160.914C161.307 161.511 161.626 161.393 161.873 161.159C162.124 160.924 162.249 160.618 162.249 160.241C162.249 159.858 162.119 159.562 161.859 159.352C161.6 159.139 161.274 159.032 160.882 159.032H159.552V161.511ZM164.218 164.842V160.051H165.297V161.089C165.374 160.851 165.484 160.649 165.626 160.482C165.771 160.312 165.941 160.183 166.136 160.093C166.33 160.004 166.542 159.959 166.77 159.959C166.826 159.959 166.88 159.962 166.932 159.968C166.985 159.974 167.024 159.985 167.048 160V161.08C167.014 161.064 166.97 161.054 166.914 161.047C166.861 161.041 166.815 161.038 166.775 161.038C166.543 161.02 166.338 161.029 166.159 161.066C165.983 161.103 165.833 161.166 165.709 161.256C165.589 161.342 165.498 161.454 165.436 161.589C165.374 161.722 165.344 161.878 165.344 162.057V164.842H164.218ZM169.842 164.934C169.385 164.934 168.987 164.837 168.647 164.642C168.308 164.445 168.043 164.162 167.855 163.795C167.67 163.427 167.577 162.985 167.577 162.47C167.577 161.969 167.667 161.531 167.846 161.154C168.028 160.777 168.289 160.484 168.629 160.274C168.968 160.064 169.375 159.959 169.847 159.959C170.304 159.959 170.701 160.059 171.038 160.26C171.374 160.461 171.634 160.748 171.816 161.122C172.001 161.495 172.094 161.945 172.094 162.47C172.094 162.955 172.006 163.382 171.83 163.753C171.657 164.12 171.402 164.409 171.066 164.619C170.732 164.829 170.324 164.934 169.842 164.934ZM169.847 164.077C170.107 164.077 170.32 164.006 170.486 163.864C170.656 163.722 170.781 163.527 170.862 163.28C170.945 163.033 170.987 162.752 170.987 162.437C170.987 162.144 170.95 161.874 170.876 161.627C170.805 161.379 170.684 161.182 170.514 161.034C170.347 160.882 170.125 160.807 169.847 160.807C169.585 160.807 169.367 160.876 169.194 161.015C169.024 161.151 168.896 161.342 168.809 161.589C168.726 161.833 168.684 162.116 168.684 162.437C168.684 162.728 168.721 162.998 168.796 163.248C168.873 163.495 168.996 163.696 169.166 163.85C169.336 164.002 169.563 164.077 169.847 164.077ZM175.081 159.959C175.455 159.959 175.784 160.033 176.068 160.181C176.352 160.329 176.579 160.535 176.749 160.797C176.922 161.06 177.025 161.358 177.059 161.691H176.096C176.074 161.546 176.022 161.409 175.938 161.279C175.855 161.146 175.742 161.04 175.6 160.959C175.458 160.876 175.287 160.834 175.086 160.834C174.728 160.834 174.436 160.967 174.21 161.233C173.988 161.498 173.877 161.906 173.877 162.456C173.877 162.962 173.983 163.365 174.196 163.665C174.41 163.964 174.714 164.114 175.109 164.114C175.307 164.114 175.475 164.071 175.614 163.985C175.756 163.895 175.867 163.785 175.948 163.656C176.031 163.523 176.085 163.39 176.11 163.257H177.046C177.018 163.581 176.916 163.87 176.74 164.123C176.567 164.377 176.338 164.576 176.054 164.721C175.773 164.863 175.449 164.934 175.081 164.934C174.643 164.934 174.252 164.838 173.909 164.647C173.57 164.452 173.302 164.171 173.108 163.804C172.913 163.433 172.816 162.987 172.816 162.465C172.816 161.968 172.907 161.532 173.089 161.159C173.272 160.782 173.532 160.488 173.872 160.278C174.212 160.065 174.615 159.959 175.081 159.959ZM179.795 164.934C179.56 164.934 179.333 164.9 179.114 164.832C178.897 164.761 178.703 164.659 178.53 164.527C178.357 164.391 178.219 164.224 178.118 164.026C178.016 163.829 177.965 163.598 177.965 163.336V160.051H179.095V163.206C179.095 163.466 179.177 163.679 179.341 163.846C179.507 164.012 179.758 164.096 180.091 164.096C180.394 164.096 180.636 164.017 180.818 163.859C181.001 163.699 181.092 163.469 181.092 163.169V160.051H182.213V164.842H181.347L181.221 163.906C181.163 164.168 181.059 164.375 180.911 164.527C180.766 164.675 180.594 164.78 180.397 164.842C180.202 164.903 180.002 164.934 179.795 164.934ZM183.463 164.842V160.051H184.542V161.089C184.62 160.851 184.729 160.649 184.871 160.482C185.016 160.312 185.186 160.183 185.381 160.093C185.575 160.004 185.787 159.959 186.016 159.959C186.071 159.959 186.125 159.962 186.178 159.968C186.23 159.974 186.269 159.985 186.294 160V161.08C186.26 161.064 186.215 161.054 186.159 161.047C186.107 161.041 186.06 161.038 186.02 161.038C185.789 161.02 185.583 161.029 185.404 161.066C185.228 161.103 185.078 161.166 184.955 161.256C184.834 161.342 184.743 161.454 184.681 161.589C184.62 161.722 184.589 161.878 184.589 162.057V164.842H183.463ZM187.985 162.706C187.982 162.978 188.025 163.219 188.115 163.429C188.204 163.639 188.337 163.804 188.513 163.924C188.689 164.042 188.907 164.1 189.166 164.1C189.432 164.1 189.662 164.042 189.857 163.924C190.054 163.804 190.186 163.622 190.251 163.378H191.284C191.228 163.711 191.095 163.994 190.885 164.225C190.675 164.457 190.42 164.633 190.121 164.754C189.824 164.874 189.515 164.934 189.194 164.934C188.731 164.934 188.323 164.837 187.971 164.642C187.622 164.445 187.349 164.164 187.151 163.799C186.957 163.435 186.859 163.001 186.859 162.497C186.859 162.006 186.949 161.571 187.128 161.191C187.307 160.808 187.565 160.507 187.902 160.288C188.242 160.068 188.649 159.959 189.125 159.959C189.597 159.959 189.994 160.059 190.315 160.26C190.64 160.461 190.884 160.742 191.047 161.103C191.214 161.461 191.298 161.881 191.298 162.363V162.706H187.985ZM187.985 162.006H190.232C190.232 161.775 190.192 161.566 190.112 161.381C190.031 161.193 189.908 161.044 189.741 160.936C189.577 160.825 189.37 160.769 189.12 160.769C188.873 160.769 188.665 160.83 188.495 160.95C188.325 161.071 188.197 161.227 188.11 161.418C188.024 161.606 187.982 161.803 187.985 162.006ZM192.348 164.842V160.051H193.446V160.737C193.585 160.527 193.774 160.345 194.011 160.19C194.252 160.036 194.558 159.959 194.929 159.959C195.098 159.959 195.27 159.988 195.443 160.047C195.619 160.105 195.781 160.192 195.929 160.306C196.081 160.42 196.201 160.563 196.291 160.732C196.442 160.507 196.643 160.322 196.893 160.177C197.146 160.031 197.43 159.959 197.745 159.959C197.918 159.959 198.096 159.987 198.278 160.042C198.463 160.098 198.633 160.19 198.788 160.32C198.942 160.45 199.067 160.627 199.163 160.853C199.259 161.075 199.306 161.355 199.306 161.691V164.842H198.181V161.826C198.181 161.588 198.139 161.401 198.056 161.265C197.972 161.129 197.864 161.034 197.731 160.978C197.602 160.919 197.463 160.89 197.314 160.89C197.182 160.89 197.043 160.916 196.897 160.969C196.755 161.021 196.633 161.108 196.531 161.228C196.433 161.349 196.383 161.511 196.383 161.715V164.842H195.258V161.645C195.258 161.478 195.214 161.339 195.128 161.228C195.041 161.117 194.932 161.034 194.799 160.978C194.669 160.919 194.536 160.89 194.4 160.89C194.262 160.89 194.119 160.919 193.974 160.978C193.832 161.037 193.713 161.126 193.618 161.247C193.522 161.367 193.474 161.523 193.474 161.715V164.842H192.348ZM201.403 162.706C201.4 162.978 201.444 163.219 201.533 163.429C201.623 163.639 201.756 163.804 201.932 163.924C202.108 164.042 202.325 164.1 202.585 164.1C202.85 164.1 203.08 164.042 203.275 163.924C203.473 163.804 203.604 163.622 203.669 163.378H204.702C204.646 163.711 204.513 163.994 204.303 164.225C204.093 164.457 203.839 164.633 203.539 164.754C203.243 164.874 202.934 164.934 202.613 164.934C202.149 164.934 201.742 164.837 201.39 164.642C201.041 164.445 200.767 164.164 200.57 163.799C200.375 163.435 200.278 163.001 200.278 162.497C200.278 162.006 200.367 161.571 200.546 161.191C200.726 160.808 200.983 160.507 201.32 160.288C201.66 160.068 202.067 159.959 202.543 159.959C203.016 159.959 203.412 160.059 203.734 160.26C204.058 160.461 204.302 160.742 204.466 161.103C204.632 161.461 204.716 161.881 204.716 162.363V162.706H201.403ZM201.403 162.006H203.65C203.65 161.775 203.61 161.566 203.53 161.381C203.45 161.193 203.326 161.044 203.159 160.936C202.996 160.825 202.789 160.769 202.538 160.769C202.291 160.769 202.083 160.83 201.913 160.95C201.743 161.071 201.615 161.227 201.529 161.418C201.442 161.606 201.4 161.803 201.403 162.006ZM205.767 164.842V160.051H206.869V160.737C206.943 160.614 207.044 160.495 207.17 160.38C207.3 160.266 207.459 160.173 207.647 160.102C207.836 160.031 208.057 159.996 208.31 159.996C208.606 159.996 208.881 160.055 209.134 160.172C209.391 160.289 209.596 160.473 209.751 160.723C209.908 160.973 209.987 161.296 209.987 161.691V164.842H208.856V161.826C208.856 161.511 208.77 161.278 208.597 161.126C208.424 160.972 208.206 160.895 207.944 160.895C207.765 160.895 207.595 160.925 207.434 160.987C207.274 161.046 207.142 161.137 207.04 161.261C206.942 161.381 206.892 161.532 206.892 161.715V164.842H205.767ZM213.675 160.848H212.605L212.61 163.595C212.61 163.737 212.625 163.842 212.656 163.91C212.69 163.975 212.742 164.018 212.813 164.04C212.888 164.059 212.986 164.068 213.11 164.068H213.698V164.781C213.636 164.806 213.542 164.828 213.416 164.846C213.292 164.868 213.125 164.879 212.915 164.879C212.535 164.879 212.24 164.829 212.03 164.73C211.824 164.628 211.68 164.485 211.6 164.3C211.519 164.114 211.479 163.893 211.479 163.637V160.848H210.701V160.051H211.512L211.794 158.629H212.605V160.047H213.675V160.848ZM219.663 164.934C219.045 164.934 218.511 164.798 218.06 164.527C217.612 164.255 217.265 163.863 217.018 163.35C216.774 162.837 216.652 162.223 216.652 161.506C216.652 160.783 216.775 160.164 217.022 159.648C217.27 159.133 217.619 158.737 218.069 158.462C218.523 158.188 219.055 158.05 219.663 158.05C220.271 158.05 220.798 158.188 221.243 158.462C221.691 158.737 222.037 159.133 222.28 159.648C222.524 160.164 222.646 160.783 222.646 161.506C222.646 162.223 222.526 162.837 222.285 163.35C222.044 163.859 221.7 164.252 221.252 164.527C220.804 164.798 220.275 164.934 219.663 164.934ZM219.663 163.989C220.027 163.989 220.341 163.904 220.603 163.734C220.866 163.561 221.067 163.294 221.206 162.933C221.348 162.568 221.419 162.098 221.419 161.52C221.419 160.933 221.348 160.454 221.206 160.084C221.064 159.71 220.861 159.435 220.599 159.259C220.336 159.083 220.024 158.995 219.663 158.995C219.299 158.995 218.984 159.085 218.718 159.264C218.455 159.44 218.252 159.715 218.107 160.088C217.961 160.459 217.889 160.936 217.889 161.52C217.889 162.098 217.961 162.568 218.107 162.933C218.252 163.294 218.455 163.561 218.718 163.734C218.984 163.904 219.299 163.989 219.663 163.989ZM226.575 160.051V160.848H225.496V164.842H224.37V160.848H223.425V160.051H224.37V159.338C224.37 158.955 224.475 158.66 224.685 158.453C224.898 158.246 225.206 158.143 225.607 158.143H226.617L226.622 158.912H225.955C225.772 158.912 225.647 158.96 225.579 159.055C225.511 159.148 225.477 159.295 225.477 159.496V160.051H226.575ZM230.204 160.051V160.848H229.124V164.842H227.999V160.848H227.053V160.051H227.999V159.338C227.999 158.955 228.104 158.66 228.314 158.453C228.527 158.246 228.834 158.143 229.235 158.143H230.245L230.25 158.912H229.583C229.401 158.912 229.276 158.96 229.208 159.055C229.14 159.148 229.106 159.295 229.106 159.496V160.051H230.204ZM232.282 160.051V164.842H231.198V160.051H232.282ZM232.296 158.147V159.213H231.179V158.147H232.296ZM235.631 159.959C236.005 159.959 236.334 160.033 236.618 160.181C236.902 160.329 237.129 160.535 237.299 160.797C237.472 161.06 237.575 161.358 237.609 161.691H236.646C236.624 161.546 236.571 161.409 236.488 161.279C236.405 161.146 236.292 161.04 236.15 160.959C236.008 160.876 235.836 160.834 235.636 160.834C235.277 160.834 234.986 160.967 234.76 161.233C234.538 161.498 234.427 161.906 234.427 162.456C234.427 162.962 234.533 163.365 234.746 163.665C234.959 163.964 235.264 164.114 235.659 164.114C235.856 164.114 236.025 164.071 236.164 163.985C236.306 163.895 236.417 163.785 236.497 163.656C236.581 163.523 236.635 163.39 236.659 163.257H237.595C237.567 163.581 237.466 163.87 237.29 164.123C237.117 164.377 236.888 164.576 236.604 164.721C236.323 164.863 235.999 164.934 235.631 164.934C235.192 164.934 234.802 164.838 234.459 164.647C234.119 164.452 233.852 164.171 233.658 163.804C233.463 163.433 233.366 162.987 233.366 162.465C233.366 161.968 233.457 161.532 233.639 161.159C233.821 160.782 234.082 160.488 234.422 160.278C234.762 160.065 235.165 159.959 235.631 159.959ZM239.532 162.706C239.529 162.978 239.572 163.219 239.662 163.429C239.751 163.639 239.884 163.804 240.06 163.924C240.236 164.042 240.454 164.1 240.713 164.1C240.979 164.1 241.209 164.042 241.404 163.924C241.601 163.804 241.733 163.622 241.797 163.378H242.83C242.775 163.711 242.642 163.994 242.432 164.225C242.222 164.457 241.967 164.633 241.668 164.754C241.371 164.874 241.062 164.934 240.741 164.934C240.278 164.934 239.87 164.837 239.518 164.642C239.169 164.445 238.896 164.164 238.698 163.799C238.504 163.435 238.406 163.001 238.406 162.497C238.406 162.006 238.496 161.571 238.675 161.191C238.854 160.808 239.112 160.507 239.449 160.288C239.788 160.068 240.196 159.959 240.672 159.959C241.144 159.959 241.541 160.059 241.862 160.26C242.187 160.461 242.431 160.742 242.594 161.103C242.761 161.461 242.844 161.881 242.844 162.363V162.706H239.532ZM239.532 162.006H241.779C241.779 161.775 241.739 161.566 241.658 161.381C241.578 161.193 241.455 161.044 241.288 160.936C241.124 160.825 240.917 160.769 240.667 160.769C240.42 160.769 240.211 160.83 240.042 160.95C239.872 161.071 239.744 161.227 239.657 161.418C239.571 161.606 239.529 161.803 239.532 162.006ZM243.895 164.842V160.051H244.975V161.089C245.052 160.851 245.161 160.649 245.303 160.482C245.449 160.312 245.618 160.183 245.813 160.093C246.008 160.004 246.219 159.959 246.448 159.959C246.503 159.959 246.557 159.962 246.61 159.968C246.662 159.974 246.701 159.985 246.726 160V161.08C246.692 161.064 246.647 161.054 246.591 161.047C246.539 161.041 246.492 161.038 246.452 161.038C246.221 161.02 246.015 161.029 245.836 161.066C245.66 161.103 245.51 161.166 245.387 161.256C245.266 161.342 245.175 161.454 245.113 161.589C245.052 161.722 245.021 161.878 245.021 162.057V164.842H243.895Z" fill="#333333"/>
<g clip-path="url(#clip0_2744_13690)">
<path d="M99.7686 160.502L103.668 156.603L105.339 158.274L101.44 162.173L99.7686 160.502Z" stroke="#F1F6FF" stroke-width="1.1141" stroke-linecap="round" stroke-linejoin="round"/>
<path d="M103.112 157.161L102.276 152.983L94.1987 151.033L96.1484 159.11L100.326 159.946L103.112 157.161Z" stroke="#F1F6FF" stroke-width="1.1141" stroke-linecap="round" stroke-linejoin="round"/>
<path d="M94.1987 151.033L98.4245 155.259" stroke="#F1F6FF" stroke-width="1.1141" stroke-linecap="round" stroke-linejoin="round"/>
<path d="M99.2113 157.16C99.8266 157.16 100.325 156.661 100.325 156.046C100.325 155.43 99.8266 154.932 99.2113 154.932C98.596 154.932 98.0972 155.43 98.0972 156.046C98.0972 156.661 98.596 157.16 99.2113 157.16Z" stroke="#F1F6FF" stroke-width="1.1141" stroke-linecap="round" stroke-linejoin="round"/>
</g>
<rect x="48.1152" y="213.118" width="313.569" height="177.446" fill="url(#paint0_linear_2744_13690)"/>
<defs>
<filter id="filter0_d_2744_13690" x="34.1588" y="30.8244" width="343.912" height="379.158" filterUnits="userSpaceOnUse" color-interpolation-filters="sRGB">
<feFlood flood-opacity="0" result="BackgroundImageFix"/>
<feColorMatrix in="SourceAlpha" type="matrix" values="0 0 0 0 0 0 0 0 0 0 0 0 0 0 0 0 0 0 127 0" result="hardAlpha"/>
<feOffset dy="4.24686"/>
<feGaussianBlur stdDeviation="6.37029"/>
<feColorMatrix type="matrix" values="0 0 0 0 0 0 0 0 0 0 0 0 0 0 0 0 0 0 0.15 0"/>
<feBlend mode="normal" in2="BackgroundImageFix" result="effect1_dropShadow_2744_13690"/>
<feBlend mode="normal" in="SourceGraphic" in2="effect1_dropShadow_2744_13690" result="shape"/>
</filter>
<filter id="filter1_d_2744_13690" x="46.8994" y="39.3181" width="318.431" height="48.6153" filterUnits="userSpaceOnUse" color-interpolation-filters="sRGB">
<feFlood flood-opacity="0" result="BackgroundImageFix"/>
<feColorMatrix in="SourceAlpha" type="matrix" values="0 0 0 0 0 0 0 0 0 0 0 0 0 0 0 0 0 0 127 0" result="hardAlpha"/>
<feOffset dy="1.21538"/>
<feColorMatrix type="matrix" values="0 0 0 0 0.952941 0 0 0 0 0.956863 0 0 0 0 0.956863 0 0 0 1 0"/>
<feBlend mode="normal" in2="BackgroundImageFix" result="effect1_dropShadow_2744_13690"/>
<feBlend mode="normal" in="SourceGraphic" in2="effect1_dropShadow_2744_13690" result="shape"/>
</filter>
<filter id="filter2_d_2744_13690" x="57.6589" y="121.441" width="292.05" height="75.7119" filterUnits="userSpaceOnUse" color-interpolation-filters="sRGB">
<feFlood flood-opacity="0" result="BackgroundImageFix"/>
<feColorMatrix in="SourceAlpha" type="matrix" values="0 0 0 0 0 0 0 0 0 0 0 0 0 0 0 0 0 0 127 0" result="hardAlpha"/>
<feOffset dy="3.3007"/>
<feGaussianBlur stdDeviation="4.95105"/>
<feColorMatrix type="matrix" values="0 0 0 0 0 0 0 0 0 0 0 0 0 0 0 0 0 0 0.15 0"/>
<feBlend mode="normal" in2="BackgroundImageFix" result="effect1_dropShadow_2744_13690"/>
<feBlend mode="normal" in="SourceGraphic" in2="effect1_dropShadow_2744_13690" result="shape"/>
</filter>
<filter id="filter3_d_2744_13690" x="114.401" y="301.063" width="223.535" height="78.9045" filterUnits="userSpaceOnUse" color-interpolation-filters="sRGB">
<feFlood flood-opacity="0" result="BackgroundImageFix"/>
<feColorMatrix in="SourceAlpha" type="matrix" values="0 0 0 0 0 0 0 0 0 0 0 0 0 0 0 0 0 0 127 0" result="hardAlpha"/>
<feOffset dy="3.42767"/>
<feGaussianBlur stdDeviation="5.1415"/>
<feColorMatrix type="matrix" values="0 0 0 0 0 0 0 0 0 0 0 0 0 0 0 0 0 0 0.15 0"/>
<feBlend mode="normal" in2="BackgroundImageFix" result="effect1_dropShadow_2744_13690"/>
<feBlend mode="normal" in="SourceGraphic" in2="effect1_dropShadow_2744_13690" result="shape"/>
</filter>
<filter id="filter4_d_2744_13690" x="114.401" y="224.494" width="223.535" height="78.9044" filterUnits="userSpaceOnUse" color-interpolation-filters="sRGB">
<feFlood flood-opacity="0" result="BackgroundImageFix"/>
<feColorMatrix in="SourceAlpha" type="matrix" values="0 0 0 0 0 0 0 0 0 0 0 0 0 0 0 0 0 0 127 0" result="hardAlpha"/>
<feOffset dy="3.42767"/>
<feGaussianBlur stdDeviation="5.1415"/>
<feColorMatrix type="matrix" values="0 0 0 0 0 0 0 0 0 0 0 0 0 0 0 0 0 0 0.15 0"/>
<feBlend mode="normal" in2="BackgroundImageFix" result="effect1_dropShadow_2744_13690"/>
<feBlend mode="normal" in="SourceGraphic" in2="effect1_dropShadow_2744_13690" result="shape"/>
</filter>
<linearGradient id="paint0_linear_2744_13690" x1="198.132" y1="390.565" x2="198.132" y2="221.123" gradientUnits="userSpaceOnUse">
<stop stop-color="white"/>
<stop offset="1" stop-color="white" stop-opacity="0"/>
</linearGradient>
<clipPath id="clip0_2744_13690">
<rect width="13.3692" height="13.3692" fill="white" transform="translate(93.084 149.918)"/>
</clipPath>
</defs>
</svg>
