<svg width="420" height="420" viewBox="0 0 420 420" fill="none" xmlns="http://www.w3.org/2000/svg">
<rect width="420" height="420" fill="white"/>
<circle cx="210.5" cy="210.5" r="187.5" fill="#FAFAFA"/>
<g filter="url(#filter0_d)">
<rect x="50.4678" y="52.8564" width="330.812" height="303.344" rx="4.73504" fill="white"/>
</g>
<g filter="url(#filter1_d)">
<path d="M50.4678 57.5915C50.4678 54.9764 52.5877 52.8564 55.2028 52.8564H376.545C379.16 52.8564 381.28 54.9764 381.28 57.5915V98.8131L215.874 99.5094L50.4678 98.8131V57.5915Z" fill="#FAFAFA"/>
</g>
<path d="M169.375 77.6328L169.364 72.6894L166.914 76.7805H166.296L163.846 72.7534V77.6328H162.525V70.1751H163.665L166.626 75.1185L169.535 70.1751H170.675L170.685 77.6328H169.375ZM177.899 71.9437L175.236 78.0909C174.987 78.7089 174.685 79.1421 174.33 79.3907C173.975 79.6464 173.545 79.7742 173.041 79.7742C172.757 79.7742 172.476 79.7281 172.199 79.6357C171.922 79.5434 171.695 79.4156 171.517 79.2522L172.05 78.272C172.178 78.3928 172.327 78.4887 172.497 78.5597C172.675 78.6307 172.853 78.6662 173.03 78.6662C173.265 78.6662 173.456 78.6059 173.605 78.4851C173.762 78.3644 173.904 78.162 174.032 77.8779L174.128 77.6541L171.645 71.9437H173.03L174.82 76.1519L176.621 71.9437H177.899ZM183.434 77.7074C182.972 77.7074 182.521 77.647 182.081 77.5263C181.64 77.4055 181.289 77.2528 181.026 77.0682L181.537 76.056C181.793 76.2265 182.098 76.365 182.453 76.4715C182.816 76.571 183.171 76.6207 183.519 76.6207C184.314 76.6207 184.712 76.4112 184.712 75.9921C184.712 75.7932 184.609 75.6547 184.403 75.5766C184.204 75.4985 183.881 75.4239 183.434 75.3529C182.965 75.2819 182.581 75.2002 182.283 75.1079C181.992 75.0155 181.736 74.8557 181.516 74.6284C181.303 74.394 181.196 74.0709 181.196 73.6589C181.196 73.1191 181.42 72.6894 181.867 72.3698C182.322 72.0431 182.933 71.8797 183.7 71.8797C184.091 71.8797 184.481 71.9259 184.872 72.0182C185.262 72.1035 185.582 72.2207 185.831 72.3698L185.319 73.3819C184.836 73.0978 184.293 72.9558 183.689 72.9558C183.299 72.9558 183 73.0161 182.794 73.1369C182.595 73.2505 182.496 73.4032 182.496 73.595C182.496 73.8081 182.603 73.9608 182.816 74.0531C183.036 74.1384 183.373 74.22 183.828 74.2982C184.282 74.3692 184.655 74.4509 184.946 74.5432C185.238 74.6355 185.486 74.7918 185.692 75.012C185.905 75.2321 186.012 75.5447 186.012 75.9495C186.012 76.4822 185.781 76.9084 185.319 77.228C184.858 77.5476 184.229 77.7074 183.434 77.7074ZM189.481 75.1931L188.49 76.1306V77.6328H187.159V69.7277H188.49V74.5006L191.25 71.9437H192.848L190.472 74.3301L193.072 77.6328H191.452L189.481 75.1931ZM193.88 71.9437H195.211V77.6328H193.88V71.9437ZM194.551 71.0061C194.309 71.0061 194.107 70.9315 193.944 70.7824C193.78 70.6261 193.699 70.4344 193.699 70.2071C193.699 69.9798 193.78 69.7916 193.944 69.6424C194.107 69.4862 194.309 69.408 194.551 69.408C194.792 69.408 194.995 69.4826 195.158 69.6318C195.322 69.7738 195.403 69.9549 195.403 70.1751C195.403 70.4095 195.322 70.6084 195.158 70.7717C195.002 70.928 194.8 71.0061 194.551 71.0061ZM196.959 69.7277H198.291V77.6328H196.959V69.7277ZM200.039 69.7277H201.371V77.6328H200.039V69.7277ZM208.673 77.7074C208.084 77.7074 207.555 77.5831 207.086 77.3345C206.617 77.0859 206.251 76.7414 205.988 76.3011C205.726 75.8536 205.594 75.3493 205.594 74.7882C205.594 74.2271 205.726 73.7264 205.988 73.286C206.251 72.8457 206.613 72.5012 207.075 72.2526C207.544 72.004 208.077 71.8797 208.673 71.8797C209.234 71.8797 209.724 71.9934 210.143 72.2207C210.57 72.4479 210.889 72.7747 211.102 73.2008L210.079 73.7974C209.916 73.5346 209.71 73.3393 209.462 73.2115C209.22 73.0765 208.954 73.009 208.663 73.009C208.165 73.009 207.753 73.1724 207.427 73.4991C207.1 73.8187 206.937 74.2484 206.937 74.7882C206.937 75.328 207.096 75.7613 207.416 76.088C207.743 76.4076 208.158 76.5674 208.663 76.5674C208.954 76.5674 209.22 76.5035 209.462 76.3757C209.71 76.2407 209.916 76.0418 210.079 75.779L211.102 76.3757C210.882 76.8018 210.559 77.1321 210.133 77.3665C209.714 77.5937 209.227 77.7074 208.673 77.7074ZM214.727 77.7074C214.152 77.7074 213.633 77.5831 213.172 77.3345C212.71 77.0859 212.348 76.7414 212.085 76.3011C211.829 75.8536 211.701 75.3493 211.701 74.7882C211.701 74.2271 211.829 73.7264 212.085 73.286C212.348 72.8457 212.71 72.5012 213.172 72.2526C213.633 72.004 214.152 71.8797 214.727 71.8797C215.31 71.8797 215.832 72.004 216.293 72.2526C216.755 72.5012 217.114 72.8457 217.369 73.286C217.632 73.7264 217.763 74.2271 217.763 74.7882C217.763 75.3493 217.632 75.8536 217.369 76.3011C217.114 76.7414 216.755 77.0859 216.293 77.3345C215.832 77.5831 215.31 77.7074 214.727 77.7074ZM214.727 76.5674C215.217 76.5674 215.622 76.4041 215.942 76.0774C216.261 75.7506 216.421 75.3209 216.421 74.7882C216.421 74.2555 216.261 73.8258 215.942 73.4991C215.622 73.1724 215.217 73.009 214.727 73.009C214.237 73.009 213.832 73.1724 213.513 73.4991C213.2 73.8258 213.044 74.2555 213.044 74.7882C213.044 75.3209 213.2 75.7506 213.513 76.0774C213.832 76.4041 214.237 76.5674 214.727 76.5674ZM226.218 71.8797C226.935 71.8797 227.503 72.0893 227.922 72.5083C228.341 72.9203 228.551 73.5417 228.551 74.3727V77.6328H227.219V74.5432C227.219 74.046 227.109 73.6731 226.889 73.4245C226.669 73.1689 226.353 73.041 225.941 73.041C225.493 73.041 225.135 73.1902 224.865 73.4885C224.595 73.7797 224.46 74.1987 224.46 74.7456V77.6328H223.128V74.5432C223.128 74.046 223.018 73.6731 222.798 73.4245C222.578 73.1689 222.262 73.041 221.85 73.041C221.395 73.041 221.033 73.1866 220.763 73.4778C220.5 73.769 220.369 74.1916 220.369 74.7456V77.6328H219.037V71.9437H220.305V72.6681C220.518 72.4124 220.784 72.2171 221.104 72.0822C221.423 71.9472 221.779 71.8797 222.169 71.8797C222.595 71.8797 222.972 71.9614 223.298 72.1248C223.632 72.281 223.895 72.5154 224.087 72.8279C224.321 72.5296 224.623 72.2988 224.992 72.1354C225.362 71.965 225.77 71.8797 226.218 71.8797ZM233.406 71.8797C233.96 71.8797 234.454 72.0005 234.887 72.242C235.327 72.4835 235.672 72.8244 235.92 73.2647C236.169 73.7051 236.293 74.2129 236.293 74.7882C236.293 75.3635 236.169 75.8749 235.92 76.3224C235.672 76.7627 235.327 77.1037 234.887 77.3452C234.454 77.5866 233.96 77.7074 233.406 77.7074C232.639 77.7074 232.032 77.4517 231.584 76.9403V79.6997H230.253V71.9437H231.52V72.6894C231.741 72.4195 232.011 72.2171 232.33 72.0822C232.657 71.9472 233.016 71.8797 233.406 71.8797ZM233.257 76.5674C233.747 76.5674 234.148 76.4041 234.461 76.0774C234.781 75.7506 234.94 75.3209 234.94 74.7882C234.94 74.2555 234.781 73.8258 234.461 73.4991C234.148 73.1724 233.747 73.009 233.257 73.009C232.937 73.009 232.65 73.0836 232.394 73.2328C232.138 73.3748 231.936 73.5808 231.787 73.8507C231.638 74.1206 231.563 74.4331 231.563 74.7882C231.563 75.1434 231.638 75.4559 231.787 75.7258C231.936 75.9957 232.138 76.2052 232.394 76.3544C232.65 76.4964 232.937 76.5674 233.257 76.5674ZM239.657 71.8797C240.495 71.8797 241.134 72.0822 241.575 72.487C242.022 72.8847 242.246 73.4885 242.246 74.2982V77.6328H240.989V76.9403C240.825 77.1889 240.591 77.3807 240.285 77.5156C239.987 77.6435 239.625 77.7074 239.199 77.7074C238.773 77.7074 238.4 77.6364 238.08 77.4943C237.761 77.3452 237.512 77.1427 237.334 76.887C237.164 76.6242 237.079 76.3295 237.079 76.0028C237.079 75.4914 237.267 75.083 237.643 74.7776C238.027 74.4651 238.627 74.3088 239.444 74.3088H240.914V74.2236C240.914 73.8258 240.793 73.5204 240.552 73.3074C240.317 73.0943 239.966 72.9877 239.497 72.9877C239.177 72.9877 238.861 73.0375 238.549 73.1369C238.243 73.2363 237.984 73.3748 237.771 73.5524L237.249 72.5829C237.547 72.3556 237.906 72.1816 238.325 72.0609C238.744 71.9401 239.188 71.8797 239.657 71.8797ZM239.476 76.7379C239.81 76.7379 240.104 76.6633 240.36 76.5142C240.623 76.3579 240.808 76.1377 240.914 75.8536V75.1931H239.54C238.773 75.1931 238.389 75.4452 238.389 75.9495C238.389 76.191 238.485 76.3828 238.677 76.5248C238.869 76.6669 239.135 76.7379 239.476 76.7379ZM245.223 72.7747C245.606 72.178 246.281 71.8797 247.247 71.8797V73.1475C247.133 73.1262 247.03 73.1156 246.938 73.1156C246.419 73.1156 246.015 73.2683 245.723 73.5737C245.432 73.872 245.287 74.3053 245.287 74.8735V77.6328H243.955V71.9437H245.223V72.7747ZM248.377 71.9437H249.708V77.6328H248.377V71.9437ZM249.048 71.0061C248.806 71.0061 248.604 70.9315 248.441 70.7824C248.277 70.6261 248.196 70.4344 248.196 70.2071C248.196 69.9798 248.277 69.7916 248.441 69.6424C248.604 69.4862 248.806 69.408 249.048 69.408C249.289 69.408 249.492 69.4826 249.655 69.6318C249.818 69.7738 249.9 69.9549 249.9 70.1751C249.9 70.4095 249.818 70.6084 249.655 70.7717C249.499 70.928 249.296 71.0061 249.048 71.0061ZM253.214 77.7074C252.753 77.7074 252.301 77.647 251.861 77.5263C251.421 77.4055 251.069 77.2528 250.806 77.0682L251.318 76.056C251.573 76.2265 251.879 76.365 252.234 76.4715C252.596 76.571 252.951 76.6207 253.299 76.6207C254.095 76.6207 254.493 76.4112 254.493 75.9921C254.493 75.7932 254.39 75.6547 254.184 75.5766C253.985 75.4985 253.662 75.4239 253.214 75.3529C252.745 75.2819 252.362 75.2002 252.064 75.1079C251.772 75.0155 251.517 74.8557 251.296 74.6284C251.083 74.394 250.977 74.0709 250.977 73.6589C250.977 73.1191 251.201 72.6894 251.648 72.3698C252.103 72.0431 252.713 71.8797 253.481 71.8797C253.871 71.8797 254.262 71.9259 254.652 72.0182C255.043 72.1035 255.363 72.2207 255.611 72.3698L255.1 73.3819C254.617 73.0978 254.074 72.9558 253.47 72.9558C253.079 72.9558 252.781 73.0161 252.575 73.1369C252.376 73.2505 252.277 73.4032 252.277 73.595C252.277 73.8081 252.383 73.9608 252.596 74.0531C252.816 74.1384 253.154 74.22 253.608 74.2982C254.063 74.3692 254.436 74.4509 254.727 74.5432C255.018 74.6355 255.267 74.7918 255.473 75.012C255.686 75.2321 255.792 75.5447 255.792 75.9495C255.792 76.4822 255.562 76.9084 255.1 77.228C254.638 77.5476 254.01 77.7074 253.214 77.7074ZM259.496 77.7074C258.921 77.7074 258.402 77.5831 257.941 77.3345C257.479 77.0859 257.117 76.7414 256.854 76.3011C256.598 75.8536 256.47 75.3493 256.47 74.7882C256.47 74.2271 256.598 73.7264 256.854 73.286C257.117 72.8457 257.479 72.5012 257.941 72.2526C258.402 72.004 258.921 71.8797 259.496 71.8797C260.079 71.8797 260.601 72.004 261.062 72.2526C261.524 72.5012 261.883 72.8457 262.138 73.286C262.401 73.7264 262.533 74.2271 262.533 74.7882C262.533 75.3493 262.401 75.8536 262.138 76.3011C261.883 76.7414 261.524 77.0859 261.062 77.3345C260.601 77.5831 260.079 77.7074 259.496 77.7074ZM259.496 76.5674C259.986 76.5674 260.391 76.4041 260.711 76.0774C261.03 75.7506 261.19 75.3209 261.19 74.7882C261.19 74.2555 261.03 73.8258 260.711 73.4991C260.391 73.1724 259.986 73.009 259.496 73.009C259.006 73.009 258.601 73.1724 258.282 73.4991C257.969 73.8258 257.813 74.2555 257.813 74.7882C257.813 75.3209 257.969 75.7506 258.282 76.0774C258.601 76.4041 259.006 76.5674 259.496 76.5674ZM267.034 71.8797C267.751 71.8797 268.327 72.0893 268.76 72.5083C269.193 72.9274 269.41 73.5488 269.41 74.3727V77.6328H268.078V74.5432C268.078 74.046 267.961 73.6731 267.727 73.4245C267.492 73.1689 267.158 73.041 266.725 73.041C266.235 73.041 265.848 73.1902 265.564 73.4885C265.28 73.7797 265.138 74.2023 265.138 74.7563V77.6328H263.806V71.9437H265.074V72.6788C265.294 72.416 265.571 72.2171 265.905 72.0822C266.239 71.9472 266.615 71.8797 267.034 71.8797Z" fill="#333333"/>
<path d="M215.874 100.03L215.874 355.64" stroke="#F3F4F4" stroke-width="1.18376"/>
<path d="M86.2779 119.256V121.479H85.1079V119.274L82.6329 115.179H83.8839L85.7289 118.248L87.5919 115.179H88.7439L86.2779 119.256ZM91.0259 121.542C90.5399 121.542 90.1019 121.437 89.7119 121.227C89.3219 121.017 89.0159 120.726 88.7939 120.354C88.5779 119.976 88.4699 119.55 88.4699 119.076C88.4699 118.602 88.5779 118.179 88.7939 117.807C89.0159 117.435 89.3219 117.144 89.7119 116.934C90.1019 116.724 90.5399 116.619 91.0259 116.619C91.5179 116.619 91.9589 116.724 92.3489 116.934C92.7389 117.144 93.0419 117.435 93.2579 117.807C93.4799 118.179 93.5909 118.602 93.5909 119.076C93.5909 119.55 93.4799 119.976 93.2579 120.354C93.0419 120.726 92.7389 121.017 92.3489 121.227C91.9589 121.437 91.5179 121.542 91.0259 121.542ZM91.0259 120.579C91.4399 120.579 91.7819 120.441 92.0519 120.165C92.3219 119.889 92.4569 119.526 92.4569 119.076C92.4569 118.626 92.3219 118.263 92.0519 117.987C91.7819 117.711 91.4399 117.573 91.0259 117.573C90.6119 117.573 90.2699 117.711 89.9999 117.987C89.7359 118.263 89.6039 118.626 89.6039 119.076C89.6039 119.526 89.7359 119.889 89.9999 120.165C90.2699 120.441 90.6119 120.579 91.0259 120.579ZM99.3197 116.673V121.479H98.2487V120.867C98.0687 121.083 97.8437 121.251 97.5737 121.371C97.3037 121.485 97.0127 121.542 96.7007 121.542C96.0587 121.542 95.5517 121.365 95.1797 121.011C94.8137 120.651 94.6307 120.12 94.6307 119.418V116.673H95.7557V119.265C95.7557 119.697 95.8517 120.021 96.0437 120.237C96.2417 120.447 96.5207 120.552 96.8807 120.552C97.2827 120.552 97.6007 120.429 97.8347 120.183C98.0747 119.931 98.1947 119.571 98.1947 119.103V116.673H99.3197ZM101.864 117.375C102.188 116.871 102.758 116.619 103.574 116.619V117.69C103.478 117.672 103.391 117.663 103.313 117.663C102.875 117.663 102.533 117.792 102.287 118.05C102.041 118.302 101.918 118.668 101.918 119.148V121.479H100.793V116.673H101.864V117.375ZM109.264 121.542C108.766 121.542 108.319 121.437 107.923 121.227C107.527 121.017 107.218 120.726 106.996 120.354C106.774 119.976 106.663 119.55 106.663 119.076C106.663 118.602 106.774 118.179 106.996 117.807C107.218 117.435 107.524 117.144 107.914 116.934C108.31 116.724 108.76 116.619 109.264 116.619C109.738 116.619 110.152 116.715 110.506 116.907C110.866 117.099 111.136 117.375 111.316 117.735L110.452 118.239C110.314 118.017 110.14 117.852 109.93 117.744C109.726 117.63 109.501 117.573 109.255 117.573C108.835 117.573 108.487 117.711 108.211 117.987C107.935 118.257 107.797 118.62 107.797 119.076C107.797 119.532 107.932 119.898 108.202 120.174C108.478 120.444 108.829 120.579 109.255 120.579C109.501 120.579 109.726 120.525 109.93 120.417C110.14 120.303 110.314 120.135 110.452 119.913L111.316 120.417C111.13 120.777 110.857 121.056 110.497 121.254C110.143 121.446 109.732 121.542 109.264 121.542ZM116.942 116.673V121.479H115.871V120.867C115.691 121.083 115.466 121.251 115.196 121.371C114.926 121.485 114.635 121.542 114.323 121.542C113.681 121.542 113.174 121.365 112.802 121.011C112.436 120.651 112.253 120.12 112.253 119.418V116.673H113.378V119.265C113.378 119.697 113.474 120.021 113.666 120.237C113.864 120.447 114.143 120.552 114.503 120.552C114.905 120.552 115.223 120.429 115.457 120.183C115.697 119.931 115.817 119.571 115.817 119.103V116.673H116.942ZM119.486 117.375C119.81 116.871 120.38 116.619 121.196 116.619V117.69C121.1 117.672 121.013 117.663 120.935 117.663C120.497 117.663 120.155 117.792 119.909 118.05C119.663 118.302 119.54 118.668 119.54 119.148V121.479H118.415V116.673H119.486V117.375ZM123.221 117.375C123.545 116.871 124.115 116.619 124.931 116.619V117.69C124.835 117.672 124.748 117.663 124.67 117.663C124.232 117.663 123.89 117.792 123.644 118.05C123.398 118.302 123.275 118.668 123.275 119.148V121.479H122.15V116.673H123.221V117.375ZM130.36 119.103C130.36 119.181 130.354 119.292 130.342 119.436H126.571C126.637 119.79 126.808 120.072 127.084 120.282C127.366 120.486 127.714 120.588 128.128 120.588C128.656 120.588 129.091 120.414 129.433 120.066L130.036 120.759C129.82 121.017 129.547 121.212 129.217 121.344C128.887 121.476 128.515 121.542 128.101 121.542C127.573 121.542 127.108 121.437 126.706 121.227C126.304 121.017 125.992 120.726 125.77 120.354C125.554 119.976 125.446 119.55 125.446 119.076C125.446 118.608 125.551 118.188 125.761 117.816C125.977 117.438 126.274 117.144 126.652 116.934C127.03 116.724 127.456 116.619 127.93 116.619C128.398 116.619 128.815 116.724 129.181 116.934C129.553 117.138 129.841 117.429 130.045 117.807C130.255 118.179 130.36 118.611 130.36 119.103ZM127.93 117.519C127.57 117.519 127.264 117.627 127.012 117.843C126.766 118.053 126.616 118.335 126.562 118.689H129.289C129.241 118.341 129.094 118.059 128.848 117.843C128.602 117.627 128.296 117.519 127.93 117.519ZM134.167 116.619C134.773 116.619 135.259 116.796 135.625 117.15C135.991 117.504 136.174 118.029 136.174 118.725V121.479H135.049V118.869C135.049 118.449 134.95 118.134 134.752 117.924C134.554 117.708 134.272 117.6 133.906 117.6C133.492 117.6 133.165 117.726 132.925 117.978C132.685 118.224 132.565 118.581 132.565 119.049V121.479H131.44V116.673H132.511V117.294C132.697 117.072 132.931 116.904 133.213 116.79C133.495 116.676 133.813 116.619 134.167 116.619ZM140.49 121.218C140.358 121.326 140.196 121.407 140.004 121.461C139.818 121.515 139.62 121.542 139.41 121.542C138.882 121.542 138.474 121.404 138.186 121.128C137.898 120.852 137.754 120.45 137.754 119.922V117.609H136.962V116.709H137.754V115.611H138.879V116.709H140.166V117.609H138.879V119.895C138.879 120.129 138.936 120.309 139.05 120.435C139.164 120.555 139.329 120.615 139.545 120.615C139.797 120.615 140.007 120.549 140.175 120.417L140.49 121.218ZM144.974 117.375C145.298 116.871 145.868 116.619 146.684 116.619V117.69C146.588 117.672 146.501 117.663 146.423 117.663C145.985 117.663 145.643 117.792 145.397 118.05C145.151 118.302 145.028 118.668 145.028 119.148V121.479H143.903V116.673H144.974V117.375ZM149.754 121.542C149.268 121.542 148.83 121.437 148.44 121.227C148.05 121.017 147.744 120.726 147.522 120.354C147.306 119.976 147.198 119.55 147.198 119.076C147.198 118.602 147.306 118.179 147.522 117.807C147.744 117.435 148.05 117.144 148.44 116.934C148.83 116.724 149.268 116.619 149.754 116.619C150.246 116.619 150.687 116.724 151.077 116.934C151.467 117.144 151.77 117.435 151.986 117.807C152.208 118.179 152.319 118.602 152.319 119.076C152.319 119.55 152.208 119.976 151.986 120.354C151.77 120.726 151.467 121.017 151.077 121.227C150.687 121.437 150.246 121.542 149.754 121.542ZM149.754 120.579C150.168 120.579 150.51 120.441 150.78 120.165C151.05 119.889 151.185 119.526 151.185 119.076C151.185 118.626 151.05 118.263 150.78 117.987C150.51 117.711 150.168 117.573 149.754 117.573C149.34 117.573 148.998 117.711 148.728 117.987C148.464 118.263 148.332 118.626 148.332 119.076C148.332 119.526 148.464 119.889 148.728 120.165C148.998 120.441 149.34 120.579 149.754 120.579ZM153.395 114.801H154.52V121.479H153.395V114.801ZM160.515 119.103C160.515 119.181 160.509 119.292 160.497 119.436H156.726C156.792 119.79 156.963 120.072 157.239 120.282C157.521 120.486 157.869 120.588 158.283 120.588C158.811 120.588 159.246 120.414 159.588 120.066L160.191 120.759C159.975 121.017 159.702 121.212 159.372 121.344C159.042 121.476 158.67 121.542 158.256 121.542C157.728 121.542 157.263 121.437 156.861 121.227C156.459 121.017 156.147 120.726 155.925 120.354C155.709 119.976 155.601 119.55 155.601 119.076C155.601 118.608 155.706 118.188 155.916 117.816C156.132 117.438 156.429 117.144 156.807 116.934C157.185 116.724 157.611 116.619 158.085 116.619C158.553 116.619 158.97 116.724 159.336 116.934C159.708 117.138 159.996 117.429 160.2 117.807C160.41 118.179 160.515 118.611 160.515 119.103ZM158.085 117.519C157.725 117.519 157.419 117.627 157.167 117.843C156.921 118.053 156.771 118.335 156.717 118.689H159.444C159.396 118.341 159.249 118.059 159.003 117.843C158.757 117.627 158.451 117.519 158.085 117.519Z" fill="#585858"/>
<path d="M264.194 119.153V121.376H263.024V119.171L260.549 115.076H261.8L263.645 118.145L265.508 115.076H266.66L264.194 119.153ZM268.942 121.439C268.456 121.439 268.018 121.334 267.628 121.124C267.238 120.914 266.932 120.623 266.71 120.251C266.494 119.873 266.386 119.447 266.386 118.973C266.386 118.499 266.494 118.076 266.71 117.704C266.932 117.332 267.238 117.041 267.628 116.831C268.018 116.621 268.456 116.516 268.942 116.516C269.434 116.516 269.875 116.621 270.265 116.831C270.655 117.041 270.958 117.332 271.174 117.704C271.396 118.076 271.507 118.499 271.507 118.973C271.507 119.447 271.396 119.873 271.174 120.251C270.958 120.623 270.655 120.914 270.265 121.124C269.875 121.334 269.434 121.439 268.942 121.439ZM268.942 120.476C269.356 120.476 269.698 120.338 269.968 120.062C270.238 119.786 270.373 119.423 270.373 118.973C270.373 118.523 270.238 118.16 269.968 117.884C269.698 117.608 269.356 117.47 268.942 117.47C268.528 117.47 268.186 117.608 267.916 117.884C267.652 118.16 267.52 118.523 267.52 118.973C267.52 119.423 267.652 119.786 267.916 120.062C268.186 120.338 268.528 120.476 268.942 120.476ZM277.236 116.57V121.376H276.165V120.764C275.985 120.98 275.76 121.148 275.49 121.268C275.22 121.382 274.929 121.439 274.617 121.439C273.975 121.439 273.468 121.262 273.096 120.908C272.73 120.548 272.547 120.017 272.547 119.315V116.57H273.672V119.162C273.672 119.594 273.768 119.918 273.96 120.134C274.158 120.344 274.437 120.449 274.797 120.449C275.199 120.449 275.517 120.326 275.751 120.08C275.991 119.828 276.111 119.468 276.111 119V116.57H277.236ZM279.78 117.272C280.104 116.768 280.674 116.516 281.49 116.516V117.587C281.394 117.569 281.307 117.56 281.229 117.56C280.791 117.56 280.449 117.689 280.203 117.947C279.957 118.199 279.834 118.565 279.834 119.045V121.376H278.709V116.57H279.78V117.272ZM287.865 121.115C287.733 121.223 287.571 121.304 287.379 121.358C287.193 121.412 286.995 121.439 286.785 121.439C286.257 121.439 285.849 121.301 285.561 121.025C285.273 120.749 285.129 120.347 285.129 119.819V117.506H284.337V116.606H285.129V115.508H286.254V116.606H287.541V117.506H286.254V119.792C286.254 120.026 286.311 120.206 286.425 120.332C286.539 120.452 286.704 120.512 286.92 120.512C287.172 120.512 287.382 120.446 287.55 120.314L287.865 121.115ZM290.626 116.516C291.334 116.516 291.874 116.687 292.246 117.029C292.624 117.365 292.813 117.875 292.813 118.559V121.376H291.751V120.791C291.613 121.001 291.415 121.163 291.157 121.277C290.905 121.385 290.599 121.439 290.239 121.439C289.879 121.439 289.564 121.379 289.294 121.259C289.024 121.133 288.814 120.962 288.664 120.746C288.52 120.524 288.448 120.275 288.448 119.999C288.448 119.567 288.607 119.222 288.925 118.964C289.249 118.7 289.756 118.568 290.446 118.568H291.688V118.496C291.688 118.16 291.586 117.902 291.382 117.722C291.184 117.542 290.887 117.452 290.491 117.452C290.221 117.452 289.954 117.494 289.69 117.578C289.432 117.662 289.213 117.779 289.033 117.929L288.592 117.11C288.844 116.918 289.147 116.771 289.501 116.669C289.855 116.567 290.23 116.516 290.626 116.516ZM290.473 120.62C290.755 120.62 291.004 120.557 291.22 120.431C291.442 120.299 291.598 120.113 291.688 119.873V119.315H290.527C289.879 119.315 289.555 119.528 289.555 119.954C289.555 120.158 289.636 120.32 289.798 120.44C289.96 120.56 290.185 120.62 290.473 120.62ZM295.328 117.272C295.652 116.768 296.222 116.516 297.038 116.516V117.587C296.942 117.569 296.855 117.56 296.777 117.56C296.339 117.56 295.997 117.689 295.751 117.947C295.505 118.199 295.382 118.565 295.382 119.045V121.376H294.257V116.57H295.328V117.272ZM302.718 116.57V120.647C302.718 122.339 301.854 123.185 300.126 123.185C299.664 123.185 299.226 123.125 298.812 123.005C298.398 122.891 298.056 122.723 297.786 122.501L298.29 121.655C298.5 121.829 298.764 121.967 299.082 122.069C299.406 122.177 299.733 122.231 300.063 122.231C300.591 122.231 300.978 122.111 301.224 121.871C301.47 121.631 301.593 121.265 301.593 120.773V120.521C301.401 120.731 301.167 120.89 300.891 120.998C300.615 121.106 300.312 121.16 299.982 121.16C299.526 121.16 299.112 121.064 298.74 120.872C298.374 120.674 298.083 120.398 297.867 120.044C297.657 119.69 297.552 119.285 297.552 118.829C297.552 118.373 297.657 117.971 297.867 117.623C298.083 117.269 298.374 116.996 298.74 116.804C299.112 116.612 299.526 116.516 299.982 116.516C300.33 116.516 300.645 116.573 300.927 116.687C301.215 116.801 301.455 116.975 301.647 117.209V116.57H302.718ZM300.153 120.206C300.579 120.206 300.927 120.08 301.197 119.828C301.473 119.57 301.611 119.237 301.611 118.829C301.611 118.427 301.473 118.1 301.197 117.848C300.927 117.596 300.579 117.47 300.153 117.47C299.721 117.47 299.367 117.596 299.091 117.848C298.821 118.1 298.686 118.427 298.686 118.829C298.686 119.237 298.821 119.57 299.091 119.828C299.367 120.08 299.721 120.206 300.153 120.206ZM308.715 119C308.715 119.078 308.709 119.189 308.697 119.333H304.926C304.992 119.687 305.163 119.969 305.439 120.179C305.721 120.383 306.069 120.485 306.483 120.485C307.011 120.485 307.446 120.311 307.788 119.963L308.391 120.656C308.175 120.914 307.902 121.109 307.572 121.241C307.242 121.373 306.87 121.439 306.456 121.439C305.928 121.439 305.463 121.334 305.061 121.124C304.659 120.914 304.347 120.623 304.125 120.251C303.909 119.873 303.801 119.447 303.801 118.973C303.801 118.505 303.906 118.085 304.116 117.713C304.332 117.335 304.629 117.041 305.007 116.831C305.385 116.621 305.811 116.516 306.285 116.516C306.753 116.516 307.17 116.621 307.536 116.831C307.908 117.035 308.196 117.326 308.4 117.704C308.61 118.076 308.715 118.508 308.715 119ZM306.285 117.416C305.925 117.416 305.619 117.524 305.367 117.74C305.121 117.95 304.971 118.232 304.917 118.586H307.644C307.596 118.238 307.449 117.956 307.203 117.74C306.957 117.524 306.651 117.416 306.285 117.416ZM312.685 121.115C312.553 121.223 312.391 121.304 312.199 121.358C312.013 121.412 311.815 121.439 311.605 121.439C311.077 121.439 310.669 121.301 310.381 121.025C310.093 120.749 309.949 120.347 309.949 119.819V117.506H309.157V116.606H309.949V115.508H311.074V116.606H312.361V117.506H311.074V119.792C311.074 120.026 311.131 120.206 311.245 120.332C311.359 120.452 311.524 120.512 311.74 120.512C311.992 120.512 312.202 120.446 312.37 120.314L312.685 121.115ZM317.169 117.272C317.493 116.768 318.063 116.516 318.879 116.516V117.587C318.783 117.569 318.696 117.56 318.618 117.56C318.18 117.56 317.838 117.689 317.592 117.947C317.346 118.199 317.223 118.565 317.223 119.045V121.376H316.098V116.57H317.169V117.272ZM321.949 121.439C321.463 121.439 321.025 121.334 320.635 121.124C320.245 120.914 319.939 120.623 319.717 120.251C319.501 119.873 319.393 119.447 319.393 118.973C319.393 118.499 319.501 118.076 319.717 117.704C319.939 117.332 320.245 117.041 320.635 116.831C321.025 116.621 321.463 116.516 321.949 116.516C322.441 116.516 322.882 116.621 323.272 116.831C323.662 117.041 323.965 117.332 324.181 117.704C324.403 118.076 324.514 118.499 324.514 118.973C324.514 119.447 324.403 119.873 324.181 120.251C323.965 120.623 323.662 120.914 323.272 121.124C322.882 121.334 322.441 121.439 321.949 121.439ZM321.949 120.476C322.363 120.476 322.705 120.338 322.975 120.062C323.245 119.786 323.38 119.423 323.38 118.973C323.38 118.523 323.245 118.16 322.975 117.884C322.705 117.608 322.363 117.47 321.949 117.47C321.535 117.47 321.193 117.608 320.923 117.884C320.659 118.16 320.527 118.523 320.527 118.973C320.527 119.423 320.659 119.786 320.923 120.062C321.193 120.338 321.535 120.476 321.949 120.476ZM325.59 114.698H326.715V121.376H325.59V114.698ZM332.71 119C332.71 119.078 332.704 119.189 332.692 119.333H328.921C328.987 119.687 329.158 119.969 329.434 120.179C329.716 120.383 330.064 120.485 330.478 120.485C331.006 120.485 331.441 120.311 331.783 119.963L332.386 120.656C332.17 120.914 331.897 121.109 331.567 121.241C331.237 121.373 330.865 121.439 330.451 121.439C329.923 121.439 329.458 121.334 329.056 121.124C328.654 120.914 328.342 120.623 328.12 120.251C327.904 119.873 327.796 119.447 327.796 118.973C327.796 118.505 327.901 118.085 328.111 117.713C328.327 117.335 328.624 117.041 329.002 116.831C329.38 116.621 329.806 116.516 330.28 116.516C330.748 116.516 331.165 116.621 331.531 116.831C331.903 117.035 332.191 117.326 332.395 117.704C332.605 118.076 332.71 118.508 332.71 119ZM330.28 117.416C329.92 117.416 329.614 117.524 329.362 117.74C329.116 117.95 328.966 118.232 328.912 118.586H331.639C331.591 118.238 331.444 117.956 331.198 117.74C330.952 117.524 330.646 117.416 330.28 117.416Z" fill="#585858"/>
<g filter="url(#filter2_d)">
<path d="M63.6055 308.038C63.6055 307.595 63.9649 307.235 64.4083 307.235H196.765C197.208 307.235 197.568 307.595 197.568 308.038V338.913C197.568 339.357 197.208 339.716 196.765 339.716H64.4083C63.9649 339.716 63.6055 339.357 63.6055 338.913V308.038Z" fill="white"/>
</g>
<circle cx="82.6029" cy="323.17" r="9.19271" fill="#E4E4E6"/>
<circle cx="99.7624" cy="327.461" r="1.83854" fill="#E4E4E6"/>
<rect x="96.6992" y="317.653" width="25.1267" height="3.67708" rx="1.83854" fill="#E4E4E6"/>
<rect x="146.01" y="317.653" width="25.1267" height="3.67708" rx="1.83854" fill="#E4E4E6"/>
<rect x="105.278" y="325.622" width="60.6719" height="3.67708" rx="1.83854" fill="#E4E4E6"/>
<rect x="126.729" y="317.653" width="12.8698" height="3.67708" rx="1.83854" fill="#E4E4E6"/>
<g filter="url(#filter3_d)">
<path d="M230.803 308.038C230.803 307.595 231.162 307.235 231.606 307.235H363.962C364.405 307.235 364.765 307.595 364.765 308.038V338.913C364.765 339.357 364.405 339.716 363.962 339.716H231.606C231.162 339.716 230.803 339.357 230.803 338.913V308.038Z" fill="white"/>
</g>
<circle cx="249.8" cy="323.17" r="9.19271" fill="#E4E4E6"/>
<circle cx="266.96" cy="327.461" r="1.83854" fill="#E4E4E6"/>
<rect x="263.897" y="317.653" width="25.1267" height="3.67708" rx="1.83854" fill="#E4E4E6"/>
<rect x="313.207" y="317.653" width="25.1267" height="3.67708" rx="1.83854" fill="#E4E4E6"/>
<rect x="272.476" y="325.622" width="60.6719" height="3.67708" rx="1.83854" fill="#E4E4E6"/>
<rect x="293.927" y="317.653" width="12.8698" height="3.67708" rx="1.83854" fill="#E4E4E6"/>
<g filter="url(#filter4_d)">
<path d="M63.6055 266.238C63.6055 265.795 63.9649 265.436 64.4083 265.436H196.765C197.208 265.436 197.568 265.795 197.568 266.238V297.114C197.568 297.557 197.208 297.916 196.765 297.916H64.4083C63.9649 297.916 63.6055 297.557 63.6055 297.114V266.238Z" fill="white"/>
</g>
<circle cx="82.6029" cy="281.37" r="9.19271" fill="#E4E4E6"/>
<circle cx="99.7624" cy="285.661" r="1.83854" fill="#E4E4E6"/>
<rect x="96.6992" y="275.854" width="25.1267" height="3.67708" rx="1.83854" fill="#E4E4E6"/>
<rect x="146.01" y="275.854" width="25.1267" height="3.67708" rx="1.83854" fill="#E4E4E6"/>
<rect x="105.278" y="283.822" width="60.6719" height="3.67708" rx="1.83854" fill="#E4E4E6"/>
<rect x="126.729" y="275.854" width="12.8698" height="3.67708" rx="1.83854" fill="#E4E4E6"/>
<g filter="url(#filter5_d)">
<path d="M230.803 266.238C230.803 265.795 231.162 265.436 231.606 265.436H363.962C364.405 265.436 364.765 265.795 364.765 266.238V297.114C364.765 297.557 364.405 297.916 363.962 297.916H231.606C231.162 297.916 230.803 297.557 230.803 297.114V266.238Z" fill="white"/>
</g>
<circle cx="249.8" cy="281.37" r="9.19271" fill="#E4E4E6"/>
<circle cx="266.96" cy="285.661" r="1.83854" fill="#E4E4E6"/>
<rect x="263.897" y="275.854" width="25.1267" height="3.67708" rx="1.83854" fill="#E4E4E6"/>
<rect x="313.207" y="275.854" width="25.1267" height="3.67708" rx="1.83854" fill="#E4E4E6"/>
<rect x="272.476" y="283.822" width="60.6719" height="3.67708" rx="1.83854" fill="#E4E4E6"/>
<rect x="293.927" y="275.854" width="12.8698" height="3.67708" rx="1.83854" fill="#E4E4E6"/>
<g filter="url(#filter6_d)">
<path d="M63.6055 224.441C63.6055 223.997 63.9649 223.638 64.4083 223.638H196.765C197.208 223.638 197.568 223.997 197.568 224.441V255.316C197.568 255.759 197.208 256.119 196.765 256.119H64.4083C63.9649 256.119 63.6055 255.759 63.6055 255.316V224.441Z" fill="white"/>
</g>
<circle cx="82.6029" cy="239.573" r="9.19271" fill="#E4E4E6"/>
<circle cx="99.7624" cy="243.862" r="1.83854" fill="#E4E4E6"/>
<rect x="96.6992" y="234.056" width="25.1267" height="3.67708" rx="1.83854" fill="#E4E4E6"/>
<rect x="146.01" y="234.056" width="25.1267" height="3.67708" rx="1.83854" fill="#E4E4E6"/>
<rect x="105.278" y="242.023" width="60.6719" height="3.67708" rx="1.83854" fill="#E4E4E6"/>
<rect x="126.729" y="234.056" width="12.8698" height="3.67708" rx="1.83854" fill="#E4E4E6"/>
<g filter="url(#filter7_d)">
<path d="M230.803 224.441C230.803 223.997 231.162 223.638 231.606 223.638H363.962C364.405 223.638 364.765 223.997 364.765 224.441V255.316C364.765 255.759 364.405 256.119 363.962 256.119H231.606C231.162 256.119 230.803 255.759 230.803 255.316V224.441Z" fill="white"/>
</g>
<circle cx="249.8" cy="239.573" r="9.19271" fill="#E4E4E6"/>
<circle cx="266.96" cy="243.862" r="1.83854" fill="#E4E4E6"/>
<rect x="263.897" y="234.056" width="25.1267" height="3.67708" rx="1.83854" fill="#E4E4E6"/>
<rect x="313.207" y="234.056" width="25.1267" height="3.67708" rx="1.83854" fill="#E4E4E6"/>
<rect x="272.476" y="242.023" width="60.6719" height="3.67708" rx="1.83854" fill="#E4E4E6"/>
<rect x="293.927" y="234.056" width="12.8698" height="3.67708" rx="1.83854" fill="#E4E4E6"/>
<g filter="url(#filter8_d)">
<path d="M63.6055 183.835C63.6055 183.392 63.9649 183.032 64.4083 183.032H196.765C197.208 183.032 197.568 183.392 197.568 183.835V214.71C197.568 215.154 197.208 215.513 196.765 215.513H64.4083C63.9649 215.513 63.6055 215.154 63.6055 214.71V183.835Z" fill="white"/>
</g>
<circle cx="82.6029" cy="198.967" r="9.19271" fill="#E4E4E6"/>
<circle cx="99.7624" cy="203.257" r="1.83854" fill="#E4E4E6"/>
<rect x="96.6992" y="193.45" width="25.1267" height="3.67708" rx="1.83854" fill="#E4E4E6"/>
<rect x="146.01" y="193.45" width="25.1267" height="3.67708" rx="1.83854" fill="#E4E4E6"/>
<rect x="105.278" y="201.418" width="60.6719" height="3.67708" rx="1.83854" fill="#E4E4E6"/>
<rect x="126.729" y="193.45" width="12.8698" height="3.67708" rx="1.83854" fill="#E4E4E6"/>
<g filter="url(#filter9_d)">
<path d="M63.6055 140.841C63.6055 140.398 63.9649 140.038 64.4083 140.038H196.765C197.208 140.038 197.568 140.398 197.568 140.841V171.716C197.568 172.16 197.208 172.519 196.765 172.519H64.4083C63.9649 172.519 63.6055 172.16 63.6055 171.716V140.841Z" fill="white"/>
</g>
<circle cx="82.6029" cy="155.973" r="9.19271" fill="#E4E4E6"/>
<circle cx="99.7624" cy="160.263" r="1.83854" fill="#E4E4E6"/>
<rect x="96.6992" y="150.456" width="25.1267" height="3.67708" rx="1.83854" fill="#E4E4E6"/>
<rect x="146.01" y="150.456" width="25.1267" height="3.67708" rx="1.83854" fill="#E4E4E6"/>
<rect x="105.278" y="158.425" width="60.6719" height="3.67708" rx="1.83854" fill="#E4E4E6"/>
<rect x="126.729" y="150.456" width="12.8698" height="3.67708" rx="1.83854" fill="#E4E4E6"/>
<g filter="url(#filter10_d)">
<path d="M230.803 183.835C230.803 183.392 231.162 183.032 231.606 183.032H363.962C364.405 183.032 364.765 183.392 364.765 183.835V214.71C364.765 215.154 364.405 215.513 363.962 215.513H231.606C231.162 215.513 230.803 215.154 230.803 214.71V183.835Z" fill="white"/>
</g>
<circle cx="249.8" cy="198.967" r="9.19271" fill="#E4E4E6"/>
<circle cx="266.96" cy="203.257" r="1.83854" fill="#E4E4E6"/>
<rect x="263.897" y="193.45" width="25.1267" height="3.67708" rx="1.83854" fill="#E4E4E6"/>
<rect x="313.207" y="193.45" width="25.1267" height="3.67708" rx="1.83854" fill="#E4E4E6"/>
<rect x="272.476" y="201.418" width="60.6719" height="3.67708" rx="1.83854" fill="#E4E4E6"/>
<rect x="293.927" y="193.45" width="12.8698" height="3.67708" rx="1.83854" fill="#E4E4E6"/>
<g filter="url(#filter11_d)">
<path d="M230.803 140.841C230.803 140.398 231.162 140.038 231.606 140.038H363.962C364.405 140.038 364.765 140.398 364.765 140.841V171.716C364.765 172.16 364.405 172.519 363.962 172.519H231.606C231.162 172.519 230.803 172.16 230.803 171.716V140.841Z" fill="white"/>
</g>
<circle cx="249.8" cy="155.973" r="9.19271" fill="#E4E4E6"/>
<circle cx="266.96" cy="160.263" r="1.83854" fill="#E4E4E6"/>
<rect x="263.897" y="150.456" width="25.1267" height="3.67708" rx="1.83854" fill="#E4E4E6"/>
<rect x="313.207" y="150.456" width="25.1267" height="3.67708" rx="1.83854" fill="#E4E4E6"/>
<rect x="272.476" y="158.425" width="60.6719" height="3.67708" rx="1.83854" fill="#E4E4E6"/>
<rect x="293.927" y="150.456" width="12.8698" height="3.67708" rx="1.83854" fill="#E4E4E6"/>
<path fill-rule="evenodd" clip-rule="evenodd" d="M92.2675 155.564C92.2675 160.841 87.9899 165.118 82.7133 165.118C77.4367 165.118 73.1592 160.841 73.1592 155.564C73.1592 150.287 77.4367 146.01 82.7133 146.01C87.9899 146.01 92.2675 150.287 92.2675 155.564ZM78.9581 154.681L81.3123 156.835L86.4059 151.742L87.8089 153.145L81.373 159.581L77.6178 156.145L78.9581 154.681Z" fill="#00A908"/>
<path fill-rule="evenodd" clip-rule="evenodd" d="M92.2675 198.557C92.2675 203.834 87.9899 208.111 82.7133 208.111C77.4367 208.111 73.1592 203.834 73.1592 198.557C73.1592 193.28 77.4367 189.003 82.7133 189.003C87.9899 189.003 92.2675 193.28 92.2675 198.557ZM78.9581 197.674L81.3123 199.828L86.4059 194.735L87.8089 196.138L81.373 202.574L77.6178 199.138L78.9581 197.674Z" fill="#00A908"/>
<path fill-rule="evenodd" clip-rule="evenodd" d="M92.2675 239.163C92.2675 244.439 87.9899 248.717 82.7133 248.717C77.4367 248.717 73.1592 244.439 73.1592 239.163C73.1592 233.886 77.4367 229.608 82.7133 229.608C87.9899 229.608 92.2675 233.886 92.2675 239.163ZM78.9581 238.279L81.3123 240.433L86.4059 235.341L87.8089 236.744L81.373 243.18L77.6178 239.744L78.9581 238.279Z" fill="#00A908"/>
<path fill-rule="evenodd" clip-rule="evenodd" d="M259.465 198.557C259.465 203.834 255.187 208.111 249.911 208.111C244.634 208.111 240.356 203.834 240.356 198.557C240.356 193.28 244.634 189.003 249.911 189.003C255.187 189.003 259.465 193.28 259.465 198.557ZM246.155 197.674L248.51 199.828L253.603 194.735L255.006 196.138L248.57 202.574L244.815 199.138L246.155 197.674Z" fill="#00A908"/>
<path fill-rule="evenodd" clip-rule="evenodd" d="M259.465 239.163C259.465 244.439 255.187 248.717 249.911 248.717C244.634 248.717 240.356 244.439 240.356 239.163C240.356 233.886 244.634 229.608 249.911 229.608C255.187 229.608 259.465 233.886 259.465 239.163ZM246.155 238.279L248.51 240.433L253.603 235.341L255.006 236.744L248.57 243.18L244.815 239.744L246.155 238.279Z" fill="#00A908"/>
<path fill-rule="evenodd" clip-rule="evenodd" d="M249.911 146.01C244.656 146.01 240.356 150.309 240.356 155.564C240.356 160.819 244.656 165.118 249.911 165.118C255.165 165.118 259.465 160.819 259.465 155.564C259.465 150.309 255.165 146.01 249.911 146.01ZM254.591 158.908L253.255 160.244L249.911 156.9L246.567 160.244L245.231 158.908L248.574 155.564L245.231 152.22L246.567 150.884L249.911 154.228L253.255 150.884L254.591 152.22L251.247 155.564L254.591 158.908Z" fill="#B81237"/>
<rect x="49.2734" y="197.362" width="332.006" height="158.838" fill="url(#paint0_linear)"/>
<defs>
<filter id="filter0_d" x="39.3557" y="45.4484" width="353.036" height="325.568" filterUnits="userSpaceOnUse" color-interpolation-filters="sRGB">
<feFlood flood-opacity="0" result="BackgroundImageFix"/>
<feColorMatrix in="SourceAlpha" type="matrix" values="0 0 0 0 0 0 0 0 0 0 0 0 0 0 0 0 0 0 127 0"/>
<feOffset dy="3.70403"/>
<feGaussianBlur stdDeviation="5.55605"/>
<feColorMatrix type="matrix" values="0 0 0 0 0 0 0 0 0 0 0 0 0 0 0 0 0 0 0.15 0"/>
<feBlend mode="normal" in2="BackgroundImageFix" result="effect1_dropShadow"/>
<feBlend mode="normal" in="SourceGraphic" in2="effect1_dropShadow" result="shape"/>
</filter>
<filter id="filter1_d" x="50.4678" y="52.8564" width="330.812" height="47.653" filterUnits="userSpaceOnUse" color-interpolation-filters="sRGB">
<feFlood flood-opacity="0" result="BackgroundImageFix"/>
<feColorMatrix in="SourceAlpha" type="matrix" values="0 0 0 0 0 0 0 0 0 0 0 0 0 0 0 0 0 0 127 0"/>
<feOffset dy="1"/>
<feColorMatrix type="matrix" values="0 0 0 0 0.952941 0 0 0 0 0.956863 0 0 0 0 0.956863 0 0 0 1 0"/>
<feBlend mode="normal" in2="BackgroundImageFix" result="effect1_dropShadow"/>
<feBlend mode="normal" in="SourceGraphic" in2="effect1_dropShadow" result="shape"/>
</filter>
<filter id="filter2_d" x="58.7884" y="304.024" width="143.596" height="42.115" filterUnits="userSpaceOnUse" color-interpolation-filters="sRGB">
<feFlood flood-opacity="0" result="BackgroundImageFix"/>
<feColorMatrix in="SourceAlpha" type="matrix" values="0 0 0 0 0 0 0 0 0 0 0 0 0 0 0 0 0 0 127 0"/>
<feOffset dy="1.60569"/>
<feGaussianBlur stdDeviation="2.40853"/>
<feColorMatrix type="matrix" values="0 0 0 0 0 0 0 0 0 0 0 0 0 0 0 0 0 0 0.15 0"/>
<feBlend mode="normal" in2="BackgroundImageFix" result="effect1_dropShadow"/>
<feBlend mode="normal" in="SourceGraphic" in2="effect1_dropShadow" result="shape"/>
</filter>
<filter id="filter3_d" x="225.986" y="304.024" width="143.596" height="42.115" filterUnits="userSpaceOnUse" color-interpolation-filters="sRGB">
<feFlood flood-opacity="0" result="BackgroundImageFix"/>
<feColorMatrix in="SourceAlpha" type="matrix" values="0 0 0 0 0 0 0 0 0 0 0 0 0 0 0 0 0 0 127 0"/>
<feOffset dy="1.60569"/>
<feGaussianBlur stdDeviation="2.40853"/>
<feColorMatrix type="matrix" values="0 0 0 0 0 0 0 0 0 0 0 0 0 0 0 0 0 0 0.15 0"/>
<feBlend mode="normal" in2="BackgroundImageFix" result="effect1_dropShadow"/>
<feBlend mode="normal" in="SourceGraphic" in2="effect1_dropShadow" result="shape"/>
</filter>
<filter id="filter4_d" x="58.7884" y="262.224" width="143.596" height="42.115" filterUnits="userSpaceOnUse" color-interpolation-filters="sRGB">
<feFlood flood-opacity="0" result="BackgroundImageFix"/>
<feColorMatrix in="SourceAlpha" type="matrix" values="0 0 0 0 0 0 0 0 0 0 0 0 0 0 0 0 0 0 127 0"/>
<feOffset dy="1.60569"/>
<feGaussianBlur stdDeviation="2.40853"/>
<feColorMatrix type="matrix" values="0 0 0 0 0 0 0 0 0 0 0 0 0 0 0 0 0 0 0.15 0"/>
<feBlend mode="normal" in2="BackgroundImageFix" result="effect1_dropShadow"/>
<feBlend mode="normal" in="SourceGraphic" in2="effect1_dropShadow" result="shape"/>
</filter>
<filter id="filter5_d" x="225.986" y="262.224" width="143.596" height="42.115" filterUnits="userSpaceOnUse" color-interpolation-filters="sRGB">
<feFlood flood-opacity="0" result="BackgroundImageFix"/>
<feColorMatrix in="SourceAlpha" type="matrix" values="0 0 0 0 0 0 0 0 0 0 0 0 0 0 0 0 0 0 127 0"/>
<feOffset dy="1.60569"/>
<feGaussianBlur stdDeviation="2.40853"/>
<feColorMatrix type="matrix" values="0 0 0 0 0 0 0 0 0 0 0 0 0 0 0 0 0 0 0.15 0"/>
<feBlend mode="normal" in2="BackgroundImageFix" result="effect1_dropShadow"/>
<feBlend mode="normal" in="SourceGraphic" in2="effect1_dropShadow" result="shape"/>
</filter>
<filter id="filter6_d" x="58.7884" y="220.426" width="143.596" height="42.115" filterUnits="userSpaceOnUse" color-interpolation-filters="sRGB">
<feFlood flood-opacity="0" result="BackgroundImageFix"/>
<feColorMatrix in="SourceAlpha" type="matrix" values="0 0 0 0 0 0 0 0 0 0 0 0 0 0 0 0 0 0 127 0"/>
<feOffset dy="1.60569"/>
<feGaussianBlur stdDeviation="2.40853"/>
<feColorMatrix type="matrix" values="0 0 0 0 0 0 0 0 0 0 0 0 0 0 0 0 0 0 0.15 0"/>
<feBlend mode="normal" in2="BackgroundImageFix" result="effect1_dropShadow"/>
<feBlend mode="normal" in="SourceGraphic" in2="effect1_dropShadow" result="shape"/>
</filter>
<filter id="filter7_d" x="225.986" y="220.426" width="143.596" height="42.115" filterUnits="userSpaceOnUse" color-interpolation-filters="sRGB">
<feFlood flood-opacity="0" result="BackgroundImageFix"/>
<feColorMatrix in="SourceAlpha" type="matrix" values="0 0 0 0 0 0 0 0 0 0 0 0 0 0 0 0 0 0 127 0"/>
<feOffset dy="1.60569"/>
<feGaussianBlur stdDeviation="2.40853"/>
<feColorMatrix type="matrix" values="0 0 0 0 0 0 0 0 0 0 0 0 0 0 0 0 0 0 0.15 0"/>
<feBlend mode="normal" in2="BackgroundImageFix" result="effect1_dropShadow"/>
<feBlend mode="normal" in="SourceGraphic" in2="effect1_dropShadow" result="shape"/>
</filter>
<filter id="filter8_d" x="58.7884" y="179.821" width="143.596" height="42.115" filterUnits="userSpaceOnUse" color-interpolation-filters="sRGB">
<feFlood flood-opacity="0" result="BackgroundImageFix"/>
<feColorMatrix in="SourceAlpha" type="matrix" values="0 0 0 0 0 0 0 0 0 0 0 0 0 0 0 0 0 0 127 0"/>
<feOffset dy="1.60569"/>
<feGaussianBlur stdDeviation="2.40853"/>
<feColorMatrix type="matrix" values="0 0 0 0 0 0 0 0 0 0 0 0 0 0 0 0 0 0 0.15 0"/>
<feBlend mode="normal" in2="BackgroundImageFix" result="effect1_dropShadow"/>
<feBlend mode="normal" in="SourceGraphic" in2="effect1_dropShadow" result="shape"/>
</filter>
<filter id="filter9_d" x="58.7884" y="136.827" width="143.596" height="42.115" filterUnits="userSpaceOnUse" color-interpolation-filters="sRGB">
<feFlood flood-opacity="0" result="BackgroundImageFix"/>
<feColorMatrix in="SourceAlpha" type="matrix" values="0 0 0 0 0 0 0 0 0 0 0 0 0 0 0 0 0 0 127 0"/>
<feOffset dy="1.60569"/>
<feGaussianBlur stdDeviation="2.40853"/>
<feColorMatrix type="matrix" values="0 0 0 0 0 0 0 0 0 0 0 0 0 0 0 0 0 0 0.15 0"/>
<feBlend mode="normal" in2="BackgroundImageFix" result="effect1_dropShadow"/>
<feBlend mode="normal" in="SourceGraphic" in2="effect1_dropShadow" result="shape"/>
</filter>
<filter id="filter10_d" x="225.986" y="179.821" width="143.596" height="42.115" filterUnits="userSpaceOnUse" color-interpolation-filters="sRGB">
<feFlood flood-opacity="0" result="BackgroundImageFix"/>
<feColorMatrix in="SourceAlpha" type="matrix" values="0 0 0 0 0 0 0 0 0 0 0 0 0 0 0 0 0 0 127 0"/>
<feOffset dy="1.60569"/>
<feGaussianBlur stdDeviation="2.40853"/>
<feColorMatrix type="matrix" values="0 0 0 0 0 0 0 0 0 0 0 0 0 0 0 0 0 0 0.15 0"/>
<feBlend mode="normal" in2="BackgroundImageFix" result="effect1_dropShadow"/>
<feBlend mode="normal" in="SourceGraphic" in2="effect1_dropShadow" result="shape"/>
</filter>
<filter id="filter11_d" x="225.986" y="136.827" width="143.596" height="42.115" filterUnits="userSpaceOnUse" color-interpolation-filters="sRGB">
<feFlood flood-opacity="0" result="BackgroundImageFix"/>
<feColorMatrix in="SourceAlpha" type="matrix" values="0 0 0 0 0 0 0 0 0 0 0 0 0 0 0 0 0 0 127 0"/>
<feOffset dy="1.60569"/>
<feGaussianBlur stdDeviation="2.40853"/>
<feColorMatrix type="matrix" values="0 0 0 0 0 0 0 0 0 0 0 0 0 0 0 0 0 0 0.15 0"/>
<feBlend mode="normal" in2="BackgroundImageFix" result="effect1_dropShadow"/>
<feBlend mode="normal" in="SourceGraphic" in2="effect1_dropShadow" result="shape"/>
</filter>
<linearGradient id="paint0_linear" x1="208.111" y1="356.2" x2="208.111" y2="204.528" gradientUnits="userSpaceOnUse">
<stop stop-color="white"/>
<stop offset="1" stop-color="white" stop-opacity="0"/>
</linearGradient>
</defs>
</svg>
