<svg width="243" height="242" viewBox="0 0 243 242" fill="none" xmlns="http://www.w3.org/2000/svg">
<circle cx="121.411" cy="120.745" r="120.745" fill="#FAFAFA"/>
<circle cx="121.411" cy="120.745" r="120.745" fill="#FAFAFA"/>
<g filter="url(#filter0_d_2823_14387)">
<rect x="11" y="37" width="222" height="168" rx="3.37749" fill="white"/>
</g>
<path d="M11 40.3775C11 38.5122 12.5122 37 14.3775 37H76.6225C78.4878 37 80 38.5122 80 40.3775V205H43.4091H11V40.3775Z" fill="#F1F6FF"/>
<path d="M20.7143 58V52.6805H22.9029C23.3741 52.6805 23.7769 52.7565 24.1112 52.9084C24.4507 53.0604 24.7116 53.2783 24.894 53.562C25.0764 53.8457 25.1676 54.1826 25.1676 54.5727C25.1676 54.9628 25.0764 55.2997 24.894 55.5834C24.7116 55.8621 24.4507 56.0774 24.1112 56.2294C23.7769 56.3763 23.3741 56.4497 22.9029 56.4497H21.2615L21.7023 56.0014V58H20.7143ZM24.1948 58L22.8498 56.0698H23.9061L25.2587 58H24.1948ZM21.7023 56.1078L21.2615 55.6366H22.8574C23.293 55.6366 23.6198 55.5429 23.8377 55.3554C24.0606 55.168 24.172 54.9071 24.172 54.5727C24.172 54.2333 24.0606 53.9723 23.8377 53.79C23.6198 53.6076 23.293 53.5164 22.8574 53.5164H21.2615L21.7023 53.03V56.1078ZM28.0055 58.0532C27.5901 58.0532 27.2202 57.9645 26.896 57.7872C26.5717 57.6048 26.3159 57.3566 26.1285 57.0425C25.941 56.7284 25.8473 56.3712 25.8473 55.971C25.8473 55.5657 25.941 55.2085 26.1285 54.8995C26.3159 54.5854 26.5717 54.3397 26.896 54.1623C27.2202 53.985 27.5901 53.8964 28.0055 53.8964C28.426 53.8964 28.7984 53.985 29.1226 54.1623C29.4519 54.3397 29.7077 54.5828 29.8901 54.8919C30.0776 55.2009 30.1713 55.5606 30.1713 55.971C30.1713 56.3712 30.0776 56.7284 29.8901 57.0425C29.7077 57.3566 29.4519 57.6048 29.1226 57.7872C28.7984 57.9645 28.426 58.0532 28.0055 58.0532ZM28.0055 57.2401C28.2385 57.2401 28.4463 57.1894 28.6286 57.0881C28.811 56.9868 28.9529 56.8398 29.0542 56.6473C29.1606 56.4548 29.2138 56.2294 29.2138 55.971C29.2138 55.7075 29.1606 55.4821 29.0542 55.2946C28.9529 55.1021 28.811 54.9552 28.6286 54.8539C28.4463 54.7525 28.2411 54.7019 28.0131 54.7019C27.78 54.7019 27.5723 54.7525 27.3899 54.8539C27.2126 54.9552 27.0708 55.1021 26.9644 55.2946C26.858 55.4821 26.8048 55.7075 26.8048 55.971C26.8048 56.2294 26.858 56.4548 26.9644 56.6473C27.0708 56.8398 27.2126 56.9868 27.3899 57.0881C27.5723 57.1894 27.7775 57.2401 28.0055 57.2401ZM31.0797 58V52.3613H32.0296V58H31.0797ZM35.1838 58.0532C34.7329 58.0532 34.3377 57.9645 33.9983 57.7872C33.6639 57.6048 33.403 57.3566 33.2156 57.0425C33.0332 56.7284 32.942 56.3712 32.942 55.971C32.942 55.5657 33.0306 55.2085 33.208 54.8995C33.3903 54.5854 33.6386 54.3397 33.9527 54.1623C34.2719 53.985 34.6341 53.8964 35.0394 53.8964C35.4346 53.8964 35.7867 53.9825 36.0957 54.1547C36.4047 54.327 36.6479 54.5702 36.8252 54.8843C37.0026 55.1984 37.0912 55.5682 37.0912 55.9938C37.0912 56.0343 37.0887 56.0799 37.0836 56.1306C37.0836 56.1812 37.0811 56.2294 37.076 56.2749H33.6943V55.6442H36.5745L36.2021 55.8418C36.2072 55.6087 36.159 55.4036 36.0577 55.2262C35.9564 55.0489 35.8171 54.9096 35.6397 54.8083C35.4675 54.707 35.2674 54.6563 35.0394 54.6563C34.8063 54.6563 34.6012 54.707 34.4238 54.8083C34.2516 54.9096 34.1148 55.0515 34.0135 55.2338C33.9172 55.4112 33.8691 55.6214 33.8691 55.8646V56.0166C33.8691 56.2598 33.9248 56.4751 34.0363 56.6625C34.1477 56.85 34.3048 56.9944 34.5074 57.0957C34.7101 57.197 34.9431 57.2477 35.2066 57.2477C35.4346 57.2477 35.6397 57.2122 35.8221 57.1413C36.0045 57.0703 36.1666 56.9589 36.3085 56.8069L36.8176 57.3921C36.6353 57.6048 36.4047 57.7695 36.1261 57.886C35.8525 57.9975 35.5384 58.0532 35.1838 58.0532ZM41.107 54.8919H43.7516V55.705H41.107V54.8919ZM41.183 57.1717H44.1847V58H40.1951V52.6805H44.0783V53.5088H41.183V57.1717ZM44.5733 58L46.3591 55.6746L46.3439 56.1838L44.6417 53.942H45.698L46.8911 55.5378H46.4883L47.689 53.942H48.7149L46.9975 56.1838L47.0051 55.6746L48.7833 58H47.7118L46.4579 56.3053L46.8531 56.3585L45.622 58H44.5733ZM51.7337 58.0532C51.4044 58.0532 51.103 57.9772 50.8294 57.8252C50.5609 57.6732 50.3456 57.4452 50.1835 57.1413C50.0264 56.8322 49.9479 56.4421 49.9479 55.971C49.9479 55.4948 50.0239 55.1047 50.1759 54.8007C50.3329 54.4967 50.5457 54.2713 50.8142 54.1243C51.0827 53.9723 51.3892 53.8964 51.7337 53.8964C52.134 53.8964 52.4861 53.9825 52.79 54.1547C53.0991 54.327 53.3422 54.5676 53.5196 54.8767C53.702 55.1857 53.7931 55.5505 53.7931 55.971C53.7931 56.3915 53.702 56.7588 53.5196 57.0729C53.3422 57.3819 53.0991 57.6226 52.79 57.7948C52.4861 57.9671 52.134 58.0532 51.7337 58.0532ZM49.4843 59.4743V53.942H50.3886V54.8995L50.3582 55.9786L50.4342 57.0577V59.4743H49.4843ZM51.6273 57.2401C51.8553 57.2401 52.058 57.1894 52.2353 57.0881C52.4177 56.9868 52.562 56.8398 52.6684 56.6473C52.7748 56.4548 52.828 56.2294 52.828 55.971C52.828 55.7075 52.7748 55.4821 52.6684 55.2946C52.562 55.1021 52.4177 54.9552 52.2353 54.8539C52.058 54.7525 51.8553 54.7019 51.6273 54.7019C51.3993 54.7019 51.1942 54.7525 51.0118 54.8539C50.8294 54.9552 50.685 55.1021 50.5786 55.2946C50.4722 55.4821 50.419 55.7075 50.419 55.971C50.419 56.2294 50.4722 56.4548 50.5786 56.6473C50.685 56.8398 50.8294 56.9868 51.0118 57.0881C51.1942 57.1894 51.3993 57.2401 51.6273 57.2401ZM54.694 58V52.3613H55.6439V58H54.694ZM58.7145 58.0532C58.2991 58.0532 57.9293 57.9645 57.605 57.7872C57.2808 57.6048 57.025 57.3566 56.8375 57.0425C56.6501 56.7284 56.5563 56.3712 56.5563 55.971C56.5563 55.5657 56.6501 55.2085 56.8375 54.8995C57.025 54.5854 57.2808 54.3397 57.605 54.1623C57.9293 53.985 58.2991 53.8964 58.7145 53.8964C59.135 53.8964 59.5074 53.985 59.8317 54.1623C60.161 54.3397 60.4168 54.5828 60.5992 54.8919C60.7866 55.2009 60.8804 55.5606 60.8804 55.971C60.8804 56.3712 60.7866 56.7284 60.5992 57.0425C60.4168 57.3566 60.161 57.6048 59.8317 57.7872C59.5074 57.9645 59.135 58.0532 58.7145 58.0532ZM58.7145 57.2401C58.9476 57.2401 59.1553 57.1894 59.3377 57.0881C59.5201 56.9868 59.6619 56.8398 59.7633 56.6473C59.8696 56.4548 59.9228 56.2294 59.9228 55.971C59.9228 55.7075 59.8696 55.4821 59.7633 55.2946C59.6619 55.1021 59.5201 54.9552 59.3377 54.8539C59.1553 54.7525 58.9501 54.7019 58.7221 54.7019C58.4891 54.7019 58.2814 54.7525 58.099 54.8539C57.9217 54.9552 57.7798 55.1021 57.6734 55.2946C57.567 55.4821 57.5139 55.7075 57.5139 55.971C57.5139 56.2294 57.567 56.4548 57.6734 56.6473C57.7798 56.8398 57.9217 56.9868 58.099 57.0881C58.2814 57.1894 58.4866 57.2401 58.7145 57.2401ZM61.7887 58V53.942H62.693V55.0591L62.5867 54.7323C62.7082 54.4587 62.8982 54.251 63.1566 54.1091C63.42 53.9673 63.7468 53.8964 64.1369 53.8964V54.8007C64.0964 54.7905 64.0584 54.7855 64.0229 54.7855C63.9875 54.7804 63.952 54.7779 63.9165 54.7779C63.5568 54.7779 63.2706 54.8843 63.0578 55.0971C62.845 55.3048 62.7386 55.6163 62.7386 56.0318V58H61.7887ZM66.8131 58.0532C66.3622 58.0532 65.967 57.9645 65.6276 57.7872C65.2932 57.6048 65.0323 57.3566 64.8448 57.0425C64.6625 56.7284 64.5713 56.3712 64.5713 55.971C64.5713 55.5657 64.6599 55.2085 64.8372 54.8995C65.0196 54.5854 65.2679 54.3397 65.582 54.1623C65.9011 53.985 66.2634 53.8964 66.6687 53.8964C67.0638 53.8964 67.416 53.9825 67.725 54.1547C68.034 54.327 68.2772 54.5702 68.4545 54.8843C68.6318 55.1984 68.7205 55.5682 68.7205 55.9938C68.7205 56.0343 68.718 56.0799 68.7129 56.1306C68.7129 56.1812 68.7104 56.2294 68.7053 56.2749H65.3236V55.6442H68.2038L67.8314 55.8418C67.8364 55.6087 67.7883 55.4036 67.687 55.2262C67.5857 55.0489 67.4463 54.9096 67.269 54.8083C67.0968 54.707 66.8967 54.6563 66.6687 54.6563C66.4356 54.6563 66.2305 54.707 66.0531 54.8083C65.8809 54.9096 65.7441 55.0515 65.6428 55.2338C65.5465 55.4112 65.4984 55.6214 65.4984 55.8646V56.0166C65.4984 56.2598 65.5541 56.4751 65.6656 56.6625C65.777 56.85 65.9341 56.9944 66.1367 57.0957C66.3394 57.197 66.5724 57.2477 66.8359 57.2477C67.0638 57.2477 67.269 57.2122 67.4514 57.1413C67.6338 57.0703 67.7959 56.9589 67.9378 56.8069L68.4469 57.3921C68.2645 57.6048 68.034 57.7695 67.7554 57.886C67.4818 57.9975 67.1677 58.0532 66.8131 58.0532ZM69.633 58V53.942H70.5373V55.0591L70.4309 54.7323C70.5525 54.4587 70.7425 54.251 71.0008 54.1091C71.2643 53.9673 71.5911 53.8964 71.9812 53.8964V54.8007C71.9406 54.7905 71.9026 54.7855 71.8672 54.7855C71.8317 54.7804 71.7962 54.7779 71.7608 54.7779C71.4011 54.7779 71.1148 54.8843 70.9021 55.0971C70.6893 55.3048 70.5829 55.6163 70.5829 56.0318V58H69.633Z" fill="#074889"/>
<rect x="17.4222" y="67.4222" width="52.1556" height="12.1556" rx="2.9553" fill="white" stroke="#E4E4E6" stroke-width="0.844371"/>
<mask id="mask0_2823_14387" style="mask-type:alpha" maskUnits="userSpaceOnUse" x="20" y="70" width="8" height="8">
<rect x="20" y="70" width="7.875" height="7.875" fill="#D9D9D9"/>
</mask>
<g mask="url(#mask0_2823_14387)">
<path d="M26.4313 76.8906L24.3641 74.8234C24.2 74.9547 24.0113 75.0586 23.798 75.1352C23.5848 75.2117 23.3578 75.25 23.1172 75.25C22.5211 75.25 22.0166 75.0436 21.6037 74.6307C21.1908 74.2178 20.9844 73.7133 20.9844 73.1172C20.9844 72.5211 21.1908 72.0166 21.6037 71.6037C22.0166 71.1908 22.5211 70.9844 23.1172 70.9844C23.7133 70.9844 24.2178 71.1908 24.6307 71.6037C25.0436 72.0166 25.25 72.5211 25.25 73.1172C25.25 73.3578 25.2117 73.5848 25.1352 73.798C25.0586 74.0113 24.9547 74.2 24.8234 74.3641L26.8906 76.4313L26.4313 76.8906ZM23.1172 74.5938C23.5273 74.5938 23.876 74.4502 24.1631 74.1631C24.4502 73.876 24.5938 73.5273 24.5938 73.1172C24.5938 72.707 24.4502 72.3584 24.1631 72.0713C23.876 71.7842 23.5273 71.6406 23.1172 71.6406C22.707 71.6406 22.3584 71.7842 22.0713 72.0713C21.7842 72.3584 21.6406 72.707 21.6406 73.1172C21.6406 73.5273 21.7842 73.876 22.0713 74.1631C22.3584 74.4502 22.707 74.5938 23.1172 74.5938Z" fill="#1C1B1F"/>
</g>
<circle cx="121.411" cy="120.745" r="120.745" fill="#FAFAFA"/>
<g filter="url(#filter1_d_2823_14387)">
<rect x="11" y="37" width="222" height="168" rx="3.37749" fill="white"/>
</g>
<path d="M11 40.3775C11 38.5122 12.5122 37 14.3775 37H76.6225C78.4878 37 80 38.5122 80 40.3775V205H43.4091H11V40.3775Z" fill="#F1F6FF"/>
<path d="M20.7143 58V52.6805H22.9029C23.3741 52.6805 23.7769 52.7565 24.1112 52.9084C24.4507 53.0604 24.7116 53.2783 24.894 53.562C25.0764 53.8457 25.1676 54.1826 25.1676 54.5727C25.1676 54.9628 25.0764 55.2997 24.894 55.5834C24.7116 55.8621 24.4507 56.0774 24.1112 56.2294C23.7769 56.3763 23.3741 56.4497 22.9029 56.4497H21.2615L21.7023 56.0014V58H20.7143ZM24.1948 58L22.8498 56.0698H23.9061L25.2587 58H24.1948ZM21.7023 56.1078L21.2615 55.6366H22.8574C23.293 55.6366 23.6198 55.5429 23.8377 55.3554C24.0606 55.168 24.172 54.9071 24.172 54.5727C24.172 54.2333 24.0606 53.9723 23.8377 53.79C23.6198 53.6076 23.293 53.5164 22.8574 53.5164H21.2615L21.7023 53.03V56.1078ZM28.0055 58.0532C27.5901 58.0532 27.2202 57.9645 26.896 57.7872C26.5717 57.6048 26.3159 57.3566 26.1285 57.0425C25.941 56.7284 25.8473 56.3712 25.8473 55.971C25.8473 55.5657 25.941 55.2085 26.1285 54.8995C26.3159 54.5854 26.5717 54.3397 26.896 54.1623C27.2202 53.985 27.5901 53.8964 28.0055 53.8964C28.426 53.8964 28.7984 53.985 29.1226 54.1623C29.4519 54.3397 29.7077 54.5828 29.8901 54.8919C30.0776 55.2009 30.1713 55.5606 30.1713 55.971C30.1713 56.3712 30.0776 56.7284 29.8901 57.0425C29.7077 57.3566 29.4519 57.6048 29.1226 57.7872C28.7984 57.9645 28.426 58.0532 28.0055 58.0532ZM28.0055 57.2401C28.2385 57.2401 28.4463 57.1894 28.6286 57.0881C28.811 56.9868 28.9529 56.8398 29.0542 56.6473C29.1606 56.4548 29.2138 56.2294 29.2138 55.971C29.2138 55.7075 29.1606 55.4821 29.0542 55.2946C28.9529 55.1021 28.811 54.9552 28.6286 54.8539C28.4463 54.7525 28.2411 54.7019 28.0131 54.7019C27.78 54.7019 27.5723 54.7525 27.3899 54.8539C27.2126 54.9552 27.0708 55.1021 26.9644 55.2946C26.858 55.4821 26.8048 55.7075 26.8048 55.971C26.8048 56.2294 26.858 56.4548 26.9644 56.6473C27.0708 56.8398 27.2126 56.9868 27.3899 57.0881C27.5723 57.1894 27.7775 57.2401 28.0055 57.2401ZM31.0797 58V52.3613H32.0296V58H31.0797ZM35.1838 58.0532C34.7329 58.0532 34.3377 57.9645 33.9983 57.7872C33.6639 57.6048 33.403 57.3566 33.2156 57.0425C33.0332 56.7284 32.942 56.3712 32.942 55.971C32.942 55.5657 33.0306 55.2085 33.208 54.8995C33.3903 54.5854 33.6386 54.3397 33.9527 54.1623C34.2719 53.985 34.6341 53.8964 35.0394 53.8964C35.4346 53.8964 35.7867 53.9825 36.0957 54.1547C36.4047 54.327 36.6479 54.5702 36.8252 54.8843C37.0026 55.1984 37.0912 55.5682 37.0912 55.9938C37.0912 56.0343 37.0887 56.0799 37.0836 56.1306C37.0836 56.1812 37.0811 56.2294 37.076 56.2749H33.6943V55.6442H36.5745L36.2021 55.8418C36.2072 55.6087 36.159 55.4036 36.0577 55.2262C35.9564 55.0489 35.8171 54.9096 35.6397 54.8083C35.4675 54.707 35.2674 54.6563 35.0394 54.6563C34.8063 54.6563 34.6012 54.707 34.4238 54.8083C34.2516 54.9096 34.1148 55.0515 34.0135 55.2338C33.9172 55.4112 33.8691 55.6214 33.8691 55.8646V56.0166C33.8691 56.2598 33.9248 56.4751 34.0363 56.6625C34.1477 56.85 34.3048 56.9944 34.5074 57.0957C34.7101 57.197 34.9431 57.2477 35.2066 57.2477C35.4346 57.2477 35.6397 57.2122 35.8221 57.1413C36.0045 57.0703 36.1666 56.9589 36.3085 56.8069L36.8176 57.3921C36.6353 57.6048 36.4047 57.7695 36.1261 57.886C35.8525 57.9975 35.5384 58.0532 35.1838 58.0532ZM41.107 54.8919H43.7516V55.705H41.107V54.8919ZM41.183 57.1717H44.1847V58H40.1951V52.6805H44.0783V53.5088H41.183V57.1717ZM44.5733 58L46.3591 55.6746L46.3439 56.1838L44.6417 53.942H45.698L46.8911 55.5378H46.4883L47.689 53.942H48.7149L46.9975 56.1838L47.0051 55.6746L48.7833 58H47.7118L46.4579 56.3053L46.8531 56.3585L45.622 58H44.5733ZM51.7337 58.0532C51.4044 58.0532 51.103 57.9772 50.8294 57.8252C50.5609 57.6732 50.3456 57.4452 50.1835 57.1413C50.0264 56.8322 49.9479 56.4421 49.9479 55.971C49.9479 55.4948 50.0239 55.1047 50.1759 54.8007C50.3329 54.4967 50.5457 54.2713 50.8142 54.1243C51.0827 53.9723 51.3892 53.8964 51.7337 53.8964C52.134 53.8964 52.4861 53.9825 52.79 54.1547C53.0991 54.327 53.3422 54.5676 53.5196 54.8767C53.702 55.1857 53.7931 55.5505 53.7931 55.971C53.7931 56.3915 53.702 56.7588 53.5196 57.0729C53.3422 57.3819 53.0991 57.6226 52.79 57.7948C52.4861 57.9671 52.134 58.0532 51.7337 58.0532ZM49.4843 59.4743V53.942H50.3886V54.8995L50.3582 55.9786L50.4342 57.0577V59.4743H49.4843ZM51.6273 57.2401C51.8553 57.2401 52.058 57.1894 52.2353 57.0881C52.4177 56.9868 52.562 56.8398 52.6684 56.6473C52.7748 56.4548 52.828 56.2294 52.828 55.971C52.828 55.7075 52.7748 55.4821 52.6684 55.2946C52.562 55.1021 52.4177 54.9552 52.2353 54.8539C52.058 54.7525 51.8553 54.7019 51.6273 54.7019C51.3993 54.7019 51.1942 54.7525 51.0118 54.8539C50.8294 54.9552 50.685 55.1021 50.5786 55.2946C50.4722 55.4821 50.419 55.7075 50.419 55.971C50.419 56.2294 50.4722 56.4548 50.5786 56.6473C50.685 56.8398 50.8294 56.9868 51.0118 57.0881C51.1942 57.1894 51.3993 57.2401 51.6273 57.2401ZM54.694 58V52.3613H55.6439V58H54.694ZM58.7145 58.0532C58.2991 58.0532 57.9293 57.9645 57.605 57.7872C57.2808 57.6048 57.025 57.3566 56.8375 57.0425C56.6501 56.7284 56.5563 56.3712 56.5563 55.971C56.5563 55.5657 56.6501 55.2085 56.8375 54.8995C57.025 54.5854 57.2808 54.3397 57.605 54.1623C57.9293 53.985 58.2991 53.8964 58.7145 53.8964C59.135 53.8964 59.5074 53.985 59.8317 54.1623C60.161 54.3397 60.4168 54.5828 60.5992 54.8919C60.7866 55.2009 60.8804 55.5606 60.8804 55.971C60.8804 56.3712 60.7866 56.7284 60.5992 57.0425C60.4168 57.3566 60.161 57.6048 59.8317 57.7872C59.5074 57.9645 59.135 58.0532 58.7145 58.0532ZM58.7145 57.2401C58.9476 57.2401 59.1553 57.1894 59.3377 57.0881C59.5201 56.9868 59.6619 56.8398 59.7633 56.6473C59.8696 56.4548 59.9228 56.2294 59.9228 55.971C59.9228 55.7075 59.8696 55.4821 59.7633 55.2946C59.6619 55.1021 59.5201 54.9552 59.3377 54.8539C59.1553 54.7525 58.9501 54.7019 58.7221 54.7019C58.4891 54.7019 58.2814 54.7525 58.099 54.8539C57.9217 54.9552 57.7798 55.1021 57.6734 55.2946C57.567 55.4821 57.5139 55.7075 57.5139 55.971C57.5139 56.2294 57.567 56.4548 57.6734 56.6473C57.7798 56.8398 57.9217 56.9868 58.099 57.0881C58.2814 57.1894 58.4866 57.2401 58.7145 57.2401ZM61.7887 58V53.942H62.693V55.0591L62.5867 54.7323C62.7082 54.4587 62.8982 54.251 63.1566 54.1091C63.42 53.9673 63.7468 53.8964 64.1369 53.8964V54.8007C64.0964 54.7905 64.0584 54.7855 64.0229 54.7855C63.9875 54.7804 63.952 54.7779 63.9165 54.7779C63.5568 54.7779 63.2706 54.8843 63.0578 55.0971C62.845 55.3048 62.7386 55.6163 62.7386 56.0318V58H61.7887ZM66.8131 58.0532C66.3622 58.0532 65.967 57.9645 65.6276 57.7872C65.2932 57.6048 65.0323 57.3566 64.8448 57.0425C64.6625 56.7284 64.5713 56.3712 64.5713 55.971C64.5713 55.5657 64.6599 55.2085 64.8372 54.8995C65.0196 54.5854 65.2679 54.3397 65.582 54.1623C65.9011 53.985 66.2634 53.8964 66.6687 53.8964C67.0638 53.8964 67.416 53.9825 67.725 54.1547C68.034 54.327 68.2772 54.5702 68.4545 54.8843C68.6318 55.1984 68.7205 55.5682 68.7205 55.9938C68.7205 56.0343 68.718 56.0799 68.7129 56.1306C68.7129 56.1812 68.7104 56.2294 68.7053 56.2749H65.3236V55.6442H68.2038L67.8314 55.8418C67.8364 55.6087 67.7883 55.4036 67.687 55.2262C67.5857 55.0489 67.4463 54.9096 67.269 54.8083C67.0968 54.707 66.8967 54.6563 66.6687 54.6563C66.4356 54.6563 66.2305 54.707 66.0531 54.8083C65.8809 54.9096 65.7441 55.0515 65.6428 55.2338C65.5465 55.4112 65.4984 55.6214 65.4984 55.8646V56.0166C65.4984 56.2598 65.5541 56.4751 65.6656 56.6625C65.777 56.85 65.9341 56.9944 66.1367 57.0957C66.3394 57.197 66.5724 57.2477 66.8359 57.2477C67.0638 57.2477 67.269 57.2122 67.4514 57.1413C67.6338 57.0703 67.7959 56.9589 67.9378 56.8069L68.4469 57.3921C68.2645 57.6048 68.034 57.7695 67.7554 57.886C67.4818 57.9975 67.1677 58.0532 66.8131 58.0532ZM69.633 58V53.942H70.5373V55.0591L70.4309 54.7323C70.5525 54.4587 70.7425 54.251 71.0008 54.1091C71.2643 53.9673 71.5911 53.8964 71.9812 53.8964V54.8007C71.9406 54.7905 71.9026 54.7855 71.8672 54.7855C71.8317 54.7804 71.7962 54.7779 71.7608 54.7779C71.4011 54.7779 71.1148 54.8843 70.9021 55.0971C70.6893 55.3048 70.5829 55.6163 70.5829 56.0318V58H69.633Z" fill="#074889"/>
<rect x="17.4222" y="67.4222" width="52.1556" height="12.1556" rx="2.9553" fill="white" stroke="#E4E4E6" stroke-width="0.844371"/>
<mask id="mask1_2823_14387" style="mask-type:alpha" maskUnits="userSpaceOnUse" x="20" y="70" width="8" height="8">
<rect x="20" y="70" width="7.875" height="7.875" fill="#D9D9D9"/>
</mask>
<g mask="url(#mask1_2823_14387)">
<path d="M26.4313 76.8906L24.3641 74.8234C24.2 74.9547 24.0113 75.0586 23.798 75.1352C23.5848 75.2117 23.3578 75.25 23.1172 75.25C22.5211 75.25 22.0166 75.0436 21.6037 74.6307C21.1908 74.2178 20.9844 73.7133 20.9844 73.1172C20.9844 72.5211 21.1908 72.0166 21.6037 71.6037C22.0166 71.1908 22.5211 70.9844 23.1172 70.9844C23.7133 70.9844 24.2178 71.1908 24.6307 71.6037C25.0436 72.0166 25.25 72.5211 25.25 73.1172C25.25 73.3578 25.2117 73.5848 25.1352 73.798C25.0586 74.0113 24.9547 74.2 24.8234 74.3641L26.8906 76.4313L26.4313 76.8906ZM23.1172 74.5938C23.5273 74.5938 23.876 74.4502 24.1631 74.1631C24.4502 73.876 24.5938 73.5273 24.5938 73.1172C24.5938 72.707 24.4502 72.3584 24.1631 72.0713C23.876 71.7842 23.5273 71.6406 23.1172 71.6406C22.707 71.6406 22.3584 71.7842 22.0713 72.0713C21.7842 72.3584 21.6406 72.707 21.6406 73.1172C21.6406 73.5273 21.7842 73.876 22.0713 74.1631C22.3584 74.4502 22.707 74.5938 23.1172 74.5938Z" fill="#1C1B1F"/>
</g>
<rect x="17.4222" y="83.4222" width="52.1556" height="12.1556" rx="2.9553" fill="white" stroke="#E4E4E6" stroke-width="0.844371"/>
<mask id="mask2_2823_14387" style="mask-type:alpha" maskUnits="userSpaceOnUse" x="59" y="86" width="8" height="8">
<rect x="67" y="94" width="8" height="8" transform="rotate(-180 67 94)" fill="#D9D9D9"/>
</mask>
<g mask="url(#mask2_2823_14387)">
<path d="M63 90.4002L64.5333 88.8668L65 89.3335L63 91.3335L61 89.3335L61.4667 88.8668L63 90.4002Z" fill="#1C1B1F"/>
</g>
<path d="M84 91C84 86.5817 87.5817 83 92 83H140C144.418 83 148 86.5817 148 91V130C148 134.418 144.418 138 140 138H92C87.5817 138 84 134.418 84 130V91Z" fill="#E5F6E6"/>
<path d="M151 91C151 86.5817 154.582 83 159 83H233V183H159C154.582 183 151 179.418 151 175V91Z" fill="#FFF4CF"/>
<g filter="url(#filter2_d_2823_14387)">
<path d="M87 91.4897C87 91.2193 87.2193 91 87.4897 91H144.51C144.781 91 145 91.2193 145 91.4897V107.181C145 107.451 144.781 107.671 144.51 107.671H87.4897C87.2193 107.671 87 107.451 87 107.181V91.4897Z" fill="white"/>
<path d="M87.1737 91.4897C87.1737 91.3152 87.3152 91.1737 87.4897 91.1737H144.51C144.685 91.1737 144.826 91.3152 144.826 91.4897V107.181C144.826 107.355 144.685 107.497 144.51 107.497H87.4897C87.3152 107.497 87.1737 107.355 87.1737 107.181V91.4897Z" stroke="#B7D2E7" stroke-width="0.347305"/>
</g>
<circle cx="95.0494" cy="101.331" r="0.939091" fill="#E4E4E6"/>
<rect x="93.4846" y="96.3218" width="12.8342" height="1.87818" rx="0.939091" fill="#E4E4E6"/>
<rect x="118.671" y="96.3218" width="12.8342" height="1.87818" rx="0.939091" fill="#E4E4E6"/>
<rect x="97.8669" y="100.392" width="30.99" height="1.87818" rx="0.939091" fill="#E4E4E6"/>
<rect x="108.823" y="96.3218" width="6.57363" height="1.87818" rx="0.939091" fill="#E4E4E6"/>
<g filter="url(#filter3_d_2823_14387)">
<path d="M17 106.49C17 106.219 17.2193 106 17.4897 106H74.5103C74.7807 106 75 106.219 75 106.49V122.181C75 122.451 74.7807 122.671 74.5103 122.671H17.4897C17.2193 122.671 17 122.451 17 122.181V106.49Z" fill="white"/>
<path d="M17.1737 106.49C17.1737 106.315 17.3152 106.174 17.4897 106.174H74.5103C74.6848 106.174 74.8263 106.315 74.8263 106.49V122.181C74.8263 122.355 74.6848 122.497 74.5103 122.497H17.4897C17.3152 122.497 17.1737 122.355 17.1737 122.181V106.49Z" stroke="#B7D2E7" stroke-width="0.347305"/>
</g>
<circle cx="25.0494" cy="116.331" r="0.939091" fill="#E4E4E6"/>
<rect x="23.4846" y="111.322" width="12.8342" height="1.87818" rx="0.939091" fill="#E4E4E6"/>
<rect x="48.6714" y="111.322" width="12.8342" height="1.87818" rx="0.939091" fill="#E4E4E6"/>
<rect x="27.8669" y="115.392" width="30.99" height="1.87818" rx="0.939091" fill="#E4E4E6"/>
<rect x="38.823" y="111.322" width="6.57363" height="1.87818" rx="0.939091" fill="#E4E4E6"/>
<path d="M17 107C17 104.791 18.7909 103 21 103H71C73.2091 103 75 104.791 75 107H17Z" fill="#074889"/>
<g filter="url(#filter4_d_2823_14387)">
<path d="M17 132.49C17 132.219 17.2193 132 17.4897 132H74.5103C74.7807 132 75 132.219 75 132.49V148.181C75 148.451 74.7807 148.671 74.5103 148.671H17.4897C17.2193 148.671 17 148.451 17 148.181V132.49Z" fill="white"/>
<path d="M17.1737 132.49C17.1737 132.315 17.3152 132.174 17.4897 132.174H74.5103C74.6848 132.174 74.8263 132.315 74.8263 132.49V148.181C74.8263 148.355 74.6848 148.497 74.5103 148.497H17.4897C17.3152 148.497 17.1737 148.355 17.1737 148.181V132.49Z" stroke="#B7D2E7" stroke-width="0.347305"/>
</g>
<circle cx="25.0494" cy="142.331" r="0.939091" fill="#E4E4E6"/>
<rect x="23.4846" y="137.322" width="12.8342" height="1.87818" rx="0.939091" fill="#E4E4E6"/>
<rect x="48.6714" y="137.322" width="12.8342" height="1.87818" rx="0.939091" fill="#E4E4E6"/>
<rect x="27.8669" y="141.392" width="30.99" height="1.87818" rx="0.939091" fill="#E4E4E6"/>
<rect x="38.823" y="137.322" width="6.57363" height="1.87818" rx="0.939091" fill="#E4E4E6"/>
<path d="M17 133C17 130.791 18.7909 129 21 129H71C73.2091 129 75 130.791 75 133H17Z" fill="#074889"/>
<g filter="url(#filter5_d_2823_14387)">
<path d="M17 158.49C17 158.219 17.2193 158 17.4897 158H74.5103C74.7807 158 75 158.219 75 158.49V174.181C75 174.451 74.7807 174.671 74.5103 174.671H17.4897C17.2193 174.671 17 174.451 17 174.181V158.49Z" fill="white"/>
<path d="M17.1737 158.49C17.1737 158.315 17.3152 158.174 17.4897 158.174H74.5103C74.6848 158.174 74.8263 158.315 74.8263 158.49V174.181C74.8263 174.355 74.6848 174.497 74.5103 174.497H17.4897C17.3152 174.497 17.1737 174.355 17.1737 174.181V158.49Z" stroke="#B7D2E7" stroke-width="0.347305"/>
</g>
<circle cx="25.0494" cy="168.331" r="0.939091" fill="#E4E4E6"/>
<rect x="23.4846" y="163.322" width="12.8342" height="1.87818" rx="0.939091" fill="#E4E4E6"/>
<rect x="48.6714" y="163.322" width="12.8342" height="1.87818" rx="0.939091" fill="#E4E4E6"/>
<rect x="27.8669" y="167.392" width="30.99" height="1.87818" rx="0.939091" fill="#E4E4E6"/>
<rect x="38.823" y="163.322" width="6.57363" height="1.87818" rx="0.939091" fill="#E4E4E6"/>
<path d="M17 159C17 156.791 18.7909 155 21 155H71C73.2091 155 75 156.791 75 159H17Z" fill="#074889"/>
<g filter="url(#filter6_d_2823_14387)">
<path d="M87 113.49C87 113.219 87.2193 113 87.4897 113H144.51C144.781 113 145 113.219 145 113.49V129.181C145 129.451 144.781 129.671 144.51 129.671H87.4897C87.2193 129.671 87 129.451 87 129.181V113.49Z" fill="white"/>
<path d="M87.1737 113.49C87.1737 113.315 87.3152 113.174 87.4897 113.174H144.51C144.685 113.174 144.826 113.315 144.826 113.49V129.181C144.826 129.355 144.685 129.497 144.51 129.497H87.4897C87.3152 129.497 87.1737 129.355 87.1737 129.181V113.49Z" stroke="#B7D2E7" stroke-width="0.347305"/>
</g>
<circle cx="95.0494" cy="123.331" r="0.939091" fill="#E4E4E6"/>
<rect x="93.4846" y="118.322" width="12.8342" height="1.87818" rx="0.939091" fill="#E4E4E6"/>
<rect x="118.671" y="118.322" width="12.8342" height="1.87818" rx="0.939091" fill="#E4E4E6"/>
<rect x="97.8669" y="122.392" width="30.99" height="1.87818" rx="0.939091" fill="#E4E4E6"/>
<rect x="108.823" y="118.322" width="6.57363" height="1.87818" rx="0.939091" fill="#E4E4E6"/>
<g filter="url(#filter7_d_2823_14387)">
<path d="M155 91.4897C155 91.2193 155.219 91 155.49 91H212.51C212.781 91 213 91.2193 213 91.4897V107.181C213 107.451 212.781 107.671 212.51 107.671H155.49C155.219 107.671 155 107.451 155 107.181V91.4897Z" fill="white"/>
<path d="M155.174 91.4897C155.174 91.3152 155.315 91.1737 155.49 91.1737H212.51C212.685 91.1737 212.826 91.3152 212.826 91.4897V107.181C212.826 107.355 212.685 107.497 212.51 107.497H155.49C155.315 107.497 155.174 107.355 155.174 107.181V91.4897Z" stroke="#B7D2E7" stroke-width="0.347305"/>
</g>
<circle cx="163.049" cy="101.331" r="0.939091" fill="#E4E4E6"/>
<rect x="161.485" y="96.3218" width="12.8342" height="1.87818" rx="0.939091" fill="#E4E4E6"/>
<rect x="186.671" y="96.3218" width="12.8342" height="1.87818" rx="0.939091" fill="#E4E4E6"/>
<rect x="165.867" y="100.392" width="30.99" height="1.87818" rx="0.939091" fill="#E4E4E6"/>
<rect x="176.823" y="96.3218" width="6.57363" height="1.87818" rx="0.939091" fill="#E4E4E6"/>
<g filter="url(#filter8_d_2823_14387)">
<path d="M155 113.49C155 113.219 155.219 113 155.49 113H212.51C212.781 113 213 113.219 213 113.49V129.181C213 129.451 212.781 129.671 212.51 129.671H155.49C155.219 129.671 155 129.451 155 129.181V113.49Z" fill="white"/>
<path d="M155.174 113.49C155.174 113.315 155.315 113.174 155.49 113.174H212.51C212.685 113.174 212.826 113.315 212.826 113.49V129.181C212.826 129.355 212.685 129.497 212.51 129.497H155.49C155.315 129.497 155.174 129.355 155.174 129.181V113.49Z" stroke="#B7D2E7" stroke-width="0.347305"/>
</g>
<circle cx="163.049" cy="123.331" r="0.939091" fill="#E4E4E6"/>
<rect x="161.485" y="118.322" width="12.8342" height="1.87818" rx="0.939091" fill="#E4E4E6"/>
<rect x="186.671" y="118.322" width="12.8342" height="1.87818" rx="0.939091" fill="#E4E4E6"/>
<rect x="165.867" y="122.392" width="30.99" height="1.87818" rx="0.939091" fill="#E4E4E6"/>
<rect x="176.823" y="118.322" width="6.57363" height="1.87818" rx="0.939091" fill="#E4E4E6"/>
<g filter="url(#filter9_d_2823_14387)">
<path d="M155 135.49C155 135.219 155.219 135 155.49 135H212.51C212.781 135 213 135.219 213 135.49V151.181C213 151.451 212.781 151.671 212.51 151.671H155.49C155.219 151.671 155 151.451 155 151.181V135.49Z" fill="white"/>
<path d="M155.174 135.49C155.174 135.315 155.315 135.174 155.49 135.174H212.51C212.685 135.174 212.826 135.315 212.826 135.49V151.181C212.826 151.355 212.685 151.497 212.51 151.497H155.49C155.315 151.497 155.174 151.355 155.174 151.181V135.49Z" stroke="#B7D2E7" stroke-width="0.347305"/>
</g>
<circle cx="163.049" cy="145.331" r="0.939091" fill="#E4E4E6"/>
<rect x="161.485" y="140.322" width="12.8342" height="1.87818" rx="0.939091" fill="#E4E4E6"/>
<rect x="186.671" y="140.322" width="12.8342" height="1.87818" rx="0.939091" fill="#E4E4E6"/>
<rect x="165.867" y="144.392" width="30.99" height="1.87818" rx="0.939091" fill="#E4E4E6"/>
<rect x="176.823" y="140.322" width="6.57363" height="1.87818" rx="0.939091" fill="#E4E4E6"/>
<g clip-path="url(#clip0_2823_14387)">
<g filter="url(#filter10_d_2823_14387)">
<path d="M218 91.4897C218 91.2193 218.219 91 218.49 91H275.51C275.781 91 276 91.2193 276 91.4897V107.181C276 107.451 275.781 107.671 275.51 107.671H218.49C218.219 107.671 218 107.451 218 107.181V91.4897Z" fill="white"/>
<path d="M218.174 91.4897C218.174 91.3152 218.315 91.1737 218.49 91.1737H275.51C275.685 91.1737 275.826 91.3152 275.826 91.4897V107.181C275.826 107.355 275.685 107.497 275.51 107.497H218.49C218.315 107.497 218.174 107.355 218.174 107.181V91.4897Z" stroke="#B7D2E7" stroke-width="0.347305"/>
</g>
<circle cx="226.049" cy="101.331" r="0.939091" fill="#E4E4E6"/>
<rect x="224.485" y="96.3218" width="12.8342" height="1.87818" rx="0.939091" fill="#E4E4E6"/>
<rect x="228.867" y="100.392" width="30.99" height="1.87818" rx="0.939091" fill="#E4E4E6"/>
<g filter="url(#filter11_d_2823_14387)">
<path d="M218 113.49C218 113.219 218.219 113 218.49 113H275.51C275.781 113 276 113.219 276 113.49V129.181C276 129.451 275.781 129.671 275.51 129.671H218.49C218.219 129.671 218 129.451 218 129.181V113.49Z" fill="white"/>
<path d="M218.174 113.49C218.174 113.315 218.315 113.174 218.49 113.174H275.51C275.685 113.174 275.826 113.315 275.826 113.49V129.181C275.826 129.355 275.685 129.497 275.51 129.497H218.49C218.315 129.497 218.174 129.355 218.174 129.181V113.49Z" stroke="#B7D2E7" stroke-width="0.347305"/>
</g>
<circle cx="226.049" cy="123.331" r="0.939091" fill="#E4E4E6"/>
<rect x="224.485" y="118.322" width="12.8342" height="1.87818" rx="0.939091" fill="#E4E4E6"/>
<rect x="228.867" y="122.392" width="30.99" height="1.87818" rx="0.939091" fill="#E4E4E6"/>
<g filter="url(#filter12_d_2823_14387)">
<path d="M218 135.49C218 135.219 218.219 135 218.49 135H275.51C275.781 135 276 135.219 276 135.49V151.181C276 151.451 275.781 151.671 275.51 151.671H218.49C218.219 151.671 218 151.451 218 151.181V135.49Z" fill="white"/>
<path d="M218.174 135.49C218.174 135.315 218.315 135.174 218.49 135.174H275.51C275.685 135.174 275.826 135.315 275.826 135.49V151.181C275.826 151.355 275.685 151.497 275.51 151.497H218.49C218.315 151.497 218.174 151.355 218.174 151.181V135.49Z" stroke="#B7D2E7" stroke-width="0.347305"/>
</g>
<circle cx="226.049" cy="145.331" r="0.939091" fill="#E4E4E6"/>
<rect x="224.485" y="140.322" width="12.8342" height="1.87818" rx="0.939091" fill="#E4E4E6"/>
<rect x="228.867" y="144.392" width="30.99" height="1.87818" rx="0.939091" fill="#E4E4E6"/>
<g filter="url(#filter13_d_2823_14387)">
<path d="M218 157.49C218 157.219 218.219 157 218.49 157H275.51C275.781 157 276 157.219 276 157.49V173.181C276 173.451 275.781 173.671 275.51 173.671H218.49C218.219 173.671 218 173.451 218 173.181V157.49Z" fill="white"/>
<path d="M218.174 157.49C218.174 157.315 218.315 157.174 218.49 157.174H275.51C275.685 157.174 275.826 157.315 275.826 157.49V173.181C275.826 173.355 275.685 173.497 275.51 173.497H218.49C218.315 173.497 218.174 173.355 218.174 173.181V157.49Z" stroke="#B7D2E7" stroke-width="0.347305"/>
</g>
<circle cx="226.049" cy="167.331" r="0.939091" fill="#E4E4E6"/>
<rect x="224.485" y="162.322" width="12.8342" height="1.87818" rx="0.939091" fill="#E4E4E6"/>
<rect x="228.867" y="166.392" width="30.99" height="1.87818" rx="0.939091" fill="#E4E4E6"/>
</g>
<defs>
<filter id="filter0_d_2823_14387" x="3.07379" y="31.7159" width="237.852" height="183.852" filterUnits="userSpaceOnUse" color-interpolation-filters="sRGB">
<feFlood flood-opacity="0" result="BackgroundImageFix"/>
<feColorMatrix in="SourceAlpha" type="matrix" values="0 0 0 0 0 0 0 0 0 0 0 0 0 0 0 0 0 0 127 0" result="hardAlpha"/>
<feOffset dy="2.64207"/>
<feGaussianBlur stdDeviation="3.9631"/>
<feColorMatrix type="matrix" values="0 0 0 0 0 0 0 0 0 0 0 0 0 0 0 0 0 0 0.15 0"/>
<feBlend mode="normal" in2="BackgroundImageFix" result="effect1_dropShadow_2823_14387"/>
<feBlend mode="normal" in="SourceGraphic" in2="effect1_dropShadow_2823_14387" result="shape"/>
</filter>
<filter id="filter1_d_2823_14387" x="3.07379" y="31.7159" width="237.852" height="183.852" filterUnits="userSpaceOnUse" color-interpolation-filters="sRGB">
<feFlood flood-opacity="0" result="BackgroundImageFix"/>
<feColorMatrix in="SourceAlpha" type="matrix" values="0 0 0 0 0 0 0 0 0 0 0 0 0 0 0 0 0 0 127 0" result="hardAlpha"/>
<feOffset dy="2.64207"/>
<feGaussianBlur stdDeviation="3.9631"/>
<feColorMatrix type="matrix" values="0 0 0 0 0 0 0 0 0 0 0 0 0 0 0 0 0 0 0.15 0"/>
<feBlend mode="normal" in2="BackgroundImageFix" result="effect1_dropShadow_2823_14387"/>
<feBlend mode="normal" in="SourceGraphic" in2="effect1_dropShadow_2823_14387" result="shape"/>
</filter>
<filter id="filter2_d_2823_14387" x="84.0616" y="89.041" width="63.8769" height="22.5478" filterUnits="userSpaceOnUse" color-interpolation-filters="sRGB">
<feFlood flood-opacity="0" result="BackgroundImageFix"/>
<feColorMatrix in="SourceAlpha" type="matrix" values="0 0 0 0 0 0 0 0 0 0 0 0 0 0 0 0 0 0 127 0" result="hardAlpha"/>
<feOffset dy="0.979483"/>
<feGaussianBlur stdDeviation="1.46922"/>
<feColorMatrix type="matrix" values="0 0 0 0 0 0 0 0 0 0 0 0 0 0 0 0 0 0 0.15 0"/>
<feBlend mode="normal" in2="BackgroundImageFix" result="effect1_dropShadow_2823_14387"/>
<feBlend mode="normal" in="SourceGraphic" in2="effect1_dropShadow_2823_14387" result="shape"/>
</filter>
<filter id="filter3_d_2823_14387" x="14.0616" y="104.041" width="63.8769" height="22.5478" filterUnits="userSpaceOnUse" color-interpolation-filters="sRGB">
<feFlood flood-opacity="0" result="BackgroundImageFix"/>
<feColorMatrix in="SourceAlpha" type="matrix" values="0 0 0 0 0 0 0 0 0 0 0 0 0 0 0 0 0 0 127 0" result="hardAlpha"/>
<feOffset dy="0.979483"/>
<feGaussianBlur stdDeviation="1.46922"/>
<feColorMatrix type="matrix" values="0 0 0 0 0 0 0 0 0 0 0 0 0 0 0 0 0 0 0.15 0"/>
<feBlend mode="normal" in2="BackgroundImageFix" result="effect1_dropShadow_2823_14387"/>
<feBlend mode="normal" in="SourceGraphic" in2="effect1_dropShadow_2823_14387" result="shape"/>
</filter>
<filter id="filter4_d_2823_14387" x="14.0616" y="130.041" width="63.8769" height="22.5478" filterUnits="userSpaceOnUse" color-interpolation-filters="sRGB">
<feFlood flood-opacity="0" result="BackgroundImageFix"/>
<feColorMatrix in="SourceAlpha" type="matrix" values="0 0 0 0 0 0 0 0 0 0 0 0 0 0 0 0 0 0 127 0" result="hardAlpha"/>
<feOffset dy="0.979483"/>
<feGaussianBlur stdDeviation="1.46922"/>
<feColorMatrix type="matrix" values="0 0 0 0 0 0 0 0 0 0 0 0 0 0 0 0 0 0 0.15 0"/>
<feBlend mode="normal" in2="BackgroundImageFix" result="effect1_dropShadow_2823_14387"/>
<feBlend mode="normal" in="SourceGraphic" in2="effect1_dropShadow_2823_14387" result="shape"/>
</filter>
<filter id="filter5_d_2823_14387" x="14.0616" y="156.041" width="63.8769" height="22.5478" filterUnits="userSpaceOnUse" color-interpolation-filters="sRGB">
<feFlood flood-opacity="0" result="BackgroundImageFix"/>
<feColorMatrix in="SourceAlpha" type="matrix" values="0 0 0 0 0 0 0 0 0 0 0 0 0 0 0 0 0 0 127 0" result="hardAlpha"/>
<feOffset dy="0.979483"/>
<feGaussianBlur stdDeviation="1.46922"/>
<feColorMatrix type="matrix" values="0 0 0 0 0 0 0 0 0 0 0 0 0 0 0 0 0 0 0.15 0"/>
<feBlend mode="normal" in2="BackgroundImageFix" result="effect1_dropShadow_2823_14387"/>
<feBlend mode="normal" in="SourceGraphic" in2="effect1_dropShadow_2823_14387" result="shape"/>
</filter>
<filter id="filter6_d_2823_14387" x="84.0616" y="111.041" width="63.8769" height="22.5478" filterUnits="userSpaceOnUse" color-interpolation-filters="sRGB">
<feFlood flood-opacity="0" result="BackgroundImageFix"/>
<feColorMatrix in="SourceAlpha" type="matrix" values="0 0 0 0 0 0 0 0 0 0 0 0 0 0 0 0 0 0 127 0" result="hardAlpha"/>
<feOffset dy="0.979483"/>
<feGaussianBlur stdDeviation="1.46922"/>
<feColorMatrix type="matrix" values="0 0 0 0 0 0 0 0 0 0 0 0 0 0 0 0 0 0 0.15 0"/>
<feBlend mode="normal" in2="BackgroundImageFix" result="effect1_dropShadow_2823_14387"/>
<feBlend mode="normal" in="SourceGraphic" in2="effect1_dropShadow_2823_14387" result="shape"/>
</filter>
<filter id="filter7_d_2823_14387" x="152.062" y="89.041" width="63.8769" height="22.5478" filterUnits="userSpaceOnUse" color-interpolation-filters="sRGB">
<feFlood flood-opacity="0" result="BackgroundImageFix"/>
<feColorMatrix in="SourceAlpha" type="matrix" values="0 0 0 0 0 0 0 0 0 0 0 0 0 0 0 0 0 0 127 0" result="hardAlpha"/>
<feOffset dy="0.979483"/>
<feGaussianBlur stdDeviation="1.46922"/>
<feColorMatrix type="matrix" values="0 0 0 0 0 0 0 0 0 0 0 0 0 0 0 0 0 0 0.15 0"/>
<feBlend mode="normal" in2="BackgroundImageFix" result="effect1_dropShadow_2823_14387"/>
<feBlend mode="normal" in="SourceGraphic" in2="effect1_dropShadow_2823_14387" result="shape"/>
</filter>
<filter id="filter8_d_2823_14387" x="152.062" y="111.041" width="63.8769" height="22.5478" filterUnits="userSpaceOnUse" color-interpolation-filters="sRGB">
<feFlood flood-opacity="0" result="BackgroundImageFix"/>
<feColorMatrix in="SourceAlpha" type="matrix" values="0 0 0 0 0 0 0 0 0 0 0 0 0 0 0 0 0 0 127 0" result="hardAlpha"/>
<feOffset dy="0.979483"/>
<feGaussianBlur stdDeviation="1.46922"/>
<feColorMatrix type="matrix" values="0 0 0 0 0 0 0 0 0 0 0 0 0 0 0 0 0 0 0.15 0"/>
<feBlend mode="normal" in2="BackgroundImageFix" result="effect1_dropShadow_2823_14387"/>
<feBlend mode="normal" in="SourceGraphic" in2="effect1_dropShadow_2823_14387" result="shape"/>
</filter>
<filter id="filter9_d_2823_14387" x="152.062" y="133.041" width="63.8769" height="22.5478" filterUnits="userSpaceOnUse" color-interpolation-filters="sRGB">
<feFlood flood-opacity="0" result="BackgroundImageFix"/>
<feColorMatrix in="SourceAlpha" type="matrix" values="0 0 0 0 0 0 0 0 0 0 0 0 0 0 0 0 0 0 127 0" result="hardAlpha"/>
<feOffset dy="0.979483"/>
<feGaussianBlur stdDeviation="1.46922"/>
<feColorMatrix type="matrix" values="0 0 0 0 0 0 0 0 0 0 0 0 0 0 0 0 0 0 0.15 0"/>
<feBlend mode="normal" in2="BackgroundImageFix" result="effect1_dropShadow_2823_14387"/>
<feBlend mode="normal" in="SourceGraphic" in2="effect1_dropShadow_2823_14387" result="shape"/>
</filter>
<filter id="filter10_d_2823_14387" x="215.062" y="89.041" width="63.8769" height="22.5478" filterUnits="userSpaceOnUse" color-interpolation-filters="sRGB">
<feFlood flood-opacity="0" result="BackgroundImageFix"/>
<feColorMatrix in="SourceAlpha" type="matrix" values="0 0 0 0 0 0 0 0 0 0 0 0 0 0 0 0 0 0 127 0" result="hardAlpha"/>
<feOffset dy="0.979483"/>
<feGaussianBlur stdDeviation="1.46922"/>
<feColorMatrix type="matrix" values="0 0 0 0 0 0 0 0 0 0 0 0 0 0 0 0 0 0 0.15 0"/>
<feBlend mode="normal" in2="BackgroundImageFix" result="effect1_dropShadow_2823_14387"/>
<feBlend mode="normal" in="SourceGraphic" in2="effect1_dropShadow_2823_14387" result="shape"/>
</filter>
<filter id="filter11_d_2823_14387" x="215.062" y="111.041" width="63.8769" height="22.5478" filterUnits="userSpaceOnUse" color-interpolation-filters="sRGB">
<feFlood flood-opacity="0" result="BackgroundImageFix"/>
<feColorMatrix in="SourceAlpha" type="matrix" values="0 0 0 0 0 0 0 0 0 0 0 0 0 0 0 0 0 0 127 0" result="hardAlpha"/>
<feOffset dy="0.979483"/>
<feGaussianBlur stdDeviation="1.46922"/>
<feColorMatrix type="matrix" values="0 0 0 0 0 0 0 0 0 0 0 0 0 0 0 0 0 0 0.15 0"/>
<feBlend mode="normal" in2="BackgroundImageFix" result="effect1_dropShadow_2823_14387"/>
<feBlend mode="normal" in="SourceGraphic" in2="effect1_dropShadow_2823_14387" result="shape"/>
</filter>
<filter id="filter12_d_2823_14387" x="215.062" y="133.041" width="63.8769" height="22.5478" filterUnits="userSpaceOnUse" color-interpolation-filters="sRGB">
<feFlood flood-opacity="0" result="BackgroundImageFix"/>
<feColorMatrix in="SourceAlpha" type="matrix" values="0 0 0 0 0 0 0 0 0 0 0 0 0 0 0 0 0 0 127 0" result="hardAlpha"/>
<feOffset dy="0.979483"/>
<feGaussianBlur stdDeviation="1.46922"/>
<feColorMatrix type="matrix" values="0 0 0 0 0 0 0 0 0 0 0 0 0 0 0 0 0 0 0.15 0"/>
<feBlend mode="normal" in2="BackgroundImageFix" result="effect1_dropShadow_2823_14387"/>
<feBlend mode="normal" in="SourceGraphic" in2="effect1_dropShadow_2823_14387" result="shape"/>
</filter>
<filter id="filter13_d_2823_14387" x="215.062" y="155.041" width="63.8769" height="22.5478" filterUnits="userSpaceOnUse" color-interpolation-filters="sRGB">
<feFlood flood-opacity="0" result="BackgroundImageFix"/>
<feColorMatrix in="SourceAlpha" type="matrix" values="0 0 0 0 0 0 0 0 0 0 0 0 0 0 0 0 0 0 127 0" result="hardAlpha"/>
<feOffset dy="0.979483"/>
<feGaussianBlur stdDeviation="1.46922"/>
<feColorMatrix type="matrix" values="0 0 0 0 0 0 0 0 0 0 0 0 0 0 0 0 0 0 0.15 0"/>
<feBlend mode="normal" in2="BackgroundImageFix" result="effect1_dropShadow_2823_14387"/>
<feBlend mode="normal" in="SourceGraphic" in2="effect1_dropShadow_2823_14387" result="shape"/>
</filter>
<clipPath id="clip0_2823_14387">
<rect width="15" height="100" fill="white" transform="translate(218 91)"/>
</clipPath>
</defs>
</svg>
