<svg width="20" height="16" viewBox="0 0 20 16" fill="none" xmlns="http://www.w3.org/2000/svg">
<path fill-rule="evenodd" clip-rule="evenodd" d="M14.6569 15.282L20 8L14.6569 0.717948C14.4771 0.478631 14.2688 0.299144 14.0319 0.179486C13.7949 0.059828 13.5376 0 13.2598 0H1.76471C1.27451 0 0.857843 0.179487 0.514705 0.538462C0.171568 0.897436 0 1.33333 0 1.84615V14.1538C0 14.6667 0.171569 15.1026 0.514706 15.4615C0.857843 15.8205 1.27451 16 1.76471 16L13.2598 16C13.5376 16 13.7949 15.9402 14.0319 15.8205C14.2688 15.7009 14.4771 15.5214 14.6569 15.282ZM3.52941 9.1653L6.66667 12.3077L12.9412 6.02291L11.8431 4.92308L6.66667 10.108L4.62745 8.06547L3.52941 9.1653Z" fill="#061A4D"/>
</svg>
