<svg width="74" height="74" viewBox="0 0 74 74" fill="none" xmlns="http://www.w3.org/2000/svg">
<path d="M48.861 12.871H54.9443C56.5577 12.871 58.105 13.5119 59.2459 14.6527C60.3867 15.7936 61.0276 17.3409 61.0276 18.9543V61.5376C61.0276 63.151 60.3867 64.6984 59.2459 65.8392C58.105 66.9801 56.5577 67.621 54.9443 67.621H18.4443C16.8309 67.621 15.2836 66.9801 14.1427 65.8392C13.0019 64.6984 12.361 63.151 12.361 61.5376V18.9543C12.361 17.3409 13.0019 15.7936 14.1427 14.6527C15.2836 13.5119 16.8309 12.871 18.4443 12.871H24.5276" stroke="#002664" stroke-width="3" stroke-linecap="round" stroke-linejoin="round"/>
<path d="M45.8194 6.78772H27.5694C25.8895 6.78772 24.5277 8.14952 24.5277 9.82939V15.9127C24.5277 17.5926 25.8895 18.9544 27.5694 18.9544H45.8194C47.4992 18.9544 48.861 17.5926 48.861 15.9127V9.82939C48.861 8.14952 47.4992 6.78772 45.8194 6.78772Z" stroke="#002664" stroke-width="3" stroke-linecap="round" stroke-linejoin="round"/>
<path d="M33.361 28.9543L25.5694 36.746L22.0277 33.2043" stroke="#002664" stroke-width="3" stroke-linecap="round" stroke-linejoin="round"/>
<path d="M33.361 45.9543L25.5694 53.746L22.0277 50.2043" stroke="#002664" stroke-width="3" stroke-linecap="round" stroke-linejoin="round"/>
</svg>
