<svg width="71" height="76" viewBox="0 0 71 76" fill="none" xmlns="http://www.w3.org/2000/svg">
<g clip-path="url(#clip0_2509_5547)">
<path d="M5.25863 73.342H6.63888L6.60016 73.6209C6.58649 73.7278 6.55005 73.838 6.49083 73.9494C6.43389 74.0596 6.3519 74.1654 6.24827 74.2621C6.14577 74.3577 6.0205 74.4365 5.87701 74.4972C5.73466 74.5557 5.56953 74.5861 5.38618 74.5861C5.18802 74.5861 4.99556 74.5523 4.81335 74.4859C4.63342 74.4241 4.47057 74.3127 4.32708 74.1552C4.18244 73.9966 4.06515 73.7773 3.97973 73.5028C3.89205 73.2238 3.84763 72.8661 3.84763 72.4376C3.84763 71.9111 3.91482 71.4848 4.04806 71.1676C4.17903 70.8571 4.35782 70.6288 4.57875 70.4904C4.80082 70.3509 5.05478 70.28 5.33038 70.28C5.55814 70.28 5.75857 70.3284 5.92712 70.424C6.0968 70.5196 6.23916 70.6513 6.34848 70.8121C6.46009 70.9752 6.53525 71.1563 6.57169 71.3498L6.58877 71.442H8.24462L8.23892 71.3239C8.22412 71.0112 8.1444 70.7075 7.99977 70.4229C7.85514 70.1361 7.65357 69.8762 7.39847 69.649C7.14793 69.424 6.84501 69.2418 6.50108 69.1102C6.16058 68.9797 5.77679 68.9133 5.36112 68.9133C4.72111 68.9133 4.15056 69.0596 3.66542 69.3487C3.18028 69.64 2.79878 70.0573 2.53229 70.5894C2.26467 71.1192 2.12915 71.7536 2.12915 72.4747C2.12915 73.1856 2.25784 73.811 2.51179 74.3341C2.76803 74.8617 3.13701 75.2767 3.61076 75.5658C4.08337 75.8538 4.64708 76 5.28596 76C5.66177 76 5.98634 75.9483 6.2494 75.847C6.50792 75.7481 6.73226 75.6164 6.91675 75.4578C7.00103 75.3825 7.0796 75.3071 7.15249 75.2317V75.9078H8.31295V72.1957L5.25521 72.1811V73.342H5.25863Z" fill="#002664"/>
<path d="M14.0594 69.3451C13.581 69.0594 13.0105 68.9143 12.3648 68.9143C11.7168 68.9143 11.144 69.0605 10.66 69.3485C10.176 69.6376 9.7956 70.0527 9.53026 70.5836C9.26605 71.1101 9.13281 71.7456 9.13281 72.4712C9.13281 73.1933 9.26492 73.8244 9.52457 74.3474C9.78877 74.8761 10.168 75.2867 10.6486 75.5702C11.1292 75.8548 11.7065 75.9999 12.3636 75.9999C13.0151 75.9999 13.589 75.8559 14.0673 75.5702C14.549 75.2845 14.9249 74.8716 15.1845 74.3429C15.4419 73.8188 15.5717 73.1888 15.5717 72.47C15.5717 71.7411 15.4396 71.1044 15.1799 70.5791C14.918 70.0482 14.5399 69.6331 14.0594 69.3451ZM13.1597 74.4509C12.9387 74.5927 12.6711 74.6647 12.3648 74.6647C12.0607 74.6647 11.7942 74.5927 11.5722 74.4498C11.3501 74.3092 11.1747 74.0786 11.0506 73.767C10.923 73.4464 10.8581 73.0156 10.8581 72.488C10.8581 71.9515 10.923 71.5116 11.0517 71.1798C11.1759 70.857 11.3524 70.6185 11.5744 70.4711C11.7977 70.3238 12.0641 70.2484 12.3659 70.2484C12.6666 70.2484 12.9319 70.3238 13.1551 70.4711C13.3761 70.6196 13.5503 70.857 13.6721 71.1776C13.7986 71.5071 13.8635 71.9481 13.8635 72.4892C13.8635 73.0156 13.7997 73.4464 13.6756 73.7681C13.5526 74.0786 13.3795 74.3092 13.1597 74.4509Z" fill="#002664"/>
<path d="M18.8819 73.8692L17.1919 69.03H15.6567L18.03 75.8839H19.7292L22.123 69.03H20.5856L18.8819 73.8692Z" fill="#002664"/>
<path d="M24.3703 73.1021H27.1946V71.7657H24.3783V70.3844H27.6216L27.6262 69.03H22.7908V75.8839H27.6729V74.5194L24.3703 74.5149V73.1021Z" fill="#002664"/>
<path d="M33.3603 72.687C33.5482 72.5205 33.7019 72.3068 33.8204 72.0514C33.9354 71.7983 33.9946 71.4868 33.9946 71.1234C33.9946 70.7173 33.9092 70.354 33.7395 70.0424C33.5698 69.7252 33.3011 69.4744 32.9389 69.2944C32.5825 69.1189 32.1235 69.03 31.5746 69.03H28.6296V75.8817H30.2092V73.3293H31.3719L32.4663 75.8817H34.1244L32.849 73.0436C33.0335 72.9468 33.2054 72.8265 33.3603 72.687ZM32.3969 71.156C32.3969 71.4271 32.3046 71.642 32.1156 71.8152C31.9265 71.9862 31.6635 72.0728 31.3321 72.0728H30.2092V70.2798H31.4311C31.7158 70.2798 31.9447 70.3574 32.1292 70.5171C32.3092 70.6735 32.3969 70.8827 32.3969 71.156Z" fill="#002664"/>
<path d="M39.4411 73.1639L36.5542 69.03H35.0396V75.8839H36.6191V71.579L39.6301 75.8839H41.0252V69.03H39.4411V73.1639Z" fill="#002664"/>
<path d="M45.8643 73.498L44.4134 69.03H42.2485V75.8839H43.8417V71.4688L45.2471 75.8839H46.477L47.8925 71.444V75.8839H49.4903V69.03H47.33L45.8643 73.498Z" fill="#002664"/>
<path d="M52.2895 73.1021H55.1137V71.7657H52.2997V70.3844H55.5408L55.5465 69.03H50.71V75.8839H55.5932V74.5194L52.2895 74.5149V73.1021Z" fill="#002664"/>
<path d="M61.0082 73.1639L58.1225 69.03H56.6067V75.8839H58.1851V71.579L61.1961 75.8839H62.5912V69.03H61.0082V73.1639Z" fill="#002664"/>
<path d="M63.2568 70.4485H65.2828V75.8839H66.8726V70.4485H68.8519V69.03H63.2568V70.4485Z" fill="#002664"/>
<path d="M7.11313 52.0499L17.2372 66.5203H21.3552V44.8811H16.7487V58.8003L7.06302 44.9295L7.02885 44.8811H2.52026V66.5203H7.11313V52.0499Z" fill="#002664"/>
<path d="M40.2313 56.7927C39.8248 56.1426 39.2121 55.552 38.4103 55.0379C37.6097 54.5239 36.5188 54.1313 35.1715 53.8714L31.4203 53.1077C30.2871 52.8658 29.5059 52.5531 29.0982 52.1796C28.7008 51.8152 28.4992 51.3304 28.4992 50.7387C28.4992 50.3618 28.5857 50.0188 28.7577 49.7184C28.9285 49.4169 29.1768 49.1504 29.4945 48.9254C29.8145 48.7004 30.212 48.5227 30.6755 48.3978C31.1447 48.2707 31.6719 48.2066 32.2425 48.2066C32.9941 48.2066 33.6717 48.3045 34.2571 48.4991C34.8356 48.6925 35.315 49.0097 35.6817 49.4439C36.0484 49.8781 36.2739 50.4687 36.3514 51.1988L36.3616 51.3H41.016L41.0137 51.1841C40.9932 49.9423 40.6379 48.8028 39.958 47.7983C39.277 46.7926 38.2737 45.985 36.9743 45.3955C35.6783 44.8083 34.0612 44.5103 32.1673 44.5103C30.5764 44.5103 29.1187 44.7847 27.833 45.3269C26.5438 45.8702 25.5087 46.6543 24.7582 47.6576C24.0043 48.6667 23.6285 49.8736 23.6399 51.2471C23.6706 52.9232 24.1853 54.2831 25.1693 55.2922C26.1498 56.2955 27.4936 56.9637 29.1643 57.2753L32.9474 58.038C33.641 58.1741 34.2707 58.3529 34.8185 58.57C35.356 58.7826 35.7854 59.0594 36.094 59.3923C36.3958 59.7174 36.5484 60.1449 36.5484 60.6601C36.5484 61.2337 36.3582 61.7186 35.9835 62.0988C35.5997 62.488 35.0782 62.7816 34.4359 62.9739C33.781 63.1696 33.0488 63.2686 32.2596 63.2686C31.4897 63.2686 30.7803 63.1505 30.1516 62.9165C29.5264 62.686 29.0014 62.3485 28.5914 61.9143C28.1826 61.4823 27.9025 60.9413 27.7578 60.308L27.7373 60.2191H22.9941L23.0067 60.344C23.1183 61.4418 23.4633 62.4149 24.0316 63.2371C24.5987 64.0538 25.3253 64.7422 26.1908 65.2867C27.054 65.8277 28.022 66.2405 29.0686 66.5116C30.1129 66.7816 31.1925 66.9188 32.2755 66.9188C34.0487 66.9188 35.6214 66.6421 36.9504 66.0954C38.2851 65.5465 39.3408 64.7906 40.0901 63.8491C40.8451 62.9008 41.2278 61.8198 41.2278 60.6331C41.2278 60.0729 41.164 59.4497 41.0365 58.7815C40.9055 58.1077 40.6345 57.4384 40.2313 56.7927Z" fill="#002664"/>
<path d="M64.9857 44.8816L61.0397 58.7209L57.0493 44.8816H53.7125L49.7665 58.7187L45.8217 44.8816H41.2937L47.7474 66.5208H51.3529L55.3729 52.8221L59.3645 66.5208H63.0304L69.4989 44.8816H64.9857Z" fill="#002664"/>
<path d="M33.5374 39.5126C28.1212 38.8545 22.8598 40.5722 13.6023 38.084C12.6571 37.8297 12.3086 38.8151 12.82 39.6408C15.3072 43.6589 27.8706 40.5103 33.5625 39.9299C33.8107 39.904 33.7857 39.5429 33.5374 39.5126Z" fill="#D7153A"/>
<path d="M57.2446 38.084C47.9871 40.5722 42.7257 38.8545 37.3095 39.5126C37.0612 39.5429 37.0351 39.9051 37.2845 39.9299C42.9774 40.5103 55.5397 43.6589 58.0269 39.6408C58.5383 38.8151 58.1898 37.8297 57.2446 38.084Z" fill="#D7153A"/>
<path d="M16.4223 32.3357C14.5398 29.6057 13.0013 26.5516 11.8101 23.1917C8.21708 24.2299 4.53983 25.7282 0.796529 27.6889C0.312531 27.942 0.0152978 28.4167 0.000493158 28.9566C-0.0131727 29.4966 0.257867 29.9848 0.728199 30.2626C7.97679 34.5517 15.0637 37.0051 21.826 37.5732C19.8125 36.3583 17.9665 34.5754 16.4223 32.3357Z" fill="#D7153A"/>
<path d="M6.32356 23.2106C7.98168 22.5548 9.625 21.9923 11.2535 21.5188C10.6704 19.647 10.1921 17.6863 9.81404 15.6402C7.94182 15.4096 6.00469 15.26 4.00036 15.1947C3.98328 15.1947 3.96506 15.1936 3.94798 15.1936C3.42298 15.1936 2.94923 15.4546 2.67364 15.9C2.38893 16.359 2.3764 16.9158 2.64061 17.3882C3.80449 19.467 5.03327 21.4074 6.32356 23.2106Z" fill="#D7153A"/>
<path d="M24.1351 36.7981C25.2592 37.2885 26.4094 37.563 27.5243 37.6204C24.7945 35.6878 22.6501 32.4111 21.4145 28.2344C19.8224 22.8575 19.2906 16.9249 19.8156 10.5244C17.6678 9.18469 15.34 7.93046 12.8335 6.76509C12.3495 6.54012 11.796 6.58399 11.3519 6.88208C10.9089 7.17904 10.664 7.67061 10.6971 8.19593C11.2801 17.4829 13.7001 25.2726 17.8887 31.3481C19.6448 33.897 21.8051 35.7812 24.1351 36.7981Z" fill="#D7153A"/>
<path d="M29.4779 6.39956C28.1933 4.85848 26.7994 3.33428 25.295 1.82807C25.0035 1.5356 24.6277 1.38037 24.2394 1.38037C24.1004 1.38037 23.9603 1.40062 23.8214 1.44112C23.2941 1.59522 22.9126 2.01255 22.7976 2.55811C22.5038 3.95971 21.9446 6.81689 21.6975 9.64257C23.621 10.8946 25.3975 12.2185 27.0249 13.6111C27.6558 11.2343 28.4758 8.82591 29.4779 6.39956Z" fill="#D7153A"/>
<path d="M70.0472 27.6877C66.3039 25.727 62.6266 24.2287 59.0337 23.1904C57.8425 26.5504 56.3039 29.6045 54.4214 32.3345C52.8772 34.5753 51.0312 36.3571 49.0166 37.5719C55.7789 37.0039 62.8658 34.5505 70.1144 30.2614C70.5847 29.9835 70.8569 29.4953 70.8421 28.9554C70.8296 28.4155 70.5312 27.9419 70.0472 27.6877Z" fill="#D7153A"/>
<path d="M64.5225 23.2107C65.8128 21.4076 67.0416 19.466 68.2054 17.3873C68.4696 16.9148 68.4583 16.3591 68.1724 15.899C67.8968 15.4547 67.4231 15.1926 66.8981 15.1926C66.881 15.1926 66.8628 15.1926 66.8457 15.1938C64.8414 15.259 62.9031 15.4097 61.032 15.6392C60.6551 17.6853 60.1756 19.646 59.5925 21.5178C61.221 21.9925 62.8655 22.556 64.5225 23.2107Z" fill="#D7153A"/>
<path d="M49.4318 28.2354C48.1962 32.4109 46.0506 35.6888 43.322 37.6213C44.4369 37.564 45.5883 37.2884 46.7112 36.7979C49.0412 35.7811 51.2015 33.8969 52.9576 31.3491C57.1462 25.2736 59.5662 17.4839 60.1492 8.19691C60.1823 7.67159 59.9374 7.18002 59.4944 6.88305C59.0503 6.58496 58.4968 6.54109 58.0128 6.76607C55.5063 7.93031 53.1785 9.18455 51.0307 10.5254C51.5557 16.9259 51.0227 22.8574 49.4318 28.2354Z" fill="#D7153A"/>
<path d="M49.1483 9.64134C48.9012 6.81679 48.342 3.95961 48.0482 2.55689C47.9343 2.01133 47.5517 1.594 47.0244 1.43989C46.8855 1.3994 46.7454 1.37915 46.6065 1.37915C46.2181 1.37915 45.8423 1.53438 45.5508 1.82685C44.0464 3.33305 42.6525 4.85726 41.3679 6.39833C42.3701 8.82469 43.19 11.233 43.8221 13.6088C45.4494 12.2173 47.2249 10.8933 49.1483 9.64134Z" fill="#D7153A"/>
<path d="M35.4173 23.6763C37.2383 20.1229 40.1468 16.9372 42.3311 14.9248C41.1319 10.0991 39.2859 5.54675 36.7372 0.784037C36.4741 0.292467 35.9799 0 35.4184 0C34.857 0 34.3639 0.293592 34.0997 0.784037C31.5248 5.5625 29.6469 10.3173 28.5115 14.9237C30.7914 17.0103 33.799 20.4131 35.4173 23.6763Z" fill="#D7153A"/>
<path d="M42.1077 36.2861C43.9958 34.9745 45.884 32.6887 47.082 29.5087C49.4018 23.3523 49.6421 16.495 49.3096 11.6423C45.105 14.4151 38.4315 20.206 36.1528 26.3973C35.08 29.3107 34.5801 33.2793 35.4068 35.493C35.7519 36.4188 36.3395 37.1207 37.147 37.4548C38.37 37.961 40.2491 37.5785 42.1077 36.2861Z" fill="#D7153A"/>
<path d="M34.4759 25.8566C33.9202 24.5743 33.3075 23.365 32.3566 22.0062C29.6667 18.1625 26.0418 14.6956 21.531 11.6416C21.4843 12.3615 20.826 20.1366 23.1356 27.7385C24.8928 33.5204 27.8947 35.8759 29.5403 36.7859C31.1961 37.7004 32.7108 37.9164 34.4873 37.4799C32.6868 35.0547 32.9112 30.0783 34.4759 25.8566Z" fill="#D7153A"/>
</g>
<defs>
<clipPath id="clip0_2509_5547">
<rect width="70.8429" height="76" fill="white"/>
</clipPath>
</defs>
</svg>
