<svg width="83" height="25" viewBox="0 0 83 25" fill="none" xmlns="http://www.w3.org/2000/svg">
<path d="M72.8523 17.7925H71.7627V18.7564H72.8523V17.7925Z" fill="white"/>
<path d="M72.8202 19.4365H71.8047V23.8627H72.8202V19.4365Z" fill="white"/>
<path d="M29.0513 24.0236C29.0238 24.0236 28.9966 24.0182 28.9712 24.0077C28.9457 23.9971 28.9226 23.9817 28.9032 23.9622C28.8837 23.9428 28.8683 23.9197 28.8577 23.8942C28.8472 23.8688 28.8418 23.8416 28.8418 23.8141V2.38581C28.8418 2.33024 28.8639 2.27694 28.9032 2.23764C28.9425 2.19834 28.9958 2.17627 29.0513 2.17627C29.1069 2.17627 29.1602 2.19834 29.1995 2.23764C29.2388 2.27694 29.2609 2.33024 29.2609 2.38581V23.8141C29.2609 23.8416 29.2555 23.8688 29.2449 23.8942C29.2344 23.9197 29.219 23.9428 29.1995 23.9622C29.1801 23.9817 29.157 23.9971 29.1315 24.0077C29.1061 24.0182 29.0789 24.0236 29.0513 24.0236Z" fill="white"/>
<path d="M20.1355 14.4199L19.1716 18.5689L18.1561 14.4199H16.7635L15.7351 18.5205L14.8002 14.4199H13.2754L14.9614 20.8964H16.4605L17.4469 16.799L18.4527 20.8964H19.926L19.9389 20.8416L21.6378 14.4199H20.1355Z" fill="white"/>
<path d="M6.17562 18.5592L2.64884 14.4199H1.15625V20.8997H2.61016V16.77L6.12405 20.8997H7.62954V14.4199H6.17562V18.5592Z" fill="white"/>
<path d="M1.00208 22.8852C0.999905 22.7487 1.02518 22.6131 1.07641 22.4866C1.12765 22.3601 1.2038 22.2451 1.30032 22.1486C1.39685 22.0521 1.5118 21.9759 1.63833 21.9247C1.76487 21.8734 1.90041 21.8482 2.0369 21.8503C2.31917 21.837 2.59555 21.9341 2.80738 22.1211L2.58172 22.3887C2.50704 22.3175 2.41905 22.2618 2.32279 22.2248C2.22653 22.1877 2.1239 22.17 2.02078 22.1727C1.84175 22.1811 1.67333 22.2601 1.55247 22.3924C1.43161 22.5248 1.36816 22.6997 1.37603 22.8787C1.36928 22.9714 1.38196 23.0645 1.41328 23.152C1.4446 23.2396 1.49385 23.3196 1.55789 23.387C1.62193 23.4543 1.69934 23.5076 1.78516 23.5433C1.87097 23.579 1.96331 23.5964 2.05624 23.5944C2.2296 23.5976 2.39931 23.5445 2.53981 23.4429V23.0689H2.02723V22.7627H2.88152V23.6041C2.65062 23.8078 2.35445 23.9221 2.04657 23.9264C1.90897 23.9328 1.77156 23.9105 1.643 23.861C1.51444 23.8115 1.39755 23.7359 1.29969 23.639C1.20184 23.5421 1.12515 23.4259 1.07448 23.2978C1.02381 23.1697 1.00026 23.0325 1.0053 22.8948" fill="white"/>
<path d="M3.08895 22.8853C3.08761 22.7477 3.114 22.6112 3.16654 22.484C3.21909 22.3568 3.29671 22.2414 3.39479 22.1449C3.49286 22.0483 3.60938 21.9725 3.7374 21.9219C3.86541 21.8713 4.0023 21.847 4.13989 21.8505C4.27676 21.8466 4.41301 21.8704 4.54045 21.9205C4.66788 21.9706 4.78387 22.0459 4.88144 22.142C4.97901 22.238 5.05615 22.3528 5.10821 22.4795C5.16027 22.6061 5.18618 22.742 5.18439 22.8789C5.18572 23.0167 5.15934 23.1533 5.10684 23.2807C5.05433 23.4081 4.97676 23.5236 4.87873 23.6205C4.7807 23.7173 4.66421 23.7934 4.53619 23.8444C4.40816 23.8953 4.2712 23.92 4.13344 23.9169C3.99642 23.9204 3.8601 23.8962 3.73265 23.8458C3.60521 23.7953 3.48925 23.7197 3.39173 23.6233C3.2942 23.527 3.21712 23.412 3.16509 23.2852C3.11307 23.1584 3.08717 23.0224 3.08895 22.8853ZM4.81688 22.8853C4.82034 22.7933 4.80525 22.7015 4.77249 22.6154C4.73974 22.5293 4.69 22.4507 4.62623 22.3842C4.56247 22.3177 4.48598 22.2648 4.40132 22.2285C4.31666 22.1922 4.22556 22.1733 4.13344 22.1729C4.04218 22.1728 3.95186 22.1912 3.86794 22.2271C3.78402 22.2629 3.70826 22.3155 3.64525 22.3815C3.58225 22.4475 3.53331 22.5256 3.50141 22.6111C3.46951 22.6966 3.45532 22.7877 3.45968 22.8789C3.45623 22.9707 3.47122 23.0622 3.50378 23.1481C3.53633 23.234 3.58578 23.3124 3.64921 23.3789C3.71263 23.4453 3.78874 23.4983 3.87302 23.5348C3.9573 23.5713 4.04805 23.5905 4.13989 23.5913C4.23129 23.5914 4.32176 23.573 4.40585 23.5372C4.48993 23.5014 4.56589 23.4489 4.62915 23.3829C4.69241 23.3169 4.74166 23.2388 4.77392 23.1533C4.80618 23.0678 4.8208 22.9766 4.81688 22.8853Z" fill="white"/>
<path d="M5.15918 21.8765H5.54925L6.15532 23.4174L6.75493 21.8765H7.13534L6.30361 23.8978H5.99413L5.15918 21.8765Z" fill="white"/>
<path d="M7.375 21.8765H8.86115V22.1924H7.72961V22.7146H8.73542V23.0273H7.72961V23.5657H8.87727V23.8816H7.375V21.8765Z" fill="white"/>
<path d="M9.21836 21.8762H10.1113C10.3234 21.8647 10.5316 21.9364 10.6916 22.0761C10.7461 22.1337 10.7887 22.2015 10.8169 22.2757C10.8451 22.3498 10.8584 22.4288 10.856 22.508C10.8606 22.6494 10.8154 22.788 10.7281 22.8994C10.6409 23.0107 10.5173 23.0879 10.3789 23.1173L10.9205 23.8749H10.5046L10.005 23.1818H9.56331V23.8814H9.21191L9.21836 21.8762ZM10.0856 22.8691C10.337 22.8691 10.4982 22.7402 10.4982 22.5467C10.4982 22.3307 10.3435 22.2244 10.0823 22.2244H9.56975V22.8949L10.0856 22.8691Z" fill="white"/>
<path d="M11.166 21.8765H11.4948L12.5683 23.2627V21.8765H12.9133V23.8816H12.6199L11.5142 22.4535V23.8816H11.166V21.8765Z" fill="white"/>
<path d="M13.2705 21.8765H13.6477L14.257 22.8242L14.8663 21.8765H15.2434V23.8816H14.8921V22.4438L14.257 23.3884H14.2473L13.6187 22.4503V23.8816H13.2705V21.8765Z" fill="white"/>
<path d="M15.5771 21.8765H17.0633V22.1924H15.9285V22.7146H16.9343V23.0273H15.9285V23.5657H17.0794V23.8816H15.5771V21.8765Z" fill="white"/>
<path d="M17.4258 21.8765H17.7514L18.8281 23.2627V21.8765H19.1731V23.8816H18.8797L17.7739 22.4535V23.8816H17.4258V21.8765Z" fill="white"/>
<path d="M20.0902 22.2021H19.4551V21.8765H21.0798V22.2021H20.4448V23.8816H20.0902V22.2021Z" fill="white"/>
<path d="M8.02832 19.9972L8.88262 18.972C9.41948 19.4681 10.1183 19.7523 10.8491 19.7715C11.439 19.7715 11.7969 19.5362 11.7969 19.1493V19.13C11.7969 18.7657 11.5712 18.5755 10.4719 18.295C9.14696 17.9726 8.28944 17.589 8.28944 16.2834V16.2673C8.28944 15.0745 9.25657 14.2847 10.5944 14.2847C11.4813 14.2704 12.3454 14.5656 13.038 15.1196L12.2869 16.2125C11.7947 15.8293 11.1978 15.6045 10.5751 15.5677C10.0206 15.5677 9.73046 15.8224 9.73046 16.1416V16.1609C9.73046 16.5929 10.0109 16.7347 11.1489 17.0249C12.4835 17.373 13.2347 17.8534 13.2347 19.001V19.0204C13.2347 20.326 12.2385 21.0578 10.8201 21.0578C9.7921 21.0617 8.79852 20.6877 8.02832 20.0068" fill="white"/>
<path fill-rule="evenodd" clip-rule="evenodd" d="M15.5881 4.01696C15.8115 5.10661 15.9281 6.21545 15.9362 7.32774C15.953 8.34317 15.815 9.35523 15.5268 10.3291C15.2956 11.0567 14.8452 11.6951 14.2373 12.1569C15.4075 12.1182 16.4585 11.3897 17.1999 10.0969C18.1671 8.40448 18.3734 6.2768 18.4056 4.72296C18.4411 2.95312 18.3057 2.53403 18.2573 2.36318C18.209 2.19232 18.1316 2.12139 17.9801 2.12462C17.6835 2.12462 16.423 2.692 15.2463 3.53339C15.3356 3.58358 15.4126 3.65301 15.4717 3.73665C15.5308 3.82029 15.5706 3.91604 15.5881 4.01696Z" fill="white"/>
<path fill-rule="evenodd" clip-rule="evenodd" d="M12.3868 12.3989C13.0048 12.3384 13.5911 12.096 14.0714 11.7024C14.5516 11.3087 14.9044 10.7815 15.0851 10.1874C15.3551 9.26173 15.4898 8.30185 15.4848 7.33761C15.5025 6.3055 15.4096 5.27447 15.2076 4.26215C15.1818 4.14932 15.1399 3.97524 15.0013 3.93978C14.8627 3.90432 14.7401 4.05906 14.6563 4.12676C14.5725 4.19445 12.5093 5.99008 11.6163 8.20802C11.2867 8.944 11.1301 9.74575 11.1586 10.5517C11.1586 11.0643 11.2037 11.6349 11.4584 11.954C11.5633 12.1 11.7026 12.2179 11.864 12.2972C12.0254 12.3765 12.2039 12.4148 12.3836 12.4086" fill="white"/>
<path fill-rule="evenodd" clip-rule="evenodd" d="M15.4854 2.8373C15.2533 1.77991 15.0341 1.0578 15.0341 1.05457C14.9825 0.925622 14.9148 0.828911 14.8149 0.809569C14.7616 0.801595 14.7072 0.805869 14.6558 0.822068C14.6044 0.838267 14.5574 0.865963 14.5183 0.903055C14.3764 1.00944 13.3577 1.81215 13.0225 2.08939C13.3517 2.7507 13.6328 3.43482 13.8639 4.13648C14.3767 3.67693 14.9148 3.24643 15.4757 2.84698" fill="white"/>
<path fill-rule="evenodd" clip-rule="evenodd" d="M21.3658 5.48366C21.3847 5.3738 21.3677 5.26077 21.3174 5.16129C21.2529 5.06458 21.1691 5.01944 20.9628 4.99365C20.251 4.99385 19.5397 5.03151 18.8319 5.10648C18.8192 5.79648 18.7589 6.48478 18.6514 7.16646C19.1478 7.35666 19.6185 7.55008 20.1311 7.81121C21.1401 6.53783 21.3464 5.72222 21.3658 5.49333" fill="white"/>
<path fill-rule="evenodd" clip-rule="evenodd" d="M22.3036 9.90008C22.3036 9.73245 22.2166 9.57771 21.9426 9.41007C20.8866 8.69307 19.7533 8.09722 18.5641 7.63379C18.3897 8.58163 18.0631 9.49501 17.597 10.3385C17.2021 11.0686 16.6259 11.6848 15.9238 12.1277C17.9 11.9955 19.5634 11.6893 20.7594 11.1122C22.1263 10.4513 22.3068 10.1193 22.2972 9.90008" fill="white"/>
<path fill-rule="evenodd" clip-rule="evenodd" d="M17.9402 12.4468C17.56 12.4729 17.1819 12.5246 16.8087 12.6015C16.4172 12.6711 16.0197 12.7003 15.6223 12.6886H14.8486C14.6004 12.6886 14.3199 12.6886 14.0362 12.6886C13.3563 12.6712 12.6769 12.7417 12.0149 12.8981C11.9795 12.8981 11.9376 12.9207 11.944 12.9626C11.9505 13.0045 11.9988 12.9948 12.0504 12.9948C12.102 12.9948 12.5952 12.9626 12.837 12.9626C13.5307 12.9678 14.2205 13.0676 14.8873 13.2592C15.4634 13.4286 16.0599 13.5186 16.6604 13.5267C17.4115 13.5267 18.0627 13.43 18.3077 13.1624C18.3582 13.1076 18.3953 13.0418 18.416 12.9702C18.4367 12.8986 18.4405 12.8231 18.427 12.7498C18.3722 12.5564 18.2336 12.4661 17.9402 12.4726" fill="white"/>
<path fill-rule="evenodd" clip-rule="evenodd" d="M5.60324 10.1065C6.3447 11.396 7.39565 12.1278 8.56587 12.1665C7.95793 11.7046 7.50755 11.0662 7.27637 10.3386C6.98819 9.3648 6.85013 8.35274 6.86695 7.33731C6.87447 6.22179 6.99108 5.10967 7.21511 4.01685C7.23149 3.91555 7.27079 3.81933 7.33001 3.73552C7.38923 3.65172 7.46681 3.58255 7.55683 3.53329C6.36404 2.64998 5.11968 2.13096 4.82309 2.12451C4.66835 2.12451 4.59743 2.19221 4.54585 2.36307C4.49427 2.53393 4.3621 2.95302 4.39756 4.72285C4.42658 6.2767 4.63289 8.40437 5.60324 10.0968" fill="white"/>
<path fill-rule="evenodd" clip-rule="evenodd" d="M8.16156 4.13289C8.07774 4.06519 7.94879 3.92012 7.81662 3.94591C7.68444 3.9717 7.63286 4.149 7.6103 4.26828C7.40474 5.28007 7.31176 6.3115 7.33305 7.34374C7.32084 8.30944 7.45008 9.27172 7.71668 10.2C7.89654 10.7966 8.25145 11.3255 8.73543 11.7181C9.21941 12.1107 9.81014 12.3489 10.4311 12.4018C10.5917 12.4021 10.7511 12.3737 10.9017 12.318C10.9754 12.2879 11.0456 12.2501 11.1113 12.2051C11.0454 12.118 10.9892 12.024 10.9437 11.9247C10.7662 11.5276 10.6802 11.0957 10.6922 10.661C10.6886 9.80019 10.8574 8.9474 11.1887 8.1529C10.2989 5.94141 8.24215 4.21025 8.16156 4.13933" fill="white"/>
<path fill-rule="evenodd" clip-rule="evenodd" d="M11.4021 7.48563C11.9429 6.40978 12.6562 5.4297 13.5136 4.58426C13.0469 3.12505 12.397 1.73094 11.5794 0.435296C11.5278 0.357926 11.4859 0.30957 11.4085 0.30957C11.3312 0.30957 11.2957 0.357926 11.2409 0.435296C10.4248 1.73173 9.77492 3.12566 9.30664 4.58426C10.1631 5.43057 10.8762 6.41047 11.4182 7.48563H11.4021Z" fill="white"/>
<path fill-rule="evenodd" clip-rule="evenodd" d="M9.78589 2.08254C9.46352 1.8053 8.43514 1.00258 8.29007 0.896201C8.25161 0.859169 8.20516 0.831477 8.15429 0.815266C8.10342 0.799055 8.04951 0.79476 7.99671 0.802712C7.89355 0.802712 7.82585 0.918768 7.77749 1.04772C7.77749 1.04772 7.55506 1.77306 7.32617 2.83045C7.88647 3.23071 8.42455 3.66118 8.93805 4.11995C9.16653 3.41784 9.44669 2.73361 9.77622 2.07287" fill="white"/>
<path fill-rule="evenodd" clip-rule="evenodd" d="M2.67238 7.80193C3.18818 7.54725 3.65562 7.35383 4.15208 7.15718C4.04496 6.47539 3.98357 5.78719 3.96833 5.09721C3.26051 5.02214 2.54922 4.98448 1.83743 4.98438C1.63111 5.01016 1.55051 5.0553 1.48282 5.15201C1.43551 5.25242 1.4187 5.36451 1.43446 5.47438C1.45703 5.70327 1.66335 6.51888 2.67238 7.79226" fill="white"/>
<path fill-rule="evenodd" clip-rule="evenodd" d="M5.19856 10.3385C4.73388 9.49434 4.40738 8.58121 4.23144 7.63379C3.04287 8.09872 1.90973 8.69448 0.852953 9.41007C0.578935 9.59383 0.501565 9.73245 0.495117 9.90008C0.495117 10.1193 0.665977 10.4513 2.03285 11.1122C3.22886 11.6893 4.89231 11.9955 6.86847 12.1277C6.16644 11.6848 5.59024 11.0686 5.19534 10.3385" fill="white"/>
<path fill-rule="evenodd" clip-rule="evenodd" d="M10.7874 12.8754C10.127 12.7162 9.44849 12.6447 8.76937 12.6627C8.48568 12.6627 8.20522 12.6627 7.95377 12.6627H7.18329C6.78484 12.6742 6.38626 12.645 5.99373 12.5756C5.62157 12.4985 5.24459 12.4468 4.86542 12.4209C4.56883 12.4209 4.43343 12.5047 4.37863 12.6981C4.36352 12.7714 4.36649 12.8473 4.38727 12.9192C4.40806 12.9911 4.44603 13.0568 4.49791 13.1108C4.73969 13.3784 5.39089 13.4751 6.14524 13.4751C6.74463 13.467 7.34009 13.377 7.91508 13.2075C8.58301 13.0161 9.27383 12.9164 9.96861 12.9109C10.2104 12.9109 10.7004 12.9464 10.7552 12.9431C10.81 12.9399 10.8584 12.9431 10.8616 12.9109C10.8648 12.8787 10.8229 12.8593 10.7874 12.8497" fill="white"/>
<path d="M35.7959 2.51758H38.1073C39.4742 2.51758 40.3382 3.29773 40.3382 4.48084C40.3382 5.79613 39.2808 6.48279 37.9913 6.48279H36.8275V8.36868H35.7959V2.51758ZM38.0235 5.57047C38.8037 5.57047 39.2904 5.13526 39.2904 4.52275C39.2904 3.83287 38.7972 3.47503 38.0235 3.47503H36.8275V5.58659L38.0235 5.57047Z" fill="white"/>
<path d="M40.9521 6.77673V3.9624H41.9676V6.47692C41.9676 7.16358 42.3126 7.55688 42.9154 7.55688C43.5183 7.55688 43.9115 7.14746 43.9115 6.45758V3.9624H44.927V8.38538H43.9115V7.69872C43.7694 7.93838 43.5669 8.13656 43.3242 8.27346C43.0815 8.41035 42.8072 8.48118 42.5286 8.47887C41.5324 8.47887 40.9521 7.80833 40.9521 6.77673Z" fill="white"/>
<path d="M46.9175 7.69871V8.38537H45.9053V2.26025H46.9175V4.69096C47.0774 4.43703 47.2991 4.22782 47.5618 4.08292C47.8245 3.93801 48.1198 3.86216 48.4198 3.86245C49.4675 3.86245 50.4798 4.69096 50.4798 6.15776V6.1771C50.4798 7.64391 49.474 8.47241 48.4198 8.47241C48.1246 8.47563 47.8332 8.40614 47.5712 8.27009C47.3092 8.13403 47.0847 7.93559 46.9175 7.69227V7.69871ZM49.4482 6.1771V6.15776C49.4482 5.30347 48.8711 4.74254 48.1845 4.74254C48.006 4.74824 47.8306 4.78969 47.6684 4.86442C47.5063 4.93915 47.3608 5.04564 47.2406 5.1776C47.1204 5.30956 47.0278 5.4643 46.9684 5.63265C46.9091 5.80101 46.8841 5.97957 46.895 6.15776V6.1771C46.8836 6.35539 46.9083 6.53414 46.9675 6.70269C47.0267 6.87125 47.1192 7.02617 47.2396 7.15822C47.3599 7.29027 47.5055 7.39676 47.6679 7.47134C47.8302 7.54592 48.0059 7.58707 48.1845 7.59233C48.8808 7.59233 49.4482 7.04752 49.4482 6.1771Z" fill="white"/>
<path d="M52.2831 2.26611H51.2676V8.38479H52.2831V2.26611Z" fill="white"/>
<path d="M54.37 3.9624H53.3545V8.38861H54.37V3.9624Z" fill="white"/>
<path d="M54.4031 2.31787H53.3135V3.28177H54.4031V2.31787Z" fill="white"/>
<path d="M55.136 6.19919C55.1317 5.89567 55.188 5.59435 55.3016 5.31285C55.4152 5.03135 55.5837 4.77534 55.7975 4.5598C56.0112 4.34425 56.2658 4.17351 56.5464 4.05757C56.8269 3.94162 57.1277 3.8828 57.4313 3.88454C57.7649 3.86957 58.0975 3.93056 58.4041 4.06291C58.7107 4.19526 58.9832 4.39552 59.2011 4.64857L58.5725 5.32556C58.4337 5.15473 58.2588 5.01673 58.0604 4.92142C57.862 4.82612 57.6449 4.77588 57.4248 4.7743C57.247 4.77917 57.0719 4.81973 56.9101 4.89356C56.7482 4.96739 56.6028 5.07299 56.4825 5.20409C56.3623 5.33519 56.2695 5.48912 56.2099 5.65674C56.1503 5.82435 56.1249 6.00224 56.1353 6.17985V6.19919C56.1253 6.38056 56.152 6.56209 56.2138 6.73291C56.2756 6.90373 56.3712 7.06033 56.4948 7.19336C56.6185 7.32638 56.7678 7.43309 56.9337 7.5071C57.0996 7.58111 57.2787 7.6209 57.4603 7.62409C57.6798 7.61765 57.8956 7.56493 58.0933 7.46938C58.2911 7.37383 58.4665 7.2376 58.6079 7.06961L59.2205 7.67245C58.9148 8.03237 58.5065 8.29036 58.0502 8.41189C57.5939 8.53341 57.1114 8.51268 56.6672 8.35247C56.2231 8.19226 55.8384 7.9002 55.5647 7.51539C55.2911 7.13057 55.1415 6.67136 55.136 6.19919Z" fill="white"/>
<path d="M35.4123 15.2673L36.0313 14.5291C36.5281 15.0124 37.1918 15.2859 37.8849 15.2931C38.5297 15.2931 38.923 14.9997 38.923 14.5549V14.5387C38.923 14.1196 38.6876 13.894 37.598 13.6425C36.3504 13.3395 35.6444 12.972 35.6444 11.8888C35.6444 10.883 36.4826 10.1867 37.6496 10.1867C38.4241 10.1713 39.1787 10.4331 39.7773 10.9249L39.226 11.7051C38.7742 11.3352 38.2137 11.1235 37.6303 11.1022C37.0274 11.1022 36.6631 11.4246 36.6631 11.7986C36.6631 12.2499 36.9307 12.4433 38.0558 12.7205C39.2969 13.0204 39.9417 13.4652 39.9417 14.4388C39.9417 15.5381 39.0777 16.1893 37.8462 16.1893C36.9418 16.1947 36.0684 15.8598 35.3994 15.2512" fill="white"/>
<path d="M40.499 13.9266V13.9104C40.499 12.6435 41.3952 11.6055 42.6622 11.6055C44.0677 11.6055 44.7802 12.7112 44.7802 13.9846C44.7802 14.0781 44.7802 14.1716 44.764 14.2715H41.5113C41.5408 14.5884 41.6912 14.8818 41.9313 15.0907C42.1715 15.2996 42.4828 15.408 42.8008 15.3934C43.026 15.3937 43.2488 15.3468 43.4548 15.2558C43.6608 15.1647 43.8454 15.0315 43.9968 14.8647L44.5932 15.3934C44.3751 15.6615 44.0983 15.8759 43.7841 16.0201C43.47 16.1644 43.127 16.2345 42.7814 16.2251C42.4797 16.232 42.1796 16.1769 41.9 16.0633C41.6203 15.9496 41.3669 15.7799 41.1554 15.5645C40.9439 15.349 40.7789 15.0926 40.6704 14.8109C40.5619 14.5291 40.5124 14.2282 40.5248 13.9266H40.499ZM43.8001 13.6042C43.7357 12.9594 43.3488 12.4372 42.6783 12.4372C42.0593 12.4372 41.6209 12.9175 41.5306 13.6042H43.8001Z" fill="white"/>
<path d="M45.4912 11.699H46.5067V12.6951C46.6131 12.3681 46.8242 12.0852 47.1073 11.8901C47.3905 11.6949 47.73 11.5983 48.0734 11.6152V12.6855H48.0154C47.1257 12.6855 46.5067 13.2657 46.5067 14.4392V16.1252H45.4912V11.699Z" fill="white"/>
<path d="M48.2246 11.6987H49.3142L50.5038 14.9515L51.703 11.6987H52.7669L50.9584 16.1572H50.0428L48.2246 11.6987Z" fill="white"/>
<path d="M54.3963 11.6987H53.3809V16.1249H54.3963V11.6987Z" fill="white"/>
<path d="M54.4275 10.0552H53.3379V11.0191H54.4275V10.0552Z" fill="white"/>
<path d="M55.1662 13.9364V13.9203C55.162 13.6167 55.2183 13.3154 55.3318 13.0339C55.4454 12.7524 55.614 12.4964 55.8278 12.2809C56.0415 12.0653 56.2961 11.8946 56.5766 11.7786C56.8572 11.6627 57.158 11.6039 57.4616 11.6056C57.7951 11.5911 58.1276 11.6523 58.4341 11.7846C58.7406 11.9169 59.0132 12.1169 59.2314 12.3696L58.6028 13.0466C58.4633 12.8757 58.2878 12.7377 58.0889 12.6424C57.89 12.5471 57.6725 12.4969 57.4519 12.4954C57.2754 12.5023 57.1021 12.5444 56.9421 12.6192C56.7821 12.694 56.6386 12.7999 56.5201 12.9308C56.4015 13.0616 56.3102 13.2148 56.2516 13.3814C56.1929 13.548 56.1681 13.7246 56.1785 13.9009V13.9203C56.168 14.1017 56.1944 14.2834 56.256 14.4545C56.3176 14.6255 56.4132 14.7823 56.537 14.9154C56.6608 15.0485 56.8102 15.1552 56.9763 15.2291C57.1424 15.3029 57.3217 15.3424 57.5035 15.3451C57.723 15.3385 57.9386 15.2857 58.1364 15.1902C58.3341 15.0946 58.5095 14.9585 58.6511 14.7907L59.2636 15.3935C58.96 15.7573 58.5523 16.0194 58.0952 16.1443C57.6381 16.2693 57.1537 16.2511 56.7073 16.0924C56.2609 15.9336 55.8738 15.6418 55.5983 15.2563C55.3227 14.8708 55.1719 14.4102 55.1662 13.9364Z" fill="white"/>
<path d="M59.5164 13.9266V13.9104C59.5164 12.6435 60.4126 11.6055 61.6795 11.6055C63.0883 11.6055 63.8008 12.7112 63.8008 13.9846C63.8008 14.0781 63.8008 14.1716 63.7814 14.2715H60.5319C60.5605 14.5858 60.7085 14.8772 60.9453 15.0859C61.1821 15.2945 61.4898 15.4046 61.8053 15.3934C62.031 15.3941 62.2545 15.3475 62.461 15.2564C62.6676 15.1653 62.8528 15.0319 63.0045 14.8647L63.5977 15.3934C63.3809 15.6622 63.1048 15.8772 62.791 16.0215C62.4772 16.1657 62.1343 16.2354 61.7891 16.2251C61.4861 16.2337 61.1846 16.18 60.9032 16.0672C60.6219 15.9544 60.3667 15.785 60.1536 15.5694C59.9405 15.3539 59.7739 15.0968 59.6643 14.8142C59.5547 14.5316 59.5043 14.2295 59.5164 13.9266ZM62.795 13.6042C62.7273 12.9594 62.3404 12.4372 61.6699 12.4372C61.0509 12.4372 60.6157 12.9175 60.5222 13.6042H62.795Z" fill="white"/>
<path d="M35.5417 20.9447V20.9254C35.5334 20.5252 35.606 20.1276 35.7551 19.7562C35.9042 19.3848 36.1267 19.0474 36.4094 18.7641C36.6921 18.4808 37.0291 18.2575 37.4001 18.1076C37.7712 17.9578 38.1687 17.8843 38.5688 17.8918C38.9941 17.8758 39.4181 17.949 39.8134 18.1067C40.2087 18.2644 40.5666 18.503 40.8641 18.8074L40.2033 19.5682C39.9908 19.3443 39.7361 19.1647 39.454 19.0397C39.1718 18.9146 38.8677 18.8466 38.5591 18.8396C38.2948 18.844 38.0342 18.9016 37.7926 19.0089C37.551 19.1162 37.3335 19.271 37.153 19.4641C36.9725 19.6572 36.8327 19.8847 36.742 20.133C36.6513 20.3812 36.6114 20.6452 36.6249 20.9092C36.6249 22.0601 37.4373 22.9982 38.5591 22.9982C38.8778 22.9947 39.1922 22.925 39.4825 22.7934C39.7727 22.6619 40.0325 22.4715 40.2452 22.2342L40.906 22.9047C40.6116 23.2439 40.2453 23.5134 39.8338 23.6935C39.4223 23.8736 38.9759 23.9598 38.5269 23.946C38.1309 23.9504 37.7381 23.8751 37.3718 23.7247C37.0055 23.5742 36.6732 23.3516 36.3947 23.07C36.1162 22.7885 35.8972 22.4539 35.7506 22.086C35.6041 21.7181 35.5331 21.3245 35.5417 20.9286" fill="white"/>
<path d="M41.2315 21.6732V21.6571C41.2289 21.0312 41.4751 20.43 41.9158 19.9856C42.3565 19.5413 42.9557 19.2902 43.5816 19.2876C44.2074 19.2851 44.8087 19.5312 45.253 19.9719C45.6974 20.4127 45.9485 21.0119 45.951 21.6377V21.6571C45.9498 21.9652 45.8872 22.2699 45.7667 22.5535C45.6461 22.837 45.4702 23.0937 45.2492 23.3083C45.0283 23.523 44.7666 23.6914 44.4797 23.8037C44.1928 23.9159 43.8864 23.9698 43.5784 23.9621C43.273 23.9694 42.9694 23.9156 42.6851 23.8039C42.4009 23.6921 42.1418 23.5248 41.9232 23.3115C41.7046 23.0983 41.5308 22.8435 41.412 22.5622C41.2932 22.2808 41.2318 21.9786 41.2315 21.6732ZM44.9388 21.6732V21.6571C44.9466 21.4733 44.9172 21.2898 44.8524 21.1177C44.7877 20.9455 44.6888 20.7882 44.5618 20.6551C44.4347 20.5221 44.2822 20.4161 44.1132 20.3434C43.9442 20.2707 43.7623 20.2329 43.5784 20.2322C43.3968 20.231 43.217 20.2671 43.05 20.3382C42.883 20.4094 42.7324 20.5141 42.6075 20.6459C42.4827 20.7777 42.3863 20.9338 42.3242 21.1044C42.2622 21.275 42.2359 21.4565 42.2469 21.6377V21.6571C42.2396 21.8399 42.269 22.0224 42.3333 22.1937C42.3977 22.3651 42.4957 22.5218 42.6216 22.6546C42.7475 22.7874 42.8988 22.8937 43.0664 22.9671C43.2341 23.0405 43.4147 23.0795 43.5977 23.082C43.7799 23.0831 43.9605 23.047 44.1282 22.9757C44.2959 22.9044 44.4472 22.7996 44.5729 22.6676C44.6985 22.5356 44.7958 22.3793 44.8587 22.2083C44.9217 22.0372 44.9489 21.8551 44.9388 21.6732Z" fill="white"/>
<path d="M46.6748 19.4365H47.6871V20.107C47.8281 19.8748 48.0264 19.6827 48.2628 19.5489C48.4993 19.4152 48.7661 19.3442 49.0378 19.343C49.3094 19.3297 49.5789 19.3965 49.8128 19.5353C50.0466 19.674 50.2345 19.8784 50.3531 20.1231C50.5209 19.8804 50.7455 19.6824 51.0073 19.5464C51.2692 19.4104 51.5603 19.3406 51.8554 19.343C52.8225 19.343 53.406 19.9555 53.406 21.0354V23.8627H52.3905V21.3481C52.3905 20.6421 52.0681 20.265 51.4943 20.265C50.9205 20.265 50.5465 20.6518 50.5465 21.3643V23.8627H49.5343V21.3385C49.5343 20.6518 49.2119 20.265 48.6348 20.265C48.0578 20.265 47.6871 20.684 47.6871 21.3707V23.8627H46.6748V19.4365Z" fill="white"/>
<path d="M54.3291 19.4361H55.3414V20.1066C55.482 19.874 55.6801 19.6815 55.9167 19.5477C56.1533 19.4139 56.4203 19.3433 56.6921 19.3426C56.965 19.3308 57.2354 19.3998 57.4693 19.5409C57.7032 19.6819 57.8904 19.8888 58.0074 20.1356C58.1752 19.8929 58.3998 19.6949 58.6616 19.559C58.9235 19.423 59.2146 19.3531 59.5097 19.3555C60.4768 19.3555 61.0603 19.968 61.0603 21.048V23.8752H60.0448V21.3607C60.0448 20.6547 59.7224 20.2775 59.1486 20.2775C58.5748 20.2775 58.2008 20.6643 58.2008 21.3768V23.8752H57.1853V21.351C57.1853 20.6643 56.863 20.2775 56.2891 20.2775C55.7153 20.2775 55.3414 20.6966 55.3414 21.3832V23.8752H54.3291V19.4361Z" fill="white"/>
<path d="M63.0555 19.436H62.04V23.8622H63.0555V19.436Z" fill="white"/>
<path d="M63.0867 17.7915H61.9971V18.7554H63.0867V17.7915Z" fill="white"/>
<path d="M63.7051 23.2818L64.1564 22.5951C64.5697 22.9265 65.0779 23.1174 65.6071 23.14C66.0423 23.14 66.2937 22.9562 66.2937 22.6628V22.6467C66.2937 22.3018 65.8263 22.1857 65.3073 22.0245C64.6625 21.8408 63.9243 21.5732 63.9243 20.735V20.7189C63.9243 19.8807 64.6174 19.3682 65.4975 19.3682C66.0767 19.3793 66.6409 19.5536 67.1255 19.8711L66.7225 20.5932C66.3503 20.3471 65.9202 20.2027 65.4749 20.1741C65.0784 20.1741 64.8527 20.3579 64.8527 20.619V20.6351C64.8527 20.9575 65.3298 21.0864 65.8521 21.2541C66.4968 21.4572 67.2254 21.7505 67.2254 22.5436V22.5597C67.2254 23.4913 66.5033 23.9523 65.5813 23.9523C64.9001 23.9422 64.241 23.7089 63.7051 23.2882" fill="white"/>
<path d="M67.5029 23.2818L67.9543 22.5951C68.3673 22.9269 68.8756 23.1178 69.4049 23.14C69.8402 23.14 70.0916 22.9562 70.0916 22.6628V22.6467C70.0916 22.3018 69.6242 22.1857 69.1019 22.0245C68.4572 21.8408 67.7189 21.5732 67.7189 20.735V20.7189C67.7189 19.8807 68.4153 19.3682 69.2953 19.3682C69.8745 19.3793 70.4388 19.5536 70.9233 19.8711L70.5204 20.5932C70.1481 20.3471 69.7181 20.2027 69.2728 20.1741C68.8763 20.1741 68.6506 20.3579 68.6506 20.619V20.6351C68.6506 20.9575 69.1277 21.0864 69.6499 21.2541C70.2947 21.4572 71.0233 21.7505 71.0233 22.5436V22.5597C71.0233 23.4913 70.3011 23.9523 69.3792 23.9523C68.6979 23.9426 68.0386 23.7093 67.5029 23.2882" fill="white"/>
<path d="M73.5869 21.6732V21.6571C73.5844 21.0312 73.8305 20.43 74.2713 19.9856C74.712 19.5413 75.3112 19.2902 75.937 19.2876C76.5629 19.2851 77.1641 19.5312 77.6085 19.9719C78.0529 20.4127 78.3039 21.0119 78.3065 21.6377V21.6571C78.3053 21.9652 78.2426 22.2699 78.1221 22.5535C78.0016 22.837 77.8257 23.0937 77.6047 23.3083C77.3837 23.523 77.1221 23.6914 76.8352 23.8037C76.5483 23.9159 76.2418 23.9698 75.9338 23.9621C75.6285 23.9694 75.3248 23.9156 75.0406 23.8039C74.7563 23.6921 74.4973 23.5248 74.2787 23.3115C74.06 23.0983 73.8862 22.8435 73.7674 22.5622C73.6486 22.2808 73.5873 21.9786 73.5869 21.6732ZM77.2942 21.6732V21.6571C77.3016 21.4734 77.2719 21.2901 77.207 21.1182C77.142 20.9462 77.0431 20.7891 76.9162 20.6561C76.7893 20.5232 76.6369 20.4171 76.4681 20.3443C76.2993 20.2715 76.1176 20.2333 75.9338 20.2322C75.7523 20.231 75.5724 20.2671 75.4054 20.3382C75.2384 20.4094 75.0878 20.5141 74.963 20.6459C74.8382 20.7777 74.7417 20.9338 74.6797 21.1044C74.6177 21.275 74.5914 21.4565 74.6024 21.6377V21.6571C74.5951 21.8399 74.6245 22.0224 74.6888 22.1937C74.7532 22.3651 74.8512 22.5218 74.9771 22.6546C75.103 22.7874 75.2542 22.8937 75.4219 22.9671C75.5895 23.0405 75.7702 23.0795 75.9532 23.082C76.1353 23.0827 76.3156 23.0462 76.4831 22.9747C76.6506 22.9033 76.8017 22.7984 76.9273 22.6666C77.0528 22.5347 77.1501 22.3785 77.2132 22.2077C77.2763 22.0369 77.3039 21.855 77.2942 21.6732Z" fill="white"/>
<path d="M79.0273 19.4356H80.0396V20.1351C80.1832 19.8968 80.386 19.6997 80.6284 19.5629C80.8707 19.4262 81.1443 19.3546 81.4226 19.355C82.422 19.355 82.999 20.0255 82.999 21.0571V23.8747H81.9868V21.3602C81.9868 20.6703 81.6418 20.277 81.039 20.277C80.4361 20.277 80.0396 20.6896 80.0396 21.3763V23.8747H79.0273V19.4356Z" fill="white"/>
</svg>
