<svg viewBox="0 0 199 58" xmlns="http://www.w3.org/2000/svg"><g id="Approved-home" stroke="none" stroke-width="1" fill="none" fill-rule="evenodd"><g transform="translate(-41 -20.407)" fill-rule="nonzero" id="Group-7"><g id="nsw-public-service-commission" transform="translate(41 20.907)"><path d="M70.177 57.406a.498.498 0 01-.498-.498V5.768a.498.498 0 11.958 0v51.14a.498.498 0 01-.498.498h.038z" id="Path" fill="#002664"/><path d="M15.587 44.367L7.176 34.49H3.612v15.453H7.09v-9.849l8.382 9.85h3.584V34.49h-3.469v9.877zm33.321-9.877l-2.299 9.896-2.424-9.896h-3.324l-2.453 9.781-2.232-9.781h-3.602l3.985 15.453h3.574l2.366-9.772 2.395 9.772h3.516v-.134l4.053-15.329-3.555.01z" id="Shape" fill="#002664"/><path d="M3.248 54.733a2.433 2.433 0 012.5-2.529c.657-.03 1.3.188 1.801.613l-.527.642a1.916 1.916 0 00-1.34-.517 1.62 1.62 0 00-1.553 1.686 1.6 1.6 0 001.62 1.753c.412.006.815-.122 1.149-.364v-.89H5.681v-.729h2.04V56.4a3.056 3.056 0 01-1.973.748 2.376 2.376 0 01-2.5-2.415" id="Path" fill="#002664"/><path d="M8.23 54.733a2.453 2.453 0 012.51-2.471 2.424 2.424 0 012.49 2.452 2.453 2.453 0 01-2.51 2.472 2.424 2.424 0 01-2.49-2.453m4.12 0a1.638 1.638 0 00-1.63-1.705 1.61 1.61 0 00-1.609 1.686 1.638 1.638 0 001.629 1.696 1.61 1.61 0 001.61-1.677" id="Shape" fill="#002664"/><path id="Path" fill="#002664" d="M13.173 52.28h.93l1.446 3.68 1.428-3.68h.91l-1.983 4.82h-.738zm5.279 0h3.554v.758h-2.71v1.235H21.7v.757h-2.405v1.284h2.74v.747h-3.583z"/><path d="M22.86 52.28h2.126a1.916 1.916 0 011.38.48c.263.272.408.637.402 1.015.02.7-.465 1.313-1.15 1.457l1.294 1.8h-.958l-1.179-1.666h-1.054v1.667h-.833l-.029-4.752zm2.05 2.377c.593 0 .957-.316.957-.805 0-.517-.364-.795-.958-.795h-1.216v1.61l1.216-.01z" id="Shape" fill="#002664"/><path id="Path" fill="#002664" d="M27.506 52.28h.776l2.567 3.306v-3.305h.824v4.78h-.709l-2.634-3.4v3.4h-.824zm5.02 0h.9l1.457 2.262 1.446-2.261h.9v4.78h-.842v-3.43l-1.504 2.262h-.03L33.36 53.65v3.41h-.833zm5.509 0h3.544v.758h-2.71v1.235h2.404v.757h-2.405v1.284h2.75v.747h-3.583zm4.407 0h.776l2.567 3.306v-3.305h.824v4.78h-.7l-2.644-3.4v3.4h-.823zm6.351.777H47.28v-.776h3.88v.776h-1.514v4.004h-.853zm-28.779-5.26l2.021-2.443a7.243 7.243 0 004.685 1.916c1.418 0 2.27-.565 2.27-1.485 0-.872-.536-1.322-3.161-1.993-3.162-.804-5.202-1.686-5.202-4.79 0-2.874 2.28-4.733 5.49-4.733a9.111 9.111 0 015.834 1.993l-1.772 2.491a7.33 7.33 0 00-4.082-1.542c-1.331 0-2.021.603-2.021 1.36 0 1.035.67 1.37 3.382 2.06 3.19.833 4.982 1.983 4.982 4.713 0 3.114-2.376 4.867-5.749 4.867a10.021 10.021 0 01-6.677-2.414z"/><path d="M55.164 23.683a2.002 2.002 0 00-.88-1.447 39.203 39.203 0 00-4.523-2.874c.21-.278.307-.421.508-.709a14.045 14.045 0 002.328-4.512 3.9 3.9 0 00.144-1.792 1.744 1.744 0 00-1.208-1.054 31.893 31.893 0 00-5.748 0 25.57 25.57 0 00-.488-5.432c-.115-.47-.326-1.197-.844-1.408a3.583 3.583 0 00-2.682.46c-1.092.508-1.916.958-3.066 1.504-.536-1.916-1.102-3.67-1.303-4.12-.201-.45-.354-.958-.958-1.054a1.629 1.629 0 00-1.312.336c-.556.335-2.98 2.06-3.785 2.72-.546-.9-.881-1.542-1.398-2.366A10.989 10.989 0 0028.847.383a1.035 1.035 0 00-.767-.345.958.958 0 00-.747.355c-.416.48-.785 1-1.102 1.552-.517.814-.852 1.456-1.398 2.357-.805-.661-3.229-2.376-3.785-2.721a1.629 1.629 0 00-1.312-.326c-.633.115-.843.719-.958 1.044a81.285 81.285 0 00-1.303 4.13 37.966 37.966 0 00-3.104-1.514 3.583 3.583 0 00-2.692-.498c-.518.21-.719.958-.843 1.408a24.91 24.91 0 00-.48 5.432 32.008 32.008 0 00-5.748 0c-.548.138-.997.53-1.207 1.054a3.89 3.89 0 00.144 1.791c.5 1.632 1.288 3.16 2.328 4.513.21.287.297.431.508.709a39.203 39.203 0 00-4.522 2.874 2.002 2.002 0 00-.901 1.495c-.017.347.095.689.316.958.527.737 3.44 3.544 9.973 4.54a1.801 1.801 0 00-.708 2.262c.23.462.612.83 1.082 1.044a7.502 7.502 0 003.372.709 22.188 22.188 0 004.695-.604 29.7 29.7 0 014.426-.958 21.62 21.62 0 012.596.048c.452.045.907.061 1.36.048.614 0 1.064-.048 1.361-.067a21.232 21.232 0 012.597-.048 29.7 29.7 0 014.426.958c1.539.368 3.112.57 4.694.604a7.358 7.358 0 003.373-.719c.467-.203.85-.562 1.082-1.015a1.801 1.801 0 00-.728-2.242c6.534-1.006 9.446-3.832 9.973-4.541.226-.278.338-.63.316-.987z" id="Path" fill="#FFF"/><path d="M38.054 9.705c.537 2.6.816 5.248.833 7.904a23.951 23.951 0 01-.958 7.157 8.89 8.89 0 01-3.075 4.359c2.788-.087 5.298-1.82 7.07-4.906 2.31-4.042 2.798-9.12 2.874-12.828.077-4.225-.24-5.221-.354-5.633-.115-.412-.297-.575-.661-.565-.71 0-3.717 1.35-6.524 3.362.426.242.719.666.795 1.15z" id="Path" fill="#D7153A"/><path d="M30.418 29.68a7.473 7.473 0 006.438-5.278c.646-2.213.968-4.507.958-6.812a33.168 33.168 0 00-.66-7.339c-.058-.268-.154-.69-.49-.757-.335-.067-.622.288-.823.45-.202.163-5.088 4.427-7.205 9.706a12.713 12.713 0 00-1.102 5.604 5.748 5.748 0 00.728 3.344 2.558 2.558 0 002.156 1.082zm7.367-22.85c-.555-2.528-1.073-4.243-1.082-4.253-.115-.287-.297-.536-.517-.536a.814.814 0 00-.738.191c-.355.259-2.779 2.175-3.574 2.874a36.597 36.597 0 012.003 4.877 44.607 44.607 0 013.908-3.152zm14.055 6.334a1.322 1.322 0 00-.105-.776c-.154-.23-.355-.336-.843-.403-1.7.005-3.397.094-5.088.268a36.655 36.655 0 01-.43 4.915c1.178.45 2.289.958 3.525 1.533 2.405-3.046 2.893-4.991 2.941-5.537zm2.232 10.538c0-.402-.2-.728-.852-1.169a40.43 40.43 0 00-8.067-4.206 21.432 21.432 0 01-2.29 6.458 11.63 11.63 0 01-3.995 4.263c4.723-.316 8.69-1.044 11.497-2.424 3.286-1.59 3.736-2.395 3.707-2.922zm-10.414 6.122a18.52 18.52 0 00-2.692.364c-.948.167-1.912.234-2.874.201h-3.756a18.356 18.356 0 00-4.79.508c-.086 0-.182 0-.172.144.01.143.134.086.258.086.125 0 1.294-.086 1.869-.086 1.656.014 3.303.252 4.895.709a15.67 15.67 0 004.225.642c1.801 0 3.353-.23 3.938-.872a1.12 1.12 0 00.287-.958c-.153-.575-.479-.795-1.188-.738zM14.217 24.2c1.773 3.085 4.283 4.79 7.07 4.906a8.89 8.89 0 01-3.084-4.36 23.951 23.951 0 01-.958-7.156c.02-2.649.296-5.29.824-7.885.08-.488.38-.912.814-1.15-2.874-2.107-5.815-3.353-6.524-3.362-.364 0-.537.153-.661.565-.125.412-.431 1.408-.355 5.633.077 3.689.566 8.766 2.874 12.81z" id="Path" fill="#D7153A"/><path d="M20.33 9.945c-.201-.163-.508-.518-.824-.45-.316.066-.431.488-.489.756a33.168 33.168 0 00-.66 7.339 23.54 23.54 0 00.957 6.812 7.406 7.406 0 006.477 5.26 3.401 3.401 0 001.12-.202c.174-.075.34-.164.499-.268a4.139 4.139 0 01-.403-.67 6.994 6.994 0 01-.594-3.019 15.329 15.329 0 011.179-5.978c-2.156-5.288-7.07-9.418-7.262-9.58zm7.731 7.999a26.059 26.059 0 015.04-6.888 42.71 42.71 0 00-4.637-9.906c-.125-.182-.22-.307-.412-.307-.192 0-.269.125-.393.307a43.112 43.112 0 00-4.666 9.906 26.059 26.059 0 015.04 6.888h.028zM24.21 5.068c-.795-.661-3.22-2.577-3.564-2.874a.843.843 0 00-.709-.153c-.24 0-.402.277-.517.584 0 0-.527 1.725-1.083 4.254a44.607 44.607 0 013.832 3.094 36.597 36.597 0 012.04-4.905zM7.233 18.701a38.966 38.966 0 013.526-1.533 36.655 36.655 0 01-.431-4.915 50.824 50.824 0 00-5.087-.268c-.49.067-.69.173-.844.403a1.322 1.322 0 00-.115.776c.048.546.508 2.49 2.951 5.537zm6.027 6.055a21.432 21.432 0 01-2.29-6.429 40.43 40.43 0 00-8.096 4.206c-.651.441-.843.767-.853 1.17-.01.402.432 1.33 3.727 2.892 2.874 1.38 6.812 2.108 11.497 2.424a11.63 11.63 0 01-3.986-4.263zm13.335 6.026a18.356 18.356 0 00-4.79-.508H18.05a13.873 13.873 0 01-2.874-.2 18.52 18.52 0 00-2.72-.25c-.71 0-1.035.201-1.17.661-.055.347.051.7.288.958.585.642 2.137.872 3.938.872a15.607 15.607 0 004.225-.642 18.318 18.318 0 014.895-.709c.575 0 1.744.086 1.917.086.172 0 .249 0 .258-.086.01-.086-.124-.182-.21-.182z" id="Path" fill="#D7153A"/><path d="M86.291 6.093h5.519c3.286 0 5.327 1.859 5.327 4.675 0 3.143-2.52 4.79-5.605 4.79h-2.778v4.504H86.29V6.093zm5.318 7.281c1.868 0 3.027-1.044 3.027-2.5 0-1.648-1.178-2.5-3.027-2.5h-2.874v5.039l2.874-.039z" id="Shape" fill="#002664"/><path d="M98.516 16.249V9.542h2.414v5.998c0 1.638.824 2.558 2.261 2.558a2.338 2.338 0 002.386-2.645v-5.92h2.433V20.07h-2.433v-1.619a3.832 3.832 0 01-3.305 1.859c-2.376 0-3.756-1.6-3.756-4.062z" id="Path" fill="#002664"/><path d="M112.714 18.452v1.638h-2.423V5.49h2.423v5.805a4.215 4.215 0 013.603-1.983c2.481 0 4.895 1.916 4.895 5.48 0 3.497-2.395 5.48-4.895 5.48a4.32 4.32 0 01-3.603-1.82zm6.036-3.621a3.123 3.123 0 00-3.018-3.382 3.18 3.18 0 00-3.075 3.382 3.18 3.18 0 003.075 3.382 3.094 3.094 0 003.066-3.382h-.048z" id="Shape" fill="#002664"/><path id="Path" fill="#002664" d="M123.119 5.49h2.385v14.6h-2.414z"/><path d="M127.995 5.614h2.597v2.3h-2.597v-2.3zm.096 3.919h2.424V20.07h-2.424V9.533z" id="Shape" fill="#002664"/><path d="M132.354 14.869a5.451 5.451 0 015.5-5.518 5.336 5.336 0 014.225 1.82l-1.524 1.619a3.564 3.564 0 00-2.72-1.322 3.18 3.18 0 00-3.057 3.363 3.19 3.19 0 003.181 3.382 3.679 3.679 0 002.74-1.303l1.466 1.437a5.327 5.327 0 01-4.32 1.983 5.394 5.394 0 01-5.49-5.461zM85.353 36.53l1.485-1.753a6.448 6.448 0 004.416 1.753c1.523 0 2.482-.718 2.482-1.753 0-1.006-.566-1.542-3.162-2.146-2.98-.718-4.666-1.6-4.666-4.177 0-2.405 2.003-4.062 4.79-4.062a7.78 7.78 0 015.107 1.724l-1.322 1.859a6.39 6.39 0 00-3.832-1.447c-1.437 0-2.28.748-2.28 1.667 0 1.083.641 1.562 3.343 2.204 2.96.718 4.484 1.772 4.484 4.1 0 2.616-2.06 4.177-5.001 4.177a8.622 8.622 0 01-5.844-2.146z" id="Path" fill="#002664"/><path d="M97.491 33.311a5.25 5.25 0 015.164-5.499c3.363 0 5.058 2.644 5.058 5.681v.68h-7.76a2.95 2.95 0 003.037 2.683 3.832 3.832 0 002.874-1.264l1.418 1.264a5.346 5.346 0 01-4.32 1.974 5.279 5.279 0 01-5.47-5.519zm7.827-.776c-.163-1.561-1.082-2.778-2.682-2.778a2.874 2.874 0 00-2.74 2.778h5.422z" id="Shape" fill="#002664"/><path d="M109.419 27.994h2.414v2.376a3.746 3.746 0 013.736-2.577v2.558h-.134c-2.117 0-3.602 1.38-3.602 4.187v4.014h-2.414V27.994zm6.505 0h2.596l2.874 7.76 2.875-7.76h2.538l-4.35 10.644h-2.184z" id="Path" fill="#002664"/><path d="M128.14 24.076h2.595v2.3h-2.596v-2.3zm.095 3.918h2.424v10.539h-2.424V27.994z" id="Shape" fill="#002664"/><path d="M132.498 33.33a5.451 5.451 0 015.461-5.556 5.317 5.317 0 014.215 1.82l-1.513 1.62a3.574 3.574 0 00-2.702-1.323 3.19 3.19 0 00-3.066 3.363 3.2 3.2 0 003.162 3.382c1.065 0 2.079-.46 2.778-1.265l1.456 1.447a5.317 5.317 0 01-4.31 1.973 5.394 5.394 0 01-5.48-5.46z" id="Path" fill="#002664"/><path d="M142.874 33.311a5.24 5.24 0 015.164-5.499c3.353 0 5.058 2.644 5.058 5.681v.68h-7.76a2.95 2.95 0 003.037 2.683 3.832 3.832 0 002.874-1.264l1.428 1.264a5.365 5.365 0 01-4.321 1.974 5.27 5.27 0 01-5.48-5.519zm7.818-.776c-.154-1.561-1.073-2.778-2.673-2.778a2.874 2.874 0 00-2.74 2.778h5.413z" id="Shape" fill="#002664"/><path d="M85.669 50.058a7.09 7.09 0 017.262-7.281 7.32 7.32 0 015.48 2.175l-1.648 1.82a5.585 5.585 0 00-3.918-1.734 4.704 4.704 0 00-4.59 4.905 4.704 4.704 0 004.618 4.953 5.48 5.48 0 004.024-1.8l1.58 1.637a7.233 7.233 0 01-5.68 2.482 7.042 7.042 0 01-7.128-7.157z" id="Path" fill="#002664"/><path d="M99.254 51.792a5.633 5.633 0 0111.257 0 5.518 5.518 0 01-5.662 5.5 5.451 5.451 0 01-5.595-5.5zm8.843 0a3.267 3.267 0 00-3.248-3.4 3.171 3.171 0 00-3.171 3.362 3.248 3.248 0 003.219 3.382 3.171 3.171 0 003.2-3.344z" id="Shape" fill="#002664"/><path d="M112.235 46.456h2.415v1.571a3.832 3.832 0 013.228-1.82 3.334 3.334 0 013.152 1.858 4.254 4.254 0 013.564-1.858c2.3 0 3.698 1.456 3.698 4.043v6.706h-2.414v-5.94c0-1.676-.786-2.577-2.146-2.577-1.36 0-2.261.958-2.261 2.615v5.96h-2.414v-6.017c0-1.638-.805-2.558-2.146-2.558-1.342 0-2.261.958-2.261 2.615v5.96h-2.415V46.455zm18.261 0h2.414v1.571a3.832 3.832 0 013.229-1.82 3.334 3.334 0 013.152 1.858 4.254 4.254 0 013.564-1.858c2.299 0 3.698 1.456 3.698 4.043v6.706h-2.415v-5.94c0-1.676-.785-2.577-2.146-2.577-1.36 0-2.26.958-2.26 2.615v5.96h-2.415v-6.017c0-1.638-.805-2.558-2.146-2.558-1.341 0-2.26.958-2.26 2.615v5.96h-2.415V46.455z" id="Path" fill="#002664"/><path d="M148.795 42.537h2.577v2.3h-2.597l.02-2.3zm.105 3.919h2.414v10.538H148.9V46.456z" id="Shape" fill="#002664"/><path d="M152.876 55.634l1.082-1.638a5.95 5.95 0 003.459 1.303c1.035 0 1.638-.441 1.638-1.14 0-.824-1.12-1.102-2.356-1.485-1.562-.441-3.306-1.083-3.306-3.105 0-1.992 1.667-3.219 3.765-3.219a7.339 7.339 0 013.88 1.198l-.958 1.724a6.132 6.132 0 00-2.989-.958c-.958 0-1.475.432-1.475 1.035 0 .786 1.14 1.102 2.376 1.504 1.542.48 3.286 1.179 3.286 3.076v.047c0 2.214-1.725 3.315-3.918 3.315a7.396 7.396 0 01-4.484-1.657zm9.082 0l1.073-1.638a5.978 5.978 0 003.468 1.303c1.035 0 1.639-.441 1.639-1.14 0-.824-1.121-1.102-2.367-1.485-1.552-.441-3.295-1.083-3.295-3.105 0-1.992 1.657-3.219 3.755-3.219a7.31 7.31 0 013.88 1.198l-.958 1.724a6.074 6.074 0 00-2.98-.958c-.957 0-1.475.432-1.475 1.035 0 .786 1.14 1.102 2.376 1.504 1.543.48 3.277 1.179 3.277 3.076v.047c0 2.214-1.715 3.315-3.919 3.315a7.367 7.367 0 01-4.474-1.657z" id="Path" fill="#002664"/><path d="M172.133 42.537h2.606v2.3h-2.606v-2.3zm.105 3.919h2.414v10.538h-2.414V46.456zm4.254 5.336a5.633 5.633 0 1111.266 0 5.528 5.528 0 01-5.662 5.5 5.46 5.46 0 01-5.604-5.5zm8.843 0a3.267 3.267 0 00-3.239-3.401 3.171 3.171 0 00-3.18 3.363 3.257 3.257 0 003.219 3.382 3.171 3.171 0 003.2-3.344z" id="Shape" fill="#002664"/><path d="M189.473 46.456h2.424v1.619a3.832 3.832 0 013.296-1.84c2.385 0 3.765 1.6 3.765 4.043v6.707h-2.424v-5.969c0-1.638-.824-2.577-2.26-2.577a2.347 2.347 0 00-2.377 2.615v5.96h-2.424V46.455z" id="Path" fill="#002664"/></g></g></g></svg>