<svg width="254" height="174" viewBox="0 0 254 174" fill="none" xmlns="http://www.w3.org/2000/svg">
<mask id="path-1-inside-1_2464_12175" fill="white">
<path fill-rule="evenodd" clip-rule="evenodd" d="M4 52.3447C1.79086 52.3447 0 54.1356 0 56.3447V150.684C0 152.893 1.79086 154.684 4 154.684H8.23766L7.38752 168.872C7.18159 172.309 11.1253 174.383 13.8402 172.266L36.3842 154.684H140C142.209 154.684 144 152.893 144 150.684V56.3447C144 54.1356 142.209 52.3447 140 52.3447H4Z"/>
</mask>
<path fill-rule="evenodd" clip-rule="evenodd" d="M4 52.3447C1.79086 52.3447 0 54.1356 0 56.3447V150.684C0 152.893 1.79086 154.684 4 154.684H8.23766L7.38752 168.872C7.18159 172.309 11.1253 174.383 13.8402 172.266L36.3842 154.684H140C142.209 154.684 144 152.893 144 150.684V56.3447C144 54.1356 142.209 52.3447 140 52.3447H4Z" fill="white"/>
<path d="M8.23766 154.684L10.2341 154.804L10.3611 152.684H8.23766V154.684ZM7.38752 168.872L9.38394 168.992L7.38752 168.872ZM13.8402 172.266L12.6103 170.689H12.6103L13.8402 172.266ZM36.3842 154.684V152.684H35.6965L35.1542 153.107L36.3842 154.684ZM2 56.3447C2 55.2402 2.89543 54.3447 4 54.3447V50.3447C0.68629 50.3447 -2 53.031 -2 56.3447H2ZM2 150.684V56.3447H-2V150.684H2ZM4 152.684C2.89543 152.684 2 151.789 2 150.684H-2C-2 153.998 0.686294 156.684 4 156.684V152.684ZM8.23766 152.684H4V156.684H8.23766V152.684ZM9.38394 168.992L10.2341 154.804L6.24124 154.565L5.3911 168.753L9.38394 168.992ZM12.6103 170.689C11.2528 171.747 9.28097 170.71 9.38394 168.992L5.3911 168.753C5.0822 173.908 10.9977 177.019 15.0702 173.843L12.6103 170.689ZM35.1542 153.107L12.6103 170.689L15.0702 173.843L37.6141 156.261L35.1542 153.107ZM140 152.684H36.3842V156.684H140V152.684ZM142 150.684C142 151.789 141.105 152.684 140 152.684V156.684C143.314 156.684 146 153.998 146 150.684H142ZM142 56.3447V150.684H146V56.3447H142ZM140 54.3447C141.105 54.3447 142 55.2402 142 56.3447H146C146 53.031 143.314 50.3447 140 50.3447V54.3447ZM4 54.3447H140V50.3447H4V54.3447Z" fill="#002664" mask="url(#path-1-inside-1_2464_12175)"/>
<mask id="path-3-outside-2_2464_12175" maskUnits="userSpaceOnUse" x="29.5235" y="79.7525" width="46.0921" height="46.7753" fill="black">
<rect fill="white" x="29.5235" y="79.7525" width="46.0921" height="46.7753"/>
<path d="M54.3003 97.0068L52.4627 90.6452C52.0972 89.3798 51.244 88.3115 50.0908 87.6752C48.9376 87.0389 47.5788 86.8867 46.3134 87.2522L44.0864 103.403L49.1396 120.897L67.0791 115.716C67.8487 115.503 68.5154 115.019 68.9564 114.353C69.3974 113.687 69.583 112.885 69.4789 112.093L67.5392 97.1457C67.4767 96.6699 67.3115 96.2133 67.055 95.8076C66.7986 95.4019 66.457 95.0569 66.0539 94.7963C65.6509 94.5358 65.196 94.366 64.7208 94.2987C64.2456 94.2314 63.7614 94.2682 63.3018 94.4066L54.3003 97.0068ZM49.1396 120.897L44.3685 122.276C43.5249 122.519 42.6191 122.418 41.8502 121.994C41.0814 121.569 40.5126 120.857 40.2689 120.014L37.0532 108.881C36.8096 108.037 36.911 107.131 37.3352 106.363C37.7594 105.594 38.4716 105.025 39.3152 104.781L44.0864 103.403"/>
</mask>
<path d="M54.3003 97.0068L52.4627 90.6452C52.0972 89.3798 51.244 88.3115 50.0908 87.6752C48.9376 87.0389 47.5788 86.8867 46.3134 87.2522L44.0864 103.403L49.1396 120.897L67.0791 115.716C67.8487 115.503 68.5154 115.019 68.9564 114.353C69.3974 113.687 69.583 112.885 69.4789 112.093L67.5392 97.1457C67.4767 96.6699 67.3115 96.2133 67.055 95.8076C66.7986 95.4019 66.457 95.0569 66.0539 94.7963C65.6509 94.5358 65.196 94.366 64.7208 94.2987C64.2456 94.2314 63.7614 94.2682 63.3018 94.4066L54.3003 97.0068ZM49.1396 120.897L44.3685 122.276C43.5249 122.519 42.6191 122.418 41.8502 121.994C41.0814 121.569 40.5126 120.857 40.2689 120.014L37.0532 108.881C36.8096 108.037 36.911 107.131 37.3352 106.363C37.7594 105.594 38.4716 105.025 39.3152 104.781L44.0864 103.403" fill="#F0F6FF"/>
<path d="M54.3003 97.0068L52.3788 97.5618C52.6854 98.623 53.7941 99.2347 54.8553 98.9282L54.3003 97.0068ZM52.4627 90.6452L54.3842 90.0902L52.4627 90.6452ZM46.3134 87.2522L45.7584 85.3308C44.9991 85.5501 44.4401 86.1961 44.3322 86.9791L46.3134 87.2522ZM44.0864 103.403L42.1051 103.13C42.0669 103.407 42.0873 103.689 42.1649 103.958L44.0864 103.403ZM49.1396 120.897L47.2182 121.452C47.5247 122.514 48.6335 123.125 49.6946 122.819L49.1396 120.897ZM67.0791 115.716L66.5459 113.788C66.5386 113.79 66.5314 113.792 66.5241 113.794L67.0791 115.716ZM69.4789 112.093L67.4956 112.351L67.496 112.354L69.4789 112.093ZM67.5392 97.1457L69.5226 96.8884L69.5222 96.8853L67.5392 97.1457ZM66.0539 94.7963L67.1397 93.1167L66.0539 94.7963ZM63.3018 94.4066L63.8569 96.3281C63.8641 96.326 63.8714 96.3238 63.8786 96.3217L63.3018 94.4066ZM49.6946 122.819C50.7558 122.512 51.3676 121.404 51.0611 120.342C50.7546 119.281 49.6458 118.669 48.5846 118.976L49.6946 122.819ZM41.8502 121.994L42.8165 120.243L41.8502 121.994ZM40.2689 120.014L38.3475 120.569L40.2689 120.014ZM39.3152 104.781L39.8703 106.703L39.3152 104.781ZM44.6414 105.325C45.7026 105.018 46.3144 103.909 46.0078 102.848C45.7013 101.787 44.5926 101.175 43.5314 101.482L44.6414 105.325ZM56.2217 96.4517L54.3842 90.0902L50.5413 91.2002L52.3788 97.5618L56.2217 96.4517ZM54.3842 90.0902C53.8715 88.3152 52.6747 86.8166 51.057 85.9241L49.1246 89.4263C49.8134 89.8064 50.323 90.4445 50.5413 91.2002L54.3842 90.0902ZM51.057 85.9241C49.4394 85.0315 47.5334 84.8181 45.7584 85.3308L46.8685 89.1737C47.6242 88.9554 48.4358 89.0462 49.1246 89.4263L51.057 85.9241ZM44.3322 86.9791L42.1051 103.13L46.0676 103.676L48.2947 87.5254L44.3322 86.9791ZM42.1649 103.958L47.2182 121.452L51.0611 120.342L46.0078 102.848L42.1649 103.958ZM49.6946 122.819L67.6342 117.637L66.5241 113.794L48.5846 118.976L49.6946 122.819ZM67.6124 117.643C68.8469 117.302 69.9164 116.525 70.6238 115.458L67.2891 113.249C67.1145 113.512 66.8506 113.704 66.5459 113.788L67.6124 117.643ZM70.6238 115.458C71.3312 114.39 71.6288 113.102 71.4619 111.832L67.496 112.354C67.5372 112.667 67.4637 112.985 67.2891 113.249L70.6238 115.458ZM71.4623 111.836L69.5226 96.8884L65.5558 97.4031L67.4956 112.351L71.4623 111.836ZM69.5222 96.8853C69.4219 96.122 69.1569 95.3896 68.7456 94.7389L65.3645 96.8763C65.4661 97.037 65.5315 97.2177 65.5562 97.4061L69.5222 96.8853ZM68.7456 94.7389C68.3342 94.0882 67.7862 93.5346 67.1397 93.1167L64.9682 96.476C65.1278 96.5791 65.263 96.7157 65.3645 96.8763L68.7456 94.7389ZM67.1397 93.1167C66.4931 92.6988 65.7634 92.4264 65.0012 92.3184L64.4404 96.2789C64.6285 96.3056 64.8086 96.3728 64.9682 96.476L67.1397 93.1167ZM65.0012 92.3184C64.2389 92.2105 63.4623 92.2696 62.7251 92.4916L63.8786 96.3217C64.0605 96.2669 64.2522 96.2523 64.4404 96.2789L65.0012 92.3184ZM62.7468 92.4852L53.7453 95.0853L54.8553 98.9282L63.8569 96.3281L62.7468 92.4852ZM48.5846 118.976L43.8135 120.354L44.9235 124.197L49.6946 122.819L48.5846 118.976ZM43.8135 120.354C43.4795 120.451 43.1208 120.41 42.8165 120.243L40.884 123.745C42.1173 124.425 43.5703 124.588 44.9235 124.197L43.8135 120.354ZM42.8165 120.243C42.5121 120.075 42.2869 119.793 42.1904 119.459L38.3475 120.569C38.7384 121.922 39.6508 123.064 40.884 123.745L42.8165 120.243ZM42.1904 119.459L38.9747 108.326L35.1318 109.436L38.3475 120.569L42.1904 119.459ZM38.9747 108.326C38.8782 107.992 38.9184 107.633 39.0863 107.329L35.5841 105.396C34.9036 106.63 34.7409 108.083 35.1318 109.436L38.9747 108.326ZM39.0863 107.329C39.2543 107.025 39.5363 106.799 39.8703 106.703L38.7602 102.86C37.407 103.251 36.2645 104.163 35.5841 105.396L39.0863 107.329ZM39.8703 106.703L44.6414 105.325L43.5314 101.482L38.7602 102.86L39.8703 106.703Z" fill="#002664" mask="url(#path-3-outside-2_2464_12175)"/>
<path d="M43.3125 101.738L48.46 121.805" stroke="#002664" stroke-width="2"/>
<circle cx="40.171" cy="108.517" r="1.21205" fill="#002664"/>
<mask id="path-7-inside-3_2464_12175" fill="white">
<path fill-rule="evenodd" clip-rule="evenodd" d="M250 0.344727C252.209 0.344727 254 2.13559 254 4.34473V98.6843C254 100.893 252.209 102.684 250 102.684H245.762L246.612 116.872C246.818 120.309 242.875 122.383 240.16 120.266L217.616 102.684H114C111.791 102.684 110 100.893 110 98.6843V4.34473C110 2.13559 111.791 0.344727 114 0.344727H250Z"/>
</mask>
<path fill-rule="evenodd" clip-rule="evenodd" d="M250 0.344727C252.209 0.344727 254 2.13559 254 4.34473V98.6843C254 100.893 252.209 102.684 250 102.684H245.762L246.612 116.872C246.818 120.309 242.875 122.383 240.16 120.266L217.616 102.684H114C111.791 102.684 110 100.893 110 98.6843V4.34473C110 2.13559 111.791 0.344727 114 0.344727H250Z" fill="white"/>
<path d="M245.762 102.684L243.766 102.804L243.639 100.684H245.762V102.684ZM246.612 116.872L244.616 116.992L246.612 116.872ZM240.16 120.266L241.39 118.689H241.39L240.16 120.266ZM217.616 102.684V100.684H218.303L218.846 101.107L217.616 102.684ZM252 4.34473C252 3.24016 251.105 2.34473 250 2.34473V-1.65527C253.314 -1.65527 256 1.03102 256 4.34473H252ZM252 98.6843V4.34473H256V98.6843H252ZM250 100.684C251.105 100.684 252 99.7889 252 98.6843H256C256 101.998 253.314 104.684 250 104.684V100.684ZM245.762 100.684H250V104.684H245.762V100.684ZM244.616 116.992L243.766 102.804L247.759 102.565L248.609 116.753L244.616 116.992ZM241.39 118.689C242.747 119.747 244.719 118.71 244.616 116.992L248.609 116.753C248.918 121.908 243.002 125.019 238.93 121.843L241.39 118.689ZM218.846 101.107L241.39 118.689L238.93 121.843L216.386 104.261L218.846 101.107ZM114 100.684H217.616V104.684H114V100.684ZM112 98.6843C112 99.7889 112.895 100.684 114 100.684V104.684C110.686 104.684 108 101.998 108 98.6843H112ZM112 4.34473V98.6843H108V4.34473H112ZM114 2.34473C112.895 2.34473 112 3.24016 112 4.34473H108C108 1.03102 110.686 -1.65527 114 -1.65527V2.34473ZM250 2.34473H114V-1.65527H250V2.34473Z" fill="#002664" mask="url(#path-7-inside-3_2464_12175)"/>
<circle cx="204.962" cy="63.326" r="2.01892" fill="#E4E4E6"/>
<rect x="170" y="39.3447" width="27.5919" height="4.03784" rx="2.01892" fill="#E4E4E6"/>
<rect x="170" y="61.3071" width="27.5919" height="4.03784" rx="2.01892" fill="#E4E4E6"/>
<path d="M170 52.3446C170 51.2296 170.904 50.3257 172.019 50.3257H215.778C216.893 50.3257 217.797 51.2296 217.797 52.3446C217.797 53.4596 216.893 54.3635 215.778 54.3635H172.019C170.904 54.3635 170 53.4596 170 52.3446Z" fill="#E4E4E6"/>
<rect x="202.975" y="39.3447" width="14.1324" height="4.03784" rx="2.01892" fill="#E4E4E6"/>
<path fill-rule="evenodd" clip-rule="evenodd" d="M159.108 48.8989C159.108 54.1755 154.831 58.453 149.554 58.453C144.278 58.453 140 54.1755 140 48.8989C140 43.6223 144.278 39.3447 149.554 39.3447C154.831 39.3447 159.108 43.6223 159.108 48.8989ZM145.799 48.0155L148.153 50.1695L153.247 45.0772L154.65 46.4802L148.214 52.916L144.459 49.4799L145.799 48.0155Z" fill="#00A908"/>
</svg>
