<svg width="24" height="24" viewBox="0 0 24 24" fill="none" xmlns="http://www.w3.org/2000/svg">
<path d="M6 2C4.9 2 4 2.9 4 4V20C4 21.1 4.9 22 6 22H11.5195C11.0495 21.4 10.6895 20.73 10.4395 20H6V4H18V10.0293L20 10.4395V4C20 2.9 19.1 2 18 2H6ZM8 7V9H16V7H8ZM8 11V13H11.5195C12.1195 12.18 12.8893 11.5 13.7793 11H8ZM17.5 12C16.201 12 14.9936 12.4545 14.0508 13.2246C12.7951 14.228 12 15.7783 12 17.5C12 17.706 12.0122 17.9125 12.0371 18.1152C12.3442 20.8593 14.6786 23 17.5 23C18.6545 23 19.7267 22.6398 20.6133 22.0273L22.543 23.957L23.957 22.543L22.0273 20.6133C22.6398 19.7267 23 18.6545 23 17.5C23 14.4718 20.5282 12 17.5 12ZM18 14.0488C19.7075 14.289 21 15.7197 21 17.5C21 19.4518 19.4518 21 17.5 21C15.7226 21 14.2914 19.6981 14.0469 18H18V14.0488ZM8 15V17H10.0293C10.0593 16.3 10.1995 15.63 10.4395 15H8Z" fill="#002664"/>
</svg>
