<svg width="32" height="32" viewBox="0 0 32 32" fill="none" xmlns="http://www.w3.org/2000/svg">
<rect width="32" height="32" rx="4" fill="#061A4D"/>
<mask id="mask0_2615_12760" style="mask-type:alpha" maskUnits="userSpaceOnUse" x="4" y="4" width="24" height="24">
<rect x="4" y="4" width="24" height="24" fill="#D9D9D9"/>
</mask>
<g mask="url(#mask0_2615_12760)">
<path d="M22 25L26 21L24.6 19.6L23 21.2V17.025H21V21.2L19.4 19.6L18 21L22 25ZM18 28V26H26V28H18ZM10 24C9.45 24 8.97917 23.8042 8.5875 23.4125C8.19583 23.0208 8 22.55 8 22V8C8 7.45 8.19583 6.97917 8.5875 6.5875C8.97917 6.19583 9.45 6 10 6H17L23 12V15.025H21V13H16V8H10V22H16V24H10Z" fill="white"/>
</g>
</svg>
