<svg width="120" height="48" viewBox="0 0 120 48" fill="none" xmlns="http://www.w3.org/2000/svg">
<g clip-path="url(#clip0_2442_24895)">
<path d="M34.2795 21.9455V17.2677H32.6008V16.1889H37.1804V17.2677H35.5102V21.9455H34.2795ZM37.9645 21.9455V16.1884H42.0278V17.2412H39.1868V18.4927H41.9672V19.5455H39.1868V20.8831H42.0278V21.945H37.9645V21.9455ZM42.708 19.0712C42.708 17.302 44.0426 16.0933 45.7212 16.0933C47.0294 16.0933 47.7613 16.7837 48.1659 17.5001L47.1159 18.0178C46.8751 17.5518 46.3582 17.1804 45.7212 17.1804C44.7228 17.1804 43.9651 17.9834 43.9651 19.0706C43.9651 20.1578 44.7228 20.9608 45.7212 20.9608C46.3582 20.9608 46.8745 20.5984 47.1159 20.1235L48.1659 20.6327C47.7529 21.3491 47.0294 22.0485 45.7212 22.0485C44.0426 22.0485 42.708 20.8398 42.708 19.0706V19.0712ZM52.832 21.9455V19.5287H50.1207V21.9455H48.8983V16.1884H50.1207V18.4499H52.832V16.1884H54.0633V21.9455H52.832ZM59.1514 21.9455L56.4143 18.0785V21.9455H55.1919V16.1884H56.4491L59.1093 19.9169V16.1884H60.3317V21.9455H59.152H59.1514ZM64.1879 16.0933C65.9265 16.0933 67.1921 17.3363 67.1921 19.0712C67.1921 20.806 65.9265 22.0491 64.1879 22.0491C62.4492 22.0491 61.192 20.806 61.192 19.0712C61.192 17.3363 62.4576 16.0933 64.1879 16.0933ZM64.1879 17.181C63.1288 17.181 62.4492 17.9924 62.4492 19.0712C62.4492 20.1499 63.1288 20.9614 64.1879 20.9614C65.2469 20.9614 65.9355 20.1415 65.9355 19.0712C65.9355 18.0009 65.2469 17.181 64.1879 17.181ZM68.0541 21.9455V16.1884H69.2765V20.8663H71.7044V21.945H68.0547L68.0541 21.9455ZM75.0442 16.0933C76.7829 16.0933 78.0485 17.3363 78.0485 19.0712C78.0485 20.806 76.7829 22.0491 75.0442 22.0491C73.3056 22.0491 72.0484 20.806 72.0484 19.0712C72.0484 17.3363 73.314 16.0933 75.0442 16.0933ZM75.0442 17.181C73.9852 17.181 73.3056 17.9924 73.3056 19.0712C73.3056 20.1499 73.9858 20.9614 75.0442 20.9614C76.1027 20.9614 76.7919 20.1415 76.7919 19.0712C76.7919 18.0009 76.1033 17.181 75.0442 17.181ZM81.6909 16.0933C82.879 16.0933 83.6277 16.6717 84.0665 17.3532L83.0507 17.9058C82.7841 17.5001 82.2931 17.181 81.6909 17.181C80.6492 17.181 79.8916 17.984 79.8916 19.0712C79.8916 20.1584 80.6487 20.9614 81.6909 20.9614C82.2162 20.9614 82.6809 20.7458 82.9306 20.5213V19.8224H81.3985V18.7696H84.1356V20.9704C83.5502 21.6259 82.7325 22.0581 81.6909 22.0581C80.0122 22.0581 78.635 20.8843 78.635 19.0717C78.635 17.2592 80.0122 16.0938 81.6909 16.0938V16.0933ZM86.5382 21.9455V19.5894L84.3258 16.1889H85.7205L87.1494 18.5023L88.5614 16.1889H89.9555L87.7605 19.5894V21.9455H86.5382Z" fill="#1E3964"/>
<path d="M97.6095 21.9454H96.2148C96.0942 21.8334 95.9477 21.6776 95.7844 21.5138C95.3539 21.8419 94.846 22.0489 94.2264 22.0489C93.1674 22.0489 92.3239 21.4964 92.3239 20.3827C92.3239 19.5026 92.9092 19.0536 93.5636 18.7171C93.3397 18.2939 93.1848 17.8713 93.1848 17.4825C93.1848 16.7059 93.865 16.1016 94.8202 16.1016C95.6379 16.1016 96.3355 16.5506 96.3355 17.3187C96.3355 18.1988 95.63 18.5702 94.924 18.8983C95.0963 19.1312 95.2686 19.3468 95.4145 19.5195C95.5778 19.7266 95.7417 19.9162 95.9056 20.1064C96.1464 19.7356 96.3271 19.3293 96.4309 18.9934L97.3087 19.3991C97.1021 19.8566 96.835 20.349 96.5078 20.789C96.8524 21.1599 97.2138 21.5397 97.6095 21.9454ZM95.199 20.8836C94.9409 20.5988 94.6995 20.331 94.562 20.1582C94.3729 19.9252 94.1748 19.6664 93.9851 19.3985C93.6921 19.6146 93.4856 19.8819 93.4856 20.2792C93.4856 20.8402 93.8987 21.1852 94.3723 21.1852C94.6737 21.1852 94.9493 21.0732 95.1985 20.883L95.199 20.8836ZM94.5278 18.277C95.0099 18.0525 95.3797 17.8021 95.3797 17.3795C95.3797 17.0773 95.1642 16.8961 94.8802 16.8961C94.5356 16.8961 94.2775 17.155 94.2775 17.5089C94.2775 17.7419 94.3808 18.0097 94.5272 18.277H94.5278Z" fill="#404041"/>
<path d="M32.6782 27.2142C32.6782 25.445 34.0123 24.2363 35.6909 24.2363C36.9991 24.2363 37.731 24.9268 38.1356 25.6431L37.0855 26.1608C36.8442 25.6949 36.3279 25.3235 35.6909 25.3235C34.6925 25.3235 33.9348 26.1265 33.9348 27.2137C33.9348 28.3009 34.6925 29.1039 35.6909 29.1039C36.3279 29.1039 36.8442 28.7415 37.0855 28.2665L38.1356 28.7758C37.7225 29.4921 36.9991 30.191 35.6909 30.191C34.0123 30.191 32.6782 28.9829 32.6782 27.2131V27.2142ZM41.5888 24.2363C43.3275 24.2363 44.5931 25.4794 44.5931 27.2142C44.5931 28.9491 43.3275 30.1922 41.5888 30.1922C39.8502 30.1922 38.593 28.9491 38.593 27.2142C38.593 25.4794 39.8586 24.2363 41.5888 24.2363ZM41.5888 25.3241C40.5298 25.3241 39.8502 26.1355 39.8502 27.2142C39.8502 28.293 40.5304 29.1044 41.5888 29.1044C42.6473 29.1044 43.3365 28.2845 43.3365 27.2142C43.3365 26.1439 42.6479 25.3241 41.5888 25.3241ZM50.4473 30.0881V25.9453L48.8287 30.0881H48.2949L46.6764 25.9453V30.0881H45.454V24.3309H47.1674L48.5621 27.9216L49.9567 24.3309H51.6786V30.0881H50.4478H50.4473ZM57.8083 30.0881V25.9453L56.1897 30.0881H55.656L54.038 25.9453V30.0881H52.8156V24.3309H54.5291L55.9237 27.9216L57.3184 24.3309H59.0402V30.0881H57.8089H57.8083ZM60.1761 24.3314H61.4159V27.7494C61.4159 28.5524 61.8553 29.1044 62.7505 29.1044C63.6456 29.1044 64.0677 28.5518 64.0677 27.7494V24.3314H65.3074V27.7837C65.3074 29.2164 64.4897 30.1916 62.7511 30.1916C61.0124 30.1916 60.1767 29.208 60.1767 27.7922V24.3309L60.1761 24.3314ZM70.404 30.0881L67.6668 26.221V30.0881H66.4445V24.3309H67.7016L70.3619 28.0594V24.3309H71.5842V30.0881H70.4051H70.404ZM72.7201 30.0881V24.3309H73.9425V30.0881H72.7201ZM74.8034 27.2142C74.8034 25.445 76.1375 24.2363 77.8161 24.2363C79.1243 24.2363 79.8562 24.9268 80.2608 25.6431L79.2107 26.1608C78.9694 25.6949 78.4531 25.3235 77.8161 25.3235C76.8177 25.3235 76.06 26.1265 76.06 27.2137C76.06 28.3009 76.8171 29.1039 77.8161 29.1039C78.4531 29.1039 78.9694 28.7415 79.2107 28.2665L80.2608 28.7758C79.8477 29.4921 79.1249 30.191 77.8161 30.191C76.1375 30.191 74.8034 28.9829 74.8034 27.2131V27.2142ZM84.9538 30.0881L84.5924 29.0954H82.027L81.6656 30.0881H80.3225L82.5433 24.3309H84.0755L86.2878 30.0881H84.9538ZM83.3094 25.3927L82.3542 28.0341H84.2562L83.3094 25.3927ZM87.5972 30.0881V25.4102H85.9185V24.3314H90.4982V25.4102H88.8279V30.0881H87.5966H87.5972ZM91.2822 30.0881V24.3309H92.5045V30.0881H91.2822ZM96.3607 24.2363C98.0994 24.2363 99.365 25.4794 99.365 27.2142C99.365 28.9491 98.0994 30.1922 96.3607 30.1922C94.6221 30.1922 93.3649 28.9491 93.3649 27.2142C93.3649 25.4794 94.6305 24.2363 96.3607 24.2363ZM96.3607 25.3241C95.3017 25.3241 94.6221 26.1355 94.6221 27.2142C94.6221 28.293 95.3023 29.1044 96.3607 29.1044C97.4192 29.1044 98.1084 28.2845 98.1084 27.2142C98.1084 26.1439 97.4198 25.3241 96.3607 25.3241ZM104.187 30.0881L101.449 26.221V30.0881H100.227V24.3309H101.484L104.144 28.0594V24.3309H105.366V30.0881H104.187Z" fill="url(#paint0_linear_2442_24895)"/>
<path d="M33.2294 36.4879C33.634 36.911 34.2626 37.265 35.0545 37.265C35.7263 37.265 36.0529 36.9454 36.0529 36.6179C36.0529 36.1863 35.5534 36.0394 34.8906 35.8841C33.9522 35.6686 32.7473 35.4092 32.7473 34.1233C32.7473 33.1656 33.5734 32.3885 34.9248 32.3885C35.8374 32.3885 36.595 32.6648 37.163 33.1915L36.4828 34.089C36.0181 33.6574 35.3979 33.4588 34.8384 33.4588C34.2789 33.4588 33.9949 33.7002 33.9949 34.0457C33.9949 34.434 34.477 34.5549 35.1398 34.7103C36.0866 34.9258 37.2921 35.2111 37.2921 36.4884C37.2921 37.5413 36.5428 38.3359 34.9933 38.3359C33.8916 38.3359 33.0997 37.9645 32.557 37.4209L33.2288 36.4884L33.2294 36.4879ZM38.1193 38.2312V32.474H42.1826V33.5269H39.3417V34.7783H42.122V35.8312H39.3417V37.1688H42.1826V38.2306H38.1193V38.2312ZM46.384 38.2312L45.2565 36.1683H44.3613V38.2312H43.139V32.474H45.825C47.0215 32.474 47.7534 33.2596 47.7534 34.3299C47.7534 35.4001 47.1164 35.892 46.4968 36.0388L47.7882 38.2312H46.3851H46.384ZM45.6437 33.5274H44.3613V35.1154H45.6437C46.1342 35.1154 46.5046 34.8048 46.5046 34.3214C46.5046 33.838 46.1348 33.5274 45.6437 33.5274ZM50.1981 38.2312L47.9773 32.474H49.372L50.9647 36.9015L52.5485 32.474H53.9432L51.7308 38.2312H50.1986H50.1981ZM54.4769 38.2312V32.474H55.6992V38.2312H54.4769ZM56.5602 35.3568C56.5602 33.5876 57.8942 32.3789 59.5728 32.3789C60.8811 32.3789 61.6129 33.0694 62.0175 33.7857L60.9675 34.3034C60.7262 33.8375 60.2098 33.4661 59.5728 33.4661C58.5744 33.4661 57.8167 34.2691 57.8167 35.3563C57.8167 36.4434 58.5744 37.2464 59.5728 37.2464C60.2098 37.2464 60.7262 36.884 60.9675 36.4091L62.0175 36.9184C61.6045 37.6347 60.8811 38.3342 59.5728 38.3342C57.8942 38.3342 56.5602 37.1254 56.5602 35.3563V35.3568ZM62.7505 38.2312V32.474H66.8138V33.5269H63.9734V34.7783H66.7537V35.8312H63.9734V37.1688H66.8138V38.2306H62.7505V38.2312ZM68.0451 36.4879C68.4498 36.911 69.0783 37.265 69.8702 37.265C70.5415 37.265 70.8687 36.9454 70.8687 36.6179C70.8687 36.1863 70.3697 36.0394 69.7069 35.8841C68.7686 35.6686 67.563 35.4092 67.563 34.1233C67.563 33.1656 68.3892 32.3885 69.7412 32.3885C70.6537 32.3885 71.4114 32.6648 71.9793 33.1915L71.2991 34.089C70.8344 33.6574 70.2143 33.4588 69.6553 33.4588C69.0963 33.4588 68.8118 33.7002 68.8118 34.0457C68.8118 34.434 69.2939 34.5549 69.9567 34.7103C70.9035 34.9258 72.1084 35.2111 72.1084 36.4884C72.1084 37.5413 71.3597 38.3359 69.8102 38.3359C68.7085 38.3359 67.9166 37.9645 67.3739 37.4209L68.0451 36.4884V36.4879Z" fill="url(#paint1_linear_2442_24895)"/>
<path d="M74.864 35.3568C74.864 33.5876 76.1981 32.3789 77.8767 32.3789C79.1849 32.3789 79.9168 33.0694 80.3214 33.7857L79.2713 34.3034C79.03 33.8375 78.5137 33.4661 77.8767 33.4661C76.8783 33.4661 76.1206 34.2691 76.1206 35.3563C76.1206 36.4434 76.8777 37.2464 77.8767 37.2464C78.5137 37.2464 79.03 36.884 79.2713 36.4091L80.3214 36.9184C79.9083 37.6347 79.1855 38.3342 77.8767 38.3342C76.1981 38.3342 74.864 37.1254 74.864 35.3563V35.3568Z" fill="#404041"/>
<path d="M83.7742 32.3794C85.5128 32.3794 86.7784 33.6224 86.7784 35.3573C86.7784 37.0922 85.5128 38.3352 83.7742 38.3352C82.0355 38.3352 80.7783 37.0922 80.7783 35.3573C80.7783 33.6224 82.0439 32.3794 83.7742 32.3794ZM83.7742 33.4666C82.7151 33.4666 82.0355 34.278 82.0355 35.3567C82.0355 36.4355 82.7151 37.2469 83.7742 37.2469C84.8332 37.2469 85.5218 36.427 85.5218 35.3567C85.5218 34.2865 84.8332 33.4666 83.7742 33.4666Z" fill="#404041"/>
<path d="M92.6331 38.2313V34.0886L91.015 38.2313H90.4813L88.8627 34.0886V38.2313H87.6404V32.4741H89.3532L90.7479 36.0648L92.1425 32.4741H93.8644V38.2313H92.6331Z" fill="#404041"/>
<path d="M99.9942 38.2313V34.0886L98.3762 38.2313H97.8424L96.2244 34.0886V38.2313H95.0021V32.4741H96.7149L98.1096 36.0648L99.5042 32.4741H101.226V38.2313H99.9948H99.9942Z" fill="#404041"/>
<path d="M106.383 38.2313L106.021 37.2387H103.456L103.094 38.2313H101.751L103.972 32.4741H105.504L107.717 38.2313H106.383ZM104.738 33.536L103.783 36.1774H105.685L104.738 33.536Z" fill="#404041"/>
<path d="M112.211 38.2313L109.474 34.3643V38.2313H108.251V32.4741H109.509L112.168 36.2027V32.4741H113.391V38.2313H112.211Z" fill="#404041"/>
<path d="M114.527 38.2313V32.4741H116.791C118.59 32.4741 119.839 33.6221 119.839 35.3569C119.839 37.0918 118.59 38.2313 116.791 38.2313H114.527ZM115.749 37.1526H116.791C117.928 37.1526 118.59 36.3327 118.59 35.3575C118.59 34.3823 117.971 33.5534 116.791 33.5534H115.749V37.1526Z" fill="#404041"/>
<mask id="mask0_2442_24895" style="mask-type:luminance" maskUnits="userSpaceOnUse" x="0" y="0" width="28" height="48">
<path d="M2.75358 14.9004V20.2738L11.9078 14.1874V17.3268L1.26633 24.1453C0.944746 24.3513 0.75 24.708 0.750561 25.0907L0.756174 30.1878L14.1538 38.7653L18.6279 35.9073V34.5624L15.2084 32.3762L14.1538 33.0492L5.34814 27.417L11.9341 23.057L11.9134 29.4169L23.1043 36.5679L14.1544 42.2835L5.2185 36.5679L6.99198 35.4335L2.52404 32.5754L1.25454 33.3874C0.940256 33.5889 0.75 33.9366 0.75 34.3103V39.4265L14.1538 48.0001L27.5576 39.4265L27.5705 34.3969C27.5716 33.9698 27.3544 33.5714 26.9953 33.3418L16.3768 26.5549L16.3785 22.842L23.0897 27.3337L21.25 28.5086L25.7207 31.3684L27.5638 30.1912V25.0389C27.5638 24.6878 27.3853 24.3614 27.0901 24.1729L16.3763 17.3167V11.2568L24.3917 5.94976V0.976444C24.3917 0.55778 23.9276 0.30737 23.5791 0.538085L3.23343 14.0068C2.93374 14.2049 2.75358 14.5408 2.75358 14.9009V14.9004Z" fill="white"/>
</mask>
<g mask="url(#mask0_2442_24895)">
<path opacity="0.9" d="M2.52348 32.5757L0.75 33.7101V39.4262L6.99141 35.4337L2.52348 32.5757Z" fill="url(#paint2_linear_2442_24895)"/>
<path d="M14.1538 42.2846V48.0002L27.557 39.4266V33.7104L14.1538 42.2846Z" fill="#0097D9"/>
<path d="M14.1538 42.2846L0.75 33.7104V39.4266L14.1538 48.0002V42.2846Z" fill="url(#paint3_linear_2442_24895)"/>
<path d="M14.1538 33.0497V38.7652L0.756174 30.1877L0.75 24.4761L14.1538 33.0497Z" fill="url(#paint4_linear_2442_24895)"/>
<path d="M11.9078 17.3271L11.9341 23.0573L5.34814 27.4167L0.75 24.4759L11.9078 17.3271Z" fill="url(#paint5_linear_2442_24895)"/>
<path d="M16.3762 17.3164L16.3779 22.8418L23.0891 27.3339L27.5632 24.4759L16.3762 17.3164Z" fill="url(#paint6_linear_2442_24895)"/>
<path d="M11.9077 14.188L11.9128 29.4175L16.3807 26.5549L16.3757 11.2568L11.9077 14.188Z" fill="url(#paint7_linear_2442_24895)"/>
<path d="M15.2078 32.3765L14.1538 33.0495V38.765L18.6279 35.9075V34.5626L15.2078 32.3765Z" fill="#C4161C"/>
<path d="M11.9128 29.4172L16.3763 26.5547L27.5717 33.7102L23.1037 36.5683L11.9128 29.4172Z" fill="url(#paint8_linear_2442_24895)"/>
<path d="M21.25 28.5091L25.7207 31.3688L27.5633 30.1916V24.4761L21.25 28.5091Z" fill="#C4161C"/>
<path d="M24.3917 0V5.94964L2.75354 20.2737V14.324L24.3917 0Z" fill="#1E3964"/>
</g>
</g>
<defs>
<linearGradient id="paint0_linear_2442_24895" x1="32.6782" y1="27.2142" x2="105.366" y2="27.2142" gradientUnits="userSpaceOnUse">
<stop stop-color="#C4161C"/>
<stop offset="1" stop-color="#790000"/>
</linearGradient>
<linearGradient id="paint1_linear_2442_24895" x1="32.5576" y1="35.3574" x2="72.1084" y2="35.3574" gradientUnits="userSpaceOnUse">
<stop stop-color="#0066B3"/>
<stop offset="0.48" stop-color="#0066B3"/>
<stop offset="1" stop-color="#00458C"/>
</linearGradient>
<linearGradient id="paint2_linear_2442_24895" x1="0.75" y1="36.001" x2="6.99141" y2="36.001" gradientUnits="userSpaceOnUse">
<stop stop-color="#00458C"/>
<stop offset="0.6" stop-color="#0066B3"/>
</linearGradient>
<linearGradient id="paint3_linear_2442_24895" x1="0.75" y1="40.8553" x2="14.1538" y2="40.8553" gradientUnits="userSpaceOnUse">
<stop offset="0.79" stop-color="#00458C"/>
<stop offset="0.83" stop-color="#004B92"/>
<stop offset="0.89" stop-color="#005EA3"/>
<stop offset="0.95" stop-color="#007CC0"/>
<stop offset="1" stop-color="#0097D9"/>
</linearGradient>
<linearGradient id="paint4_linear_2442_24895" x1="0.75" y1="31.6209" x2="14.1538" y2="31.6209" gradientUnits="userSpaceOnUse">
<stop offset="0.79" stop-color="#790000"/>
<stop offset="0.83" stop-color="#7F0102"/>
<stop offset="0.89" stop-color="#920709"/>
<stop offset="0.96" stop-color="#B01014"/>
<stop offset="1" stop-color="#C4161C"/>
</linearGradient>
<linearGradient id="paint5_linear_2442_24895" x1="0.75" y1="22.3719" x2="11.9341" y2="22.3719" gradientUnits="userSpaceOnUse">
<stop offset="0.29" stop-color="#C4161C"/>
<stop offset="1" stop-color="#790000"/>
</linearGradient>
<linearGradient id="paint6_linear_2442_24895" x1="16.3762" y1="22.3252" x2="27.5632" y2="22.3252" gradientUnits="userSpaceOnUse">
<stop stop-color="#C4161C"/>
<stop offset="1" stop-color="#790000"/>
</linearGradient>
<linearGradient id="paint7_linear_2442_24895" x1="10.7808" y1="14.4959" x2="17.535" y2="26.1629" gradientUnits="userSpaceOnUse">
<stop offset="0.1" stop-color="#1E3964"/>
<stop offset="0.85" stop-color="#0066B3"/>
</linearGradient>
<linearGradient id="paint8_linear_2442_24895" x1="11.9128" y1="31.5618" x2="27.5717" y2="31.5618" gradientUnits="userSpaceOnUse">
<stop stop-color="#0066B3"/>
<stop offset="0.48" stop-color="#0066B3"/>
<stop offset="1" stop-color="#00458C"/>
</linearGradient>
<clipPath id="clip0_2442_24895">
<rect width="119.089" height="48" fill="white" transform="translate(0.75)"/>
</clipPath>
</defs>
</svg>
